<svg width="95" height="95" viewBox="0 0 95 95" fill="none" xmlns="http://www.w3.org/2000/svg">
<path d="M29.1043 62.4257C29.1481 61.9181 29.5526 62.0593 29.8274 62.0574C31.163 62.0479 32.4814 62.067 33.8074 62.0765C33.8534 62.452 33.7604 62.8314 33.546 63.1431C32.3116 65.2418 31.1019 67.3539 29.8655 69.4508C29.7244 69.6912 29.6251 70.214 29.2493 70.0003C28.7971 69.7446 29.2493 69.3859 29.3924 69.1264C30.5371 67.1212 31.7029 65.1312 32.8611 63.1354C33.0156 62.8683 33.1606 62.5974 33.3972 62.1814C31.8632 62.2959 30.478 61.9906 29.1043 62.4257Z" fill="#070707"/>
<path d="M82.4548 62.2078C84.13 61.8701 85.8224 62.1048 87.5071 62.0609C87.4175 62.0857 87.3163 62.1506 87.2362 62.1334C85.3435 61.7365 84.5154 62.8565 83.7694 64.3619C82.8841 66.1478 81.7928 67.8306 80.7815 69.5535C80.6499 69.7748 80.5583 70.2022 80.1939 69.9999C79.8295 69.7977 80.1557 69.4943 80.2798 69.2768C81.4474 67.2429 82.6304 65.2167 83.8057 63.1866C83.9602 62.9176 84.1014 62.6428 84.338 62.2078H82.4548Z" fill="#070707"/>
<path d="M89.5029 62.5705C89.4361 62.704 89.3636 62.8777 89.2701 63.0398C88.0134 65.2022 86.7529 67.3646 85.4885 69.5269C85.3569 69.7502 85.2557 70.1757 84.9028 70.002C84.5212 69.8112 84.836 69.4983 84.96 69.2808C86.2434 67.0561 87.5345 64.8365 88.8332 62.622C88.9381 62.4427 89.003 62.1832 89.2987 62.229C89.4533 62.2595 89.4724 62.3969 89.5029 62.5705Z" fill="#060606"/>
<path d="M27.0801 11.002C35.7396 11.0668 44.4007 11.131 53.0615 11.1934C54.3565 11.1936 54.9689 12.0744 54.5342 13.3027C54.4166 13.6964 54.3718 14.1089 54.4023 14.5186C54.4729 20.7804 54.5664 27.0409 54.6084 33.3027C54.6085 34.0921 54.84 34.3041 55.6143 34.3213C64.9629 34.5293 74.3253 34.773 83.6797 35.002C85.5512 35.0478 86.1258 35.6435 86.0801 37.4824C85.9045 44.5991 85.7484 51.7183 85.5576 58.835C85.5405 59.5043 85.7107 59.7218 86.3916 59.6875C87.727 59.6227 89.0628 59.6308 90.3867 59.627C91.4111 59.627 92.0564 60.1648 92.0889 61.0156C92.1212 61.8988 91.4627 62.4944 90.3926 62.5098C89.3224 62.525 88.3032 62.5098 87.2598 62.5098C85.9529 62.6662 84.6397 62.5938 83.3271 62.5977C82.9457 62.5976 82.5637 62.5342 82.207 62.6562C81.1922 62.681 80.177 62.7141 79.1641 62.7236C78.9837 62.7044 78.8015 62.7435 78.6455 62.8359C78.4896 62.9284 78.3676 63.069 78.2979 63.2363C77.0539 65.4857 75.7387 67.6952 74.4375 69.9141C74.2926 70.1601 74.1915 70.6619 73.8066 70.4453C73.4217 70.2279 73.8059 69.8839 73.9453 69.6436C75.1612 67.5246 76.3891 65.4112 77.6279 63.3037C77.8397 62.9432 77.9599 62.6983 77.5156 62.376C76.9645 61.9754 76.8993 61.3419 77.1338 60.7354C77.2368 60.465 77.4219 60.233 77.6631 60.0732C77.9043 59.9135 78.1904 59.8332 78.4795 59.8438C79.6239 59.8209 80.7687 59.8018 81.9131 59.8018C82.3461 59.8017 82.6233 59.7407 82.6367 59.1934C82.7894 52.812 82.9541 46.4288 83.1309 40.0449C82.7495 39.9764 82.6673 40.2765 82.5166 40.4463C79.6242 43.6897 76.7448 46.9558 73.8467 50.2012C73.4729 50.5869 73.2627 51.1026 73.2607 51.6396C73.1017 58.6622 72.9224 65.6848 72.7227 72.7061C72.6979 73.5355 72.8641 73.85 73.7393 73.7529C74.6275 73.6791 75.5204 73.6585 76.4111 73.6904C77.3133 73.7002 77.9274 74.2285 77.998 75.0049C78.0144 75.195 77.993 75.3867 77.9346 75.5684C77.876 75.75 77.7815 75.9186 77.6572 76.0635C77.5329 76.2084 77.3807 76.3276 77.21 76.4131C77.0395 76.4984 76.8533 76.5487 76.6631 76.5615C76.1749 76.615 75.9508 76.8364 75.7314 77.2197C74.5981 79.2014 73.4506 81.1775 72.2881 83.1465C72.1508 83.3812 72.0467 83.8808 71.6387 83.6045C71.3358 83.3986 71.665 83.0834 71.7949 82.8564C72.9625 80.8265 74.1418 78.8036 75.3857 76.6611H71.7168C71.2689 76.6615 71.16 77.0256 70.9902 77.3174C69.8926 79.1655 68.8021 81.0275 67.7197 82.9023C67.6073 83.093 67.4932 83.284 67.377 83.4746C67.2606 83.6652 67.1055 83.7544 66.9072 83.6191C66.7397 83.5028 66.8085 83.3403 66.8848 83.1973C67.0068 82.9743 67.1341 82.7543 67.2656 82.5352L70.5898 76.7969H65.3311C64.9803 76.7971 64.9186 77.155 64.7832 77.3877C63.69 79.2498 62.61 81.1184 61.5244 82.9824C61.4227 83.1796 61.3034 83.3673 61.168 83.543C61.1239 83.584 61.0706 83.6143 61.0127 83.6309C60.9548 83.6474 60.8931 83.6503 60.834 83.6387C60.6435 83.5795 60.6569 83.3881 60.7217 83.2432C60.8285 83.0125 60.9621 82.7964 61.0898 82.5771C62.1716 80.7113 63.2558 78.847 64.3223 77.0098C64.2631 76.6996 64.013 76.7849 63.8623 76.7148C63.1376 76.3677 62.8011 75.8023 62.9707 75.0146C63.1328 74.265 63.656 73.9157 64.4189 73.8984C65.9718 73.8622 67.5253 73.7957 69.0801 73.7881C69.6369 73.7881 69.8436 73.6443 69.8438 73.042C69.9926 66.4023 70.1645 59.761 70.3604 53.1201C70.3793 52.4184 70.1255 52.2754 69.4941 52.2754C64.703 52.2754 59.9127 52.2525 55.124 52.208C54.3993 52.2081 54.2159 52.4318 54.2158 53.1279C54.2158 55.0015 54.162 56.8774 54.0742 58.751C54.0457 59.4013 54.1889 59.6571 54.8906 59.6152C56.2833 59.5332 57.6825 59.5409 59.0771 59.4951C59.9031 59.4685 60.63 59.6386 60.8818 60.5352C61.1105 61.3458 60.811 61.9758 60.0156 62.3115C59.6726 62.4584 59.6225 62.7879 59.4854 63.0625C58.3749 65.3081 57.2772 67.5619 56.1572 69.8037C56.02 70.0766 55.9664 70.6484 55.5107 70.4141C55.1299 70.2232 55.5108 69.8416 55.6387 69.5898C56.6594 67.4759 57.6825 65.3615 58.7471 63.2705C59.0921 62.5916 58.9769 62.3928 58.2197 62.4424C57.1781 62.5128 55.9305 62.1743 55.1465 62.6436C54.4103 63.0863 54.1582 64.3449 53.71 65.2529C52.9334 66.8155 52.1835 68.3867 51.3975 69.9492C51.2832 70.1783 51.2249 70.6182 50.8457 70.4297C50.4667 70.2409 50.7807 69.9242 50.8896 69.6953C51.8856 67.6405 52.8987 65.5929 53.8965 63.5381C54.0433 63.2348 54.2974 62.9656 54.248 62.6318H49.209C48.74 62.632 48.6692 63.0131 48.5225 63.3145C47.4846 65.4207 46.4515 67.5295 45.4238 69.6396C45.3265 69.8304 45.2193 70.0331 45.1182 70.2314C45.0171 70.4295 44.8813 70.5629 44.6719 70.4395C44.4623 70.3155 44.5404 70.1184 44.6357 69.9277C45.0707 69.0444 45.4995 68.1587 45.9307 67.2754C46.6652 65.7701 47.402 64.2645 48.1709 62.6963C47.8258 62.6942 47.4807 62.6702 47.1387 62.624C46.3606 62.458 45.8856 61.9505 45.9121 61.1553C45.9388 60.3599 46.3812 59.8194 47.2051 59.7695C48.3116 59.6951 49.4248 59.665 50.5332 59.6611C51.0155 59.6611 51.1895 59.5139 51.1973 59.0107C51.2259 57.0075 51.2775 55.0034 51.3672 53.0059C51.3958 52.3784 51.2083 52.1859 50.5811 52.1953C48.5194 52.2258 46.4571 52.2204 44.3955 52.1797C43.7393 52.1645 43.5387 52.3442 43.5254 53.0176C43.4319 57.8788 43.2958 62.7479 43.1699 67.6016C43.128 69.2537 43.1108 70.9084 43.0059 72.5625C42.9582 73.335 43.1323 73.6352 43.96 73.5742C45.1598 73.4884 46.3696 73.5147 47.5752 73.5186C48.5386 73.5186 49.1512 74.0608 49.1855 74.8945C49.2196 75.7279 48.6306 76.3693 47.6904 76.3828C47.1411 76.3829 46.9134 76.6552 46.6807 77.0596C45.5913 78.9578 44.4865 80.8487 43.3857 82.7432C43.2904 82.9072 43.1949 83.0761 43.0977 83.2363C42.9662 83.4405 42.8433 83.7945 42.5537 83.6309C42.1862 83.4193 42.5112 83.1311 42.626 82.9023C42.7976 82.5628 43.0085 82.2402 43.1992 81.9121L46.334 76.5156H42.6416C42.1992 76.5158 42.0956 76.8976 41.9258 77.1914C40.8192 79.0802 39.7175 80.9728 38.6211 82.8691C38.5105 83.0599 38.3948 83.2516 38.2822 83.4424C38.1697 83.6329 38.0185 83.7467 37.8184 83.6211C37.6184 83.4952 37.7133 83.2929 37.8086 83.1289L39.5264 80.1621C40.0987 79.1739 40.6559 78.1742 41.2549 77.2031C41.6364 76.585 41.3438 76.5355 40.8135 76.5488C39.4781 76.5832 38.1422 76.6194 36.8164 76.5908C36.2443 76.5795 35.9752 76.8312 35.7158 77.2871C34.636 79.1949 33.5237 81.0781 32.4229 82.9707C32.3219 83.17 32.2054 83.3614 32.0752 83.543C31.9741 83.6687 31.7985 83.7471 31.665 83.6064C31.63 83.5587 31.6067 83.5027 31.5967 83.4443C31.5868 83.3859 31.5901 83.3252 31.6074 83.2686C31.6961 83.065 31.802 82.8688 31.9229 82.6826C32.9568 80.9021 33.9925 79.118 35.0303 77.3311C35.2401 76.9724 35.4975 76.7014 34.8662 76.4248C34.2351 76.1481 33.9987 75.5193 34.1855 74.8193C34.3726 74.1196 34.8572 73.7595 35.5723 73.7402C36.8409 73.7059 38.1105 73.6711 39.3887 73.6787C39.9608 73.6786 40.1361 73.4878 40.1514 72.9023C40.2989 66.2628 40.4657 59.6223 40.6514 52.9814C40.6685 52.3349 40.4742 52.1799 39.8564 52.1836C36.3994 52.2039 32.9415 52.1985 29.4844 52.168C28.9122 52.168 28.7207 52.3121 28.7207 52.9092C28.7054 54.911 28.6528 56.9125 28.5625 58.9131C28.532 59.5711 28.6984 59.8134 29.3926 59.7715C30.7528 59.6875 32.1174 59.663 33.4814 59.6592C34.4353 59.6592 35.0425 60.2318 35.0654 61.0693C35.0881 61.9066 34.5879 62.4239 33.5752 62.5117C32.2684 62.6719 30.9552 62.5116 29.6465 62.5879C29.3642 62.5973 28.9748 62.3743 28.8564 62.8545C28.9307 63.2149 28.6662 63.4467 28.5098 63.708C27.3231 65.7723 26.126 67.8296 24.9189 69.8799C24.7721 70.1298 24.6608 70.6275 24.2891 70.4258C23.9175 70.2236 24.2757 69.8652 24.417 69.6191C25.5617 67.6101 26.7404 65.6117 27.9023 63.6064C28.0568 63.3413 28.1912 63.0642 28.3457 62.7705C26.5982 62.7705 24.93 62.78 23.2627 62.7705C22.8469 62.7706 22.7511 63.0614 22.5928 63.3438C21.3527 65.4862 20.1126 67.6287 18.8516 69.7578C18.6837 70.0383 18.5933 70.6692 18.1299 70.4043C17.7606 70.1906 18.1932 69.7824 18.3516 69.5059C19.486 67.5244 20.6303 65.5482 21.7852 63.5781C22.0523 63.1222 22.2432 62.8324 21.4287 62.8037C21.2371 62.8052 21.0463 62.7684 20.8691 62.6953C20.6921 62.6221 20.5312 62.5132 20.3965 62.377C20.2619 62.2406 20.156 62.0783 20.085 61.9004C20.0139 61.7223 19.9786 61.5315 19.9824 61.3398C19.9959 60.5406 20.6145 59.9453 21.5664 59.8994C22.6747 59.8479 23.7872 59.8246 24.8975 59.8418C25.4468 59.8513 25.6719 59.7235 25.6758 59.1094C25.6872 57.0756 25.7539 55.0415 25.834 53.0039C25.8569 52.4317 25.7707 52.1516 25.0879 52.1611C22.7414 52.1993 20.3924 52.1838 18.0459 52.1514C17.4738 52.1514 17.2832 52.3138 17.2832 52.8994C17.1344 59.6038 16.9656 66.3077 16.7773 73.0107C16.7602 73.6306 16.9686 73.7746 17.5293 73.7441C18.6376 73.6907 19.7501 73.6844 20.8584 73.6787C21.8866 73.6788 22.545 74.2036 22.5908 75.041C22.6365 75.8785 22.0179 76.5254 21.0088 76.5674C20.5246 76.5866 20.2835 76.7734 20.0547 77.1719C18.971 79.0798 17.8586 80.9618 16.7559 82.8545C16.6758 82.9917 16.6053 83.1351 16.5195 83.2666C16.3861 83.4669 16.2861 83.806 15.9678 83.6309C15.6179 83.4403 15.9105 83.177 16.0176 82.9883C17.044 81.2006 18.088 79.4199 19.124 77.6455C19.2957 77.3499 19.4464 77.0445 19.6504 76.665H16.0771C15.5889 76.6652 15.4545 77.0466 15.2676 77.3633C14.2285 79.1438 13.1915 80.9246 12.1562 82.7051C12.0456 82.8958 11.9347 83.0876 11.8184 83.2783C11.7021 83.4691 11.5684 83.8034 11.2637 83.6172C11.0255 83.4703 11.195 83.2209 11.3037 83.0283C11.4124 82.8357 11.5212 82.6458 11.6318 82.4551C12.6219 80.7554 13.6021 79.0495 14.6055 77.3574C14.8802 76.8919 14.869 76.69 14.251 76.7129C12.8259 76.7625 11.3891 76.7948 9.96973 76.7891C9.49879 76.7891 9.30765 77.0367 9.10742 77.3818C8.05299 79.2109 6.98787 81.0435 5.91309 82.8789C5.80247 83.0696 5.69344 83.2604 5.5752 83.4512C5.45703 83.6417 5.31404 83.7451 5.10645 83.6064C4.93705 83.4921 5.00292 83.3313 5.0791 83.1865C5.18209 82.9958 5.29178 82.805 5.4043 82.6143C6.40786 80.8838 7.40487 79.1506 8.41797 77.4277C8.62967 77.0711 8.78447 76.8403 8.25098 76.5771C7.56064 76.2395 7.38658 75.566 7.61523 74.8604C7.84415 74.1545 8.37839 73.906 9.0918 73.8926C10.4559 73.8773 11.8185 73.8046 13.1826 73.7988C13.7071 73.7988 13.883 73.6325 13.8945 73.0928C14.0586 66.2002 14.2353 59.3055 14.4248 52.4092C14.4615 52.0617 14.3788 51.7113 14.1904 51.417C14.052 51.2376 13.9694 51.02 13.9541 50.7939C13.9389 50.5679 13.9915 50.3418 14.1045 50.1455C14.5105 49.5256 14.4363 48.8768 14.4268 48.2207C14.3504 42.1154 14.2718 36.0137 14.1904 29.916C14.2079 29.7254 14.2017 29.533 14.1729 29.3438C13.5605 27.1727 14.6534 25.6379 15.9297 24.0449C19.1445 20.0384 22.249 15.9286 25.3799 11.8457C25.5691 11.5732 25.8249 11.3525 26.1221 11.2051C26.4191 11.0578 26.7488 10.9878 27.0801 11.002ZM44.4619 49.3232C46.759 49.3232 48.8123 49.3099 50.8652 49.3232C51.2562 49.3251 51.4374 49.2106 51.4375 48.793V40.2969L44.4619 49.3232ZM29.8359 36.5859C29.3189 36.5707 29.1072 36.6874 29.0977 37.2598C29.0328 41.0081 28.9474 44.7559 28.8418 48.5029C28.8247 49.0694 28.9734 49.2851 29.5742 49.2852C33.0301 49.2661 36.4871 49.2756 39.9443 49.3125C40.5544 49.3181 40.6862 49.0984 40.6768 48.5361C40.6462 46.7294 40.665 44.9141 40.665 43.1035L40.5186 43.1094C40.5186 41.2626 40.4918 39.4192 40.5186 37.5762C40.5261 37.0441 40.3562 36.8536 39.8203 36.8535C36.4916 36.7823 33.1633 36.6928 29.8359 36.5859ZM18.5771 49.2588C21.021 49.2588 23.1922 49.2473 25.3652 49.2568C25.966 49.2682 25.9036 48.8747 25.9131 48.4932C25.9843 45.7383 26.0537 42.982 26.1211 40.2246C26.1249 40.0797 26.1587 39.9007 25.877 39.8281L18.5771 49.2588ZM55.3809 36.708C54.7016 36.6908 54.6101 36.9716 54.6006 37.5439C54.5414 41.0068 54.4748 44.4697 54.3604 47.9307C54.3356 48.6402 54.5261 48.831 55.2412 48.8311C59.33 48.8043 63.4286 48.6827 67.5098 48.8945C69.8163 49.0204 71.3694 48.3618 72.8213 46.54C75.3016 43.4205 78.0723 40.5257 80.835 37.4062C80.5355 37.3643 80.4152 37.33 80.2969 37.3262C71.9922 37.1354 63.6868 36.9293 55.3809 36.708ZM17.9492 28.7002C17.211 28.683 17.06 28.9123 17.0732 29.6064C17.1686 34.88 17.2243 40.1522 17.2949 45.4258C17.2968 45.5726 17.3158 45.7196 17.3311 45.9102C17.7353 45.7384 17.8769 45.403 18.0791 45.1436C20.1206 42.5157 22.1592 39.8795 24.1943 37.2363C24.7571 36.5039 25.5444 35.8758 25.3672 34.7715C25.3626 34.6759 25.3809 34.5806 25.4199 34.4932C25.459 34.4057 25.5183 34.328 25.5928 34.2676C26.3973 33.7448 26.2071 32.9588 26.207 32.2188C26.2032 31.3641 26.1435 30.5012 26.1797 29.6465C26.2082 28.9562 26.002 28.7142 25.2715 28.7256C22.8282 28.7663 20.3874 28.7574 17.9492 28.7002ZM43.9053 36.9336C43.5485 36.9317 43.3955 37.0518 43.3955 37.4238V45.4561L43.7158 45.5215C45.8438 42.7689 47.9746 40.0169 50.1064 37.2656L50.0293 36.9336H43.9053ZM51.373 17.5957C51.2798 17.6703 51.1927 17.7526 51.1133 17.8418C48.6266 21.0548 46.1393 24.2664 43.6514 27.4756C43.4232 27.7413 43.2964 28.0794 43.293 28.4297C43.314 30.1122 43.342 31.7969 43.3516 33.4795C43.3535 33.8742 43.4779 34.0527 43.8955 34.0527C46.3364 34.0985 48.7772 34.157 51.2168 34.2295C51.6552 34.2408 51.7431 34.0386 51.7432 33.6572V17.6592L51.373 17.5957ZM29.7861 28.7598C29.2673 28.7521 29.0445 28.8761 29.0654 29.4482C29.1087 30.6527 29.1179 31.8587 29.0938 33.0645C29.0825 33.5887 29.306 33.6953 29.7676 33.6953C33.091 33.7564 36.4148 33.8276 39.7363 33.9287C40.3504 33.9458 40.4896 33.7102 40.4648 33.1533C40.4095 31.9496 40.3772 30.7437 40.3887 29.5381C40.3944 28.9831 40.1769 28.8477 39.6621 28.8477C38.0156 28.8706 36.3683 28.8574 34.7236 28.8574V28.7695C33.0772 28.7695 31.4306 28.7846 29.7861 28.7598ZM29.584 13.9404C28.9507 13.9367 28.8625 14.1983 28.8721 14.7344C28.9312 18.1646 28.9788 21.5874 28.9922 25.0215C28.996 25.6679 29.1641 25.8817 29.8389 25.8818C33.3558 25.8691 36.8744 25.8865 40.3926 25.9336C41.0142 25.9411 41.3747 25.7064 41.7275 25.2393C43.2023 23.2913 44.7122 21.3702 46.2061 19.4395C47.5416 17.7128 48.8729 15.9836 50.2637 14.1807C50.1569 14.1331 50.045 14.0967 49.9307 14.0723C43.1481 14.0303 36.3666 13.9996 29.584 13.9404ZM18.4014 25.6475C18.5462 25.7276 18.6209 25.8076 18.6934 25.8076C20.9713 25.8267 23.2494 25.8232 25.5254 25.8613C26.128 25.8708 26.0791 25.5179 26.0791 25.125C26.0562 22.6841 26.0343 20.2426 26.0127 17.8018V16.1494L25.7812 16.1074C23.3296 19.2803 20.8817 22.4498 18.4014 25.6475Z" fill="black"/>
</svg>
