<svg width="95" height="95" viewBox="0 0 95 95" fill="none" xmlns="http://www.w3.org/2000/svg">
<path d="M45.2286 78.1756C45.1377 79.4911 44.8464 80.7899 44.9225 82.1259C44.9522 82.6361 45.0895 82.8235 45.6201 82.8124C47.0711 82.7809 48.5258 82.8328 49.9768 82.7846C50.6169 82.7642 50.9973 82.9182 51.4092 83.4804C52.6116 85.1206 53.9456 86.6644 55.2129 88.2582C55.4244 88.5235 55.9143 88.8575 55.5265 89.1767C55.0571 89.5645 54.8641 88.9429 54.6414 88.6738C53.3853 87.1505 52.1533 85.6068 50.9119 84.0704C50.7041 83.8125 50.5408 83.5138 50.1215 83.5138C46.6685 83.5249 43.2155 83.5138 39.5286 83.5138C39.9109 83.9183 40.1465 84.1762 40.3933 84.423C41.723 85.7552 43.0547 87.0862 44.3881 88.4159C44.5978 88.6256 44.9448 88.8742 44.6275 89.1804C44.3102 89.4865 44.0708 89.121 43.8704 88.915C42.2488 87.3064 40.6178 85.7051 39.0258 84.0686C38.8524 83.8785 38.6384 83.7298 38.3998 83.6334C38.1612 83.5371 37.904 83.4955 37.6472 83.5119C35.5153 83.5416 33.3796 83.5212 31.2514 83.5323C30.9898 83.5323 30.7059 83.4414 30.3571 83.6956L34.7415 88.0634C34.9382 88.2489 35.1386 88.453 35.3204 88.6627C35.3905 88.7249 35.4344 88.8114 35.4433 88.9046C35.4523 88.9979 35.4256 89.0911 35.3687 89.1655C35.1831 89.3752 34.9753 89.3047 34.812 89.1377C32.9281 87.2662 31.0485 85.3909 29.1733 83.5119C29.0397 83.3802 28.9358 83.2188 29.0471 83.0184C29.1992 82.7438 29.472 82.805 29.7095 82.8031C31.3479 82.8031 32.9863 82.766 34.6228 82.8031C35.365 82.8235 35.6785 82.5953 35.647 81.8179C35.6117 80.9273 35.7045 80.0311 35.7045 79.1386C35.7045 64.2107 35.7045 49.2835 35.7045 34.3568C35.7045 32.9819 35.5858 33.2046 36.8994 33.1879C37.8457 33.1768 38.7939 33.1879 39.9016 33.1879C38.2484 30.4307 36.6768 27.807 35.0143 25.0238C35.8474 25.0238 36.5413 24.9793 37.226 25.0368C37.9107 25.0943 38.0535 24.8513 38.0461 24.2074C38.0109 20.3536 38.0461 16.498 37.9867 12.6442C37.9756 11.8556 38.2094 11.67 38.9646 11.6942C40.7662 11.7517 40.7662 11.7127 40.7662 13.4884C40.7662 17.036 40.7866 20.5818 40.7495 24.1295C40.7495 24.8439 40.9499 25.022 41.642 24.9663C42.5512 24.8921 43.4697 24.9478 44.4883 24.9478C43.0522 27.6642 41.6327 30.3435 40.1242 33.1935H44.839C45.0468 33.5052 44.941 33.854 44.9429 34.1824C44.9503 38.7593 44.9503 43.3416 44.9429 47.9296C44.9109 48.5736 45.0145 49.2171 45.2472 49.8185C45.3381 50.0393 45.4754 50.2489 45.4327 50.5031C45.3409 51.2982 45.3 52.0983 45.3103 52.8985C45.3103 59.7019 45.3103 66.5053 45.3103 73.3087C45.3412 74.512 45.2885 75.716 45.1526 76.912C45.084 77.3336 45.1099 77.7652 45.2286 78.1756Z" fill="black"/>
<path d="M45.2287 78.1756C45.1359 78.2183 44.9968 78.4094 44.9597 78.2721C44.9165 77.9991 44.9078 77.7217 44.9337 77.4464C44.9337 69.0177 44.9337 60.5883 44.9337 52.1583C44.9337 51.5775 44.9894 50.9967 45.019 50.4141C44.956 50.2675 45.0302 50.0783 44.8836 49.9558C44.8836 44.7754 44.8836 39.5937 44.8836 34.4107C44.8836 34.0118 44.8576 33.611 44.8428 33.2102C45.2139 33.5646 45.0599 34.0229 45.0617 34.4348C45.0729 39.2405 45.0729 44.0517 45.0617 48.8685C45.405 48.7999 45.3419 48.5104 45.4458 48.3304C45.5979 48.0466 45.6907 47.7347 45.7186 47.4138C45.8299 47.1021 45.9449 46.7923 46.0488 46.4861C46.0608 46.2245 46.1646 45.9755 46.342 45.7829C46.1323 45.5138 46.3197 45.2596 46.3717 44.9999C46.6314 44.7475 46.5702 44.3764 46.7149 44.0833C46.8059 43.7975 46.7539 43.4468 47.086 43.2687C46.8856 42.7622 47.2716 42.3762 47.3588 41.9272C47.4534 41.5153 47.5443 41.0997 47.8282 40.7694C47.6835 39.6691 48.3663 38.784 48.6094 37.784C48.8524 37.5483 48.8302 37.1549 49.1178 36.9471C49.1345 36.7282 49.153 36.5074 49.1697 36.2866C49.4194 35.8841 49.6212 35.4538 49.7709 35.0045C49.9564 34.5462 50.1958 34.1138 50.4166 33.6741C50.5929 33.509 50.7265 33.2789 51.0159 33.2882C51.9437 33.3976 52.825 33.008 53.7472 33.1026C55.4356 33.2176 57.1278 33.1954 58.8182 33.1991C59.0594 33.1991 59.3748 33.1434 59.4843 33.3995C59.5937 33.6555 59.3247 33.8374 59.1577 34.0044C58.7439 34.4144 58.358 34.8505 57.9294 35.2457L57.8162 35.6279C57.5713 35.7686 57.3578 35.9581 57.1891 36.1845C57.1223 36.5556 56.6881 36.6985 56.6139 37.0696C56.4125 37.2571 56.2722 37.5008 56.2112 37.7691L55.8401 38.1847C55.5451 38.4965 55.4208 38.8935 55.2724 39.2795L55.0775 39.3834C54.7213 40.2295 54.122 40.9661 53.9643 41.8957L53.5523 42.8679C53.1818 43.5686 52.8965 44.3111 52.7025 45.0797C52.6079 45.4025 52.5318 45.7346 52.2906 45.9907C52.5374 46.9852 52.0698 47.8462 51.7674 48.7331C51.5317 49.0671 51.7247 49.555 51.3666 49.8464C51.3666 49.9094 51.3666 49.9744 51.3666 50.0319C51.3766 50.4145 51.3137 50.7955 51.181 51.1545V51.1285C50.9955 51.4773 51.1569 51.9505 50.81 52.2418C50.9102 52.4273 51.0957 52.5906 50.8563 52.7984C50.591 53.1213 50.8044 53.6241 50.4389 53.9117V54.1325C50.3776 54.5129 50.3925 54.9062 50.2533 55.2717L50.2199 55.8024C49.9546 56.1308 50.0344 56.565 49.86 56.9268L49.8488 57.4723C49.5835 57.8007 49.6633 58.2349 49.4889 58.5967L49.4777 59.1423C49.1938 59.582 49.205 60.096 49.1066 60.5839V60.8122C48.6929 61.2111 48.9935 61.8754 48.563 62.2669C48.897 62.6528 48.55 63.0276 48.5463 63.408C48.2123 63.716 48.3607 64.1743 48.19 64.5324C48.19 64.7179 48.1808 64.8923 48.1771 65.0723C47.9117 65.4007 47.9915 65.8349 47.8189 66.1856L47.8078 66.7274C47.5443 67.015 47.5295 67.3731 47.5258 67.7349C47.2846 68.0448 47.4441 68.4549 47.2623 68.7814L47.2493 69.3214C46.9098 69.7463 47.1064 70.3697 46.7094 70.7742C47.0434 71.1583 46.6945 71.5331 46.6927 71.9116C46.3587 72.2215 46.5071 72.6816 46.3346 73.0434L46.3234 73.5778C46.0618 73.8654 46.0451 74.2235 46.0414 74.5835C45.8002 74.8933 45.9598 75.3034 45.7779 75.6281L45.7668 76.1699C45.5816 76.4711 45.4846 76.8182 45.4866 77.1718C45.2491 77.4761 45.4031 77.8788 45.225 78.1979L45.2287 78.1756Z" fill="#B2B2B2"/>
<path d="M51.7229 32.8576L44.8242 32.377L50.7877 23.8641C51.3295 24.6731 51.5763 25.5174 51.9232 26.3078C52.0902 26.6789 52.2739 26.7958 52.697 26.6678C55.1796 25.9256 57.4581 24.8123 59.436 23.1182C63.0857 19.9918 62.9447 16.1918 59.0297 13.3919C56.4005 11.5141 53.3501 10.7441 50.2181 10.258C48.999 10.0724 47.7633 9.99451 46.535 9.88689C45.6276 9.80525 45.0506 9.24861 45.0506 8.43592C45.0454 8.24083 45.0812 8.04682 45.1555 7.86636C45.2298 7.68591 45.341 7.52299 45.482 7.38809C45.6231 7.25318 45.7907 7.14927 45.9743 7.08304C46.1579 7.0168 46.3533 6.98971 46.5479 7.0035C51.2497 7.23914 55.816 8.04256 59.924 10.5159C61.902 11.7053 63.4494 13.2991 64.3308 15.4811C65.4849 18.3478 65.008 20.9974 63.1266 23.3854C60.8592 26.2688 57.7457 27.9629 54.4059 29.245C53.6433 29.5363 53.4392 29.7553 53.8808 30.5067C54.3465 31.2953 54.6638 32.1766 55.046 33.0097C54.8883 33.2046 54.6638 33.1823 54.4485 33.1953C53.5275 33.2364 52.606 33.1222 51.7229 32.8576Z" fill="black"/>
<path d="M54.4597 33.0452L55.0386 33.0173H59.9742C60.0076 33.099 60.0391 33.1806 60.0707 33.2604C59.3285 33.9005 58.8331 34.7763 57.9257 35.2513C58.2467 34.5796 58.8999 34.1714 59.4751 33.3569H53.7435C53.7214 33.3254 53.7111 33.287 53.7145 33.2487C53.7179 33.2103 53.7347 33.1744 53.7621 33.1472C53.9866 33.0544 54.2426 33.1769 54.4597 33.0452Z" fill="#4C4C4C"/>
<path d="M52.2795 46.0019C52.6803 44.9536 52.6952 43.7494 53.5413 42.8792C53.2462 43.8069 52.9475 44.7346 52.6581 45.6716C52.6437 45.7623 52.5979 45.8451 52.5288 45.9055C52.4596 45.9659 52.3713 46 52.2795 46.0019Z" fill="#3A3A3A"/>
<path d="M54.4597 33.0451L53.7472 33.2306C53.2481 33.3215 52.749 33.4032 52.2628 33.1787L51.7229 32.8577C52.6395 32.75 53.5394 33.0525 54.4597 33.0451Z" fill="#B9B9B9"/>
<path d="M53.9495 41.9068C53.9495 40.903 54.5395 40.1627 55.0627 39.3945C54.9347 40.339 54.3335 41.0756 53.9495 41.9068Z" fill="#3B3B3B"/>
<path d="M52.2609 33.1658L53.7452 33.2177C53.7452 33.2641 53.7452 33.3086 53.7452 33.3532L50.795 33.4255C50.7449 33.3791 50.7301 33.3346 50.7487 33.2938C50.7672 33.253 50.7876 33.2307 50.8043 33.2307L52.2609 33.1658Z" fill="#141414"/>
<path d="M49.7263 35.0583C49.7412 35.5612 49.6354 36.0102 49.1697 36.2941C49.2717 35.8414 49.3552 35.3775 49.7486 35.0639L49.7263 35.0583Z" fill="#434343"/>
<path d="M46.7131 70.7741C46.9284 70.3028 46.7335 69.6794 47.2531 69.3213C47.0842 69.8074 47.2698 70.429 46.7131 70.7741Z" fill="#181818"/>
<path d="M49.1104 60.5801C48.9824 60.0346 49.038 59.5374 49.4815 59.1384C49.4278 59.6343 49.3028 60.1199 49.1104 60.5801Z" fill="#181818"/>
<path d="M49.7263 35.0582H49.7449C49.7152 34.5424 50.0399 34.1676 50.2681 33.7594C50.2855 33.7409 50.3064 33.7261 50.3297 33.716C50.353 33.7059 50.3782 33.7007 50.4036 33.7007C50.429 33.7007 50.4541 33.7059 50.4774 33.716C50.5007 33.7261 50.5217 33.7409 50.539 33.7594C50.2718 34.2029 50.1512 34.7261 49.7263 35.0582Z" fill="#3A3A3A"/>
<path d="M47.8265 40.7732L47.4034 41.8995H47.3125C47.3626 41.4727 47.2698 40.9754 47.8265 40.7732Z" fill="#3A3A3A"/>
<path d="M48.5686 62.2577C48.7913 61.7882 48.602 61.1667 49.1123 60.803C48.7671 61.2297 49.1958 61.9404 48.5686 62.2577Z" fill="#171717"/>
<path d="M46.1287 46.5252C46.0452 46.848 46.0526 47.2043 45.7817 47.4529L45.7223 47.605L45.6462 47.4603C45.6547 47.1245 45.7618 46.7986 45.9542 46.5233C46.0099 46.3897 46.0693 46.3897 46.1287 46.5252Z" fill="#3B3B3B"/>
<path d="M56.5229 36.9917C56.6677 36.6267 56.9503 36.3335 57.3097 36.1753L56.5396 37.2886C56.519 37.2702 56.5022 37.248 56.4901 37.2231C56.4781 37.1982 56.4711 37.1712 56.4696 37.1436C56.468 37.116 56.4719 37.0884 56.4811 37.0623C56.4903 37.0363 56.5045 37.0123 56.5229 36.9917Z" fill="#4F4F4F"/>
<path d="M49.1141 36.9546C48.9879 37.2607 49.0343 37.6689 48.6057 37.7914C48.6818 37.4556 48.6094 37.0307 49.1141 36.9546Z" fill="#525252"/>
<path d="M47.3106 41.9031H47.4015C47.2957 42.3614 47.1881 42.8178 47.0823 43.2761C46.6908 42.7417 47.1454 42.3465 47.3106 41.9031Z" fill="#363636"/>
<path d="M49.4963 58.5968C49.4963 58.1812 49.4202 57.7452 49.8563 57.4724C49.7728 57.8602 49.7839 58.2777 49.4963 58.5968Z" fill="#191919"/>
<path d="M55.2613 39.2888C55.1945 38.7916 55.4227 38.4464 55.829 38.1941C55.7436 38.6041 55.5472 38.9828 55.2613 39.2888Z" fill="#3E3E3E"/>
<path d="M47.8264 66.1931C47.8264 65.7793 47.7411 65.3415 48.1845 65.0798C48.0992 65.4509 48.1159 65.8684 47.8264 66.1931Z" fill="#181818"/>
<path d="M51.1663 51.1638C51.094 50.7667 51.2368 50.4068 51.3519 50.0413C51.5931 50.4736 51.4094 50.828 51.1663 51.1638Z" fill="#1B1B1B"/>
<path d="M49.8674 56.9306C49.8674 56.5149 49.7913 56.0808 50.2274 55.8062C50.1439 56.1939 50.155 56.6114 49.8674 56.9306Z" fill="#191919"/>
<path d="M50.4241 53.9265C50.5651 53.5554 50.5113 53.1138 50.8416 52.8132C50.7098 53.1899 50.951 53.702 50.4241 53.9265Z" fill="#181818"/>
<path d="M50.2385 55.2625C50.1736 54.8618 50.3035 54.4925 50.4241 54.1233C50.491 54.3135 50.5091 54.5175 50.4767 54.7166C50.4443 54.9157 50.3624 55.1034 50.2385 55.2625Z" fill="#191919"/>
<path d="M50.7952 52.2603C50.9547 51.9003 50.8935 51.4643 51.1663 51.147C51.1106 51.5348 51.3258 52.0265 50.7952 52.2603Z" fill="#181818"/>
<path d="M45.6461 47.4622C45.6911 47.4687 45.7367 47.4687 45.7816 47.4622C45.8191 47.6246 45.8076 47.7946 45.7485 47.9505C45.6893 48.1064 45.5853 48.2412 45.4495 48.3379L45.6461 47.4622Z" fill="#202020"/>
<path d="M48.1976 64.5231C48.1976 64.1093 48.1049 63.6696 48.5539 63.3987C48.3832 63.7568 48.4852 64.204 48.1976 64.5231Z" fill="#171717"/>
<path d="M47.2698 68.7906C47.2161 68.3963 47.2861 67.995 47.4702 67.6421C47.5166 67.5122 47.5648 67.5122 47.613 67.6421C47.4739 68.0095 47.5425 68.4474 47.2698 68.7906Z" fill="#171717"/>
<path d="M46.342 73.0435C46.3308 72.626 46.2399 72.1825 46.7001 71.9116C46.5275 72.2734 46.6314 72.7225 46.342 73.0435Z" fill="#202020"/>
<path d="M51.3518 49.865C51.4965 49.4939 51.4576 49.0653 51.7526 48.7517C51.6524 49.1228 51.8806 49.6275 51.3518 49.865Z" fill="#191919"/>
<path d="M45.7853 75.6282C45.7337 75.2345 45.8036 74.8344 45.9857 74.4815C46.034 74.3535 46.0804 74.3535 46.1286 74.4815C45.9876 74.8582 46.0618 75.2961 45.7853 75.6282Z" fill="#171717"/>
<path d="M45.4143 77.0717C45.4143 76.7266 45.3921 76.3722 45.7631 76.1699L45.5628 77.0717C45.5201 77.1645 45.47 77.1645 45.4143 77.0717Z" fill="#171717"/>
<path d="M45.4142 77.0715H45.5626C45.4532 77.4426 45.5181 77.8768 45.2212 78.1978C45.1594 77.8114 45.2273 77.4153 45.4142 77.0715Z" fill="#202020"/>
<path d="M46.7131 44.0906C46.754 44.4617 46.6964 44.7808 46.3699 45.0072C46.4033 44.6695 46.4237 44.3318 46.7131 44.0906Z" fill="#1F1F1F"/>
<path d="M47.6074 67.6328H47.4646C47.4646 67.2839 47.4442 66.9333 47.8097 66.7273L47.6074 67.6328Z" fill="#161616"/>
<path d="M57.317 36.1753C57.215 35.7467 57.4803 35.6558 57.8199 35.6335C57.6789 35.8414 57.5675 36.0714 57.317 36.1753Z" fill="#4E4E4E"/>
<path d="M46.1231 74.4815H45.9802C45.9802 74.1327 45.9598 73.7838 46.3253 73.5779C46.2585 73.8785 46.1899 74.1716 46.1231 74.4815Z" fill="#161616"/>
<path d="M50.5392 33.7707H50.2683C50.4038 33.5517 50.4539 33.253 50.799 33.24V33.4348L50.5392 33.7707Z" fill="#474747"/>
<path d="M46.1288 46.5251H45.9543C45.971 46.2227 45.9321 45.8906 46.3384 45.783C46.2698 46.0353 46.1993 46.2802 46.1288 46.5251Z" fill="#212121"/>
<path d="M56.523 36.9917L56.5471 37.2923L56.2075 37.7803C56.0851 37.4333 56.3207 37.2162 56.523 36.9917Z" fill="#464646"/>
<path d="M44.8835 49.9559C45.0097 49.9058 45.0394 49.5848 45.1507 49.7128C45.3511 49.9355 45.1099 50.1841 45.019 50.4142C44.9745 50.262 44.9281 50.1099 44.8835 49.9559Z" fill="#151515"/>
</svg>
