<svg width="95" height="95" viewBox="0 0 95 95" fill="none" xmlns="http://www.w3.org/2000/svg">
<path d="M39.608 1.6843C40.0044 1.87202 40.0044 1.87202 40.4082 2.11337C40.7786 2.30018 41.1497 2.48585 41.5214 2.67002C41.5078 2.86362 41.4942 3.05722 41.4802 3.25669C41.4329 3.98152 41.4033 4.70622 41.3787 5.43215C41.3657 5.74496 41.3481 6.0576 41.3255 6.36985C41.1518 8.10869 41.1518 8.10869 41.7728 9.6655C42.4988 10.3132 43.5106 11.0423 44.5156 11.0049C44.9775 10.7767 45.3744 10.4982 45.7905 10.1941C45.9739 10.0674 46.1574 9.94079 46.3464 9.81031C46.7267 9.54591 47.1028 9.27543 47.4742 8.99854C48.7695 8.12532 49.5431 7.97138 51.064 8.20104C51.2175 8.2213 51.3711 8.24155 51.5293 8.26242C51.9047 8.3124 52.2795 8.36674 52.6542 8.42197C52.6586 11.917 52.6619 15.4121 52.6639 18.9072C52.6648 20.53 52.6661 22.1527 52.6682 23.7755C52.6701 25.1898 52.6713 26.604 52.6717 28.0183C52.6719 28.7673 52.6725 29.5162 52.6739 30.2652C52.6751 30.97 52.6755 31.6748 52.6752 32.3797C52.6753 32.6385 52.6757 32.8973 52.6764 33.1561C52.6773 33.5092 52.677 33.8624 52.6766 34.2156C52.6768 34.5122 52.6768 34.5122 52.6771 34.8148C52.657 35.2645 52.5986 35.6395 52.4687 36.0685C52.5696 36.1172 52.6706 36.166 52.7746 36.2163C53.2797 36.4747 53.7676 36.7512 54.2546 37.0426C54.433 37.1469 54.6114 37.2511 54.7953 37.3586C55.2519 37.7384 55.2519 37.7384 55.4418 38.3153C55.5016 38.4923 55.5614 38.6693 55.623 38.8517C56.056 39.0522 56.056 39.0522 56.5507 39.2227C56.8232 39.37 57.0923 39.5234 57.3582 39.6823C57.5134 39.7745 57.6687 39.8668 57.8287 39.9619C57.9963 40.0624 58.1639 40.1629 58.3366 40.2664C58.7055 40.4861 59.0745 40.7057 59.4434 40.9253C59.6376 41.0412 59.8317 41.1571 60.0318 41.2765C61.0464 41.8815 62.0632 42.4827 63.0797 43.0844C63.5056 43.3369 63.9316 43.5893 64.3575 43.8419C65.6207 44.5907 66.884 45.3394 68.1474 46.088C68.5649 46.3354 68.9824 46.5828 69.3999 46.8302C69.6065 46.9526 69.8132 47.0751 70.0261 47.2013C71.9047 48.3145 71.9047 48.3145 72.5312 48.6858C72.9479 48.9327 73.3646 49.1797 73.7814 49.4266C74.7293 49.9883 75.6773 50.5501 76.6251 51.112C79.3334 52.7175 82.0428 54.3212 84.7539 55.922C84.4731 56.668 84.0365 56.9518 83.3789 57.3795C83.18 57.5102 82.9812 57.6409 82.7763 57.7756C82.5657 57.9116 82.3552 58.0475 82.1446 58.1833C81.9332 58.3212 81.7219 58.4593 81.5108 58.5975C81.1256 58.8496 80.7399 59.1009 80.3536 59.3511C79.9532 59.5971 79.9532 59.5971 79.7441 59.8185C79.7148 60.2228 79.6988 60.6282 79.6877 61.0335C79.6841 61.1605 79.6805 61.2876 79.6768 61.4185C79.6454 62.5966 79.6275 63.775 79.6135 64.9535C79.604 65.7447 79.5902 66.5354 79.5659 67.3263C79.5425 68.0918 79.5303 68.8566 79.5256 69.6224C79.522 69.9129 79.5145 70.2033 79.503 70.4936C79.4232 72.264 79.4232 72.264 80.2151 73.7926C80.7571 74.3264 81.3542 74.7734 81.9707 75.2188C82.1751 75.3805 82.3785 75.5435 82.5808 75.7079C82.92 75.9831 83.262 76.2551 83.6072 76.5227C84.0072 76.8848 84.1614 77.1501 84.3828 77.631C83.8925 77.9138 83.4022 78.1967 82.9119 78.4795C82.4817 78.7277 82.0514 78.976 81.6212 79.2242C80.5916 79.8182 79.5621 80.4122 78.5322 81.0057C78.2012 81.1965 77.8702 81.3873 77.5392 81.5781C77.1218 81.8187 76.7044 82.0593 76.2869 82.2998C76.0967 82.4094 75.9066 82.519 75.7106 82.632C75.5441 82.728 75.3775 82.824 75.2059 82.9228C74.7277 83.1914 74.7277 83.1914 74.279 83.5226C73.6583 83.8266 73.3509 83.7557 72.6933 83.5685C72.2376 83.3531 72.2376 83.3531 71.7866 83.0799C71.6152 82.9777 71.4437 82.8755 71.2671 82.7702C70.9915 82.6028 70.9915 82.6028 70.7103 82.432C70.3088 82.1928 69.907 81.9541 69.5049 81.7159C69.2966 81.5923 69.0884 81.4688 68.8737 81.3415C67.8528 80.7441 66.8177 80.1731 65.7817 79.6024C64.0495 78.646 62.3259 77.6762 60.6096 76.6916C58.7006 75.5965 56.7854 74.5139 54.863 73.4427C54.6835 73.3426 54.504 73.2425 54.3191 73.1394C54.1627 73.0524 54.0063 72.9654 53.8451 72.8757C53.3816 72.6128 52.9246 72.3405 52.4687 72.0645C52.482 72.2813 52.4952 72.4981 52.5089 72.7214C52.6521 75.2102 52.6765 77.6899 52.6658 80.1822C52.6649 80.5676 52.6641 80.9529 52.6633 81.3383C52.6613 82.2672 52.6581 83.1962 52.6542 84.1251C52.4777 84.2133 52.3012 84.3015 52.1194 84.3923C50.9074 84.998 49.6956 85.6041 48.4848 86.2122C42.9047 89.0145 42.9047 89.0145 40.1075 90.3385C38.926 90.8978 37.7572 91.4782 36.595 92.0768C36.1406 92.2892 36.1406 92.2892 35.7695 92.2892C35.7571 90.2459 35.7922 88.2081 35.8623 86.1661C35.8712 85.8936 35.8802 85.6211 35.8891 85.3485C35.9106 84.6933 35.9326 84.0381 35.955 83.3829C35.8125 83.3284 35.67 83.2739 35.5231 83.2178C34.7713 82.9055 34.1399 82.4277 33.4726 81.9659C33.023 81.6718 33.023 81.6718 32.6272 81.7658C32.2342 81.902 31.9183 82.066 31.565 82.2848C31.4346 82.365 31.3043 82.4452 31.1699 82.5278C31.0307 82.6148 30.8915 82.7018 30.7481 82.7915C30.6034 82.8808 30.4587 82.9701 30.3096 83.062C29.5071 83.5588 28.7093 84.0627 27.9135 84.5701C27.7533 84.6721 27.5932 84.774 27.4283 84.879C27.1169 85.0777 26.806 85.2773 26.4957 85.4778C26.3549 85.5679 26.214 85.658 26.0689 85.7508C25.9444 85.8311 25.8199 85.9114 25.6916 85.9941C25.3789 86.1661 25.3789 86.1661 25.0078 86.1661C25.0063 85.9374 25.0048 85.7087 25.0033 85.473C24.9859 82.8045 24.967 80.136 24.9474 77.4676C24.9417 76.6942 24.9361 75.9209 24.9306 75.1476C24.8834 68.5181 24.8119 61.8897 24.6962 55.261C24.6405 52.0698 24.5886 48.8788 24.5532 45.6874C24.5508 45.4705 24.5508 45.4705 24.5484 45.2492C24.5323 43.7868 24.5173 42.3244 24.5035 40.8619C24.4966 40.1296 24.4894 39.3973 24.4821 38.665C24.4806 38.5197 24.4792 38.3745 24.4777 38.2248C24.453 35.8184 24.4068 33.4128 24.3541 31.0069C24.2993 28.4832 24.2672 25.96 24.256 23.4357C24.2492 22.0386 24.2324 20.6432 24.1888 19.2467C23.9286 10.6846 23.9286 10.6846 25.3934 8.93197C26.6915 7.66196 28.3127 7.02019 30.0112 6.46665C31.1967 6.06589 32.2063 5.3733 33.253 4.69943C33.6252 4.47606 33.9981 4.25383 34.3721 4.03335C35.0315 3.63874 35.6791 3.23197 36.3203 2.80845C38.5148 1.3819 38.5148 1.3819 39.608 1.6843ZM37.7141 4.61536C37.5549 4.71247 37.3958 4.80957 37.2318 4.90962C37.0668 5.01247 36.9019 5.11532 36.732 5.22128C36.4062 5.42144 36.0802 5.62148 35.7543 5.82141C35.5994 5.91697 35.4445 6.01252 35.2849 6.11097C34.7108 6.46074 34.1289 6.79378 33.5429 7.12314C33.5429 7.2456 33.5429 7.36806 33.5429 7.49423C34.245 7.86996 34.9482 8.24323 35.6527 8.61426C35.8923 8.74086 36.1315 8.86811 36.3703 8.99605C36.7134 9.17972 37.0578 9.36096 37.4024 9.54177C37.7129 9.70647 37.7129 9.70647 38.0296 9.8745C38.5534 10.1593 38.5534 10.1593 39.1093 9.90634C39.1706 8.0082 39.2318 6.11005 39.2949 4.15439C38.5202 4.15439 38.3439 4.22619 37.7141 4.61536ZM27.5044 10.3889C25.7537 12.4846 26.5199 16.8418 26.5912 19.3599C26.6186 20.5035 26.6203 21.6471 26.6249 22.7909C26.6363 24.7436 26.6634 26.6956 26.7022 28.6479C26.7424 30.6707 26.7733 32.6933 26.7917 34.7164C26.7928 34.8416 26.7939 34.9668 26.7951 35.0958C26.8008 35.7284 26.8063 36.3609 26.8117 36.9935C26.8226 38.2577 26.8347 39.5218 26.8473 40.786C26.8485 40.9108 26.8498 41.0356 26.8511 41.1643C26.88 44.0395 26.9238 46.9144 26.9682 49.7894C27.0424 54.6093 27.0862 59.4287 27.1075 64.2491C27.109 64.5757 27.1105 64.9022 27.112 65.2288C27.1178 66.4601 27.1234 67.6914 27.1288 68.9227C27.142 71.8813 27.1665 74.8399 27.1937 77.7984C27.1958 78.0252 27.1979 78.252 27.2 78.4856C27.2111 79.6851 27.2225 80.8846 27.2343 82.0841C27.8739 81.8349 28.4378 81.5651 29.0173 81.1962C29.2502 81.0486 29.2502 81.0486 29.4877 80.898C29.727 80.7446 29.727 80.7446 29.9711 80.5881C30.1335 80.4851 30.296 80.3822 30.4633 80.2761C31.2058 79.8374 31.2058 79.8374 31.873 79.3009C31.8911 78.8893 31.8958 78.4771 31.8955 78.0651C31.8957 77.9331 31.8959 77.8012 31.8961 77.6653C31.8964 77.2151 31.8954 76.7649 31.8944 76.3148C31.8943 75.988 31.8943 75.6612 31.8944 75.3344C31.8943 74.4222 31.8929 73.5099 31.8913 72.5977C31.8901 71.8079 31.8895 71.0181 31.8889 70.2283C31.8797 58.9702 31.8326 47.7122 31.7904 36.4543C31.7823 34.3117 31.7745 32.1691 31.7667 30.0264C31.7662 29.8732 31.7656 29.72 31.765 29.5621C31.7623 28.7926 31.7595 28.0231 31.7567 27.2536C31.734 20.9764 31.7109 14.6992 31.6875 8.42197C30.2299 8.42197 28.5147 9.40152 27.5044 10.3889ZM33.914 10.2774C33.9083 16.6595 33.9045 23.0415 33.9024 29.4236C33.9023 29.6599 33.9023 29.8962 33.9022 30.1397C33.8979 42.9128 33.9104 55.6852 34.0068 68.458C34.0079 68.6054 34.009 68.7529 34.0101 68.9048C34.0372 72.4939 34.0667 76.0829 34.0996 79.672C34.6506 79.9781 35.2017 80.2843 35.7695 80.5997C35.9089 75.3611 35.9728 70.1268 35.9342 64.8866C35.9333 64.7544 35.9323 64.6222 35.9313 64.4859C35.9221 63.2431 35.9124 62.0003 35.9023 60.7575C35.8859 58.6885 35.8754 56.6195 35.8683 54.5504C35.8675 54.3227 35.8675 54.3227 35.8667 54.0903C35.8618 52.6901 35.8574 51.2899 35.8533 49.8897C35.8506 48.9429 35.8476 47.9961 35.8445 47.0493C35.8439 46.8922 35.8434 46.7352 35.8429 46.5734C35.8339 44.0078 35.8124 41.4425 35.7867 38.8771C35.7604 36.2217 35.7483 33.5665 35.749 30.911C35.7491 29.2829 35.7382 27.6557 35.7127 26.0279C35.6964 24.9169 35.6938 23.8065 35.7019 22.6955C35.7061 22.0561 35.7045 21.4182 35.6864 20.7791C35.5974 17.0378 35.5974 17.0378 36.5166 15.9593C37.4082 15.2016 38.3854 14.6591 39.4546 14.1916C39.8576 13.9853 40.1091 13.7681 40.4082 13.4317C39.5434 12.9816 38.6782 12.5324 37.8125 12.0841C37.5179 11.9314 37.2235 11.7784 36.9292 11.6251C36.5067 11.4052 36.0838 11.1862 35.6608 10.9674C35.5287 10.8984 35.3967 10.8294 35.2607 10.7584C34.6208 10.4005 34.6208 10.4005 33.914 10.2774ZM48.86 10.958C48.6237 11.115 48.6237 11.115 48.3827 11.2751C48.1378 11.4414 48.1378 11.4414 47.888 11.6111C45.0714 13.5036 45.0714 13.5036 43.8918 13.9639C41.7576 14.8343 38.8962 16.1563 37.8789 18.353C37.4475 20.0604 37.5028 21.8002 37.5602 23.5491C37.5802 24.3363 37.5697 25.1232 37.5631 25.9105C37.5559 27.2709 37.5674 28.63 37.5923 29.9902C37.6281 31.9566 37.6351 33.9223 37.6354 35.8891C37.6366 39.0807 37.661 42.2718 37.7002 45.4632C37.7381 48.5607 37.7646 51.6579 37.7759 54.7556C37.7766 54.9469 37.7773 55.1382 37.7781 55.3352C37.7816 56.295 37.7848 57.2548 37.788 58.2146C37.808 64.0582 37.8425 69.9016 37.9047 75.745C37.9095 76.2059 37.914 76.6667 37.9184 77.1276C37.9251 77.8357 37.9328 78.5437 37.9413 79.2518C37.9443 79.509 37.947 79.7663 37.9493 80.0235C37.9525 80.3709 37.957 80.7182 37.9616 81.0656C37.9638 81.2592 37.966 81.4528 37.9682 81.6523C37.9479 82.0767 37.9479 82.0767 38.1816 82.2696C38.198 82.7374 38.203 83.2 38.1997 83.6677C38.1994 83.8075 38.1992 83.9473 38.1989 84.0913C38.1979 84.5394 38.1955 84.9874 38.1932 85.4355C38.1923 85.7386 38.1914 86.0417 38.1907 86.3448C38.1886 87.0893 38.1854 87.8337 38.1816 88.5782C39.0176 88.3208 39.7727 87.9887 40.5524 87.5932C40.7305 87.5034 40.7305 87.5034 40.9123 87.4117C41.1661 87.2837 41.4197 87.1553 41.6732 87.0267C42.3379 86.6894 43.0038 86.3544 43.6697 86.0197C43.8026 85.9529 43.9354 85.8861 44.0722 85.8173C45.4392 85.1316 46.818 84.4717 48.2022 83.8214C48.3614 83.7463 48.5205 83.6712 48.6846 83.5938C48.8207 83.5301 48.9568 83.4664 49.0971 83.4008C49.23 83.3337 49.363 83.2665 49.5 83.1974C49.7518 83.0842 49.7518 83.0842 50.0087 82.9687C50.4816 82.6717 50.4816 82.6717 50.5359 82.1067C50.5304 81.7812 50.5304 81.7812 50.5248 81.4492C50.5236 81.2697 50.5236 81.2696 50.5224 81.0865C50.5185 80.6921 50.508 80.2982 50.4973 79.9039C50.4932 79.6309 50.4894 79.3579 50.486 79.0849C50.4736 78.229 50.4513 77.3734 50.4277 76.5177C50.4202 76.2336 50.4128 75.9496 50.4054 75.6656C50.3616 74.0319 50.3067 72.3988 50.2421 70.7657C48.8836 71.5324 47.5332 72.3102 46.1992 73.1191C46.0199 73.2277 46.0199 73.2277 45.837 73.3385C45.3475 73.6352 44.8582 73.9323 44.3696 74.2305C44.0059 74.4524 43.6414 74.673 43.2769 74.8934C43.1122 74.9946 43.1122 74.9946 42.9442 75.0978C42.4172 75.4153 41.947 75.6739 41.3359 75.7755C41.1522 75.4081 40.9685 75.0407 40.7792 74.6622C40.5343 74.7234 40.2894 74.7847 40.0371 74.8477C40.0983 71.2964 40.1595 67.745 40.2226 64.086C40.4063 64.0248 40.59 63.9636 40.7792 63.9005C41.093 63.5959 41.4015 63.2857 41.707 62.9727C42.1094 62.6122 42.5223 62.2647 42.9362 61.9174C43.0424 61.8274 43.1486 61.7373 43.258 61.6446C43.7185 61.2564 44.1741 60.8951 44.6757 60.5606C44.7378 60.0897 44.7632 59.6628 44.7654 59.1906C44.7682 59.0494 44.771 58.9081 44.7738 58.7626C44.7819 58.2941 44.7857 57.8256 44.7888 57.3571C44.792 57.0316 44.7952 56.7062 44.7984 56.3807C44.8043 55.6975 44.8075 55.0144 44.8095 54.3311C44.8125 53.4566 44.8259 52.5826 44.8417 51.7082C44.8521 51.0355 44.855 50.3629 44.8558 49.6901C44.8575 49.3679 44.862 49.0456 44.8693 48.7234C44.9721 46.9898 44.9721 46.9898 44.3185 45.4667C43.8884 45.1746 43.4884 44.9789 43.0058 44.7892C41.8887 44.1713 40.8276 43.537 40.2226 42.377C39.9777 41.2496 40.0405 40.0683 40.0487 38.9212C40.0466 38.5946 40.044 38.268 40.0408 37.9414C40.0357 37.2996 40.0341 36.658 40.036 36.0163C40.038 35.2738 40.03 34.532 40.0168 33.7897C40.0117 33.4283 40.0068 33.0668 40.0023 32.7054C39.9998 32.5467 39.9973 32.388 39.9947 32.2244C39.994 31.435 40.0398 30.8321 40.4082 30.131C40.7909 29.8503 40.7909 29.8503 41.2678 29.6168C41.5353 29.4832 41.5353 29.4832 41.8081 29.3469C42.001 29.2543 42.1939 29.1617 42.3926 29.0662C42.6884 28.9199 42.6884 28.9199 42.9901 28.7707C43.6202 28.4598 44.2523 28.1531 44.8845 27.8464C45.312 27.6364 45.7394 27.4261 46.1666 27.2155C47.2144 26.6998 48.2637 26.1875 49.3144 25.6778C49.2226 26.0452 49.2226 26.0452 49.1289 26.42C49.7718 26.3282 49.7718 26.3282 50.4277 26.2345C50.4277 21.0299 50.4277 15.8253 50.4277 10.463C49.6361 10.463 49.4859 10.5355 48.86 10.958ZM52.7405 41.4421C52.5309 41.5828 52.5309 41.5828 52.317 41.7264C52.0209 41.9255 51.725 42.1249 51.4293 42.3245C50.9748 42.6307 50.5192 42.9352 50.0635 43.2395C49.7767 43.4327 49.4901 43.626 49.2035 43.8194C49.0661 43.9108 48.9287 44.0022 48.7871 44.0965C48.4614 44.3178 48.1446 44.5522 47.83 44.7892C47.83 44.9116 47.83 45.0341 47.83 45.1602C48.1833 45.4185 48.1833 45.4185 48.6476 45.6734C48.8255 45.776 49.0033 45.8785 49.1866 45.9842C49.3819 46.095 49.5771 46.2058 49.7783 46.3199C50.1912 46.5574 50.6041 46.7949 51.0169 47.0324C51.2288 47.1536 51.4406 47.2749 51.6588 47.3998C52.5927 47.9355 53.5222 48.4786 54.4517 49.0219C54.6327 49.1275 54.8136 49.233 55 49.3418C56.5923 50.2705 58.1823 51.2028 59.7723 52.1354C61.4718 53.1323 63.1729 54.1265 64.8753 55.1184C65.9168 55.7256 66.9575 56.3341 67.9974 56.9439C68.1796 57.0508 68.1796 57.0508 68.3655 57.1598C69.0712 57.5737 69.7768 57.9878 70.4822 58.4021C70.7927 58.5841 71.1038 58.7651 71.4149 58.946C71.7336 59.1337 72.0502 59.325 72.362 59.524C72.982 59.922 72.982 59.922 73.6976 59.9483C74.4774 59.7374 75.1935 59.4072 75.9288 59.0763C76.0922 59.003 76.2556 58.9297 76.424 58.8542C77.8692 58.1889 79.1851 57.3899 80.4863 56.4786C80.2632 55.8093 80.1273 55.7698 79.5281 55.4393C79.3673 55.3493 79.2066 55.2593 79.041 55.1666C78.8673 55.0714 78.6937 54.9763 78.5148 54.8783C78.1533 54.676 77.7919 54.4736 77.4306 54.2709C77.2533 54.1719 77.0761 54.073 76.8935 53.971C76.2827 53.6269 75.682 53.2698 75.0822 52.9068C73.8111 52.1377 72.5338 51.3792 71.2553 50.6223C71.038 50.4936 70.8206 50.3649 70.6033 50.2362C70.16 49.9737 69.7167 49.7112 69.2734 49.4488C68.0094 48.7004 66.7459 47.9515 65.4823 47.2024C64.5363 46.6416 63.5902 46.0811 62.6432 45.5219C60.2858 44.1297 57.9344 42.7293 55.6029 41.2941C55.4368 41.1923 55.2708 41.0904 55.0997 40.9854C54.9538 40.8955 54.8078 40.8056 54.6575 40.7129C53.93 40.2953 53.3543 41.0291 52.7405 41.4421ZM46.9023 47.2013C46.9023 51.5486 46.9023 55.896 46.9023 60.3751C48.1881 61.018 48.1881 61.018 49.5 61.6739C50.2047 62.0736 50.9034 62.4768 51.5989 62.8916C53.1462 63.8044 54.7023 64.6976 56.2724 65.5704C57.9849 66.5233 59.6814 67.5005 61.3713 68.4928C62.6933 69.267 64.0256 70.0207 65.3642 70.7657C66.8972 71.619 68.4199 72.4874 69.9333 73.375C71.4618 74.2712 72.9955 75.1572 74.5372 76.0306C74.722 76.1356 74.9068 76.2406 75.0972 76.3488C75.2661 76.4443 75.4351 76.5397 75.6091 76.638C75.7586 76.7225 75.9081 76.807 76.0621 76.8941C76.3672 77.0887 76.3672 77.0887 76.5898 77.0743C76.5898 71.8697 76.5898 66.6651 76.5898 61.3028C75.6459 61.4916 74.9582 61.8106 74.1074 62.2378C73.554 62.4407 73.422 62.4132 72.8789 62.2306C72.5869 62.0856 72.2997 61.9308 72.0164 61.7696C71.8473 61.6738 71.6782 61.578 71.504 61.4794C71.3224 61.3752 71.1409 61.271 70.9538 61.1637C70.6691 61.0015 70.6691 61.0015 70.3786 60.836C68.7638 59.913 67.1619 58.9687 65.5628 58.0188C64.5064 57.3916 63.4456 56.7721 62.3839 56.1539C60.7162 55.1826 59.0503 54.2081 57.3857 53.2315C55.5198 52.1369 53.6524 51.0448 51.783 49.9561C50.9445 49.4676 50.1068 48.9776 49.2716 48.4834C49.1232 48.3956 48.9747 48.3078 48.8217 48.2174C48.5472 48.0548 48.2728 47.8919 47.9987 47.7286C47.4829 47.3636 47.4829 47.3636 46.9023 47.2013ZM44.7569 63.2511C44.5856 63.3971 44.5856 63.3971 44.4108 63.5461C44.1277 63.7875 43.845 64.0295 43.5625 64.2716C44.0949 64.6881 44.6381 65.0314 45.2288 65.3595C45.5033 65.5126 45.5033 65.5126 45.7834 65.6687C45.9804 65.7779 46.1774 65.887 46.3804 65.9995C46.8016 66.2341 47.2227 66.4687 47.6438 66.7033C47.8616 66.8244 48.0795 66.9455 48.2974 67.0667C51.369 68.775 54.4296 70.5016 57.4785 72.2501C58.3287 72.7375 59.1791 73.2246 60.0297 73.7113C60.1398 73.7743 60.2498 73.8372 60.3632 73.9021C62.1049 74.8985 63.8542 75.8806 65.6072 76.8571C67.18 77.7359 68.737 78.6405 70.2879 79.5575C71.8754 80.6636 71.8754 80.6636 73.6274 81.1003C74.1773 80.905 74.6517 80.6087 75.1518 80.3098C75.3518 80.1909 75.5517 80.072 75.7577 79.9496C75.9099 79.858 76.062 79.7663 76.2187 79.672C75.7803 79.1864 75.3217 78.8976 74.7495 78.5841C74.565 78.482 74.3805 78.38 74.1904 78.2749C73.8913 78.1112 73.8913 78.1112 73.5863 77.9441C73.1621 77.7093 72.7381 77.4742 72.3142 77.2388C72.2062 77.1788 72.0981 77.1189 71.9868 77.057C70.9142 76.46 69.8549 75.8411 68.7968 75.2188C67.2913 74.3347 65.7765 73.4702 64.2509 72.6212C62.5385 71.6682 60.842 70.6911 59.152 69.6988C57.83 68.9246 56.4978 68.1709 55.1591 67.4259C53.2303 66.3521 51.3193 65.2501 49.4151 64.1331C49.2492 64.0358 49.0833 63.9385 48.9124 63.8382C48.531 63.6142 48.1498 63.3896 47.7689 63.1647C47.4651 62.9861 47.4651 62.9861 47.1552 62.8039C46.9695 62.6943 46.7837 62.5848 46.5923 62.4719C45.7584 62.0063 45.3955 62.7033 44.7569 63.2511ZM78.8164 75.5899C78.8164 76.3859 78.8164 77.1819 78.8164 78.002C79.8727 77.7042 79.8727 77.7042 80.4863 77.2599C80.2008 76.4033 79.5365 76.07 78.8164 75.5899Z" fill="black"/>
<path d="M48.6856 26.5332C48.7642 27.6814 48.821 28.828 48.8588 29.9782C48.8746 30.3683 48.8961 30.7581 48.9235 31.1475C49.1393 34.2873 49.1393 34.2873 48.3916 35.2687C47.6481 35.9566 46.8025 36.4432 45.9075 36.9083C45.4419 37.1571 45.0336 37.4549 44.6195 37.7813C44.5016 37.8704 44.3837 37.9594 44.2622 38.0512C44.1529 38.1346 44.0436 38.218 43.9309 38.3038C43.4758 38.6492 43.0199 38.9936 42.5625 39.3359C42.4435 39.4252 42.3244 39.5144 42.2018 39.6064C41.3074 40.2637 41.3074 40.2637 40.8926 40.2637C40.8391 39.1946 40.7862 38.1256 40.7341 37.0565C40.7163 36.6937 40.6983 36.3309 40.6801 35.9682C40.4864 32.1027 40.4864 32.1027 40.5215 30.2441C43.7901 28.4203 43.7901 28.4203 45.5313 28.0176C45.5313 27.8951 45.5313 27.7727 45.5313 27.6465C45.917 27.4592 46.3037 27.2741 46.6909 27.0898C46.9062 26.9865 47.1215 26.8832 47.3433 26.7767C47.9434 26.5332 47.9434 26.5332 48.6856 26.5332Z" fill="#AFAFAF"/>
<path d="M49.0531 35.4856C49.4276 35.6253 49.743 35.786 50.0829 35.9957C50.2028 36.0688 50.3226 36.1419 50.4461 36.2172C50.5692 36.2936 50.6924 36.37 50.8193 36.4487C51.8634 37.0986 51.8634 37.0986 52.9531 37.6664C52.9531 37.8501 52.9531 38.0338 52.9531 38.223C52.7391 38.325 52.5251 38.427 52.3046 38.5321C51.4792 38.9453 50.7286 39.4345 49.9699 39.9582C49.8337 40.051 49.6975 40.1438 49.5573 40.2394C49.1269 40.5328 48.6974 40.8274 48.2681 41.1222C47.8359 41.4181 47.4036 41.7138 46.9709 42.009C46.7029 42.1919 46.4353 42.3752 46.168 42.5591C46.0466 42.6421 45.9251 42.7252 45.8 42.8107C45.694 42.8834 45.5881 42.9562 45.4789 43.0311C45.1317 43.2508 44.7973 43.445 44.418 43.6039C44.0101 43.4475 44.0101 43.4475 43.5743 43.1661C43.4176 43.0661 43.261 42.9662 43.0996 42.8631C42.9376 42.7555 42.7757 42.6479 42.6089 42.537C42.4441 42.4322 42.2793 42.3275 42.1095 42.2195C41.2236 41.6453 41.2236 41.6453 40.8926 41.3773C40.8926 41.2549 40.8926 41.1324 40.8926 41.0062C41.3421 40.662 41.7936 40.3391 42.261 40.0205C42.5501 39.8202 42.839 39.6196 43.1278 39.4189C43.2786 39.3145 43.4294 39.21 43.5848 39.1024C44.3405 38.5746 45.0866 38.0336 45.8328 37.4924C46.6266 36.9173 46.6266 36.9173 47.0202 36.6351C47.2654 36.4561 47.5074 36.2726 47.746 36.0848C48.5963 35.4287 48.5963 35.4287 49.0531 35.4856Z" fill="#ACACAC"/>
<path d="M40.5215 64.0137C41.1549 64.172 41.508 64.3169 42.0522 64.6399C42.8214 65.0799 43.5812 65.3945 44.418 65.6836C44.418 65.8061 44.418 65.9285 44.418 66.0547C44.5672 66.1006 44.7165 66.1465 44.8702 66.1938C45.7973 66.5191 46.6935 66.9141 47.5723 67.3535C47.5723 67.476 47.5723 67.5984 47.5723 67.7246C47.9396 67.8471 48.307 67.9695 48.6855 68.0957C48.6855 68.2794 48.6855 68.4631 48.6855 68.6523C48.3638 68.9216 48.3638 68.9216 47.91 69.2032C47.7428 69.3082 47.5755 69.4133 47.4032 69.5216C47.2217 69.6327 47.0402 69.7439 46.8533 69.8584C46.67 69.9729 46.4868 70.0874 46.2979 70.2054C45.4011 70.7642 44.4991 71.3143 43.5953 71.8617C43.4421 71.9546 43.2889 72.0476 43.131 72.1433C42.8416 72.3181 42.5515 72.4919 42.2607 72.6644C41.5555 73.0478 41.5555 73.0478 41.0781 73.6621C40.8944 73.6621 40.7107 73.6621 40.5215 73.6621C40.5215 70.4781 40.5215 67.2941 40.5215 64.0137Z" fill="#ADADAD"/>
<path d="M40.336 30.2441C40.3972 30.2441 40.4585 30.2441 40.5216 30.2441C40.8063 33.5909 40.9475 36.9049 40.8927 40.2637C41.3453 39.9472 41.7976 39.6302 42.2495 39.3127C42.4587 39.1659 42.4587 39.1659 42.6721 39.0161C43.4634 38.458 44.2468 37.8914 45.0218 37.3109C45.1804 37.1923 45.339 37.0737 45.5025 36.9515C45.8124 36.7189 46.1214 36.4852 46.4296 36.2504C46.5708 36.1445 46.7121 36.0386 46.8577 35.9294C46.9824 35.8348 47.1071 35.7401 47.2356 35.6426C47.5723 35.4395 47.5723 35.4395 48.129 35.4395C47.457 36.4906 46.7741 37.12 45.7401 37.8052C45.4604 37.9963 45.1808 38.1876 44.9015 38.3792C44.6896 38.5234 44.6896 38.5234 44.4734 38.6706C43.7914 39.1412 43.1246 39.6322 42.4582 40.1245C42.2776 40.2575 42.2776 40.2575 42.0934 40.3932C41.8166 40.5972 41.5402 40.8015 41.2637 41.0059C41.2025 40.8834 41.1413 40.7609 41.0782 40.6348C40.9557 40.6348 40.8333 40.6348 40.7071 40.6348C40.6535 39.5427 40.6007 38.4506 40.5486 37.3585C40.5308 36.988 40.5128 36.6175 40.4946 36.247C40.3963 34.2449 40.3018 32.2493 40.336 30.2441Z" fill="#3B3B3B"/>
<path d="M47.7578 35.2539C47.8803 35.3151 48.0027 35.3764 48.1289 35.4395C47.5803 36.2702 47.1903 36.8496 46.2734 37.2949C46.2734 37.1725 46.2734 37.05 46.2734 36.9238C45.9673 37.0463 45.6611 37.1688 45.3457 37.2949C46.0823 36.5123 46.8873 35.8825 47.7578 35.2539Z" fill="#252525"/>
<path d="M42.1914 39.3359C42.3139 39.3972 42.4363 39.4584 42.5625 39.5215C42.1782 40.27 41.8266 40.6215 41.0781 41.0059C41.0781 40.8834 41.0781 40.7609 41.0781 40.6348C40.9557 40.5735 40.8332 40.5123 40.707 40.4492C40.8907 40.4492 41.0744 40.4492 41.2637 40.4492C41.3249 40.2655 41.3861 40.0818 41.4492 39.8926C41.8319 39.5795 41.8319 39.5795 42.1914 39.3359Z" fill="#262626"/>
<path d="M42.748 38.9648C42.993 38.9648 43.2379 38.9648 43.4902 38.9648C43.2792 39.5979 43.1111 39.729 42.5625 40.0781C42.44 40.0781 42.3176 40.0781 42.1914 40.0781C42.5393 39.1736 42.5393 39.1736 42.748 38.9648Z" fill="#191919"/>
</svg>
