<svg width="95" height="95" viewBox="0 0 95 95" fill="none" xmlns="http://www.w3.org/2000/svg">
<path d="M80.9697 62.9586L80.8113 62.7671C81.7337 60.5324 82.6562 58.2976 83.7196 56.1238L83.8641 56.3257C84.2992 56.6337 84.0607 57.0219 83.9302 57.3369C83.2131 59.0773 82.4421 60.7813 81.6867 62.4991C81.5545 62.7985 81.3804 63.0717 80.9697 62.9586Z" fill="#181818"/>
<path d="M84.3134 64.6888L83.3597 64.6801C83.3083 64.6841 83.2569 64.6713 83.2135 64.6435C82.4059 64.3476 81.5583 64.5983 80.7385 64.4695C80.8273 63.9143 81.2815 63.9473 81.6697 63.9212C82.7 63.8655 83.7339 63.8969 84.766 63.9003C85.6867 64.01 86.7031 63.7037 87.455 64.5304L87.2235 64.6714L86.3167 64.6818L84.3134 64.6888Z" fill="#141414"/>
<path d="M84.8353 57.3651L84.9868 57.1545C85.4125 58.044 85.7618 58.968 86.031 59.9167C86.1198 60.1064 86.0188 60.1864 85.857 60.2317C85.0285 59.7705 84.4507 58.1309 84.8353 57.3651Z" fill="#1E1E1E"/>
<path d="M86.3356 60.6771C86.6837 61.6053 87.0277 62.5336 87.3677 63.4618C87.354 63.5312 87.316 63.5934 87.2604 63.6371C87.2049 63.6809 87.1355 63.7033 87.0648 63.7003C86.652 63.353 86.3338 62.9069 86.1396 62.4036C85.9455 61.9003 85.8818 61.3561 85.9544 60.8215C85.9933 60.759 86.0517 60.711 86.1206 60.6849C86.1895 60.6588 86.265 60.656 86.3356 60.6771Z" fill="#222222"/>
<path d="M87.1973 63.6586L87.3714 63.4619C87.3505 63.8204 88.0554 64.1216 87.4584 64.5288C86.5725 64.4087 85.6657 64.6263 84.7903 64.3548C84.9173 63.85 85.3472 63.9458 85.6971 63.911C86.2018 63.8657 86.7292 63.944 87.1973 63.6586Z" fill="#050505"/>
<path d="M16.7466 64.6489C16.5924 64.5406 16.4073 64.4853 16.219 64.4913C16.0307 64.4972 15.8494 64.5642 15.7023 64.682L14.8321 64.6402C14.7068 64.5862 14.7085 64.5375 14.8321 64.4957C15.7441 64.1894 16.6857 64.3565 17.6168 64.3217C17.4793 64.8317 17.0408 64.5514 16.7466 64.6489Z" fill="#5F5F5F"/>
<path d="M11.0608 64.6821C10.6658 64.6577 10.2863 64.6821 10.0026 65.0145C10.0026 64.7848 9.84948 64.5568 10.0026 64.3288C10.0514 64.2522 10.1036 64.2505 10.1593 64.3201C10.8816 64.7326 11.6752 64.3584 12.4219 64.5255C12.4219 64.5637 12.4219 64.602 12.4219 64.6403L11.0608 64.6821Z" fill="#232323"/>
<path d="M15.1803 58.4285L14.505 57.0361C14.3936 56.9473 14.4058 56.8812 14.5415 56.8394L14.6947 56.6323C14.9706 57.1422 15.1845 57.6833 15.3317 58.244C15.3231 58.2846 15.3048 58.3226 15.2785 58.3547C15.2521 58.3868 15.2185 58.4121 15.1803 58.4285Z" fill="#282828"/>
<path d="M13.13 57.6243C12.9369 58.1151 12.7437 58.6041 12.5522 59.0949C12.4043 59.1123 12.2877 59.1036 12.3938 58.907C12.5562 58.3527 12.7903 57.8221 13.09 57.3284C13.1127 57.3447 13.1319 57.3654 13.1463 57.3894C13.1607 57.4133 13.17 57.44 13.1738 57.4677C13.1775 57.4954 13.1756 57.5236 13.1681 57.5505C13.1605 57.5774 13.1476 57.6025 13.13 57.6243Z" fill="#222222"/>
<path d="M11.9063 60.4055C11.8307 60.8997 11.6025 61.3579 11.2537 61.7161V61.7248C11.2537 61.1121 11.6018 60.6248 11.8663 60.1096C11.8897 60.1254 11.9094 60.1459 11.9243 60.1699C11.9391 60.1938 11.9488 60.2207 11.9525 60.2486C11.9563 60.2765 11.9542 60.3049 11.9462 60.332C11.9382 60.359 11.9247 60.3841 11.9063 60.4055Z" fill="#343434"/>
<path d="M11.2539 61.7248V61.7161C11.2278 62.3148 10.9476 62.8091 10.6047 63.2825H10.6152C10.5786 62.6611 10.8571 62.1686 11.2539 61.7248Z" fill="#3A3A3A"/>
<path d="M11.9067 60.4055L11.8667 60.1096C11.9714 59.6821 12.1479 59.2754 12.3888 58.907L12.5472 59.095L11.9067 60.4055Z" fill="#2C2C2C"/>
<path d="M13.1302 57.6244L13.085 57.3285C13.1802 56.9005 13.3576 56.495 13.6071 56.1345C13.6175 56.2268 13.628 56.3208 13.6402 56.413C13.5707 56.8521 13.3957 57.2678 13.1302 57.6244Z" fill="#212121"/>
<path d="M15.1804 58.4284L15.3318 58.2544L15.7321 59.4066C15.75 59.429 15.763 59.4549 15.7702 59.4826C15.7774 59.5104 15.7786 59.5393 15.7739 59.5675C15.7691 59.5958 15.7584 59.6227 15.7425 59.6466C15.7266 59.6704 15.7059 59.6907 15.6817 59.7059C15.4399 59.3133 15.2702 58.8807 15.1804 58.4284Z" fill="#171717"/>
<path d="M10.6151 63.2827H10.6047C10.5472 63.6691 10.4567 64.0416 10.1574 64.327C10.1052 64.327 10.0529 64.327 10.0007 64.3357C10.1783 63.9632 10.18 63.4968 10.6151 63.2827Z" fill="#484848"/>
<path d="M86.3356 60.6772L86.1477 60.9069C85.7038 60.7956 85.6255 60.5362 85.8466 60.1585L86.0345 59.9236C86.139 60.1731 86.2393 60.4243 86.3356 60.6772Z" fill="#292929"/>
<path d="M15.6868 59.7024L15.7372 59.4031C15.9226 59.6682 16.0419 59.9737 16.0853 60.2942C16.1051 60.3131 16.1202 60.3364 16.1293 60.3622C16.1384 60.388 16.1412 60.4156 16.1377 60.4427C16.1341 60.4698 16.1242 60.4957 16.1088 60.5183C16.0933 60.5409 16.0728 60.5595 16.0488 60.5727C15.8448 60.3247 15.7189 60.0219 15.6868 59.7024Z" fill="#1E1E1E"/>
<path d="M16.0505 60.5727L16.0871 60.2942C16.2675 60.5541 16.3866 60.8517 16.4352 61.1644C16.4816 61.2097 16.4955 61.2532 16.477 61.295C16.4578 61.3367 16.4404 61.3559 16.423 61.3559C16.3077 61.2602 16.2147 61.1406 16.1503 61.0054C16.086 60.8701 16.052 60.7224 16.0505 60.5727Z" fill="#333333"/>
<path d="M14.8444 64.4956C14.8444 64.5443 14.8444 64.5931 14.8444 64.6401L13.814 64.6801C13.807 64.6244 13.8018 64.5664 13.7983 64.506L14.8444 64.4956Z" fill="#353535"/>
<path d="M83.7199 56.1241C83.4136 55.8699 83.0498 55.9935 82.7156 55.9935C60.3043 55.9866 37.8929 55.9866 15.4815 55.9935C15.0847 55.9935 14.3641 55.7116 14.7 56.6392C14.7749 56.7715 14.7 56.8533 14.6008 56.9229C14.4666 56.9454 14.3288 56.9318 14.2016 56.8834C14.0743 56.8351 13.9622 56.7538 13.8768 56.6479C13.7758 56.5435 13.6105 56.5017 13.5687 56.3399C13.5612 56.3044 13.5613 56.2677 13.5691 56.2323C13.5769 56.1969 13.5922 56.1635 13.614 56.1345C13.3773 55.8769 13.0675 55.9953 12.7942 55.9935C11.0833 55.9813 9.3742 55.9744 7.66332 55.9935C7.20558 55.9935 6.99672 55.9152 7.0002 55.3861C7.02631 52.5526 7.03849 49.7157 7.0002 46.8822C6.98976 46.1616 7.38658 46.2608 7.8217 46.2608H47.7723L42.1263 36.8484C43.1201 36.8484 44.0286 36.8014 44.9301 36.8641C45.6054 36.9111 45.7604 36.6657 45.7534 36.0339C45.7081 31.3468 45.7099 26.6615 45.6577 21.9744C45.6577 21.2782 45.7969 20.9527 46.554 21.0589C47.3111 21.1651 48.3136 20.7491 48.7992 21.2643C49.2395 21.7342 48.9193 22.7002 48.9228 23.4468C48.9332 27.5839 48.9437 31.721 48.9123 35.8581C48.9123 36.5543 49.0464 36.8188 49.8069 36.7649C50.9313 36.6865 52.0695 36.744 53.213 36.744C53.3157 37.0921 53.039 37.3201 52.905 37.5777C51.5213 40.2145 50.1446 42.853 48.7122 45.4602C48.3154 46.1825 48.4772 46.273 49.2152 46.273C62.0865 46.2579 74.9561 46.2539 87.8239 46.2608C88.9448 46.2608 88.9465 46.2608 88.9465 47.3834C88.9465 50.015 88.9308 52.6483 88.9587 55.2799C88.9587 55.8473 88.8055 56.0266 88.2346 55.997C87.3087 55.95 86.3758 56.0336 85.4499 55.9709C84.6423 55.9152 84.5797 56.2024 84.9086 56.8168C84.9492 56.9247 84.9744 57.0377 84.9835 57.1527C85.06 57.2954 84.9835 57.3789 84.8669 57.4451C84.1707 57.4729 84.2542 56.6427 83.7564 56.4582C83.7042 56.3538 83.6398 56.2476 83.7199 56.1241Z" fill="black"/>
<path d="M13.647 56.4148L13.9829 56.0093C14.291 56.2738 14.2597 56.7577 14.6165 56.9909C15.0272 57.3738 15.0342 57.9412 15.2639 58.4059C15.4571 58.8027 15.5319 59.25 15.7704 59.6242C15.8155 59.9411 15.9347 60.2428 16.1185 60.5049C16.1625 60.822 16.2819 61.124 16.4666 61.3856C16.4919 61.7016 16.6203 62.0006 16.8321 62.2367C17.1693 62.9019 17.4319 63.6023 17.6153 64.3252C17.0583 64.5898 16.4596 64.5689 15.8748 64.5341C15.5363 64.4968 15.194 64.5121 14.8601 64.5793C14.4964 64.6037 14.1274 64.5463 13.7636 64.6194C13.3042 64.9674 12.8638 64.6194 12.4148 64.5846C11.6681 64.4384 10.9197 64.83 10.1731 64.5846C10.0199 64.0816 10.4811 63.7578 10.549 63.3192C10.7613 62.7727 11.0607 62.261 11.2556 61.7058C11.4419 61.255 11.6977 60.8356 11.8091 60.3517C12.0876 59.948 12.2059 59.4693 12.4322 59.0412C12.6062 58.5469 12.9073 58.1013 13.0239 57.5827C13.3163 57.2311 13.3355 56.7455 13.647 56.4148Z" fill="#919191"/>
<path d="M83.2133 64.6437C81.9184 64.3948 81.3197 65.0632 80.9124 66.2101C80.5051 67.3571 79.9186 68.4153 79.4051 69.517C79.2694 69.8077 79.118 70.1488 78.709 69.926C78.3713 69.752 78.5001 69.4387 78.6254 69.1672C79.2067 67.9123 79.7985 66.6609 80.3659 65.3973C80.4686 65.1676 80.9211 64.776 80.1918 64.6785C79.9116 64.642 80.0822 64.3948 80.1361 64.266C80.3502 63.763 80.5887 63.2705 80.8184 62.7744C80.8757 62.7535 80.9382 62.7512 80.9969 62.7677C81.0556 62.7843 81.1077 62.8189 81.1456 62.8667C81.438 63.1312 81.0899 63.6168 81.4937 63.8431C81.8644 64.0171 82.2908 63.9684 82.6511 64.1442C82.8704 64.2504 83.2463 64.2243 83.2133 64.6437Z" fill="#040404"/>
<path d="M12.4183 64.5251L13.7915 64.5129C13.9185 64.5582 13.9238 64.6121 13.8072 64.687C13.0808 66.2476 12.3539 67.8088 11.6264 69.3706C11.4854 69.6699 11.3757 70.1346 10.9302 69.9554C10.408 69.7483 10.7039 69.3323 10.8518 69.0068C11.4227 67.7519 12.0093 66.5058 12.5784 65.2492C12.6793 65.0264 12.9804 64.7061 12.4148 64.647L12.2982 64.5843L12.4183 64.5251Z" fill="#040404"/>
<path d="M16.7468 64.6488C16.0123 66.2153 15.283 67.7817 14.5416 69.3481C14.3919 69.6631 14.2979 70.1783 13.788 69.9242C13.3528 69.7084 13.6226 69.3289 13.7601 69.0209C14.4052 67.5717 15.0527 66.1253 15.7025 64.6819C16.0349 64.2329 16.383 64.2886 16.7468 64.6488Z" fill="#040404"/>
<path d="M87.2237 64.6697C86.4869 66.2941 85.7501 67.9186 85.0133 69.543C84.8914 69.811 84.7452 70.1104 84.3815 69.952C83.969 69.778 84.11 69.4542 84.2509 69.1497C84.9471 67.6633 85.6358 66.1746 86.3169 64.6836C86.6162 64.3773 86.9173 64.3877 87.2237 64.6697Z" fill="#050505"/>
<path d="M11.0607 64.6817C10.3315 66.276 9.61093 67.8685 8.86949 69.4593C8.7407 69.7361 8.62061 70.1311 8.20116 69.9571C7.72601 69.7552 7.95749 69.388 8.10021 69.0869C8.72852 67.7328 9.36727 66.3822 10.0025 65.0298C10.1801 64.3476 10.6378 64.5617 11.0607 64.6817Z" fill="#040404"/>
<path d="M84.3134 64.6888C83.5877 66.2917 82.8654 67.8964 82.1292 69.4959C82.0004 69.7761 81.8611 70.1503 81.433 69.9258C81.0048 69.7013 81.2311 69.3793 81.3599 69.0939C82.0195 67.6214 82.6879 66.1507 83.3527 64.6801C83.6799 64.3877 83.9984 64.3755 84.3134 64.6888Z" fill="#030303"/>
<path d="M16.4109 61.3648L16.4231 61.1733C16.564 61.5214 16.7033 61.8852 16.8425 62.2402C16.6941 62.1512 16.5745 62.0212 16.498 61.866C16.4214 61.7107 16.3912 61.5368 16.4109 61.3648Z" fill="#515151"/>
<path d="M85.8433 60.1515C85.9425 60.4004 86.0434 60.651 86.1444 60.8999C86.4121 61.8479 86.7615 62.7709 87.1887 63.6585C87.2948 64.038 87.3105 64.3269 86.7588 64.3112C86.0991 64.2921 85.4378 64.3338 84.7781 64.3512C83.4275 64.3373 82.0752 64.2729 80.7298 64.4678C80.1607 63.8656 81.0344 63.4845 80.9613 62.9589C82.0212 60.7885 82.9454 58.5607 83.8557 56.326C84.0175 56.0301 84.1794 55.6855 84.4178 56.272C84.5658 56.6323 84.6911 56.9995 84.8268 57.365L85.8433 60.1515Z" fill="#919191"/>
<path d="M14.5467 56.8464L14.5102 57.0431C14.2306 56.7628 14.0477 56.4007 13.988 56.0093C14.4841 56.0754 14.3466 56.5749 14.5467 56.8464Z" fill="#C6C6C6"/>
</svg>
