<svg width="95" height="95" viewBox="0 0 95 95" fill="none" xmlns="http://www.w3.org/2000/svg">
<path d="M70.7716 63.9698C71.6307 64.4318 71.4971 64.8622 70.8848 65.5228C68.6582 67.9349 66.452 70.3767 64.3127 72.8686C63.6837 73.5996 63.2959 73.6497 62.8042 72.8445C60.2937 70.1596 58.275 67.0832 55.9835 64.2258C53.2003 60.7598 50.3354 57.3773 47.3333 54.1005C45.0424 51.5944 42.634 49.2089 40.1081 46.944C36.9427 44.0989 33.6715 41.3813 30.2945 38.7911C27.3703 36.5459 24.2791 34.5235 21.5738 31.9945C20.9003 31.6234 20.9986 31.2783 21.4755 30.7569C23.8257 28.1864 26.1494 25.5956 28.4465 22.9843C28.8269 22.5557 29.1145 22.3813 29.4559 22.9843C31.6397 25.2832 33.4303 27.8957 35.3785 30.3839C38.3633 34.1951 41.4904 37.8837 44.7598 41.4499C46.8861 43.7786 49.1479 45.955 51.4636 48.074C55.3972 51.6711 59.4903 55.0815 63.7431 58.305C66.1366 60.116 68.5524 61.9213 70.7716 63.9698Z" fill="black"/>
<path d="M21.5664 31.9944C23.7188 33.2672 25.6818 34.811 27.7062 36.262C41.4051 46.1052 52.755 58.2344 62.3756 72.0428C62.5463 72.2877 62.8061 72.4956 62.8042 72.8388C62.3941 72.7219 62.1437 72.3954 61.8635 72.1152C59.3512 69.6103 56.8413 67.1048 54.334 64.5987C46.2423 56.5571 38.1784 48.4895 30.0366 40.4999C27.4631 37.9746 24.9137 35.4233 22.3364 32.9017C22.0525 32.629 21.726 32.3803 21.5664 31.9944Z" fill="#C8C8C8"/>
<path d="M70.7715 63.9697C68.2796 62.4241 66.0011 60.5816 63.6595 58.8282C50.6439 49.1207 39.3001 37.3538 30.0755 23.9917C29.8491 23.6633 29.6506 23.3164 29.4409 22.9768C29.8361 23.1215 30.0792 23.4537 30.3687 23.7357C34.1056 27.4615 37.7905 31.2411 41.585 34.913C47.5948 40.7318 53.4043 46.7491 59.4104 52.5697C62.9804 56.0283 66.4612 59.5815 70.0052 63.0549C70.2891 63.3314 70.6156 63.58 70.7715 63.9697Z" fill="#C8C8C8"/>
<path d="M9.41499 20.5722C8.38706 17.1952 7.39068 13.9649 6.42954 10.7252C6.26997 10.1871 5.76343 9.50616 6.13081 9.11466C6.43511 8.78995 7.15318 9.24454 7.68013 9.37628C10.7231 10.137 13.7654 10.9064 16.8072 11.6845C17.0892 11.7587 17.5197 11.6975 17.6217 11.9999C17.7368 12.332 17.3119 12.4749 17.117 12.6883C16.4806 13.3878 15.2616 13.9482 15.2746 14.7293C15.295 15.4028 16.4379 16.0523 17.0985 16.6961C19.2397 18.7854 21.3772 20.8783 23.5425 22.9416C23.9749 23.3535 24.0454 23.6151 23.5518 24.0196C22.9117 24.5429 22.3532 25.5281 21.6963 25.5782C21.0395 25.6283 20.481 24.5856 19.8891 24.0122C17.7015 21.8803 15.5084 19.7521 13.356 17.5923C12.9014 17.1358 12.6472 17.1136 12.213 17.6108C11.3447 18.6017 10.4077 19.5294 9.41499 20.5722Z" fill="black"/>
<path d="M84.4518 76.264L87.8566 87.6918L75.8647 84.5932C76.6904 83.8065 77.3881 83.0884 78.1451 82.439C78.6349 82.016 78.6349 81.7581 78.1562 81.2979C75.5586 78.7986 73.0054 76.2455 70.4041 73.7443C69.879 73.2396 69.699 72.913 70.3707 72.4009C70.9774 71.9389 71.484 70.9945 72.0833 70.9592C72.7698 70.9184 73.2615 71.9074 73.8274 72.4566C75.9965 74.5681 78.1599 76.6722 80.264 78.8413C80.8838 79.4795 81.1918 79.3738 81.7484 78.7875C82.5778 77.8987 83.5259 77.1157 84.4518 76.264Z" fill="black"/>
</svg>
