<svg width="95" height="95" viewBox="0 0 95 95" fill="none" xmlns="http://www.w3.org/2000/svg">
<g clip-path="url(#clip0_2003_51)">
<path d="M47.5 0.0185547C63.0859 0.0185547 78.6669 0.0123698 94.243 0C94.8757 0 95.0018 0.124316 95 0.758887C94.9814 31.9196 94.9814 63.0804 95 94.2411C95 94.8757 94.8757 95 94.243 95C63.0822 94.979 31.9209 94.979 0.758887 95C0.124316 95 0 94.8757 0 94.2411C0.0197917 63.0804 0.0197917 31.9196 0 0.758887C0 0.124316 0.120605 0 0.758887 0C16.3399 0.0222656 31.9202 0.0284505 47.5 0.0185547Z" fill="url(#paint0_radial_2003_51)"/>
<path d="M48.4891 10C49.3553 10 49.6276 10.1943 49.6238 11.294C49.5846 21.2591 49.6241 31.2242 49.5867 41.1914C49.5867 42.1503 49.7735 42.4014 50.5984 42.4014C59.8468 42.4014 69.0972 42.4517 78.3455 42.4912C80.1022 42.4912 80.3359 42.8103 80.1492 44.8555C80.1349 45.075 80.1302 45.2956 80.1346 45.5157C80.0823 55.2236 80.0423 64.9337 79.9471 74.6416C79.9471 75.6137 80.151 75.9278 80.9705 75.8662C81.8646 75.7981 82.7681 75.8933 83.6678 75.9043C84.254 75.9043 84.7095 76.1835 84.9149 76.8389C85.1202 77.4942 84.9398 78.0331 84.5106 78.5147C83.594 79.5395 83.1419 80.9338 82.4568 82.1543C81.88 83.1946 81.3644 84.2835 80.8025 85.337C80.6682 85.5898 80.5582 86.1107 80.243 85.9024C79.9276 85.6935 80.2424 85.3155 80.3787 85.0625C81.286 83.2723 82.2119 81.4949 83.1248 79.709C83.2461 79.4694 83.4479 79.2692 83.4051 78.7725C82.0591 78.7725 80.707 78.7835 79.3572 78.7725C78.9188 78.7727 78.7978 79.1399 78.6111 79.4786C77.6274 81.3853 76.6526 83.2984 75.6502 85.1963C75.4953 85.4888 75.4095 86.1592 75.0008 85.8692C74.6797 85.6492 75.0865 85.2274 75.2303 84.9414C76.0872 83.2435 76.9647 81.5583 77.8328 79.8692C77.9895 79.5614 78.1312 79.2422 78.3924 78.6905H74.4383C74.009 78.6906 73.9059 79.1304 73.7342 79.4668C72.713 81.4331 71.7033 83.4064 70.6766 85.3682C70.5479 85.6167 70.4507 86.1461 70.117 85.8985C69.7828 85.6499 70.1465 85.3059 70.2772 85.0508C71.2367 83.1683 72.2041 81.2918 73.1785 79.4209C73.3913 79.0164 73.5517 78.728 73.035 78.4092C72.5178 78.0903 72.3602 77.4499 72.5506 76.7901C72.6257 76.4793 72.7902 76.2088 73.0154 76.0245C73.2407 75.84 73.5134 75.7528 73.7869 75.7784C74.81 75.7784 75.8408 75.7612 76.8582 75.8096C77.3918 75.8337 77.5409 75.6138 77.5428 74.9961C77.5751 65.3967 77.6217 55.7968 77.6815 46.1973C77.6814 45.5551 77.4945 45.3965 76.9774 45.3965C68.1323 45.3789 59.2872 45.3443 50.4422 45.293C49.6321 45.293 49.7359 45.8519 49.7322 46.4346C49.6924 54.2057 49.6529 61.9736 49.6131 69.7373C49.6131 71.3492 49.6711 72.9677 49.576 74.5752C49.5106 75.6859 49.8502 75.9652 50.7127 75.8838C51.4594 75.8135 52.2063 75.9063 52.9529 75.9151C53.5372 75.9151 53.9909 76.1924 54.2 76.8477C54.409 77.503 54.2002 78.0225 53.8025 78.5284C52.7926 79.7886 52.2171 81.3871 51.4256 82.8321C50.9515 83.6919 50.5242 84.5914 50.0613 85.4512C49.9419 85.6711 49.8349 86.1115 49.5457 85.9161C49.2563 85.7203 49.5266 85.3897 49.6424 85.1631C50.5758 83.3113 51.5415 81.4708 52.4861 79.6211C52.5925 79.4144 52.7806 79.234 52.6873 78.7832C51.362 78.7832 50.0104 78.7942 48.657 78.7832C48.2184 78.7833 48.0972 79.1636 47.9236 79.5C46.9062 81.4794 45.8958 83.4433 44.8709 85.4073C44.744 85.6536 44.6375 86.1482 44.2996 85.8799C44.0354 85.6601 44.3332 85.3507 44.449 85.1221C45.3433 83.3626 46.2524 81.6179 47.1541 79.8672C47.3109 79.5616 47.4548 79.2516 47.7254 78.6954H43.742C43.3556 78.6954 43.2503 79.0884 43.0936 79.3897C42.0575 81.3889 41.0289 83.3929 39.9891 85.3877C39.8603 85.6363 39.7655 86.1328 39.4295 85.8799C39.1701 85.6842 39.4478 85.3525 39.5691 85.1172C40.5312 83.2376 41.4978 81.3616 42.4686 79.4893C42.687 79.0714 42.9332 78.7526 42.3377 78.4073C41.8094 78.1016 41.6697 77.4455 41.8602 76.7901C41.9349 76.487 42.0947 76.2225 42.3133 76.0401C42.5319 75.8577 42.7968 75.7677 43.0643 75.7852C44.1843 75.7852 45.3046 75.7654 46.4246 75.8204C47.0069 75.8489 47.16 75.6002 47.16 74.9405C47.1824 65.3778 47.2172 55.8147 47.2645 46.252C47.2644 45.6519 47.1393 45.4259 46.5945 45.4258C37.6859 45.4434 28.778 45.4434 19.8719 45.4258C19.0394 45.4259 19.1716 45.9907 19.1697 46.5537C19.1374 53.6239 19.1075 60.695 19.0789 67.7666C19.0789 70.1111 19.1013 72.4581 19.0359 74.8047C19.0117 75.704 19.2766 75.9329 19.9803 75.9043C20.818 75.8673 21.6568 75.8844 22.493 75.9551C23.6243 76.0387 24.0888 77.1423 23.4988 78.2881C22.2717 80.6634 21.0403 83.0354 19.8045 85.4034C19.6777 85.6454 19.5938 86.1814 19.2449 85.9375C18.8958 85.6934 19.271 85.3589 19.3924 85.1192C20.4172 83.0849 21.4623 81.0636 22.6141 78.8204H18.2811C17.8501 78.8206 17.7527 79.2779 17.5828 79.6055C16.5767 81.5408 15.5896 83.4873 14.576 85.4161C14.4528 85.6514 14.3701 86.1973 14.0154 85.9268C13.6608 85.6563 14.0563 85.3457 14.1795 85.1016C15.1129 83.2476 16.0602 81.3985 17.0291 79.5664C17.3502 78.9572 17.273 78.7146 16.6551 78.7696C16.6242 78.7717 16.5932 78.7717 16.5623 78.7696C15.4422 78.7696 14.1817 78.3763 13.2576 78.8711C12.3636 79.3506 12.0423 80.9095 11.4656 81.9893C10.8514 83.133 10.2746 84.3058 9.66973 85.4561C9.55031 85.676 9.43613 86.1377 9.16192 85.9512C8.78856 85.6983 9.16229 85.3682 9.27618 85.1241C10.3142 83.0237 11.3781 80.9667 12.5057 78.7784C11.6525 78.4836 11.0981 77.9712 11.2811 76.9463C11.4641 75.9217 12.1454 75.7322 12.9275 75.7784C13.8273 75.8201 14.7326 75.7414 15.6268 75.8272C16.3735 75.8998 16.5603 75.5676 16.5604 74.7276C16.5604 68.3494 16.6241 61.971 16.6297 55.5928C16.6446 40.8646 16.6446 26.1364 16.6297 11.4082C16.6297 10.3635 16.7656 9.99564 17.7625 10C28.0041 10.0528 38.2463 10.0528 48.4891 10ZM46.1424 12.8702C37.4578 12.8965 28.7732 12.8965 20.0887 12.8702C19.4074 12.868 19.1962 13.0529 19.1961 13.8926C19.2247 23.1197 19.2247 32.3472 19.1961 41.5743C19.1942 42.4296 19.4313 42.5859 20.0975 42.586C24.4304 42.5508 28.7655 42.5684 33.0984 42.5684C37.4388 42.5684 41.7775 42.5549 46.1141 42.5879C46.7749 42.5923 47.0086 42.4471 47.0086 41.585C46.985 32.3581 46.985 23.1312 47.0086 13.9043C47.0105 13.0906 46.8462 12.8702 46.1424 12.8702Z" fill="black"/>
</g>
<defs>
<radialGradient id="paint0_radial_2003_51" cx="0" cy="0" r="1" gradientUnits="userSpaceOnUse" gradientTransform="translate(47.5 47.5) rotate(90) scale(47.5 47.5)">
<stop offset="0.4" stop-color="white"/>
<stop offset="1" stop-color="white" stop-opacity="0.5"/>
</radialGradient>
<clipPath id="clip0_2003_51">
<rect width="95" height="95" fill="white"/>
</clipPath>
</defs>
</svg>
