<svg width="95" height="95" viewBox="0 0 95 95" fill="none" xmlns="http://www.w3.org/2000/svg">
<g clip-path="url(#clip0_2002_18)">
<path d="M47.5 0.0185547C63.0859 0.0185547 78.6669 0.0123698 94.243 0C94.8757 0 95.0018 0.124316 95 0.758887C94.9814 31.9196 94.9814 63.0804 95 94.2411C95 94.8757 94.8757 95 94.243 95C63.0822 94.979 31.9209 94.979 0.758887 95C0.124316 95 0 94.8757 0 94.2411C0.0197917 63.0804 0.0197917 31.9196 0 0.758887C0 0.124316 0.120605 0 0.758887 0C16.3399 0.0222656 31.9202 0.0284505 47.5 0.0185547Z" fill="url(#paint0_radial_2002_18)"/>
<path d="M27.7078 64.4257C27.7517 63.9181 28.1562 64.0593 28.4309 64.0574C29.7665 64.0479 31.0849 64.067 32.4109 64.0765C32.4569 64.452 32.364 64.8314 32.1495 65.1431C30.9151 67.2418 29.7054 69.3539 28.4691 71.4508C28.3279 71.6912 28.2287 72.214 27.8528 72.0003C27.4006 71.7446 27.8528 71.3859 27.9959 71.1264C29.1407 69.1212 30.3064 67.1312 31.4646 65.1354C31.6191 64.8683 31.7641 64.5974 32.0007 64.1814C30.4667 64.2959 29.0815 63.9906 27.7078 64.4257Z" fill="#070707"/>
<path d="M81.0584 64.2078C82.7336 63.8701 84.4259 64.1048 86.1107 64.0609C86.021 64.0857 85.9199 64.1506 85.8397 64.1334C83.947 63.7365 83.119 64.8565 82.3729 66.3619C81.4876 68.1478 80.3963 69.8306 79.3851 71.5535C79.2534 71.7748 79.1618 72.2022 78.7974 71.9999C78.433 71.7977 78.7592 71.4943 78.8833 71.2768C80.0509 69.2429 81.2339 67.2167 82.4092 65.1866C82.5637 64.9176 82.7049 64.6428 82.9415 64.2078H81.0584Z" fill="#070707"/>
<path d="M88.1064 64.5705C88.0396 64.704 87.9671 64.8777 87.8736 65.0398C86.6169 67.2022 85.3564 69.3646 84.092 71.5269C83.9604 71.7502 83.8593 72.1757 83.5063 72.002C83.1247 71.8112 83.4395 71.4983 83.5635 71.2808C84.8469 69.0561 86.138 66.8365 87.4367 64.622C87.5416 64.4427 87.6065 64.1832 87.9022 64.229C88.0568 64.2595 88.0759 64.3969 88.1064 64.5705Z" fill="#060606"/>
<path d="M25.6835 13.0018C34.343 13.0667 43.0041 13.1309 51.6649 13.1932C52.9599 13.1935 53.5723 14.0742 53.1376 15.3026C53.02 15.6962 52.9752 16.1087 53.0057 16.5184C53.0763 22.7802 53.1698 29.0407 53.2118 35.3026C53.2119 36.092 53.4434 36.3039 54.2176 36.3211C63.5663 36.5291 72.9287 36.7728 82.2831 37.0018C84.1545 37.0476 84.7292 37.6433 84.6835 39.4823C84.5079 46.5989 84.3518 53.7181 84.161 60.8348C84.1439 61.5042 84.3141 61.7216 84.995 61.6873C86.3304 61.6225 87.6662 61.6306 88.9901 61.6268C90.0145 61.6269 90.6598 62.1646 90.6923 63.0155C90.7246 63.8986 90.066 64.4942 88.996 64.5096C87.9258 64.5249 86.9066 64.5096 85.8632 64.5096C84.5563 64.666 83.2431 64.5937 81.9305 64.5975C81.549 64.5975 81.1671 64.534 80.8104 64.6561C79.7956 64.6809 78.7804 64.7139 77.7675 64.7235C77.5871 64.7042 77.4049 64.7433 77.2489 64.8358C77.0929 64.9282 76.971 65.0688 76.9012 65.2362C75.6573 67.4856 74.3421 69.695 73.0409 71.9139C72.896 72.16 72.7949 72.6618 72.41 72.4451C72.0251 72.2277 72.4093 71.8837 72.5487 71.6434C73.7646 69.5244 74.9925 67.411 76.2313 65.3035C76.4431 64.943 76.5633 64.6982 76.119 64.3758C75.5679 63.9752 75.5027 63.3418 75.7372 62.7352C75.8402 62.4648 76.0253 62.2329 76.2665 62.0731C76.5077 61.9133 76.7938 61.833 77.0829 61.8436C78.2273 61.8207 79.3721 61.8016 80.5165 61.8016C80.9494 61.8016 81.2267 61.7405 81.2401 61.1932C81.3927 54.8118 81.5574 48.4287 81.7342 42.0448C81.3528 41.9762 81.2707 42.2763 81.12 42.4461C78.2276 45.6895 75.3482 48.9557 72.4501 52.201C72.0763 52.5867 71.8661 53.1024 71.8641 53.6395C71.7051 60.662 71.5257 67.6846 71.326 74.7059C71.3013 75.5353 71.4675 75.8499 72.3426 75.7528C73.2309 75.6789 74.1238 75.6583 75.0145 75.6903C75.9167 75.7 76.5308 76.2284 76.6014 77.0047C76.6178 77.1948 76.5964 77.3865 76.538 77.5682C76.4794 77.7499 76.3849 77.9184 76.2606 78.0633C76.1363 78.2082 75.9841 78.3274 75.8133 78.4129C75.6428 78.4982 75.4567 78.5486 75.2665 78.5614C74.7783 78.6148 74.5542 78.8362 74.3348 79.2196C73.2015 81.2012 72.054 83.1773 70.8915 85.1463C70.7542 85.381 70.6501 85.8806 70.2421 85.6043C69.9392 85.3984 70.2684 85.0832 70.3983 84.8563C71.5659 82.8263 72.7452 80.8034 73.9891 78.661H70.3202C69.8723 78.6613 69.7634 79.0254 69.5936 79.3172C68.4959 81.1653 67.4055 83.0273 66.3231 84.9022C66.2106 85.0928 66.0966 85.2838 65.9803 85.4744C65.864 85.6651 65.7089 85.7542 65.5106 85.619C65.3431 85.5026 65.4119 85.3401 65.4882 85.1971C65.6101 84.9741 65.7375 84.7542 65.869 84.535L69.1932 78.7967H63.9344C63.5837 78.797 63.522 79.1548 63.3866 79.3875C62.2934 81.2497 61.2134 83.1182 60.1278 84.9823C60.0261 85.1794 59.9068 85.3671 59.7714 85.5428C59.7273 85.5839 59.674 85.6141 59.6161 85.6307C59.5582 85.6472 59.4965 85.6501 59.4374 85.6385C59.2469 85.5793 59.2603 85.3879 59.3251 85.243C59.4319 85.0123 59.5655 84.7962 59.6932 84.577C60.7749 82.7112 61.8592 80.8468 62.9257 79.0096C62.8664 78.6994 62.6164 78.7848 62.4657 78.7147C61.7409 78.3675 61.4045 77.8022 61.5741 77.0145C61.7362 76.2648 62.2594 75.9156 63.0223 75.8983C64.5752 75.862 66.1287 75.7956 67.6835 75.7879C68.2403 75.7879 68.447 75.6442 68.4471 75.0418C68.596 68.4022 68.7679 61.7609 68.9637 55.1199C68.9827 54.4182 68.7288 54.2752 68.0975 54.2752C63.3063 54.2752 58.5161 54.2524 53.7274 54.2078C53.0026 54.2079 52.8192 54.4316 52.8192 55.1278C52.8192 57.0013 52.7654 58.8773 52.6776 60.7508C52.649 61.4011 52.7923 61.6569 53.494 61.6151C54.8867 61.533 56.2859 61.5407 57.6805 61.4949C58.5065 61.4683 59.2334 61.6385 59.4852 62.535C59.7139 63.3456 59.4144 63.9756 58.619 64.3114C58.276 64.4583 58.2259 64.7877 58.0887 65.0623C56.9783 67.308 55.8806 69.5617 54.7606 71.8035C54.6234 72.0765 54.5698 72.6482 54.1141 72.4139C53.7333 72.2231 54.1142 71.8414 54.2421 71.5897C55.2628 69.4758 56.2859 67.3614 57.3505 65.2703C57.6955 64.5915 57.5803 64.3927 56.8231 64.4422C55.7815 64.5126 54.5339 64.1741 53.7499 64.6434C53.0137 65.0861 52.7616 66.3447 52.3133 67.2528C51.5368 68.8153 50.7869 70.3865 50.0008 71.9491C49.8865 72.1781 49.8283 72.618 49.4491 72.4295C49.0701 72.2407 49.3841 71.924 49.493 71.6951C50.4889 69.6404 51.5021 67.5927 52.4999 65.5379C52.6467 65.2347 52.9008 64.9654 52.8514 64.6317H47.8124C47.3434 64.6318 47.2726 65.0129 47.1258 65.3143C46.088 67.4206 45.0549 69.5294 44.0272 71.6395C43.9299 71.8302 43.8226 72.0329 43.7216 72.2313C43.6205 72.4293 43.4847 72.5627 43.2753 72.4393C43.0657 72.3153 43.1438 72.1183 43.2391 71.9276C43.6741 71.0443 44.1029 70.1585 44.5341 69.2752C45.2686 67.7699 46.0054 66.2644 46.7743 64.6961C46.4292 64.694 46.0841 64.67 45.7421 64.6239C44.9639 64.4578 44.489 63.9503 44.5155 63.1551C44.5422 62.3597 44.9846 61.8192 45.8085 61.7694C46.915 61.695 48.0282 61.6648 49.1366 61.661C49.6189 61.6609 49.7929 61.5137 49.8007 61.0106C49.8293 59.0073 49.8809 57.0033 49.9706 55.0057C49.9991 54.3783 49.8117 54.1857 49.1844 54.1951C47.1228 54.2257 45.0605 54.2202 42.9989 54.1795C42.3427 54.1643 42.1421 54.344 42.1288 55.0174C42.0353 59.8787 41.8992 64.7478 41.7733 69.6014C41.7313 71.2536 41.7142 72.9083 41.6092 74.5623C41.5616 75.3348 41.7356 75.635 42.5633 75.5741C43.7632 75.4882 44.973 75.5146 46.1786 75.5184C47.142 75.5184 47.7546 76.0606 47.7889 76.8944C47.823 77.7278 47.234 78.3691 46.2938 78.3826C45.7445 78.3827 45.5168 78.655 45.2841 79.0594C44.1947 80.9577 43.0899 82.8485 41.9891 84.743C41.8938 84.907 41.7983 85.0759 41.701 85.2362C41.5695 85.4403 41.4467 85.7944 41.1571 85.6307C40.7896 85.4191 41.1146 85.131 41.2294 84.9022C41.401 84.5626 41.6118 84.24 41.8026 83.9119L44.9374 78.5155H41.245C40.8026 78.5156 40.6989 78.8975 40.5292 79.1912C39.4226 81.08 38.3208 82.9726 37.2245 84.869C37.1138 85.0597 36.9982 85.2515 36.8856 85.4422C36.7731 85.6327 36.6219 85.7466 36.4217 85.6209C36.2217 85.495 36.3166 85.2927 36.412 85.1287L38.1298 82.1619C38.7021 81.1737 39.2593 80.174 39.8583 79.203C40.2398 78.5848 39.9472 78.5353 39.4169 78.5487C38.0815 78.583 36.7456 78.6193 35.4198 78.5907C34.8477 78.5793 34.5786 78.831 34.3192 79.2869C33.2394 81.1948 32.1271 83.078 31.0262 84.9705C30.9253 85.1699 30.8088 85.3612 30.6786 85.5428C30.5775 85.6685 30.4019 85.7469 30.2684 85.6063C30.2334 85.5585 30.2101 85.5025 30.2001 85.4442C30.1902 85.3857 30.1935 85.3251 30.2108 85.2684C30.2994 85.0649 30.4054 84.8687 30.5262 84.6824C31.5602 82.9019 32.5959 81.1178 33.6337 79.3309C33.8435 78.9722 34.1009 78.7013 33.4696 78.4246C32.8384 78.1479 32.6021 77.5192 32.7889 76.8192C32.976 76.1194 33.4606 75.7593 34.1757 75.7401C35.4443 75.7057 36.7138 75.6709 37.9921 75.6785C38.5642 75.6785 38.7394 75.4876 38.7548 74.9022C38.9023 68.2626 39.0691 61.6221 39.2548 54.9813C39.2719 54.3347 39.0775 54.1797 38.4598 54.1834C35.0027 54.2038 31.5449 54.1983 28.0878 54.1678C27.5155 54.1678 27.3241 54.3119 27.3241 54.909C27.3088 56.9109 27.2562 58.9123 27.1659 60.9129C27.1354 61.5709 27.3018 61.8132 27.996 61.7713C29.3562 61.6874 30.7208 61.6628 32.0848 61.659C33.0387 61.6591 33.6459 62.2316 33.6688 63.0692C33.6915 63.9064 33.1913 64.4237 32.1786 64.5116C30.8717 64.6718 29.5586 64.5114 28.2499 64.5877C27.9676 64.5971 27.5782 64.3742 27.4598 64.8543C27.5341 65.2148 27.2696 65.4465 27.1132 65.7078C25.9265 67.7721 24.7293 69.8294 23.5223 71.8797C23.3755 72.1296 23.2641 72.6273 22.8925 72.4256C22.5209 72.2235 22.8791 71.8651 23.0204 71.619C24.1651 69.6099 25.3438 67.6115 26.5057 65.6063C26.6602 65.3411 26.7946 65.0641 26.9491 64.7703C25.2016 64.7703 23.5334 64.7799 21.8661 64.7703C21.4503 64.7704 21.3545 65.0613 21.1962 65.3436C19.9561 67.486 18.716 69.6286 17.455 71.7576C17.2871 72.0382 17.1966 72.669 16.7333 72.4041C16.364 72.1904 16.7966 71.7822 16.955 71.5057C18.0894 69.5242 19.2337 67.548 20.3885 65.578C20.6556 65.122 20.8466 64.8322 20.0321 64.8035C19.8405 64.8051 19.6497 64.7682 19.4725 64.6951C19.2955 64.622 19.1346 64.513 18.9999 64.3768C18.8652 64.2405 18.7594 64.0781 18.6883 63.9002C18.6173 63.7222 18.582 63.5314 18.5858 63.3397C18.5993 62.5404 19.2179 61.9451 20.1698 61.8992C21.2781 61.8477 22.3906 61.8245 23.5008 61.8416C24.0502 61.8511 24.2753 61.7233 24.2792 61.1092C24.2906 59.0755 24.3572 57.0413 24.4374 55.0037C24.4602 54.4315 24.3741 54.1515 23.6913 54.161C21.3447 54.1991 18.9958 54.1836 16.6493 54.1512C16.0772 54.1513 15.8866 54.3136 15.8866 54.8992C15.7378 61.6036 15.569 68.3075 15.3807 75.0106C15.3636 75.6304 15.572 75.7744 16.1327 75.744C17.241 75.6906 18.3535 75.6843 19.4618 75.6785C20.49 75.6786 21.1483 76.2034 21.1942 77.0408C21.2399 77.8783 20.6213 78.5252 19.6122 78.5672C19.128 78.5864 18.8869 78.7732 18.6581 79.1717C17.5744 81.0796 16.462 82.9617 15.3592 84.8543C15.2792 84.9915 15.2087 85.1349 15.1229 85.2664C14.9895 85.4668 14.8894 85.8059 14.5712 85.6307C14.2213 85.4401 14.5139 85.1769 14.621 84.9881C15.6474 83.2004 16.6914 81.4197 17.7274 79.6453C17.8991 79.3497 18.0497 79.0444 18.2538 78.6649H14.6805C14.1923 78.665 14.0579 79.0464 13.871 79.3631C12.8319 81.1436 11.7949 82.9244 10.7596 84.7049C10.649 84.8957 10.5381 85.0874 10.4217 85.2782C10.3055 85.469 10.1717 85.8032 9.86706 85.617C9.62893 85.4702 9.79836 85.2208 9.9071 85.0282C10.0158 84.8355 10.1246 84.6457 10.2352 84.4549C11.2253 82.7552 12.2054 81.0493 13.2089 79.3573C13.4836 78.8917 13.4724 78.6899 12.8544 78.7127C11.4293 78.7623 9.99244 78.7946 8.57311 78.7889C8.10218 78.789 7.91103 79.0366 7.71081 79.3817C6.65638 81.2107 5.59125 83.0433 4.51647 84.8787C4.40585 85.0695 4.29683 85.2603 4.17858 85.451C4.06042 85.6415 3.91743 85.7449 3.70983 85.6063C3.54043 85.4919 3.60631 85.3312 3.68249 85.1864C3.78548 84.9956 3.89517 84.8048 4.00768 84.6141C5.01125 82.8836 6.00826 81.1504 7.02136 79.4276C7.23306 79.0709 7.38786 78.8402 6.85436 78.577C6.16402 78.2393 5.98997 77.5659 6.21862 76.8602C6.44754 76.1543 6.98178 75.9058 7.69518 75.8924C9.05926 75.8771 10.4219 75.8044 11.786 75.7987C12.3105 75.7986 12.4864 75.6323 12.4979 75.0926C12.662 68.2001 12.8387 61.3054 13.0282 54.409C13.0649 54.0615 12.9822 53.7112 12.7938 53.4168C12.6554 53.2374 12.5728 53.0199 12.5575 52.7938C12.5423 52.5678 12.5949 52.3417 12.7079 52.1453C13.1139 51.5255 13.0397 50.8766 13.0301 50.2205C12.9538 44.1152 12.8752 38.0135 12.7938 31.9158C12.8113 31.7253 12.8051 31.5328 12.7762 31.3436C12.1639 29.1725 13.2568 27.6378 14.5331 26.0448C17.7479 22.0382 20.8524 17.9284 23.9833 13.8455C24.1725 13.5731 24.4283 13.3524 24.7255 13.2049C25.0225 13.0576 25.3522 12.9877 25.6835 13.0018ZM43.0653 51.3231C45.3624 51.3231 47.4157 51.3097 49.4686 51.3231C49.8596 51.325 50.0408 51.2104 50.0409 50.7928V42.2967L43.0653 51.3231ZM28.4393 38.5858C27.9223 38.5705 27.7106 38.6872 27.701 39.2596C27.6362 43.0079 27.5508 46.7557 27.4452 50.5028C27.4281 51.0692 27.5768 51.2849 28.1776 51.285C31.6335 51.2659 35.0905 51.2754 38.5477 51.3123C39.1578 51.318 39.2896 51.0983 39.2801 50.536C39.2496 48.7292 39.2684 46.9139 39.2684 45.1033L39.1219 45.1092C39.1219 43.2624 39.0952 41.419 39.1219 39.576C39.1295 39.0439 38.9595 38.8534 38.4237 38.8533C35.095 38.7821 31.7667 38.6926 28.4393 38.5858ZM17.1805 51.2586C19.6244 51.2586 21.7956 51.2471 23.9686 51.2567C24.5694 51.268 24.507 50.8745 24.5165 50.493C24.5877 47.7381 24.6571 44.9818 24.7245 42.2244C24.7283 42.0795 24.7621 41.9006 24.4803 41.828L17.1805 51.2586ZM53.9842 38.7078C53.305 38.6907 53.2135 38.9714 53.204 39.5438C53.1448 43.0066 53.0782 46.4696 52.9637 49.9305C52.939 50.64 53.1295 50.8308 53.8446 50.8309C57.9334 50.8042 62.032 50.6826 66.1132 50.8944C68.4197 51.0203 69.9728 50.3617 71.4247 48.5399C73.905 45.4204 76.6756 42.5256 79.4383 39.4061C79.1389 39.3641 79.0185 39.3298 78.9003 39.326C70.5956 39.1352 62.2902 38.9292 53.9842 38.7078ZM16.5526 30.7C15.8144 30.6829 15.6633 30.9121 15.6766 31.6063C15.772 36.8798 15.8277 42.1521 15.8983 47.4256C15.9002 47.5724 15.9192 47.7194 15.9344 47.91C16.3387 47.7382 16.4803 47.4028 16.6825 47.1434C18.724 44.5155 20.7626 41.8793 22.7977 39.2362C23.3605 38.5038 24.1478 37.8756 23.9706 36.7713C23.966 36.6757 23.9843 36.5804 24.0233 36.493C24.0624 36.4055 24.1217 36.3278 24.1962 36.2674C25.0007 35.7447 24.8105 34.9587 24.8104 34.2186C24.8066 33.3639 24.7468 32.501 24.7831 31.6463C24.8116 30.956 24.6054 30.714 23.8749 30.7254C21.4316 30.7661 18.9908 30.7573 16.5526 30.7ZM42.5087 38.9334C42.1519 38.9315 41.9989 39.0516 41.9989 39.4237V47.4559L42.3192 47.5213C44.4472 44.7688 46.578 42.0167 48.7098 39.2655L48.6327 38.9334H42.5087ZM49.9764 19.5955C49.8832 19.6701 49.7961 19.7525 49.7167 19.8416C47.23 23.0546 44.7427 26.2662 42.2548 29.4754C42.0266 29.7412 41.8997 30.0793 41.8964 30.4295C41.9173 32.1121 41.9454 33.7968 41.955 35.4793C41.9569 35.8741 42.0813 36.0525 42.4989 36.0526C44.9398 36.0984 47.3806 36.1568 49.8202 36.2293C50.2586 36.2406 50.3465 36.0384 50.3466 35.6571V19.659L49.9764 19.5955ZM28.3895 30.7596C27.8707 30.752 27.6479 30.8759 27.6688 31.4481C27.7121 32.6526 27.7213 33.8585 27.6971 35.0643C27.6859 35.5885 27.9094 35.6951 28.371 35.6951C31.6944 35.7562 35.0182 35.8274 38.3397 35.9285C38.9538 35.9456 39.093 35.71 39.0682 35.1532C39.0129 33.9495 38.9806 32.7435 38.9921 31.5379C38.9978 30.9829 38.7803 30.8476 38.2655 30.8475C36.619 30.8704 34.9716 30.8573 33.327 30.8573V30.7694C31.6806 30.7694 30.034 30.7844 28.3895 30.7596ZM28.1874 15.9403C27.5541 15.9365 27.4659 16.1982 27.4755 16.7342C27.5346 20.1644 27.5822 23.5873 27.5956 27.0213C27.5994 27.6677 27.7675 27.8815 28.4423 27.8817C31.9592 27.8689 35.4778 27.8864 38.996 27.9334C39.6176 27.9409 39.9781 27.7063 40.3309 27.2391C41.8057 25.2911 43.3156 23.3701 44.8094 21.4393C46.1449 19.7127 47.4762 17.9834 48.8671 16.1805C48.7602 16.1329 48.6484 16.0966 48.5341 16.0721C41.7515 16.0301 34.97 15.9994 28.1874 15.9403ZM17.0048 27.6473C17.1496 27.7274 17.2243 27.8074 17.2967 27.8074C19.5747 27.8265 21.8528 27.823 24.1288 27.8612C24.7314 27.8706 24.6825 27.5177 24.6825 27.1248C24.6596 24.684 24.6377 22.2424 24.6161 19.8016V18.1492L24.3846 18.1073C21.933 21.2801 19.4851 24.4496 17.0048 27.6473Z" fill="black"/>
</g>
<defs>
<radialGradient id="paint0_radial_2002_18" cx="0" cy="0" r="1" gradientUnits="userSpaceOnUse" gradientTransform="translate(47.5 47.5) rotate(90) scale(47.5 47.5)">
<stop offset="0.4" stop-color="white"/>
<stop offset="1" stop-color="white" stop-opacity="0.5"/>
</radialGradient>
<clipPath id="clip0_2002_18">
<rect width="95" height="95" fill="white"/>
</clipPath>
</defs>
</svg>
