<svg width="95" height="95" viewBox="0 0 95 95" fill="none" xmlns="http://www.w3.org/2000/svg">
<g clip-path="url(#clip0_1966_59)">
<circle cx="47.5" cy="47.5" r="47.5" fill="url(#paint0_radial_1966_59)"/>
<path d="M52.2644 15.0125C53.8889 14.9418 55.2485 15.1723 56.7983 15.6527C57.0269 15.7207 57.2556 15.7884 57.4843 15.8558C57.9766 16.0015 58.4681 16.1493 58.9592 16.2989C59.7498 16.5398 60.5418 16.7757 61.3341 17.011C62.341 17.3104 63.3475 17.611 64.3536 17.9129C67.3835 18.8219 70.4197 19.7096 73.4555 20.5988C74.6402 20.9458 75.8247 21.2937 77.009 21.642C77.4896 21.7833 77.9702 21.9246 78.4508 22.0658C78.7609 22.157 79.0709 22.2482 79.3809 22.3394C80.8794 22.7806 82.3783 23.219 83.8831 23.6382C83.997 23.6701 84.1109 23.7019 84.2282 23.7348C84.745 23.8794 85.262 24.0225 85.78 24.1628C85.9549 24.2115 86.1299 24.2602 86.3101 24.3103C86.4597 24.351 86.6092 24.3918 86.7633 24.4337C87.2256 24.6064 87.494 24.7428 87.8444 25.0944C87.9136 25.62 87.9136 25.62 87.8917 26.2752C87.8888 26.3953 87.8858 26.5155 87.8828 26.6392C87.8761 26.8993 87.8679 27.1593 87.8585 27.4193C87.8445 27.8194 87.8356 28.2193 87.8286 28.6195C87.8126 29.5044 87.7908 30.389 87.7688 31.2738C87.7606 31.6114 87.7525 31.9491 87.7444 32.2867C87.7225 33.1956 87.7002 34.1044 87.6778 35.0132C87.659 35.7749 87.6404 36.5366 87.6219 37.2982C87.578 39.096 87.5338 40.8937 87.4894 42.6914C87.4437 44.5403 87.3986 46.3893 87.3539 48.2384C87.3154 49.832 87.2764 51.4256 87.237 53.0192C87.2136 53.9683 87.1903 54.9175 87.1675 55.8666C87.146 56.759 87.124 57.6514 87.1016 58.5437C87.0935 58.8695 87.0856 59.1952 87.0779 59.521C87.0577 60.3716 87.034 61.2219 87.0037 62.0722C86.9957 62.3203 86.9892 62.5684 86.9844 62.8165C86.9778 63.1521 86.9658 63.4875 86.9534 63.8229C86.9484 64.0078 86.9433 64.1928 86.9381 64.3833C86.821 64.8359 86.821 64.8359 86.4101 65.152C85.7652 65.4374 85.3022 65.3831 84.6036 65.3476C84.5735 58.2562 84.6382 51.1668 84.7196 44.0759C84.7353 42.6942 84.7477 41.3126 84.759 39.9309C84.7681 38.8891 84.7827 37.8476 84.8009 36.8059C84.8121 36.1235 84.8198 35.4411 84.8267 34.7586C84.8307 34.4379 84.8363 34.1171 84.8434 33.7965C84.8531 33.3557 84.8574 32.9151 84.8605 32.4743C84.8646 32.3457 84.8687 32.2172 84.873 32.0847C84.8713 31.1016 84.5861 30.7095 83.9214 30.0408C83.1105 30.3721 82.5242 30.9939 81.9111 31.5997C81.2379 32.2614 80.5495 32.8818 79.8129 33.471C77.8137 35.0865 75.7759 36.7668 75.4411 39.4451C75.3174 40.8877 75.3743 42.3339 75.4392 43.7779C75.47 44.5899 75.472 45.402 75.4761 46.2145C75.4832 47.2611 75.4929 48.3075 75.5141 49.3539C75.5698 52.129 75.5474 54.898 75.4898 57.6729C75.4833 57.9855 75.4833 57.9855 75.4767 58.3044C75.4592 59.1444 75.4412 59.9843 75.4226 60.8242C75.383 62.6174 75.3511 64.4107 75.3212 66.204C75.3087 66.949 75.2952 67.694 75.2808 68.439C75.2495 70.0576 75.2205 71.6758 75.2089 73.2947C75.2035 73.9852 75.1949 74.6756 75.1858 75.3661C75.1824 75.6888 75.1804 76.0115 75.1801 76.3341C75.1795 76.7742 75.1739 77.214 75.167 77.654C75.1682 77.7832 75.1694 77.9125 75.1706 78.0457C75.1566 78.6272 75.1279 78.9188 74.7037 79.3323C74.2367 79.4917 73.9668 79.5232 73.4854 79.5152C73.2707 79.5117 73.0559 79.5081 72.8347 79.5045C72.8355 79.3193 72.8364 79.1341 72.8373 78.9433C72.8576 74.4317 72.867 69.9203 72.8652 65.4087C72.8645 63.2269 72.8674 61.0452 72.8785 58.8635C72.8882 56.9612 72.8913 55.0591 72.8865 53.1569C72.8842 52.1501 72.8852 51.1436 72.8941 50.1369C72.9023 49.188 72.9017 48.2395 72.8945 47.2906C72.8934 46.9436 72.8954 46.5966 72.901 46.2496C72.9265 44.5487 72.9325 43.2113 71.7544 41.8947C71.4403 41.5723 71.1156 41.2659 70.7879 40.9569C70.1057 40.169 70.1057 40.169 70.1057 39.7629C69.99 39.7654 69.8743 39.7679 69.7551 39.7704C68.6578 39.7836 67.6117 39.7124 66.5273 39.5509C66.2859 39.5166 66.2859 39.5166 66.0396 39.4816C65.5037 39.4051 64.9681 39.3268 64.4324 39.2486C64.0431 39.1927 63.6538 39.137 63.2644 39.0814C62.4231 38.9611 61.5818 38.8399 60.7407 38.7182C59.3999 38.5242 58.0588 38.332 56.7177 38.1403C56.6034 38.124 56.4892 38.1076 56.3714 38.0908C55.7829 38.0067 55.1944 37.9226 54.6058 37.8386C54.1216 37.7694 53.6374 37.7002 53.1532 37.631C47.1158 36.7672 41.0748 35.9288 35.0336 35.0917C34.1994 34.9762 33.3652 34.8605 32.5311 34.7448C29.4209 34.3135 26.3107 33.8825 23.2004 33.4521C23.2567 33.5646 23.313 33.6772 23.371 33.7932C23.3966 34.0377 23.4127 34.2833 23.4239 34.5289C23.4313 34.6835 23.4387 34.8381 23.4463 34.9973C23.4537 35.1675 23.4611 35.3377 23.4686 35.513C23.477 35.692 23.4853 35.8709 23.4939 36.0553C23.5215 36.6509 23.5479 37.2465 23.5742 37.8421C23.593 38.2575 23.6119 38.6729 23.6308 39.0883C23.6705 39.9625 23.7095 40.8368 23.7482 41.7111C23.7974 42.822 23.848 43.9329 23.8991 45.0438C23.9384 45.9041 23.977 46.7645 24.0154 47.6248C24.0337 48.0337 24.0523 48.4425 24.0711 48.8513C24.1223 49.9687 24.1689 51.086 24.2061 52.2039C24.218 52.5537 24.231 52.9034 24.2451 53.253C24.2641 53.7498 24.2771 54.2464 24.2884 54.7434C24.2949 54.8899 24.3013 55.0364 24.308 55.1874C24.3179 55.9351 24.3033 56.2101 23.8147 56.8106C23.6683 56.926 23.5219 57.0415 23.371 57.1605C23.2584 57.2731 23.1459 57.3857 23.0299 57.5017C22.4319 57.4398 21.963 57.1866 21.4948 56.8194C21.3956 56.3816 21.3602 56.0479 21.3549 55.6061C21.3499 55.4763 21.3449 55.3465 21.3398 55.2128C21.3236 54.764 21.3133 54.3154 21.3029 53.8665C21.2923 53.5417 21.2813 53.217 21.27 52.8922C21.2437 52.1206 21.2201 51.3488 21.1976 50.577C21.1519 49.0241 21.095 47.4715 21.0384 45.9188C20.9425 43.2854 20.8478 40.652 20.7575 38.0184C20.7472 37.7191 20.7368 37.4198 20.7264 37.1205C20.7118 36.7052 20.6976 36.2898 20.6835 35.8744C20.6793 35.7548 20.675 35.6352 20.6706 35.512C20.6421 34.6544 20.6387 33.7984 20.642 32.9404C20.5144 32.9342 20.3868 32.9281 20.2553 32.9218C18.1123 32.7954 15.9989 32.4697 13.8759 32.1614C13.3753 32.089 12.8745 32.0182 12.3736 31.9476C12.2204 31.9249 12.0673 31.9022 11.9095 31.8787C11.767 31.8588 11.6245 31.8388 11.4777 31.8183C11.3531 31.8002 11.2285 31.7822 11.1001 31.7636C10.5904 31.7386 10.2057 31.7933 9.81999 32.1372C9.74605 32.2281 9.67211 32.319 9.59592 32.4127C9.51424 32.5114 9.43256 32.6101 9.3484 32.7118C9.2654 32.8154 9.1824 32.919 9.09689 33.0256C8.92922 33.23 8.76154 33.4343 8.59385 33.6386C8.46083 33.8022 8.32781 33.9658 8.19076 34.1343C8.13448 34.1906 8.07819 34.2469 8.0202 34.3049C7.99938 34.8371 7.99175 35.364 7.99321 35.8964C7.99355 36.0695 7.9939 36.2425 7.99425 36.4208C8.01161 38.9133 8.14304 41.4026 8.26129 43.8918C8.2955 44.6169 8.32854 45.342 8.36168 46.0671C8.43867 47.7476 8.51693 49.428 8.59541 51.1084C8.69538 53.2496 8.79492 55.3908 8.89294 57.5321C8.92583 58.2499 8.95905 58.9677 8.99303 59.6855C9.07426 61.402 9.15001 63.1186 9.21415 64.8359C9.22137 65.0199 9.2286 65.2038 9.23604 65.3933C9.25261 65.856 9.26426 66.3184 9.27311 66.7813C9.27785 66.9062 9.28258 67.0312 9.28746 67.16C9.29181 67.7529 9.23387 68.048 8.89332 68.5419C8.55949 68.8506 8.2562 69.07 7.84963 69.2706C6.677 68.8015 6.677 68.8015 6.48512 68.4178C6.27189 66.5255 6.25178 64.6044 6.18559 62.7025C6.17384 62.3739 6.16205 62.0452 6.15023 61.7165C6.11846 60.8302 6.08724 59.9438 6.05617 59.0574C6.03005 58.3136 6.00367 57.5699 5.97729 56.8262C5.91499 55.0689 5.85314 53.3115 5.79158 51.5541C5.72839 49.7507 5.6644 47.9473 5.60002 46.1438C5.54449 44.5876 5.48948 43.0314 5.43488 41.4751C5.40238 40.5491 5.3697 39.6232 5.3365 38.6973C5.30525 37.8248 5.27465 36.9523 5.24452 36.0798C5.23347 35.7629 5.22221 35.4459 5.21069 35.129C5.17936 34.2649 5.154 33.401 5.13403 32.5366C5.11944 32.0488 5.09532 31.5619 5.0715 31.0745C5.06014 30.7367 5.04904 30.3989 5.03821 30.0611C5.02359 29.8268 5.0236 29.8268 5.00868 29.5877C4.98439 28.514 4.98439 28.514 5.38125 27.9929C5.91548 27.4994 6.48627 27.0994 7.13556 26.7697C8.09336 26.2584 8.97964 25.661 9.87908 25.0544C10.2027 24.8413 10.5268 24.6288 10.8512 24.4168C11.0132 24.3108 11.1753 24.2048 11.3423 24.0956C11.5054 23.989 11.6685 23.8824 11.8366 23.7725C14.4681 22.0631 14.4681 22.0631 17.0265 20.2476C17.386 19.9885 17.7509 19.7568 18.1321 19.5311C18.24 19.4662 18.3478 19.4013 18.4589 19.3345C18.6745 19.2065 18.8923 19.0822 19.1119 18.9614C19.6204 18.6477 19.9096 18.4392 20.0858 17.8507C20.1113 17.6981 20.1369 17.5455 20.1632 17.3883C20.2036 17.1575 20.2036 17.1575 20.2447 16.922C20.2725 16.7459 20.2725 16.7459 20.3008 16.5662C26.9669 16.207 33.6339 15.8744 40.3023 15.5618C41.2813 15.5159 42.2603 15.4693 43.2393 15.4225C44.205 15.3765 45.1707 15.3309 46.1363 15.2856C46.7038 15.259 47.2712 15.2322 47.8387 15.205C49.0183 15.1485 50.198 15.095 51.3781 15.0496C51.6735 15.0381 51.969 15.0259 52.2644 15.0125ZM52.1981 15.4229C52.0801 15.4283 51.9621 15.4338 51.8406 15.4394C51.4461 15.4577 51.0517 15.4762 50.6573 15.4948C50.374 15.508 50.0906 15.5211 49.8073 15.5343C49.0374 15.5701 48.2676 15.6061 47.4978 15.6421C46.6891 15.68 45.8804 15.7176 45.0717 15.7553C43.7106 15.8187 42.3496 15.8822 40.9886 15.9458C39.0809 16.035 37.1732 16.124 35.2654 16.2129C27.8683 16.5567 27.8683 16.5567 20.4714 16.9073C20.4714 17.245 20.4714 17.5827 20.4714 17.9307C20.5805 17.8709 20.6895 17.8111 20.8019 17.7495C21.5192 17.5299 22.1284 17.6423 22.8593 17.7601C22.9156 18.1541 22.9719 18.5481 23.0299 18.9541C22.861 19.0104 22.6922 19.0667 22.5182 19.1246C23.003 19.3929 23.003 19.3929 23.5416 19.4658C23.3576 19.6833 23.1727 19.8998 22.9872 20.116C22.8843 20.2368 22.7814 20.3575 22.6754 20.4818C22.3606 20.8165 22.0407 21.0787 21.6654 21.342C21.6654 20.8354 21.6654 20.3288 21.6654 19.8069C21.3276 19.9758 20.9899 20.1446 20.642 20.3186C20.6144 22.5973 20.6991 24.8654 20.8125 27.1412C21.094 27.1412 21.3754 27.1412 21.6654 27.1412C21.6654 25.5089 21.6654 23.8766 21.6654 22.1948C21.7779 22.1948 21.8905 22.1948 22.0065 22.1948C22.0056 22.2901 22.0047 22.3854 22.0038 22.4836C22.0002 22.9239 21.998 23.3642 21.9958 23.8045C21.9944 23.9543 21.993 24.1042 21.9915 24.2586C21.9879 25.2339 22.0521 26.1737 22.177 27.1412C22.2896 27.1412 22.4022 27.1412 22.5182 27.1412C22.5142 26.9541 22.5142 26.9541 22.5101 26.7633C22.4994 26.1963 22.4928 25.6294 22.4862 25.0624C22.4798 24.7681 22.4798 24.7681 22.4732 24.4678C22.4716 24.2781 22.4699 24.0885 22.4682 23.8931C22.4642 23.6319 22.4642 23.6319 22.4601 23.3653C22.5536 22.5789 22.9787 22.0491 23.4903 21.4679C23.5733 21.3722 23.6563 21.2764 23.7418 21.1777C23.9158 20.9795 24.0899 20.7814 24.2641 20.5834C24.7458 20.0955 24.7458 20.0955 24.9061 19.4658C25.0912 19.5042 25.2763 19.5427 25.4671 19.5824C26.789 19.8786 26.789 19.8786 28.0442 19.5757C28.399 19.156 28.6585 18.8329 28.6585 18.2718C29.4238 18.9308 30.1726 19.5933 30.8758 20.3186C31.0447 20.2623 31.2135 20.206 31.3875 20.148C31.3033 20.0555 31.2191 19.9629 31.1323 19.8675C31.0231 19.7455 30.9138 19.6235 30.8012 19.4978C30.6924 19.377 30.5835 19.2563 30.4714 19.132C30.1936 18.7835 30.1936 18.7835 30.023 18.2718C31.3176 18.2718 32.6122 18.2718 33.946 18.2718C32.9226 19.4658 32.9226 19.4658 32.5175 19.8602C32.2009 20.1224 32.2009 20.1224 32.2403 20.4892C32.4655 20.4892 32.6906 20.4892 32.9226 20.4892C32.9226 20.3766 32.9226 20.264 32.9226 20.148C33.0167 20.108 33.1108 20.068 33.2078 20.0268C33.7061 19.7509 34.0817 19.4036 34.5003 19.018C34.7286 18.8089 34.7286 18.8089 34.9614 18.5956C35.0766 18.4888 35.1918 18.3819 35.3105 18.2718C35.8958 18.596 36.3214 18.9097 36.7496 19.4231C36.853 19.5421 36.9563 19.661 37.0628 19.7836C37.3573 20.148 37.3573 20.148 37.5771 20.4965C37.9764 21.0905 38.2368 21.3058 38.9457 21.4839C39.5885 21.5555 40.1281 21.6114 40.7686 21.5125C41.2192 21.1591 41.2192 21.1591 41.6214 20.6597C41.8098 20.4644 41.9998 20.2706 42.191 20.0781C42.3416 19.9252 42.3416 19.9252 42.4952 19.7693C42.5973 19.6656 42.6995 19.5619 42.8047 19.4551C42.9062 19.3508 43.0076 19.2465 43.1122 19.139C43.7137 18.5309 44.3027 18.0365 45.0327 17.5896C45.5202 18.0721 46.0068 18.5556 46.4931 19.0394C46.6978 19.2419 46.6978 19.2419 46.9066 19.4484C49.3612 21.893 49.3612 21.893 49.6379 22.8771C49.9756 22.8771 50.3134 22.8771 50.6613 22.8771C50.014 21.9455 49.2955 21.1497 48.4846 20.3579C47.9275 19.8028 47.4168 19.2129 46.9089 18.6129C46.7786 18.4612 46.7786 18.4612 46.6457 18.3065C46.0561 17.6128 46.0561 17.6128 46.0561 17.419C49.5177 17.2501 49.5177 17.2501 53.0492 17.0779C53.0492 19.1042 53.0492 21.1305 53.0492 23.2182C53.3306 23.2745 53.6121 23.3308 53.902 23.3888C53.8457 21.3062 53.7895 19.2236 53.7315 17.0779C57.1931 18.2599 57.1931 18.2599 60.7246 19.4658C60.5413 20.0157 60.4388 20.1195 60.0104 20.4785C59.8894 20.5812 59.7685 20.6839 59.6439 20.7896C59.494 20.9156 59.344 21.0416 59.1895 21.1714C58.8809 21.4342 58.5728 21.6977 58.2649 21.9613C58.0524 22.1432 57.8397 22.3247 57.6267 22.5059C57.5274 22.5906 57.4282 22.6752 57.326 22.7625C57.2373 22.8379 57.1486 22.9134 57.0573 22.9912C56.7908 23.2278 56.5395 23.4755 56.2899 23.7299C56.7965 23.8143 56.7965 23.8143 57.3133 23.9004C57.3802 23.7745 57.447 23.6485 57.5159 23.5187C57.8539 23.0037 58.1921 22.7097 58.6778 22.3334C59.2089 21.9157 59.7263 21.498 60.2116 21.0282C60.294 20.9489 60.3765 20.8697 60.4614 20.7881C60.6925 20.5636 60.9212 20.3365 61.1497 20.1094C61.5774 19.8069 61.5774 19.8069 62.0158 19.7956C62.5523 20.031 62.762 20.3081 63.1125 20.777C63.8392 21.7133 64.6209 22.5733 65.4421 23.4275C66.2871 24.318 66.2871 24.318 66.5238 24.9238C66.2424 24.9238 65.9609 24.9238 65.671 24.9238C65.671 24.9801 65.671 25.0364 65.671 25.0944C66.0511 25.152 66.4313 25.2087 66.8116 25.265C67.0234 25.2966 67.2351 25.3283 67.4532 25.3609C68.1825 25.4577 68.1825 25.4577 68.9117 25.4355C69.1736 25.2269 69.1736 25.2269 69.3701 24.9238C70.0078 24.1117 70.7803 23.4473 71.6407 22.8771C72.1524 22.8771 72.1524 22.8771 72.4216 23.1276C72.5157 23.2419 72.6098 23.3562 72.7068 23.474C72.8101 23.5976 72.9134 23.7212 73.0199 23.8485C73.1276 23.9782 73.2354 24.1079 73.3464 24.2416C73.5661 24.4908 73.7864 24.7396 74.0073 24.9878C74.2911 25.3072 74.5199 25.5652 74.7109 25.9472C74.148 25.9472 73.5852 25.9472 73.0053 25.9472C73.0053 26.0035 73.0053 26.0598 73.0053 26.1178C73.1094 26.132 73.2136 26.1462 73.321 26.1608C74.4086 26.3092 75.496 26.4588 76.5833 26.6092C76.9887 26.665 77.3942 26.7206 77.7998 26.7759C78.3837 26.8555 78.9675 26.9363 79.5513 27.0172C79.7317 27.0416 79.9121 27.066 80.0979 27.0911C81.0022 27.2176 81.8577 27.3731 82.7274 27.6529C82.8736 27.4987 83.0199 27.3446 83.1705 27.1858C83.3674 26.9825 83.5644 26.7793 83.7615 26.5762C83.9051 26.424 83.9051 26.424 84.0516 26.2687C84.703 25.6024 85.2586 25.2344 86.1387 24.9238C85.5299 24.5854 84.8881 24.3958 84.2231 24.2019C84.0988 24.165 83.9745 24.1282 83.8464 24.0903C83.4305 23.9673 83.0143 23.8453 82.5982 23.7232C82.3007 23.6355 82.0031 23.5477 81.7057 23.4598C80.8996 23.2219 80.0933 22.9849 79.287 22.748C78.6147 22.5504 77.9426 22.3523 77.2706 22.1542C71.9511 20.5862 66.629 19.0269 61.3054 17.473C60.7392 17.3077 60.173 17.1423 59.6068 16.9769C59.2248 16.8653 58.8428 16.754 58.4608 16.6426C58.2265 16.5742 57.9922 16.5058 57.7579 16.4373C57.6472 16.4051 57.5364 16.3729 57.4223 16.3396C56.5145 16.074 55.6138 15.7876 54.7149 15.4931C53.8876 15.2811 53.0459 15.3833 52.1981 15.4229ZM48.913 17.5043C48.695 17.5165 48.695 17.5165 48.4726 17.5289C48.1219 17.5486 47.7712 17.569 47.4206 17.5896C48.1345 18.4316 48.8651 19.2529 49.6178 20.0606C50.1832 20.6704 50.7078 21.2999 51.2023 21.9683C51.6109 22.3118 51.6109 22.3118 52.7081 22.1948C52.7081 20.6188 52.7081 19.0428 52.7081 17.419C51.4338 17.419 50.1817 17.4292 48.913 17.5043ZM54.0726 17.5896C54.0726 18.7716 54.0726 19.9536 54.0726 21.1714C54.1289 21.1714 54.1852 21.1714 54.2432 21.1714C54.2432 19.9894 54.2432 18.8074 54.2432 17.5896C54.1869 17.5896 54.1306 17.5896 54.0726 17.5896ZM21.0044 18.0053C20.4862 18.6302 20.5757 19.0116 20.642 19.8069C21.4387 19.5413 22.0213 19.1102 22.6887 18.6129C22.6325 18.3878 22.5762 18.1627 22.5182 17.9307C21.8883 17.7549 21.5989 17.7081 21.0044 18.0053ZM46.7383 17.7601C46.8509 17.8727 46.9635 17.9853 47.0795 18.1013C47.0795 17.9887 47.0795 17.8761 47.0795 17.7601C46.9669 17.7601 46.8543 17.7601 46.7383 17.7601ZM54.7549 17.7601C54.7549 19.3361 54.7549 20.9122 54.7549 22.5359C56.0742 22.8593 56.0742 22.8593 57.3103 22.493C57.6565 22.1949 57.976 21.883 58.2941 21.5552C58.4042 21.447 58.5144 21.3388 58.6279 21.2274C58.9321 20.9275 59.2319 20.6239 59.5307 20.3186C59.7581 20.0912 59.9855 19.8638 60.2129 19.6363C59.0015 19.1302 57.7776 18.7044 56.5245 18.3145C55.9405 18.1315 55.3565 17.9486 54.7549 17.7601ZM44.8621 17.9307C44.7262 18.0685 44.5904 18.2064 44.4504 18.3484C44.2678 18.5326 44.0853 18.7167 43.9027 18.9008C43.8136 18.9913 43.7246 19.0817 43.6329 19.1749C43.1834 19.6272 42.7297 20.057 42.2357 20.4605C42.0893 20.5825 41.9428 20.7046 41.792 20.8303C41.792 20.8866 41.792 20.9429 41.792 21.0009C45.1691 21.423 45.1691 21.423 48.6145 21.8537C47.9662 21.0973 47.3458 20.3947 46.6424 19.7003C46.4874 19.5468 46.3324 19.3934 46.1727 19.2352C46.0216 19.0862 45.8706 18.9371 45.7149 18.7835C45.4302 18.4997 45.1461 18.2152 44.8621 17.9307ZM30.5347 18.6129C30.6968 18.8413 30.8606 19.0685 31.0251 19.2952C31.1161 19.4219 31.2071 19.5485 31.3009 19.679C31.3858 19.7775 31.4706 19.876 31.5581 19.9775C31.6707 19.9775 31.7832 19.9775 31.8992 19.9775C31.7975 19.4076 31.6211 19.032 31.217 18.6129C30.9918 18.6129 30.7667 18.6129 30.5347 18.6129ZM31.7287 18.6129C31.8975 18.8944 32.0664 19.1758 32.2403 19.4658C32.5218 19.1843 32.8032 18.9029 33.0932 18.6129C32.6429 18.6129 32.1926 18.6129 31.7287 18.6129ZM35.0507 18.8621C34.841 19.0789 34.6313 19.2956 34.4217 19.5124C34.1166 19.8069 34.1166 19.8069 33.6049 20.148C33.6049 20.2606 33.6049 20.3732 33.6049 20.4892C34.0063 20.547 34.4078 20.6037 34.8095 20.6597C34.9775 20.6841 34.9775 20.6841 35.1489 20.709C35.8907 20.8113 36.6091 20.8459 37.3573 20.8303C36.9119 19.9394 36.2127 19.2741 35.4811 18.6129C35.271 18.5933 35.271 18.5933 35.0507 18.8621ZM19.2455 19.3112C17.4899 20.5995 15.6454 21.7617 13.8236 22.9531C11.4091 24.5259 11.4091 24.5259 9.06049 26.1942C8.40585 26.6782 7.72014 27.113 7.03745 27.5563C6.84848 27.6885 6.84848 27.6885 6.65568 27.8234C6.65568 27.8797 6.65568 27.936 6.65568 27.994C8.79713 28.1263 9.92366 27.5011 11.5796 26.2224C12.2027 25.7508 12.8522 25.3186 13.4996 24.8812C13.7711 24.6957 14.0425 24.51 14.3138 24.3242C14.936 23.8989 15.5589 23.4744 16.182 23.0503C16.3495 22.9362 16.517 22.8222 16.6896 22.7047C17.0136 22.4841 17.3377 22.2637 17.6618 22.0434C17.9547 21.8441 18.2469 21.6439 18.5385 21.4427C18.7921 21.2698 19.0484 21.1005 19.3078 20.9364C19.9352 20.543 19.9352 20.543 20.2469 19.8995C20.233 19.7669 20.2192 19.6343 20.2049 19.4978C20.1941 19.363 20.1833 19.2282 20.1722 19.0893C20.1584 18.9884 20.1445 18.8875 20.1303 18.7835C19.797 18.7835 19.4968 19.1216 19.2455 19.3112ZM28.5626 19.018C28.2797 19.2761 28.2797 19.2761 28.3174 19.6363C28.7677 19.6926 29.2179 19.7489 29.6819 19.8069C29.4595 19.4625 29.2319 19.1214 28.9996 18.7835C28.7912 18.7647 28.7912 18.7647 28.5626 19.018ZM47.7617 18.7835C47.9974 19.3311 48.2605 19.6448 48.7211 20.0201C48.8289 20.1089 48.9366 20.1978 49.0476 20.2893C49.1298 20.3552 49.2121 20.4212 49.2968 20.4892C49.0611 19.9416 48.798 19.6279 48.3374 19.2526C48.2296 19.1637 48.1219 19.0749 48.0109 18.9834C47.9287 18.9174 47.8464 18.8515 47.7617 18.7835ZM22.0065 19.4658C22.0065 19.8598 22.0065 20.2538 22.0065 20.6597C22.0628 20.6597 22.1191 20.6597 22.177 20.6597C22.177 20.2657 22.177 19.8717 22.177 19.4658C22.1208 19.4658 22.0645 19.4658 22.0065 19.4658ZM25.2472 19.8069C24.9391 20.1547 24.6386 20.5055 24.3411 20.8623C24.2581 20.9609 24.1751 21.0595 24.0896 21.1611C23.9251 21.357 23.7621 21.554 23.6006 21.7523C23.371 22.0242 23.371 22.0242 22.9672 22.422C22.5461 23.1101 22.6493 23.7138 22.7207 24.4974C22.7305 24.641 22.7403 24.7846 22.7504 24.9325C22.8012 25.6263 22.8903 26.2887 23.0299 26.9706C24.5521 27.0114 26.0534 26.8991 27.5689 26.7759C28.0116 26.74 28.4544 26.7052 28.8972 26.6707C30.155 26.5726 31.4126 26.473 32.67 26.3716C33.4429 26.3094 34.2159 26.2488 34.989 26.1891C35.2811 26.1663 35.5732 26.1428 35.8651 26.1187C38.1467 25.9306 40.1776 25.8986 42.3756 26.6415C42.6214 26.7214 42.6214 26.7214 42.8722 26.803C43.2243 26.9178 43.5761 27.0335 43.9275 27.1502C44.6875 27.4025 45.449 27.6497 46.2105 27.8973C46.6053 28.0258 47 28.1545 47.3946 28.2835C49.2708 28.8965 51.1537 29.487 53.0386 30.0728C53.7086 30.2814 54.3787 30.4902 55.0487 30.699C55.223 30.7533 55.3973 30.8076 55.5769 30.8636C57.1226 31.3452 58.6675 31.8294 60.2123 32.3141C60.4666 32.3939 60.7209 32.4736 60.9753 32.5534C61.9805 32.8688 62.9858 33.1842 63.991 33.4998C64.1093 33.5369 64.2275 33.574 64.3493 33.6123C64.5851 33.6863 64.8209 33.7604 65.0567 33.8344C65.6286 34.0139 66.2006 34.193 66.7728 34.3712C66.9947 34.4404 67.2166 34.5095 67.4384 34.5786C67.5466 34.6124 67.6548 34.6461 67.7663 34.6808C68.5277 34.9187 69.2866 35.1632 70.0452 35.4096C70.3526 35.508 70.3526 35.508 70.6662 35.6084C71.0508 35.7316 71.4348 35.8566 71.8181 35.9839C71.9876 36.0376 72.1571 36.0914 72.3317 36.1468C72.4791 36.1948 72.6264 36.2429 72.7782 36.2924C73.2667 36.3652 73.4509 36.2798 73.8581 36.0105C74.1644 35.7237 74.4621 35.4276 74.7535 35.1257C75.2946 34.5718 75.8372 34.029 76.4272 33.5267C77.1194 32.9364 77.7497 32.2919 78.3887 31.6451C78.8462 31.1935 79.3243 30.7763 79.8132 30.3592C80.4074 29.8273 80.9594 29.2535 81.5162 28.6829C81.8746 28.3351 81.8746 28.3351 82.2157 28.1646C82.2157 27.9957 82.2157 27.8268 82.2157 27.6529C77.4187 26.9843 72.6216 26.3163 67.8244 25.6487C67.6454 25.6238 67.4665 25.5989 67.2822 25.5733C56.9537 24.1361 46.6243 22.7053 36.2927 21.291C35.8843 21.2351 35.476 21.1792 35.0676 21.1233C33.4141 20.8968 31.7605 20.6705 30.1069 20.4446C29.7635 20.3976 29.4201 20.3506 29.0767 20.3037C28.4568 20.2189 27.8369 20.1342 27.2169 20.0497C27.0347 20.0247 26.8525 19.9998 26.6648 19.9741C26.5012 19.9518 26.3376 19.9295 26.169 19.9066C25.956 19.8775 25.956 19.8775 25.7386 19.8478C25.4435 19.8033 25.4435 19.8033 25.2472 19.8069ZM60.9485 20.8516C60.2595 21.4846 59.562 22.1015 58.8484 22.7065C59.3067 23.1648 59.6297 23.1441 60.2689 23.2302C60.5951 23.2747 60.5951 23.2747 60.9278 23.3201C61.0415 23.3349 61.1552 23.3496 61.2724 23.3649C61.6166 23.4096 61.9605 23.4566 62.3043 23.504C63.2636 23.6325 64.19 23.7488 65.1593 23.7299C65.0978 23.6584 65.0363 23.5869 64.9729 23.5133C64.5122 22.9771 64.0538 22.4392 63.6002 21.897C63.469 21.7411 63.469 21.7411 63.335 21.5822C63.1549 21.3683 62.9754 21.1537 62.7967 20.9386C62.5682 20.6686 62.3295 20.4074 62.0891 20.148C61.5525 20.148 61.3339 20.4939 60.9485 20.8516ZM18.7764 21.6298C18.5266 21.8038 18.2768 21.9777 18.0269 22.1515C17.8959 22.2429 17.7649 22.3344 17.63 22.4286C16.9808 22.8804 16.3274 23.3263 15.6743 23.7725C15.5422 23.863 15.41 23.9535 15.2739 24.0467C14.5068 24.5719 13.7381 25.0947 12.9679 25.6154C12.7973 25.731 12.6267 25.8466 12.451 25.9657C12.1183 26.191 11.7854 26.4159 11.4521 26.6403C11.301 26.7427 11.15 26.8451 10.9944 26.9506C10.8605 27.041 10.7266 27.1314 10.5887 27.2245C10.2669 27.4608 10.0037 27.7092 9.72584 27.994C11.9408 27.8923 14.1522 27.7636 16.3635 27.6013C16.836 27.5668 17.3085 27.5335 17.781 27.5003C18.0831 27.4784 18.3851 27.4564 18.6871 27.4343C18.8276 27.4246 18.9681 27.4148 19.1129 27.4047C19.8147 27.3656 19.8147 27.3656 20.4714 27.1412C20.5084 25.035 20.3975 22.9337 20.3008 20.8303C19.7043 20.8303 19.2509 21.2953 18.7764 21.6298ZM49.6379 20.8303C49.9079 21.5593 50.4064 21.8989 51.0024 22.3654C50.7324 21.6363 50.2339 21.2967 49.6379 20.8303ZM54.2432 22.7065C54.2432 22.8191 54.2432 22.9316 54.2432 23.0476C54.4683 22.9913 54.6935 22.9351 54.9254 22.8771C54.7003 22.8208 54.4751 22.7645 54.2432 22.7065ZM54.9254 23.0476C54.9254 23.1039 54.9254 23.1602 54.9254 23.2182C55.3757 23.2182 55.826 23.2182 56.2899 23.2182C56.2899 23.1619 56.2899 23.1056 56.2899 23.0476C55.8396 23.0476 55.3894 23.0476 54.9254 23.0476ZM58.1661 23.2182C58.1661 23.387 58.1661 23.5559 58.1661 23.7299C59.1768 23.8559 60.1877 23.9805 61.1987 24.1036C61.5427 24.1457 61.8867 24.1883 62.2306 24.2312C62.7245 24.2928 63.2187 24.353 63.7128 24.4128C63.8669 24.4323 64.0209 24.4519 64.1797 24.472C64.323 24.4891 64.4664 24.5062 64.6142 24.5238C64.7403 24.5393 64.8664 24.5548 64.9964 24.5708C65.3669 24.6035 65.3669 24.6035 65.8415 24.4121C65.0971 24.0647 64.3498 23.9544 63.5429 23.8511C63.4053 23.8327 63.2676 23.8143 63.1258 23.7952C62.836 23.7566 62.5461 23.7185 62.2562 23.6809C61.8121 23.6233 61.3683 23.5641 60.9245 23.5047C60.6425 23.4673 60.3604 23.43 60.0783 23.3928C59.9456 23.3752 59.8129 23.3576 59.6761 23.3395C59.1688 23.2739 58.6783 23.2182 58.1661 23.2182ZM71.6407 23.2182C71.4128 23.413 71.1855 23.6086 70.9585 23.8045C70.8318 23.9133 70.7052 24.0222 70.5747 24.1343C70.4762 24.226 70.3777 24.3177 70.2762 24.4121C70.2762 24.4684 70.2762 24.5247 70.2762 24.5827C70.6279 24.6404 70.9797 24.697 71.3316 24.7533C71.5275 24.7849 71.7234 24.8166 71.9252 24.8492C72.409 24.9127 72.8598 24.9385 73.3464 24.9238C73.1918 24.7023 73.035 24.4823 72.8773 24.2629C72.7903 24.1402 72.7032 24.0175 72.6135 23.8911C72.3102 23.5447 72.0625 23.3924 71.6407 23.2182ZM69.7645 24.9238C70.0736 25.3065 70.0736 25.3065 70.5121 25.2983C70.6664 25.2943 70.8208 25.2904 70.9798 25.2863C71.135 25.2832 71.2903 25.2801 71.4502 25.277C71.5694 25.273 71.6885 25.269 71.8113 25.265C71.8113 25.2087 71.8113 25.1524 71.8113 25.0944C71.1359 25.0381 70.4604 24.9818 69.7645 24.9238ZM86.821 25.0944C86.8632 25.4291 86.8632 25.4291 86.9063 25.7707C86.9063 26.5108 86.727 26.8391 86.224 27.3764C85.972 27.6183 85.716 27.8561 85.4565 28.0899C85.2612 28.2748 85.2612 28.2748 85.062 28.4634C84.7418 28.7655 84.4181 29.0628 84.0919 29.3585C84.1646 29.4302 84.2372 29.5019 84.3121 29.5757C85.2767 30.6609 85.2518 31.6309 85.2213 33.035C85.2198 33.2744 85.2189 33.5139 85.2183 33.7534C85.2154 34.4157 85.2061 35.0778 85.1958 35.7401C85.1859 36.4507 85.1819 37.1614 85.1773 37.8722C85.168 39.1674 85.1549 40.4626 85.1399 41.7577C85.1129 44.1117 85.0955 46.4657 85.0785 48.8197C85.0699 50.0139 85.061 51.208 85.0521 52.4021C85.0512 52.5203 85.0503 52.6384 85.0494 52.7602C85.0191 56.7855 84.982 60.8107 84.9448 64.8359C85.7617 64.8759 85.7617 64.8759 86.4798 64.4948C86.5654 64.0968 86.5654 64.0968 86.5635 63.6235C86.5691 63.4379 86.5748 63.2523 86.5806 63.0611C86.5842 62.8557 86.5879 62.6502 86.5917 62.4385C86.5976 62.2216 86.6034 62.0047 86.6094 61.7813C86.6257 61.178 86.6388 60.5747 86.6514 59.9713C86.6655 59.3233 86.6825 58.6754 86.6992 58.0275C86.7276 56.9064 86.7544 55.7853 86.78 54.6641C86.8172 53.0374 86.8579 51.4109 86.8996 49.7844C86.9858 46.4158 87.0681 43.0472 87.1494 39.6785C87.1879 38.0815 87.2268 36.4846 87.2657 34.8876C87.3453 31.6232 87.4244 28.3588 87.5032 25.0944C87.2781 25.0944 87.0529 25.0944 86.821 25.0944ZM71.9819 25.265C71.9819 25.3212 71.9819 25.3775 71.9819 25.4355C72.3759 25.4355 72.7699 25.4355 73.1758 25.4355C73.1758 25.3792 73.1758 25.323 73.1758 25.265C72.7818 25.265 72.3878 25.265 71.9819 25.265ZM84.3051 26.5229C84.2069 26.6258 84.1086 26.7287 84.0073 26.8347C83.8254 27.0255 83.6445 27.2174 83.4651 27.4106C83.2801 27.6089 83.0898 27.8022 82.898 27.994C83.3201 28.5006 83.3201 28.5006 83.7508 29.0174C84.4836 28.4121 85.1911 27.7823 85.8829 27.1305C86.0324 26.9913 86.1819 26.8522 86.3359 26.7088C86.7052 26.3115 86.7052 26.3115 86.6131 25.8093C86.5471 25.6243 86.5471 25.6243 86.4798 25.4355C85.3882 25.2668 84.9919 25.7746 84.3051 26.5229ZM71.8113 25.7767C71.8113 25.8329 71.8113 25.8892 71.8113 25.9472C72.2053 25.9472 72.5993 25.9472 73.0053 25.9472C73.0053 25.8909 73.0053 25.8346 73.0053 25.7767C72.6113 25.7767 72.2172 25.7767 71.8113 25.7767ZM38.7156 26.1415C38.5803 26.151 38.4449 26.1606 38.3055 26.1704C38.1585 26.1819 38.0116 26.1935 37.8602 26.2053C37.7043 26.2167 37.5484 26.228 37.3877 26.2397C36.8724 26.2775 36.3573 26.3169 35.8422 26.3563C35.4845 26.383 35.1268 26.4096 34.7692 26.4361C34.0198 26.4919 33.2705 26.5485 32.5213 26.6057C31.5593 26.679 30.5972 26.7507 29.635 26.8219C28.8967 26.8766 28.1583 26.9321 27.42 26.9878C27.0652 27.0145 26.7103 27.0411 26.3555 27.0674C25.8605 27.1042 25.3656 27.142 24.8707 27.1801C24.6492 27.1963 24.6492 27.1963 24.4233 27.2129C23.7036 27.2537 23.7036 27.2537 23.0299 27.4823C23.0299 27.82 23.0299 28.1577 23.0299 28.5057C23.7947 28.5099 24.5595 28.513 25.3243 28.5151C25.5844 28.5159 25.8445 28.5171 26.1045 28.5186C26.4788 28.5206 26.8531 28.5216 27.2274 28.5223C27.4524 28.5232 27.6775 28.5241 27.9094 28.5251C28.3702 28.5096 28.7353 28.4748 29.1702 28.3351C28.7396 29.1617 28.1417 29.7555 27.4859 30.4032C27.3814 30.509 27.277 30.6147 27.1694 30.7237C25.7997 32.0875 25.7997 32.0875 24.7355 32.0875C24.3764 31.6771 24.3764 31.6771 24.0213 31.1494C23.8072 30.8349 23.5911 30.5217 23.371 30.2113C23.3147 30.2113 23.2584 30.2113 23.2004 30.2113C23.1412 30.9223 23.2607 31.2047 23.7121 31.7464C23.7684 31.9153 23.8247 32.0841 23.8827 32.2581C23.6575 32.2018 23.4324 32.1455 23.2004 32.0875C23.2004 32.369 23.2004 32.6504 23.2004 32.9404C25.2735 33.3219 27.3504 33.6414 29.4383 33.9296C29.7624 33.9748 30.0864 34.0199 30.4105 34.0652C31.2837 34.1869 32.1571 34.308 33.0304 34.429C33.9563 34.5574 34.8821 34.6863 35.8079 34.8152C37.368 35.0323 38.9282 35.2491 40.4884 35.4655C42.6563 35.7663 44.8242 36.0677 46.992 36.3693C48.7068 36.6079 50.4216 36.8462 52.1364 37.0845C52.3139 37.1092 52.4913 37.1339 52.6741 37.1593C53.7119 37.3035 54.7497 37.4476 55.7875 37.5916C56.2903 37.6614 56.7931 37.7314 57.2959 37.8015C58.9196 38.0274 60.5436 38.2501 62.1687 38.4657C62.9695 38.5721 63.7702 38.6794 64.5708 38.7868C64.9542 38.8379 65.3377 38.8885 65.7212 38.9384C66.2542 39.0079 66.7868 39.0792 67.3194 39.1509C67.4756 39.1707 67.6317 39.1905 67.7926 39.211C70.1945 39.5397 70.1945 39.5397 71.0731 40.3579C71.2485 40.5964 71.2485 40.5964 71.4275 40.8396C71.5533 41.0061 71.6791 41.1725 71.8086 41.344C71.9221 41.4977 72.0355 41.6514 72.1524 41.8097C72.3212 42.0102 72.4914 42.2096 72.6641 42.4067C73.2599 43.1515 73.1996 43.8555 73.1963 44.7661C73.1965 44.9862 73.1965 44.9862 73.1968 45.2107C73.197 45.7041 73.1961 46.1975 73.1952 46.6909C73.1951 47.0439 73.1952 47.3968 73.1953 47.7498C73.1953 48.7097 73.1943 49.6696 73.1931 50.6295C73.192 51.632 73.1919 52.6345 73.1917 53.6371C73.1912 55.5362 73.1898 57.4354 73.1881 59.3346C73.1862 61.4964 73.1853 63.6583 73.1844 65.8201C73.1826 70.2678 73.1796 74.7156 73.1758 79.1633C73.8802 79.0666 73.8802 79.0666 74.5403 78.8222C74.7713 78.0577 74.7452 77.2592 74.7573 76.4671C74.7602 76.3158 74.7632 76.1644 74.7662 76.0085C74.7758 75.5013 74.7844 74.9941 74.7929 74.4869C74.7996 74.1232 74.8063 73.7595 74.8131 73.3958C74.8314 72.4072 74.8488 71.4186 74.866 70.43C74.8841 69.3939 74.9031 68.3578 74.922 67.3218C74.9536 65.5798 74.9846 63.8378 75.0153 62.0958C75.0545 59.866 75.0946 57.6363 75.1351 55.4066C75.17 53.4846 75.2045 51.5626 75.2388 49.6406C75.2499 49.0257 75.2609 48.4108 75.272 47.796C75.2895 46.8251 75.3067 45.8542 75.3237 44.8833C75.3299 44.5288 75.3362 44.1743 75.3427 43.8199C75.3784 41.8419 75.4021 39.8651 75.3932 37.8867C75.2806 37.8867 75.168 37.8867 75.052 37.8867C75.1083 37.7179 75.1646 37.549 75.2226 37.375C71.9733 36.2788 68.7147 35.2212 65.439 34.2057C64.4962 33.9132 63.5539 33.6193 62.6114 33.3256C62.364 33.2485 62.1167 33.1715 61.8693 33.0944C59.8937 32.4792 57.9195 31.8593 55.9461 31.2367C55.7439 31.1729 55.7439 31.1729 55.5375 31.1078C54.8596 30.8939 54.1816 30.6799 53.5036 30.4658C48.0944 28.758 48.0944 28.758 42.6768 27.0772C42.4741 27.0148 42.4741 27.0148 42.2673 26.9512C40.525 26.3245 40.525 26.3245 38.7156 26.1415ZM20.8125 27.6529C20.8231 27.8675 20.8336 28.082 20.8445 28.3031C20.8504 28.4239 20.8564 28.5446 20.8625 28.6689C20.9846 29.1424 20.9846 29.1424 21.8359 29.5291C21.8359 28.8536 21.8359 28.1782 21.8359 27.4823C21.1918 27.4314 21.1918 27.4314 20.8125 27.6529ZM22.177 27.4823C22.177 27.8763 22.177 28.2703 22.177 28.6763C22.3459 28.62 22.5148 28.5637 22.6887 28.5057C22.6887 28.2243 22.6887 27.9428 22.6887 27.6529C22.5199 27.5966 22.351 27.5403 22.177 27.4823ZM16.0787 27.8334C15.821 27.8522 15.5632 27.8709 15.3055 27.8896C14.768 27.9286 14.2306 27.9681 13.6932 28.0079C13.0081 28.0586 12.3231 28.1085 11.638 28.1581C11.1066 28.1966 10.5753 28.2355 10.044 28.2744C9.79149 28.2929 9.53902 28.3114 9.28654 28.3297C8.93246 28.3555 8.57841 28.3817 8.22437 28.408C7.92359 28.4302 7.92358 28.4302 7.61673 28.4528C6.89672 28.5142 6.17951 28.5932 5.46173 28.6763C5.56738 32.9769 5.69817 37.2761 5.85062 41.5753C5.87851 42.3631 5.90608 43.1509 5.9337 43.9387C5.97995 45.2566 6.02642 46.5745 6.07303 47.8925C6.12649 49.4039 6.17963 50.9154 6.2326 52.4269C6.28426 53.901 6.33612 55.3751 6.38806 56.8491C6.40987 57.4681 6.43163 58.0871 6.45334 58.706C6.56497 61.887 6.67918 65.0676 6.82625 68.2472C7.16396 68.4161 7.50168 68.5849 7.84963 68.7589C8.05991 68.1281 8.01839 67.5687 7.9889 66.9146C7.98348 66.7775 7.97805 66.6403 7.97246 66.499C7.95398 66.0378 7.93414 65.5766 7.9143 65.1155C7.9008 64.7855 7.88738 64.4554 7.87405 64.1254C7.83753 63.2278 7.79984 62.3303 7.76196 61.4327C7.72256 60.4945 7.68426 59.5563 7.64586 58.618C7.57291 56.8398 7.49901 55.0617 7.42475 53.2835C7.31578 50.6733 7.20829 48.0629 7.10074 45.4526C7.08488 45.0678 7.06903 44.6831 7.05317 44.2983C7.04543 44.1105 7.03769 43.9227 7.02972 43.7292C6.98361 42.611 6.93724 41.4927 6.89065 40.3744C6.86169 39.6793 6.83283 38.9842 6.80399 38.289C6.79056 37.9661 6.77708 37.6432 6.76356 37.3204C6.74512 36.8803 6.72686 36.4403 6.70863 36.0002C6.7032 35.8718 6.69778 35.7434 6.69219 35.6111C6.66957 35.0612 6.65568 34.5143 6.65568 33.9638C6.76826 33.9638 6.88083 33.9638 6.99681 33.9638C6.99385 34.1594 6.99089 34.355 6.98784 34.5565C6.95745 37.6238 7.09981 40.6831 7.23229 43.7466C7.26574 44.5237 7.29834 45.3008 7.33107 46.0779C7.38602 47.3799 7.44159 48.6818 7.49755 49.9837C7.56203 51.4837 7.62565 52.9838 7.6888 54.4839C7.74995 55.9365 7.81159 57.389 7.87349 58.8416C7.89967 59.4559 7.9257 60.0702 7.95161 60.6846C7.98216 61.4079 8.01314 62.1311 8.04443 62.8544C8.05578 63.1181 8.06699 63.3819 8.07805 63.6456C8.1402 65.1259 8.22327 66.6012 8.36133 68.0766C8.53019 68.0204 8.69904 67.9641 8.87302 67.9061C8.77159 64.0084 8.62488 60.1145 8.44407 56.2197C8.41068 55.498 8.37789 54.7763 8.34505 54.0546C8.27621 52.544 8.20681 51.0334 8.13727 49.5229C8.03195 47.2347 7.92712 44.9466 7.82278 42.6584C7.78383 41.8046 7.74458 40.9508 7.7051 40.097C7.68071 39.5685 7.65654 39.0399 7.63242 38.5113C7.62124 38.2673 7.60997 38.0233 7.59859 37.7793C7.58304 37.4454 7.56785 37.1115 7.55268 36.7776C7.5441 36.5913 7.53552 36.405 7.52668 36.213C7.46564 34.3868 7.46563 34.3868 8.19076 33.4521C8.32005 33.2713 8.44933 33.0906 8.58253 32.9044C8.72144 32.7241 8.86092 32.5442 9.00094 32.3647C9.06778 32.2717 9.13462 32.1787 9.20349 32.0829C9.41403 31.817 9.41403 31.817 9.89641 31.4053C11.037 31.3235 12.1454 31.5038 13.2731 31.6665C13.4626 31.693 13.6521 31.7195 13.8474 31.7468C14.4494 31.8311 15.0512 31.9166 15.653 32.0023C16.2572 32.0878 16.8615 32.173 17.4658 32.2578C17.841 32.3104 18.2161 32.3635 18.5911 32.4172C18.8457 32.4531 18.8457 32.4531 19.1054 32.4896C19.2543 32.5108 19.4032 32.5321 19.5566 32.5539C20.0051 32.6119 20.0051 32.6119 20.642 32.5992C20.642 32.3178 20.642 32.0364 20.642 31.7464C19.9665 31.6901 19.2911 31.6338 18.5952 31.5758C18.5952 31.3507 18.5952 31.1256 18.5952 30.8936C18.6946 30.8459 18.794 30.7982 18.8963 30.749C19.5213 30.4267 20.0585 30.1103 20.4714 29.5291C20.5723 28.8912 20.5431 28.2929 20.4714 27.6529C19.0012 27.6194 17.5436 27.7244 16.0787 27.8334ZM81.9159 28.7782C81.7238 28.9745 81.5324 29.1715 81.3416 29.3692C80.63 30.0948 79.9136 30.7921 79.1382 31.4499C78.5712 31.9536 78.0481 32.5016 77.5152 33.041C77.0536 33.4966 76.5713 33.9182 76.0787 34.3395C75.4229 34.923 74.8139 35.5549 74.1992 36.1811C74.0866 36.2937 73.9741 36.4062 73.8581 36.5222C74.0703 36.6134 74.2838 36.7017 74.4977 36.7887C74.6164 36.8382 74.7352 36.8877 74.8575 36.9386C75.3046 37.0553 75.4727 37.0276 75.9048 36.8633C76.3231 36.5131 76.3231 36.5131 76.7443 36.0678C76.8234 35.9876 76.9025 35.9074 76.984 35.8247C77.2367 35.568 77.4876 35.3097 77.7384 35.0511C78.0673 34.7142 78.397 34.378 78.7272 34.0424C78.8075 33.9606 78.8879 33.8787 78.9706 33.7944C79.5265 33.2323 80.1037 32.7073 80.7048 32.1945C81.263 31.7058 81.7803 31.1764 82.301 30.6484C82.4088 30.5399 82.5165 30.4314 82.6275 30.3196C82.8886 30.0565 83.1492 29.7928 83.4097 29.5291C83.2044 29.1038 82.9911 28.7306 82.7274 28.3351C82.32 28.2961 82.32 28.2961 81.9159 28.7782ZM22.177 28.8468C22.1344 29.4295 22.1344 29.4295 22.177 30.0408C22.4303 30.2096 22.4303 30.2096 22.6887 30.3819C22.7582 29.6558 22.7582 29.6558 22.4329 29.0387C22.3485 28.9754 22.264 28.9121 22.177 28.8468ZM23.0299 28.8468C23.2004 29.1879 23.2004 29.1879 23.2004 29.1879L23.0299 28.8468ZM23.7121 28.8468C24.3885 29.7486 24.9614 30.4752 25.7589 31.2347C26.4501 30.9599 26.9123 30.4671 27.4219 29.9448C27.5083 29.8583 27.5947 29.7718 27.6837 29.6826C28.1219 29.3248 28.1219 29.3248 28.3174 28.8468C26.7976 28.8468 25.2779 28.8468 23.7121 28.8468ZM23.2004 29.1879C23.4771 29.7994 23.8473 30.312 24.2451 30.851C24.3687 31.0189 24.4923 31.1869 24.6196 31.36C24.7141 31.4875 24.8087 31.615 24.9061 31.7464C25.0749 31.6901 25.2438 31.6338 25.4178 31.5758C24.7713 30.6428 24.0958 29.8873 23.2004 29.1879ZM20.9831 29.5291C20.9831 30.1482 20.9831 30.7674 20.9831 31.4053C21.4052 31.4897 21.4052 31.4897 21.8359 31.5758C21.895 30.8884 21.895 30.8884 21.8359 30.2113C21.4371 29.778 21.4371 29.778 20.9831 29.5291ZM19.7785 30.4565C19.6534 30.5654 19.5283 30.6742 19.3994 30.7863C19.3029 30.878 19.2063 30.9697 19.1069 31.0642C19.1069 31.1204 19.1069 31.1767 19.1069 31.2347C19.6135 31.291 20.12 31.3473 20.642 31.4053C20.642 30.8987 20.642 30.3921 20.642 29.8702C20.3009 29.8702 20.0195 30.2453 19.7785 30.4565ZM22.3476 30.8936C22.3476 31.1187 22.3476 31.3439 22.3476 31.5758C22.5165 31.6321 22.6853 31.6884 22.8593 31.7464C22.7467 31.465 22.6342 31.1836 22.5182 30.8936C22.4619 30.8936 22.4056 30.8936 22.3476 30.8936ZM20.9831 31.917C21.0394 32.1984 21.0957 32.4798 21.1537 32.7698C21.4351 32.7698 21.7165 32.7698 22.0065 32.7698C22.0065 32.4884 22.0065 32.2069 22.0065 31.917C21.6688 31.917 21.331 31.917 20.9831 31.917ZM22.3476 32.0875C22.3476 32.369 22.3476 32.6504 22.3476 32.9404C22.5165 32.9404 22.6853 32.9404 22.8593 32.9404C22.8593 32.6589 22.8593 32.3775 22.8593 32.0875C22.6904 32.0875 22.5216 32.0875 22.3476 32.0875ZM21.1537 33.1109C21.1364 36.1608 21.1768 39.204 21.2789 42.2521C21.2856 42.4543 21.2923 42.6564 21.2991 42.8646C21.3344 43.927 21.3706 44.9893 21.4077 46.0515C21.4456 47.1463 21.4797 48.2411 21.513 49.336C21.5395 50.1833 21.5689 51.0304 21.5991 51.8776C21.613 52.2818 21.6258 52.686 21.6374 53.0903C21.6538 53.6506 21.6743 54.2107 21.6958 54.771C21.6998 54.9373 21.7037 55.1037 21.7077 55.2751C21.7178 55.503 21.7178 55.503 21.728 55.7354C21.7324 55.8673 21.7368 55.9992 21.7413 56.1351C21.8135 56.508 21.8135 56.508 22.1518 56.7912C22.2727 56.8568 22.3936 56.9224 22.5182 56.99C22.687 56.9337 22.8559 56.8774 23.0299 56.8194C22.907 52.7441 22.7384 48.6709 22.5643 44.5975C22.5255 43.689 22.4872 42.7804 22.4491 41.8718C22.4192 41.1611 22.389 40.4505 22.3586 39.74C22.3444 39.4049 22.3302 39.0698 22.3162 38.7347C22.2399 36.9144 22.1514 35.0979 22.0065 33.2815C21.7251 33.2252 21.4436 33.1689 21.1537 33.1109ZM22.3476 33.2815C22.5275 38.2689 22.7233 43.2555 22.9384 48.2415C22.9552 48.6303 22.9717 49.0192 22.9883 49.4081C23.0147 50.028 23.0415 50.648 23.0686 51.2679C23.0833 51.6038 23.0975 51.9398 23.1118 52.2757C23.1714 53.6223 23.2589 54.9645 23.371 56.3077C23.5399 56.2514 23.7087 56.1951 23.8827 56.1371C23.7803 51.8912 23.6134 47.6498 23.4171 43.4073C23.3781 42.5627 23.3399 41.7181 23.3019 40.8735C23.2721 40.2118 23.2418 39.5501 23.2115 38.8884C23.1972 38.5767 23.1831 38.265 23.169 37.9533C23.0986 36.3925 23.0257 34.8358 22.8593 33.2815C22.6904 33.2815 22.5216 33.2815 22.3476 33.2815Z" fill="black"/>
<path d="M73.0053 25.9472C73.5852 25.9472 74.148 25.9472 74.7109 25.9472C74.5199 25.5652 74.2911 25.3072 74.0073 24.9878C73.7864 24.7396 73.5661 24.4908 73.3464 24.2416C73.2354 24.1079 73.1276 23.9782 73.0199 23.8485C72.9134 23.7212 72.8101 23.5976 72.7068 23.474C72.6098 23.3562 72.5157 23.2419 72.4216 23.1276C72.1524 22.8771 72.1524 22.8771 71.6407 22.8771C70.7803 23.4473 70.0078 24.1117 69.3701 24.9238C69.1736 25.2269 69.1736 25.2269 68.9117 25.4355C68.1825 25.4577 68.1825 25.4577 67.4532 25.3609C67.2351 25.3283 67.0234 25.2966 66.8116 25.265C66.4313 25.2087 66.0511 25.152 65.671 25.0944C65.671 25.0364 65.671 24.9801 65.671 24.9238C65.9609 24.9238 66.2424 24.9238 66.5238 24.9238C66.2871 24.318 66.2871 24.318 65.4421 23.4275C64.6209 22.5733 63.8392 21.7133 63.1125 20.777C62.762 20.3081 62.5523 20.031 62.0158 19.7956C61.5774 19.8069 61.5774 19.8069 61.1497 20.1094C60.9212 20.3365 60.6925 20.5636 60.4614 20.7881C60.3765 20.8697 60.294 20.9489 60.2116 21.0282C59.7263 21.498 59.2089 21.9157 58.6778 22.3334C58.1921 22.7097 57.8539 23.0037 57.5159 23.5187C57.447 23.6485 57.3802 23.7745 57.3133 23.9004C56.7965 23.8143 56.7965 23.8143 56.2899 23.7299C56.5395 23.4755 56.7908 23.2278 57.0573 22.9912C57.1486 22.9134 57.2373 22.8379 57.326 22.7625C57.4282 22.6752 57.5274 22.5906 57.6267 22.5059C57.8397 22.3247 58.0524 22.1432 58.2649 21.9613C58.5728 21.6977 58.8809 21.4342 59.1895 21.1714C59.344 21.0416 59.494 20.9156 59.6439 20.7896C59.7685 20.6839 59.8894 20.5812 60.0104 20.4785C60.4388 20.1195 60.5413 20.0157 60.7246 19.4658C57.1931 18.2599 57.1931 18.2599 53.7315 17.0779C53.7895 19.2236 53.8457 21.3062 53.902 23.3888C53.6121 23.3308 53.3306 23.2745 53.0492 23.2182C53.0492 21.1305 53.0492 19.1042 53.0492 17.0779C49.5177 17.2501 49.5177 17.2501 46.0561 17.419C46.0561 17.6128 46.0561 17.6128 46.6457 18.3065C46.7786 18.4612 46.7786 18.4612 46.9089 18.6129C47.4168 19.2129 47.9275 19.8028 48.4846 20.3579C49.2955 21.1497 50.014 21.9455 50.6613 22.8771C50.3134 22.8771 49.9756 22.8771 49.6379 22.8771C49.3612 21.893 49.3612 21.893 46.9066 19.4484C46.6978 19.2419 46.6978 19.2419 46.4931 19.0394C46.0068 18.5556 45.5202 18.0721 45.0327 17.5896C44.3027 18.0365 43.7137 18.5309 43.1122 19.139C43.0076 19.2465 42.9062 19.3508 42.8047 19.4551C42.6995 19.5619 42.5973 19.6656 42.4952 19.7693C42.3416 19.9252 42.3416 19.9252 42.191 20.0781C41.9998 20.2706 41.8098 20.4644 41.6214 20.6597C41.2192 21.1591 41.2192 21.1591 40.7686 21.5125C40.1281 21.6114 39.5885 21.5555 38.9457 21.4839C38.2368 21.3058 37.9764 21.0905 37.5771 20.4965C37.3573 20.148 37.3573 20.148 37.0628 19.7836C36.9563 19.661 36.853 19.5421 36.7496 19.4231C36.3214 18.9097 35.8958 18.596 35.3105 18.2718C35.1918 18.3819 35.0766 18.4888 34.9614 18.5956C34.7286 18.8089 34.7286 18.8089 34.5003 19.018C34.0817 19.4036 33.7061 19.7509 33.2078 20.0268C33.1108 20.068 33.0167 20.108 32.9226 20.148C32.9226 20.264 32.9226 20.3766 32.9226 20.4892C32.6906 20.4892 32.4655 20.4892 32.2403 20.4892C32.2009 20.1224 32.2009 20.1224 32.5175 19.8602C32.9226 19.4658 32.9226 19.4658 33.946 18.2718C32.6122 18.2718 31.3176 18.2718 30.023 18.2718C30.1936 18.7835 30.1936 18.7835 30.4714 19.132C30.5835 19.2563 30.6924 19.377 30.8012 19.4978C30.9138 19.6235 31.0231 19.7455 31.1323 19.8675C31.2191 19.9629 31.3033 20.0555 31.3875 20.148C31.2135 20.206 31.0447 20.2623 30.8758 20.3186C30.1726 19.5933 29.4238 18.9308 28.6585 18.2718C28.6585 18.8329 28.399 19.156 28.0442 19.5757C26.789 19.8786 26.789 19.8786 25.4671 19.5824C25.2763 19.5427 25.0912 19.5042 24.9061 19.4658C24.7458 20.0955 24.7458 20.0955 24.2641 20.5834C24.0899 20.7814 23.9158 20.9795 23.7418 21.1777C23.6563 21.2764 23.5733 21.3722 23.4903 21.4679C22.9787 22.0491 22.5536 22.5789 22.4601 23.3653C22.4642 23.6319 22.4642 23.6319 22.4682 23.8931C22.4699 24.0885 22.4716 24.2781 22.4732 24.4678C22.4798 24.7681 22.4798 24.7681 22.4862 25.0624C22.4928 25.6294 22.4994 26.1963 22.5101 26.7633C22.5142 26.9541 22.5142 26.9541 22.5182 27.1412C22.4022 27.1412 22.2896 27.1412 22.177 27.1412C22.0521 26.1737 21.9879 25.2339 21.9915 24.2586C21.993 24.1042 21.9944 23.9543 21.9958 23.8045C21.998 23.3642 22.0002 22.9239 22.0038 22.4836C22.0047 22.3854 22.0056 22.2901 22.0065 22.1948C21.8905 22.1948 21.7779 22.1948 21.6654 22.1948C21.6654 23.8766 21.6654 25.5089 21.6654 27.1412C21.3754 27.1412 21.094 27.1412 20.8125 27.1412C20.6991 24.8654 20.6144 22.5973 20.642 20.3186C20.9899 20.1446 21.3276 19.9758 21.6654 19.8069C21.6654 20.3288 21.6654 20.8354 21.6654 21.342C22.0407 21.0787 22.3606 20.8165 22.6754 20.4818C22.7814 20.3575 22.8843 20.2368 22.9872 20.116C23.1727 19.8998 23.3576 19.6833 23.5416 19.4658C23.003 19.3929 23.003 19.3929 22.5182 19.1246C22.6922 19.0667 22.861 19.0104 23.0299 18.9541C22.9719 18.5481 22.9156 18.1541 22.8593 17.7601C22.1284 17.6423 21.5192 17.5299 20.8019 17.7495C20.6895 17.8111 20.5805 17.8709 20.4714 17.9307C20.4714 17.5827 20.4714 17.245 20.4714 16.9073C27.8683 16.5567 27.8683 16.5567 35.2654 16.2129C37.1732 16.124 39.0809 16.035 40.9886 15.9458C42.3496 15.8822 43.7106 15.8187 45.0717 15.7553C45.8804 15.7176 46.6891 15.68 47.4978 15.6421C48.2676 15.6061 49.0374 15.5701 49.8073 15.5343C50.0906 15.5211 50.374 15.508 50.6573 15.4948C51.0517 15.4762 51.4461 15.4577 51.8406 15.4394C51.9621 15.4338 52.0801 15.4283 52.1981 15.4229C53.0459 15.3833 53.8876 15.2811 54.7149 15.4931C55.6138 15.7876 56.5145 16.074 57.4223 16.3396C57.5364 16.3729 57.6472 16.4051 57.7579 16.4373C57.9922 16.5058 58.2265 16.5742 58.4608 16.6426C58.8428 16.754 59.2248 16.8653 59.6068 16.9769C60.173 17.1423 60.7392 17.3077 61.3054 17.473C66.629 19.0269 71.9511 20.5862 77.2706 22.1542C77.9426 22.3523 78.6147 22.5504 79.287 22.748C80.0933 22.9849 80.8996 23.2219 81.7057 23.4598C82.0031 23.5477 82.3007 23.6355 82.5982 23.7232C83.0143 23.8453 83.4305 23.9673 83.8464 24.0903C83.9745 24.1282 84.0988 24.165 84.2231 24.2019C84.8881 24.3958 85.5299 24.5854 86.1387 24.9238C85.2586 25.2344 84.703 25.6024 84.0516 26.2687C83.9051 26.424 83.9051 26.424 83.7615 26.5762C83.5644 26.7793 83.3674 26.9825 83.1705 27.1858C83.0199 27.3446 82.8736 27.4987 82.7274 27.6529C81.8577 27.3731 81.0022 27.2176 80.0979 27.0911C79.9121 27.066 79.7317 27.0416 79.5513 27.0172C78.9675 26.9363 78.3837 26.8555 77.7998 26.7759C77.3942 26.7206 76.9887 26.665 76.5833 26.6092C75.496 26.4588 74.4086 26.3092 73.321 26.1608C73.2136 26.1462 73.1094 26.132 73.0053 26.1178C73.0053 26.0598 73.0053 26.0035 73.0053 25.9472ZM73.0053 25.9472C72.5993 25.9472 72.2053 25.9472 71.8113 25.9472C71.8113 25.8892 71.8113 25.8329 71.8113 25.7767C72.2172 25.7767 72.6113 25.7767 73.0053 25.7767C73.0053 25.8346 73.0053 25.8909 73.0053 25.9472ZM23.2004 29.1879C23.2004 29.1879 23.2004 29.1879 23.0299 28.8468L23.2004 29.1879ZM23.2004 29.1879C23.4771 29.7994 23.8473 30.312 24.2451 30.851C24.3687 31.0189 24.4923 31.1869 24.6196 31.36C24.7141 31.4875 24.8087 31.615 24.9061 31.7464C25.0749 31.6901 25.2438 31.6338 25.4178 31.5758C24.7713 30.6428 24.0958 29.8873 23.2004 29.1879ZM52.2644 15.0125C53.8889 14.9418 55.2485 15.1723 56.7983 15.6527C57.0269 15.7207 57.2556 15.7884 57.4843 15.8558C57.9766 16.0015 58.4681 16.1493 58.9592 16.2989C59.7498 16.5398 60.5418 16.7757 61.3341 17.011C62.341 17.3104 63.3475 17.611 64.3536 17.9129C67.3835 18.8219 70.4197 19.7096 73.4555 20.5988C74.6402 20.9458 75.8247 21.2937 77.009 21.642C77.4896 21.7833 77.9702 21.9246 78.4508 22.0658C78.7609 22.157 79.0709 22.2482 79.3809 22.3394C80.8794 22.7806 82.3783 23.219 83.8831 23.6382C83.997 23.6701 84.1109 23.7019 84.2282 23.7348C84.745 23.8794 85.262 24.0225 85.78 24.1628C85.9549 24.2115 86.1299 24.2602 86.3101 24.3103C86.4597 24.351 86.6092 24.3918 86.7633 24.4337C87.2256 24.6064 87.494 24.7428 87.8444 25.0944C87.9136 25.62 87.9136 25.62 87.8917 26.2752C87.8888 26.3953 87.8858 26.5155 87.8828 26.6392C87.8761 26.8993 87.8679 27.1593 87.8585 27.4193C87.8445 27.8194 87.8356 28.2193 87.8286 28.6195C87.8126 29.5044 87.7908 30.389 87.7688 31.2738C87.7606 31.6114 87.7525 31.9491 87.7444 32.2867C87.7225 33.1956 87.7002 34.1044 87.6778 35.0132C87.659 35.7749 87.6404 36.5366 87.6219 37.2982C87.578 39.096 87.5338 40.8937 87.4894 42.6914C87.4437 44.5403 87.3986 46.3893 87.3539 48.2384C87.3154 49.832 87.2764 51.4256 87.237 53.0192C87.2136 53.9683 87.1903 54.9175 87.1675 55.8666C87.146 56.759 87.124 57.6514 87.1016 58.5437C87.0935 58.8695 87.0856 59.1952 87.0779 59.521C87.0577 60.3716 87.034 61.2219 87.0037 62.0722C86.9957 62.3203 86.9892 62.5684 86.9844 62.8165C86.9778 63.1521 86.9658 63.4875 86.9534 63.8229C86.9484 64.0078 86.9433 64.1928 86.9381 64.3833C86.821 64.8359 86.821 64.8359 86.4101 65.152C85.7652 65.4374 85.3022 65.3831 84.6036 65.3476C84.5735 58.2562 84.6382 51.1668 84.7196 44.0759C84.7353 42.6942 84.7477 41.3126 84.759 39.9309C84.7681 38.8891 84.7827 37.8476 84.8009 36.8059C84.8121 36.1235 84.8198 35.4411 84.8267 34.7586C84.8307 34.4379 84.8363 34.1171 84.8434 33.7965C84.8531 33.3557 84.8574 32.9151 84.8605 32.4743C84.8646 32.3457 84.8687 32.2172 84.873 32.0847C84.8713 31.1016 84.5861 30.7095 83.9214 30.0408C83.1105 30.3721 82.5242 30.9939 81.9111 31.5997C81.2379 32.2614 80.5495 32.8818 79.8129 33.471C77.8137 35.0865 75.7759 36.7668 75.4411 39.4451C75.3174 40.8877 75.3743 42.3339 75.4392 43.7779C75.47 44.5899 75.472 45.402 75.4761 46.2145C75.4832 47.2611 75.4929 48.3075 75.5141 49.3539C75.5698 52.129 75.5474 54.898 75.4898 57.6729C75.4833 57.9855 75.4833 57.9855 75.4767 58.3044C75.4592 59.1444 75.4412 59.9843 75.4226 60.8242C75.383 62.6174 75.3511 64.4107 75.3212 66.204C75.3087 66.949 75.2952 67.694 75.2808 68.439C75.2495 70.0576 75.2205 71.6758 75.2089 73.2947C75.2035 73.9852 75.1949 74.6756 75.1858 75.3661C75.1824 75.6888 75.1804 76.0115 75.1801 76.3341C75.1795 76.7742 75.1739 77.214 75.167 77.654C75.1682 77.7832 75.1694 77.9125 75.1706 78.0457C75.1566 78.6272 75.1279 78.9188 74.7037 79.3323C74.2367 79.4917 73.9668 79.5232 73.4854 79.5152C73.2707 79.5117 73.0559 79.5081 72.8347 79.5045C72.8355 79.3193 72.8364 79.1341 72.8373 78.9433C72.8576 74.4317 72.867 69.9203 72.8652 65.4087C72.8645 63.2269 72.8674 61.0452 72.8785 58.8635C72.8882 56.9612 72.8913 55.0591 72.8865 53.1569C72.8842 52.1501 72.8852 51.1436 72.8941 50.1369C72.9023 49.188 72.9017 48.2395 72.8945 47.2906C72.8934 46.9436 72.8954 46.5966 72.901 46.2496C72.9265 44.5487 72.9325 43.2113 71.7544 41.8947C71.4403 41.5723 71.1156 41.2659 70.7879 40.9569C70.1057 40.169 70.1057 40.169 70.1057 39.7629C69.99 39.7654 69.8743 39.7679 69.7551 39.7704C68.6578 39.7836 67.6117 39.7124 66.5273 39.5509C66.2859 39.5166 66.2859 39.5166 66.0396 39.4816C65.5037 39.4051 64.9681 39.3268 64.4324 39.2486C64.0431 39.1927 63.6538 39.137 63.2644 39.0814C62.4231 38.9611 61.5818 38.8399 60.7407 38.7182C59.3999 38.5242 58.0588 38.332 56.7177 38.1403C56.6034 38.124 56.4892 38.1076 56.3714 38.0908C55.7829 38.0067 55.1944 37.9226 54.6058 37.8386C54.1216 37.7694 53.6374 37.7002 53.1532 37.631C47.1158 36.7672 41.0748 35.9288 35.0336 35.0917C34.1994 34.9762 33.3652 34.8605 32.5311 34.7448C29.4209 34.3135 26.3107 33.8825 23.2004 33.4521C23.2567 33.5646 23.313 33.6772 23.371 33.7932C23.3966 34.0377 23.4127 34.2833 23.4239 34.5289C23.4313 34.6835 23.4387 34.8381 23.4463 34.9973C23.4537 35.1675 23.4611 35.3377 23.4686 35.513C23.477 35.692 23.4853 35.8709 23.4939 36.0553C23.5215 36.6509 23.5479 37.2465 23.5742 37.8421C23.593 38.2575 23.6119 38.6729 23.6308 39.0883C23.6705 39.9625 23.7095 40.8368 23.7482 41.7111C23.7974 42.822 23.848 43.9329 23.8991 45.0438C23.9384 45.9041 23.977 46.7645 24.0154 47.6248C24.0337 48.0337 24.0523 48.4425 24.0711 48.8513C24.1223 49.9687 24.1689 51.086 24.2061 52.2039C24.218 52.5537 24.231 52.9034 24.2451 53.253C24.2641 53.7498 24.2771 54.2464 24.2884 54.7434C24.2949 54.8899 24.3013 55.0364 24.308 55.1874C24.3179 55.9351 24.3033 56.2101 23.8147 56.8106C23.6683 56.926 23.5219 57.0415 23.371 57.1605C23.2584 57.2731 23.1459 57.3857 23.0299 57.5017C22.4319 57.4398 21.963 57.1866 21.4948 56.8194C21.3956 56.3816 21.3602 56.0479 21.3549 55.6061C21.3499 55.4763 21.3449 55.3465 21.3398 55.2128C21.3236 54.764 21.3133 54.3154 21.3029 53.8665C21.2923 53.5417 21.2813 53.217 21.27 52.8922C21.2437 52.1206 21.2201 51.3488 21.1976 50.577C21.1519 49.0241 21.095 47.4715 21.0384 45.9188C20.9425 43.2854 20.8478 40.652 20.7575 38.0184C20.7472 37.7191 20.7368 37.4198 20.7264 37.1205C20.7118 36.7052 20.6976 36.2898 20.6835 35.8744C20.6793 35.7548 20.675 35.6352 20.6706 35.512C20.6421 34.6544 20.6387 33.7984 20.642 32.9404C20.5144 32.9342 20.3868 32.9281 20.2553 32.9218C18.1123 32.7954 15.9989 32.4697 13.8759 32.1614C13.3753 32.089 12.8745 32.0182 12.3736 31.9476C12.2204 31.9249 12.0673 31.9022 11.9095 31.8787C11.767 31.8588 11.6245 31.8388 11.4777 31.8183C11.3531 31.8002 11.2285 31.7822 11.1001 31.7636C10.5904 31.7386 10.2057 31.7933 9.81999 32.1372C9.74605 32.2281 9.67211 32.319 9.59592 32.4127C9.51424 32.5114 9.43256 32.6101 9.3484 32.7118C9.2654 32.8154 9.1824 32.919 9.09689 33.0256C8.92922 33.23 8.76154 33.4343 8.59385 33.6386C8.46083 33.8022 8.32781 33.9658 8.19076 34.1343C8.13448 34.1906 8.07819 34.2469 8.0202 34.3049C7.99938 34.8371 7.99175 35.364 7.99321 35.8964C7.99355 36.0695 7.9939 36.2425 7.99425 36.4208C8.01161 38.9133 8.14304 41.4026 8.26129 43.8918C8.2955 44.6169 8.32854 45.342 8.36168 46.0671C8.43867 47.7476 8.51693 49.428 8.59541 51.1084C8.69538 53.2496 8.79492 55.3908 8.89294 57.5321C8.92583 58.2499 8.95905 58.9677 8.99303 59.6855C9.07426 61.402 9.15001 63.1186 9.21415 64.8359C9.22137 65.0199 9.2286 65.2038 9.23604 65.3933C9.25261 65.856 9.26426 66.3184 9.27311 66.7813C9.27785 66.9062 9.28258 67.0312 9.28746 67.16C9.29181 67.7529 9.23387 68.048 8.89332 68.5419C8.55949 68.8506 8.2562 69.07 7.84963 69.2706C6.677 68.8015 6.677 68.8015 6.48512 68.4178C6.27189 66.5255 6.25178 64.6044 6.18559 62.7025C6.17384 62.3739 6.16205 62.0452 6.15023 61.7165C6.11846 60.8302 6.08724 59.9438 6.05617 59.0574C6.03005 58.3136 6.00367 57.5699 5.97729 56.8262C5.91499 55.0689 5.85314 53.3115 5.79158 51.5541C5.72839 49.7507 5.6644 47.9473 5.60002 46.1438C5.54449 44.5876 5.48948 43.0314 5.43488 41.4751C5.40238 40.5491 5.3697 39.6232 5.3365 38.6973C5.30525 37.8248 5.27465 36.9523 5.24452 36.0798C5.23347 35.7629 5.22221 35.4459 5.21069 35.129C5.17936 34.2649 5.154 33.401 5.13403 32.5366C5.11944 32.0488 5.09532 31.5619 5.0715 31.0745C5.06014 30.7367 5.04904 30.3989 5.03821 30.0611C5.02359 29.8268 5.0236 29.8268 5.00868 29.5877C4.98439 28.514 4.98439 28.514 5.38125 27.9929C5.91548 27.4994 6.48627 27.0994 7.13556 26.7697C8.09336 26.2584 8.97964 25.661 9.87908 25.0544C10.2027 24.8413 10.5268 24.6288 10.8512 24.4168C11.0132 24.3108 11.1753 24.2048 11.3423 24.0956C11.5054 23.989 11.6685 23.8824 11.8366 23.7725C14.4681 22.0631 14.4681 22.0631 17.0265 20.2476C17.386 19.9885 17.7509 19.7568 18.1321 19.5311C18.24 19.4662 18.3478 19.4013 18.4589 19.3345C18.6745 19.2065 18.8923 19.0822 19.1119 18.9614C19.6204 18.6477 19.9096 18.4392 20.0858 17.8507C20.1113 17.6981 20.1369 17.5455 20.1632 17.3883C20.2036 17.1575 20.2036 17.1575 20.2447 16.922C20.2725 16.7459 20.2725 16.7459 20.3008 16.5662C26.9669 16.207 33.6339 15.8744 40.3023 15.5618C41.2813 15.5159 42.2603 15.4693 43.2393 15.4225C44.205 15.3765 45.1707 15.3309 46.1363 15.2856C46.7038 15.259 47.2712 15.2322 47.8387 15.205C49.0183 15.1485 50.198 15.095 51.3781 15.0496C51.6735 15.0381 51.969 15.0259 52.2644 15.0125ZM48.913 17.5043C48.695 17.5165 48.695 17.5165 48.4726 17.5289C48.1219 17.5486 47.7712 17.569 47.4206 17.5896C48.1345 18.4316 48.8651 19.2529 49.6178 20.0606C50.1832 20.6704 50.7078 21.2999 51.2023 21.9683C51.6109 22.3118 51.6109 22.3118 52.7081 22.1948C52.7081 20.6188 52.7081 19.0428 52.7081 17.419C51.4338 17.419 50.1817 17.4292 48.913 17.5043ZM54.0726 17.5896C54.0726 18.7716 54.0726 19.9536 54.0726 21.1714C54.1289 21.1714 54.1852 21.1714 54.2432 21.1714C54.2432 19.9894 54.2432 18.8074 54.2432 17.5896C54.1869 17.5896 54.1306 17.5896 54.0726 17.5896ZM21.0044 18.0053C20.4862 18.6302 20.5757 19.0116 20.642 19.8069C21.4387 19.5413 22.0213 19.1102 22.6887 18.6129C22.6325 18.3878 22.5762 18.1627 22.5182 17.9307C21.8883 17.7549 21.5989 17.7081 21.0044 18.0053ZM46.7383 17.7601C46.8509 17.8727 46.9635 17.9853 47.0795 18.1013C47.0795 17.9887 47.0795 17.8761 47.0795 17.7601C46.9669 17.7601 46.8543 17.7601 46.7383 17.7601ZM54.7549 17.7601C54.7549 19.3361 54.7549 20.9122 54.7549 22.5359C56.0742 22.8593 56.0742 22.8593 57.3103 22.493C57.6565 22.1949 57.976 21.883 58.2941 21.5552C58.4042 21.447 58.5144 21.3388 58.6279 21.2274C58.9321 20.9275 59.2319 20.6239 59.5307 20.3186C59.7581 20.0912 59.9855 19.8638 60.2129 19.6363C59.0015 19.1302 57.7776 18.7044 56.5245 18.3145C55.9405 18.1315 55.3565 17.9486 54.7549 17.7601ZM44.8621 17.9307C44.7262 18.0685 44.5904 18.2064 44.4504 18.3484C44.2678 18.5326 44.0853 18.7167 43.9027 18.9008C43.8136 18.9913 43.7246 19.0817 43.6329 19.1749C43.1834 19.6272 42.7297 20.057 42.2357 20.4605C42.0893 20.5825 41.9428 20.7046 41.792 20.8303C41.792 20.8866 41.792 20.9429 41.792 21.0009C45.1691 21.423 45.1691 21.423 48.6145 21.8537C47.9662 21.0973 47.3458 20.3947 46.6424 19.7003C46.4874 19.5468 46.3324 19.3934 46.1727 19.2352C46.0216 19.0862 45.8706 18.9371 45.7149 18.7835C45.4302 18.4997 45.1461 18.2152 44.8621 17.9307ZM30.5347 18.6129C30.6968 18.8413 30.8606 19.0685 31.0251 19.2952C31.1161 19.4219 31.2071 19.5485 31.3009 19.679C31.3858 19.7775 31.4706 19.876 31.5581 19.9775C31.6707 19.9775 31.7832 19.9775 31.8992 19.9775C31.7975 19.4076 31.6211 19.032 31.217 18.6129C30.9918 18.6129 30.7667 18.6129 30.5347 18.6129ZM31.7287 18.6129C31.8975 18.8944 32.0664 19.1758 32.2403 19.4658C32.5218 19.1843 32.8032 18.9029 33.0932 18.6129C32.6429 18.6129 32.1926 18.6129 31.7287 18.6129ZM35.0507 18.8621C34.841 19.0789 34.6313 19.2956 34.4217 19.5124C34.1166 19.8069 34.1166 19.8069 33.6049 20.148C33.6049 20.2606 33.6049 20.3732 33.6049 20.4892C34.0063 20.547 34.4078 20.6037 34.8095 20.6597C34.9775 20.6841 34.9775 20.6841 35.1489 20.709C35.8907 20.8113 36.6091 20.8459 37.3573 20.8303C36.9119 19.9394 36.2127 19.2741 35.4811 18.6129C35.271 18.5933 35.271 18.5933 35.0507 18.8621ZM19.2455 19.3112C17.4899 20.5995 15.6454 21.7617 13.8236 22.9531C11.4091 24.5259 11.4091 24.5259 9.06049 26.1942C8.40585 26.6782 7.72014 27.113 7.03745 27.5563C6.84848 27.6885 6.84848 27.6885 6.65568 27.8234C6.65568 27.8797 6.65568 27.936 6.65568 27.994C8.79713 28.1263 9.92366 27.5011 11.5796 26.2224C12.2027 25.7508 12.8522 25.3186 13.4996 24.8812C13.7711 24.6957 14.0425 24.51 14.3138 24.3242C14.936 23.8989 15.5589 23.4744 16.182 23.0503C16.3495 22.9362 16.517 22.8222 16.6896 22.7047C17.0136 22.4841 17.3377 22.2637 17.6618 22.0434C17.9547 21.8441 18.2469 21.6439 18.5385 21.4427C18.7921 21.2698 19.0484 21.1005 19.3078 20.9364C19.9352 20.543 19.9352 20.543 20.2469 19.8995C20.233 19.7669 20.2192 19.6343 20.2049 19.4978C20.1941 19.363 20.1833 19.2282 20.1722 19.0893C20.1584 18.9884 20.1445 18.8875 20.1303 18.7835C19.797 18.7835 19.4968 19.1216 19.2455 19.3112ZM28.5626 19.018C28.2797 19.2761 28.2797 19.2761 28.3174 19.6363C28.7677 19.6926 29.2179 19.7489 29.6819 19.8069C29.4595 19.4625 29.2319 19.1214 28.9996 18.7835C28.7912 18.7647 28.7912 18.7647 28.5626 19.018ZM47.7617 18.7835C47.9974 19.3311 48.2605 19.6448 48.7211 20.0201C48.8289 20.1089 48.9366 20.1978 49.0476 20.2893C49.1298 20.3552 49.2121 20.4212 49.2968 20.4892C49.0611 19.9416 48.798 19.6279 48.3374 19.2526C48.2296 19.1637 48.1219 19.0749 48.0109 18.9834C47.9287 18.9174 47.8464 18.8515 47.7617 18.7835ZM22.0065 19.4658C22.0065 19.8598 22.0065 20.2538 22.0065 20.6597C22.0628 20.6597 22.1191 20.6597 22.177 20.6597C22.177 20.2657 22.177 19.8717 22.177 19.4658C22.1208 19.4658 22.0645 19.4658 22.0065 19.4658ZM25.2472 19.8069C24.9391 20.1547 24.6386 20.5055 24.3411 20.8623C24.2581 20.9609 24.1751 21.0595 24.0896 21.1611C23.9251 21.357 23.7621 21.554 23.6006 21.7523C23.371 22.0242 23.371 22.0242 22.9672 22.422C22.5461 23.1101 22.6493 23.7138 22.7207 24.4974C22.7305 24.641 22.7403 24.7846 22.7504 24.9325C22.8012 25.6263 22.8903 26.2887 23.0299 26.9706C24.5521 27.0114 26.0534 26.8991 27.5689 26.7759C28.0116 26.74 28.4544 26.7052 28.8972 26.6707C30.155 26.5726 31.4126 26.473 32.67 26.3716C33.4429 26.3094 34.2159 26.2488 34.989 26.1891C35.2811 26.1663 35.5732 26.1428 35.8651 26.1187C38.1467 25.9306 40.1776 25.8986 42.3756 26.6415C42.6214 26.7214 42.6214 26.7214 42.8722 26.803C43.2243 26.9178 43.5761 27.0335 43.9275 27.1502C44.6875 27.4025 45.449 27.6497 46.2105 27.8973C46.6053 28.0258 47 28.1545 47.3946 28.2835C49.2708 28.8965 51.1537 29.487 53.0386 30.0728C53.7086 30.2814 54.3787 30.4902 55.0487 30.699C55.223 30.7533 55.3973 30.8076 55.5769 30.8636C57.1226 31.3452 58.6675 31.8294 60.2123 32.3141C60.4666 32.3939 60.7209 32.4736 60.9753 32.5534C61.9805 32.8688 62.9858 33.1842 63.991 33.4998C64.1093 33.5369 64.2275 33.574 64.3493 33.6123C64.5851 33.6863 64.8209 33.7604 65.0567 33.8344C65.6286 34.0139 66.2006 34.193 66.7728 34.3712C66.9947 34.4404 67.2166 34.5095 67.4384 34.5786C67.5466 34.6124 67.6548 34.6461 67.7663 34.6808C68.5277 34.9187 69.2866 35.1632 70.0452 35.4096C70.3526 35.508 70.3526 35.508 70.6662 35.6084C71.0508 35.7316 71.4348 35.8566 71.8181 35.9839C71.9876 36.0376 72.1571 36.0914 72.3317 36.1468C72.4791 36.1948 72.6264 36.2429 72.7782 36.2924C73.2667 36.3652 73.4509 36.2798 73.8581 36.0105C74.1644 35.7237 74.4621 35.4276 74.7535 35.1257C75.2946 34.5718 75.8372 34.029 76.4272 33.5267C77.1194 32.9364 77.7497 32.2919 78.3887 31.6451C78.8462 31.1935 79.3243 30.7763 79.8132 30.3592C80.4074 29.8273 80.9594 29.2535 81.5162 28.6829C81.8746 28.3351 81.8746 28.3351 82.2157 28.1646C82.2157 27.9957 82.2157 27.8268 82.2157 27.6529C77.4187 26.9843 72.6216 26.3163 67.8244 25.6487C67.6454 25.6238 67.4665 25.5989 67.2822 25.5733C56.9537 24.1361 46.6243 22.7053 36.2927 21.291C35.8843 21.2351 35.476 21.1792 35.0676 21.1233C33.4141 20.8968 31.7605 20.6705 30.1069 20.4446C29.7635 20.3976 29.4201 20.3506 29.0767 20.3037C28.4568 20.2189 27.8369 20.1342 27.2169 20.0497C27.0347 20.0247 26.8525 19.9998 26.6648 19.9741C26.5012 19.9518 26.3376 19.9295 26.169 19.9066C25.956 19.8775 25.956 19.8775 25.7386 19.8478C25.4435 19.8033 25.4435 19.8033 25.2472 19.8069ZM60.9485 20.8516C60.2595 21.4846 59.562 22.1015 58.8484 22.7065C59.3067 23.1648 59.6297 23.1441 60.2689 23.2302C60.5951 23.2747 60.5951 23.2747 60.9278 23.3201C61.0415 23.3349 61.1552 23.3496 61.2724 23.3649C61.6166 23.4096 61.9605 23.4566 62.3043 23.504C63.2636 23.6325 64.19 23.7488 65.1593 23.7299C65.0978 23.6584 65.0363 23.5869 64.9729 23.5133C64.5122 22.9771 64.0538 22.4392 63.6002 21.897C63.469 21.7411 63.469 21.7411 63.335 21.5822C63.1549 21.3683 62.9754 21.1537 62.7967 20.9386C62.5682 20.6686 62.3295 20.4074 62.0891 20.148C61.5525 20.148 61.3339 20.4939 60.9485 20.8516ZM18.7764 21.6298C18.5266 21.8038 18.2768 21.9777 18.0269 22.1515C17.8959 22.2429 17.7649 22.3344 17.63 22.4286C16.9808 22.8804 16.3274 23.3263 15.6743 23.7725C15.5422 23.863 15.41 23.9535 15.2739 24.0467C14.5068 24.5719 13.7381 25.0947 12.9679 25.6154C12.7973 25.731 12.6267 25.8466 12.451 25.9657C12.1183 26.191 11.7854 26.4159 11.4521 26.6403C11.301 26.7427 11.15 26.8451 10.9944 26.9506C10.8605 27.041 10.7266 27.1314 10.5887 27.2245C10.2669 27.4608 10.0037 27.7092 9.72584 27.994C11.9408 27.8923 14.1522 27.7636 16.3635 27.6013C16.836 27.5668 17.3085 27.5335 17.781 27.5003C18.0831 27.4784 18.3851 27.4564 18.6871 27.4343C18.8276 27.4246 18.9681 27.4148 19.1129 27.4047C19.8147 27.3656 19.8147 27.3656 20.4714 27.1412C20.5084 25.035 20.3975 22.9337 20.3008 20.8303C19.7043 20.8303 19.2509 21.2953 18.7764 21.6298ZM49.6379 20.8303C49.9079 21.5593 50.4064 21.8989 51.0024 22.3654C50.7324 21.6363 50.2339 21.2967 49.6379 20.8303ZM54.2432 22.7065C54.2432 22.8191 54.2432 22.9316 54.2432 23.0476C54.4683 22.9913 54.6935 22.9351 54.9254 22.8771C54.7003 22.8208 54.4751 22.7645 54.2432 22.7065ZM54.9254 23.0476C54.9254 23.1039 54.9254 23.1602 54.9254 23.2182C55.3757 23.2182 55.826 23.2182 56.2899 23.2182C56.2899 23.1619 56.2899 23.1056 56.2899 23.0476C55.8396 23.0476 55.3894 23.0476 54.9254 23.0476ZM58.1661 23.2182C58.1661 23.387 58.1661 23.5559 58.1661 23.7299C59.1768 23.8559 60.1877 23.9805 61.1987 24.1036C61.5427 24.1457 61.8867 24.1883 62.2306 24.2312C62.7245 24.2928 63.2187 24.353 63.7128 24.4128C63.8669 24.4323 64.0209 24.4519 64.1797 24.472C64.323 24.4891 64.4664 24.5062 64.6142 24.5238C64.7403 24.5393 64.8664 24.5548 64.9964 24.5708C65.3669 24.6035 65.3669 24.6035 65.8415 24.4121C65.0971 24.0647 64.3498 23.9544 63.5429 23.8511C63.4053 23.8327 63.2676 23.8143 63.1258 23.7952C62.836 23.7566 62.5461 23.7185 62.2562 23.6809C61.8121 23.6233 61.3683 23.5641 60.9245 23.5047C60.6425 23.4673 60.3604 23.43 60.0783 23.3928C59.9456 23.3752 59.8129 23.3576 59.6761 23.3395C59.1688 23.2739 58.6783 23.2182 58.1661 23.2182ZM71.6407 23.2182C71.4128 23.413 71.1855 23.6086 70.9585 23.8045C70.8318 23.9133 70.7052 24.0222 70.5747 24.1343C70.4762 24.226 70.3777 24.3177 70.2762 24.4121C70.2762 24.4684 70.2762 24.5247 70.2762 24.5827C70.6279 24.6404 70.9797 24.697 71.3316 24.7533C71.5275 24.7849 71.7234 24.8166 71.9252 24.8492C72.409 24.9127 72.8598 24.9385 73.3464 24.9238C73.1918 24.7023 73.035 24.4823 72.8773 24.2629C72.7903 24.1402 72.7032 24.0175 72.6135 23.8911C72.3102 23.5447 72.0625 23.3924 71.6407 23.2182ZM69.7645 24.9238C70.0736 25.3065 70.0736 25.3065 70.5121 25.2983C70.6664 25.2943 70.8208 25.2904 70.9798 25.2863C71.135 25.2832 71.2903 25.2801 71.4502 25.277C71.5694 25.273 71.6885 25.269 71.8113 25.265C71.8113 25.2087 71.8113 25.1524 71.8113 25.0944C71.1359 25.0381 70.4604 24.9818 69.7645 24.9238ZM86.821 25.0944C86.8632 25.4291 86.8632 25.4291 86.9063 25.7707C86.9063 26.5108 86.727 26.8391 86.224 27.3764C85.972 27.6183 85.716 27.8561 85.4565 28.0899C85.2612 28.2748 85.2612 28.2748 85.062 28.4634C84.7418 28.7655 84.4181 29.0628 84.0919 29.3585C84.1646 29.4302 84.2372 29.5019 84.3121 29.5757C85.2767 30.6609 85.2518 31.6309 85.2213 33.035C85.2198 33.2744 85.2189 33.5139 85.2183 33.7534C85.2154 34.4157 85.2061 35.0778 85.1958 35.7401C85.1859 36.4507 85.1819 37.1614 85.1773 37.8722C85.168 39.1674 85.1549 40.4626 85.1399 41.7577C85.1129 44.1117 85.0955 46.4657 85.0785 48.8197C85.0699 50.0139 85.061 51.208 85.0521 52.4021C85.0512 52.5203 85.0503 52.6384 85.0494 52.7602C85.0191 56.7855 84.982 60.8107 84.9448 64.8359C85.7617 64.8759 85.7617 64.8759 86.4798 64.4948C86.5654 64.0968 86.5654 64.0968 86.5635 63.6235C86.5691 63.4379 86.5748 63.2523 86.5806 63.0611C86.5842 62.8557 86.5879 62.6502 86.5917 62.4385C86.5976 62.2216 86.6034 62.0047 86.6094 61.7813C86.6257 61.178 86.6388 60.5747 86.6514 59.9713C86.6655 59.3233 86.6825 58.6754 86.6992 58.0275C86.7276 56.9064 86.7544 55.7853 86.78 54.6641C86.8172 53.0374 86.8579 51.4109 86.8996 49.7844C86.9858 46.4158 87.0681 43.0472 87.1494 39.6785C87.1879 38.0815 87.2268 36.4846 87.2657 34.8876C87.3453 31.6232 87.4244 28.3588 87.5032 25.0944C87.2781 25.0944 87.0529 25.0944 86.821 25.0944ZM71.9819 25.265C71.9819 25.3212 71.9819 25.3775 71.9819 25.4355C72.3759 25.4355 72.7699 25.4355 73.1758 25.4355C73.1758 25.3792 73.1758 25.323 73.1758 25.265C72.7818 25.265 72.3878 25.265 71.9819 25.265ZM84.3051 26.5229C84.2069 26.6258 84.1086 26.7287 84.0073 26.8347C83.8254 27.0255 83.6445 27.2174 83.4651 27.4106C83.2801 27.6089 83.0898 27.8022 82.898 27.994C83.3201 28.5006 83.3201 28.5006 83.7508 29.0174C84.4836 28.4121 85.1911 27.7823 85.8829 27.1305C86.0324 26.9913 86.1819 26.8522 86.3359 26.7088C86.7052 26.3115 86.7052 26.3115 86.6131 25.8093C86.5471 25.6243 86.5471 25.6243 86.4798 25.4355C85.3882 25.2668 84.9919 25.7746 84.3051 26.5229ZM38.7156 26.1415C38.5803 26.151 38.4449 26.1606 38.3055 26.1704C38.1585 26.1819 38.0116 26.1935 37.8602 26.2053C37.7043 26.2167 37.5484 26.228 37.3877 26.2397C36.8724 26.2775 36.3573 26.3169 35.8422 26.3563C35.4845 26.383 35.1268 26.4096 34.7692 26.4361C34.0198 26.4919 33.2705 26.5485 32.5213 26.6057C31.5593 26.679 30.5972 26.7507 29.635 26.8219C28.8967 26.8766 28.1583 26.9321 27.42 26.9878C27.0652 27.0145 26.7103 27.0411 26.3555 27.0674C25.8605 27.1042 25.3656 27.142 24.8707 27.1801C24.6492 27.1963 24.6492 27.1963 24.4233 27.2129C23.7036 27.2537 23.7036 27.2537 23.0299 27.4823C23.0299 27.82 23.0299 28.1577 23.0299 28.5057C23.7947 28.5099 24.5595 28.513 25.3243 28.5151C25.5844 28.5159 25.8445 28.5171 26.1045 28.5186C26.4788 28.5206 26.8531 28.5216 27.2274 28.5223C27.4524 28.5232 27.6775 28.5241 27.9094 28.5251C28.3702 28.5096 28.7353 28.4748 29.1702 28.3351C28.7396 29.1617 28.1417 29.7555 27.4859 30.4032C27.3814 30.509 27.277 30.6147 27.1694 30.7237C25.7997 32.0875 25.7997 32.0875 24.7355 32.0875C24.3764 31.6771 24.3764 31.6771 24.0213 31.1494C23.8072 30.8349 23.5911 30.5217 23.371 30.2113C23.3147 30.2113 23.2584 30.2113 23.2004 30.2113C23.1412 30.9223 23.2607 31.2047 23.7121 31.7464C23.7684 31.9153 23.8247 32.0841 23.8827 32.2581C23.6575 32.2018 23.4324 32.1455 23.2004 32.0875C23.2004 32.369 23.2004 32.6504 23.2004 32.9404C25.2735 33.3219 27.3504 33.6414 29.4383 33.9296C29.7624 33.9748 30.0864 34.0199 30.4105 34.0652C31.2837 34.1869 32.1571 34.308 33.0304 34.429C33.9563 34.5574 34.8821 34.6863 35.8079 34.8152C37.368 35.0323 38.9282 35.2491 40.4884 35.4655C42.6563 35.7663 44.8242 36.0677 46.992 36.3693C48.7068 36.6079 50.4216 36.8462 52.1364 37.0845C52.3139 37.1092 52.4913 37.1339 52.6741 37.1593C53.7119 37.3035 54.7497 37.4476 55.7875 37.5916C56.2903 37.6614 56.7931 37.7314 57.2959 37.8015C58.9196 38.0274 60.5436 38.2501 62.1687 38.4657C62.9695 38.5721 63.7702 38.6794 64.5708 38.7868C64.9542 38.8379 65.3377 38.8885 65.7212 38.9384C66.2542 39.0079 66.7868 39.0792 67.3194 39.1509C67.4756 39.1707 67.6317 39.1905 67.7926 39.211C70.1945 39.5397 70.1945 39.5397 71.0731 40.3579C71.2485 40.5964 71.2485 40.5964 71.4275 40.8396C71.5533 41.0061 71.6791 41.1725 71.8086 41.344C71.9221 41.4977 72.0355 41.6514 72.1524 41.8097C72.3212 42.0102 72.4914 42.2096 72.6641 42.4067C73.2599 43.1515 73.1996 43.8555 73.1963 44.7661C73.1965 44.9862 73.1965 44.9862 73.1968 45.2107C73.197 45.7041 73.1961 46.1975 73.1952 46.6909C73.1951 47.0439 73.1952 47.3968 73.1953 47.7498C73.1953 48.7097 73.1943 49.6696 73.1931 50.6295C73.192 51.632 73.1919 52.6345 73.1917 53.6371C73.1912 55.5362 73.1898 57.4354 73.1881 59.3346C73.1862 61.4964 73.1853 63.6583 73.1844 65.8201C73.1826 70.2678 73.1796 74.7156 73.1758 79.1633C73.8802 79.0666 73.8802 79.0666 74.5403 78.8222C74.7713 78.0577 74.7452 77.2592 74.7573 76.4671C74.7602 76.3158 74.7632 76.1644 74.7662 76.0085C74.7758 75.5013 74.7844 74.9941 74.7929 74.4869C74.7996 74.1232 74.8063 73.7595 74.8131 73.3958C74.8314 72.4072 74.8488 71.4186 74.866 70.43C74.8841 69.3939 74.9031 68.3578 74.922 67.3218C74.9536 65.5798 74.9846 63.8378 75.0153 62.0958C75.0545 59.866 75.0946 57.6363 75.1351 55.4066C75.17 53.4846 75.2045 51.5626 75.2388 49.6406C75.2499 49.0257 75.2609 48.4108 75.272 47.796C75.2895 46.8251 75.3067 45.8542 75.3237 44.8833C75.3299 44.5288 75.3362 44.1743 75.3427 43.8199C75.3784 41.8419 75.4021 39.8651 75.3932 37.8867C75.2806 37.8867 75.168 37.8867 75.052 37.8867C75.1083 37.7179 75.1646 37.549 75.2226 37.375C71.9733 36.2788 68.7147 35.2212 65.439 34.2057C64.4962 33.9132 63.5539 33.6193 62.6114 33.3256C62.364 33.2485 62.1167 33.1715 61.8693 33.0944C59.8937 32.4792 57.9195 31.8593 55.9461 31.2367C55.7439 31.1729 55.7439 31.1729 55.5375 31.1078C54.8596 30.8939 54.1816 30.6799 53.5036 30.4658C48.0944 28.758 48.0944 28.758 42.6768 27.0772C42.4741 27.0148 42.4741 27.0148 42.2673 26.9512C40.525 26.3245 40.525 26.3245 38.7156 26.1415ZM20.8125 27.6529C20.8231 27.8675 20.8336 28.082 20.8445 28.3031C20.8504 28.4239 20.8564 28.5446 20.8625 28.6689C20.9846 29.1424 20.9846 29.1424 21.8359 29.5291C21.8359 28.8536 21.8359 28.1782 21.8359 27.4823C21.1918 27.4314 21.1918 27.4314 20.8125 27.6529ZM22.177 27.4823C22.177 27.8763 22.177 28.2703 22.177 28.6763C22.3459 28.62 22.5148 28.5637 22.6887 28.5057C22.6887 28.2243 22.6887 27.9428 22.6887 27.6529C22.5199 27.5966 22.351 27.5403 22.177 27.4823ZM16.0787 27.8334C15.821 27.8522 15.5632 27.8709 15.3055 27.8896C14.768 27.9286 14.2306 27.9681 13.6932 28.0079C13.0081 28.0586 12.3231 28.1085 11.638 28.1581C11.1066 28.1966 10.5753 28.2355 10.044 28.2744C9.79149 28.2929 9.53902 28.3114 9.28654 28.3297C8.93246 28.3555 8.57841 28.3817 8.22437 28.408C7.92359 28.4302 7.92358 28.4302 7.61673 28.4528C6.89672 28.5142 6.17951 28.5932 5.46173 28.6763C5.56738 32.9769 5.69817 37.2761 5.85062 41.5753C5.87851 42.3631 5.90608 43.1509 5.9337 43.9387C5.97995 45.2566 6.02642 46.5745 6.07303 47.8925C6.12649 49.4039 6.17963 50.9154 6.2326 52.4269C6.28426 53.901 6.33612 55.3751 6.38806 56.8491C6.40987 57.4681 6.43163 58.0871 6.45334 58.706C6.56497 61.887 6.67918 65.0676 6.82625 68.2472C7.16396 68.4161 7.50168 68.5849 7.84963 68.7589C8.05991 68.1281 8.01839 67.5687 7.9889 66.9146C7.98348 66.7775 7.97805 66.6403 7.97246 66.499C7.95398 66.0378 7.93414 65.5766 7.9143 65.1155C7.9008 64.7855 7.88738 64.4554 7.87405 64.1254C7.83753 63.2278 7.79984 62.3303 7.76196 61.4327C7.72256 60.4945 7.68426 59.5563 7.64586 58.618C7.57291 56.8398 7.49901 55.0617 7.42475 53.2835C7.31578 50.6733 7.20829 48.0629 7.10074 45.4526C7.08488 45.0678 7.06903 44.6831 7.05317 44.2983C7.04543 44.1105 7.03769 43.9227 7.02972 43.7292C6.98361 42.611 6.93724 41.4927 6.89065 40.3744C6.86169 39.6793 6.83283 38.9842 6.80399 38.289C6.79056 37.9661 6.77708 37.6432 6.76356 37.3204C6.74512 36.8803 6.72686 36.4403 6.70863 36.0002C6.7032 35.8718 6.69778 35.7434 6.69219 35.6111C6.66957 35.0612 6.65568 34.5143 6.65568 33.9638C6.76826 33.9638 6.88083 33.9638 6.99681 33.9638C6.99385 34.1594 6.99089 34.355 6.98784 34.5565C6.95745 37.6238 7.09981 40.6831 7.23229 43.7466C7.26574 44.5237 7.29834 45.3008 7.33107 46.0779C7.38602 47.3799 7.44159 48.6818 7.49755 49.9837C7.56203 51.4837 7.62565 52.9838 7.6888 54.4839C7.74995 55.9365 7.81159 57.389 7.87349 58.8416C7.89967 59.4559 7.9257 60.0702 7.95161 60.6846C7.98216 61.4079 8.01314 62.1311 8.04443 62.8544C8.05578 63.1181 8.06699 63.3819 8.07805 63.6456C8.1402 65.1259 8.22327 66.6012 8.36133 68.0766C8.53019 68.0204 8.69904 67.9641 8.87302 67.9061C8.77159 64.0084 8.62488 60.1145 8.44407 56.2197C8.41068 55.498 8.37789 54.7763 8.34505 54.0546C8.27621 52.544 8.20681 51.0334 8.13727 49.5229C8.03195 47.2347 7.92712 44.9466 7.82278 42.6584C7.78383 41.8046 7.74458 40.9508 7.7051 40.097C7.68071 39.5685 7.65654 39.0399 7.63242 38.5113C7.62124 38.2673 7.60997 38.0233 7.59859 37.7793C7.58304 37.4454 7.56785 37.1115 7.55268 36.7776C7.5441 36.5913 7.53552 36.405 7.52668 36.213C7.46564 34.3868 7.46563 34.3868 8.19076 33.4521C8.32005 33.2713 8.44933 33.0906 8.58253 32.9044C8.72144 32.7241 8.86092 32.5442 9.00094 32.3647C9.06778 32.2717 9.13462 32.1787 9.20349 32.0829C9.41403 31.817 9.41403 31.817 9.89641 31.4053C11.037 31.3235 12.1454 31.5038 13.2731 31.6665C13.4626 31.693 13.6521 31.7195 13.8474 31.7468C14.4494 31.8311 15.0512 31.9166 15.653 32.0023C16.2572 32.0878 16.8615 32.173 17.4658 32.2578C17.841 32.3104 18.2161 32.3635 18.5911 32.4172C18.8457 32.4531 18.8457 32.4531 19.1054 32.4896C19.2543 32.5108 19.4032 32.5321 19.5566 32.5539C20.0051 32.6119 20.0051 32.6119 20.642 32.5992C20.642 32.3178 20.642 32.0364 20.642 31.7464C19.9665 31.6901 19.2911 31.6338 18.5952 31.5758C18.5952 31.3507 18.5952 31.1256 18.5952 30.8936C18.6946 30.8459 18.794 30.7982 18.8963 30.749C19.5213 30.4267 20.0585 30.1103 20.4714 29.5291C20.5723 28.8912 20.5431 28.2929 20.4714 27.6529C19.0012 27.6194 17.5436 27.7244 16.0787 27.8334ZM81.9159 28.7782C81.7238 28.9745 81.5324 29.1715 81.3416 29.3692C80.63 30.0948 79.9136 30.7921 79.1382 31.4499C78.5712 31.9536 78.0481 32.5016 77.5152 33.041C77.0536 33.4966 76.5713 33.9182 76.0787 34.3395C75.4229 34.923 74.8139 35.5549 74.1992 36.1811C74.0866 36.2937 73.9741 36.4062 73.8581 36.5222C74.0703 36.6134 74.2838 36.7017 74.4977 36.7887C74.6164 36.8382 74.7352 36.8877 74.8575 36.9386C75.3046 37.0553 75.4727 37.0276 75.9048 36.8633C76.3231 36.5131 76.3231 36.5131 76.7443 36.0678C76.8234 35.9876 76.9025 35.9074 76.984 35.8247C77.2367 35.568 77.4876 35.3097 77.7384 35.0511C78.0673 34.7142 78.397 34.378 78.7272 34.0424C78.8075 33.9606 78.8879 33.8787 78.9706 33.7944C79.5265 33.2323 80.1037 32.7073 80.7048 32.1945C81.263 31.7058 81.7803 31.1764 82.301 30.6484C82.4088 30.5399 82.5165 30.4314 82.6275 30.3196C82.8886 30.0565 83.1492 29.7928 83.4097 29.5291C83.2044 29.1038 82.9911 28.7306 82.7274 28.3351C82.32 28.2961 82.32 28.2961 81.9159 28.7782ZM22.177 28.8468C22.1344 29.4295 22.1344 29.4295 22.177 30.0408C22.4303 30.2096 22.4303 30.2096 22.6887 30.3819C22.7582 29.6558 22.7582 29.6558 22.4329 29.0387C22.3485 28.9754 22.264 28.9121 22.177 28.8468ZM23.7121 28.8468C24.3885 29.7486 24.9614 30.4752 25.7589 31.2347C26.4501 30.9599 26.9123 30.4671 27.4219 29.9448C27.5083 29.8583 27.5947 29.7718 27.6837 29.6826C28.1219 29.3248 28.1219 29.3248 28.3174 28.8468C26.7976 28.8468 25.2779 28.8468 23.7121 28.8468ZM20.9831 29.5291C20.9831 30.1482 20.9831 30.7674 20.9831 31.4053C21.4052 31.4897 21.4052 31.4897 21.8359 31.5758C21.895 30.8884 21.895 30.8884 21.8359 30.2113C21.4371 29.778 21.4371 29.778 20.9831 29.5291ZM19.7785 30.4565C19.6534 30.5654 19.5283 30.6742 19.3994 30.7863C19.3029 30.878 19.2063 30.9697 19.1069 31.0642C19.1069 31.1204 19.1069 31.1767 19.1069 31.2347C19.6135 31.291 20.12 31.3473 20.642 31.4053C20.642 30.8987 20.642 30.3921 20.642 29.8702C20.3009 29.8702 20.0195 30.2453 19.7785 30.4565ZM22.3476 30.8936C22.3476 31.1187 22.3476 31.3439 22.3476 31.5758C22.5165 31.6321 22.6853 31.6884 22.8593 31.7464C22.7467 31.465 22.6342 31.1836 22.5182 30.8936C22.4619 30.8936 22.4056 30.8936 22.3476 30.8936ZM20.9831 31.917C21.0394 32.1984 21.0957 32.4798 21.1537 32.7698C21.4351 32.7698 21.7165 32.7698 22.0065 32.7698C22.0065 32.4884 22.0065 32.2069 22.0065 31.917C21.6688 31.917 21.331 31.917 20.9831 31.917ZM22.3476 32.0875C22.3476 32.369 22.3476 32.6504 22.3476 32.9404C22.5165 32.9404 22.6853 32.9404 22.8593 32.9404C22.8593 32.6589 22.8593 32.3775 22.8593 32.0875C22.6904 32.0875 22.5216 32.0875 22.3476 32.0875ZM21.1537 33.1109C21.1364 36.1608 21.1768 39.204 21.2789 42.2521C21.2856 42.4543 21.2923 42.6564 21.2991 42.8646C21.3344 43.927 21.3706 44.9893 21.4077 46.0515C21.4456 47.1463 21.4797 48.2411 21.513 49.336C21.5395 50.1833 21.5689 51.0304 21.5991 51.8776C21.613 52.2818 21.6258 52.686 21.6374 53.0903C21.6538 53.6506 21.6743 54.2107 21.6958 54.771C21.6998 54.9373 21.7037 55.1037 21.7077 55.2751C21.7178 55.503 21.7178 55.503 21.728 55.7354C21.7324 55.8673 21.7368 55.9992 21.7413 56.1351C21.8135 56.508 21.8135 56.508 22.1518 56.7912C22.2727 56.8568 22.3936 56.9224 22.5182 56.99C22.687 56.9337 22.8559 56.8774 23.0299 56.8194C22.907 52.7441 22.7384 48.6709 22.5643 44.5975C22.5255 43.689 22.4872 42.7804 22.4491 41.8718C22.4192 41.1611 22.389 40.4505 22.3586 39.74C22.3444 39.4049 22.3302 39.0698 22.3162 38.7347C22.2399 36.9144 22.1514 35.0979 22.0065 33.2815C21.7251 33.2252 21.4436 33.1689 21.1537 33.1109ZM22.3476 33.2815C22.5275 38.2689 22.7233 43.2555 22.9384 48.2415C22.9552 48.6303 22.9717 49.0192 22.9883 49.4081C23.0147 50.028 23.0415 50.648 23.0686 51.2679C23.0833 51.6038 23.0975 51.9398 23.1118 52.2757C23.1714 53.6223 23.2589 54.9645 23.371 56.3077C23.5399 56.2514 23.7087 56.1951 23.8827 56.1371C23.7803 51.8912 23.6134 47.6498 23.4171 43.4073C23.3781 42.5627 23.3399 41.7181 23.3019 40.8735C23.2721 40.2118 23.2418 39.5501 23.2115 38.8884C23.1972 38.5767 23.1831 38.265 23.169 37.9533C23.0986 36.3925 23.0257 34.8358 22.8593 33.2815C22.6904 33.2815 22.5216 33.2815 22.3476 33.2815Z" stroke="black" stroke-width="0.38"/>
<path d="M47.5851 30.417C47.9799 30.5704 48.1594 30.7301 48.4421 31.043C48.5339 31.1433 48.6258 31.2436 48.7204 31.3469C48.8157 31.454 48.9109 31.561 49.0091 31.6712C49.107 31.7794 49.205 31.8875 49.306 31.9989C49.5002 32.2137 49.6937 32.4291 49.8865 32.6451C50.1094 32.8947 50.3345 33.1424 50.5601 33.3895C51.3437 34.2582 51.3437 34.2582 51.3437 34.6455C51.4562 34.6455 51.5688 34.6455 51.6848 34.6455C52.0765 35.0824 52.1965 35.239 52.1965 35.8394C49.1171 35.5732 46.0527 35.1976 42.986 34.816C42.9297 34.6472 42.8734 34.4783 42.8154 34.3043C43.0406 34.1918 43.2657 34.0792 43.4977 33.9632C43.4977 33.8506 43.4977 33.7381 43.4977 33.6221C43.7625 33.3844 44.0384 33.1592 44.3185 32.9398C44.862 32.5087 45.3908 32.0799 45.8923 31.6006C46.0166 31.4822 46.0166 31.4822 46.1436 31.3614C46.3768 31.137 46.608 30.9105 46.839 30.6838C47.2501 30.3814 47.2501 30.3814 47.5851 30.417ZM46.5359 31.6926C46.0073 32.1803 45.4786 32.6623 44.9155 33.1104C44.7853 33.223 44.6552 33.3355 44.5211 33.4515C44.5211 33.5641 44.5211 33.6767 44.5211 33.7926C45.2035 33.8909 45.8861 33.988 46.5688 34.0841C46.8006 34.1169 47.0323 34.15 47.2641 34.1834C47.5989 34.2316 47.9338 34.2786 48.2688 34.3257C48.4698 34.3542 48.6708 34.3828 48.8778 34.4123C49.477 34.4759 50.0593 34.4857 50.6614 34.4749C50.0184 33.564 49.3159 32.7353 48.5613 31.9164C48.4693 31.8161 48.3772 31.7158 48.2823 31.6125C48.0558 31.369 47.824 31.1305 47.5912 30.893C47.2155 30.893 46.7844 31.4629 46.5359 31.6926ZM43.6683 34.1338C43.612 34.2463 43.5557 34.3589 43.4977 34.4749C44.5054 34.5969 45.5131 34.7183 46.5209 34.8393C46.8637 34.8805 47.2065 34.9218 47.5493 34.9634C48.042 35.023 48.5349 35.0821 49.0277 35.1412C49.1809 35.1598 49.3341 35.1785 49.4919 35.1977C49.6352 35.2148 49.7786 35.2318 49.9263 35.2494C50.0521 35.2646 50.1778 35.2797 50.3074 35.2953C50.6515 35.3268 50.9981 35.3277 51.3437 35.3277C51.3437 35.2151 51.3437 35.1026 51.3437 34.9866C50.4975 34.8638 49.6511 34.7424 48.8045 34.6222C48.5172 34.5812 48.2298 34.5399 47.9426 34.4981C47.5273 34.4378 47.1119 34.379 46.6964 34.3203C46.5069 34.2923 46.5069 34.2923 46.3134 34.2638C45.4245 34.1402 44.5658 34.1182 43.6683 34.1338Z" fill="black"/>
<path d="M38.7218 27.823C38.7503 28.67 38.7777 29.517 38.8041 30.3641C38.8132 30.6525 38.8226 30.9409 38.8324 31.2293C38.8463 31.6429 38.8591 32.0565 38.8717 32.4702C38.8763 32.5999 38.8809 32.7296 38.8857 32.8632C38.8946 33.1729 38.8944 33.4829 38.8924 33.7927C38.7218 33.9633 38.7218 33.9633 38.1035 33.9953C37.2841 33.9763 36.5215 33.955 35.8895 33.3676C35.6924 33.1419 35.5002 32.9118 35.3119 32.6787C34.9112 32.1861 34.484 31.7211 34.0526 31.2556C33.892 31.0806 33.7314 30.9056 33.5709 30.7306C33.2586 30.3904 32.9453 30.0512 32.6315 29.7125C32.422 29.4843 32.422 29.4843 32.2084 29.2514C32.0828 29.1156 31.9573 28.9797 31.8279 28.8397C31.5581 28.5052 31.5581 28.5052 31.5581 28.1641C32.0267 28.0079 32.3522 27.9619 32.8387 27.9396C32.9932 27.9324 33.1478 27.9253 33.3071 27.9179C33.4687 27.9112 33.6303 27.9045 33.7968 27.8976C34.0253 27.8865 34.0253 27.8865 34.2585 27.8753C35.7462 27.8099 37.233 27.816 38.7218 27.823ZM36.2493 28.2014C36.0838 28.2091 35.9184 28.2168 35.7479 28.2247C35.579 28.2329 35.41 28.241 35.2359 28.2494C34.9755 28.2616 34.9755 28.2616 34.7099 28.274C34.2847 28.294 33.8595 28.3142 33.4343 28.3347C33.4343 28.9536 33.5438 29.0284 33.9513 29.4706C34.1152 29.6508 34.1152 29.6508 34.2825 29.8345C34.4536 30.0208 34.4536 30.0208 34.6283 30.2109C34.8399 30.4521 35.0514 30.6935 35.2626 30.9351C35.4773 31.1736 35.6923 31.4119 35.9075 31.65C36.0141 31.7726 36.1208 31.8952 36.2306 32.0214C36.3368 32.1379 36.443 32.2543 36.5524 32.3742C36.6458 32.479 36.7391 32.5837 36.8353 32.6917C37.2799 33.0457 37.2799 33.0457 38.3807 33.1105C38.3807 31.4782 38.3807 29.8459 38.3807 28.1641C37.6642 28.1641 36.9628 28.1676 36.2493 28.2014ZM32.4109 28.5052C32.6466 29.0528 32.9097 29.3665 33.3704 29.7418C33.4781 29.8306 33.5858 29.9195 33.6968 30.011C33.7791 30.0769 33.8613 30.1429 33.946 30.2109C33.7103 29.6633 33.4472 29.3496 32.9866 28.9743C32.8788 28.8854 32.7711 28.7966 32.6601 28.7051C32.5779 28.6391 32.4957 28.5732 32.4109 28.5052ZM34.2871 30.552C34.5228 31.0996 34.7859 31.4132 35.2466 31.7886C35.3543 31.8774 35.462 31.9662 35.573 32.0578C35.6553 32.1237 35.7375 32.1897 35.8222 32.2576C35.5865 31.7101 35.3234 31.3964 34.8628 31.021C34.7551 30.9322 34.6473 30.8434 34.5363 30.7519C34.4541 30.6859 34.3719 30.62 34.2871 30.552ZM36.1633 32.5988C36.2759 32.8239 36.3885 33.0491 36.5045 33.281C36.617 33.2247 36.7296 33.1685 36.8456 33.1105C36.6205 32.9416 36.3953 32.7727 36.1633 32.5988Z" fill="black"/>
<path d="M30.5347 28.1643C31.449 28.8916 32.2253 29.7059 33.0079 30.5689C33.6128 31.2348 34.2375 31.8696 34.8968 32.4824C35.1689 32.8037 35.243 33.0402 35.3105 33.4518C33.3713 33.3934 31.4561 33.1812 29.5326 32.9401C29.3478 32.9172 29.3478 32.9172 29.1592 32.8938C28.8043 32.8495 28.4496 32.8044 28.0948 32.7589C27.8873 32.7323 27.6798 32.7057 27.466 32.6783C26.9529 32.599 26.9529 32.599 26.4412 32.4284C26.5268 31.726 26.8754 31.4572 27.4006 31.0106C27.9373 30.545 28.4607 30.08 28.957 29.5715C29.4557 29.0633 29.9801 28.6107 30.5347 28.1643ZM29.9131 29.2643C29.7321 29.4476 29.552 29.6317 29.3727 29.8166C29.2838 29.9071 29.1949 29.9976 29.1032 30.0908C28.934 30.263 28.7651 30.4356 28.5967 30.6086C28.222 30.9905 27.8432 31.3682 27.4645 31.7462C28.3294 31.8723 29.1945 31.9968 30.0599 32.1199C30.3543 32.162 30.6486 32.2045 30.9428 32.2475C31.3656 32.3091 31.7886 32.3693 32.2117 32.4291C32.3434 32.4486 32.475 32.4682 32.6107 32.4883C33.1838 32.568 33.5598 32.614 34.1166 32.4284C33.6761 31.9592 33.2354 31.4902 32.7947 31.0213C32.6702 30.8887 32.5458 30.7561 32.4176 30.6195C32.2362 30.4266 32.2362 30.4266 32.0511 30.2297C31.885 30.0529 31.885 30.0529 31.7155 29.8724C31.6073 29.7591 31.499 29.6457 31.3875 29.5288C31.2683 29.4018 31.1491 29.2748 31.0262 29.1439C30.5097 28.6654 30.4286 28.7868 29.9131 29.2643Z" fill="black"/>
<path d="M39.4041 27.9937C40.3691 28.0884 41.2187 28.2749 42.1331 28.5913C42.2561 28.6327 42.3791 28.6741 42.5059 28.7168C42.8937 28.8476 43.281 28.9803 43.6682 29.113C43.9331 29.2027 44.1981 29.2923 44.4631 29.3818C45.1083 29.6 45.7529 29.8198 46.3973 30.0404C46.3973 30.7227 46.3973 30.7227 46.0721 31.0831C45.9261 31.2069 45.7801 31.3307 45.6297 31.4582C45.4738 31.5924 45.3179 31.7265 45.1573 31.8647C44.9268 32.0592 44.9268 32.0592 44.6916 32.2578C44.4532 32.467 44.215 32.6766 43.9774 32.8867C43.8663 32.9806 43.7553 33.0745 43.6409 33.1712C43.3225 33.4438 43.3225 33.4438 43.0613 33.7589C42.5656 34.2966 42.2873 34.4654 41.5395 34.5124C39.8571 34.4164 39.8571 34.4164 39.4041 33.9634C39.3742 33.5109 39.3646 33.0765 39.3708 32.6242C39.3713 32.4922 39.3718 32.3602 39.3723 32.2241C39.3742 31.8018 39.3785 31.3795 39.3828 30.9572C39.3845 30.6712 39.3861 30.3851 39.3875 30.0991C39.3912 29.3972 39.3971 28.6955 39.4041 27.9937ZM39.7452 28.3348C39.7452 30.1359 39.7452 31.9371 39.7452 33.7928C39.8578 33.7928 39.9704 33.7928 40.0864 33.7928C40.0301 31.9917 39.9738 30.1905 39.9158 28.3348C39.8595 28.3348 39.8032 28.3348 39.7452 28.3348ZM40.2569 28.5053C40.2569 30.0814 40.2569 31.6574 40.2569 33.2812C41.1011 33.5625 41.7703 33.6879 42.6448 33.4517C43.4364 32.9245 44.0956 32.2229 44.7465 31.5347C45.1192 31.1436 45.5035 30.7636 45.8856 30.3816C44.0281 29.7624 42.1707 29.1433 40.2569 28.5053ZM40.2569 33.7928C40.2569 33.8491 40.2569 33.9054 40.2569 33.9634C40.7635 34.0197 41.2701 34.076 41.792 34.134C41.792 34.0214 41.792 33.9088 41.792 33.7928C41.2854 33.7928 40.7789 33.7928 40.2569 33.7928Z" fill="black"/>
<path d="M49.1262 31.0637C50.0886 31.1623 50.9682 31.343 51.8926 31.6241C52.0194 31.6617 52.1461 31.6993 52.2768 31.738C52.6767 31.8569 53.0762 31.9773 53.4756 32.0978C53.7488 32.1793 54.0219 32.2607 54.2951 32.342C54.9604 32.5402 55.6253 32.7397 56.2899 32.9399C56.2899 33.4516 56.2899 33.4516 55.9588 33.8074C55.1291 34.532 54.3042 35.2236 53.3903 35.8395C52.1832 34.8793 51.1774 33.743 50.1496 32.5988C50.0311 32.4678 49.9126 32.3367 49.7905 32.2017C49.1262 31.4507 49.1262 31.4507 49.1262 31.0637ZM50.1496 31.746C51.6322 33.4999 51.6322 33.4999 53.2198 35.1573C53.3323 35.101 53.4449 35.0447 53.5609 34.9867C53.2414 34.6382 52.9215 34.29 52.6015 33.942C52.5124 33.8448 52.4234 33.7476 52.3316 33.6475C51.7332 32.9973 51.1339 32.3523 50.4907 31.746C50.3782 31.746 50.2656 31.746 50.1496 31.746ZM51.5141 32.0871C52.2227 33.0964 53.0104 33.9653 53.902 34.8161C54.1231 34.6573 54.3432 34.4971 54.563 34.3364C54.6856 34.2474 54.8083 34.1583 54.9347 34.0666C55.3058 33.7872 55.3058 33.7872 55.6077 33.2811C54.2839 32.7295 52.9051 32.4197 51.5141 32.0871Z" fill="black"/>
<path d="M63.6242 20.1477C65.0471 20.5404 66.4684 20.9385 67.8883 21.3417C68.0424 21.3852 68.1965 21.4288 68.3553 21.4737C68.7406 21.5836 69.1247 21.6964 69.5087 21.8107C69.7215 21.8732 69.9343 21.9356 70.1536 21.9999C70.3066 22.0641 70.4597 22.1283 70.6173 22.1945C70.7017 22.4478 70.7017 22.4478 70.7879 22.7062C70.6195 22.8377 70.451 22.9691 70.2775 23.1046C70.0568 23.2774 69.836 23.4502 69.6153 23.623C69.5042 23.7096 69.3932 23.7962 69.2788 23.8855C69.1722 23.969 69.0655 24.0526 68.9556 24.1386C68.8083 24.2539 68.8083 24.2539 68.6579 24.3714C68.377 24.594 68.377 24.594 68.0589 24.9235C67.521 24.8979 67.2678 24.8083 66.8649 24.4471C66.7523 24.3123 66.6398 24.1776 66.5238 24.0387C66.3938 23.8872 66.2639 23.7357 66.13 23.5796C66.0584 23.4956 65.9867 23.4116 65.9129 23.3251C65.444 22.7868 64.9536 22.2682 64.4663 21.7467C64.2724 21.5384 64.0786 21.3301 63.8847 21.1218C63.7424 20.9692 63.6002 20.8166 63.4536 20.6594C63.5099 20.4905 63.5662 20.3217 63.6242 20.1477ZM64.6476 21.0005C65.0281 21.7617 65.5683 22.2806 66.1713 22.8647C66.5023 23.1964 66.8017 23.5387 67.0994 23.9001C67.2472 24.069 67.3949 24.2378 67.5472 24.4118C67.6597 24.4118 67.7723 24.4118 67.8883 24.4118C67.6465 23.8571 67.3552 23.5055 66.9182 23.0899C66.3162 22.5066 65.7692 21.8968 65.2352 21.251C65.1539 21.1684 65.0725 21.0857 64.9887 21.0005C64.8761 21.0005 64.7635 21.0005 64.6476 21.0005ZM65.8415 21.3417C66.6252 22.2625 67.4238 23.169 68.2294 24.0707C68.451 23.9161 68.671 23.7593 68.8904 23.6016C69.013 23.5146 69.1357 23.4275 69.2621 23.3378C69.612 23.0315 69.742 22.7811 69.9351 22.365C69.3491 22.1934 68.7626 22.0232 68.1761 21.8533C67.9263 21.7801 67.9263 21.7801 67.6714 21.7054C67.5115 21.6593 67.3515 21.6131 67.1867 21.5655C67.0393 21.5226 66.8919 21.4798 66.7401 21.4356C66.3367 21.3215 66.3367 21.3215 65.8415 21.3417Z" fill="black"/>
<path d="M43.4976 17.5893C43.4628 17.897 43.4628 17.897 43.3271 18.2715C42.9768 18.5444 42.9768 18.5444 42.5195 18.8052C42.3546 18.9007 42.1897 18.9963 42.0198 19.0947C41.8462 19.1924 41.6725 19.2902 41.4935 19.3909C41.3224 19.4892 41.1514 19.5876 40.9751 19.689C40.6551 19.873 40.3345 20.0561 40.0132 20.2381C39.579 20.4864 39.1498 20.7418 38.7218 21.0006C38.3787 20.5579 38.0383 20.1132 37.6984 19.668C37.6008 19.5421 37.5032 19.4163 37.4026 19.2866C37.3103 19.1651 37.2179 19.0436 37.1228 18.9185C37.037 18.8068 36.9513 18.6952 36.8629 18.5801C36.675 18.2715 36.675 18.2715 36.675 17.7598C41.2379 17.5562 41.2379 17.5562 43.4976 17.5893ZM37.3573 18.101C37.6116 18.6609 37.9349 19.1125 38.3167 19.5934C38.4245 19.7297 38.5322 19.866 38.6432 20.0065C38.7254 20.1094 38.8077 20.2123 38.8924 20.3183C39.005 20.2057 39.1175 20.0932 39.2335 19.9772C38.9534 19.664 38.6726 19.3513 38.3914 19.0391C38.2715 18.9048 38.2715 18.9048 38.1492 18.7679C37.9456 18.5424 37.7371 18.3213 37.5279 18.101C37.4716 18.101 37.4153 18.101 37.3573 18.101ZM38.0396 18.101C38.7856 18.9737 38.7856 18.9737 39.5746 19.8066C40.2609 19.5533 40.8731 19.2269 41.5042 18.8578C41.6864 18.7521 41.8687 18.6463 42.0565 18.5374C42.1943 18.4496 42.3322 18.3619 42.4742 18.2715C42.4742 18.2152 42.4742 18.159 42.4742 18.101C41.0108 18.101 39.5474 18.101 38.0396 18.101Z" fill="black"/>
<path d="M57.3134 33.4517C57.8445 33.686 58.1892 33.9507 58.5846 34.3738C58.6902 34.4866 58.7957 34.5994 58.9044 34.7156C59.0126 34.8332 59.1208 34.9508 59.2322 35.072C59.343 35.1897 59.4539 35.3073 59.568 35.4285C60.3835 36.3074 60.3835 36.3074 60.3835 36.6924C58.4336 36.7575 56.5209 36.5578 54.5844 36.3513C54.7271 35.5748 55.1835 35.2119 55.757 34.7096C55.8495 34.626 55.9421 34.5425 56.0375 34.4564C56.4486 34.0885 56.8537 33.7581 57.3134 33.4517ZM57.3134 33.9634C56.6379 34.5544 56.6379 34.5544 55.9489 35.1573C56.8747 35.7745 57.9416 35.6879 59.019 35.669C58.8636 35.4799 58.707 35.2918 58.55 35.104C58.4629 34.9991 58.3758 34.8942 58.2861 34.7862C57.9554 34.4137 57.9554 34.4137 57.3134 33.9634ZM55.4372 35.669C55.3809 35.7816 55.3246 35.8941 55.2666 36.0101C55.8858 36.0101 56.5049 36.0101 57.1428 36.0101C57.1428 35.9538 57.1428 35.8976 57.1428 35.8396C56.58 35.7833 56.0171 35.727 55.4372 35.669ZM57.1428 36.0101C57.1428 36.0664 57.1428 36.1227 57.1428 36.1807C57.5931 36.1807 58.0434 36.1807 58.5073 36.1807C58.5073 36.1244 58.5073 36.0681 58.5073 36.0101C58.057 36.0101 57.6068 36.0101 57.1428 36.0101ZM58.8485 36.1807C59.5307 36.3513 59.5307 36.3513 59.5307 36.3513L58.8485 36.1807Z" fill="black"/>
<path d="M13.1371 29.1875C13.0359 29.8706 12.8219 30.285 12.2843 30.7226C11.5899 30.7836 10.9232 30.6597 10.2375 30.552C9.9586 30.5111 9.67965 30.4702 9.40069 30.4294C8.82789 30.3435 8.25547 30.2556 7.68372 30.1629C7.56366 30.1435 7.4436 30.124 7.3199 30.104C6.9968 30.0403 6.9968 30.0403 6.48511 29.8698C6.48511 29.7572 6.48511 29.6446 6.48511 29.5286C7.71921 29.346 8.94895 29.3029 10.1949 29.2621C10.4027 29.2548 10.6104 29.2474 10.8245 29.2398C11.5959 29.213 12.3652 29.1875 13.1371 29.1875ZM11.2609 29.6992C11.2609 29.7555 11.2609 29.8118 11.2609 29.8698C11.6549 29.8698 12.0489 29.8698 12.4549 29.8698C12.4549 29.8135 12.4549 29.7572 12.4549 29.6992C12.0609 29.6992 11.6669 29.6992 11.2609 29.6992Z" fill="black"/>
<path d="M71.4702 38.3982C72.4834 38.3982 73.4966 38.3982 74.5404 38.3982C74.5404 39.6365 74.5404 40.8748 74.5404 42.1506C74.3153 42.1506 74.0901 42.1506 73.8581 42.1506C73.5144 41.7771 73.2185 41.417 72.92 41.01C72.7584 40.7961 72.5967 40.5822 72.435 40.3683C72.3206 40.2132 72.3206 40.2132 72.2038 40.055C72.0038 39.7915 71.7884 39.54 71.5715 39.2903C71.437 39.102 71.437 39.102 71.2997 38.9099C71.356 38.741 71.4123 38.5722 71.4702 38.3982ZM71.9819 38.9099C72.5664 39.7118 73.1359 40.4474 73.8581 41.1272C73.8581 40.4518 73.8581 39.7764 73.8581 39.0805C73.239 39.0242 72.6199 38.9679 71.9819 38.9099Z" fill="black"/>
<path d="M59.1896 33.9634C59.5207 34.0213 59.8493 34.0932 60.1763 34.1706C60.3759 34.2173 60.5754 34.264 60.781 34.3122C60.9911 34.3624 61.2012 34.4126 61.4176 34.4644C61.7337 34.5388 61.7337 34.5388 62.0562 34.6147C62.5791 34.7378 63.1018 34.8619 63.6243 34.9868C63.3555 35.5515 63.0594 35.9534 62.6222 36.4046C62.5066 36.527 62.3909 36.6495 62.2718 36.7757C61.9186 37.0335 61.9186 37.0335 61.5935 37.0495C61.048 36.7645 60.6787 36.3265 60.277 35.8716C60.1934 35.7804 60.1099 35.6893 60.0238 35.5954C59.6104 35.1363 59.2554 34.708 59.019 34.1339C59.0753 34.0777 59.1316 34.0214 59.1896 33.9634ZM61.0658 34.9868C61.3472 35.3245 61.6287 35.6622 61.9186 36.0102C62.4511 35.7869 62.4511 35.7869 62.7715 35.3279C62.1541 35.1034 61.7318 34.9868 61.0658 34.9868ZM60.5541 35.1573C60.6104 35.3262 60.6667 35.495 60.7247 35.669C60.7247 35.5002 60.7247 35.3313 60.7247 35.1573C60.6684 35.1573 60.6121 35.1573 60.5541 35.1573Z" fill="black"/>
<path d="M73.517 23.2178C75.0147 23.5028 76.4874 23.8119 77.9516 24.2412C77.7149 24.7748 77.4381 25.1421 77.0242 25.5524C76.9224 25.6551 76.8206 25.7577 76.7157 25.8635C76.4166 26.1174 76.4166 26.1174 75.9049 26.2879C75.6023 25.99 75.3004 25.6914 74.9987 25.3925C74.9135 25.3087 74.8283 25.2249 74.7406 25.1386C73.8377 24.2417 73.8377 24.2417 73.517 23.7295C73.517 23.5606 73.517 23.3917 73.517 23.2178ZM74.3698 23.9C74.4824 24.0126 74.5949 24.1252 74.7109 24.2412C74.7109 24.1286 74.7109 24.016 74.7109 23.9C74.5983 23.9 74.4858 23.9 74.3698 23.9ZM75.3932 24.0706C75.8153 24.6616 75.8153 24.6616 76.246 25.2645C76.5871 25.1296 76.5871 25.1296 76.9283 24.9234C76.9845 24.7546 77.0408 24.5857 77.0988 24.4117C76.536 24.2992 75.9731 24.1866 75.3932 24.0706Z" fill="black"/>
<path d="M19.6186 28.8469C19.6186 29.3585 19.6186 29.3585 19.2261 29.8129C19.0562 29.9826 18.8849 30.1509 18.7124 30.318C18.6272 30.4037 18.542 30.4895 18.4543 30.5778C18.0503 30.9759 17.7757 31.2237 17.2307 31.4053C16.6678 30.7862 16.1049 30.167 15.525 29.5291C15.5813 29.3603 15.6376 29.1914 15.6956 29.0174C16.1895 28.9887 16.6834 28.9603 17.1774 28.9321C17.3863 28.9199 17.3863 28.9199 17.5994 28.9075C18.2734 28.8693 18.9432 28.8358 19.6186 28.8469ZM16.3778 29.3585C16.5778 29.9278 16.7512 30.3434 17.2307 30.7231C17.3432 30.7231 17.4558 30.7231 17.5718 30.7231C17.3718 30.1538 17.1985 29.7382 16.719 29.3585C16.6064 29.3585 16.4938 29.3585 16.3778 29.3585ZM17.4012 29.3585C17.5138 29.5837 17.6264 29.8088 17.7424 30.0408C18.2754 30.0983 18.2754 30.0983 18.6272 29.6997C18.7292 29.5871 18.8312 29.4745 18.9363 29.3585C18.4297 29.3585 17.9232 29.3585 17.4012 29.3585Z" fill="black"/>
<path d="M28.1468 18.1006C27.5846 19.2458 27.5846 19.2458 27.1114 19.4378C26.3891 19.4772 25.7443 19.3139 25.0447 19.1453C24.9049 19.1134 24.7652 19.0815 24.6213 19.0487C23.5985 18.8113 23.5985 18.8113 23.2004 18.6123C23.2004 18.4997 23.2004 18.3871 23.2004 18.2711C24.1202 18.1262 25.0321 18.0461 25.9615 17.994C26.0968 17.9852 26.2321 17.9764 26.3715 17.9673C26.5025 17.9598 26.6334 17.9524 26.7683 17.9447C26.8858 17.9377 27.0032 17.9307 27.1242 17.9236C27.4886 17.9304 27.7977 17.9995 28.1468 18.1006ZM26.4412 18.4417C26.4412 18.498 26.4412 18.5543 26.4412 18.6123C26.7789 18.6123 27.1166 18.6123 27.4646 18.6123C27.4646 18.556 27.4646 18.4997 27.4646 18.4417C27.1268 18.4417 26.7891 18.4417 26.4412 18.4417Z" fill="black"/>
<path d="M64.483 35.5132C64.8875 35.7013 65.1363 35.9252 65.4471 36.2447C65.5498 36.3481 65.6524 36.4514 65.7582 36.5579C66.0121 36.863 66.0121 36.863 66.1827 37.3747C65.463 37.5882 64.8248 37.4894 64.0932 37.3854C63.9662 37.3683 63.8391 37.3513 63.7081 37.3337C63.3957 37.2917 63.0835 37.2481 62.7714 37.2041C62.7714 36.6924 62.7714 36.6924 63.0459 36.3753C63.1664 36.2689 63.2868 36.1625 63.411 36.0528C63.5297 35.9447 63.6484 35.8365 63.7708 35.725C64.1359 35.4985 64.1359 35.4985 64.483 35.5132ZM64.3064 36.0102C64.1939 36.1228 64.0813 36.2353 63.9653 36.3513C64.1905 36.295 64.4156 36.2387 64.6476 36.1808C64.535 36.1245 64.4224 36.0682 64.3064 36.0102ZM64.477 36.863C64.477 36.9193 64.477 36.9756 64.477 37.0336C64.7584 37.0336 65.0399 37.0336 65.3298 37.0336C65.3298 36.9773 65.3298 36.921 65.3298 36.863C65.0484 36.863 64.767 36.863 64.477 36.863Z" fill="black"/>
<path d="M78.8891 24.7672C79.404 24.9552 79.6183 25.1752 79.9665 25.5947C80.0696 25.7159 80.1727 25.837 80.279 25.9618C80.5102 26.2876 80.5102 26.2876 80.5102 26.6288C79.3561 26.6482 78.2436 26.6083 77.0989 26.4582C77.1962 25.8707 77.378 25.6015 77.8238 25.211C77.9232 25.1202 78.0225 25.0293 78.1249 24.9358C78.4634 24.7526 78.4634 24.7526 78.8891 24.7672ZM78.4634 25.2643C78.4071 25.3768 78.3508 25.4894 78.2928 25.6054C78.5743 25.6054 78.8557 25.6054 79.1457 25.6054C79.0894 25.4928 79.0331 25.3802 78.9751 25.2643C78.8062 25.2643 78.6374 25.2643 78.4634 25.2643ZM77.7811 25.9465C77.7811 26.0028 77.7811 26.0591 77.7811 26.1171C78.1189 26.1171 78.4566 26.1171 78.8045 26.1171C78.8045 26.0608 78.8045 26.0045 78.8045 25.9465C78.4668 25.9465 78.1291 25.9465 77.7811 25.9465Z" fill="black"/>
<path d="M14.6603 29.2088C15.1129 29.401 15.3418 29.6496 15.6637 30.0196C15.7703 30.1388 15.8769 30.258 15.9868 30.3808C16.0596 30.4938 16.1324 30.6068 16.2073 30.7232C16.151 30.8921 16.0948 31.0609 16.0368 31.2349C15.1362 31.0661 14.2356 30.8972 13.3077 30.7232C13.4778 30.0428 13.8196 29.156 14.6603 29.2088ZM14.3311 29.6998C14.2186 29.925 14.106 30.1501 13.99 30.3821C14.452 30.6131 14.8444 30.5637 15.3545 30.5527C15.1361 30.2614 14.908 29.9772 14.6723 29.6998C14.5597 29.6998 14.4471 29.6998 14.3311 29.6998Z" fill="black"/>
</g>
<defs>
<radialGradient id="paint0_radial_1966_59" cx="0" cy="0" r="1" gradientUnits="userSpaceOnUse" gradientTransform="translate(47.5 47.5) rotate(90) scale(47.5)">
<stop offset="0.466346" stop-color="white"/>
<stop offset="1" stop-color="white" stop-opacity="0.5"/>
</radialGradient>
<clipPath id="clip0_1966_59">
<rect width="95" height="95" fill="white"/>
</clipPath>
</defs>
</svg>
