<svg width="95" height="95" viewBox="0 0 95 95" fill="none" xmlns="http://www.w3.org/2000/svg">
<g clip-path="url(#clip0_2003_469)">
<path d="M47.5 0.0185547C63.0859 0.0185547 78.6669 0.0123698 94.243 0C94.8757 0 95.0018 0.124316 95 0.758887C94.9814 31.9196 94.9814 63.0804 95 94.2411C95 94.8757 94.8757 95 94.243 95C63.0822 94.979 31.9209 94.979 0.758887 95C0.124316 95 0 94.8757 0 94.2411C0.0197917 63.0804 0.0197917 31.9196 0 0.758887C0 0.124316 0.120605 0 0.758887 0C16.3399 0.0222656 31.9202 0.0284505 47.5 0.0185547Z" fill="url(#paint0_radial_2003_469)"/>
<path d="M47.2286 77.1756C47.1377 78.4911 46.8464 79.7899 46.9225 81.1259C46.9522 81.6361 47.0895 81.8235 47.6201 81.8124C49.0711 81.7809 50.5258 81.8328 51.9768 81.7846C52.6169 81.7642 52.9973 81.9182 53.4092 82.4804C54.6116 84.1206 55.9456 85.6644 57.2129 87.2582C57.4244 87.5235 57.9143 87.8575 57.5265 88.1767C57.0571 88.5645 56.8641 87.9429 56.6414 87.6738C55.3853 86.1505 54.1533 84.6067 52.9119 83.0704C52.7041 82.8125 52.5408 82.5138 52.1215 82.5138C48.6685 82.5249 45.2155 82.5138 41.5286 82.5138C41.9109 82.9183 42.1465 83.1762 42.3933 83.423C43.723 84.7552 45.0547 86.0862 46.3881 87.4159C46.5978 87.6256 46.9448 87.8742 46.6275 88.1804C46.3102 88.4865 46.0708 88.121 45.8704 87.915C44.2488 86.3064 42.6178 84.7051 41.0258 83.0686C40.8524 82.8785 40.6384 82.7298 40.3998 82.6334C40.1612 82.5371 39.904 82.4955 39.6472 82.5119C37.5153 82.5416 35.3796 82.5212 33.2514 82.5323C32.9898 82.5323 32.7059 82.4414 32.3571 82.6956L36.7415 87.0634C36.9382 87.2489 37.1386 87.453 37.3204 87.6627C37.3905 87.7249 37.4344 87.8114 37.4433 87.9046C37.4523 87.9979 37.4256 88.0911 37.3687 88.1655C37.1831 88.3752 36.9753 88.3047 36.812 88.1377C34.9281 86.2662 33.0485 84.3909 31.1733 82.5119C31.0397 82.3802 30.9358 82.2188 31.0471 82.0184C31.1992 81.7438 31.472 81.805 31.7095 81.8031C33.3479 81.8031 34.9863 81.766 36.6228 81.8031C37.365 81.8235 37.6785 81.5953 37.647 80.8179C37.6117 79.9273 37.7045 79.0311 37.7045 78.1386C37.7045 63.2107 37.7045 48.2835 37.7045 33.3568C37.7045 31.9819 37.5858 32.2046 38.8994 32.1879C39.8457 32.1768 40.7939 32.1879 41.9016 32.1879C40.2484 29.4307 38.6768 26.807 37.0143 24.0238C37.8474 24.0238 38.5413 23.9793 39.226 24.0368C39.9107 24.0943 40.0535 23.8513 40.0461 23.2074C40.0109 19.3536 40.0461 15.498 39.9867 11.6442C39.9756 10.8556 40.2094 10.67 40.9646 10.6942C42.7662 10.7517 42.7662 10.7127 42.7662 12.4884C42.7662 16.036 42.7866 19.5818 42.7495 23.1295C42.7495 23.8439 42.9499 24.022 43.642 23.9663C44.5512 23.8921 45.4697 23.9478 46.4883 23.9478C45.0522 26.6642 43.6327 29.3435 42.1242 32.1935H46.839C47.0468 32.5052 46.941 32.854 46.9429 33.1824C46.9503 37.7593 46.9503 42.3416 46.9429 46.9296C46.9109 47.5736 47.0145 48.2171 47.2472 48.8185C47.3381 49.0393 47.4754 49.2489 47.4327 49.5031C47.3409 50.2982 47.3 51.0983 47.3103 51.8985C47.3103 58.7019 47.3103 65.5053 47.3103 72.3087C47.3412 73.512 47.2885 74.716 47.1526 75.912C47.084 76.3336 47.1099 76.7652 47.2286 77.1756Z" fill="black"/>
<path d="M47.2287 77.1756C47.1359 77.2183 46.9968 77.4094 46.9597 77.2721C46.9165 76.9991 46.9078 76.7217 46.9337 76.4464C46.9337 68.0177 46.9337 59.5883 46.9337 51.1583C46.9337 50.5775 46.9894 49.9967 47.019 49.4141C46.956 49.2675 47.0302 49.0783 46.8836 48.9558C46.8836 43.7754 46.8836 38.5937 46.8836 33.4107C46.8836 33.0118 46.8576 32.611 46.8428 32.2102C47.2139 32.5646 47.0599 33.0229 47.0617 33.4348C47.0729 38.2405 47.0729 43.0517 47.0617 47.8685C47.405 47.7999 47.3419 47.5104 47.4458 47.3304C47.5979 47.0466 47.6907 46.7347 47.7186 46.4138C47.8299 46.1021 47.9449 45.7923 48.0488 45.4861C48.0608 45.2245 48.1646 44.9755 48.342 44.7829C48.1323 44.5138 48.3197 44.2596 48.3717 43.9999C48.6314 43.7475 48.5702 43.3764 48.7149 43.0833C48.8059 42.7975 48.7539 42.4468 49.086 42.2687C48.8856 41.7622 49.2716 41.3762 49.3588 40.9272C49.4534 40.5153 49.5443 40.0997 49.8282 39.7694C49.6835 38.6691 50.3663 37.784 50.6094 36.784C50.8524 36.5483 50.8302 36.1549 51.1178 35.9471C51.1345 35.7282 51.153 35.5074 51.1697 35.2866C51.4194 34.8841 51.6212 34.4538 51.7709 34.0045C51.9564 33.5462 52.1958 33.1138 52.4166 32.6741C52.5929 32.509 52.7265 32.2789 53.0159 32.2882C53.9437 32.3976 54.825 32.008 55.7472 32.1026C57.4356 32.2176 59.1278 32.1954 60.8182 32.1991C61.0594 32.1991 61.3748 32.1434 61.4843 32.3995C61.5937 32.6555 61.3247 32.8374 61.1577 33.0044C60.7439 33.4144 60.358 33.8505 59.9294 34.2457L59.8162 34.6279C59.5713 34.7686 59.3578 34.9581 59.1891 35.1845C59.1223 35.5556 58.6881 35.6985 58.6139 36.0696C58.4125 36.2571 58.2722 36.5008 58.2112 36.7691L57.8401 37.1847C57.5451 37.4965 57.4208 37.8935 57.2724 38.2795L57.0775 38.3834C56.7213 39.2295 56.122 39.9661 55.9643 40.8957L55.5523 41.8679C55.1818 42.5686 54.8965 43.3111 54.7025 44.0797C54.6079 44.4025 54.5318 44.7346 54.2906 44.9907C54.5374 45.9852 54.0698 46.8462 53.7674 47.7331C53.5317 48.0671 53.7247 48.555 53.3666 48.8464C53.3666 48.9094 53.3666 48.9744 53.3666 49.0319C53.3766 49.4145 53.3137 49.7955 53.181 50.1545V50.1285C52.9955 50.4773 53.1569 50.9505 52.81 51.2418C52.9102 51.4273 53.0957 51.5906 52.8563 51.7984C52.591 52.1213 52.8044 52.6241 52.4389 52.9117V53.1325C52.3776 53.5129 52.3925 53.9062 52.2533 54.2717L52.2199 54.8024C51.9546 55.1308 52.0344 55.565 51.86 55.9268L51.8488 56.4723C51.5835 56.8007 51.6633 57.2349 51.4889 57.5967L51.4777 58.1423C51.1938 58.582 51.205 59.096 51.1066 59.5839V59.8122C50.6929 60.2111 50.9935 60.8754 50.563 61.2669C50.897 61.6528 50.55 62.0276 50.5463 62.408C50.2123 62.716 50.3607 63.1743 50.19 63.5324C50.19 63.7179 50.1808 63.8923 50.1771 64.0723C49.9117 64.4007 49.9915 64.8349 49.8189 65.1856L49.8078 65.7274C49.5443 66.015 49.5295 66.3731 49.5258 66.7349C49.2846 67.0448 49.4441 67.4549 49.2623 67.7814L49.2493 68.3214C48.9098 68.7463 49.1064 69.3697 48.7094 69.7742C49.0434 70.1583 48.6945 70.5331 48.6927 70.9116C48.3587 71.2215 48.5071 71.6816 48.3346 72.0434L48.3234 72.5778C48.0618 72.8654 48.0451 73.2235 48.0414 73.5835C47.8002 73.8933 47.9598 74.3034 47.7779 74.6281L47.7668 75.1699C47.5816 75.4711 47.4846 75.8182 47.4866 76.1718C47.2491 76.4761 47.4031 76.8788 47.225 77.1979L47.2287 77.1756Z" fill="#B2B2B2"/>
<path d="M53.7229 31.8576L46.8242 31.377L52.7877 22.8641C53.3295 23.6731 53.5763 24.5174 53.9232 25.3078C54.0902 25.6789 54.2739 25.7958 54.697 25.6678C57.1796 24.9256 59.4581 23.8123 61.436 22.1182C65.0857 18.9918 64.9447 15.1918 61.0297 12.3919C58.4005 10.5141 55.3501 9.74412 52.2181 9.25799C50.999 9.07244 49.7633 8.99451 48.535 8.88689C47.6276 8.80525 47.0506 8.24861 47.0506 7.43592C47.0454 7.24083 47.0812 7.04682 47.1555 6.86636C47.2298 6.68591 47.341 6.52299 47.482 6.38809C47.6231 6.25318 47.7907 6.14927 47.9743 6.08304C48.1579 6.0168 48.3533 5.98971 48.5479 6.0035C53.2497 6.23914 57.816 7.04256 61.924 9.5159C63.902 10.7053 65.4494 12.2991 66.3308 14.4811C67.4849 17.3478 67.008 19.9974 65.1266 22.3854C62.8592 25.2688 59.7457 26.9629 56.4059 28.245C55.6433 28.5363 55.4392 28.7553 55.8808 29.5067C56.3465 30.2953 56.6638 31.1766 57.046 32.0097C56.8883 32.2046 56.6638 32.1823 56.4485 32.1953C55.5275 32.2364 54.606 32.1222 53.7229 31.8576Z" fill="black"/>
<path d="M56.4597 32.0452L57.0386 32.0173H61.9742C62.0076 32.099 62.0391 32.1806 62.0707 32.2604C61.3285 32.9005 60.8331 33.7763 59.9257 34.2513C60.2467 33.5796 60.8999 33.1714 61.4751 32.3569H55.7435C55.7214 32.3254 55.7111 32.287 55.7145 32.2487C55.7179 32.2103 55.7347 32.1744 55.7621 32.1472C55.9866 32.0544 56.2426 32.1769 56.4597 32.0452Z" fill="#4C4C4C"/>
<path d="M54.2795 45.0019C54.6803 43.9536 54.6952 42.7494 55.5413 41.8792C55.2462 42.8069 54.9475 43.7346 54.6581 44.6716C54.6437 44.7623 54.5979 44.8451 54.5288 44.9055C54.4596 44.9659 54.3713 45 54.2795 45.0019Z" fill="#3A3A3A"/>
<path d="M56.4597 32.0451L55.7472 32.2306C55.2481 32.3215 54.749 32.4032 54.2628 32.1787L53.7229 31.8577C54.6395 31.75 55.5394 32.0525 56.4597 32.0451Z" fill="#B9B9B9"/>
<path d="M55.9495 40.9068C55.9495 39.903 56.5395 39.1627 57.0627 38.3945C56.9347 39.339 56.3335 40.0756 55.9495 40.9068Z" fill="#3B3B3B"/>
<path d="M54.2609 32.1658L55.7452 32.2177C55.7452 32.2641 55.7452 32.3086 55.7452 32.3532L52.795 32.4255C52.7449 32.3791 52.7301 32.3346 52.7487 32.2938C52.7672 32.253 52.7876 32.2307 52.8043 32.2307L54.2609 32.1658Z" fill="#141414"/>
<path d="M51.7263 34.0583C51.7412 34.5612 51.6354 35.0102 51.1697 35.2941C51.2717 34.8414 51.3552 34.3775 51.7486 34.0639L51.7263 34.0583Z" fill="#434343"/>
<path d="M48.7131 69.7741C48.9284 69.3028 48.7335 68.6794 49.2531 68.3213C49.0842 68.8074 49.2698 69.429 48.7131 69.7741Z" fill="#181818"/>
<path d="M51.1104 59.5801C50.9824 59.0346 51.038 58.5374 51.4815 58.1384C51.4278 58.6343 51.3028 59.1199 51.1104 59.5801Z" fill="#181818"/>
<path d="M51.7263 34.0582H51.7449C51.7152 33.5424 52.0399 33.1676 52.2681 32.7594C52.2855 32.7409 52.3064 32.7261 52.3297 32.716C52.353 32.7059 52.3782 32.7007 52.4036 32.7007C52.429 32.7007 52.4541 32.7059 52.4774 32.716C52.5007 32.7261 52.5217 32.7409 52.539 32.7594C52.2718 33.2029 52.1512 33.7261 51.7263 34.0582Z" fill="#3A3A3A"/>
<path d="M49.8265 39.7732L49.4034 40.8995H49.3125C49.3626 40.4727 49.2698 39.9754 49.8265 39.7732Z" fill="#3A3A3A"/>
<path d="M50.5686 61.2577C50.7913 60.7882 50.602 60.1667 51.1123 59.803C50.7671 60.2297 51.1958 60.9404 50.5686 61.2577Z" fill="#171717"/>
<path d="M48.1287 45.5252C48.0452 45.848 48.0526 46.2043 47.7817 46.4529L47.7223 46.605L47.6462 46.4603C47.6547 46.1245 47.7618 45.7986 47.9542 45.5233C48.0099 45.3897 48.0693 45.3897 48.1287 45.5252Z" fill="#3B3B3B"/>
<path d="M58.5229 35.9917C58.6677 35.6267 58.9503 35.3335 59.3097 35.1753L58.5396 36.2886C58.519 36.2702 58.5022 36.248 58.4901 36.2231C58.4781 36.1982 58.4711 36.1712 58.4696 36.1436C58.468 36.116 58.4719 36.0884 58.4811 36.0623C58.4903 36.0363 58.5045 36.0123 58.5229 35.9917Z" fill="#4F4F4F"/>
<path d="M51.1141 35.9546C50.9879 36.2607 51.0343 36.6689 50.6057 36.7914C50.6818 36.4556 50.6094 36.0307 51.1141 35.9546Z" fill="#525252"/>
<path d="M49.3106 40.9031H49.4015C49.2957 41.3614 49.1881 41.8178 49.0823 42.2761C48.6908 41.7417 49.1454 41.3465 49.3106 40.9031Z" fill="#363636"/>
<path d="M51.4963 57.5968C51.4963 57.1812 51.4202 56.7452 51.8563 56.4724C51.7728 56.8602 51.7839 57.2777 51.4963 57.5968Z" fill="#191919"/>
<path d="M57.2613 38.2888C57.1945 37.7916 57.4227 37.4464 57.829 37.1941C57.7436 37.6041 57.5472 37.9828 57.2613 38.2888Z" fill="#3E3E3E"/>
<path d="M49.8264 65.1931C49.8264 64.7793 49.7411 64.3415 50.1845 64.0798C50.0992 64.4509 50.1159 64.8684 49.8264 65.1931Z" fill="#181818"/>
<path d="M53.1663 50.1638C53.094 49.7667 53.2368 49.4068 53.3519 49.0413C53.5931 49.4736 53.4094 49.828 53.1663 50.1638Z" fill="#1B1B1B"/>
<path d="M51.8674 55.9306C51.8674 55.5149 51.7913 55.0808 52.2274 54.8062C52.1439 55.1939 52.155 55.6114 51.8674 55.9306Z" fill="#191919"/>
<path d="M52.4241 52.9265C52.5651 52.5554 52.5113 52.1138 52.8416 51.8132C52.7098 52.1899 52.951 52.702 52.4241 52.9265Z" fill="#181818"/>
<path d="M52.2385 54.2625C52.1736 53.8618 52.3035 53.4925 52.4241 53.1233C52.491 53.3135 52.5091 53.5175 52.4767 53.7166C52.4443 53.9157 52.3624 54.1034 52.2385 54.2625Z" fill="#191919"/>
<path d="M52.7952 51.2603C52.9547 50.9003 52.8935 50.4643 53.1663 50.147C53.1106 50.5348 53.3258 51.0265 52.7952 51.2603Z" fill="#181818"/>
<path d="M47.6461 46.4622C47.6911 46.4687 47.7367 46.4687 47.7816 46.4622C47.8191 46.6246 47.8076 46.7946 47.7485 46.9505C47.6893 47.1064 47.5853 47.2412 47.4495 47.3379L47.6461 46.4622Z" fill="#202020"/>
<path d="M50.1976 63.5231C50.1976 63.1093 50.1049 62.6696 50.5539 62.3987C50.3832 62.7568 50.4852 63.204 50.1976 63.5231Z" fill="#171717"/>
<path d="M49.2698 67.7906C49.2161 67.3963 49.2861 66.995 49.4702 66.6421C49.5166 66.5122 49.5648 66.5122 49.613 66.6421C49.4739 67.0095 49.5425 67.4474 49.2698 67.7906Z" fill="#171717"/>
<path d="M48.342 72.0435C48.3308 71.626 48.2399 71.1825 48.7001 70.9116C48.5275 71.2734 48.6314 71.7225 48.342 72.0435Z" fill="#202020"/>
<path d="M53.3518 48.865C53.4965 48.4939 53.4576 48.0653 53.7526 47.7517C53.6524 48.1228 53.8806 48.6275 53.3518 48.865Z" fill="#191919"/>
<path d="M47.7853 74.6282C47.7337 74.2345 47.8036 73.8344 47.9857 73.4815C48.034 73.3535 48.0804 73.3535 48.1286 73.4815C47.9876 73.8582 48.0618 74.2961 47.7853 74.6282Z" fill="#171717"/>
<path d="M47.4143 76.0717C47.4143 75.7266 47.3921 75.3722 47.7631 75.1699L47.5628 76.0717C47.5201 76.1645 47.47 76.1645 47.4143 76.0717Z" fill="#171717"/>
<path d="M47.4142 76.0715H47.5626C47.4532 76.4426 47.5181 76.8768 47.2212 77.1978C47.1594 76.8114 47.2273 76.4153 47.4142 76.0715Z" fill="#202020"/>
<path d="M48.7131 43.0906C48.754 43.4617 48.6964 43.7808 48.3699 44.0072C48.4033 43.6695 48.4237 43.3318 48.7131 43.0906Z" fill="#1F1F1F"/>
<path d="M49.6074 66.6328H49.4646C49.4646 66.2839 49.4442 65.9333 49.8097 65.7273L49.6074 66.6328Z" fill="#161616"/>
<path d="M59.317 35.1753C59.215 34.7467 59.4803 34.6558 59.8199 34.6335C59.6789 34.8414 59.5675 35.0714 59.317 35.1753Z" fill="#4E4E4E"/>
<path d="M48.1231 73.4815H47.9802C47.9802 73.1327 47.9598 72.7838 48.3253 72.5779C48.2585 72.8785 48.1899 73.1716 48.1231 73.4815Z" fill="#161616"/>
<path d="M52.5392 32.7707H52.2683C52.4038 32.5517 52.4539 32.253 52.799 32.24V32.4348L52.5392 32.7707Z" fill="#474747"/>
<path d="M48.1288 45.5251H47.9543C47.971 45.2227 47.9321 44.8906 48.3384 44.783C48.2698 45.0353 48.1993 45.2802 48.1288 45.5251Z" fill="#212121"/>
<path d="M58.523 35.9917L58.5471 36.2923L58.2075 36.7803C58.0851 36.4333 58.3207 36.2162 58.523 35.9917Z" fill="#464646"/>
<path d="M46.8835 48.9559C47.0097 48.9058 47.0394 48.5848 47.1507 48.7128C47.3511 48.9355 47.1099 49.1841 47.019 49.4142C46.9745 49.262 46.9281 49.1099 46.8835 48.9559Z" fill="#151515"/>
</g>
<defs>
<radialGradient id="paint0_radial_2003_469" cx="0" cy="0" r="1" gradientUnits="userSpaceOnUse" gradientTransform="translate(47.5 47.5) rotate(90) scale(47.5 47.5)">
<stop offset="0.4" stop-color="white"/>
<stop offset="1" stop-color="white" stop-opacity="0.5"/>
</radialGradient>
<clipPath id="clip0_2003_469">
<rect width="95" height="95" fill="white"/>
</clipPath>
</defs>
</svg>
