<svg width="25" height="25" viewBox="0 0 25 25" fill="none" xmlns="http://www.w3.org/2000/svg">
<path d="M12.4512 5.81058C12.6536 5.68689 12.7783 5.71017 12.9883 5.81058C13.1533 5.97583 13.1534 6.11293 13.1542 6.34081C13.1546 6.37447 13.1549 6.40814 13.1552 6.44282C13.1561 6.55559 13.156 6.66832 13.1559 6.78109C13.1563 6.86194 13.1568 6.94279 13.1574 7.02363C13.1587 7.24314 13.1592 7.46264 13.1595 7.68215C13.1599 7.91154 13.1612 8.14093 13.1624 8.37032C13.1645 8.80471 13.1659 9.2391 13.1671 9.67349C13.1684 10.168 13.1705 10.6626 13.1727 11.1571C13.1773 12.1744 13.1808 13.1917 13.1836 14.209L13.3484 20.0494C13.2745 20.7391 13.2027 21.4289 13.1348 22.1192C13.1764 22.1186 13.2181 22.1181 13.261 22.1175C13.654 22.1126 14.047 22.1089 14.44 22.1065C14.642 22.1053 14.844 22.1035 15.046 22.1008C15.2411 22.0981 15.4361 22.0966 15.6311 22.096C15.7055 22.0956 15.7798 22.0947 15.8541 22.0934C15.9584 22.0916 16.0626 22.0913 16.1669 22.0915C16.2262 22.0909 16.2855 22.0904 16.3466 22.0898C16.5487 22.1275 16.6169 22.2092 16.748 22.3633C17.0198 22.6178 17.3007 22.8575 17.593 23.0879C17.7715 23.231 17.9456 23.379 18.1193 23.5277C18.2506 23.6398 18.3828 23.7498 18.5192 23.8556C18.5682 23.8939 18.6171 23.9322 18.6676 23.9716C18.7338 24.0221 18.7338 24.0221 18.8013 24.0736C18.8965 24.17 18.8965 24.17 18.8965 24.3653C18.6585 24.3442 18.5243 24.2261 18.3533 24.0723C18.2967 24.0229 18.2401 23.9736 18.1835 23.9243C18.1555 23.8997 18.1275 23.8751 18.0986 23.8497C17.9842 23.7503 17.8668 23.6549 17.749 23.5596C17.5025 23.359 17.26 23.154 17.0181 22.9477C16.9915 22.9259 16.9649 22.9041 16.9375 22.8817C16.8457 22.8028 16.8457 22.8028 16.7369 22.694C16.4253 22.402 16.2044 22.3133 15.7787 22.3135C15.7136 22.3158 15.6484 22.3181 15.5832 22.3204C15.515 22.3212 15.4468 22.3219 15.3786 22.3223C15.2009 22.3239 15.0234 22.3282 14.8457 22.3331C14.6637 22.3377 14.4817 22.3397 14.2997 22.3419C13.9439 22.3465 13.5882 22.354 13.2324 22.3633C13.2692 22.3934 13.306 22.4234 13.3439 22.4544C13.3921 22.4938 13.4404 22.5333 13.4902 22.574C13.5381 22.6131 13.5859 22.6522 13.6352 22.6925C13.7872 22.8172 13.9373 22.9438 14.0869 23.0713C14.284 23.2388 14.482 23.4049 14.682 23.5688C14.7248 23.6039 14.7676 23.639 14.8117 23.6752C14.9012 23.747 14.9918 23.8174 15.0833 23.8865C15.1505 23.9377 15.1505 23.9377 15.2191 23.9899C15.2596 24.0199 15.3001 24.05 15.3418 24.0809C15.4297 24.17 15.4297 24.17 15.4297 24.3653C15.2195 24.3396 15.1129 24.2736 14.9536 24.1364C14.9069 24.0968 14.8602 24.0572 14.8121 24.0164C14.7862 23.9943 14.7604 23.9722 14.7337 23.9494C14.6059 23.8409 14.4761 23.735 14.3464 23.6289C14.0004 23.3455 13.6574 23.0589 13.3171 22.7688C13.273 22.7317 13.229 22.6945 13.1836 22.6563C13.1412 22.6193 13.0987 22.5823 13.055 22.5441C12.899 22.4319 12.7858 22.454 12.5977 22.461C12.5493 22.4287 12.501 22.3965 12.4512 22.3633C12.3258 22.3491 12.3258 22.3491 12.1835 22.3522C12.1014 22.3522 12.1014 22.3522 12.0177 22.3523C11.9586 22.3528 11.8996 22.3533 11.8387 22.3538C11.7782 22.3539 11.7178 22.3541 11.6554 22.3542C11.4948 22.3547 11.3342 22.3555 11.1736 22.3566C11.0096 22.3576 10.8456 22.3581 10.6816 22.3586C10.36 22.3596 10.0384 22.3613 9.7168 22.3633C9.7501 22.3899 9.7834 22.4165 9.81771 22.4438C9.86152 22.4788 9.90533 22.5138 9.95046 22.5499C9.99383 22.5845 10.0372 22.6191 10.0819 22.6548C10.23 22.774 10.3749 22.896 10.5194 23.0194C10.7164 23.187 10.9143 23.3532 11.1145 23.5169C11.1572 23.5519 11.2 23.587 11.244 23.6231C11.3384 23.6994 11.4337 23.7744 11.5297 23.8486C11.579 23.8872 11.6283 23.9257 11.6791 23.9655C11.7241 24 11.7691 24.0346 11.8155 24.0702C11.9141 24.17 11.9141 24.17 11.9141 24.3653C11.7327 24.3391 11.6264 24.2993 11.4868 24.181C11.4534 24.1531 11.42 24.1252 11.3856 24.0964C11.3505 24.0663 11.3154 24.0362 11.2793 24.0052C11.2243 23.9589 11.2243 23.9589 11.1683 23.9118C11.0584 23.8192 10.9491 23.7261 10.8398 23.6329C10.781 23.583 10.7221 23.5332 10.6632 23.4835C10.5844 23.4169 10.5055 23.3502 10.4269 23.2834C10.0624 22.9739 9.69594 22.6696 9.30576 22.3929C9.22852 22.3145 9.22852 22.3145 9.22852 22.1192C9.34256 22.0622 9.40929 22.0642 9.5363 22.064C9.57988 22.0639 9.62345 22.0637 9.66835 22.0636C9.73944 22.0637 9.73944 22.0637 9.81197 22.0639C9.86104 22.0638 9.9101 22.0638 9.96065 22.0637C10.065 22.0637 10.1694 22.0638 10.2738 22.064C10.4311 22.0642 10.5884 22.064 10.7457 22.0637C10.8475 22.0637 10.9492 22.0638 11.051 22.0639C11.0971 22.0638 11.1432 22.0637 11.1907 22.0636C11.4632 22.0645 11.7338 22.0761 12.0056 22.0952C12.0392 22.0975 12.0728 22.0998 12.1074 22.1021C12.1895 22.1078 12.2715 22.1135 12.3535 22.1192C12.3535 22.0852 12.3534 22.0511 12.3534 22.0161C12.3512 20.001 12.3495 17.986 12.3485 15.9709C12.3484 15.7292 12.3483 15.4874 12.3482 15.2456C12.3481 15.1974 12.3481 15.1493 12.3481 15.0997C12.3476 14.3196 12.3469 13.5395 12.346 12.7595C12.3451 11.9594 12.3445 11.1593 12.3443 10.3593C12.3442 9.86535 12.3438 9.37142 12.343 8.87749C12.3425 8.53907 12.3423 8.20066 12.3424 7.86224C12.3425 7.66681 12.3424 7.47138 12.3419 7.27595C12.3414 7.09716 12.3414 6.91838 12.3417 6.73959C12.3418 6.64401 12.3413 6.54842 12.3409 6.45284C12.3412 6.36807 12.3412 6.36807 12.3415 6.28158C12.3415 6.2327 12.3414 6.18383 12.3414 6.13347C12.354 6.00057 12.3788 5.92202 12.4512 5.81058Z" fill="white"/>
<path d="M12.8555 1C12.8716 1.58008 12.8877 2.16016 12.9043 2.75781C12.9365 2.7417 12.9687 2.72559 13.002 2.70898C13.069 2.70166 13.1364 2.69686 13.2038 2.69353C13.2431 2.69149 13.2824 2.68944 13.323 2.68734C13.3641 2.68542 13.4052 2.6835 13.4475 2.68152C13.489 2.67941 13.5305 2.6773 13.5732 2.67513C13.6757 2.66994 13.7783 2.66503 13.8809 2.66016C13.8172 2.86838 13.7373 3.04962 13.6306 3.23923C13.5852 3.32039 13.5852 3.32039 13.5389 3.4032C13.5064 3.4607 13.4739 3.51819 13.4414 3.57568C13.4083 3.63459 13.3753 3.69352 13.3423 3.75246C13.2764 3.8701 13.2104 3.98767 13.1442 4.10519C13.0156 4.33411 12.8882 4.56368 12.7609 4.79333C12.7218 4.86372 12.6827 4.9341 12.6436 5.00448C12.6168 5.05263 12.5901 5.10078 12.5625 5.15039C12.398 5.09557 12.3862 5.07611 12.301 4.93505C12.279 4.89933 12.257 4.86361 12.2344 4.82681C12.2107 4.78756 12.1871 4.74832 12.1627 4.70789C11.8866 4.25911 11.5967 3.8208 11.3012 3.38456C11.2691 3.33685 11.237 3.28914 11.2039 3.23999C11.1752 3.19757 11.1464 3.15514 11.1168 3.11143C11.0488 3.00195 11.0488 3.00195 11 2.85547C11.117 2.85414 11.234 2.85318 11.351 2.85242C11.3838 2.85201 11.4167 2.8516 11.4506 2.85118C11.6325 2.85029 11.7997 2.86069 11.9766 2.9043C11.973 2.844 11.9695 2.7837 11.9659 2.72157C11.9348 2.16329 11.9217 1.60792 11.9277 1.04883C12.2207 1 12.2207 1 12.8555 1ZM12.2207 1.29297C12.2147 1.9298 12.2293 2.56166 12.2695 3.19727C12.0278 3.18115 11.7861 3.16504 11.5371 3.14844C11.7195 3.4885 11.9223 3.80843 12.1383 4.12805C12.1698 4.17498 12.2013 4.2219 12.2338 4.27024C12.3106 4.3847 12.3877 4.49904 12.4648 4.61328C12.6029 4.44861 12.7133 4.2851 12.8147 4.09582C12.856 4.01901 12.856 4.01901 12.8982 3.94065C12.9405 3.86121 12.9405 3.86121 12.9836 3.78015C13.0265 3.70042 13.0265 3.70042 13.0702 3.61908C13.2349 3.31232 13.2349 3.31232 13.3926 3.00195C13.3265 3.0006 13.2603 2.99967 13.1942 2.9989C13.139 2.99805 13.139 2.99805 13.0826 2.99718C12.9233 3.00305 12.7688 3.0263 12.6113 3.05078C12.6116 3.01662 12.6118 2.98245 12.6121 2.94725C12.6131 2.7895 12.6138 2.63175 12.6144 2.474C12.6148 2.42028 12.6152 2.36656 12.6156 2.31121C12.6166 1.96888 12.6004 1.63322 12.5625 1.29297C12.4497 1.29297 12.3369 1.29297 12.2207 1.29297Z" fill="white"/>
<path d="M14 0C14.2589 0.0264223 14.4763 0.0911476 14.7141 0.198364C14.748 0.21351 14.7819 0.228655 14.8168 0.24426C15.6643 0.632993 16.4687 1.21391 16.832 2.09961C17.007 2.58076 16.9704 3.12967 16.7775 3.59974C16.3698 4.41865 15.6182 4.83309 14.7881 5.12066C14.6431 5.16047 14.6431 5.16047 14.5859 5.22461C14.6418 5.24645 14.6976 5.26829 14.7551 5.29079C14.8279 5.32056 14.9007 5.35038 14.9735 5.38025C15.0104 5.39451 15.0472 5.40876 15.0852 5.42345C15.1857 5.46538 15.2769 5.50542 15.3672 5.56641C15.4162 5.70011 15.4162 5.70011 15.416 5.81055C15.114 5.84554 14.8886 5.7219 14.6226 5.59692C14.5781 5.57678 14.5337 5.55664 14.4879 5.53589C14.1609 5.38547 14.1609 5.38547 14.0488 5.27344C14.0641 5.09181 14.1646 4.97318 14.2716 4.83093C14.3066 4.78404 14.3416 4.73715 14.3777 4.68884C14.4142 4.64005 14.4507 4.59127 14.4883 4.54102C14.59 4.39977 14.6915 4.25832 14.7929 4.11682C14.866 4.0209 14.9327 3.93442 15.0254 3.85742C15.1322 3.87268 15.1322 3.87268 15.2207 3.90625C15.1911 4.0588 15.1426 4.15692 15.0496 4.28085C15.0135 4.32948 15.0135 4.32948 14.9767 4.37908C14.9388 4.42903 14.9388 4.42903 14.9003 4.47998C14.8749 4.51403 14.8495 4.54808 14.8233 4.58317C14.7607 4.66698 14.6978 4.75051 14.6348 4.83398C15.0863 4.69094 15.4692 4.52861 15.8555 4.24805C15.8881 4.22501 15.9207 4.20197 15.9543 4.17824C16.2879 3.92035 16.5334 3.5051 16.6133 3.09124C16.672 2.51511 16.5545 2.06698 16.1973 1.61133C16.1774 1.583 16.1576 1.55468 16.1372 1.5255C15.6526 0.884338 14.7482 0.474344 14 0.244141C14 0.163574 14 0.0830078 14 0Z" fill="white"/>
<path d="M12.8663 21.8929C12.7222 18.1689 13.6638 9.88561 18.5829 6.54457" stroke="#8A8A8A" stroke-width="0.8"/>
</svg>
