<svg width="95" height="95" viewBox="0 0 95 95" fill="none" xmlns="http://www.w3.org/2000/svg">
<rect width="95" height="95" rx="20" fill="url(#paint0_radial_2033_95)"/>
<path d="M47.9362 75.7361C47.8526 76.9502 47.5845 78.1473 47.6562 79.3785C47.6818 79.8481 47.8065 80.024 48.2948 80.012C49.6029 79.983 50.9127 80.0359 52.2224 79.9864C52.8748 79.9625 53.2709 80.1367 53.6791 80.6951C54.789 82.2046 56.0134 83.6305 57.1831 85.0974C57.3642 85.3245 57.7467 85.6097 57.4239 85.8846C57.0278 86.2261 56.8467 85.7224 56.6572 85.4901C55.4875 84.0608 54.3348 82.6162 53.1753 81.1766C52.984 80.9393 52.8338 80.6643 52.4495 80.6643C49.2716 80.6643 46.0937 80.6643 42.6972 80.6643C43.2692 81.2535 43.7047 81.7111 44.1487 82.1585C45.1511 83.1677 46.162 84.1684 47.1627 85.1776C47.3522 85.3706 47.675 85.5943 47.3932 85.8812C47.1114 86.1681 46.8809 85.8402 46.6982 85.6507C45.1852 84.1462 43.6808 82.635 42.1695 81.1322C41.9748 80.9376 41.8194 80.6712 41.4864 80.6712H34.0872L37.844 84.4177C38.1258 84.6978 38.4093 84.9796 38.6859 85.263C38.8703 85.4526 39.0701 85.6814 38.8003 85.9119C38.58 86.0998 38.3802 85.8983 38.218 85.7412L36.4779 83.9994C35.4328 82.9531 34.3883 81.9064 33.3444 80.859C33.1736 80.6882 32.9004 80.5294 33.037 80.2238C33.1736 79.9181 33.4759 80.0137 33.7201 80.012C35.2262 80.0035 36.7341 79.9932 38.2402 80.012C38.8191 80.0205 39.1384 79.8891 39.1111 79.2128C39.077 78.4188 39.1675 77.623 39.1692 76.8221C39.1692 62.9742 39.164 49.1263 39.1538 35.2784C39.1538 34.4861 39.3041 34.2129 40.1613 34.2368C42.6323 34.3034 45.1135 34.2641 47.581 34.2675C47.7723 34.5544 47.6767 34.8754 47.6767 35.1777C47.6835 39.4047 47.6835 43.6306 47.6767 47.8553C47.6475 48.4496 47.7429 49.0435 47.9567 49.5988C48.0404 49.802 48.1668 49.9933 48.1275 50.2306C48.0429 50.9629 48.0053 51.6998 48.0148 52.4369C48.0148 58.7074 48.0148 64.9779 48.0148 71.2484C48.0148 72.3583 48.0284 73.4683 47.8713 74.5731C47.8059 74.9608 47.8281 75.3581 47.9362 75.7361Z" fill="black"/>
<path d="M47.9365 75.7364C47.8511 75.7774 47.723 75.9532 47.6889 75.8269C47.6491 75.575 47.6411 75.3191 47.665 75.0653C47.665 67.292 47.665 59.5188 47.665 51.7456C47.665 51.2094 47.7162 50.6732 47.7435 50.137C47.6855 50.0021 47.7538 49.8279 47.6189 49.7152C47.6189 44.9338 47.6189 40.1524 47.6189 35.371C47.6189 35.0021 47.595 34.6333 47.5813 34.2644C47.9228 34.5906 47.7811 35.0141 47.7828 35.3932C47.793 39.8251 47.793 44.2616 47.7828 48.7026C48.0987 48.6394 48.0407 48.373 48.1363 48.2074C48.2772 47.9428 48.3626 47.6523 48.3873 47.3535C48.4898 47.065 48.5956 46.7798 48.6913 46.4997C48.7062 46.2649 48.8015 46.0424 48.9611 45.8696C48.7681 45.622 48.9406 45.388 48.9884 45.149C49.2275 44.915 49.1711 44.5735 49.3043 44.2951C49.388 44.0322 49.3402 43.7077 49.6458 43.5455C49.4614 43.0776 49.8166 42.7207 49.8969 42.3057C49.984 41.9283 50.0591 41.5441 50.3289 41.2385C50.1957 40.2241 50.8241 39.4079 51.0478 38.4874C51.2715 38.2706 51.251 37.9068 51.5157 37.7156C51.5311 37.5124 51.5482 37.3092 51.5635 37.1059C51.7934 36.7343 51.979 36.3372 52.1168 35.9225C52.2876 35.5008 52.5062 35.1029 52.7111 34.6965C52.8733 34.5445 52.9963 34.331 53.2626 34.3396C54.1165 34.442 54.9276 34.0834 55.7746 34.1688C57.3303 34.273 58.8859 34.2542 60.4433 34.2576C60.6653 34.2576 60.9556 34.2064 61.0564 34.442C61.1571 34.6777 60.9095 34.845 60.7541 34.9987C60.3733 35.3761 60.0198 35.7791 59.6253 36.1445L59.5212 36.4963C59.2959 36.626 59.0995 36.8003 58.944 37.0086C58.8825 37.3501 58.4829 37.4816 58.4146 37.8249C58.2289 37.9978 58.0998 38.2228 58.0441 38.4704L57.6923 38.8682C57.4225 39.1551 57.3081 39.5223 57.1714 39.8775L56.9921 39.9731C56.6643 40.7535 56.1127 41.4331 55.9676 42.2904L55.5885 43.1869C55.2477 43.833 54.9851 44.5175 54.8064 45.2258C54.7193 45.5229 54.6493 45.8303 54.4273 46.066C54.6544 46.983 54.224 47.7736 53.944 48.595C53.7288 48.9041 53.9064 49.3532 53.5769 49.6196C53.5769 49.6794 53.5769 49.7391 53.5769 49.7989C53.5842 50.1481 53.5262 50.4955 53.4061 50.8235V50.8013C53.2353 51.1223 53.3839 51.5578 53.0646 51.8259C53.1568 51.9966 53.3275 52.1469 53.1072 52.3382C52.8631 52.6353 53.0594 53.0981 52.723 53.3628C52.723 53.4225 52.723 53.484 52.723 53.5438C52.6684 53.8938 52.682 54.2559 52.5523 54.594L52.542 55.096C52.2978 55.3983 52.3627 55.7996 52.2107 56.1326L52.2005 56.6312C51.9563 56.9335 52.0212 57.3365 51.8692 57.6677L51.859 58.1681C51.5977 58.5728 51.6079 59.0475 51.5174 59.4966C51.5174 59.5666 51.5174 59.635 51.5174 59.7033C51.1383 60.0721 51.4133 60.6834 51.0188 61.0455C51.3262 61.4007 51.0051 61.7473 51.0034 62.0974C50.696 62.3809 50.8327 62.8043 50.6756 63.1339C50.6756 63.3047 50.667 63.4652 50.6636 63.6309C50.4194 63.9348 50.4843 64.3344 50.334 64.6674L50.3238 65.166C50.0813 65.4324 50.0676 65.762 50.0642 66.095C49.8422 66.3819 49.9891 66.761 49.8217 67.0598L49.8098 67.5584C49.4973 67.9495 49.6783 68.5267 49.3129 68.8989C49.6202 69.2524 49.2992 69.5974 49.2975 69.9474C48.9901 70.2326 49.1267 70.6578 48.9679 70.9908L48.9577 71.4826C48.7169 71.749 48.7015 72.0786 48.6981 72.4116C48.4761 72.6968 48.623 73.0759 48.4556 73.3747L48.4454 73.8733C48.2749 74.1518 48.1855 74.4724 48.1875 74.7989C47.9689 75.0789 48.1107 75.4495 47.9467 75.7432L47.9365 75.7364Z" fill="#B2B2B2"/>
<path d="M53.913 33.9467L47.564 33.5045L53.0523 25.6493C53.551 26.3938 53.7781 27.1725 54.0974 27.9017C54.2511 28.2534 54.4202 28.3508 54.8095 28.2432C57.0926 27.5601 59.1913 26.5355 61.0117 24.9679C64.3706 22.0854 64.2392 18.5813 60.6377 16.0011C58.218 14.2678 55.4106 13.5574 52.5281 13.11C51.4062 12.9392 50.2689 12.8675 49.1384 12.7685C48.3034 12.6916 47.7723 12.1793 47.7723 11.4314C47.7687 11.2519 47.8026 11.0737 47.872 10.9081C47.9413 10.7426 48.0445 10.5933 48.1749 10.47C48.3053 10.3467 48.46 10.252 48.6292 10.192C48.7984 10.132 48.9782 10.108 49.1572 10.1216C53.4844 10.3368 57.6852 11.0796 61.4676 13.3662C63.2863 14.4625 64.7122 15.9396 65.5233 17.9461C66.5838 20.5895 66.1449 23.0315 64.415 25.2343C62.3266 27.8931 59.4629 29.4556 56.3891 30.6373C55.6872 30.9054 55.4994 31.1069 55.9058 31.8002C56.3344 32.5294 56.6265 33.3371 56.9782 34.1107C56.8331 34.2814 56.6265 34.2678 56.4284 34.2814C55.5771 34.3114 54.7268 34.1983 53.913 33.9467Z" fill="black"/>
<path d="M47.3132 22.1452L43.1551 30.0107L38.5872 22.4133C38.9867 22.2084 39.3283 22.3057 39.6544 22.3074C41.3177 22.3074 41.316 22.3074 41.3126 20.692C41.304 17.4475 41.3126 14.2029 41.2733 10.9584C41.2733 10.248 41.3792 9.96285 42.1869 10.0038C43.8279 10.0858 43.8313 10.0312 43.8313 11.6893C43.8313 14.9338 43.8535 18.1784 43.8126 21.4229C43.8126 22.1657 44.038 22.3484 44.7313 22.2767C45.5356 22.1794 46.3518 22.1862 47.3132 22.1452Z" fill="black"/>
<path d="M56.4333 34.1194L56.9661 34.0955H61.5084L61.5972 34.3192C60.9141 34.9083 60.4582 35.716 59.6232 36.1549C59.9186 35.535 60.5197 35.1593 61.049 34.408H55.7741C55.7537 34.3789 55.7443 34.3437 55.7474 34.3084C55.7505 34.273 55.766 34.24 55.7912 34.215C55.9978 34.1279 56.2335 34.2423 56.4333 34.1194Z" fill="#4C4C4C"/>
<path d="M54.4253 46.0676C54.7941 45.101 54.8078 43.9911 55.5865 43.1885C55.315 44.0423 55.0383 44.8961 54.7737 45.7636C54.7605 45.8471 54.7183 45.9233 54.6547 45.9788C54.591 46.0344 54.5098 46.0658 54.4253 46.0676Z" fill="#3A3A3A"/>
<path d="M56.4336 34.1191L55.7778 34.2899C55.3185 34.3736 54.8591 34.4487 54.4117 34.2404L53.8994 33.9535C54.7669 33.8476 55.5866 34.126 56.4336 34.1191Z" fill="#B9B9B9"/>
<path d="M55.9622 42.2919C55.9622 41.3663 56.5052 40.6833 56.9867 39.9746C56.8706 40.8455 56.3173 41.5252 55.9622 42.2919Z" fill="#3B3B3B"/>
<path d="M54.41 34.2336L55.7762 34.2832C55.7762 34.3241 55.7762 34.3668 55.7762 34.4078L53.0576 34.471C53.0115 34.4283 52.9978 34.3873 53.0149 34.3481C53.032 34.3088 53.049 34.2917 53.0661 34.2917L54.41 34.2336Z" fill="#141414"/>
<path d="M52.0772 35.9773C52.0909 36.4401 51.9936 36.855 51.5649 37.1163C51.6589 36.6996 51.7357 36.2625 52.0977 35.9824L52.0772 35.9773Z" fill="#434343"/>
<path d="M51.5084 59.5102C51.3922 59.0098 51.4435 58.5505 51.8499 58.1816C51.8017 58.6388 51.6866 59.0864 51.5084 59.5102Z" fill="#181818"/>
<path d="M49.3027 68.9128C49.5008 68.4773 49.3215 67.9018 49.7997 67.5723C49.6443 68.0214 49.815 68.5934 49.3027 68.9128Z" fill="#181818"/>
<path d="M52.0771 35.9769H52.0942C52.0669 35.5005 52.3657 35.1555 52.5758 34.7816C52.5924 34.7651 52.6123 34.7523 52.6341 34.7439C52.656 34.7355 52.6793 34.7316 52.7027 34.7326C52.726 34.7335 52.749 34.7393 52.77 34.7495C52.7911 34.7597 52.8098 34.7741 52.8251 34.7918C52.5792 35.188 52.4682 35.6713 52.0771 35.9769Z" fill="#3A3A3A"/>
<path d="M50.327 41.2488L49.9377 42.2836H49.854C49.9018 41.8926 49.8147 41.4298 50.327 41.2488Z" fill="#3A3A3A"/>
<path d="M51.01 61.0676C51.2149 60.6338 51.0407 60.06 51.5086 59.7253C51.1944 60.1096 51.5889 60.7653 51.01 61.0676Z" fill="#171717"/>
<path d="M58.3324 37.7584C58.4656 37.4226 58.7257 37.1526 59.0564 37.0071L58.3494 38.0317C58.3303 38.0149 58.3147 37.9945 58.3035 37.9717C58.2922 37.9488 58.2857 37.924 58.2841 37.8986C58.2825 37.8732 58.2859 37.8478 58.2942 37.8237C58.3025 37.7996 58.3155 37.7775 58.3324 37.7584Z" fill="#4F4F4F"/>
<path d="M51.5223 37.7258C51.4062 38.0076 51.4489 38.3833 51.0544 38.4977C51.1159 38.1852 51.0493 37.7958 51.5223 37.7258Z" fill="#525252"/>
<path d="M49.8543 42.2834H49.9379C49.8406 42.7052 49.7416 43.127 49.6442 43.5505C49.2839 43.0604 49.7023 42.6967 49.8543 42.2834Z" fill="#363636"/>
<path d="M48.766 46.5528C48.6892 46.8499 48.696 47.1778 48.4467 47.4066L48.392 47.5467L48.322 47.4117C48.3318 47.1057 48.4302 46.809 48.6055 46.5579C48.6584 46.4264 48.7114 46.4247 48.766 46.5528Z" fill="#3B3B3B"/>
<path d="M50.3269 64.6811C50.3269 64.3003 50.2483 63.8956 50.6564 63.6445C50.5796 64.0014 50.595 64.3874 50.3269 64.6811Z" fill="#181818"/>
<path d="M51.8636 57.6818C51.8636 57.301 51.7936 56.898 52.1949 56.6453C52.1197 57.0039 52.13 57.3881 51.8636 57.6818Z" fill="#191919"/>
<path d="M57.1711 39.8791C57.1096 39.4214 57.3179 39.1038 57.6919 38.8699C57.6138 39.2476 57.4337 39.5966 57.1711 39.8791Z" fill="#3E3E3E"/>
<path d="M52.2054 56.1464C52.2054 55.7639 52.1354 55.3626 52.5367 55.1099C52.4615 55.4668 52.4718 55.851 52.2054 56.1464Z" fill="#191919"/>
<path d="M53.4005 50.8337C53.3339 50.4682 53.4637 50.137 53.5713 49.8091C53.795 50.1916 53.6259 50.5178 53.4005 50.8337Z" fill="#1B1B1B"/>
<path d="M52.547 54.6076C52.4872 54.2387 52.6067 53.8989 52.7177 53.5574C52.7798 53.7327 52.7967 53.9208 52.7668 54.1043C52.737 54.2879 52.6614 54.461 52.547 54.6076Z" fill="#191919"/>
<path d="M48.3221 47.4062C48.3635 47.4123 48.4054 47.4123 48.4468 47.4062C48.4812 47.556 48.4706 47.7126 48.4162 47.8564C48.3618 48.0001 48.2661 48.1245 48.1411 48.214L48.3221 47.4062Z" fill="#202020"/>
<path d="M50.6684 63.1476C50.6684 62.7668 50.5831 62.3604 50.9963 62.1111C50.8392 62.4338 50.9348 62.8522 50.6684 63.1476Z" fill="#171717"/>
<path d="M53.5713 49.6262C53.7045 49.2846 53.6669 48.8902 53.9384 48.6016C53.8496 48.9431 54.058 49.411 53.5713 49.6262Z" fill="#191919"/>
<path d="M49.8149 67.0736C49.7657 66.7101 49.8301 66.3403 49.9993 66.0149C50.042 65.8971 50.0864 65.8971 50.1308 66.0149C50.0045 66.3615 50.0676 66.7663 49.8149 67.0736Z" fill="#171717"/>
<path d="M53.0591 51.8464C53.2059 51.5048 53.1496 51.1121 53.4006 50.8218C53.3511 51.1753 53.5492 51.6244 53.0591 51.8464Z" fill="#181818"/>
<path d="M48.9609 71.0043C48.9507 70.6184 48.867 70.2103 49.2905 69.9609C49.1317 70.2888 49.229 70.7072 48.9609 71.0043Z" fill="#202020"/>
<path d="M48.4488 73.3884C48.4013 73.0255 48.4656 72.6567 48.6332 72.3314C48.6776 72.2118 48.7203 72.2118 48.7647 72.3314C48.6367 72.6797 48.705 73.081 48.4488 73.3884Z" fill="#171717"/>
<path d="M48.1069 74.7288C48.1069 74.4095 48.0864 74.0833 48.428 73.8955L48.2435 74.7271C48.206 74.8023 48.1599 74.8074 48.1069 74.7288Z" fill="#171717"/>
<path d="M48.107 74.729H48.2436C48.1445 75.0705 48.2026 75.4718 47.9294 75.7673C47.8721 75.4111 47.9346 75.0459 48.107 74.729Z" fill="#202020"/>
<path d="M52.7175 53.3832C52.8473 53.0417 52.7978 52.6336 53.1018 52.3586C52.9822 52.7002 53.2042 53.1698 52.7175 53.3832Z" fill="#181818"/>
<path d="M59.0617 37.005C58.9695 36.6088 59.2137 36.5251 59.5262 36.5046C59.3964 36.6993 59.2939 36.9111 59.0617 37.005Z" fill="#4E4E4E"/>
<path d="M49.3022 44.3054C49.3398 44.6469 49.2869 44.9424 48.9863 45.1592C49.0188 44.845 49.0376 44.5274 49.3022 44.3054Z" fill="#1F1F1F"/>
<path d="M50.1273 66.0201H49.9958C49.9958 65.6991 49.977 65.3763 50.3134 65.1851C50.2502 65.4583 50.1888 65.7366 50.1273 66.0201Z" fill="#161616"/>
<path d="M48.7608 72.3382H48.6293C48.6293 72.0172 48.6106 71.6944 48.947 71.5032C48.8855 71.7747 48.8223 72.053 48.7608 72.3382Z" fill="#161616"/>
<path d="M52.825 34.7901L52.5757 34.7799C52.7003 34.5767 52.7464 34.3035 53.0641 34.2915V34.4708L52.825 34.7901Z" fill="#474747"/>
<path d="M48.766 46.5524H48.6055C48.6208 46.2741 48.585 45.9667 48.9589 45.8694C48.8958 46.0982 48.8309 46.3236 48.766 46.5524Z" fill="#212121"/>
<path d="M58.3323 37.7581L58.3545 38.0364L58.042 38.4872C57.9293 38.1611 58.1462 37.9664 58.3323 37.7581Z" fill="#464646"/>
<path d="M47.6204 49.715C47.7365 49.6672 47.7638 49.3735 47.8663 49.4896C48.0507 49.6962 47.8287 49.9233 47.745 50.1368L47.6204 49.715Z" fill="#151515"/>
<defs>
<radialGradient id="paint0_radial_2033_95" cx="0" cy="0" r="1" gradientUnits="userSpaceOnUse" gradientTransform="translate(47.5 47.5) rotate(90) scale(47.5)">
<stop offset="0.4" stop-color="white"/>
<stop offset="1" stop-color="white" stop-opacity="0.5"/>
</radialGradient>
</defs>
</svg>
