<svg width="95" height="95" viewBox="0 0 95 95" fill="none" xmlns="http://www.w3.org/2000/svg">
<g clip-path="url(#clip0_1966_33)">
<circle cx="47.5" cy="47.5" r="47.5" fill="url(#paint0_radial_1966_33)"/>
<path d="M40.3145 21.0802C41.0836 20.6102 41.5576 20.6987 42.3555 21.0802C42.9825 21.7082 42.9829 22.2291 42.9861 23.0951C42.9873 23.223 42.9886 23.3509 42.9898 23.4827C42.9933 23.9112 42.9928 24.3396 42.9923 24.7681C42.994 25.0754 42.9959 25.3826 42.9981 25.6898C43.0032 26.5239 43.0049 27.358 43.006 28.1922C43.0078 29.0639 43.0126 29.9355 43.0172 30.8072C43.0253 32.4579 43.0306 34.1086 43.0348 35.7593C43.0399 37.6385 43.048 39.5177 43.0564 41.397C43.0737 45.2627 43.0869 49.1285 43.0977 52.9943L43.724 75.1877C43.443 77.8085 43.1701 80.4298 42.9121 83.0529C43.0704 83.0508 43.2288 83.0488 43.3919 83.0466C44.8852 83.028 46.3785 83.0139 47.8718 83.0048C48.6396 83 49.4072 82.9934 50.1749 82.9829C50.916 82.9728 51.657 82.9673 52.3982 82.9649C52.6807 82.9631 52.9633 82.9598 53.2457 82.9548C53.642 82.948 54.0379 82.9471 54.4343 82.9476C54.6597 82.9455 54.885 82.9434 55.1172 82.9413C55.8851 83.0847 56.1441 83.3951 56.6426 83.9806C57.6754 84.9475 58.7427 85.8584 59.8534 86.7341C60.5317 87.2777 61.1933 87.8401 61.8535 88.4054C62.3524 88.8314 62.8545 89.2493 63.373 89.6514C63.5591 89.7968 63.7452 89.9422 63.9369 90.0921C64.1884 90.284 64.1884 90.284 64.445 90.4798C64.8066 90.8458 64.8066 90.8458 64.8066 91.588C63.9022 91.5079 63.3925 91.0591 62.7424 90.4748C62.5275 90.2871 62.3125 90.0996 62.0974 89.9123C61.9909 89.8188 61.8844 89.7253 61.7747 89.6289C61.34 89.2513 60.8938 88.8887 60.4463 88.5265C59.5095 87.764 58.588 86.985 57.6689 86.2014C57.5678 86.1185 57.4666 86.0357 57.3624 85.9503C57.0137 85.6505 57.0137 85.6505 56.6001 85.2372C55.4162 84.1274 54.5766 83.7905 52.9592 83.7914C52.7115 83.7999 52.4639 83.8086 52.2163 83.8175C51.9571 83.8207 51.6979 83.823 51.4388 83.8247C50.7635 83.831 50.0888 83.8473 49.4137 83.8659C48.7222 83.8832 48.0305 83.8907 47.3388 83.8991C45.9866 83.9169 44.635 83.9453 43.2832 83.9806C43.4229 84.0948 43.5627 84.2089 43.7066 84.3265C43.8902 84.4766 44.0737 84.6266 44.2628 84.7811C44.4446 84.9297 44.6264 85.0783 44.8138 85.2314C45.3912 85.7055 45.9618 86.1863 46.5303 86.671C47.2791 87.3073 48.0316 87.9384 48.7916 88.5613C48.9543 88.6948 49.1169 88.8282 49.2845 88.9657C49.6244 89.2387 49.9688 89.5061 50.3166 89.7688C50.572 89.9633 50.572 89.9633 50.8326 90.1616C50.9864 90.2757 51.1402 90.3898 51.2987 90.5074C51.6328 90.8458 51.6328 90.8458 51.6328 91.588C50.8342 91.4903 50.429 91.2397 49.8237 90.7183C49.6463 90.5678 49.4688 90.4174 49.2859 90.2624C49.1877 90.1783 49.0894 90.0942 48.9882 90.0075C48.5025 89.5955 48.0091 89.1931 47.5164 88.7897C46.2017 87.7129 44.8983 86.6238 43.605 85.5215C43.4376 85.3804 43.2702 85.2393 43.0977 85.0939C42.9364 84.9533 42.7752 84.8126 42.6091 84.6677C42.0163 84.2412 41.586 84.3252 40.8711 84.3517C40.6874 84.2292 40.5037 84.1068 40.3145 83.9806C39.8381 83.9267 39.8381 83.9267 39.2974 83.9385C38.9855 83.9385 38.9855 83.9385 38.6672 83.9386C38.4428 83.9405 38.2184 83.9424 37.9871 83.9444C37.7573 83.9449 37.5275 83.9454 37.2906 83.946C36.6803 83.9477 36.0699 83.951 35.4595 83.9551C34.8364 83.9589 34.2133 83.9606 33.5902 83.9625C32.3681 83.9666 31.1459 83.9728 29.9238 83.9806C30.0504 84.0816 30.1769 84.1826 30.3073 84.2866C30.4738 84.4195 30.6402 84.5525 30.8117 84.6895C30.9766 84.8211 31.1414 84.9527 31.3112 85.0883C31.8738 85.5411 32.4247 86.0048 32.9738 86.4739C33.7221 87.1108 34.4742 87.7422 35.2351 88.3642C35.3975 88.4974 35.5599 88.6306 35.7272 88.7679C36.0859 89.0575 36.4482 89.3427 36.813 89.6246C37.0003 89.7712 37.1875 89.9178 37.3805 90.0689C37.5515 90.2002 37.7225 90.3315 37.8987 90.4668C38.2734 90.8458 38.2734 90.8458 38.2734 91.588C37.5842 91.4887 37.1804 91.3374 36.6499 90.8879C36.5229 90.7817 36.396 90.6756 36.2651 90.5662C36.1319 90.4518 35.9986 90.3375 35.8613 90.2196C35.6525 90.0439 35.6525 90.0439 35.4394 89.8647C35.022 89.513 34.6066 89.1591 34.1914 88.8048C33.9678 88.6155 33.7441 88.4263 33.5202 88.2373C33.2206 87.9841 32.9211 87.7308 32.622 87.4769C31.237 86.3009 29.8446 85.1446 28.3619 84.093C28.0684 83.7951 28.0684 83.7951 28.0684 83.0529C28.5017 82.8362 28.7553 82.8438 29.2379 82.8433C29.4035 82.8427 29.5691 82.8422 29.7397 82.8416C30.0099 82.8421 30.0099 82.8421 30.2855 82.8427C30.4719 82.8425 30.6584 82.8423 30.8505 82.8421C31.2471 82.842 31.6438 82.8424 32.0404 82.8431C32.6382 82.8441 33.236 82.8432 33.8337 82.842C34.2204 82.8421 34.6071 82.8423 34.9938 82.8427C35.169 82.8423 35.3442 82.8419 35.5247 82.8416C36.5601 82.845 37.5884 82.8892 38.6212 82.9616C38.7489 82.9703 38.8766 82.9791 39.0082 82.9881C39.32 83.0095 39.6317 83.0311 39.9434 83.0529C39.9432 82.9236 39.9431 82.7943 39.9429 82.6611C39.9346 75.0039 39.9283 67.3468 39.9244 59.6896C39.9239 58.7708 39.9235 57.852 39.923 56.9332C39.9229 56.7502 39.9228 56.5673 39.9227 56.3789C39.9211 53.4145 39.9181 50.4502 39.9147 47.4859C39.9113 44.4457 39.9092 41.4055 39.9084 38.3653C39.9079 36.4883 39.9063 34.6114 39.9033 32.7345C39.9014 31.4485 39.9008 30.1625 39.9012 28.8765C39.9015 28.1339 39.9011 27.3913 39.8991 26.6486C39.8973 25.9692 39.8972 25.2898 39.8985 24.6104C39.8987 24.2472 39.8971 23.884 39.8955 23.5208C39.8966 23.1987 39.8966 23.1987 39.8977 22.87C39.8976 22.6843 39.8974 22.4985 39.8973 22.3072C39.9453 21.8022 40.0395 21.5037 40.3145 21.0802Z" fill="black"/>
<path d="M43.0508 3C43.112 5.2043 43.1732 7.40859 43.2363 9.67969C43.3588 9.61846 43.4812 9.55723 43.6074 9.49414C43.8623 9.4663 44.1182 9.44805 44.3743 9.43543C44.5237 9.42766 44.6732 9.41989 44.8272 9.41188C44.9834 9.40458 45.1396 9.39729 45.3005 9.38977C45.4582 9.38176 45.6158 9.37375 45.7782 9.36549C46.1678 9.34579 46.5575 9.3271 46.9473 9.30859C46.7055 10.0998 46.4017 10.7886 45.9963 11.5091C45.8238 11.8175 45.8238 11.8175 45.6478 12.1322C45.5243 12.3506 45.4008 12.5691 45.2773 12.7876C45.1517 13.0115 45.0262 13.2354 44.9008 13.4593C44.6503 13.9064 44.3994 14.3532 44.148 14.7997C43.6593 15.6696 43.175 16.542 42.6913 17.4147C42.5427 17.6821 42.3942 17.9496 42.2455 18.217C42.1439 18.4 42.0422 18.583 41.9375 18.7715C41.3125 18.5632 41.2674 18.4892 40.9438 17.9532C40.8603 17.8175 40.7768 17.6817 40.6907 17.5419C40.6008 17.3927 40.5109 17.2436 40.4183 17.09C39.3691 15.3846 38.2675 13.719 37.1447 12.0613C37.0226 11.88 36.9006 11.6987 36.7748 11.512C36.6656 11.3508 36.5563 11.1895 36.4438 11.0235C36.1855 10.6074 36.1855 10.6074 36 10.0508C36.4446 10.0457 36.889 10.0421 37.3336 10.0392C37.4586 10.0376 37.5836 10.0361 37.7123 10.0345C38.4036 10.0311 39.039 10.0706 39.7109 10.2363C39.6975 10.0072 39.6841 9.77806 39.6703 9.54198C39.5521 7.42051 39.5023 5.31008 39.5254 3.18555C40.6387 3 40.6387 3 43.0508 3ZM40.6387 4.11328C40.6157 6.53323 40.6712 8.93432 40.8242 11.3496C39.9058 11.2884 38.9873 11.2271 38.041 11.1641C38.7342 12.4563 39.5049 13.672 40.3256 14.8866C40.4453 15.0649 40.565 15.2432 40.6883 15.4269C40.9804 15.8618 41.2731 16.2963 41.5664 16.7305C42.0909 16.1047 42.5104 15.4834 42.8957 14.7641C43.0528 14.4722 43.0528 14.4722 43.2131 14.1745C43.3739 13.8726 43.3739 13.8726 43.5378 13.5646C43.7007 13.2616 43.7007 13.2616 43.8669 12.9525C44.4926 11.7868 44.4926 11.7868 45.0918 10.6074C44.8406 10.6023 44.5893 10.5988 44.338 10.5958C44.1281 10.5926 44.1281 10.5926 43.914 10.5893C43.3085 10.6116 42.7214 10.7 42.123 10.793C42.124 10.6631 42.125 10.5333 42.126 10.3995C42.1299 9.8001 42.1323 9.20065 42.1346 8.6012C42.1362 8.39705 42.1378 8.19291 42.1394 7.98259C42.1432 6.68175 42.0816 5.40622 41.9375 4.11328C41.5089 4.11328 41.0803 4.11328 40.6387 4.11328Z" fill="black"/>
<path d="M49 0C49.9837 0.100405 50.8099 0.346361 51.7136 0.753784C51.8423 0.811337 51.971 0.86889 52.1037 0.928187C55.3243 2.40537 58.3809 4.61287 59.7617 7.97852C60.4266 9.8069 60.2874 11.8928 59.5544 13.679C58.0051 16.7909 55.1492 18.3657 51.9948 19.4585C51.4439 19.6098 51.4439 19.6098 51.2266 19.8535C51.4387 19.9365 51.6509 20.0195 51.8695 20.105C52.1462 20.2181 52.4228 20.3315 52.6993 20.4449C52.8394 20.4991 52.9794 20.5533 53.1237 20.6091C53.5057 20.7684 53.8522 20.9206 54.1953 21.1523C54.3816 21.6604 54.3816 21.6604 54.3809 22.0801C53.2334 22.2131 52.3767 21.7432 51.3657 21.2683C51.1969 21.1918 51.028 21.1152 50.854 21.0364C49.6113 20.4648 49.6113 20.4648 49.1855 20.0391C49.2437 19.3489 49.6253 18.8981 50.0321 18.3575C50.1651 18.1794 50.2981 18.0012 50.4351 17.8176C50.5738 17.6322 50.7125 17.4468 50.8555 17.2559C51.2421 16.7191 51.6277 16.1816 52.013 15.6439C52.2907 15.2794 52.5442 14.9508 52.8965 14.6582C53.3024 14.7162 53.3024 14.7162 53.6387 14.8438C53.5262 15.4234 53.3417 15.7963 52.9885 16.2672C52.8513 16.452 52.8513 16.452 52.7113 16.6405C52.5676 16.8303 52.5676 16.8303 52.421 17.0239C52.3245 17.1533 52.228 17.2827 52.1286 17.416C51.8908 17.7345 51.6516 18.0519 51.4121 18.3691C53.128 17.8256 54.583 17.2087 56.0508 16.1426C56.1747 16.055 56.2986 15.9675 56.4262 15.8773C57.6941 14.8973 58.6268 13.3194 58.9304 11.7467C59.1538 9.55741 58.7072 7.85454 57.3496 6.12305C57.2743 6.01542 57.1989 5.90778 57.1213 5.79689C55.2798 3.36049 51.843 1.80251 49 0.927734C49 0.621582 49 0.31543 49 0Z" fill="black"/>
<path d="M41.8918 82.1929C41.3443 68.0417 44.9225 36.5654 63.6151 23.8694" stroke="#8A8A8A" stroke-width="3.04"/>
</g>
<defs>
<radialGradient id="paint0_radial_1966_33" cx="0" cy="0" r="1" gradientUnits="userSpaceOnUse" gradientTransform="translate(47.5 47.5) rotate(90) scale(47.5)">
<stop offset="0.466346" stop-color="white"/>
<stop offset="1" stop-color="white" stop-opacity="0.5"/>
</radialGradient>
<clipPath id="clip0_1966_33">
<rect width="95" height="95" fill="white"/>
</clipPath>
</defs>
</svg>
