<svg width="95" height="95" viewBox="0 0 95 95" fill="none" xmlns="http://www.w3.org/2000/svg">
<rect width="95" height="95" rx="20" fill="url(#paint0_radial_2013_57)"/>
<path d="M48.5195 80.0284C48.4967 80.614 48.9557 80.3628 49.1956 80.3666C50.7497 80.3892 52.3037 80.3892 53.8578 80.3666C54.311 80.3666 54.5548 80.4893 54.85 80.8765C56.1298 82.5539 57.4896 84.1707 58.8208 85.8103C58.9598 85.9822 59.1046 86.1503 59.2341 86.3278C59.3636 86.5054 59.4493 86.7472 59.2341 86.9153C59.0189 87.0834 58.817 86.9644 58.6627 86.7755C58.2628 86.2882 57.8641 85.8002 57.4667 85.3116C56.4707 84.0895 55.4708 82.8712 54.4862 81.6396C54.2406 81.3337 54.012 81.107 53.5607 81.1089C50.1326 81.1297 46.7046 81.124 43.2765 81.1297C43.1339 81.1566 42.9942 81.1971 42.8594 81.2505L47.2264 85.5364C47.474 85.7801 47.7216 86.0237 47.9634 86.2731C48.1539 86.4714 48.2796 86.7188 48.0282 86.9247C47.8377 87.0853 47.6149 86.9644 47.4416 86.7925C46.7712 86.1238 46.0951 85.4703 45.421 84.7941L42.1948 81.5962C41.951 81.3544 41.7301 81.1145 41.3187 81.1164C38.7248 81.1315 36.131 81.1164 33.5104 81.1164C33.499 81.5565 33.8285 81.6944 34.0303 81.8984C35.4339 83.3056 36.8547 84.6996 38.264 86.1012C38.4792 86.3165 38.8353 86.5734 38.5001 86.8794C38.1649 87.1854 37.9383 86.8095 37.7269 86.6017C35.9494 84.8514 34.177 83.0972 32.4096 81.3393C32.2192 81.1504 31.903 80.9615 32.0287 80.6423C32.1792 80.2645 32.5677 80.3836 32.8667 80.3817C34.6112 80.3703 36.3557 80.3571 38.1002 80.3817C38.6715 80.3817 38.94 80.2192 38.8829 79.6374C38.8658 79.4486 38.8829 79.2597 38.8829 79.0708V31.5052C38.8829 29.8827 38.8829 29.8827 40.5627 29.8827H43.1908L38.1745 21.5716C38.9896 21.5716 39.6657 21.5244 40.3303 21.5849C41.0654 21.6529 41.3035 21.4338 41.294 20.6688C41.2445 16.7758 41.2787 12.8809 41.2273 8.98609C41.2178 8.20788 41.4178 7.97555 42.2138 8.00199C44.0802 8.06243 44.0802 8.02088 44.0802 9.90786C44.0802 13.4873 44.0993 17.0686 44.065 20.648C44.065 21.3525 44.2307 21.5773 44.9658 21.515C45.9009 21.4356 46.8474 21.4961 47.8987 21.4961L43.4365 29.8827C44.6306 29.8827 45.6895 29.9507 46.7369 29.8638C47.7425 29.7807 48.5157 29.9148 48.7633 31.0349C48.5024 31.4353 48.7309 31.8471 48.7404 32.2513C48.8071 35.0676 48.6738 37.8858 48.8623 40.7021C48.8471 42.0735 48.5862 43.4297 48.5843 44.7972C48.5652 53.7555 48.5621 62.715 48.5748 71.6759C48.5443 74.4601 48.6376 77.2442 48.5195 80.0284Z" fill="black"/>
<path d="M48.4659 40.6287C48.2526 37.6368 48.4126 34.6429 48.3707 31.649C48.3707 31.3752 48.3422 31.0578 48.763 31.0352C48.8012 31.0402 48.8376 31.0541 48.8693 31.0757C48.9011 31.0972 48.9273 31.1259 48.9458 31.1593C48.9643 31.1928 48.9747 31.2301 48.976 31.2682C48.9774 31.3064 48.9696 31.3443 48.9535 31.3789C49.3725 31.7227 49.6639 32.2044 50.1495 32.4801C50.1678 32.4957 50.1817 32.5157 50.1897 32.5383C50.1978 32.5608 50.1996 32.5851 50.1952 32.6086C50.359 33.0657 50.7189 33.3509 51.1036 33.6135C51.1219 33.6302 51.1356 33.6513 51.1433 33.6748C51.1509 33.6983 51.1524 33.7234 51.1474 33.7476C51.2796 34.0981 51.5381 34.3875 51.873 34.5598C51.8899 34.5785 51.902 34.601 51.9083 34.6253C51.9146 34.6496 51.9149 34.6751 51.9092 34.6996C52.0121 35.0358 52.2901 35.2417 52.5091 35.4891C52.6291 35.8102 52.89 36.0293 53.1052 36.273C53.1986 36.6092 53.5052 36.7868 53.6956 37.0531C53.8165 37.3601 54.0283 37.6235 54.3031 37.8087C54.4117 37.9541 54.5183 38.1014 54.625 38.2469C54.6842 38.5194 54.8265 38.7674 55.0326 38.9571C55.0697 39.0713 55.1306 39.1766 55.2113 39.266C55.292 39.3555 55.3907 39.4272 55.5011 39.4765L55.7467 39.9091C55.8305 40.1924 55.9372 40.4625 56.24 40.5891C56.3371 40.7553 56.4304 40.9215 56.5333 41.0877C56.6571 41.4882 56.7828 41.8867 57.196 42.1021C58.1387 43.6887 59.1557 45.2376 59.7271 47.0131C59.7316 47.1215 59.7619 47.2273 59.8155 47.3218C59.8691 47.4164 59.9445 47.497 60.0356 47.5571C60.8284 49.3342 61.4155 51.1946 61.7858 53.1028C61.721 53.3465 61.5954 53.594 61.8487 53.8074C61.9164 53.8933 61.9632 53.9936 61.9853 54.1004C62.0075 54.2073 62.0043 54.3177 61.9762 54.4232C61.8144 55.0144 61.9515 55.6188 61.8944 56.2138C61.7458 56.7521 61.8144 57.2999 61.8334 57.8439L61.7934 58.3671C61.424 58.9149 61.6373 59.6062 61.3402 60.171C61.384 60.4449 61.203 60.6829 61.2145 60.9511C61.2145 61.0361 61.2145 61.1211 61.2145 61.208C61.0692 61.448 60.977 61.7158 60.944 61.9938C60.786 62.2752 60.7821 62.6171 60.5936 62.8853C60.5574 63.2876 60.3117 63.6409 60.3022 64.0432C60.3115 64.065 60.3155 64.0887 60.3138 64.1123C60.3121 64.1359 60.3049 64.1588 60.2927 64.1792C59.8775 64.7062 59.7214 65.3578 59.4281 65.9453C59.1024 66.6385 58.7748 67.3298 58.3825 67.989L58.312 68.2119C58.0457 68.5471 57.8272 68.917 57.6626 69.3113C57.3617 69.6191 57.2017 70.0404 56.8494 70.3048C56.8704 70.7185 56.6323 70.9659 56.3009 71.1567C56.1905 71.5118 55.92 71.7781 55.7772 72.1181C55.6248 72.3656 55.3011 72.4751 55.2344 72.7906C55.0554 73.1268 54.6631 73.3157 54.5755 73.718C54.5862 73.734 54.5904 73.7534 54.5873 73.7724C54.5841 73.7913 54.5737 73.8083 54.5583 73.82C54.2453 73.9992 53.9883 74.2606 53.8156 74.5755L53.827 74.5529C53.5414 75.1006 52.8615 75.3349 52.6843 75.9714C52.5872 76.302 52.2444 76.4191 52.0559 76.6703C51.1817 77.3427 50.4847 78.1984 49.6715 78.9369C49.4506 79.1372 49.3153 79.4658 48.9478 79.4753C49.0278 79.6642 48.9478 79.785 48.7573 79.8417C48.0984 79.8908 48.4069 79.3865 48.4031 79.1485C48.3783 76.8705 48.3898 74.5925 48.3898 72.3146C48.3783 71.7366 48.7307 71.2643 48.8811 70.7317C48.9554 70.6108 49.0182 70.4842 49.0868 70.3539C49.3477 70.012 49.7248 69.774 49.9552 69.4095C50.1457 69.1847 50.298 68.9373 50.4733 68.703C50.5171 68.6256 50.5666 68.5538 50.6161 68.482C51.0584 68.1276 51.4025 67.6674 51.6159 67.1447C51.7873 66.8557 51.9187 66.5459 52.0654 66.2437C52.11 66.1696 52.161 66.0995 52.2177 66.0341C52.6862 65.4938 53.0919 64.9234 53.1852 64.1905C53.2103 64.1072 53.2415 64.0257 53.2785 63.9469C53.589 63.5408 53.608 63.0326 53.7642 62.5736C53.8413 62.376 53.9049 62.1734 53.9546 61.9673C54.0327 61.6443 54.1451 61.3289 54.2384 61.0097C54.3113 60.7908 54.3698 60.5674 54.4136 60.341C54.6955 59.9972 54.764 59.5855 54.8288 59.1586C55.0878 58.1197 55.1849 57.0808 54.7564 56.0665C54.566 55.7227 54.7469 55.3109 54.5431 54.9747C54.402 54.6527 54.2817 54.3221 54.1832 53.9849C54.099 53.4004 53.9717 52.8227 53.8023 52.2566C53.7432 51.9506 53.8213 51.6352 53.7413 51.3311C53.5966 51.0459 53.3166 50.8456 53.2328 50.5245C53.1445 50.0131 52.9393 49.5285 52.6329 49.1079C52.5266 48.589 52.2902 48.105 51.9454 47.7007C51.7302 47.2001 51.3931 46.7562 51.1931 46.2557C50.9532 45.5814 50.8027 44.8749 50.4713 44.2308C50.1533 43.8908 50.06 43.3997 49.6791 43.0975C49.5553 42.4968 49.0144 42.1417 48.7649 41.6147C48.7173 41.4523 48.645 41.2974 48.5897 41.1368C48.5376 40.9703 48.4963 40.8005 48.4659 40.6287Z" fill="#B2B2B2"/>
<path d="M48.4891 71.9198C48.2986 74.3526 48.4377 76.7874 48.4072 79.2203C48.4072 79.4809 48.4662 79.7208 48.7519 79.8247L48.5195 80.0287C48.2244 79.6849 48.2739 79.2731 48.2739 78.8651C48.2739 76.4889 48.2739 74.1127 48.2739 71.7365C48.4662 71.6648 48.5348 71.7309 48.4891 71.9198Z" fill="#0F0F0F"/>
<path d="M48.946 79.458L51.4828 76.9099C51.6409 76.7513 51.797 76.5945 52.0541 76.6568C51.26 77.6258 50.323 78.455 49.4241 79.322C49.2927 79.4486 49.1612 79.6091 48.946 79.458Z" fill="#3E3E3E"/>
<path d="M58.3826 67.9833C58.5345 67.1921 58.9149 66.4617 59.4776 65.881V65.8716C59.2948 66.6706 58.9863 67.4035 58.3826 67.9833Z" fill="#383838"/>
<path d="M59.4739 65.8714V65.8809C59.4967 65.1933 59.6643 64.5776 60.2909 64.1809C60.0966 64.7721 59.95 65.4011 59.4739 65.8714Z" fill="#3F3F3F"/>
<path d="M61.7746 56.2494C61.8374 55.6374 61.6298 54.999 61.965 54.4172C61.965 55.339 61.9599 56.2614 61.9498 57.1844C61.4489 56.9578 61.7936 56.5687 61.7746 56.2494Z" fill="#252525"/>
<path d="M52.6826 75.9581C52.715 75.2025 53.3378 74.9305 53.8253 74.5396C53.6044 75.1402 53.1359 75.5425 52.6826 75.9581Z" fill="#404040"/>
<path d="M61.2622 60.2256C61.4527 59.6099 61.2717 58.8883 61.7897 58.3613C61.5993 58.9695 61.7136 59.6363 61.4241 60.2238C61.3708 60.3598 61.3174 60.3616 61.2622 60.2256Z" fill="#1A1A1A"/>
<path d="M50.1457 32.4799C49.4715 32.4062 49.2697 31.8282 48.9497 31.3787C49.5744 31.5033 49.7648 32.0927 50.1457 32.4799Z" fill="#3D3D3D"/>
<path d="M61.7745 56.2495L61.965 57.1845C62.0077 57.4105 61.9621 57.6442 61.8374 57.838C61.4584 57.3205 61.6412 56.7841 61.7745 56.2495Z" fill="#636363"/>
<path d="M57.5886 69.1675C57.7562 68.7897 57.8343 68.3553 58.3066 68.2061C58.219 68.7047 57.9257 69.0919 57.6229 69.4773C57.5779 69.44 57.5492 69.387 57.5429 69.3292C57.5365 69.2715 57.5529 69.2135 57.5886 69.1675Z" fill="#3F3F3F"/>
<path d="M51.0998 33.6133C50.4923 33.5472 50.2771 33.1373 50.1914 32.6084C50.5742 32.871 50.8275 33.2525 51.0998 33.6133Z" fill="#3E3E3E"/>
<path d="M57.1925 42.0961C56.6212 41.979 56.4612 41.605 56.5298 41.0818L57.1925 42.0961Z" fill="#4D4D4D"/>
<path d="M53.5169 37.0587L53.0294 36.3919C52.9932 36.3492 52.9751 36.2942 52.979 36.2385C52.9829 36.1829 53.0085 36.1309 53.0503 36.0935L53.7778 37.0493C53.6959 37.2023 53.6102 37.2061 53.5169 37.0587Z" fill="#4A4A4A"/>
<path d="M60.2966 64.0373C60.0909 63.5953 60.4337 63.2553 60.5214 62.8662C60.5671 62.7907 60.6147 62.7888 60.6642 62.8662C60.687 63.3007 60.4947 63.669 60.2966 64.0373Z" fill="#161616"/>
<path d="M57.5884 69.1677L57.6227 69.4775C57.4322 69.8175 57.3599 70.2652 56.8438 70.2992C57.0939 69.9239 57.3421 69.5468 57.5884 69.1677Z" fill="#3E3E3E"/>
<path d="M54.5737 73.712C54.5737 73.1813 54.9337 72.9112 55.3546 72.6921L55.4307 72.6826C55.166 73.0472 54.9641 73.4589 54.5737 73.712Z" fill="#3B3B3B"/>
<path d="M51.8692 34.5595C51.3435 34.5369 51.1816 34.1969 51.1436 33.7473C51.4673 33.9475 51.6559 34.2649 51.8692 34.5595Z" fill="#3D3D3D"/>
<path d="M53.0503 36.0933C53.0503 36.1915 53.0369 36.2822 53.0293 36.3917L52.458 35.6362C52.4249 35.5961 52.4075 35.5455 52.4093 35.4937C52.4111 35.4419 52.4317 35.3925 52.4675 35.3547L53.0503 36.0933Z" fill="#424242"/>
<path d="M60.668 62.8643H60.5251C60.6356 62.5483 60.7467 62.2335 60.8584 61.9199C60.9137 61.8236 60.9708 61.8236 61.0279 61.9199C60.9651 62.258 60.9422 62.6075 60.668 62.8643Z" fill="#1F1F1F"/>
<path d="M55.6096 72.0802L56.2952 71.1509C56.4266 71.5834 56.0876 71.812 55.8762 72.0953C55.8587 72.1136 55.8374 72.1278 55.8138 72.1371C55.7901 72.1463 55.7648 72.1504 55.7394 72.1489C55.714 72.1475 55.6893 72.1406 55.6669 72.1287C55.6445 72.1169 55.6249 72.1003 55.6096 72.0802Z" fill="#393939"/>
<path d="M53.812 74.5622C53.8863 74.1447 54.0653 73.8293 54.5548 73.8066C54.3319 74.0881 54.1929 74.4489 53.812 74.5622Z" fill="#393939"/>
<path d="M52.4788 35.3588L52.4674 35.6402C52.2103 35.3682 51.8865 35.134 51.9113 34.6958C52.1599 34.8591 52.3567 35.089 52.4788 35.3588Z" fill="#343434"/>
<path d="M53.5168 37.0586H53.7778L54.2996 37.8141C53.8444 37.7556 53.734 37.3533 53.5168 37.0586Z" fill="#363636"/>
<path d="M55.4975 39.4706C55.1624 39.5065 55.0271 39.2817 54.9262 39.0267C54.9073 39.005 54.8931 38.9797 54.8842 38.9524C54.8754 38.925 54.8723 38.8962 54.8749 38.8677C54.8776 38.8391 54.8861 38.8114 54.8998 38.7861C54.9135 38.7609 54.9322 38.7386 54.9548 38.7207L55.4975 39.4706Z" fill="#4A4A4A"/>
<path d="M56.2362 40.5833C55.7582 40.5833 55.6858 40.2868 55.743 39.9033L56.2362 40.5833Z" fill="#434343"/>
<path d="M61.0241 61.9199H60.8584C60.8338 61.7785 60.8548 61.633 60.9184 61.5042C60.982 61.3753 61.085 61.2696 61.2126 61.2021L61.0241 61.9199Z" fill="#1D1D1D"/>
<path d="M55.6098 72.0803L55.8764 72.0954L55.4251 72.6829L55.347 72.6923C55.1775 72.3807 55.4727 72.2635 55.6098 72.0803Z" fill="#444444"/>
<path d="M61.8451 53.8017C61.4642 53.5996 61.5861 53.3522 61.7822 53.0972L61.8451 53.8017Z" fill="#1B1B1B"/>
<path d="M61.2622 60.2256H61.4298C61.4476 60.354 61.4378 60.4847 61.401 60.609C61.3643 60.7334 61.3014 60.8486 61.2165 60.9471C61.0089 60.6902 61.2584 60.4655 61.2622 60.2256Z" fill="#151515"/>
<path d="M60.032 47.5511C59.6283 47.5379 59.6035 47.3131 59.7235 47.0071L60.032 47.5511Z" fill="#4B4B4B"/>
<path d="M54.9545 38.7207L54.9259 39.0248C54.726 38.802 54.4803 38.5961 54.6174 38.241L54.9545 38.7207Z" fill="#444444"/>
<path d="M48.489 71.9195L48.2814 71.7306C48.27 66.7428 48.2598 61.7542 48.251 56.7651C48.251 51.8074 48.251 46.8498 48.251 41.8921C48.251 41.4615 48.1481 41.0062 48.4624 40.6228C48.5957 40.7739 48.7309 40.925 48.8642 41.078C48.6909 42.0225 48.9651 42.9404 48.9613 43.8773C48.9347 52.2715 48.9347 60.6656 48.9613 69.0598C48.9613 69.6869 48.7709 70.3971 49.4279 70.875C49.192 71.2844 48.8722 71.6402 48.489 71.9195Z" fill="#3F3F3F"/>
<path d="M54.9909 56.4214V55.8869C55.0461 55.749 55.0975 55.7509 55.147 55.8869C55.4432 56.998 55.4432 58.1663 55.147 59.2774C55.0975 59.4191 55.0442 59.421 54.9871 59.2774C54.9871 59.098 54.9871 58.9185 54.9871 58.741C55.082 57.9707 55.0833 57.192 54.9909 56.4214Z" fill="#333333"/>
<path d="M51.7168 46.1478C51.2883 45.4697 50.837 44.801 50.6313 44.0115L50.6199 44.0266C51.2731 44.5876 51.6959 45.2657 51.7168 46.1478Z" fill="#3E3E3E"/>
<path d="M52.5608 66.4551C52.8693 65.6826 52.9626 64.7872 53.8158 64.332C53.3988 65.0385 53.214 65.8828 52.5608 66.4551Z" fill="#3A3A3A"/>
<path d="M50.9341 68.886C51.1436 68.1928 51.6559 67.6885 52.0558 67.1143C52.0816 67.1268 52.104 67.1453 52.1211 67.1683C52.1382 67.1912 52.1494 67.2179 52.1539 67.246C52.1584 67.2742 52.156 67.303 52.1469 67.33C52.1377 67.3571 52.1222 67.3815 52.1015 67.4014C51.7511 67.9265 51.5568 68.5706 50.9341 68.886Z" fill="#393939"/>
<path d="M49.8279 42.8838C49.5555 42.353 48.9461 41.9828 49.0394 41.2764C49.5327 41.7221 49.7879 42.3304 50.1288 42.8781C50.0884 42.9162 50.0351 42.9379 49.9794 42.939C49.9237 42.94 49.8696 42.9203 49.8279 42.8838Z" fill="#313131"/>
<path d="M53.0005 48.8301C52.7682 48.3635 52.3797 47.9537 52.4596 47.3738C52.812 47.7969 53.1795 48.2143 53.0005 48.8301Z" fill="#454545"/>
<path d="M49.8279 42.884H50.1288C50.3516 43.2429 50.7001 43.5489 50.6182 44.0325L50.6297 44.0174C50.1821 43.7624 50.0545 43.2883 49.8279 42.884Z" fill="#424242"/>
<path d="M53.8119 64.2469C53.5471 63.6311 54.0613 63.2061 54.2061 62.6904C54.4765 63.3119 53.9585 63.7312 53.8119 64.2469Z" fill="#383838"/>
<path d="M54.9833 59.2849C55.0366 59.2849 55.09 59.2849 55.1433 59.2849C55.1851 59.7344 55.1198 60.1873 54.9528 60.6071C54.5358 60.1519 54.8843 59.7212 54.9833 59.2849Z" fill="#1F1F1F"/>
<path d="M49.4487 70.5708L50.3857 69.4658C50.4193 69.5066 50.4376 69.5577 50.4376 69.6103C50.4376 69.663 50.4193 69.714 50.3857 69.7548C50.1629 70.1213 50.0029 70.5784 49.4487 70.5708Z" fill="#444444"/>
<path d="M54.8175 54.9369L54.5908 53.8433C55.1469 54.0076 54.926 54.4383 54.9241 54.7877C54.9546 54.8916 54.9241 54.9407 54.8175 54.9369Z" fill="#171717"/>
<path d="M53.9739 51.4103C53.7903 51.1275 53.6852 50.8017 53.6692 50.4658C54.0501 50.564 54.0501 50.9173 54.1586 51.193C54.1015 51.2648 54.1053 51.397 53.9739 51.4103Z" fill="#555555"/>
<path d="M54.8176 54.9368L54.9242 54.7932C55.2651 55.1068 55.1375 55.511 55.1414 55.8906C55.088 55.8906 55.0366 55.8906 54.9852 55.8906C55.0157 55.5563 54.7052 55.2824 54.8176 54.9368Z" fill="#202020"/>
<path d="M54.4176 62.0616C54.3979 61.8905 54.4188 61.7171 54.4787 61.5555C54.5385 61.3938 54.6356 61.2482 54.7623 61.1304C54.8156 61.5006 54.7642 61.8311 54.4176 62.0616Z" fill="#1E1E1E"/>
<path d="M53.9739 51.4104L54.1643 51.1951C54.191 51.5048 54.5605 51.8033 54.1929 52.1263C54.1167 51.8864 54.0443 51.6427 53.9739 51.4104Z" fill="#4A4A4A"/>
<path d="M52.098 67.4013L52.0522 67.1142C52.1169 66.8603 52.2577 66.6317 52.456 66.4587C52.5645 66.8573 52.3227 67.1312 52.098 67.4013Z" fill="#393939"/>
<path d="M50.3933 69.755V69.466C50.5476 69.2394 50.639 68.9542 50.9513 68.8767C50.9551 69.2847 50.6409 69.5019 50.3933 69.755Z" fill="#313131"/>
<path d="M54.9909 56.4214C55.2166 57.1809 55.2166 57.9889 54.9909 58.7485C54.9884 57.9728 54.9884 57.1971 54.9909 56.4214Z" fill="#B2B2B2"/>
<defs>
<radialGradient id="paint0_radial_2013_57" cx="0" cy="0" r="1" gradientUnits="userSpaceOnUse" gradientTransform="translate(47.5 47.5) rotate(90) scale(47.5)">
<stop offset="0.4" stop-color="white"/>
<stop offset="1" stop-color="white" stop-opacity="0.5"/>
</radialGradient>
</defs>
</svg>
