<svg width="95" height="95" viewBox="0 0 95 95" fill="none" xmlns="http://www.w3.org/2000/svg">
<g clip-path="url(#clip0_1966_11)">
<circle cx="47.5" cy="47.5" r="47.5" fill="url(#paint0_radial_1966_11)"/>
<path d="M50.1999 18.273C50.2593 18.4403 50.3188 18.6075 50.3801 18.7798C50.6205 19.3747 50.9007 19.8894 51.2485 20.4414C51.4314 20.7338 51.4314 20.7338 51.6179 21.0321C51.7491 21.2402 51.8803 21.4483 52.0155 21.6627C52.2948 22.111 52.5738 22.5595 52.8526 23.0081C52.9234 23.1219 52.9942 23.2357 53.0671 23.3529C58.6508 32.3258 63.9484 42.1238 65.4898 52.3358C65.514 52.4923 65.5382 52.6488 65.5631 52.81C66.9006 63.1705 61.5652 72.9253 54.35 80.88C53.3085 81.9954 52.2485 83.1038 51.0736 84.115C51.3453 84.0978 51.617 84.0807 51.8969 84.063C54.6495 83.9781 54.6495 83.9781 55.6068 84.5237C56.3049 85.1209 56.7995 85.8418 57.3136 86.562C58.0123 87.4721 58.8793 88.2785 59.7004 89.1054C60.853 90.3006 60.853 90.3006 60.9028 91.1559C60.6145 91.2187 60.3261 91.2815 60.0291 91.3462C55.8355 87.092 55.8355 87.092 54.9393 85.7974C54.5954 85.4031 54.5954 85.4031 54.0252 85.3555C53.8094 85.3572 53.5935 85.3589 53.3712 85.3607C53.1263 85.3607 52.8815 85.3608 52.6292 85.3608C52.365 85.3648 52.1009 85.3687 51.8287 85.3727C51.5581 85.3738 51.2875 85.3749 51.0088 85.376C50.2901 85.3795 49.5717 85.3864 48.8532 85.3948C48.1196 85.4026 47.3861 85.4061 46.6525 85.4099C45.2138 85.4183 43.7751 85.4311 42.3365 85.4471C42.5097 85.592 42.6828 85.7369 42.8613 85.8862C43.5024 86.4241 44.1393 86.9658 44.7749 87.5087C45.0506 87.7432 45.3276 87.9767 45.6057 88.2091C46.0051 88.5432 46.4002 88.8809 46.7946 89.2195C46.9826 89.3745 46.9826 89.3745 47.1745 89.5326C47.5191 89.8325 47.5191 89.8325 48.0156 90.3947C47.9827 90.9439 47.9827 90.9439 47.7972 91.3462C46.7436 91.1863 46.3497 90.5916 45.7272 89.8885C42.7707 86.6404 42.7707 86.6404 38.5337 85.1077C36.0824 84.9578 33.6248 85.1491 31.1967 85.4471C31.3765 85.5987 31.5563 85.7504 31.7415 85.9066C32.4066 86.4688 33.068 87.0341 33.7284 87.6004C34.0149 87.8453 34.3025 88.0893 34.591 88.3324C35.0051 88.6817 35.4155 89.0339 35.8255 89.3868C35.9556 89.4952 36.0857 89.6037 36.2198 89.7154C36.5776 90.027 36.5776 90.027 37.0942 90.585C37.0173 91.0005 37.0173 91.0005 36.8758 91.3462C36.1578 91.235 35.797 91.0497 35.2813 90.6049C35.1458 90.4892 35.0103 90.3736 34.8707 90.2545C34.7271 90.1288 34.5835 90.0031 34.4355 89.8737C34.2865 89.7448 34.1374 89.6159 33.9839 89.4832C33.6695 89.2105 33.3559 88.9371 33.0432 88.663C32.5633 88.2433 32.0794 87.8272 31.5951 87.4113C31.2903 87.1461 30.9857 86.8806 30.6813 86.6149C30.536 86.4904 30.3906 86.3658 30.2408 86.2376C30.1081 86.1201 29.9753 86.0027 29.8385 85.8817C29.7209 85.7792 29.6032 85.6766 29.482 85.571C29.2308 85.2568 29.2308 85.2568 29.2308 84.4956C29.8121 84.3268 30.1622 84.2785 30.7591 84.2693C30.9332 84.2661 31.1074 84.2629 31.2869 84.2596C31.5674 84.2557 31.5674 84.2557 31.8537 84.2518C32.0462 84.2483 32.2386 84.2448 32.437 84.2412C33.2612 84.2262 34.0855 84.2133 34.9098 84.2002C35.5111 84.1904 36.1124 84.1795 36.7137 84.1685C36.9016 84.166 37.0895 84.1634 37.2832 84.1607C38.1311 84.2169 38.1311 84.2169 38.8416 83.9247C38.8747 83.4001 38.8933 82.8799 38.9031 82.3548C38.907 82.1865 38.911 82.0182 38.915 81.8448C38.9282 81.2695 38.9396 80.6942 38.9509 80.1188C38.9596 79.7001 38.9684 79.2814 38.9772 78.8626C39.0014 77.6918 39.0237 76.5209 39.0457 75.3501C39.0601 74.5969 39.0754 73.8437 39.0909 73.0905C39.3716 59.3526 39.3905 45.6166 39.0737 31.8791C39.069 31.6702 39.0642 31.4613 39.0593 31.246C39.0317 30.0427 39.003 28.8395 38.9726 27.6363C38.9634 27.2729 38.9544 26.9095 38.9456 26.5461C38.9047 24.8728 38.8551 23.1999 38.7524 21.5285C38.7383 21.294 38.7241 21.0595 38.7095 20.8178C38.6234 20.1774 38.4467 19.6361 38.1864 19.0342C40.6772 18.8016 43.1693 18.6032 45.6675 18.4395C46.0414 18.4146 46.0414 18.4146 46.4229 18.3891C47.6858 18.3084 48.9335 18.2542 50.1999 18.273ZM43.8245 20.6517C43.4617 20.6782 43.4617 20.6782 43.0916 20.7052C42.8259 20.7258 42.8259 20.7258 42.5549 20.7469C42.2719 21.2806 42.2719 21.2806 42.4887 21.6446C42.5708 21.7612 42.6529 21.8778 42.7375 21.9979C42.8701 22.1883 42.8701 22.1883 43.0054 22.3826C43.1473 22.5796 43.1473 22.5796 43.2921 22.7806C43.385 22.9142 43.4779 23.0478 43.5737 23.1854C43.8086 23.5187 44.0546 23.846 44.3023 24.1722C44.3744 24.1722 44.4465 24.1722 44.5207 24.1722C44.5207 23.7954 44.5207 23.4186 44.5207 23.0304C44.8091 23.0932 45.0974 23.156 45.3945 23.2207C45.3849 23.3892 45.3753 23.5577 45.3654 23.7314C45.3708 25.9824 46.3244 27.4903 47.7972 29.3101C47.8692 29.3101 47.9413 29.3101 48.0156 29.3101C48.0443 26.3855 47.9819 23.477 47.7972 20.5566C46.467 20.5471 45.1511 20.5523 43.8245 20.6517ZM50.1999 23.411C50.1886 24.429 50.1871 25.4466 50.1964 26.4646C50.2041 27.3602 50.1839 28.2516 50.1487 29.1466C50.0739 32.4303 50.8444 34.4705 52.8174 37.2302C53.6699 38.4751 54.4014 39.7753 55.1418 41.0727C55.2209 41.2108 55.3 41.3488 55.3816 41.4911C62.1992 53.4132 62.1992 53.4132 60.169 58.7939C58.0308 63.5926 54.69 69.9273 50.4183 73.6488C50.3989 74.2254 50.3931 74.7975 50.397 75.3741C50.3973 75.547 50.3976 75.7199 50.3979 75.8981C50.3991 76.4526 50.4019 77.0072 50.4046 77.5617C50.4057 77.9368 50.4067 78.3118 50.4076 78.6868C50.41 79.6082 50.4138 80.5295 50.4183 81.4509C53.8374 78.4872 56.5097 74.8989 58.7185 71.175C58.8074 71.026 58.8963 70.8771 58.9879 70.7236C62.7892 64.2782 64.3218 57.4016 62.6502 50.2426C62.6091 50.066 62.5681 49.8894 62.5258 49.7074C60.3343 40.5805 55.8146 31.4309 50.4183 23.411C50.3462 23.411 50.2741 23.411 50.1999 23.411ZM41.2443 23.7916C41.2498 24.0053 41.2553 24.219 41.2609 24.4392C41.7327 42.9488 41.7327 42.9488 41.7221 51.6698C41.722 51.8243 41.7218 51.9789 41.7216 52.1382C41.7135 57.4279 41.6378 62.7168 41.541 68.0057C41.4629 72.2974 41.4349 76.5878 41.4628 80.88C41.8403 80.5704 42.1987 80.2562 42.5549 79.9285C42.6732 79.8247 42.7915 79.7209 42.9133 79.614C44.0724 78.4688 44.0505 77.3922 44.0336 75.9145C44.0354 75.66 44.0379 75.4055 44.0408 75.1511C44.0461 74.5966 44.0472 74.0422 44.0452 73.4877C44.042 72.5795 44.0476 71.6714 44.0544 70.7632C44.0625 69.5918 44.0683 68.4204 44.0716 67.2491C44.0791 64.7615 44.108 62.2744 44.1419 59.787C44.176 57.2859 44.2087 54.7848 44.2293 52.2835C44.2311 52.0746 44.2328 51.8657 44.2346 51.6505C44.2416 50.8066 44.2486 49.9628 44.2553 49.1189C44.2758 46.6253 44.3108 44.1325 44.3726 41.6394C44.4114 40.0705 44.4411 38.5016 44.4642 36.9325C44.4782 36.0198 44.4971 35.1077 44.5291 34.1954C44.7306 28.7424 44.7306 28.7424 41.7452 24.0397C41.652 23.9578 41.5588 23.8759 41.4628 23.7916C41.3907 23.7916 41.3186 23.7916 41.2443 23.7916ZM45.3945 29.881C45.337 34.8574 45.28 39.8338 45.2236 44.8102C45.1974 47.1217 45.171 49.4333 45.1442 51.7448C45.1209 53.7636 45.0978 55.7825 45.0751 57.8014C45.0631 58.8666 45.051 59.9318 45.0385 60.997C44.9764 66.2928 44.9435 71.5877 44.9576 76.8838C45.6039 76.1826 46.235 75.4738 46.8552 74.7549C47.0272 74.556 47.1993 74.357 47.3765 74.152C48.0632 73.3306 48.0515 72.7259 48.058 71.7369C48.0599 71.5767 48.0618 71.4165 48.0637 71.2515C48.0697 70.7115 48.0741 70.1715 48.0785 69.6315C48.0824 69.2455 48.0863 68.8594 48.0903 68.4734C48.1251 64.9382 48.1435 61.4029 48.158 57.8676C48.169 55.2564 48.1877 52.6454 48.2167 50.0343C48.2364 48.1966 48.2468 46.359 48.2505 44.5212C48.253 43.4249 48.2596 42.329 48.2763 41.2328C48.2919 40.1985 48.2959 39.1647 48.2913 38.1304C48.2917 37.7535 48.296 37.3766 48.3049 36.9998C48.3679 34.2018 47.6235 32.1133 45.6129 29.881C45.5408 29.881 45.4687 29.881 45.3945 29.881ZM50.4183 37.6831C50.4183 48.3586 50.4183 59.0342 50.4183 70.0332C54.2144 65.8992 59.0001 59.6006 58.5596 54.1054C57.9097 49.3272 54.6835 44.6203 52.2835 40.3584C52.2184 40.2424 52.1534 40.1264 52.0865 40.0069C51.6368 39.2133 50.9287 38.4477 50.4183 37.6831C50.4926 37.6831 50.3462 37.6831 50.4183 37.6831ZM47.7972 77.0741C47.4609 77.4345 47.1357 77.798 46.8142 78.1683C46.7171 78.2793 46.6199 78.3903 46.5198 78.5047C45.7017 79.4408 44.892 80.3823 44.0856 81.326C43.7843 81.6732 43.4731 82.014 43.1539 82.3488C42.7291 82.7423 42.7291 82.7423 42.7733 83.1635C44.5033 83.1635 46.2332 83.1635 48.0156 83.1635C48.0156 81.154 48.0156 79.1445 48.0156 77.0741C47.9435 77.0741 47.8714 77.0741 47.7972 77.0741Z" fill="url(#paint1_linear_1966_11)"/>
<path d="M46.3699 0C46.9614 0.0379405 46.9614 0.0379405 47.2041 0.24029C47.2256 0.779805 47.232 1.31405 47.2278 1.85355C47.2274 2.01495 47.2271 2.17635 47.2267 2.34265C47.2254 2.86018 47.2223 3.37769 47.2192 3.89522C47.218 4.24525 47.2169 4.59527 47.2159 4.9453C47.2132 5.80516 47.209 6.66501 47.2041 7.52486C47.3211 7.32505 47.4381 7.12525 47.5586 6.91939C47.7134 6.65747 47.8682 6.39558 48.0231 6.13371C48.1 6.00198 48.177 5.87026 48.2563 5.73454C48.5846 5.1813 48.861 4.72683 49.3881 4.28727C50.0251 4.36315 50.0251 4.36315 50.6015 4.48962C50.9389 5.40026 50.7413 5.84023 50.2204 6.67278C50.0828 6.89684 49.9451 7.1209 49.8033 7.35175C49.6563 7.58416 49.5093 7.81657 49.3578 8.05602C49.0736 8.51374 48.7898 8.97166 48.5065 9.42978C48.3688 9.65156 48.2311 9.87334 48.0892 10.1018C47.515 11.0506 46.9893 12.0158 46.4761 12.9883C45.5091 12.7195 45.2247 12.211 44.7025 11.5252C44.6035 11.3981 44.5044 11.271 44.4024 11.1401C44.0857 10.7328 43.7717 10.324 43.4578 9.91511C43.2474 9.64349 43.0368 9.37198 42.826 9.10057C42.4359 8.59803 42.047 8.09485 41.6592 7.5911C41.3105 7.14133 40.9512 6.6972 40.5817 6.25914C40.1666 5.70371 40.1666 5.70371 40.2121 5.13461C40.4093 4.69197 40.4093 4.69197 40.6519 4.48962C41.2266 4.42718 41.2266 4.42718 41.8653 4.48962C42.2704 4.82397 42.2704 4.82397 42.6208 5.28637C42.7483 5.4507 42.8757 5.61503 43.0071 5.78434C43.1358 5.95806 43.2645 6.13178 43.3972 6.31076C43.5306 6.48448 43.664 6.6582 43.8014 6.83719C44.1306 7.26684 44.4557 7.69832 44.7774 8.1319C44.7895 7.90109 44.8017 7.67028 44.8142 7.43248C44.8598 6.57786 44.9085 5.72339 44.9581 4.86893C44.9791 4.49878 44.9993 4.12859 45.0187 3.75838C45.0467 3.22688 45.0776 2.69555 45.1091 2.16419C45.1213 1.91503 45.1213 1.91503 45.1337 1.66084C45.2338 0.0693151 45.2338 0.0693151 46.3699 0Z" fill="black"/>
</g>
<defs>
<radialGradient id="paint0_radial_1966_11" cx="0" cy="0" r="1" gradientUnits="userSpaceOnUse" gradientTransform="translate(47.5 47.5) rotate(90) scale(47.5)">
<stop offset="0.466346" stop-color="white"/>
<stop offset="1" stop-color="white" stop-opacity="0.5"/>
</radialGradient>
<linearGradient id="paint1_linear_1966_11" x1="29.2308" y1="54.8078" x2="65.7693" y2="54.8078" gradientUnits="userSpaceOnUse">
<stop/>
<stop offset="0.485577"/>
<stop offset="0.701923" stop-color="#8A8A8A"/>
<stop offset="1" stop-color="#8A8A8A"/>
</linearGradient>
<clipPath id="clip0_1966_11">
<rect width="95" height="95" fill="white"/>
</clipPath>
</defs>
</svg>
