<svg width="26" height="26" viewBox="0 0 26 26" fill="none" xmlns="http://www.w3.org/2000/svg">
<path d="M13.7389 5.00103C13.7552 5.04679 13.7714 5.09256 13.7882 5.13971C13.854 5.30254 13.9307 5.44341 14.0259 5.59446C14.0759 5.67449 14.0759 5.67449 14.127 5.75613C14.1629 5.81308 14.1988 5.87004 14.2358 5.92871C14.3122 6.05142 14.3886 6.17416 14.4649 6.29694C14.4843 6.32808 14.5036 6.35922 14.5236 6.3913C16.0518 8.84704 17.5016 11.5286 17.9235 14.3235C17.9301 14.3663 17.9368 14.4091 17.9436 14.4533C18.3096 17.2888 16.8494 19.9585 14.8747 22.1356C14.5897 22.4408 14.2996 22.7442 13.978 23.0209C14.0524 23.0162 14.1267 23.0115 14.2034 23.0067C14.9567 22.9835 14.9567 22.9835 15.2187 23.1328C15.4097 23.2962 15.5451 23.4935 15.6858 23.6906C15.877 23.9397 16.1143 24.1604 16.339 24.3867C16.6545 24.7138 16.6545 24.7138 16.6681 24.9479C16.5892 24.9651 16.5103 24.9823 16.429 25C15.2813 23.8357 15.2813 23.8357 15.036 23.4814C14.9419 23.3735 14.9419 23.3735 14.7858 23.3604C14.7268 23.3609 14.6677 23.3614 14.6068 23.3619C14.5398 23.3619 14.4728 23.3619 14.4038 23.3619C14.3315 23.363 14.2592 23.364 14.1847 23.3652C14.1106 23.3655 14.0366 23.3657 13.9603 23.366C13.7636 23.367 13.567 23.3689 13.3703 23.3712C13.1696 23.3733 12.9688 23.3743 12.768 23.3753C12.3743 23.3776 11.9805 23.3811 11.5868 23.3855C11.6342 23.4252 11.6816 23.4648 11.7304 23.5057C11.9059 23.6529 12.0802 23.8011 12.2542 23.9497C12.3296 24.0139 12.4054 24.0778 12.4815 24.1414C12.5909 24.2329 12.699 24.3253 12.8069 24.418C12.8584 24.4604 12.8584 24.4604 12.9109 24.5036C13.0052 24.5857 13.0052 24.5857 13.1411 24.7396C13.1321 24.8899 13.1321 24.8899 13.0813 25C12.793 24.9562 12.6852 24.7935 12.5148 24.6011C11.7056 23.7121 11.7056 23.7121 10.546 23.2926C9.87517 23.2516 9.20256 23.3039 8.53802 23.3855C8.58723 23.427 8.63644 23.4685 8.68714 23.5113C8.86914 23.6651 9.05017 23.8199 9.23091 23.9748C9.30934 24.0419 9.38803 24.1086 9.46699 24.1752C9.58032 24.2708 9.69266 24.3671 9.80485 24.4637C9.84046 24.4934 9.87607 24.5231 9.91277 24.5537C10.0107 24.6389 10.0107 24.6389 10.1521 24.7917C10.131 24.9054 10.131 24.9054 10.0923 25C9.89581 24.9696 9.79705 24.9188 9.65592 24.7971C9.61884 24.7655 9.58175 24.7338 9.54354 24.7012C9.50424 24.6668 9.46494 24.6324 9.42445 24.597C9.38365 24.5617 9.34286 24.5264 9.30083 24.4901C9.21478 24.4155 9.12897 24.3407 9.04338 24.2656C8.91204 24.1508 8.77962 24.0369 8.64707 23.9231C8.56364 23.8505 8.48027 23.7778 8.39698 23.7051C8.35719 23.671 8.31741 23.637 8.27641 23.6018C8.24008 23.5697 8.20375 23.5376 8.16632 23.5044C8.13412 23.4764 8.10192 23.4483 8.06874 23.4194C8 23.3334 8 23.3334 8 23.1251C8.15907 23.0789 8.2549 23.0657 8.41826 23.0631C8.46592 23.0623 8.51359 23.0614 8.5627 23.0605C8.63949 23.0595 8.63949 23.0595 8.71783 23.0584C8.77051 23.0574 8.82319 23.0565 8.87746 23.0555C9.10305 23.0514 9.32865 23.0478 9.55425 23.0443C9.71882 23.0416 9.88338 23.0386 10.0479 23.0356C10.0994 23.0349 10.1508 23.0342 10.2038 23.0334C10.4358 23.0488 10.4358 23.0488 10.6303 22.9689C10.6394 22.8253 10.6445 22.6829 10.6471 22.5392C10.6482 22.4931 10.6493 22.4471 10.6504 22.3996C10.654 22.2422 10.6571 22.0847 10.6602 21.9272C10.6626 21.8126 10.665 21.698 10.6674 21.5834C10.6741 21.263 10.6802 20.9426 10.6862 20.6221C10.6901 20.416 10.6943 20.2098 10.6985 20.0037C10.7754 16.2439 10.7805 12.4845 10.6938 8.72479C10.6925 8.66762 10.6912 8.61044 10.6899 8.55153C10.6823 8.22221 10.6745 7.8929 10.6662 7.56359C10.6636 7.46414 10.6612 7.36468 10.6588 7.26523C10.6476 6.80726 10.634 6.34944 10.6059 5.89199C10.602 5.82781 10.5982 5.76363 10.5942 5.6975C10.5706 5.52223 10.5222 5.37407 10.451 5.20935C11.1327 5.14569 11.8147 5.09139 12.4985 5.0466C12.6008 5.03976 12.6008 5.03976 12.7052 5.03279C13.0508 5.01069 13.3923 4.99587 13.7389 5.00103ZM11.9941 5.65204C11.8948 5.65929 11.8948 5.65929 11.7935 5.66668C11.7208 5.67232 11.7208 5.67232 11.6466 5.67808C11.5691 5.82414 11.5691 5.82414 11.6285 5.92377C11.6509 5.95568 11.6734 5.98759 11.6966 6.02047C11.7329 6.07258 11.7329 6.07258 11.7699 6.12575C11.8087 6.17967 11.8087 6.17967 11.8483 6.23469C11.8738 6.27124 11.8992 6.3078 11.9254 6.34546C11.9897 6.43667 12.057 6.52626 12.1248 6.61553C12.1446 6.61553 12.1643 6.61553 12.1846 6.61553C12.1846 6.51241 12.1846 6.40929 12.1846 6.30304C12.2635 6.32023 12.3424 6.33742 12.4237 6.35512C12.4211 6.40125 12.4185 6.44737 12.4158 6.49489C12.4173 7.11094 12.6782 7.52364 13.0813 8.02171C13.101 8.02171 13.1208 8.02171 13.1411 8.02171C13.149 7.22128 13.1319 6.42526 13.0813 5.62599C12.7173 5.62341 12.3571 5.62483 11.9941 5.65204ZM13.7389 6.4072C13.7358 6.68583 13.7354 6.96431 13.738 7.24294C13.74 7.48805 13.7345 7.73199 13.7249 7.97695C13.7044 8.87564 13.9153 9.43402 14.4553 10.1893C14.6886 10.53 14.8888 10.8859 15.0914 11.2409C15.1131 11.2787 15.1347 11.3165 15.157 11.3554C17.0229 14.6183 17.0229 14.6183 16.4673 16.091C15.8821 17.4043 14.9678 19.138 13.7987 20.1565C13.7934 20.3143 13.7918 20.4709 13.7928 20.6287C13.7929 20.676 13.793 20.7233 13.7931 20.7721C13.7934 20.9239 13.7942 21.0756 13.7949 21.2274C13.7952 21.33 13.7955 21.4327 13.7958 21.5353C13.7964 21.7875 13.7974 22.0396 13.7987 22.2918C14.7344 21.4807 15.4658 20.4986 16.0703 19.4795C16.0946 19.4387 16.119 19.3979 16.144 19.3559C17.1844 17.5919 17.6038 15.7099 17.1464 13.7506C17.1351 13.7022 17.1239 13.6539 17.1123 13.6041C16.5125 11.1062 15.2756 8.60213 13.7987 6.4072C13.7789 6.4072 13.7592 6.4072 13.7389 6.4072ZM11.2879 6.51137C11.2894 6.56986 11.2909 6.62834 11.2924 6.68861C11.4216 11.7544 11.4216 11.7544 11.4187 14.1412C11.4186 14.1835 11.4186 14.2258 11.4185 14.2694C11.4163 15.7171 11.3956 17.1646 11.3691 18.6121C11.3477 19.7866 11.3401 20.9609 11.3477 22.1356C11.451 22.0508 11.5491 21.9649 11.6466 21.8752C11.679 21.8468 11.7113 21.8183 11.7447 21.7891C12.0619 21.4756 12.0559 21.181 12.0513 20.7766C12.0518 20.7069 12.0524 20.6373 12.0533 20.5676C12.0547 20.4159 12.055 20.2642 12.0545 20.1124C12.0536 19.8638 12.0551 19.6153 12.057 19.3667C12.0592 19.0462 12.0608 18.7256 12.0617 18.405C12.0637 17.7242 12.0716 17.0435 12.0809 16.3627C12.0902 15.6782 12.0992 14.9937 12.1048 14.3092C12.1053 14.252 12.1058 14.1948 12.1063 14.1359C12.1082 13.905 12.1101 13.674 12.112 13.4431C12.1176 12.7606 12.1272 12.0784 12.1441 11.396C12.1547 10.9666 12.1628 10.5373 12.1691 10.1078C12.173 9.85804 12.1781 9.60842 12.1869 9.35873C12.2421 7.86632 12.2421 7.86632 11.425 6.57927C11.3995 6.55686 11.374 6.53445 11.3477 6.51137C11.328 6.51137 11.3082 6.51137 11.2879 6.51137ZM12.4237 8.17795C12.408 9.53991 12.3924 10.9019 12.377 12.2638C12.3698 12.8965 12.3626 13.5291 12.3552 14.1617C12.3489 14.7142 12.3425 15.2668 12.3363 15.8193C12.3331 16.1108 12.3297 16.4024 12.3263 16.6939C12.3093 18.1433 12.3003 19.5924 12.3042 21.0419C12.481 20.85 12.6538 20.656 12.8235 20.4592C12.8706 20.4048 12.9177 20.3503 12.9662 20.2942C13.1541 20.0694 13.1509 19.9039 13.1527 19.6332C13.1532 19.5894 13.1537 19.5456 13.1543 19.5004C13.1559 19.3526 13.1571 19.2048 13.1583 19.057C13.1594 18.9514 13.1604 18.8457 13.1615 18.7401C13.1711 17.7725 13.1761 16.805 13.1801 15.8374C13.1831 15.1228 13.1882 14.4082 13.1961 13.6936C13.2015 13.1906 13.2044 12.6877 13.2054 12.1847C13.2061 11.8847 13.2079 11.5848 13.2124 11.2848C13.2167 11.0017 13.2178 10.7187 13.2166 10.4357C13.2166 10.3325 13.2178 10.2294 13.2203 10.1263C13.2375 9.36047 13.0338 8.7889 12.4835 8.17795C12.4638 8.17795 12.4441 8.17795 12.4237 8.17795ZM13.7987 10.3133C13.7987 13.235 13.7987 16.1567 13.7987 19.167C14.8376 18.0356 16.1474 16.3117 16.0268 14.8078C15.849 13.5001 14.966 12.2118 14.3091 11.0454C14.2913 11.0137 14.2736 10.9819 14.2552 10.9492C14.1322 10.7321 13.9384 10.5225 13.7987 10.3133C13.819 10.3133 13.7789 10.3133 13.7987 10.3133ZM13.0813 21.094C12.9893 21.1926 12.9003 21.2921 12.8123 21.3934C12.7857 21.4238 12.7591 21.4542 12.7317 21.4855C12.5078 21.7417 12.2862 21.9994 12.0655 22.2576C11.9831 22.3527 11.8979 22.4459 11.8105 22.5376C11.6943 22.6453 11.6943 22.6453 11.7064 22.7605C12.1798 22.7605 12.6533 22.7605 13.1411 22.7605C13.1411 22.2106 13.1411 21.6606 13.1411 21.094C13.1214 21.094 13.1016 21.094 13.0813 21.094Z" fill="url(#paint0_linear_1961_1260)"/>
<path d="M12.6907 0C12.8526 0.0103837 12.8526 0.0103837 12.919 0.0657635C12.9249 0.21342 12.9267 0.359634 12.9255 0.507287C12.9254 0.55146 12.9253 0.595634 12.9252 0.641145C12.9249 0.782786 12.924 0.924421 12.9232 1.06606C12.9228 1.16186 12.9225 1.25765 12.9223 1.35345C12.9215 1.58878 12.9204 1.82411 12.919 2.05943C12.951 2.00475 12.9831 1.95007 13.0161 1.89373C13.0584 1.82205 13.1008 1.75037 13.1432 1.6787C13.1642 1.64265 13.1853 1.6066 13.207 1.56945C13.2969 1.41804 13.3725 1.29366 13.5168 1.17336C13.6911 1.19413 13.6911 1.19413 13.8488 1.22874C13.9412 1.47797 13.8871 1.59838 13.7445 1.82623C13.7069 1.88756 13.6692 1.94888 13.6304 2.01206C13.5902 2.07567 13.5499 2.13927 13.5085 2.20481C13.4307 2.33008 13.353 2.4554 13.2755 2.58078C13.2378 2.64148 13.2001 2.70218 13.1613 2.76471C13.0041 3.02437 12.8603 3.28853 12.7198 3.55469C12.4551 3.48113 12.3773 3.34196 12.2344 3.15427C12.2073 3.11949 12.1802 3.0847 12.1523 3.04887C12.0656 2.93739 11.9796 2.82551 11.8937 2.71361C11.8361 2.63927 11.7785 2.56496 11.7208 2.49068C11.6141 2.35314 11.5076 2.21543 11.4015 2.07757C11.3061 1.95447 11.2077 1.83292 11.1066 1.71303C10.993 1.56102 10.993 1.56102 11.0054 1.40526C11.0594 1.28412 11.0594 1.28412 11.1258 1.22874C11.2831 1.21165 11.2831 1.21165 11.4579 1.22874C11.5687 1.32024 11.5687 1.32024 11.6647 1.4468C11.6995 1.49177 11.7344 1.53674 11.7704 1.58308C11.8056 1.63063 11.8408 1.67817 11.8771 1.72716C11.9136 1.7747 11.9502 1.82224 11.9878 1.87123C12.0779 1.98882 12.1668 2.10691 12.2549 2.22557C12.2582 2.1624 12.2615 2.09923 12.265 2.03415C12.2774 1.80026 12.2908 1.5664 12.3043 1.33255C12.3101 1.23124 12.3156 1.12993 12.3209 1.02861C12.3286 0.883146 12.337 0.737729 12.3457 0.592304C12.349 0.524113 12.349 0.524113 12.3524 0.454546C12.3798 0.0189705 12.3798 0.0189704 12.6907 0Z" fill="white"/>
<defs>
<linearGradient id="paint0_linear_1961_1260" x1="8" y1="15" x2="18" y2="15" gradientUnits="userSpaceOnUse">
<stop stop-color="white"/>
<stop offset="0.5625" stop-color="white"/>
<stop offset="0.649038" stop-color="#B0B0B0"/>
<stop offset="1" stop-color="#B0B0B0"/>
</linearGradient>
</defs>
</svg>
