<svg width="95" height="95" viewBox="0 0 95 95" fill="none" xmlns="http://www.w3.org/2000/svg">
<g clip-path="url(#clip0_2003_212)">
<path d="M47.5 0.0185547C63.0859 0.0185547 78.6669 0.0123698 94.243 0C94.8757 0 95.0018 0.124316 95 0.758887C94.9814 31.9196 94.9814 63.0804 95 94.2411C95 94.8757 94.8757 95 94.243 95C63.0822 94.979 31.9209 94.979 0.758887 95C0.124316 95 0 94.8757 0 94.2411C0.0197917 63.0804 0.0197917 31.9196 0 0.758887C0 0.124316 0.120605 0 0.758887 0C16.3399 0.0222656 31.9202 0.0284505 47.5 0.0185547Z" fill="url(#paint0_radial_2003_212)"/>
<path d="M51.5195 78.0284C51.4967 78.614 51.9557 78.3628 52.1956 78.3666C53.7497 78.3892 55.3037 78.3892 56.8578 78.3666C57.311 78.3666 57.5548 78.4893 57.85 78.8765C59.1298 80.5539 60.4896 82.1707 61.8208 83.8103C61.9598 83.9822 62.1046 84.1503 62.2341 84.3278C62.3636 84.5054 62.4493 84.7472 62.2341 84.9153C62.0189 85.0834 61.817 84.9644 61.6627 84.7755C61.2628 84.2882 60.8641 83.8002 60.4667 83.3116C59.4707 82.0895 58.4708 80.8712 57.4862 79.6397C57.2406 79.3337 57.012 79.107 56.5607 79.1089C53.1326 79.1297 49.7046 79.124 46.2765 79.1297C46.1339 79.1566 45.9942 79.1971 45.8594 79.2505L50.2264 83.5364C50.474 83.7801 50.7216 84.0237 50.9634 84.2731C51.1539 84.4714 51.2796 84.7188 51.0282 84.9247C50.8377 85.0853 50.6149 84.9644 50.4416 84.7925C49.7712 84.1238 49.0951 83.4703 48.421 82.7941L45.1948 79.5962C44.951 79.3544 44.7301 79.1145 44.3187 79.1164C41.7248 79.1315 39.131 79.1164 36.5104 79.1164C36.499 79.5565 36.8285 79.6944 37.0303 79.8984C38.4339 81.3056 39.8547 82.6996 41.264 84.1012C41.4792 84.3165 41.8353 84.5734 41.5001 84.8794C41.1649 85.1854 40.9383 84.8095 40.7269 84.6017C38.9494 82.8514 37.177 81.0972 35.4096 79.3393C35.2192 79.1504 34.903 78.9615 35.0287 78.6423C35.1792 78.2646 35.5677 78.3836 35.8667 78.3817C37.6112 78.3703 39.3557 78.3571 41.1002 78.3817C41.6715 78.3817 41.94 78.2192 41.8829 77.6374C41.8658 77.4486 41.8829 77.2597 41.8829 77.0708V29.5052C41.8829 27.8827 41.8829 27.8827 43.5627 27.8827H46.1908L41.1745 19.5716C41.9896 19.5716 42.6657 19.5244 43.3303 19.5849C44.0654 19.6529 44.3035 19.4338 44.294 18.6688C44.2445 14.7758 44.2787 10.8809 44.2273 6.98609C44.2178 6.20788 44.4178 5.97555 45.2138 6.00199C47.0802 6.06243 47.0802 6.02088 47.0802 7.90786C47.0802 11.4873 47.0993 15.0686 47.065 18.648C47.065 19.3525 47.2307 19.5773 47.9658 19.515C48.9009 19.4356 49.8474 19.4961 50.8987 19.4961L46.4365 27.8827C47.6306 27.8827 48.6895 27.9507 49.7369 27.8638C50.7425 27.7807 51.5157 27.9148 51.7633 29.0349C51.5024 29.4353 51.7309 29.8471 51.7404 30.2513C51.8071 33.0676 51.6738 35.8858 51.8623 38.7021C51.8471 40.0735 51.5862 41.4297 51.5843 42.7972C51.5652 51.7555 51.5621 60.715 51.5748 69.6759C51.5443 72.46 51.6376 75.2442 51.5195 78.0284Z" fill="black"/>
<path d="M51.4659 38.6287C51.2526 35.6368 51.4126 32.6429 51.3707 29.649C51.3707 29.3752 51.3422 29.0578 51.763 29.0352C51.8012 29.0402 51.8376 29.0541 51.8693 29.0757C51.9011 29.0972 51.9273 29.1259 51.9458 29.1593C51.9643 29.1928 51.9747 29.2301 51.976 29.2682C51.9774 29.3064 51.9696 29.3443 51.9535 29.3789C52.3725 29.7227 52.6639 30.2044 53.1495 30.4801C53.1678 30.4957 53.1817 30.5157 53.1897 30.5383C53.1978 30.5608 53.1996 30.5851 53.1952 30.6086C53.359 31.0657 53.7189 31.3509 54.1036 31.6135C54.1219 31.6302 54.1356 31.6513 54.1433 31.6748C54.1509 31.6983 54.1524 31.7234 54.1474 31.7476C54.2796 32.0981 54.5381 32.3875 54.873 32.5598C54.8899 32.5785 54.902 32.601 54.9083 32.6253C54.9146 32.6496 54.9149 32.6751 54.9092 32.6996C55.0121 33.0358 55.2901 33.2417 55.5091 33.4891C55.6291 33.8102 55.89 34.0293 56.1052 34.273C56.1986 34.6092 56.5052 34.7868 56.6956 35.0531C56.8165 35.3601 57.0283 35.6235 57.3031 35.8087C57.4117 35.9541 57.5183 36.1014 57.625 36.2469C57.6842 36.5194 57.8265 36.7674 58.0326 36.9571C58.0697 37.0713 58.1306 37.1766 58.2113 37.266C58.292 37.3555 58.3907 37.4272 58.5011 37.4765L58.7467 37.9091C58.8305 38.1924 58.9372 38.4625 59.24 38.5891C59.3371 38.7553 59.4304 38.9215 59.5333 39.0877C59.6571 39.4882 59.7828 39.8867 60.196 40.1021C61.1387 41.6887 62.1557 43.2376 62.7271 45.0131C62.7316 45.1215 62.7619 45.2273 62.8155 45.3218C62.8691 45.4164 62.9445 45.497 63.0356 45.5571C63.8284 47.3342 64.4155 49.1946 64.7858 51.1028C64.721 51.3465 64.5954 51.5939 64.8487 51.8074C64.9164 51.8933 64.9632 51.9936 64.9853 52.1004C65.0075 52.2073 65.0043 52.3177 64.9762 52.4232C64.8144 53.0144 64.9515 53.6188 64.8944 54.2138C64.7458 54.7521 64.8144 55.2999 64.8334 55.8439L64.7934 56.3671C64.424 56.9149 64.6373 57.6062 64.3402 58.171C64.384 58.4449 64.203 58.6829 64.2145 58.9511C64.2145 59.0361 64.2145 59.1211 64.2145 59.208C64.0692 59.448 63.977 59.7158 63.944 59.9938C63.786 60.2752 63.7821 60.6171 63.5936 60.8853C63.5574 61.2876 63.3117 61.6409 63.3022 62.0432C63.3115 62.065 63.3155 62.0887 63.3138 62.1123C63.3121 62.1359 63.3049 62.1588 63.2927 62.1792C62.8775 62.7062 62.7214 63.3578 62.4281 63.9453C62.1024 64.6385 61.7748 65.3298 61.3825 65.989L61.3121 66.2119C61.0457 66.5471 60.8272 66.917 60.6626 67.3113C60.3617 67.6191 60.2017 68.0404 59.8494 68.3048C59.8704 68.7185 59.6323 68.9659 59.3009 69.1567C59.1905 69.5118 58.92 69.7781 58.7772 70.1181C58.6248 70.3656 58.3011 70.4751 58.2344 70.7906C58.0554 71.1268 57.6631 71.3157 57.5755 71.718C57.5862 71.734 57.5904 71.7534 57.5873 71.7724C57.5841 71.7913 57.5737 71.8083 57.5583 71.82C57.2453 71.9992 56.9883 72.2606 56.8156 72.5755L56.827 72.5529C56.5414 73.1006 55.8615 73.3349 55.6843 73.9714C55.5872 74.302 55.2444 74.4191 55.0559 74.6703C54.1817 75.3427 53.4847 76.1984 52.6715 76.9369C52.4506 77.1372 52.3153 77.4658 51.9478 77.4753C52.0278 77.6642 51.9478 77.785 51.7573 77.8417C51.0984 77.8908 51.4069 77.3865 51.4031 77.1485C51.3783 74.8705 51.3898 72.5925 51.3898 70.3146C51.3783 69.7366 51.7307 69.2643 51.8811 68.7317C51.9554 68.6108 52.0182 68.4842 52.0868 68.3539C52.3477 68.012 52.7248 67.774 52.9552 67.4095C53.1457 67.1847 53.298 66.9373 53.4733 66.703C53.5171 66.6256 53.5666 66.5538 53.6161 66.482C54.0584 66.1276 54.4025 65.6674 54.6159 65.1447C54.7873 64.8557 54.9187 64.5459 55.0654 64.2437C55.11 64.1696 55.161 64.0995 55.2177 64.0341C55.6862 63.4938 56.0919 62.9234 56.1852 62.1905C56.2103 62.1072 56.2415 62.0257 56.2785 61.9469C56.589 61.5408 56.608 61.0326 56.7642 60.5736C56.8413 60.376 56.9049 60.1734 56.9546 59.9673C57.0327 59.6443 57.1451 59.3289 57.2384 59.0097C57.3113 58.7908 57.3698 58.5674 57.4136 58.341C57.6955 57.9972 57.764 57.5855 57.8288 57.1586C58.0878 56.1197 58.1849 55.0808 57.7564 54.0665C57.566 53.7227 57.7469 53.3109 57.5431 52.9747C57.402 52.6527 57.2817 52.3221 57.1832 51.9849C57.099 51.4004 56.9717 50.8227 56.8023 50.2566C56.7432 49.9506 56.8213 49.6352 56.7413 49.3311C56.5966 49.0459 56.3166 48.8456 56.2328 48.5245C56.1445 48.0131 55.9393 47.5285 55.6329 47.1079C55.5266 46.589 55.2902 46.105 54.9454 45.7007C54.7302 45.2001 54.3931 44.7562 54.1931 44.2557C53.9532 43.5814 53.8027 42.8749 53.4713 42.2308C53.1533 41.8908 53.06 41.3997 52.6791 41.0975C52.5553 40.4968 52.0144 40.1417 51.7649 39.6147C51.7173 39.4523 51.645 39.2974 51.5897 39.1368C51.5376 38.9703 51.4963 38.8005 51.4659 38.6287Z" fill="#B2B2B2"/>
<path d="M51.4891 69.9198C51.2986 72.3526 51.4377 74.7874 51.4072 77.2203C51.4072 77.4809 51.4662 77.7208 51.7519 77.8247L51.5195 78.0287C51.2244 77.6849 51.2739 77.2731 51.2739 76.8651C51.2739 74.4889 51.2739 72.1127 51.2739 69.7365C51.4662 69.6648 51.5348 69.7309 51.4891 69.9198Z" fill="#0F0F0F"/>
<path d="M51.946 77.458L54.4828 74.9099C54.6409 74.7513 54.797 74.5945 55.0541 74.6568C54.26 75.6258 53.323 76.455 52.4241 77.322C52.2927 77.4486 52.1612 77.6091 51.946 77.458Z" fill="#3E3E3E"/>
<path d="M61.3826 65.9833C61.5345 65.1921 61.9149 64.4617 62.4776 63.881V63.8716C62.2948 64.6706 61.9863 65.4035 61.3826 65.9833Z" fill="#383838"/>
<path d="M62.4739 63.8714V63.8809C62.4967 63.1933 62.6643 62.5776 63.2909 62.1809C63.0966 62.7721 62.95 63.4011 62.4739 63.8714Z" fill="#3F3F3F"/>
<path d="M64.7746 54.2494C64.8374 53.6374 64.6298 52.999 64.965 52.4172C64.965 53.339 64.9599 54.2614 64.9498 55.1844C64.4489 54.9578 64.7936 54.5687 64.7746 54.2494Z" fill="#252525"/>
<path d="M55.6826 73.9581C55.715 73.2025 56.3378 72.9305 56.8253 72.5396C56.6044 73.1402 56.1359 73.5425 55.6826 73.9581Z" fill="#404040"/>
<path d="M64.2622 58.2256C64.4527 57.6099 64.2717 56.8883 64.7897 56.3613C64.5993 56.9695 64.7136 57.6363 64.4241 58.2238C64.3708 58.3598 64.3174 58.3616 64.2622 58.2256Z" fill="#1A1A1A"/>
<path d="M53.1457 30.4799C52.4715 30.4062 52.2697 29.8282 51.9497 29.3787C52.5744 29.5033 52.7648 30.0927 53.1457 30.4799Z" fill="#3D3D3D"/>
<path d="M64.7745 54.2495L64.965 55.1845C65.0077 55.4105 64.9621 55.6442 64.8374 55.838C64.4584 55.3205 64.6412 54.7841 64.7745 54.2495Z" fill="#636363"/>
<path d="M60.5886 67.1675C60.7562 66.7897 60.8343 66.3553 61.3066 66.2061C61.219 66.7047 60.9257 67.0919 60.6229 67.4773C60.5779 67.44 60.5492 67.387 60.5429 67.3292C60.5365 67.2715 60.5529 67.2135 60.5886 67.1675Z" fill="#3F3F3F"/>
<path d="M54.0998 31.6133C53.4923 31.5472 53.2771 31.1373 53.1914 30.6084C53.5742 30.871 53.8275 31.2525 54.0998 31.6133Z" fill="#3E3E3E"/>
<path d="M60.1925 40.0961C59.6212 39.979 59.4612 39.605 59.5298 39.0818L60.1925 40.0961Z" fill="#4D4D4D"/>
<path d="M56.5169 35.0587L56.0294 34.3919C55.9932 34.3492 55.9751 34.2942 55.979 34.2385C55.9829 34.1829 56.0085 34.1309 56.0503 34.0935L56.7778 35.0493C56.6959 35.2023 56.6102 35.2061 56.5169 35.0587Z" fill="#4A4A4A"/>
<path d="M63.2966 62.0373C63.0909 61.5953 63.4337 61.2553 63.5214 60.8662C63.5671 60.7907 63.6147 60.7888 63.6642 60.8662C63.687 61.3007 63.4947 61.669 63.2966 62.0373Z" fill="#161616"/>
<path d="M60.5884 67.1677L60.6227 67.4775C60.4322 67.8175 60.3599 68.2652 59.8438 68.2992C60.0939 67.9239 60.3421 67.5468 60.5884 67.1677Z" fill="#3E3E3E"/>
<path d="M57.5737 71.712C57.5737 71.1813 57.9337 70.9112 58.3546 70.6921L58.4307 70.6826C58.166 71.0472 57.9641 71.4589 57.5737 71.712Z" fill="#3B3B3B"/>
<path d="M54.8692 32.5595C54.3435 32.5369 54.1816 32.1969 54.1436 31.7473C54.4673 31.9475 54.6559 32.2649 54.8692 32.5595Z" fill="#3D3D3D"/>
<path d="M56.0503 34.0933C56.0503 34.1915 56.0369 34.2822 56.0293 34.3917L55.458 33.6362C55.4249 33.5961 55.4075 33.5455 55.4093 33.4937C55.4111 33.4419 55.4317 33.3925 55.4675 33.3547L56.0503 34.0933Z" fill="#424242"/>
<path d="M63.668 60.8643H63.5251C63.6356 60.5483 63.7467 60.2335 63.8584 59.9199C63.9137 59.8236 63.9708 59.8236 64.0279 59.9199C63.9651 60.258 63.9422 60.6075 63.668 60.8643Z" fill="#1F1F1F"/>
<path d="M58.6096 70.0802L59.2952 69.1509C59.4266 69.5834 59.0876 69.812 58.8762 70.0953C58.8587 70.1136 58.8374 70.1278 58.8138 70.1371C58.7901 70.1463 58.7648 70.1504 58.7394 70.1489C58.714 70.1475 58.6893 70.1406 58.6669 70.1287C58.6445 70.1169 58.6249 70.1003 58.6096 70.0802Z" fill="#393939"/>
<path d="M56.812 72.5622C56.8863 72.1447 57.0653 71.8293 57.5548 71.8066C57.3319 72.0881 57.1929 72.4489 56.812 72.5622Z" fill="#393939"/>
<path d="M55.4788 33.3588L55.4674 33.6402C55.2103 33.3682 54.8865 33.134 54.9113 32.6958C55.1599 32.8591 55.3567 33.089 55.4788 33.3588Z" fill="#343434"/>
<path d="M56.5168 35.0586H56.7778L57.2996 35.8141C56.8444 35.7556 56.734 35.3533 56.5168 35.0586Z" fill="#363636"/>
<path d="M58.4975 37.4706C58.1624 37.5065 58.0271 37.2817 57.9262 37.0267C57.9073 37.005 57.8931 36.9797 57.8842 36.9524C57.8754 36.925 57.8723 36.8962 57.8749 36.8677C57.8776 36.8391 57.8861 36.8114 57.8998 36.7861C57.9135 36.7609 57.9322 36.7386 57.9548 36.7207L58.4975 37.4706Z" fill="#4A4A4A"/>
<path d="M59.2362 38.5833C58.7582 38.5833 58.6858 38.2868 58.743 37.9033L59.2362 38.5833Z" fill="#434343"/>
<path d="M64.0241 59.9199H63.8584C63.8338 59.7785 63.8548 59.633 63.9184 59.5042C63.982 59.3753 64.085 59.2696 64.2126 59.2021L64.0241 59.9199Z" fill="#1D1D1D"/>
<path d="M58.6098 70.0803L58.8764 70.0954L58.4251 70.6829L58.347 70.6923C58.1775 70.3807 58.4727 70.2635 58.6098 70.0803Z" fill="#444444"/>
<path d="M64.8451 51.8017C64.4642 51.5996 64.5861 51.3522 64.7822 51.0972L64.8451 51.8017Z" fill="#1B1B1B"/>
<path d="M64.2622 58.2256H64.4298C64.4476 58.354 64.4378 58.4847 64.401 58.609C64.3643 58.7334 64.3014 58.8486 64.2165 58.9471C64.0089 58.6902 64.2584 58.4655 64.2622 58.2256Z" fill="#151515"/>
<path d="M63.032 45.5511C62.6283 45.5379 62.6035 45.3131 62.7235 45.0071L63.032 45.5511Z" fill="#4B4B4B"/>
<path d="M57.9545 36.7207L57.9259 37.0248C57.726 36.802 57.4803 36.5961 57.6174 36.241L57.9545 36.7207Z" fill="#444444"/>
<path d="M51.489 69.9195L51.2814 69.7306C51.27 64.7428 51.2598 59.7542 51.251 54.7651C51.251 49.8074 51.251 44.8498 51.251 39.8921C51.251 39.4615 51.1481 39.0062 51.4624 38.6228C51.5957 38.7739 51.7309 38.925 51.8642 39.078C51.6909 40.0225 51.9651 40.9404 51.9613 41.8773C51.9347 50.2715 51.9347 58.6656 51.9613 67.0598C51.9613 67.6869 51.7709 68.3971 52.4279 68.875C52.192 69.2844 51.8722 69.6402 51.489 69.9195Z" fill="#3F3F3F"/>
<path d="M57.9909 54.4214V53.8869C58.0461 53.749 58.0975 53.7509 58.147 53.8869C58.4432 54.998 58.4432 56.1663 58.147 57.2774C58.0975 57.4191 58.0442 57.421 57.9871 57.2774C57.9871 57.098 57.9871 56.9185 57.9871 56.741C58.082 55.9707 58.0833 55.192 57.9909 54.4214Z" fill="#333333"/>
<path d="M54.7168 44.1478C54.2883 43.4697 53.837 42.801 53.6313 42.0115L53.6199 42.0266C54.2731 42.5876 54.6959 43.2657 54.7168 44.1478Z" fill="#3E3E3E"/>
<path d="M55.5608 64.4551C55.8693 63.6826 55.9626 62.7872 56.8158 62.332C56.3988 63.0385 56.214 63.8828 55.5608 64.4551Z" fill="#3A3A3A"/>
<path d="M53.9341 66.886C54.1436 66.1928 54.6559 65.6885 55.0558 65.1143C55.0816 65.1268 55.104 65.1453 55.1211 65.1683C55.1382 65.1912 55.1494 65.2179 55.1539 65.246C55.1584 65.2742 55.156 65.303 55.1469 65.33C55.1377 65.3571 55.1222 65.3815 55.1015 65.4014C54.7511 65.9265 54.5568 66.5706 53.9341 66.886Z" fill="#393939"/>
<path d="M52.8279 40.8838C52.5555 40.353 51.9461 39.9828 52.0394 39.2764C52.5327 39.7221 52.7879 40.3304 53.1288 40.8781C53.0884 40.9162 53.0351 40.9379 52.9794 40.939C52.9237 40.94 52.8696 40.9203 52.8279 40.8838Z" fill="#313131"/>
<path d="M56.0005 46.8301C55.7682 46.3635 55.3797 45.9537 55.4596 45.3738C55.812 45.7969 56.1795 46.2143 56.0005 46.8301Z" fill="#454545"/>
<path d="M52.8279 40.884H53.1288C53.3516 41.2429 53.7001 41.5489 53.6182 42.0325L53.6297 42.0174C53.1821 41.7624 53.0545 41.2883 52.8279 40.884Z" fill="#424242"/>
<path d="M56.8119 62.2469C56.5471 61.6311 57.0613 61.2061 57.2061 60.6904C57.4765 61.3119 56.9585 61.7312 56.8119 62.2469Z" fill="#383838"/>
<path d="M57.9833 57.2849C58.0366 57.2849 58.09 57.2849 58.1433 57.2849C58.1851 57.7344 58.1198 58.1873 57.9528 58.6071C57.5358 58.1519 57.8843 57.7212 57.9833 57.2849Z" fill="#1F1F1F"/>
<path d="M52.4487 68.5708L53.3857 67.4658C53.4193 67.5066 53.4376 67.5577 53.4376 67.6103C53.4376 67.663 53.4193 67.714 53.3857 67.7548C53.1629 68.1213 53.0029 68.5784 52.4487 68.5708Z" fill="#444444"/>
<path d="M57.8175 52.9369L57.5908 51.8433C58.1469 52.0076 57.926 52.4383 57.9241 52.7877C57.9546 52.8916 57.9241 52.9407 57.8175 52.9369Z" fill="#171717"/>
<path d="M56.9739 49.4103C56.7903 49.1275 56.6852 48.8017 56.6692 48.4658C57.0501 48.564 57.0501 48.9173 57.1586 49.193C57.1015 49.2648 57.1053 49.397 56.9739 49.4103Z" fill="#555555"/>
<path d="M57.8176 52.9368L57.9242 52.7932C58.2651 53.1068 58.1375 53.511 58.1414 53.8906C58.088 53.8906 58.0366 53.8906 57.9852 53.8906C58.0157 53.5563 57.7052 53.2824 57.8176 52.9368Z" fill="#202020"/>
<path d="M57.4176 60.0616C57.3979 59.8905 57.4188 59.7171 57.4787 59.5555C57.5385 59.3938 57.6356 59.2482 57.7623 59.1304C57.8156 59.5006 57.7642 59.8311 57.4176 60.0616Z" fill="#1E1E1E"/>
<path d="M56.9739 49.4104L57.1643 49.1951C57.191 49.5048 57.5605 49.8033 57.1929 50.1263C57.1167 49.8864 57.0443 49.6427 56.9739 49.4104Z" fill="#4A4A4A"/>
<path d="M55.098 65.4013L55.0522 65.1142C55.1169 64.8603 55.2577 64.6317 55.456 64.4587C55.5645 64.8573 55.3227 65.1312 55.098 65.4013Z" fill="#393939"/>
<path d="M53.3933 67.755V67.466C53.5476 67.2394 53.639 66.9542 53.9513 66.8767C53.9551 67.2847 53.6409 67.5019 53.3933 67.755Z" fill="#313131"/>
<path d="M57.9909 54.4214C58.2166 55.1809 58.2166 55.9889 57.9909 56.7485C57.9884 55.9728 57.9884 55.1971 57.9909 54.4214Z" fill="#B2B2B2"/>
</g>
<defs>
<radialGradient id="paint0_radial_2003_212" cx="0" cy="0" r="1" gradientUnits="userSpaceOnUse" gradientTransform="translate(47.5 47.5) rotate(90) scale(47.5 47.5)">
<stop offset="0.4" stop-color="white"/>
<stop offset="1" stop-color="white" stop-opacity="0.5"/>
</radialGradient>
<clipPath id="clip0_2003_212">
<rect width="95" height="95" fill="white"/>
</clipPath>
</defs>
</svg>
