<svg width="95" height="95" viewBox="0 0 95 95" fill="none" xmlns="http://www.w3.org/2000/svg">
<g clip-path="url(#clip0_2003_659)">
<path d="M47.5 0.0185547C63.0859 0.0185547 78.6669 0.0123698 94.243 0C94.8757 0 95.0018 0.124316 95 0.758887C94.9814 31.9196 94.9814 63.0804 95 94.2411C95 94.8757 94.8757 95 94.243 95C63.0822 94.979 31.9209 94.979 0.758887 95C0.124316 95 0 94.8757 0 94.2411C0.0197917 63.0804 0.0197917 31.9196 0 0.758887C0 0.124316 0.120605 0 0.758887 0C16.3399 0.0222656 31.9202 0.0284505 47.5 0.0185547Z" fill="url(#paint0_radial_2003_659)"/>
<path d="M41.608 1.6843C42.0044 1.87202 42.0044 1.87202 42.4082 2.11337C42.7786 2.30018 43.1497 2.48585 43.5214 2.67002C43.5078 2.86362 43.4942 3.05722 43.4802 3.25669C43.4329 3.98152 43.4033 4.70622 43.3787 5.43215C43.3657 5.74496 43.3481 6.0576 43.3255 6.36985C43.1518 8.10869 43.1518 8.10869 43.7728 9.6655C44.4988 10.3132 45.5106 11.0423 46.5156 11.0049C46.9775 10.7767 47.3744 10.4982 47.7905 10.1941C47.9739 10.0674 48.1574 9.94079 48.3464 9.81031C48.7267 9.54591 49.1028 9.27543 49.4742 8.99854C50.7695 8.12532 51.5431 7.97138 53.064 8.20104C53.2175 8.2213 53.3711 8.24155 53.5293 8.26242C53.9047 8.3124 54.2795 8.36674 54.6542 8.42197C54.6586 11.917 54.6619 15.4121 54.6639 18.9072C54.6648 20.53 54.6661 22.1527 54.6682 23.7755C54.6701 25.1898 54.6713 26.604 54.6717 28.0183C54.6719 28.7673 54.6725 29.5162 54.6739 30.2652C54.6751 30.97 54.6755 31.6748 54.6752 32.3797C54.6753 32.6385 54.6757 32.8973 54.6764 33.1561C54.6773 33.5092 54.677 33.8624 54.6766 34.2156C54.6768 34.5122 54.6768 34.5122 54.6771 34.8148C54.657 35.2645 54.5986 35.6395 54.4687 36.0685C54.5696 36.1172 54.6706 36.166 54.7746 36.2163C55.2797 36.4747 55.7676 36.7512 56.2546 37.0426C56.433 37.1469 56.6114 37.2511 56.7953 37.3586C57.2519 37.7384 57.2519 37.7384 57.4418 38.3153C57.5016 38.4923 57.5614 38.6693 57.623 38.8517C58.056 39.0522 58.056 39.0522 58.5507 39.2227C58.8232 39.37 59.0923 39.5234 59.3582 39.6823C59.5134 39.7745 59.6687 39.8668 59.8287 39.9619C59.9963 40.0624 60.1639 40.1629 60.3366 40.2664C60.7055 40.4861 61.0745 40.7057 61.4434 40.9253C61.6376 41.0412 61.8317 41.1571 62.0318 41.2765C63.0464 41.8815 64.0632 42.4827 65.0797 43.0844C65.5056 43.3369 65.9316 43.5893 66.3575 43.8419C67.6207 44.5907 68.884 45.3394 70.1474 46.088C70.5649 46.3354 70.9824 46.5828 71.3999 46.8302C71.6065 46.9526 71.8132 47.0751 72.0261 47.2013C73.9047 48.3145 73.9047 48.3145 74.5312 48.6858C74.9479 48.9327 75.3646 49.1797 75.7814 49.4266C76.7293 49.9883 77.6773 50.5501 78.6251 51.112C81.3334 52.7175 84.0428 54.3212 86.7539 55.922C86.4731 56.668 86.0365 56.9518 85.3789 57.3795C85.18 57.5102 84.9812 57.6409 84.7763 57.7756C84.5657 57.9116 84.3552 58.0475 84.1446 58.1833C83.9332 58.3212 83.7219 58.4593 83.5108 58.5975C83.1256 58.8496 82.7399 59.1009 82.3536 59.3511C81.9532 59.5971 81.9532 59.5971 81.7441 59.8185C81.7148 60.2228 81.6988 60.6282 81.6877 61.0335C81.6841 61.1605 81.6805 61.2876 81.6768 61.4185C81.6454 62.5966 81.6275 63.775 81.6135 64.9535C81.604 65.7447 81.5902 66.5354 81.5659 67.3263C81.5425 68.0918 81.5303 68.8566 81.5256 69.6224C81.522 69.9129 81.5145 70.2033 81.503 70.4936C81.4232 72.264 81.4232 72.264 82.2151 73.7926C82.7571 74.3264 83.3542 74.7734 83.9707 75.2188C84.1751 75.3805 84.3785 75.5435 84.5808 75.7079C84.92 75.9831 85.262 76.2551 85.6072 76.5227C86.0072 76.8848 86.1614 77.1501 86.3828 77.631C85.8925 77.9138 85.4022 78.1967 84.9119 78.4795C84.4817 78.7277 84.0514 78.976 83.6212 79.2242C82.5916 79.8182 81.5621 80.4122 80.5322 81.0057C80.2012 81.1965 79.8702 81.3873 79.5392 81.5781C79.1218 81.8187 78.7044 82.0593 78.2869 82.2998C78.0967 82.4094 77.9066 82.519 77.7106 82.632C77.5441 82.728 77.3775 82.824 77.2059 82.9228C76.7277 83.1914 76.7277 83.1914 76.279 83.5226C75.6583 83.8266 75.3509 83.7557 74.6933 83.5685C74.2376 83.3531 74.2376 83.3531 73.7866 83.0799C73.6152 82.9777 73.4437 82.8755 73.2671 82.7702C72.9915 82.6028 72.9915 82.6028 72.7103 82.432C72.3088 82.1928 71.907 81.9541 71.5049 81.7159C71.2966 81.5923 71.0884 81.4688 70.8737 81.3415C69.8528 80.7441 68.8177 80.1731 67.7817 79.6024C66.0495 78.646 64.3259 77.6762 62.6096 76.6916C60.7006 75.5965 58.7854 74.5139 56.863 73.4427C56.6835 73.3426 56.504 73.2425 56.3191 73.1394C56.1627 73.0524 56.0063 72.9654 55.8451 72.8757C55.3816 72.6128 54.9246 72.3405 54.4687 72.0645C54.482 72.2813 54.4952 72.4981 54.5089 72.7214C54.6521 75.2102 54.6765 77.6899 54.6658 80.1822C54.6649 80.5676 54.6641 80.9529 54.6633 81.3383C54.6613 82.2672 54.6581 83.1962 54.6542 84.1251C54.4777 84.2133 54.3012 84.3015 54.1194 84.3923C52.9074 84.998 51.6956 85.6041 50.4848 86.2122C44.9047 89.0145 44.9047 89.0145 42.1075 90.3385C40.926 90.8978 39.7572 91.4782 38.595 92.0768C38.1406 92.2892 38.1406 92.2892 37.7695 92.2892C37.7571 90.2459 37.7922 88.2081 37.8623 86.1661C37.8712 85.8936 37.8802 85.6211 37.8891 85.3485C37.9106 84.6933 37.9326 84.0381 37.955 83.3829C37.8125 83.3284 37.67 83.2739 37.5231 83.2178C36.7713 82.9055 36.1399 82.4277 35.4726 81.9659C35.023 81.6718 35.023 81.6718 34.6272 81.7658C34.2342 81.902 33.9183 82.066 33.565 82.2848C33.4346 82.365 33.3043 82.4452 33.1699 82.5278C33.0307 82.6148 32.8915 82.7018 32.7481 82.7915C32.6034 82.8808 32.4587 82.9701 32.3096 83.062C31.5071 83.5588 30.7093 84.0627 29.9135 84.5701C29.7533 84.6721 29.5932 84.774 29.4283 84.879C29.1169 85.0777 28.806 85.2773 28.4957 85.4778C28.3549 85.5679 28.214 85.658 28.0689 85.7508C27.9444 85.8311 27.8199 85.9114 27.6916 85.9941C27.3789 86.1661 27.3789 86.1661 27.0078 86.1661C27.0063 85.9374 27.0048 85.7087 27.0033 85.473C26.9859 82.8045 26.967 80.136 26.9474 77.4676C26.9417 76.6942 26.9361 75.9209 26.9306 75.1476C26.8834 68.5181 26.8119 61.8897 26.6962 55.261C26.6405 52.0698 26.5886 48.8788 26.5532 45.6874C26.5508 45.4705 26.5508 45.4705 26.5484 45.2492C26.5323 43.7868 26.5173 42.3244 26.5035 40.8619C26.4966 40.1296 26.4894 39.3973 26.4821 38.665C26.4806 38.5197 26.4792 38.3745 26.4777 38.2248C26.453 35.8184 26.4068 33.4128 26.3541 31.0069C26.2993 28.4832 26.2672 25.96 26.256 23.4357C26.2492 22.0386 26.2324 20.6432 26.1888 19.2467C25.9286 10.6846 25.9286 10.6846 27.3934 8.93197C28.6915 7.66196 30.3127 7.02019 32.0112 6.46665C33.1967 6.06589 34.2063 5.3733 35.253 4.69943C35.6252 4.47606 35.9981 4.25383 36.3721 4.03335C37.0315 3.63874 37.6791 3.23197 38.3203 2.80845C40.5148 1.3819 40.5148 1.3819 41.608 1.6843ZM39.7141 4.61536C39.5549 4.71247 39.3958 4.80957 39.2318 4.90962C39.0668 5.01247 38.9019 5.11532 38.732 5.22128C38.4062 5.42144 38.0802 5.62148 37.7543 5.82141C37.5994 5.91697 37.4445 6.01252 37.2849 6.11097C36.7108 6.46074 36.1289 6.79378 35.5429 7.12314C35.5429 7.2456 35.5429 7.36806 35.5429 7.49423C36.245 7.86996 36.9482 8.24323 37.6527 8.61426C37.8923 8.74086 38.1315 8.86811 38.3703 8.99605C38.7134 9.17972 39.0578 9.36096 39.4024 9.54177C39.7129 9.70647 39.7129 9.70647 40.0296 9.8745C40.5534 10.1593 40.5534 10.1593 41.1093 9.90634C41.1706 8.0082 41.2318 6.11005 41.2949 4.15439C40.5202 4.15439 40.3439 4.22619 39.7141 4.61536ZM29.5044 10.3889C27.7537 12.4846 28.5199 16.8418 28.5912 19.3599C28.6186 20.5035 28.6203 21.6471 28.6249 22.7909C28.6363 24.7436 28.6634 26.6956 28.7022 28.6479C28.7424 30.6707 28.7733 32.6933 28.7917 34.7164C28.7928 34.8416 28.7939 34.9668 28.7951 35.0958C28.8008 35.7284 28.8063 36.3609 28.8117 36.9935C28.8226 38.2577 28.8347 39.5218 28.8473 40.786C28.8485 40.9108 28.8498 41.0356 28.8511 41.1643C28.88 44.0395 28.9238 46.9144 28.9682 49.7894C29.0424 54.6093 29.0862 59.4287 29.1075 64.2491C29.109 64.5757 29.1105 64.9022 29.112 65.2288C29.1178 66.4601 29.1234 67.6914 29.1288 68.9227C29.142 71.8813 29.1665 74.8399 29.1937 77.7984C29.1958 78.0252 29.1979 78.252 29.2 78.4856C29.2111 79.6851 29.2225 80.8846 29.2343 82.0841C29.8739 81.8349 30.4378 81.5651 31.0173 81.1962C31.2502 81.0486 31.2502 81.0486 31.4877 80.898C31.727 80.7446 31.727 80.7446 31.9711 80.5881C32.1335 80.4851 32.296 80.3822 32.4633 80.2761C33.2058 79.8374 33.2058 79.8374 33.873 79.3009C33.8911 78.8893 33.8958 78.4771 33.8955 78.0651C33.8957 77.9331 33.8959 77.8012 33.8961 77.6653C33.8964 77.2151 33.8954 76.7649 33.8944 76.3148C33.8943 75.988 33.8943 75.6612 33.8944 75.3344C33.8943 74.4222 33.8929 73.5099 33.8913 72.5977C33.8901 71.8079 33.8895 71.0181 33.8889 70.2283C33.8797 58.9702 33.8326 47.7122 33.7904 36.4543C33.7823 34.3117 33.7745 32.1691 33.7667 30.0264C33.7662 29.8732 33.7656 29.72 33.765 29.5621C33.7623 28.7926 33.7595 28.0231 33.7567 27.2536C33.734 20.9764 33.7109 14.6992 33.6875 8.42197C32.2299 8.42197 30.5147 9.40152 29.5044 10.3889ZM35.914 10.2774C35.9083 16.6595 35.9045 23.0415 35.9024 29.4236C35.9023 29.6599 35.9023 29.8962 35.9022 30.1397C35.8979 42.9128 35.9104 55.6852 36.0068 68.458C36.0079 68.6054 36.009 68.7529 36.0101 68.9048C36.0372 72.4939 36.0667 76.0829 36.0996 79.672C36.6506 79.9781 37.2017 80.2843 37.7695 80.5997C37.9089 75.3611 37.9728 70.1268 37.9342 64.8866C37.9333 64.7544 37.9323 64.6222 37.9313 64.4859C37.9221 63.2431 37.9124 62.0003 37.9023 60.7575C37.8859 58.6885 37.8754 56.6195 37.8683 54.5504C37.8675 54.3227 37.8675 54.3227 37.8667 54.0903C37.8618 52.6901 37.8574 51.2899 37.8533 49.8897C37.8506 48.9429 37.8476 47.9961 37.8445 47.0493C37.8439 46.8922 37.8434 46.7352 37.8429 46.5734C37.8339 44.0078 37.8124 41.4425 37.7867 38.8771C37.7604 36.2217 37.7483 33.5665 37.749 30.911C37.7491 29.2829 37.7382 27.6557 37.7127 26.0279C37.6964 24.9169 37.6938 23.8065 37.7019 22.6955C37.7061 22.0561 37.7045 21.4182 37.6864 20.7791C37.5974 17.0378 37.5974 17.0378 38.5166 15.9593C39.4082 15.2016 40.3854 14.6591 41.4546 14.1916C41.8576 13.9853 42.1091 13.7681 42.4082 13.4317C41.5434 12.9816 40.6782 12.5324 39.8125 12.0841C39.5179 11.9314 39.2235 11.7784 38.9292 11.6251C38.5067 11.4052 38.0838 11.1862 37.6608 10.9674C37.5287 10.8984 37.3967 10.8294 37.2607 10.7584C36.6208 10.4005 36.6208 10.4005 35.914 10.2774ZM50.86 10.958C50.6237 11.115 50.6237 11.115 50.3827 11.2751C50.1378 11.4414 50.1378 11.4414 49.888 11.6111C47.0714 13.5036 47.0714 13.5036 45.8918 13.9639C43.7576 14.8343 40.8962 16.1563 39.8789 18.353C39.4475 20.0604 39.5028 21.8002 39.5602 23.5491C39.5802 24.3363 39.5697 25.1232 39.5631 25.9105C39.5559 27.2709 39.5674 28.63 39.5923 29.9902C39.6281 31.9566 39.6351 33.9223 39.6354 35.8891C39.6366 39.0807 39.661 42.2718 39.7002 45.4632C39.7381 48.5607 39.7646 51.6579 39.7759 54.7556C39.7766 54.9469 39.7773 55.1382 39.7781 55.3352C39.7816 56.295 39.7848 57.2548 39.788 58.2146C39.808 64.0582 39.8425 69.9016 39.9047 75.745C39.9095 76.2059 39.914 76.6667 39.9184 77.1276C39.9251 77.8357 39.9328 78.5437 39.9413 79.2518C39.9443 79.509 39.947 79.7663 39.9493 80.0235C39.9525 80.3709 39.957 80.7182 39.9616 81.0656C39.9638 81.2592 39.966 81.4528 39.9682 81.6523C39.9479 82.0767 39.9479 82.0767 40.1816 82.2696C40.198 82.7374 40.203 83.2 40.1997 83.6677C40.1994 83.8075 40.1992 83.9473 40.1989 84.0913C40.1979 84.5394 40.1955 84.9874 40.1932 85.4355C40.1923 85.7386 40.1914 86.0417 40.1907 86.3448C40.1886 87.0893 40.1854 87.8337 40.1816 88.5782C41.0176 88.3208 41.7727 87.9887 42.5524 87.5932C42.7305 87.5034 42.7305 87.5034 42.9123 87.4117C43.1661 87.2837 43.4197 87.1553 43.6732 87.0267C44.3379 86.6894 45.0038 86.3544 45.6697 86.0197C45.8026 85.9529 45.9354 85.8861 46.0722 85.8173C47.4392 85.1316 48.818 84.4717 50.2022 83.8214C50.3614 83.7463 50.5205 83.6712 50.6846 83.5938C50.8207 83.5301 50.9568 83.4664 51.0971 83.4008C51.23 83.3337 51.363 83.2665 51.5 83.1974C51.7518 83.0842 51.7518 83.0842 52.0087 82.9687C52.4816 82.6717 52.4816 82.6717 52.5359 82.1067C52.5304 81.7812 52.5304 81.7812 52.5248 81.4492C52.5236 81.2697 52.5236 81.2696 52.5224 81.0865C52.5185 80.6921 52.508 80.2982 52.4973 79.9039C52.4932 79.6309 52.4894 79.3579 52.486 79.0849C52.4736 78.229 52.4513 77.3734 52.4277 76.5177C52.4202 76.2336 52.4128 75.9496 52.4054 75.6656C52.3616 74.0319 52.3067 72.3988 52.2421 70.7657C50.8836 71.5324 49.5332 72.3102 48.1992 73.1191C48.0199 73.2277 48.0199 73.2277 47.837 73.3385C47.3475 73.6352 46.8582 73.9323 46.3696 74.2305C46.0059 74.4524 45.6414 74.673 45.2769 74.8934C45.1122 74.9946 45.1122 74.9946 44.9442 75.0978C44.4172 75.4153 43.947 75.6739 43.3359 75.7755C43.1522 75.4081 42.9685 75.0407 42.7792 74.6622C42.5343 74.7234 42.2894 74.7847 42.0371 74.8477C42.0983 71.2964 42.1595 67.745 42.2226 64.086C42.4063 64.0248 42.59 63.9636 42.7792 63.9005C43.093 63.5959 43.4015 63.2857 43.707 62.9727C44.1094 62.6122 44.5223 62.2647 44.9362 61.9174C45.0424 61.8274 45.1486 61.7373 45.258 61.6446C45.7185 61.2564 46.1741 60.8951 46.6757 60.5606C46.7378 60.0897 46.7632 59.6628 46.7654 59.1906C46.7682 59.0494 46.771 58.9081 46.7738 58.7626C46.7819 58.2941 46.7857 57.8256 46.7888 57.3571C46.792 57.0316 46.7952 56.7062 46.7984 56.3807C46.8043 55.6975 46.8075 55.0144 46.8095 54.3311C46.8125 53.4566 46.8259 52.5826 46.8417 51.7082C46.8521 51.0355 46.855 50.3629 46.8558 49.6901C46.8575 49.3679 46.862 49.0456 46.8693 48.7234C46.9721 46.9898 46.9721 46.9898 46.3185 45.4667C45.8884 45.1746 45.4884 44.9789 45.0058 44.7892C43.8887 44.1713 42.8276 43.537 42.2226 42.377C41.9777 41.2496 42.0405 40.0683 42.0487 38.9212C42.0466 38.5946 42.044 38.268 42.0408 37.9414C42.0357 37.2996 42.0341 36.658 42.036 36.0163C42.038 35.2738 42.03 34.532 42.0168 33.7897C42.0117 33.4283 42.0068 33.0668 42.0023 32.7054C41.9998 32.5467 41.9973 32.388 41.9947 32.2244C41.994 31.435 42.0398 30.8321 42.4082 30.131C42.7909 29.8503 42.7909 29.8503 43.2678 29.6168C43.5353 29.4832 43.5353 29.4832 43.8081 29.3469C44.001 29.2543 44.1939 29.1617 44.3926 29.0662C44.6884 28.9199 44.6884 28.9199 44.9901 28.7707C45.6202 28.4598 46.2523 28.1531 46.8845 27.8464C47.312 27.6364 47.7394 27.4261 48.1666 27.2155C49.2144 26.6998 50.2637 26.1875 51.3144 25.6778C51.2226 26.0452 51.2226 26.0452 51.1289 26.42C51.7718 26.3282 51.7718 26.3282 52.4277 26.2345C52.4277 21.0299 52.4277 15.8253 52.4277 10.463C51.6361 10.463 51.4859 10.5355 50.86 10.958ZM54.7405 41.4421C54.5309 41.5828 54.5309 41.5828 54.317 41.7264C54.0209 41.9255 53.725 42.1249 53.4293 42.3245C52.9748 42.6307 52.5192 42.9352 52.0635 43.2395C51.7767 43.4327 51.4901 43.626 51.2035 43.8194C51.0661 43.9108 50.9287 44.0022 50.7871 44.0965C50.4614 44.3178 50.1446 44.5522 49.83 44.7892C49.83 44.9116 49.83 45.0341 49.83 45.1602C50.1833 45.4185 50.1833 45.4185 50.6476 45.6734C50.8255 45.776 51.0033 45.8785 51.1866 45.9842C51.3819 46.095 51.5771 46.2058 51.7783 46.3199C52.1912 46.5574 52.6041 46.7949 53.0169 47.0324C53.2288 47.1536 53.4406 47.2749 53.6588 47.3998C54.5927 47.9355 55.5222 48.4786 56.4517 49.0219C56.6327 49.1275 56.8136 49.233 57 49.3418C58.5923 50.2705 60.1823 51.2028 61.7723 52.1354C63.4718 53.1323 65.1729 54.1265 66.8753 55.1184C67.9168 55.7256 68.9575 56.3341 69.9974 56.9439C70.1796 57.0508 70.1796 57.0508 70.3655 57.1598C71.0712 57.5737 71.7768 57.9878 72.4822 58.4021C72.7927 58.5841 73.1038 58.7651 73.4149 58.946C73.7336 59.1337 74.0502 59.325 74.362 59.524C74.982 59.922 74.982 59.922 75.6976 59.9483C76.4774 59.7374 77.1935 59.4072 77.9288 59.0763C78.0922 59.003 78.2556 58.9297 78.424 58.8542C79.8692 58.1889 81.1851 57.3899 82.4863 56.4786C82.2632 55.8093 82.1273 55.7698 81.5281 55.4393C81.3673 55.3493 81.2066 55.2593 81.041 55.1666C80.8673 55.0714 80.6937 54.9763 80.5148 54.8783C80.1533 54.676 79.7919 54.4736 79.4306 54.2709C79.2533 54.1719 79.0761 54.073 78.8935 53.971C78.2827 53.6269 77.682 53.2698 77.0822 52.9068C75.8111 52.1377 74.5338 51.3792 73.2553 50.6223C73.038 50.4936 72.8206 50.3649 72.6033 50.2362C72.16 49.9737 71.7167 49.7112 71.2734 49.4488C70.0094 48.7004 68.7459 47.9515 67.4823 47.2024C66.5363 46.6416 65.5902 46.0811 64.6432 45.5219C62.2858 44.1297 59.9344 42.7293 57.6029 41.2941C57.4368 41.1923 57.2708 41.0904 57.0997 40.9854C56.9538 40.8955 56.8078 40.8056 56.6575 40.7129C55.93 40.2953 55.3543 41.0291 54.7405 41.4421ZM48.9023 47.2013C48.9023 51.5486 48.9023 55.896 48.9023 60.3751C50.1881 61.018 50.1881 61.018 51.5 61.6739C52.2047 62.0736 52.9034 62.4768 53.5989 62.8916C55.1462 63.8044 56.7023 64.6976 58.2724 65.5704C59.9849 66.5233 61.6814 67.5005 63.3713 68.4928C64.6933 69.267 66.0256 70.0207 67.3642 70.7657C68.8972 71.619 70.4199 72.4874 71.9333 73.375C73.4618 74.2712 74.9955 75.1572 76.5372 76.0306C76.722 76.1356 76.9068 76.2406 77.0972 76.3488C77.2661 76.4443 77.4351 76.5397 77.6091 76.638C77.7586 76.7225 77.9081 76.807 78.0621 76.8941C78.3672 77.0887 78.3672 77.0887 78.5898 77.0743C78.5898 71.8697 78.5898 66.6651 78.5898 61.3028C77.6459 61.4916 76.9582 61.8106 76.1074 62.2378C75.554 62.4407 75.422 62.4132 74.8789 62.2306C74.5869 62.0856 74.2997 61.9308 74.0164 61.7696C73.8473 61.6738 73.6782 61.578 73.504 61.4794C73.3224 61.3752 73.1409 61.271 72.9538 61.1637C72.6691 61.0015 72.6691 61.0015 72.3786 60.836C70.7638 59.913 69.1619 58.9687 67.5628 58.0188C66.5064 57.3916 65.4456 56.7721 64.3839 56.1539C62.7162 55.1826 61.0503 54.2081 59.3857 53.2315C57.5198 52.1369 55.6524 51.0448 53.783 49.9561C52.9445 49.4676 52.1068 48.9776 51.2716 48.4834C51.1232 48.3956 50.9747 48.3078 50.8217 48.2174C50.5472 48.0548 50.2728 47.8919 49.9987 47.7286C49.4829 47.3636 49.4829 47.3636 48.9023 47.2013ZM46.7569 63.2511C46.5856 63.3971 46.5856 63.3971 46.4108 63.5461C46.1277 63.7875 45.845 64.0295 45.5625 64.2716C46.0949 64.6881 46.6381 65.0314 47.2288 65.3595C47.5033 65.5126 47.5033 65.5126 47.7834 65.6687C47.9804 65.7779 48.1774 65.887 48.3804 65.9995C48.8016 66.2341 49.2227 66.4687 49.6438 66.7033C49.8616 66.8244 50.0795 66.9455 50.2974 67.0667C53.369 68.775 56.4296 70.5016 59.4785 72.2501C60.3287 72.7375 61.1791 73.2246 62.0297 73.7113C62.1398 73.7743 62.2498 73.8372 62.3632 73.9021C64.1049 74.8985 65.8542 75.8806 67.6072 76.8571C69.18 77.7359 70.737 78.6405 72.2879 79.5575C73.8754 80.6636 73.8754 80.6636 75.6274 81.1003C76.1773 80.905 76.6517 80.6087 77.1518 80.3098C77.3518 80.1909 77.5517 80.072 77.7577 79.9496C77.9099 79.858 78.062 79.7663 78.2187 79.672C77.7803 79.1864 77.3217 78.8976 76.7495 78.5841C76.565 78.482 76.3805 78.38 76.1904 78.2749C75.8913 78.1112 75.8913 78.1112 75.5863 77.9441C75.1621 77.7093 74.7381 77.4742 74.3142 77.2388C74.2062 77.1788 74.0981 77.1189 73.9868 77.057C72.9142 76.46 71.8549 75.8411 70.7968 75.2188C69.2913 74.3347 67.7765 73.4702 66.2509 72.6212C64.5385 71.6682 62.842 70.6911 61.152 69.6988C59.83 68.9246 58.4978 68.1709 57.1591 67.4259C55.2303 66.3521 53.3193 65.2501 51.4151 64.1331C51.2492 64.0358 51.0833 63.9385 50.9124 63.8382C50.531 63.6142 50.1498 63.3896 49.7689 63.1647C49.4651 62.9861 49.4651 62.9861 49.1552 62.8039C48.9695 62.6943 48.7837 62.5848 48.5923 62.4719C47.7584 62.0063 47.3955 62.7033 46.7569 63.2511ZM80.8164 75.5899C80.8164 76.3859 80.8164 77.1819 80.8164 78.002C81.8727 77.7042 81.8727 77.7042 82.4863 77.2599C82.2008 76.4033 81.5365 76.07 80.8164 75.5899Z" fill="black"/>
<path d="M50.6856 26.5332C50.7642 27.6814 50.821 28.828 50.8588 29.9782C50.8746 30.3683 50.8961 30.7581 50.9235 31.1475C51.1393 34.2873 51.1393 34.2873 50.3916 35.2687C49.6481 35.9566 48.8025 36.4432 47.9075 36.9083C47.4419 37.1571 47.0336 37.4549 46.6195 37.7813C46.5016 37.8704 46.3837 37.9594 46.2622 38.0512C46.1529 38.1346 46.0436 38.218 45.9309 38.3038C45.4758 38.6492 45.0199 38.9936 44.5625 39.3359C44.4435 39.4252 44.3244 39.5144 44.2018 39.6064C43.3074 40.2637 43.3074 40.2637 42.8926 40.2637C42.8391 39.1946 42.7862 38.1256 42.7341 37.0565C42.7163 36.6937 42.6983 36.3309 42.6801 35.9682C42.4864 32.1027 42.4864 32.1027 42.5215 30.2441C45.7901 28.4203 45.7901 28.4203 47.5313 28.0176C47.5313 27.8951 47.5313 27.7727 47.5313 27.6465C47.917 27.4592 48.3037 27.2741 48.6909 27.0898C48.9062 26.9865 49.1215 26.8832 49.3433 26.7767C49.9434 26.5332 49.9434 26.5332 50.6856 26.5332Z" fill="#AFAFAF"/>
<path d="M51.0531 35.4856C51.4276 35.6253 51.743 35.786 52.0829 35.9957C52.2028 36.0688 52.3226 36.1419 52.4461 36.2172C52.5692 36.2936 52.6924 36.37 52.8193 36.4487C53.8634 37.0986 53.8634 37.0986 54.9531 37.6664C54.9531 37.8501 54.9531 38.0338 54.9531 38.223C54.7391 38.325 54.5251 38.427 54.3046 38.5321C53.4792 38.9453 52.7286 39.4345 51.9699 39.9582C51.8337 40.051 51.6975 40.1438 51.5573 40.2394C51.1269 40.5328 50.6974 40.8274 50.2681 41.1222C49.8359 41.4181 49.4036 41.7138 48.9709 42.009C48.7029 42.1919 48.4353 42.3752 48.168 42.5591C48.0466 42.6421 47.9251 42.7252 47.8 42.8107C47.694 42.8834 47.5881 42.9562 47.4789 43.0311C47.1317 43.2508 46.7973 43.445 46.418 43.6039C46.0101 43.4475 46.0101 43.4475 45.5743 43.1661C45.4176 43.0661 45.261 42.9662 45.0996 42.8631C44.9376 42.7555 44.7757 42.6479 44.6089 42.537C44.4441 42.4322 44.2793 42.3275 44.1095 42.2195C43.2236 41.6453 43.2236 41.6453 42.8926 41.3773C42.8926 41.2549 42.8926 41.1324 42.8926 41.0062C43.3421 40.662 43.7936 40.3391 44.261 40.0205C44.5501 39.8202 44.839 39.6196 45.1278 39.4189C45.2786 39.3145 45.4294 39.21 45.5848 39.1024C46.3405 38.5746 47.0866 38.0336 47.8328 37.4924C48.6266 36.9173 48.6266 36.9173 49.0202 36.6351C49.2654 36.4561 49.5074 36.2726 49.746 36.0848C50.5963 35.4287 50.5963 35.4287 51.0531 35.4856Z" fill="#ACACAC"/>
<path d="M42.5215 64.0137C43.1549 64.172 43.508 64.3169 44.0522 64.6399C44.8214 65.0799 45.5812 65.3945 46.418 65.6836C46.418 65.8061 46.418 65.9285 46.418 66.0547C46.5672 66.1006 46.7165 66.1465 46.8702 66.1938C47.7973 66.5191 48.6935 66.9141 49.5723 67.3535C49.5723 67.476 49.5723 67.5984 49.5723 67.7246C49.9396 67.8471 50.307 67.9695 50.6855 68.0957C50.6855 68.2794 50.6855 68.4631 50.6855 68.6523C50.3638 68.9216 50.3638 68.9216 49.91 69.2032C49.7428 69.3082 49.5755 69.4133 49.4032 69.5216C49.2217 69.6327 49.0402 69.7439 48.8533 69.8584C48.67 69.9729 48.4868 70.0874 48.2979 70.2054C47.4011 70.7642 46.4991 71.3143 45.5953 71.8617C45.4421 71.9546 45.2889 72.0476 45.131 72.1433C44.8416 72.3181 44.5515 72.4919 44.2607 72.6644C43.5555 73.0478 43.5555 73.0478 43.0781 73.6621C42.8944 73.6621 42.7107 73.6621 42.5215 73.6621C42.5215 70.4781 42.5215 67.2941 42.5215 64.0137Z" fill="#ADADAD"/>
<path d="M42.336 30.2441C42.3972 30.2441 42.4585 30.2441 42.5216 30.2441C42.8063 33.5909 42.9475 36.9049 42.8927 40.2637C43.3453 39.9472 43.7976 39.6302 44.2495 39.3127C44.4587 39.1659 44.4587 39.1659 44.6721 39.0161C45.4634 38.458 46.2468 37.8914 47.0218 37.3109C47.1804 37.1923 47.339 37.0737 47.5025 36.9515C47.8124 36.7189 48.1214 36.4852 48.4296 36.2504C48.5708 36.1445 48.7121 36.0386 48.8577 35.9294C48.9824 35.8348 49.1071 35.7401 49.2356 35.6426C49.5723 35.4395 49.5723 35.4395 50.129 35.4395C49.457 36.4906 48.7741 37.12 47.7401 37.8052C47.4604 37.9963 47.1808 38.1876 46.9015 38.3792C46.6896 38.5234 46.6896 38.5234 46.4734 38.6706C45.7914 39.1412 45.1246 39.6322 44.4582 40.1245C44.2776 40.2575 44.2776 40.2575 44.0934 40.3932C43.8166 40.5972 43.5402 40.8015 43.2637 41.0059C43.2025 40.8834 43.1413 40.7609 43.0782 40.6348C42.9557 40.6348 42.8333 40.6348 42.7071 40.6348C42.6535 39.5427 42.6007 38.4506 42.5486 37.3585C42.5308 36.988 42.5128 36.6175 42.4946 36.247C42.3963 34.2449 42.3018 32.2493 42.336 30.2441Z" fill="#3B3B3B"/>
<path d="M49.7578 35.2539C49.8803 35.3151 50.0027 35.3764 50.1289 35.4395C49.5803 36.2702 49.1903 36.8496 48.2734 37.2949C48.2734 37.1725 48.2734 37.05 48.2734 36.9238C47.9673 37.0463 47.6611 37.1688 47.3457 37.2949C48.0823 36.5123 48.8873 35.8825 49.7578 35.2539Z" fill="#252525"/>
<path d="M44.1914 39.3359C44.3139 39.3972 44.4363 39.4584 44.5625 39.5215C44.1782 40.27 43.8266 40.6215 43.0781 41.0059C43.0781 40.8834 43.0781 40.7609 43.0781 40.6348C42.9557 40.5735 42.8332 40.5123 42.707 40.4492C42.8907 40.4492 43.0744 40.4492 43.2637 40.4492C43.3249 40.2655 43.3861 40.0818 43.4492 39.8926C43.8319 39.5795 43.8319 39.5795 44.1914 39.3359Z" fill="#262626"/>
<path d="M44.748 38.9648C44.993 38.9648 45.2379 38.9648 45.4902 38.9648C45.2792 39.5979 45.1111 39.729 44.5625 40.0781C44.44 40.0781 44.3176 40.0781 44.1914 40.0781C44.5393 39.1736 44.5393 39.1736 44.748 38.9648Z" fill="#191919"/>
</g>
<defs>
<radialGradient id="paint0_radial_2003_659" cx="0" cy="0" r="1" gradientUnits="userSpaceOnUse" gradientTransform="translate(47.5 47.5) rotate(90) scale(47.5 47.5)">
<stop offset="0.4" stop-color="white"/>
<stop offset="1" stop-color="white" stop-opacity="0.5"/>
</radialGradient>
<clipPath id="clip0_2003_659">
<rect width="95" height="95" fill="white"/>
</clipPath>
</defs>
</svg>
