<svg width="95" height="95" viewBox="0 0 95 95" fill="none" xmlns="http://www.w3.org/2000/svg">
<rect width="95" height="95" rx="20" fill="url(#paint0_radial_2013_52)"/>
<path d="M41.608 2.6843C42.0044 2.87202 42.0044 2.87202 42.4082 3.11337C42.7786 3.30018 43.1497 3.48585 43.5214 3.67002C43.5078 3.86362 43.4942 4.05722 43.4802 4.25669C43.4329 4.98152 43.4033 5.70622 43.3787 6.43215C43.3657 6.74496 43.3481 7.0576 43.3255 7.36985C43.1518 9.10869 43.1518 9.10869 43.7728 10.6655C44.4988 11.3132 45.5106 12.0423 46.5156 12.0049C46.9775 11.7767 47.3744 11.4982 47.7905 11.1941C47.9739 11.0674 48.1574 10.9408 48.3464 10.8103C48.7267 10.5459 49.1028 10.2754 49.4742 9.99854C50.7695 9.12532 51.5431 8.97138 53.064 9.20104C53.2175 9.2213 53.3711 9.24155 53.5293 9.26242C53.9047 9.3124 54.2795 9.36674 54.6542 9.42197C54.6586 12.917 54.6619 16.4121 54.6639 19.9072C54.6648 21.53 54.6661 23.1527 54.6682 24.7755C54.6701 26.1898 54.6713 27.604 54.6717 29.0183C54.6719 29.7673 54.6725 30.5162 54.6739 31.2652C54.6751 31.97 54.6755 32.6748 54.6752 33.3797C54.6753 33.6385 54.6757 33.8973 54.6764 34.1561C54.6773 34.5092 54.677 34.8624 54.6766 35.2156C54.6768 35.5122 54.6768 35.5122 54.6771 35.8148C54.657 36.2645 54.5986 36.6395 54.4687 37.0685C54.5696 37.1172 54.6706 37.166 54.7746 37.2163C55.2797 37.4747 55.7676 37.7512 56.2546 38.0426C56.433 38.1469 56.6114 38.2511 56.7953 38.3586C57.2519 38.7384 57.2519 38.7384 57.4418 39.3153C57.5016 39.4923 57.5614 39.6693 57.623 39.8517C58.056 40.0522 58.056 40.0522 58.5507 40.2227C58.8232 40.37 59.0923 40.5234 59.3582 40.6823C59.5134 40.7745 59.6687 40.8668 59.8287 40.9619C59.9963 41.0624 60.1639 41.1629 60.3366 41.2664C60.7055 41.4861 61.0745 41.7057 61.4434 41.9253C61.6376 42.0412 61.8317 42.1571 62.0318 42.2765C63.0464 42.8815 64.0632 43.4827 65.0797 44.0844C65.5056 44.3369 65.9316 44.5893 66.3575 44.8419C67.6207 45.5907 68.884 46.3394 70.1474 47.088C70.5649 47.3354 70.9824 47.5828 71.3999 47.8302C71.6065 47.9526 71.8132 48.0751 72.0261 48.2013C73.9047 49.3145 73.9047 49.3145 74.5312 49.6858C74.9479 49.9327 75.3646 50.1797 75.7814 50.4266C76.7293 50.9883 77.6773 51.5501 78.6251 52.112C81.3334 53.7175 84.0428 55.3212 86.7539 56.922C86.4731 57.668 86.0365 57.9518 85.3789 58.3795C85.18 58.5102 84.9812 58.6409 84.7763 58.7756C84.5657 58.9116 84.3552 59.0475 84.1446 59.1833C83.9332 59.3212 83.7219 59.4593 83.5108 59.5975C83.1256 59.8496 82.7399 60.1009 82.3536 60.3511C81.9532 60.5971 81.9532 60.5971 81.7441 60.8185C81.7148 61.2228 81.6988 61.6282 81.6877 62.0335C81.6841 62.1605 81.6805 62.2876 81.6768 62.4185C81.6454 63.5966 81.6275 64.775 81.6135 65.9535C81.604 66.7447 81.5902 67.5354 81.5659 68.3263C81.5425 69.0918 81.5303 69.8566 81.5256 70.6224C81.522 70.9129 81.5145 71.2033 81.503 71.4936C81.4232 73.264 81.4232 73.264 82.2151 74.7926C82.7571 75.3264 83.3542 75.7734 83.9707 76.2188C84.1751 76.3805 84.3785 76.5435 84.5808 76.7079C84.92 76.9831 85.262 77.2551 85.6072 77.5227C86.0072 77.8848 86.1614 78.1501 86.3828 78.631C85.8925 78.9138 85.4022 79.1967 84.9119 79.4795C84.4817 79.7277 84.0514 79.976 83.6212 80.2242C82.5916 80.8182 81.5621 81.4122 80.5322 82.0057C80.2012 82.1965 79.8702 82.3873 79.5392 82.5781C79.1218 82.8187 78.7044 83.0593 78.2869 83.2998C78.0967 83.4094 77.9066 83.519 77.7106 83.632C77.5441 83.728 77.3775 83.824 77.2059 83.9228C76.7277 84.1914 76.7277 84.1914 76.279 84.5226C75.6583 84.8266 75.3509 84.7557 74.6933 84.5685C74.2376 84.3531 74.2376 84.3531 73.7866 84.0799C73.6152 83.9777 73.4437 83.8755 73.2671 83.7702C72.9915 83.6028 72.9915 83.6028 72.7103 83.432C72.3088 83.1928 71.907 82.9541 71.5049 82.7159C71.2966 82.5923 71.0884 82.4688 70.8737 82.3415C69.8528 81.7441 68.8177 81.1731 67.7817 80.6024C66.0495 79.646 64.3259 78.6762 62.6096 77.6916C60.7006 76.5965 58.7854 75.5139 56.863 74.4427C56.6835 74.3426 56.504 74.2425 56.3191 74.1394C56.1627 74.0524 56.0063 73.9654 55.8451 73.8757C55.3816 73.6128 54.9246 73.3405 54.4687 73.0645C54.482 73.2813 54.4952 73.4981 54.5089 73.7214C54.6521 76.2102 54.6765 78.6899 54.6658 81.1822C54.6649 81.5676 54.6641 81.9529 54.6633 82.3383C54.6613 83.2672 54.6581 84.1962 54.6542 85.1251C54.4777 85.2133 54.3012 85.3015 54.1194 85.3923C52.9074 85.998 51.6956 86.6041 50.4848 87.2122C44.9047 90.0145 44.9047 90.0145 42.1075 91.3385C40.926 91.8978 39.7572 92.4782 38.595 93.0768C38.1406 93.2892 38.1406 93.2892 37.7695 93.2892C37.7571 91.2459 37.7922 89.2081 37.8623 87.1661C37.8712 86.8936 37.8802 86.6211 37.8891 86.3485C37.9106 85.6933 37.9326 85.0381 37.955 84.3829C37.8125 84.3284 37.67 84.2739 37.5231 84.2178C36.7713 83.9055 36.1399 83.4277 35.4726 82.9659C35.023 82.6718 35.023 82.6718 34.6272 82.7658C34.2342 82.902 33.9183 83.066 33.565 83.2848C33.4346 83.365 33.3043 83.4452 33.1699 83.5278C33.0307 83.6148 32.8915 83.7018 32.7481 83.7915C32.6034 83.8808 32.4587 83.9701 32.3096 84.062C31.5071 84.5588 30.7093 85.0627 29.9135 85.5701C29.7533 85.6721 29.5932 85.774 29.4283 85.879C29.1169 86.0777 28.806 86.2773 28.4957 86.4778C28.3549 86.5679 28.214 86.658 28.0689 86.7508C27.9444 86.8311 27.8199 86.9114 27.6916 86.9941C27.3789 87.1661 27.3789 87.1661 27.0078 87.1661C27.0063 86.9374 27.0048 86.7087 27.0033 86.473C26.9859 83.8045 26.967 81.136 26.9474 78.4676C26.9417 77.6942 26.9361 76.9209 26.9306 76.1476C26.8834 69.5181 26.8119 62.8897 26.6962 56.261C26.6405 53.0698 26.5886 49.8788 26.5532 46.6874C26.5508 46.4705 26.5508 46.4705 26.5484 46.2492C26.5323 44.7868 26.5173 43.3244 26.5035 41.8619C26.4966 41.1296 26.4894 40.3973 26.4821 39.665C26.4806 39.5197 26.4792 39.3745 26.4777 39.2248C26.453 36.8184 26.4068 34.4128 26.3541 32.0069C26.2993 29.4832 26.2672 26.96 26.256 24.4357C26.2492 23.0386 26.2324 21.6432 26.1888 20.2467C25.9286 11.6846 25.9286 11.6846 27.3934 9.93197C28.6915 8.66196 30.3127 8.02019 32.0112 7.46665C33.1967 7.06589 34.2063 6.3733 35.253 5.69943C35.6252 5.47606 35.9981 5.25383 36.3721 5.03335C37.0315 4.63874 37.6791 4.23197 38.3203 3.80845C40.5148 2.3819 40.5148 2.3819 41.608 2.6843ZM39.7141 5.61536C39.5549 5.71247 39.3958 5.80957 39.2318 5.90962C39.0668 6.01247 38.9019 6.11532 38.732 6.22128C38.4062 6.42144 38.0802 6.62148 37.7543 6.82141C37.5994 6.91697 37.4445 7.01252 37.2849 7.11097C36.7108 7.46074 36.1289 7.79378 35.5429 8.12314C35.5429 8.2456 35.5429 8.36806 35.5429 8.49423C36.245 8.86996 36.9482 9.24323 37.6527 9.61426C37.8923 9.74086 38.1315 9.86811 38.3703 9.99605C38.7134 10.1797 39.0578 10.361 39.4024 10.5418C39.7129 10.7065 39.7129 10.7065 40.0296 10.8745C40.5534 11.1593 40.5534 11.1593 41.1093 10.9063C41.1706 9.0082 41.2318 7.11005 41.2949 5.15439C40.5202 5.15439 40.3439 5.22619 39.7141 5.61536ZM29.5044 11.3889C27.7537 13.4846 28.5199 17.8418 28.5912 20.3599C28.6186 21.5035 28.6203 22.6471 28.6249 23.7909C28.6363 25.7436 28.6634 27.6956 28.7022 29.6479C28.7424 31.6707 28.7733 33.6933 28.7917 35.7164C28.7928 35.8416 28.7939 35.9668 28.7951 36.0958C28.8008 36.7284 28.8063 37.3609 28.8117 37.9935C28.8226 39.2577 28.8347 40.5218 28.8473 41.786C28.8485 41.9108 28.8498 42.0356 28.8511 42.1643C28.88 45.0395 28.9238 47.9144 28.9682 50.7894C29.0424 55.6093 29.0862 60.4287 29.1075 65.2491C29.109 65.5757 29.1105 65.9022 29.112 66.2288C29.1178 67.4601 29.1234 68.6914 29.1288 69.9227C29.142 72.8813 29.1665 75.8399 29.1937 78.7984C29.1958 79.0252 29.1979 79.252 29.2 79.4856C29.2111 80.6851 29.2225 81.8846 29.2343 83.0841C29.8739 82.8349 30.4378 82.5651 31.0173 82.1962C31.2502 82.0486 31.2502 82.0486 31.4877 81.898C31.727 81.7446 31.727 81.7446 31.9711 81.5881C32.1335 81.4851 32.296 81.3822 32.4633 81.2761C33.2058 80.8374 33.2058 80.8374 33.873 80.3009C33.8911 79.8893 33.8958 79.4771 33.8955 79.0651C33.8957 78.9331 33.8959 78.8012 33.8961 78.6653C33.8964 78.2151 33.8954 77.7649 33.8944 77.3148C33.8943 76.988 33.8943 76.6612 33.8944 76.3344C33.8943 75.4222 33.8929 74.5099 33.8913 73.5977C33.8901 72.8079 33.8895 72.0181 33.8889 71.2283C33.8797 59.9702 33.8326 48.7122 33.7904 37.4543C33.7823 35.3117 33.7745 33.1691 33.7667 31.0264C33.7662 30.8732 33.7656 30.72 33.765 30.5621C33.7623 29.7926 33.7595 29.0231 33.7567 28.2536C33.734 21.9764 33.7109 15.6992 33.6875 9.42197C32.2299 9.42197 30.5147 10.4015 29.5044 11.3889ZM35.914 11.2774C35.9083 17.6595 35.9045 24.0415 35.9024 30.4236C35.9023 30.6599 35.9023 30.8962 35.9022 31.1397C35.8979 43.9128 35.9104 56.6852 36.0068 69.458C36.0079 69.6054 36.009 69.7529 36.0101 69.9048C36.0372 73.4939 36.0667 77.0829 36.0996 80.672C36.6506 80.9781 37.2017 81.2843 37.7695 81.5997C37.9089 76.3611 37.9728 71.1268 37.9342 65.8866C37.9333 65.7544 37.9323 65.6222 37.9313 65.4859C37.9221 64.2431 37.9124 63.0003 37.9023 61.7575C37.8859 59.6885 37.8754 57.6195 37.8683 55.5504C37.8675 55.3227 37.8675 55.3227 37.8667 55.0903C37.8618 53.6901 37.8574 52.2899 37.8533 50.8897C37.8506 49.9429 37.8476 48.9961 37.8445 48.0493C37.8439 47.8922 37.8434 47.7352 37.8429 47.5734C37.8339 45.0078 37.8124 42.4425 37.7867 39.8771C37.7604 37.2217 37.7483 34.5665 37.749 31.911C37.7491 30.2829 37.7382 28.6557 37.7127 27.0279C37.6964 25.9169 37.6938 24.8065 37.7019 23.6955C37.7061 23.0561 37.7045 22.4182 37.6864 21.7791C37.5974 18.0378 37.5974 18.0378 38.5166 16.9593C39.4082 16.2016 40.3854 15.6591 41.4546 15.1916C41.8576 14.9853 42.1091 14.7681 42.4082 14.4317C41.5434 13.9816 40.6782 13.5324 39.8125 13.0841C39.5179 12.9314 39.2235 12.7784 38.9292 12.6251C38.5067 12.4052 38.0838 12.1862 37.6608 11.9674C37.5287 11.8984 37.3967 11.8294 37.2607 11.7584C36.6208 11.4005 36.6208 11.4005 35.914 11.2774ZM50.86 11.958C50.6237 12.115 50.6237 12.115 50.3827 12.2751C50.1378 12.4414 50.1378 12.4414 49.888 12.6111C47.0714 14.5036 47.0714 14.5036 45.8918 14.9639C43.7576 15.8343 40.8962 17.1563 39.8789 19.353C39.4475 21.0604 39.5028 22.8002 39.5602 24.5491C39.5802 25.3363 39.5697 26.1232 39.5631 26.9105C39.5559 28.2709 39.5674 29.63 39.5923 30.9902C39.6281 32.9566 39.6351 34.9223 39.6354 36.8891C39.6366 40.0807 39.661 43.2718 39.7002 46.4632C39.7381 49.5607 39.7646 52.6579 39.7759 55.7556C39.7766 55.9469 39.7773 56.1382 39.7781 56.3352C39.7816 57.295 39.7848 58.2548 39.788 59.2146C39.808 65.0582 39.8425 70.9016 39.9047 76.745C39.9095 77.2059 39.914 77.6667 39.9184 78.1276C39.9251 78.8357 39.9328 79.5437 39.9413 80.2518C39.9443 80.509 39.947 80.7663 39.9493 81.0235C39.9525 81.3709 39.957 81.7182 39.9616 82.0656C39.9638 82.2592 39.966 82.4528 39.9682 82.6523C39.9479 83.0767 39.9479 83.0767 40.1816 83.2696C40.198 83.7374 40.203 84.2 40.1997 84.6677C40.1994 84.8075 40.1992 84.9473 40.1989 85.0913C40.1979 85.5394 40.1955 85.9874 40.1932 86.4355C40.1923 86.7386 40.1914 87.0417 40.1907 87.3448C40.1886 88.0893 40.1854 88.8337 40.1816 89.5782C41.0176 89.3208 41.7727 88.9887 42.5524 88.5932C42.7305 88.5034 42.7305 88.5034 42.9123 88.4117C43.1661 88.2837 43.4197 88.1553 43.6732 88.0267C44.3379 87.6894 45.0038 87.3544 45.6697 87.0197C45.8026 86.9529 45.9354 86.8861 46.0722 86.8173C47.4392 86.1316 48.818 85.4717 50.2022 84.8214C50.3614 84.7463 50.5205 84.6712 50.6846 84.5938C50.8207 84.5301 50.9568 84.4664 51.0971 84.4008C51.23 84.3337 51.363 84.2665 51.5 84.1974C51.7518 84.0842 51.7518 84.0842 52.0087 83.9687C52.4816 83.6717 52.4816 83.6717 52.5359 83.1067C52.5304 82.7812 52.5304 82.7812 52.5248 82.4492C52.5236 82.2697 52.5236 82.2696 52.5224 82.0865C52.5185 81.6921 52.508 81.2982 52.4973 80.9039C52.4932 80.6309 52.4894 80.3579 52.486 80.0849C52.4736 79.229 52.4513 78.3734 52.4277 77.5177C52.4202 77.2336 52.4128 76.9496 52.4054 76.6656C52.3616 75.0319 52.3067 73.3988 52.2421 71.7657C50.8836 72.5324 49.5332 73.3102 48.1992 74.1191C48.0199 74.2277 48.0199 74.2277 47.837 74.3385C47.3475 74.6352 46.8582 74.9323 46.3696 75.2305C46.0059 75.4524 45.6414 75.673 45.2769 75.8934C45.1122 75.9946 45.1122 75.9946 44.9442 76.0978C44.4172 76.4153 43.947 76.6739 43.3359 76.7755C43.1522 76.4081 42.9685 76.0407 42.7792 75.6622C42.5343 75.7234 42.2894 75.7847 42.0371 75.8477C42.0983 72.2964 42.1595 68.745 42.2226 65.086C42.4063 65.0248 42.59 64.9636 42.7792 64.9005C43.093 64.5959 43.4015 64.2857 43.707 63.9727C44.1094 63.6122 44.5223 63.2647 44.9362 62.9174C45.0424 62.8274 45.1486 62.7373 45.258 62.6446C45.7185 62.2564 46.1741 61.8951 46.6757 61.5606C46.7378 61.0897 46.7632 60.6628 46.7654 60.1906C46.7682 60.0494 46.771 59.9081 46.7738 59.7626C46.7819 59.2941 46.7857 58.8256 46.7888 58.3571C46.792 58.0316 46.7952 57.7062 46.7984 57.3807C46.8043 56.6975 46.8075 56.0144 46.8095 55.3311C46.8125 54.4566 46.8259 53.5826 46.8417 52.7082C46.8521 52.0355 46.855 51.3629 46.8558 50.6901C46.8575 50.3679 46.862 50.0456 46.8693 49.7234C46.9721 47.9898 46.9721 47.9898 46.3185 46.4667C45.8884 46.1746 45.4884 45.9789 45.0058 45.7892C43.8887 45.1713 42.8276 44.537 42.2226 43.377C41.9777 42.2496 42.0405 41.0683 42.0487 39.9212C42.0466 39.5946 42.044 39.268 42.0408 38.9414C42.0357 38.2996 42.0341 37.658 42.036 37.0163C42.038 36.2738 42.03 35.532 42.0168 34.7897C42.0117 34.4283 42.0068 34.0668 42.0023 33.7054C41.9998 33.5467 41.9973 33.388 41.9947 33.2244C41.994 32.435 42.0398 31.8321 42.4082 31.131C42.7909 30.8503 42.7909 30.8503 43.2678 30.6168C43.5353 30.4832 43.5353 30.4832 43.8081 30.3469C44.001 30.2543 44.1939 30.1617 44.3926 30.0662C44.6884 29.9199 44.6884 29.9199 44.9901 29.7707C45.6202 29.4598 46.2523 29.1531 46.8845 28.8464C47.312 28.6364 47.7394 28.4261 48.1666 28.2155C49.2144 27.6998 50.2637 27.1875 51.3144 26.6778C51.2226 27.0452 51.2226 27.0452 51.1289 27.42C51.7718 27.3282 51.7718 27.3282 52.4277 27.2345C52.4277 22.0299 52.4277 16.8253 52.4277 11.463C51.6361 11.463 51.4859 11.5355 50.86 11.958ZM54.7405 42.4421C54.5309 42.5828 54.5309 42.5828 54.317 42.7264C54.0209 42.9255 53.725 43.1249 53.4293 43.3245C52.9748 43.6307 52.5192 43.9352 52.0635 44.2395C51.7767 44.4327 51.4901 44.626 51.2035 44.8194C51.0661 44.9108 50.9287 45.0022 50.7871 45.0965C50.4614 45.3178 50.1446 45.5522 49.83 45.7892C49.83 45.9116 49.83 46.0341 49.83 46.1602C50.1833 46.4185 50.1833 46.4185 50.6476 46.6734C50.8255 46.776 51.0033 46.8785 51.1866 46.9842C51.3819 47.095 51.5771 47.2058 51.7783 47.3199C52.1912 47.5574 52.6041 47.7949 53.0169 48.0324C53.2288 48.1536 53.4406 48.2749 53.6588 48.3998C54.5927 48.9355 55.5222 49.4786 56.4517 50.0219C56.6327 50.1275 56.8136 50.233 57 50.3418C58.5923 51.2705 60.1823 52.2028 61.7723 53.1354C63.4718 54.1323 65.1729 55.1265 66.8753 56.1184C67.9168 56.7256 68.9575 57.3341 69.9974 57.9439C70.1796 58.0508 70.1796 58.0508 70.3655 58.1598C71.0712 58.5737 71.7768 58.9878 72.4822 59.4021C72.7927 59.5841 73.1038 59.7651 73.4149 59.946C73.7336 60.1337 74.0502 60.325 74.362 60.524C74.982 60.922 74.982 60.922 75.6976 60.9483C76.4774 60.7374 77.1935 60.4072 77.9288 60.0763C78.0922 60.003 78.2556 59.9297 78.424 59.8542C79.8692 59.1889 81.1851 58.3899 82.4863 57.4786C82.2632 56.8093 82.1273 56.7698 81.5281 56.4393C81.3673 56.3493 81.2066 56.2593 81.041 56.1666C80.8673 56.0714 80.6937 55.9763 80.5148 55.8783C80.1533 55.676 79.7919 55.4736 79.4306 55.2709C79.2533 55.1719 79.0761 55.073 78.8935 54.971C78.2827 54.6269 77.682 54.2698 77.0822 53.9068C75.8111 53.1377 74.5338 52.3792 73.2553 51.6223C73.038 51.4936 72.8206 51.3649 72.6033 51.2362C72.16 50.9737 71.7167 50.7112 71.2734 50.4488C70.0094 49.7004 68.7459 48.9515 67.4823 48.2024C66.5363 47.6416 65.5902 47.0811 64.6432 46.5219C62.2858 45.1297 59.9344 43.7293 57.6029 42.2941C57.4368 42.1923 57.2708 42.0904 57.0997 41.9854C56.9538 41.8955 56.8078 41.8056 56.6575 41.7129C55.93 41.2953 55.3543 42.0291 54.7405 42.4421ZM48.9023 48.2013C48.9023 52.5486 48.9023 56.896 48.9023 61.3751C50.1881 62.018 50.1881 62.018 51.5 62.6739C52.2047 63.0736 52.9034 63.4768 53.5989 63.8916C55.1462 64.8044 56.7023 65.6976 58.2724 66.5704C59.9849 67.5233 61.6814 68.5005 63.3713 69.4928C64.6933 70.267 66.0256 71.0207 67.3642 71.7657C68.8972 72.619 70.4199 73.4874 71.9333 74.375C73.4618 75.2712 74.9955 76.1572 76.5372 77.0306C76.722 77.1356 76.9068 77.2406 77.0972 77.3488C77.2661 77.4443 77.4351 77.5397 77.6091 77.638C77.7586 77.7225 77.9081 77.807 78.0621 77.8941C78.3672 78.0887 78.3672 78.0887 78.5898 78.0743C78.5898 72.8697 78.5898 67.6651 78.5898 62.3028C77.6459 62.4916 76.9582 62.8106 76.1074 63.2378C75.554 63.4407 75.422 63.4132 74.8789 63.2306C74.5869 63.0856 74.2997 62.9308 74.0164 62.7696C73.8473 62.6738 73.6782 62.578 73.504 62.4794C73.3224 62.3752 73.1409 62.271 72.9538 62.1637C72.6691 62.0015 72.6691 62.0015 72.3786 61.836C70.7638 60.913 69.1619 59.9687 67.5628 59.0188C66.5064 58.3916 65.4456 57.7721 64.3839 57.1539C62.7162 56.1826 61.0503 55.2081 59.3857 54.2315C57.5198 53.1369 55.6524 52.0448 53.783 50.9561C52.9445 50.4676 52.1068 49.9776 51.2716 49.4834C51.1232 49.3956 50.9747 49.3078 50.8217 49.2174C50.5472 49.0548 50.2728 48.8919 49.9987 48.7286C49.4829 48.3636 49.4829 48.3636 48.9023 48.2013ZM46.7569 64.2511C46.5856 64.3971 46.5856 64.3971 46.4108 64.5461C46.1277 64.7875 45.845 65.0295 45.5625 65.2716C46.0949 65.6881 46.6381 66.0314 47.2288 66.3595C47.5033 66.5126 47.5033 66.5126 47.7834 66.6687C47.9804 66.7779 48.1774 66.887 48.3804 66.9995C48.8016 67.2341 49.2227 67.4687 49.6438 67.7033C49.8616 67.8244 50.0795 67.9455 50.2974 68.0667C53.369 69.775 56.4296 71.5016 59.4785 73.2501C60.3287 73.7375 61.1791 74.2246 62.0297 74.7113C62.1398 74.7743 62.2498 74.8372 62.3632 74.9021C64.1049 75.8985 65.8542 76.8806 67.6072 77.8571C69.18 78.7359 70.737 79.6405 72.2879 80.5575C73.8754 81.6636 73.8754 81.6636 75.6274 82.1003C76.1773 81.905 76.6517 81.6087 77.1518 81.3098C77.3518 81.1909 77.5517 81.072 77.7577 80.9496C77.9099 80.858 78.062 80.7663 78.2187 80.672C77.7803 80.1864 77.3217 79.8976 76.7495 79.5841C76.565 79.482 76.3805 79.38 76.1904 79.2749C75.8913 79.1112 75.8913 79.1112 75.5863 78.9441C75.1621 78.7093 74.7381 78.4742 74.3142 78.2388C74.2062 78.1788 74.0981 78.1189 73.9868 78.057C72.9142 77.46 71.8549 76.8411 70.7968 76.2188C69.2913 75.3347 67.7765 74.4702 66.2509 73.6212C64.5385 72.6682 62.842 71.6911 61.152 70.6988C59.83 69.9246 58.4978 69.1709 57.1591 68.4259C55.2303 67.3521 53.3193 66.2501 51.4151 65.1331C51.2492 65.0358 51.0833 64.9385 50.9124 64.8382C50.531 64.6142 50.1498 64.3896 49.7689 64.1647C49.4651 63.9861 49.4651 63.9861 49.1552 63.8039C48.9695 63.6943 48.7837 63.5848 48.5923 63.4719C47.7584 63.0063 47.3955 63.7033 46.7569 64.2511ZM80.8164 76.5899C80.8164 77.3859 80.8164 78.1819 80.8164 79.002C81.8727 78.7042 81.8727 78.7042 82.4863 78.2599C82.2008 77.4033 81.5365 77.07 80.8164 76.5899Z" fill="black"/>
<path d="M50.6856 27.5332C50.7642 28.6814 50.821 29.828 50.8588 30.9782C50.8746 31.3683 50.8961 31.7581 50.9235 32.1475C51.1393 35.2873 51.1393 35.2873 50.3916 36.2687C49.6481 36.9566 48.8025 37.4432 47.9075 37.9083C47.4419 38.1571 47.0336 38.4549 46.6195 38.7813C46.5016 38.8704 46.3837 38.9594 46.2622 39.0512C46.1529 39.1346 46.0436 39.218 45.9309 39.3038C45.4758 39.6492 45.0199 39.9936 44.5625 40.3359C44.4435 40.4252 44.3244 40.5144 44.2018 40.6064C43.3074 41.2637 43.3074 41.2637 42.8926 41.2637C42.8391 40.1946 42.7862 39.1256 42.7341 38.0565C42.7163 37.6937 42.6983 37.3309 42.6801 36.9682C42.4864 33.1027 42.4864 33.1027 42.5215 31.2441C45.7901 29.4203 45.7901 29.4203 47.5313 29.0176C47.5313 28.8951 47.5313 28.7727 47.5313 28.6465C47.917 28.4592 48.3037 28.2741 48.6909 28.0898C48.9062 27.9865 49.1215 27.8832 49.3433 27.7767C49.9434 27.5332 49.9434 27.5332 50.6856 27.5332Z" fill="#AFAFAF"/>
<path d="M51.0531 36.4856C51.4276 36.6253 51.743 36.786 52.0829 36.9957C52.2028 37.0688 52.3226 37.1419 52.4461 37.2172C52.5692 37.2936 52.6924 37.37 52.8193 37.4487C53.8634 38.0986 53.8634 38.0986 54.9531 38.6664C54.9531 38.8501 54.9531 39.0338 54.9531 39.223C54.7391 39.325 54.5251 39.427 54.3046 39.5321C53.4792 39.9453 52.7286 40.4345 51.9699 40.9582C51.8337 41.051 51.6975 41.1438 51.5573 41.2394C51.1269 41.5328 50.6974 41.8274 50.2681 42.1222C49.8359 42.4181 49.4036 42.7138 48.9709 43.009C48.7029 43.1919 48.4353 43.3752 48.168 43.5591C48.0466 43.6421 47.9251 43.7252 47.8 43.8107C47.694 43.8834 47.5881 43.9562 47.4789 44.0311C47.1317 44.2508 46.7973 44.445 46.418 44.6039C46.0101 44.4475 46.0101 44.4475 45.5743 44.1661C45.4176 44.0661 45.261 43.9662 45.0996 43.8631C44.9376 43.7555 44.7757 43.6479 44.6089 43.537C44.4441 43.4322 44.2793 43.3275 44.1095 43.2195C43.2236 42.6453 43.2236 42.6453 42.8926 42.3773C42.8926 42.2549 42.8926 42.1324 42.8926 42.0062C43.3421 41.662 43.7936 41.3391 44.261 41.0205C44.5501 40.8202 44.839 40.6196 45.1278 40.4189C45.2786 40.3145 45.4294 40.21 45.5848 40.1024C46.3405 39.5746 47.0866 39.0336 47.8328 38.4924C48.6266 37.9173 48.6266 37.9173 49.0202 37.6351C49.2654 37.4561 49.5074 37.2726 49.746 37.0848C50.5963 36.4287 50.5963 36.4287 51.0531 36.4856Z" fill="#ACACAC"/>
<path d="M42.5215 65.0137C43.1549 65.172 43.508 65.3169 44.0522 65.6399C44.8214 66.0799 45.5812 66.3945 46.418 66.6836C46.418 66.8061 46.418 66.9285 46.418 67.0547C46.5672 67.1006 46.7165 67.1465 46.8702 67.1938C47.7973 67.5191 48.6935 67.9141 49.5723 68.3535C49.5723 68.476 49.5723 68.5984 49.5723 68.7246C49.9396 68.8471 50.307 68.9695 50.6855 69.0957C50.6855 69.2794 50.6855 69.4631 50.6855 69.6523C50.3638 69.9216 50.3638 69.9216 49.91 70.2032C49.7428 70.3082 49.5755 70.4133 49.4032 70.5216C49.2217 70.6327 49.0402 70.7439 48.8533 70.8584C48.67 70.9729 48.4868 71.0874 48.2979 71.2054C47.4011 71.7642 46.4991 72.3143 45.5953 72.8617C45.4421 72.9546 45.2889 73.0476 45.131 73.1433C44.8416 73.3181 44.5515 73.4919 44.2607 73.6644C43.5555 74.0478 43.5555 74.0478 43.0781 74.6621C42.8944 74.6621 42.7107 74.6621 42.5215 74.6621C42.5215 71.4781 42.5215 68.2941 42.5215 65.0137Z" fill="#ADADAD"/>
<path d="M42.336 31.2441C42.3972 31.2441 42.4585 31.2441 42.5216 31.2441C42.8063 34.5909 42.9475 37.9049 42.8927 41.2637C43.3453 40.9472 43.7976 40.6302 44.2495 40.3127C44.4587 40.1659 44.4587 40.1659 44.6721 40.0161C45.4634 39.458 46.2468 38.8914 47.0218 38.3109C47.1804 38.1923 47.339 38.0737 47.5025 37.9515C47.8124 37.7189 48.1214 37.4852 48.4296 37.2504C48.5708 37.1445 48.7121 37.0386 48.8577 36.9294C48.9824 36.8348 49.1071 36.7401 49.2356 36.6426C49.5723 36.4395 49.5723 36.4395 50.129 36.4395C49.457 37.4906 48.7741 38.12 47.7401 38.8052C47.4604 38.9963 47.1808 39.1876 46.9015 39.3792C46.6896 39.5234 46.6896 39.5234 46.4734 39.6706C45.7914 40.1412 45.1246 40.6322 44.4582 41.1245C44.2776 41.2575 44.2776 41.2575 44.0934 41.3932C43.8166 41.5972 43.5402 41.8015 43.2637 42.0059C43.2025 41.8834 43.1413 41.7609 43.0782 41.6348C42.9557 41.6348 42.8333 41.6348 42.7071 41.6348C42.6535 40.5427 42.6007 39.4506 42.5486 38.3585C42.5308 37.988 42.5128 37.6175 42.4946 37.247C42.3963 35.2449 42.3018 33.2493 42.336 31.2441Z" fill="#3B3B3B"/>
<path d="M49.7578 36.2539C49.8803 36.3151 50.0027 36.3764 50.1289 36.4395C49.5803 37.2702 49.1903 37.8496 48.2734 38.2949C48.2734 38.1725 48.2734 38.05 48.2734 37.9238C47.9673 38.0463 47.6611 38.1688 47.3457 38.2949C48.0823 37.5123 48.8873 36.8825 49.7578 36.2539Z" fill="#252525"/>
<path d="M44.1914 40.3359C44.3139 40.3972 44.4363 40.4584 44.5625 40.5215C44.1782 41.27 43.8266 41.6215 43.0781 42.0059C43.0781 41.8834 43.0781 41.7609 43.0781 41.6348C42.9557 41.5735 42.8332 41.5123 42.707 41.4492C42.8907 41.4492 43.0744 41.4492 43.2637 41.4492C43.3249 41.2655 43.3861 41.0818 43.4492 40.8926C43.8319 40.5795 43.8319 40.5795 44.1914 40.3359Z" fill="#262626"/>
<path d="M44.748 39.9648C44.993 39.9648 45.2379 39.9648 45.4902 39.9648C45.2792 40.5979 45.1111 40.729 44.5625 41.0781C44.44 41.0781 44.3176 41.0781 44.1914 41.0781C44.5393 40.1736 44.5393 40.1736 44.748 39.9648Z" fill="#191919"/>
<defs>
<radialGradient id="paint0_radial_2013_52" cx="0" cy="0" r="1" gradientUnits="userSpaceOnUse" gradientTransform="translate(47.5 47.5) rotate(90) scale(47.5)">
<stop offset="0.4" stop-color="white"/>
<stop offset="1" stop-color="white" stop-opacity="0.5"/>
</radialGradient>
</defs>
</svg>
