<svg width="26" height="26" viewBox="0 0 26 26" fill="none" xmlns="http://www.w3.org/2000/svg">
<path d="M10.2927 0.187269C10.4012 0.238645 10.4012 0.238645 10.5117 0.3047C10.6131 0.355825 10.7147 0.406641 10.8164 0.457044C10.8127 0.51003 10.809 0.563016 10.8051 0.617607C10.7922 0.815982 10.7841 1.01432 10.7774 1.213C10.7738 1.29861 10.769 1.38417 10.7628 1.46963C10.7152 1.94552 10.7152 1.94552 10.8852 2.3716C11.0839 2.54886 11.3608 2.7484 11.6359 2.73816C11.7623 2.67571 11.8709 2.5995 11.9848 2.51626C12.035 2.4816 12.0852 2.44694 12.1369 2.41123C12.241 2.33887 12.344 2.26484 12.4456 2.18906C12.8001 1.95008 13.0118 1.90794 13.4281 1.9708C13.4701 1.97634 13.5121 1.98188 13.5554 1.9876C13.6581 2.00128 13.7607 2.01615 13.8633 2.03126C13.8645 2.98781 13.8654 3.94435 13.8659 4.9009C13.8662 5.34503 13.8665 5.78916 13.8671 6.23329C13.8676 6.62035 13.868 7.00741 13.8681 7.39447C13.8681 7.59945 13.8683 7.80443 13.8687 8.00942C13.869 8.20231 13.8691 8.39521 13.869 8.5881C13.869 8.65893 13.8691 8.72976 13.8693 8.80059C13.8696 8.89725 13.8695 8.99392 13.8694 9.09058C13.8695 9.17175 13.8695 9.17175 13.8695 9.25455C13.864 9.37763 13.8481 9.48026 13.8125 9.59767C13.8401 9.61102 13.8678 9.62438 13.8962 9.63813C14.0345 9.70886 14.168 9.78452 14.3013 9.86427C14.3501 9.89281 14.3989 9.92135 14.4493 9.95076C14.5742 10.0547 14.5742 10.0547 14.6262 10.2126C14.6426 10.261 14.6589 10.3095 14.6758 10.3594C14.7943 10.4143 14.7943 10.4143 14.9297 10.4609C15.0043 10.5012 15.0779 10.5432 15.1507 10.5867C15.1932 10.612 15.2357 10.6372 15.2794 10.6632C15.3253 10.6907 15.3712 10.7183 15.4185 10.7466C15.5194 10.8067 15.6204 10.8668 15.7214 10.9269C15.7745 10.9586 15.8277 10.9904 15.8824 11.023C16.1601 11.1886 16.4384 11.3531 16.7166 11.5178C16.8331 11.5869 16.9497 11.656 17.0663 11.7251C17.412 11.9301 17.7578 12.135 18.1035 12.3399C18.2178 12.4076 18.332 12.4753 18.4463 12.543C18.5029 12.5765 18.5594 12.61 18.6177 12.6445C19.1318 12.9492 19.1318 12.9492 19.3033 13.0508C19.4173 13.1184 19.5314 13.186 19.6454 13.2536C19.9049 13.4073 20.1643 13.5611 20.4237 13.7148C21.165 14.1542 21.9065 14.5932 22.6484 15.0313C22.5716 15.2355 22.4521 15.3131 22.2721 15.4302C22.2177 15.4659 22.1633 15.5017 22.1072 15.5386C22.0496 15.5758 21.992 15.613 21.9343 15.6502C21.8765 15.6879 21.8187 15.7257 21.7609 15.7635C21.6555 15.8325 21.5499 15.9013 21.4442 15.9698C21.3346 16.0371 21.3346 16.0371 21.2773 16.0977C21.2693 16.2083 21.2649 16.3193 21.2619 16.4302C21.2609 16.465 21.2599 16.4997 21.2589 16.5356C21.2503 16.858 21.2454 17.1805 21.2416 17.503C21.239 17.7196 21.2352 17.936 21.2286 18.1524C21.2222 18.3619 21.2188 18.5713 21.2176 18.7809C21.2166 18.8604 21.2145 18.9398 21.2114 19.0193C21.1895 19.5038 21.1895 19.5038 21.4062 19.9222C21.5546 20.0683 21.718 20.1906 21.8867 20.3125C21.9427 20.3568 21.9983 20.4014 22.0537 20.4463C22.1465 20.5217 22.2401 20.5961 22.3346 20.6694C22.4441 20.7684 22.4863 20.8411 22.5469 20.9727C22.4127 21.0501 22.2785 21.1275 22.1443 21.2049C22.0266 21.2728 21.9088 21.3408 21.7911 21.4087C21.5093 21.5713 21.2275 21.7338 20.9457 21.8963C20.8551 21.9485 20.7645 22.0007 20.6739 22.0529C20.5597 22.1188 20.4454 22.1846 20.3312 22.2504C20.2791 22.2805 20.2271 22.3105 20.1735 22.3414C20.1279 22.3676 20.0823 22.3939 20.0353 22.421C19.9045 22.4945 19.9045 22.4945 19.7816 22.5851C19.6118 22.6683 19.5276 22.6489 19.3477 22.5977C19.223 22.5387 19.223 22.5387 19.0995 22.464C19.0526 22.436 19.0057 22.408 18.9573 22.3792C18.8819 22.3334 18.8819 22.3334 18.8049 22.2866C18.6951 22.2212 18.5851 22.1559 18.4751 22.0906C18.418 22.0568 18.361 22.023 18.3023 21.9882C18.0229 21.8247 17.7396 21.6684 17.4561 21.5122C16.982 21.2505 16.5103 20.9851 16.0405 20.7156C15.5181 20.4159 14.9939 20.1196 14.4678 19.8264C14.4187 19.799 14.3695 19.7716 14.3189 19.7434C14.2761 19.7196 14.2333 19.6958 14.1892 19.6712C14.0624 19.5993 13.9373 19.5248 13.8125 19.4492C13.8161 19.5086 13.8198 19.5679 13.8235 19.629C13.8627 20.3101 13.8694 20.9888 13.8665 21.6709C13.8662 21.7764 13.866 21.8818 13.8658 21.9873C13.8652 22.2415 13.8643 22.4958 13.8633 22.75C13.815 22.7741 13.7667 22.7983 13.7169 22.8231C13.3852 22.9889 13.0535 23.1548 12.7222 23.3212C11.195 24.0882 11.195 24.0882 10.4295 24.4505C10.1061 24.6036 9.78619 24.7624 9.46813 24.9263C9.34376 24.9844 9.34376 24.9844 9.24219 24.9844C9.23881 24.4252 9.24841 23.8675 9.26758 23.3086C9.27004 23.234 9.27249 23.1594 9.27492 23.0848C9.2808 22.9055 9.28684 22.7262 9.29297 22.5469C9.25396 22.532 9.21495 22.5171 9.17476 22.5017C8.96901 22.4162 8.79619 22.2855 8.61358 22.1591C8.49053 22.0786 8.49053 22.0786 8.38221 22.1043C8.27464 22.1416 8.18817 22.1865 8.09148 22.2464C8.05581 22.2683 8.02013 22.2902 7.98337 22.3129C7.94528 22.3367 7.90718 22.3605 7.86793 22.385C7.82832 22.4095 7.78872 22.4339 7.74792 22.4591C7.52827 22.595 7.30992 22.7329 7.09212 22.8718C7.0483 22.8997 7.00448 22.9276 6.95933 22.9563C6.87411 23.0107 6.78903 23.0654 6.70411 23.1202C6.66556 23.1449 6.62701 23.1695 6.58729 23.1949C6.55321 23.2169 6.51914 23.2389 6.48404 23.2615C6.39844 23.3086 6.39844 23.3086 6.29688 23.3086C6.29648 23.246 6.29607 23.1834 6.29566 23.1189C6.29091 22.3886 6.28574 21.6583 6.28036 20.9279C6.2788 20.7163 6.27727 20.5047 6.27577 20.293C6.26286 18.4786 6.24328 16.6645 6.21161 14.8504C6.19637 13.977 6.18215 13.1037 6.17248 12.2302C6.17182 12.1708 6.17182 12.1708 6.17115 12.1103C6.16675 11.71 6.16264 11.3098 6.15887 10.9096C6.15698 10.7091 6.15501 10.5087 6.153 10.3083C6.15261 10.2685 6.15221 10.2288 6.1518 10.1878C6.14504 9.52924 6.13241 8.87086 6.11798 8.2124C6.10297 7.52171 6.09419 6.83114 6.09114 6.1403C6.08928 5.75792 6.08469 5.37602 6.07274 4.99381C6.00153 2.65052 6.00153 2.65052 6.40243 2.17084C6.7577 1.82326 7.20139 1.64762 7.66623 1.49612C7.99071 1.38644 8.267 1.19689 8.55347 1.01246C8.65534 0.95133 8.7574 0.890509 8.85975 0.830167C9.04021 0.722168 9.21747 0.610843 9.39295 0.494932C9.99355 0.104506 9.99355 0.104506 10.2927 0.187269ZM9.7744 0.989454C9.73084 1.01603 9.68728 1.04261 9.64239 1.06999C9.59726 1.09814 9.55212 1.12629 9.50562 1.15529C9.41644 1.21006 9.32724 1.26481 9.23803 1.31953C9.19563 1.34568 9.15324 1.37183 9.10956 1.39878C8.95245 1.4945 8.79319 1.58565 8.63282 1.67579C8.63282 1.70931 8.63282 1.74283 8.63282 1.77736C8.82495 1.88019 9.01743 1.98235 9.21024 2.08389C9.2758 2.11854 9.34126 2.15337 9.40662 2.18838C9.50054 2.23865 9.59478 2.28825 9.68911 2.33774C9.77407 2.38281 9.77407 2.38281 9.86075 2.4288C10.0041 2.50674 10.0041 2.50674 10.1563 2.43751C10.173 1.91802 10.1898 1.39853 10.207 0.863294C9.99501 0.863294 9.94677 0.882944 9.7744 0.989454ZM6.98017 2.56958C6.50102 3.14315 6.71074 4.33563 6.73023 5.02482C6.73775 5.33778 6.73821 5.65077 6.73948 5.96381C6.74259 6.49823 6.75001 7.03246 6.76063 7.56678C6.77162 8.12039 6.78008 8.67395 6.7851 9.22765C6.78542 9.26191 6.78573 9.29617 6.78605 9.33146C6.78761 9.50459 6.78911 9.67771 6.79059 9.85084C6.79357 10.1968 6.79688 10.5428 6.80033 10.8888C6.80067 10.9229 6.80101 10.9571 6.80136 10.9923C6.80928 11.7792 6.82127 12.566 6.83343 13.3529C6.85374 14.672 6.86571 15.991 6.87154 17.3103C6.87195 17.3996 6.87237 17.489 6.87278 17.5784C6.87435 17.9154 6.87591 18.2524 6.87738 18.5894C6.88098 19.3991 6.88768 20.2088 6.89515 21.0185C6.89572 21.0806 6.89629 21.1426 6.89687 21.2066C6.8999 21.5349 6.90303 21.8631 6.90626 22.1914C7.08129 22.1232 7.23562 22.0494 7.39423 21.9484C7.45796 21.908 7.45796 21.908 7.52297 21.8668C7.58846 21.8248 7.58846 21.8248 7.65528 21.782C7.69973 21.7538 7.74417 21.7256 7.78997 21.6966C7.99318 21.5766 7.99318 21.5766 8.17579 21.4297C8.18075 21.3171 8.18202 21.2042 8.18195 21.0915C8.182 21.0554 8.18205 21.0193 8.1821 20.9821C8.18219 20.8589 8.18191 20.7357 8.18164 20.6125C8.18162 20.523 8.18162 20.4336 8.18163 20.3441C8.18161 20.0945 8.18124 19.8448 8.1808 19.5952C8.18046 19.379 8.1803 19.1628 8.18013 18.9467C8.17761 15.8655 8.16472 12.7844 8.15317 9.70327C8.15097 9.11687 8.14882 8.53047 8.1467 7.94407C8.14655 7.90213 8.1464 7.8602 8.14624 7.81699C8.14548 7.60639 8.14472 7.39579 8.14396 7.18519C8.13776 5.46721 8.13143 3.74924 8.12501 2.03126C7.7261 2.03126 7.25668 2.29935 6.98017 2.56958ZM8.73438 2.53908C8.73281 4.28574 8.73179 6.0324 8.73121 7.77906C8.73118 7.84375 8.73116 7.90843 8.73114 7.97507C8.72998 11.4708 8.7334 14.9665 8.75977 18.4622C8.76007 18.5025 8.76038 18.5429 8.76069 18.5844C8.76809 19.5667 8.77616 20.549 8.78516 21.5313C8.93598 21.6151 9.0868 21.6988 9.24219 21.7852C9.28035 20.3514 9.29784 18.9189 9.28728 17.4847C9.28702 17.4486 9.28675 17.4124 9.28648 17.3751C9.28396 17.0349 9.2813 16.6948 9.27855 16.3547C9.27404 15.7884 9.27119 15.2222 9.26923 14.6559C9.26902 14.5936 9.26902 14.5936 9.2688 14.53C9.26747 14.1468 9.26626 13.7635 9.26515 13.3803C9.26439 13.1212 9.26358 12.8621 9.26271 12.6029C9.26257 12.56 9.26242 12.517 9.26228 12.4727C9.25983 11.7705 9.25394 11.0685 9.24691 10.3664C9.23972 9.63961 9.23639 8.91293 9.2366 8.18615C9.2366 7.74058 9.23362 7.29524 9.22666 6.84972C9.2222 6.54568 9.22149 6.24177 9.22369 5.93771C9.22485 5.76272 9.2244 5.58814 9.21944 5.4132C9.1951 4.38928 9.1951 4.38928 9.44667 4.0941C9.69068 3.88675 9.95814 3.73828 10.2507 3.61032C10.361 3.55385 10.4299 3.49442 10.5117 3.40236C10.2751 3.27915 10.0383 3.15621 9.80133 3.03352C9.72071 2.99173 9.64012 2.94985 9.55958 2.90791C9.44396 2.84772 9.32822 2.78779 9.21244 2.72792C9.17631 2.70903 9.14018 2.69015 9.10295 2.6707C8.92782 2.57274 8.92782 2.57274 8.73438 2.53908ZM12.8248 2.72534C12.7602 2.7683 12.7602 2.7683 12.6942 2.81212C12.6272 2.85763 12.6272 2.85763 12.5588 2.90407C11.788 3.42202 11.788 3.42202 11.4652 3.54801C10.881 3.7862 10.0979 4.14804 9.8195 4.74922C9.70145 5.21652 9.71659 5.69266 9.73228 6.17131C9.73775 6.38675 9.73488 6.60212 9.73309 6.81761C9.7311 7.18992 9.73427 7.56189 9.74106 7.93414C9.75087 8.47232 9.75279 9.01031 9.75286 9.54857C9.75319 10.4221 9.75988 11.2954 9.7706 12.1689C9.78099 13.0166 9.78822 13.8643 9.79133 14.712C9.79152 14.7644 9.79171 14.8167 9.79191 14.8707C9.79286 15.1334 9.79376 15.396 9.79464 15.6587C9.80009 17.258 9.80955 18.8573 9.82658 20.4565C9.82789 20.5826 9.82911 20.7088 9.83031 20.8349C9.83216 21.0287 9.83427 21.2225 9.83659 21.4163C9.8374 21.4867 9.83813 21.5571 9.83877 21.6275C9.83966 21.7225 9.84089 21.8176 9.84214 21.9127C9.84274 21.9657 9.84334 22.0186 9.84395 22.0732C9.83838 22.1894 9.83838 22.1894 9.90235 22.2422C9.90684 22.3702 9.9082 22.4968 9.90731 22.6248C9.90724 22.6631 9.90716 22.7013 9.90709 22.7408C9.90681 22.8634 9.90617 22.986 9.90552 23.1087C9.90527 23.1916 9.90504 23.2746 9.90483 23.3575C9.90427 23.5613 9.90339 23.765 9.90235 23.9688C10.1312 23.8983 10.3378 23.8074 10.5512 23.6992C10.6 23.6746 10.6 23.6746 10.6497 23.6495C10.7192 23.6145 10.7886 23.5793 10.8579 23.5441C11.0399 23.4518 11.2221 23.3601 11.4044 23.2685C11.4407 23.2503 11.4771 23.232 11.5145 23.2131C11.8886 23.0255 12.266 22.8449 12.6448 22.6669C12.6884 22.6464 12.732 22.6258 12.7768 22.6046C12.8141 22.5872 12.8514 22.5697 12.8898 22.5518C12.9261 22.5334 12.9625 22.515 13 22.4961C13.0689 22.4651 13.0689 22.4651 13.1392 22.4335C13.2687 22.3522 13.2687 22.3522 13.2835 22.1976C13.282 22.1085 13.282 22.1085 13.2805 22.0177C13.2802 21.9685 13.2802 21.9685 13.2798 21.9184C13.2788 21.8105 13.2759 21.7026 13.273 21.5947C13.2718 21.52 13.2708 21.4453 13.2699 21.3706C13.2665 21.1363 13.2604 20.9022 13.2539 20.668C13.2519 20.5902 13.2498 20.5125 13.2478 20.4348C13.2358 19.9877 13.2208 19.5407 13.2031 19.0938C12.8313 19.3036 12.4617 19.5165 12.0967 19.7378C12.0476 19.7676 12.0476 19.7676 11.9975 19.7979C11.8635 19.8791 11.7296 19.9604 11.5959 20.042C11.4964 20.1027 11.3966 20.1631 11.2969 20.2234C11.2518 20.2511 11.2518 20.2511 11.2058 20.2794C11.0616 20.3663 10.9329 20.437 10.7656 20.4649C10.7154 20.3643 10.6651 20.2638 10.6133 20.1602C10.5463 20.1769 10.4792 20.1937 10.4102 20.2109C10.4269 19.239 10.4437 18.267 10.4609 17.2656C10.5112 17.2489 10.5615 17.2321 10.6133 17.2149C10.6992 17.1315 10.7836 17.0466 10.8672 16.9609C10.9773 16.8623 11.0903 16.7672 11.2036 16.6721C11.2327 16.6475 11.2617 16.6228 11.2917 16.5974C11.4177 16.4912 11.5424 16.3923 11.6797 16.3008C11.6967 16.1719 11.7036 16.0551 11.7042 15.9258C11.705 15.8872 11.7058 15.8485 11.7065 15.8087C11.7088 15.6805 11.7098 15.5523 11.7106 15.424C11.7115 15.335 11.7124 15.2459 11.7133 15.1568C11.7149 14.9698 11.7158 14.7829 11.7163 14.5959C11.7171 14.3565 11.7208 14.1173 11.7251 13.878C11.728 13.6939 11.7288 13.5098 11.729 13.3257C11.7294 13.2375 11.7307 13.1493 11.7327 13.0611C11.7608 12.5867 11.7608 12.5867 11.5819 12.1698C11.4642 12.0899 11.3547 12.0363 11.2227 11.9844C10.9169 11.8153 10.6265 11.6417 10.4609 11.3242C10.3939 11.0157 10.4111 10.6924 10.4133 10.3784C10.4128 10.289 10.4121 10.1997 10.4112 10.1103C10.4098 9.93463 10.4093 9.75903 10.4099 9.58339C10.4104 9.3802 10.4082 9.17717 10.4046 8.97401C10.4032 8.87509 10.4019 8.77618 10.4006 8.67726C10.4 8.63382 10.3993 8.59038 10.3986 8.54562C10.3984 8.32956 10.4109 8.16457 10.5117 7.97267C10.6165 7.89587 10.6165 7.89587 10.747 7.83197C10.8202 7.79539 10.8202 7.79539 10.8949 7.75808C10.9477 7.73274 11.0005 7.70739 11.0548 7.68127C11.1358 7.64123 11.1358 7.64123 11.2184 7.60039C11.3908 7.5153 11.5638 7.43135 11.7368 7.34742C11.8538 7.28994 11.9708 7.23238 12.0877 7.17475C12.3745 7.03361 12.6617 6.89341 12.9492 6.75392C12.9241 6.85447 12.9241 6.85447 12.8984 6.95704C13.0744 6.93191 13.0744 6.93191 13.2539 6.90626C13.2539 5.48185 13.2539 4.05743 13.2539 2.58986C13.0373 2.58986 12.9962 2.60969 12.8248 2.72534ZM13.8869 11.0683C13.8295 11.1069 13.8295 11.1069 13.771 11.1462C13.69 11.2007 13.609 11.2552 13.528 11.3098C13.4037 11.3937 13.279 11.477 13.1542 11.5603C13.0758 11.6132 12.9973 11.666 12.9189 11.719C12.8813 11.744 12.8437 11.769 12.8049 11.7948C12.7158 11.8554 12.6291 11.9195 12.543 11.9844C12.543 12.0179 12.543 12.0514 12.543 12.0859C12.6397 12.1566 12.6397 12.1566 12.7667 12.2264C12.8154 12.2545 12.8641 12.2825 12.9143 12.3115C12.9677 12.3418 13.0211 12.3721 13.0762 12.4033C13.1892 12.4683 13.3022 12.5333 13.4152 12.5983C13.4732 12.6315 13.5311 12.6647 13.5909 12.6989C13.8465 12.8455 14.1008 12.9941 14.3552 13.1428C14.4048 13.1717 14.4543 13.2006 14.5053 13.2304C14.9411 13.4845 15.3762 13.7397 15.8114 13.9949C16.2765 14.2678 16.7421 14.5399 17.208 14.8113C17.493 14.9775 17.7779 15.144 18.0625 15.311C18.1123 15.3402 18.1123 15.3402 18.1632 15.37C18.3563 15.4833 18.5495 15.5966 18.7425 15.71C18.8275 15.7599 18.9126 15.8094 18.9978 15.8589C19.085 15.9103 19.1717 15.9626 19.257 16.0171C19.4267 16.126 19.4267 16.126 19.6225 16.1332C19.8359 16.0755 20.0319 15.9851 20.2332 15.8945C20.2779 15.8745 20.3226 15.8544 20.3687 15.8338C20.7642 15.6517 21.1244 15.433 21.4805 15.1836C21.4194 15.0004 21.3822 14.9896 21.2182 14.8992C21.1742 14.8745 21.1302 14.8499 21.0849 14.8245C21.0374 14.7985 20.9899 14.7724 20.9409 14.7456C20.842 14.6903 20.7431 14.6349 20.6442 14.5794C20.5957 14.5523 20.5472 14.5252 20.4972 14.4973C20.33 14.4031 20.1656 14.3054 20.0015 14.2061C19.6536 13.9956 19.304 13.788 18.9541 13.5808C18.8946 13.5456 18.8351 13.5104 18.7757 13.4751C18.6543 13.4033 18.533 13.3315 18.4117 13.2596C18.0658 13.0548 17.7199 12.8499 17.3741 12.6449C17.1152 12.4914 16.8563 12.338 16.5971 12.1849C15.9519 11.8039 15.3084 11.4206 14.6703 11.0278C14.6248 11 14.5794 10.9721 14.5326 10.9434C14.4926 10.9188 14.4527 10.8941 14.4115 10.8688C14.2124 10.7545 14.0549 10.9553 13.8869 11.0683ZM12.2891 12.6445C12.2891 13.8343 12.2891 15.0242 12.2891 16.25C12.641 16.426 12.641 16.426 13 16.6055C13.1929 16.7149 13.3841 16.8252 13.5745 16.9387C13.9979 17.1886 14.4238 17.433 14.8535 17.6719C15.3222 17.9327 15.7865 18.2001 16.249 18.4717C16.6108 18.6836 16.9754 18.8899 17.3418 19.0938C17.7614 19.3273 18.1781 19.565 18.5923 19.8079C19.0106 20.0531 19.4304 20.2957 19.8523 20.5347C19.9029 20.5634 19.9535 20.5922 20.0056 20.6218C20.0518 20.6479 20.098 20.674 20.1457 20.7009C20.1866 20.724 20.2275 20.7472 20.2696 20.771C20.3531 20.8243 20.3531 20.8243 20.4141 20.8203C20.4141 19.3959 20.4141 17.9715 20.4141 16.5039C20.1557 16.5556 19.9675 16.6429 19.7347 16.7598C19.5832 16.8153 19.5471 16.8078 19.3984 16.7578C19.3185 16.7181 19.2399 16.6758 19.1624 16.6317C19.1161 16.6055 19.0698 16.5792 19.0222 16.5522C18.9725 16.5237 18.9228 16.4952 18.8716 16.4658C18.7937 16.4214 18.7937 16.4214 18.7142 16.3762C18.2722 16.1235 17.8338 15.8651 17.3962 15.6051C17.107 15.4335 16.8167 15.2639 16.5261 15.0947C16.0697 14.8289 15.6138 14.5622 15.1582 14.2949C14.6475 13.9954 14.1365 13.6964 13.6248 13.3985C13.3954 13.2648 13.1661 13.1307 12.9375 12.9954C12.8969 12.9714 12.8563 12.9474 12.8144 12.9226C12.7392 12.8781 12.6642 12.8336 12.5891 12.7889C12.448 12.689 12.448 12.689 12.2891 12.6445ZM11.7019 17.0371C11.655 17.0771 11.655 17.0771 11.6072 17.1179C11.5297 17.1839 11.4523 17.2502 11.375 17.3164C11.5207 17.4304 11.6694 17.5244 11.831 17.6142C11.9062 17.6561 11.9062 17.6561 11.9828 17.6988C12.0368 17.7287 12.0907 17.7585 12.1462 17.7893C12.2615 17.8535 12.3767 17.9177 12.492 17.9819C12.5516 18.0151 12.6113 18.0482 12.6709 18.0814C13.5115 18.5489 14.3492 19.0215 15.1836 19.5C15.4163 19.6334 15.649 19.7667 15.8818 19.8999C15.912 19.9172 15.9421 19.9344 15.9731 19.9522C16.4498 20.2248 16.9285 20.4936 17.4083 20.7609C17.8387 21.0014 18.2649 21.249 18.6893 21.4999C19.1238 21.8027 19.1238 21.8027 19.6033 21.9222C19.7538 21.8687 19.8837 21.7876 20.0205 21.7058C20.0752 21.6733 20.13 21.6408 20.1863 21.6072C20.228 21.5822 20.2696 21.5571 20.3125 21.5313C20.1925 21.3984 20.067 21.3193 19.9104 21.2335C19.8599 21.2056 19.8094 21.1777 19.7574 21.1489C19.6755 21.1041 19.6755 21.1041 19.592 21.0584C19.476 20.9941 19.3599 20.9298 19.2439 20.8654C19.2143 20.8489 19.1848 20.8325 19.1543 20.8156C18.8607 20.6522 18.5708 20.4828 18.2813 20.3125C17.8692 20.0705 17.4546 19.8339 17.0371 19.6016C16.5684 19.3407 16.1041 19.0733 15.6416 18.8018C15.2798 18.5899 14.9152 18.3836 14.5488 18.1797C14.0209 17.8858 13.4979 17.5842 12.9768 17.2785C12.9314 17.2519 12.886 17.2253 12.8392 17.1978C12.7348 17.1365 12.6305 17.075 12.5262 17.0135C12.4431 16.9646 12.4431 16.9646 12.3583 16.9147C12.3075 16.8847 12.2566 16.8548 12.2042 16.8239C11.976 16.6964 11.8767 16.8872 11.7019 17.0371ZM21.0234 20.4141C21.0234 20.6319 21.0234 20.8498 21.0234 21.0742C21.3125 20.9927 21.3125 20.9927 21.4805 20.8711C21.4023 20.6367 21.2205 20.5455 21.0234 20.4141Z" fill="white"/>
<path d="M13.0508 7.26172C13.0723 7.57596 13.0879 7.88976 13.0982 8.20457C13.1025 8.31132 13.1084 8.41801 13.1159 8.52458C13.175 9.3839 13.175 9.3839 12.9703 9.65248C12.7668 9.84076 12.5354 9.97393 12.2905 10.1012C12.163 10.1693 12.0513 10.2508 11.938 10.3401C11.9057 10.3645 11.8734 10.3889 11.8402 10.414C11.8103 10.4368 11.7803 10.4597 11.7495 10.4832C11.6249 10.5777 11.5002 10.6719 11.375 10.7656C11.3424 10.79 11.3098 10.8145 11.2763 10.8396C11.0315 11.0195 11.0315 11.0195 10.918 11.0195C10.9033 10.727 10.8889 10.4344 10.8746 10.1418C10.8697 10.0425 10.8648 9.9432 10.8598 9.84393C10.8068 8.786 10.8068 8.786 10.8164 8.27734C11.711 7.77819 11.711 7.77819 12.1875 7.66797C12.1875 7.63445 12.1875 7.60094 12.1875 7.56641C12.2931 7.51515 12.3989 7.46448 12.5049 7.41406C12.5638 7.38578 12.6227 7.3575 12.6834 7.32837C12.8477 7.26172 12.8477 7.26172 13.0508 7.26172Z" fill="#AFAFAF"/>
<path d="M13.1514 9.71184C13.2539 9.75009 13.3402 9.79406 13.4332 9.85146C13.466 9.87146 13.4988 9.89146 13.5326 9.91206C13.5663 9.93298 13.6 9.95389 13.6348 9.97544C13.9205 10.1533 13.9205 10.1533 14.2188 10.3087C14.2188 10.359 14.2188 10.4092 14.2188 10.461C14.1602 10.4889 14.1016 10.5169 14.0413 10.5456C13.8154 10.6587 13.6099 10.7926 13.4023 10.9359C13.365 10.9613 13.3278 10.9867 13.2894 11.0129C13.1716 11.0932 13.054 11.1738 12.9365 11.2545C12.8183 11.3355 12.6999 11.4164 12.5815 11.4972C12.5082 11.5472 12.4349 11.5974 12.3618 11.6478C12.3285 11.6705 12.2953 11.6932 12.261 11.7166C12.232 11.7365 12.2031 11.7564 12.1732 11.7769C12.0782 11.8371 11.9866 11.8902 11.8828 11.9337C11.7712 11.8909 11.7712 11.8909 11.6519 11.8139C11.609 11.7865 11.5662 11.7592 11.522 11.731C11.4777 11.7015 11.4334 11.6721 11.3877 11.6417C11.3426 11.613 11.2975 11.5844 11.251 11.5548C11.0086 11.3977 11.0086 11.3977 10.918 11.3243C10.918 11.2908 10.918 11.2573 10.918 11.2228C11.041 11.1285 11.1646 11.0402 11.2925 10.953C11.3716 10.8982 11.4507 10.8433 11.5297 10.7883C11.571 10.7597 11.6123 10.7312 11.6548 10.7017C11.8616 10.5573 12.0658 10.4092 12.27 10.2611C12.4873 10.1037 12.4873 10.1037 12.595 10.0264C12.6621 9.97746 12.7283 9.92723 12.7937 9.87584C13.0263 9.69628 13.0263 9.69628 13.1514 9.71184Z" fill="#ACACAC"/>
<path d="M10.8164 17.5195C10.9898 17.5629 11.0864 17.6025 11.2354 17.6909C11.4458 17.8114 11.6538 17.8974 11.8828 17.9766C11.8828 18.0101 11.8828 18.0436 11.8828 18.0781C11.9237 18.0907 11.9645 18.1033 12.0066 18.1162C12.2603 18.2052 12.5056 18.3133 12.7461 18.4336C12.7461 18.4671 12.7461 18.5006 12.7461 18.5352C12.8466 18.5687 12.9472 18.6022 13.0508 18.6367C13.0508 18.687 13.0508 18.7373 13.0508 18.7891C12.9627 18.8628 12.9627 18.8628 12.8385 18.9398C12.7928 18.9686 12.747 18.9973 12.6998 19.027C12.6501 19.0574 12.6005 19.0878 12.5493 19.1191C12.4992 19.1505 12.449 19.1818 12.3973 19.2141C12.1519 19.367 11.905 19.5176 11.6577 19.6674C11.6157 19.6929 11.5738 19.7183 11.5306 19.7445C11.4514 19.7923 11.372 19.8399 11.2924 19.8871C11.0994 19.992 11.0994 19.992 10.9688 20.1602C10.9185 20.1602 10.8682 20.1602 10.8164 20.1602C10.8164 19.2888 10.8164 18.4173 10.8164 17.5195Z" fill="#ADADAD"/>
<path d="M10.7656 8.27734C10.7824 8.27734 10.7991 8.27734 10.8164 8.27734C10.8943 9.1933 10.933 10.1003 10.918 11.0195C11.0419 10.9329 11.1656 10.8462 11.2893 10.7593C11.3466 10.7191 11.3466 10.7191 11.405 10.6781C11.6215 10.5254 11.8359 10.3703 12.0481 10.2114C12.0915 10.1789 12.1349 10.1465 12.1796 10.113C12.2644 10.0494 12.349 9.98544 12.4333 9.92116C12.472 9.89217 12.5107 9.86318 12.5505 9.83331C12.5846 9.80741 12.6188 9.7815 12.6539 9.75481C12.7461 9.69922 12.7461 9.69922 12.8984 9.69922C12.7145 9.98691 12.5276 10.1592 12.2446 10.3467C12.1681 10.399 12.0916 10.4513 12.0151 10.5038C11.9571 10.5433 11.9571 10.5433 11.898 10.5835C11.7113 10.7123 11.5288 10.8467 11.3464 10.9814C11.297 11.0178 11.297 11.0178 11.2466 11.055C11.1709 11.1108 11.0952 11.1667 11.0195 11.2227C11.0028 11.1891 10.986 11.1556 10.9688 11.1211C10.9352 11.1211 10.9017 11.1211 10.8672 11.1211C10.8525 10.8222 10.8381 10.5233 10.8238 10.2244C10.8189 10.123 10.814 10.0216 10.809 9.92023C10.7821 9.37228 10.7563 8.82612 10.7656 8.27734Z" fill="#3B3B3B"/>
<path d="M12.7969 9.64844C12.8304 9.6652 12.8639 9.68195 12.8984 9.69922C12.7483 9.92658 12.6416 10.0851 12.3906 10.207C12.3906 10.1735 12.3906 10.14 12.3906 10.1055C12.3068 10.139 12.223 10.1725 12.1367 10.207C12.3383 9.99283 12.5586 9.82047 12.7969 9.64844Z" fill="#252525"/>
<path d="M11.2734 10.7656C11.307 10.7824 11.3405 10.7991 11.375 10.8164C11.2698 11.0212 11.1736 11.1175 10.9688 11.2227C10.9688 11.1891 10.9688 11.1556 10.9688 11.1211C10.9352 11.1043 10.9017 11.0876 10.8672 11.0703C10.9175 11.0703 10.9677 11.0703 11.0195 11.0703C11.0363 11.02 11.053 10.9698 11.0703 10.918C11.175 10.8323 11.175 10.8323 11.2734 10.7656Z" fill="#262626"/>
</svg>
