<svg width="95" height="95" viewBox="0 0 95 95" fill="none" xmlns="http://www.w3.org/2000/svg">
<g clip-path="url(#clip0_1966_2)">
<circle cx="48.5" cy="47.5" r="47.5" fill="url(#paint0_radial_1966_2)"/>
<path d="M46.1498 38.2324L39.2037 27.9713L40.8245 25.577L44.9921 31.7337V16H47.3075V31.7337L51.4752 25.577L53.0959 27.9713L46.1498 38.2324Z" fill="black"/>
<path d="M89.6914 39.7922L89.8457 39.7932L89.8604 39.9475C89.8873 40.2356 89.9138 40.5237 89.9404 40.8118L89.9629 41.053L89.9863 41.2981V41.2991C90.2291 44.1361 90.1953 46.9845 90.1953 49.8167V49.9885H5.01855L5.0127 49.8235C4.82059 45.0207 4.82026 45.0172 4.83496 42.7913L4.83691 42.1008C4.83883 41.5552 4.84119 41.0088 4.84473 40.4631L4.8457 40.2942L5.01562 40.2932C5.1716 40.2927 5.32758 40.2928 5.48828 40.2922C10.661 40.2738 15.8342 40.2526 21.0068 40.2307C21.3083 40.2294 21.3085 40.2301 21.6162 40.2288C33.6711 40.1778 45.7253 40.0904 57.7793 39.9495C60.3319 39.9196 62.8848 39.8891 65.4375 39.8606C65.6631 39.8581 65.6633 39.8583 65.8936 39.8557C71.8429 39.7895 77.7919 39.7652 83.7412 39.7737L89.6914 39.7922ZM88.0283 41.637C81.3569 41.6138 74.6862 41.6449 68.0146 41.7053C67.4454 41.7105 66.8759 41.7159 66.3066 41.7209C65.1883 41.7309 64.0695 41.7415 62.9512 41.7522C62.7586 41.754 62.5656 41.7542 62.3672 41.7561L62.3682 41.7571C60.0677 41.7795 57.767 41.8064 55.4668 41.8391C45.8701 41.9754 36.2733 42.0213 26.6768 42.0579C24.4713 42.0663 22.2651 42.0761 20.0596 42.0852C15.6025 42.1037 11.1455 42.1208 6.68848 42.1379C6.66036 44.1412 6.76834 46.1275 6.85059 48.1428H88.3477C88.2917 44.9391 88.285 44.836 88.0283 41.637Z" fill="black" stroke="black" stroke-width="0.342037"/>
<path d="M18.5913 43.8855C15.4167 43.8841 12.2575 43.8995 9.08936 44.0115V46.1355C10.977 46.2215 12.8494 46.2624 14.7417 46.2605C15.0332 46.2606 15.3252 46.2612 15.6167 46.2615H76.4702C77.2442 46.2618 78.0184 46.2611 78.7925 46.2605C79.0727 46.2604 79.3531 46.2612 79.6333 46.2615C80.0137 46.2618 80.3944 46.261 80.7749 46.2605C81.0914 46.2605 81.0921 46.2605 81.4136 46.2605C82.0611 46.2514 82.0879 46.2514 82.9995 46.1472V44.0095C81.274 43.92 79.5647 43.8836 77.8325 43.8855H74.7183C73.8964 43.8858 73.0742 43.8848 72.2524 43.8845H61.8032C58.2512 43.8842 54.699 43.8849 51.147 43.8855C48.1063 43.886 45.0655 43.886 42.0249 43.8855C38.4875 43.8849 34.95 43.8842 31.4126 43.8845H21.0239C20.2131 43.8848 19.4022 43.8859 18.5913 43.8855ZM83.8394 46.8191L83.6704 46.822C76.4498 46.9132 69.232 46.956 62.0103 46.9539H34.5679C33.6338 46.9538 32.6992 46.9546 31.7651 46.9548C23.9817 46.957 16.2006 46.9051 8.41846 46.822L8.24951 46.8201V43.3259L8.41943 43.325C22.6059 43.2278 36.7921 43.1954 50.979 43.1941C52.505 43.1939 54.0311 43.1927 55.5571 43.1921C64.9288 43.189 74.2989 43.1996 83.6704 43.325L83.8394 43.3269V46.8191Z" fill="black" stroke="black" stroke-width="0.342037"/>
<path d="M5 43.363C17.3081 52.1387 51.6414 64.4247 90.5092 43.363" stroke="#8A8A8A" stroke-width="3.42037"/>
<path d="M10.8454 50.2039C11.3036 50.6013 11.4851 50.9729 11.6946 51.5383C11.7898 51.7925 11.7898 51.7925 11.887 52.0517C11.9872 52.3257 11.9872 52.3257 12.0895 52.6053C12.1592 52.7928 12.2289 52.9804 12.3007 53.1736C12.4478 53.57 12.5942 53.9666 12.7399 54.3634C12.9638 54.9728 13.1898 55.5813 13.4161 56.1898C13.5585 56.5746 13.7009 56.9594 13.8431 57.3442C13.9109 57.5272 13.9787 57.7102 14.0486 57.8988C14.1105 58.0677 14.1725 58.2366 14.2362 58.4106C14.2911 58.5596 14.346 58.7087 14.4025 58.8623C14.5196 59.2224 14.5196 59.2224 14.5196 59.5564C14.1889 59.5564 13.8582 59.5564 13.5175 59.5564C13.4708 59.7018 13.424 59.8471 13.3758 59.9969C13.0689 60.893 12.6813 61.75 12.2963 62.6148C12.2171 62.8001 12.138 62.9853 12.0565 63.1762C11.9778 63.352 11.8991 63.5277 11.8181 63.7089C11.7476 63.8695 11.6771 64.0302 11.6045 64.1957C11.3464 64.5667 11.3464 64.5667 10.8994 64.7039C10.7713 64.7137 10.6433 64.7236 10.5113 64.7337C10.2742 63.9717 10.4278 63.5759 10.7664 62.8673C10.8574 62.6741 10.9483 62.4808 11.0421 62.2818C11.14 62.0796 11.2379 61.8775 11.336 61.6754C11.4335 61.4701 11.5308 61.2647 11.6279 61.0592C11.8661 60.5573 12.1063 60.0564 12.3485 59.5564C11.7973 59.5564 11.2462 59.5564 10.6783 59.5564C10.6125 59.7666 10.5466 59.9767 10.4787 60.1932C10.1677 61.1236 9.77704 62.0079 9.36314 62.8966C9.29274 63.0557 9.22235 63.2148 9.14981 63.3787C9.07941 63.5297 9.00902 63.6806 8.93648 63.8361C8.87408 63.9726 8.81167 64.1091 8.74737 64.2497C8.50722 64.5667 8.50722 64.5667 8.06286 64.6959C7.86947 64.7146 7.86947 64.7146 7.67216 64.7337C7.48227 64.2662 7.50139 64.0765 7.67017 63.5913C7.755 63.4128 7.83984 63.2344 7.92725 63.0506C8.0182 62.8568 8.10916 62.6631 8.20288 62.4635C8.3008 62.2599 8.39877 62.0563 8.49678 61.8528C8.59427 61.6468 8.69159 61.4406 8.78872 61.2344C9.02717 60.7299 9.26741 60.2263 9.50928 59.7234C9.01326 59.7234 8.51724 59.7234 8.00618 59.7234C7.94138 59.9333 7.87658 60.1433 7.80982 60.3595C7.4956 61.3022 7.07386 62.1822 6.63879 63.0741C6.56139 63.2346 6.484 63.3951 6.40426 63.5604C6.21532 63.9519 6.02558 64.343 5.83505 64.7337C5.55948 64.7337 5.28392 64.7337 5 64.7337C5.06685 63.5444 5.4639 62.6756 6.00206 61.6232C6.15634 61.3189 6.30948 61.014 6.46134 60.7085C6.52937 60.5754 6.5974 60.4422 6.66749 60.305C6.85607 59.8883 6.85607 59.8883 6.9167 59.4052C7.01519 58.8229 7.2041 58.3578 7.44253 57.8178C7.50843 57.6672 7.50843 57.6672 7.57566 57.5135C7.71813 57.1885 7.86214 56.8642 8.00618 56.5398C8.10476 56.3157 8.20321 56.0916 8.30155 55.8674C8.44999 55.5291 8.59852 55.1907 8.74749 54.8526C9.25552 53.6991 9.74893 52.5395 10.2393 51.3784C10.6603 50.3889 10.6603 50.3889 10.8454 50.2039ZM10.8454 51.2059C10.4462 52.1117 10.048 53.0179 9.65068 53.9245C9.51553 54.2326 9.38011 54.5405 9.24441 54.8483C9.04886 55.292 8.85428 55.7361 8.65987 56.1803C8.5693 56.385 8.5693 56.385 8.47691 56.5938C8.14717 57.3501 7.87858 58.0893 7.67216 58.8884C8.21472 59.2501 8.37127 59.2641 8.99781 59.2537C9.21191 59.2521 9.21191 59.2521 9.43034 59.2505C9.84104 59.2351 9.84104 59.2351 10.2197 59.1265C10.316 59.103 10.4122 59.0796 10.5113 59.0554C10.594 59.1381 10.594 59.1381 10.6783 59.2224C11.7439 59.2943 12.7956 59.1916 13.8515 59.0554C13.3927 57.3941 12.765 55.7994 12.1501 54.1912C12.0397 53.9012 11.9293 53.6111 11.819 53.3209C11.5508 52.6157 11.2818 51.9107 11.0124 51.2059C10.9573 51.2059 10.9021 51.2059 10.8454 51.2059Z" fill="black"/>
<path d="M85.7595 50.2039C86.2177 50.6013 86.3993 50.9729 86.6087 51.5383C86.7039 51.7925 86.7039 51.7925 86.8011 52.0517C86.9013 52.3257 86.9013 52.3257 87.0036 52.6053C87.0733 52.7928 87.1431 52.9804 87.2149 53.1736C87.3619 53.57 87.5083 53.9666 87.6541 54.3634C87.878 54.9728 88.1039 55.5813 88.3302 56.1898C88.4727 56.5746 88.615 56.9594 88.7572 57.3442C88.825 57.5272 88.8929 57.7102 88.9628 57.8988C89.0247 58.0677 89.0866 58.2366 89.1504 58.4106C89.2053 58.5596 89.2601 58.7087 89.3166 58.8623C89.4337 59.2224 89.4337 59.2224 89.4337 59.5564C89.2684 59.6115 89.1031 59.6667 88.9327 59.7234C88.7233 60.0928 88.5448 60.4496 88.3723 60.8358C88.3211 60.9467 88.2699 61.0577 88.2172 61.172C88.0539 61.527 87.8931 61.883 87.7323 62.239C87.6221 62.4797 87.5118 62.7203 87.4012 62.9609C87.1305 63.551 86.862 64.1421 86.5946 64.7337C86.319 64.7337 86.0434 64.7337 85.7595 64.7337C85.7153 63.9583 85.8303 63.4568 86.1614 62.757C86.2443 62.5794 86.3271 62.4018 86.4125 62.2188C86.544 61.9446 86.544 61.9446 86.6781 61.6649C86.7657 61.4783 86.8533 61.2916 86.9436 61.0993C87.1596 60.6399 87.3773 60.1813 87.5966 59.7234C87.1006 59.6683 86.6046 59.6132 86.0935 59.5564C86.0468 59.7018 86 59.8471 85.9518 59.9969C85.6449 60.893 85.2574 61.75 84.8723 62.6148C84.7931 62.8001 84.714 62.9853 84.6325 63.1762C84.5538 63.352 84.4751 63.5277 84.3941 63.7089C84.3236 63.8695 84.2531 64.0302 84.1805 64.1957C83.9224 64.5667 83.9224 64.5667 83.4754 64.7039C83.3473 64.7137 83.2193 64.7236 83.0873 64.7337C82.8502 63.9717 83.0038 63.5759 83.3424 62.8673C83.4789 62.5774 83.4789 62.5774 83.6181 62.2818C83.716 62.0796 83.8139 61.8775 83.912 61.6754C84.0095 61.4701 84.1068 61.2647 84.2039 61.0592C84.4421 60.5573 84.6823 60.0564 84.9245 59.5564C84.3593 59.5508 83.9253 59.6283 83.4214 59.8905C82.9417 60.5579 82.6526 61.2916 82.3462 62.0511C82.1762 62.4494 82.0059 62.8476 81.8354 63.2457C81.7265 63.5114 81.7265 63.5114 81.6153 63.7825C81.4172 64.2327 81.4172 64.2327 81.0832 64.7337C80.8077 64.6786 80.5321 64.6235 80.2482 64.5667C80.3531 63.9123 80.5542 63.3734 80.8334 62.7733C80.9157 62.5952 80.9981 62.417 81.0829 62.2335C81.1691 62.0493 81.2553 61.8651 81.3442 61.6754C81.4745 61.3943 81.4745 61.3943 81.6074 61.1075C81.8216 60.6458 82.0366 60.1844 82.2523 59.7234C82.087 59.7234 81.9216 59.7234 81.7513 59.7234C81.864 58.9723 82.1399 58.3132 82.4415 57.6221C82.4941 57.4999 82.5467 57.3777 82.6009 57.2517C82.7692 56.861 82.9387 56.4708 83.1082 56.0805C83.2183 55.8254 83.3284 55.5702 83.4383 55.315C83.7107 54.6834 83.9845 54.0524 84.2589 53.4217C84.4266 53.0358 84.5936 52.6495 84.7605 52.2632C84.8669 52.018 84.9733 51.7727 85.0797 51.5275C85.129 51.4132 85.1783 51.2989 85.229 51.1811C85.5735 50.3899 85.5735 50.3899 85.7595 50.2039ZM85.7595 51.2059C85.3365 52.1593 84.9145 53.113 84.4935 54.0672C84.3502 54.3915 84.2067 54.7156 84.0629 55.0396C83.8557 55.5065 83.6495 55.9739 83.4435 56.4413C83.3795 56.585 83.3155 56.7288 83.2495 56.8769C82.9099 57.6503 82.6289 58.4038 82.4193 59.2224C82.5536 59.1914 82.688 59.1604 82.8264 59.1285C82.9676 59.1044 83.1088 59.0802 83.2544 59.0554C83.3095 59.1105 83.3646 59.1656 83.4214 59.2224C83.7202 59.239 84.0197 59.2441 84.319 59.2433C84.4822 59.2437 84.6454 59.2441 84.8136 59.2446C85.276 59.2415 85.276 59.2415 85.7595 59.0554C85.8697 59.1105 85.98 59.1656 86.0935 59.2224C86.5484 59.2075 86.9971 59.1834 87.4505 59.1493C87.5764 59.1406 87.7024 59.1319 87.8321 59.1229C88.1434 59.1013 88.4545 59.0784 88.7657 59.0554C88.3069 57.3941 87.6791 55.7994 87.0643 54.1912C86.9539 53.9012 86.8435 53.6111 86.7332 53.3209C86.4649 52.6157 86.1959 51.9107 85.9265 51.2059C85.8714 51.2059 85.8163 51.2059 85.7595 51.2059Z" fill="black"/>
<path d="M5 50.2039C17.3081 57.9471 51.6414 68.7877 90.5092 50.2039" stroke="#8A8A8A" stroke-width="3.42037"/>
</g>
<defs>
<radialGradient id="paint0_radial_1966_2" cx="0" cy="0" r="1" gradientUnits="userSpaceOnUse" gradientTransform="translate(48.5 47.5) rotate(90) scale(47.5)">
<stop offset="0.466346" stop-color="white"/>
<stop offset="1" stop-color="white" stop-opacity="0.5"/>
</radialGradient>
<clipPath id="clip0_1966_2">
<rect width="95" height="95" fill="white"/>
</clipPath>
</defs>
</svg>
