<svg width="95" height="95" viewBox="0 0 95 95" fill="none" xmlns="http://www.w3.org/2000/svg">
<g clip-path="url(#clip0_2003_137)">
<path d="M47.5 0.0185547C63.0859 0.0185547 78.6669 0.0123698 94.243 0C94.8757 0 95.0018 0.124316 95 0.758887C94.9814 31.9196 94.9814 63.0804 95 94.2411C95 94.8757 94.8757 95 94.243 95C63.0822 94.979 31.9209 94.979 0.758887 95C0.124316 95 0 94.8757 0 94.2411C0.0197917 63.0804 0.0197917 31.9196 0 0.758887C0 0.124316 0.120605 0 0.758887 0C16.3399 0.0222656 31.9202 0.0284505 47.5 0.0185547Z" fill="url(#paint0_radial_2003_137)"/>
<path d="M79.9697 64.9586L79.8113 64.7671C80.7337 62.5324 81.6562 60.2976 82.7196 58.1238L82.8641 58.3257C83.2992 58.6337 83.0607 59.0219 82.9302 59.3369C82.2131 61.0773 81.4421 62.7813 80.6867 64.4991C80.5545 64.7985 80.3804 65.0717 79.9697 64.9586Z" fill="#181818"/>
<path d="M83.3134 66.6888L82.3597 66.6801C82.3083 66.6841 82.2569 66.6713 82.2135 66.6435C81.4059 66.3476 80.5583 66.5983 79.7385 66.4695C79.8273 65.9143 80.2815 65.9473 80.6697 65.9212C81.7 65.8655 82.7339 65.8969 83.766 65.9003C84.6867 66.01 85.7031 65.7037 86.455 66.5304L86.2235 66.6714L85.3167 66.6818L83.3134 66.6888Z" fill="#141414"/>
<path d="M83.8353 59.3651L83.9868 59.1545C84.4125 60.044 84.7618 60.968 85.031 61.9167C85.1198 62.1064 85.0188 62.1864 84.857 62.2317C84.0285 61.7705 83.4507 60.1309 83.8353 59.3651Z" fill="#1E1E1E"/>
<path d="M85.3356 62.6771C85.6837 63.6053 86.0277 64.5336 86.3677 65.4618C86.354 65.5312 86.316 65.5934 86.2604 65.6371C86.2049 65.6809 86.1355 65.7033 86.0648 65.7003C85.652 65.353 85.3338 64.9069 85.1396 64.4036C84.9455 63.9003 84.8818 63.3561 84.9544 62.8215C84.9933 62.759 85.0517 62.711 85.1206 62.6849C85.1895 62.6588 85.265 62.656 85.3356 62.6771Z" fill="#222222"/>
<path d="M86.1973 65.6586L86.3714 65.4619C86.3505 65.8204 87.0554 66.1216 86.4584 66.5288C85.5725 66.4087 84.6657 66.6263 83.7903 66.3548C83.9173 65.85 84.3472 65.9458 84.6971 65.911C85.2018 65.8657 85.7292 65.944 86.1973 65.6586Z" fill="#050505"/>
<path d="M15.7466 66.6489C15.5924 66.5406 15.4073 66.4853 15.219 66.4913C15.0307 66.4972 14.8494 66.5642 14.7023 66.682L13.8321 66.6402C13.7068 66.5862 13.7085 66.5375 13.8321 66.4957C14.7441 66.1894 15.6857 66.3565 16.6168 66.3217C16.4793 66.8317 16.0408 66.5514 15.7466 66.6489Z" fill="#5F5F5F"/>
<path d="M10.0608 66.6821C9.66576 66.6577 9.28634 66.6821 9.00264 67.0145C9.00264 66.7848 8.84948 66.5568 9.00264 66.3288C9.05137 66.2522 9.10359 66.2505 9.15928 66.3201C9.88158 66.7326 10.6752 66.3584 11.4219 66.5255C11.4219 66.5637 11.4219 66.602 11.4219 66.6403L10.0608 66.6821Z" fill="#232323"/>
<path d="M14.1803 60.4285L13.505 59.0361C13.3936 58.9473 13.4058 58.8812 13.5415 58.8394L13.6947 58.6323C13.9706 59.1422 14.1845 59.6833 14.3317 60.244C14.3231 60.2846 14.3048 60.3226 14.2785 60.3547C14.2521 60.3868 14.2185 60.4121 14.1803 60.4285Z" fill="#282828"/>
<path d="M12.13 59.6243C11.9369 60.1151 11.7437 60.6041 11.5522 61.0949C11.4043 61.1123 11.2877 61.1036 11.3938 60.907C11.5562 60.3527 11.7903 59.8221 12.09 59.3284C12.1127 59.3447 12.1319 59.3654 12.1463 59.3894C12.1607 59.4133 12.17 59.44 12.1738 59.4677C12.1775 59.4954 12.1756 59.5236 12.1681 59.5505C12.1605 59.5774 12.1476 59.6025 12.13 59.6243Z" fill="#222222"/>
<path d="M10.9063 62.4055C10.8307 62.8997 10.6025 63.3579 10.2537 63.7161V63.7248C10.2537 63.1121 10.6018 62.6248 10.8663 62.1096C10.8897 62.1254 10.9094 62.1459 10.9243 62.1699C10.9391 62.1938 10.9488 62.2207 10.9525 62.2486C10.9563 62.2765 10.9542 62.3049 10.9462 62.332C10.9382 62.359 10.9247 62.3841 10.9063 62.4055Z" fill="#343434"/>
<path d="M10.2539 63.7248V63.7161C10.2278 64.3148 9.94761 64.8091 9.60474 65.2825H9.61518C9.57863 64.6611 9.8571 64.1686 10.2539 63.7248Z" fill="#3A3A3A"/>
<path d="M10.9067 62.4055L10.8667 62.1096C10.9714 61.6821 11.1479 61.2754 11.3888 60.907L11.5472 61.095L10.9067 62.4055Z" fill="#2C2C2C"/>
<path d="M12.1302 59.6244L12.085 59.3285C12.1802 58.9005 12.3576 58.495 12.6071 58.1345C12.6175 58.2268 12.628 58.3208 12.6402 58.413C12.5707 58.8521 12.3957 59.2678 12.1302 59.6244Z" fill="#212121"/>
<path d="M14.1804 60.4284L14.3318 60.2544L14.7321 61.4066C14.75 61.429 14.763 61.4549 14.7702 61.4826C14.7774 61.5104 14.7786 61.5393 14.7739 61.5675C14.7691 61.5958 14.7584 61.6227 14.7425 61.6466C14.7266 61.6704 14.7059 61.6907 14.6817 61.7059C14.4399 61.3133 14.2702 60.8807 14.1804 60.4284Z" fill="#171717"/>
<path d="M9.61512 65.2827H9.60467C9.54724 65.6691 9.45673 66.0416 9.15737 66.327C9.10516 66.327 9.05295 66.327 9.00073 66.3357C9.17826 65.9632 9.18 65.4968 9.61512 65.2827Z" fill="#484848"/>
<path d="M85.3356 62.6772L85.1477 62.9069C84.7038 62.7956 84.6255 62.5362 84.8466 62.1585L85.0345 61.9236C85.139 62.1731 85.2393 62.4243 85.3356 62.6772Z" fill="#292929"/>
<path d="M14.6868 61.7024L14.7372 61.4031C14.9226 61.6682 15.0419 61.9737 15.0853 62.2942C15.1051 62.3131 15.1202 62.3364 15.1293 62.3622C15.1384 62.388 15.1412 62.4156 15.1377 62.4427C15.1341 62.4698 15.1242 62.4957 15.1088 62.5183C15.0933 62.5409 15.0728 62.5595 15.0488 62.5727C14.8448 62.3247 14.7189 62.0219 14.6868 61.7024Z" fill="#1E1E1E"/>
<path d="M15.0505 62.5727L15.0871 62.2942C15.2675 62.5541 15.3866 62.8517 15.4352 63.1644C15.4816 63.2097 15.4955 63.2532 15.477 63.295C15.4578 63.3367 15.4404 63.3559 15.423 63.3559C15.3077 63.2602 15.2147 63.1406 15.1503 63.0054C15.086 62.8701 15.052 62.7224 15.0505 62.5727Z" fill="#333333"/>
<path d="M13.8444 66.4956C13.8444 66.5443 13.8444 66.5931 13.8444 66.6401L12.814 66.6801C12.807 66.6244 12.8018 66.5664 12.7983 66.506L13.8444 66.4956Z" fill="#353535"/>
<path d="M82.7199 58.1241C82.4136 57.8699 82.0498 57.9935 81.7156 57.9935C59.3043 57.9866 36.8929 57.9866 14.4815 57.9935C14.0847 57.9935 13.3641 57.7116 13.7 58.6392C13.7749 58.7715 13.7 58.8533 13.6008 58.9229C13.4666 58.9454 13.3288 58.9318 13.2016 58.8834C13.0743 58.8351 12.9622 58.7538 12.8768 58.6479C12.7758 58.5435 12.6105 58.5017 12.5687 58.3399C12.5612 58.3044 12.5613 58.2677 12.5691 58.2323C12.5769 58.1969 12.5922 58.1635 12.614 58.1345C12.3773 57.8769 12.0675 57.9953 11.7942 57.9935C10.0833 57.9813 8.3742 57.9744 6.66332 57.9935C6.20558 57.9935 5.99672 57.9152 6.0002 57.3861C6.02631 54.5526 6.03849 51.7157 6.0002 48.8822C5.98976 48.1616 6.38658 48.2608 6.8217 48.2608H46.7723L41.1263 38.8484C42.1201 38.8484 43.0286 38.8014 43.9301 38.8641C44.6054 38.9111 44.7604 38.6657 44.7534 38.0339C44.7081 33.3468 44.7099 28.6615 44.6577 23.9744C44.6577 23.2782 44.7969 22.9527 45.554 23.0589C46.3111 23.1651 47.3136 22.7491 47.7992 23.2643C48.2395 23.7342 47.9193 24.7002 47.9228 25.4468C47.9332 29.5839 47.9437 33.721 47.9123 37.8581C47.9123 38.5543 48.0464 38.8188 48.8069 38.7649C49.9313 38.6865 51.0695 38.744 52.213 38.744C52.3157 39.0921 52.039 39.3201 51.905 39.5777C50.5213 42.2145 49.1446 44.853 47.7122 47.4602C47.3154 48.1825 47.4772 48.273 48.2152 48.273C61.0865 48.2579 73.9561 48.2539 86.8239 48.2608C87.9448 48.2608 87.9465 48.2608 87.9465 49.3834C87.9465 52.015 87.9308 54.6483 87.9587 57.2799C87.9587 57.8473 87.8055 58.0266 87.2347 57.997C86.3087 57.95 85.3758 58.0336 84.4499 57.9709C83.6423 57.9152 83.5797 58.2024 83.9086 58.8168C83.9492 58.9247 83.9744 59.0377 83.9835 59.1527C84.06 59.2954 83.9835 59.3789 83.8669 59.4451C83.1707 59.4729 83.2542 58.6427 82.7564 58.4582C82.7042 58.3538 82.6398 58.2476 82.7199 58.1241Z" fill="black"/>
<path d="M12.647 58.4148L12.9829 58.0093C13.291 58.2738 13.2597 58.7577 13.6165 58.9909C14.0272 59.3738 14.0342 59.9412 14.2639 60.4059C14.4571 60.8027 14.5319 61.25 14.7704 61.6242C14.8155 61.9411 14.9347 62.2428 15.1185 62.5049C15.1625 62.822 15.2819 63.124 15.4666 63.3856C15.4919 63.7016 15.6203 64.0006 15.8321 64.2367C16.1693 64.9019 16.4319 65.6023 16.6153 66.3252C16.0583 66.5898 15.4596 66.5689 14.8748 66.5341C14.5363 66.4968 14.194 66.5121 13.8601 66.5793C13.4964 66.6037 13.1274 66.5463 12.7636 66.6194C12.3042 66.9674 11.8638 66.6194 11.4148 66.5846C10.6681 66.4384 9.91972 66.83 9.17306 66.5846C9.0199 66.0816 9.48112 65.7578 9.549 65.3192C9.76134 64.7727 10.0607 64.261 10.2556 63.7058C10.4419 63.255 10.6977 62.8356 10.8091 62.3517C11.0876 61.948 11.2059 61.4693 11.4322 61.0412C11.6062 60.5469 11.9073 60.1013 12.0239 59.5827C12.3163 59.2311 12.3355 58.7455 12.647 58.4148Z" fill="#919191"/>
<path d="M82.2133 66.6437C80.9184 66.3948 80.3197 67.0632 79.9124 68.2101C79.5051 69.3571 78.9186 70.4153 78.4051 71.517C78.2694 71.8077 78.118 72.1488 77.709 71.926C77.3713 71.752 77.5001 71.4387 77.6254 71.1672C78.2067 69.9123 78.7985 68.6609 79.3659 67.3973C79.4686 67.1676 79.9211 66.776 79.1918 66.6785C78.9116 66.642 79.0822 66.3948 79.1361 66.266C79.3502 65.763 79.5887 65.2705 79.8184 64.7744C79.8757 64.7535 79.9382 64.7512 79.9969 64.7677C80.0556 64.7843 80.1077 64.8189 80.1456 64.8667C80.438 65.1312 80.0899 65.6168 80.4937 65.8431C80.8644 66.0171 81.2908 65.9684 81.6511 66.1442C81.8704 66.2504 82.2463 66.2243 82.2133 66.6437Z" fill="#040404"/>
<path d="M11.4183 66.5251L12.7915 66.5129C12.9185 66.5582 12.9238 66.6121 12.8072 66.687C12.0808 68.2476 11.3539 69.8088 10.6264 71.3706C10.4854 71.6699 10.3757 72.1346 9.93016 71.9554C9.40803 71.7483 9.7039 71.3323 9.85184 71.0068C10.4227 69.7519 11.0093 68.5058 11.5784 67.2492C11.6793 67.0264 11.9804 66.7061 11.4148 66.647L11.2982 66.5843L11.4183 66.5251Z" fill="#040404"/>
<path d="M15.7468 66.6488C15.0123 68.2153 14.283 69.7817 13.5416 71.3481C13.3919 71.6631 13.2979 72.1783 12.788 71.9242C12.3528 71.7084 12.6226 71.3289 12.7601 71.0209C13.4052 69.5717 14.0527 68.1253 14.7025 66.6819C15.0349 66.2329 15.383 66.2886 15.7468 66.6488Z" fill="#040404"/>
<path d="M86.2237 66.6697C85.4869 68.2941 84.7501 69.9186 84.0133 71.543C83.8914 71.811 83.7452 72.1104 83.3815 71.952C82.969 71.778 83.11 71.4542 83.2509 71.1497C83.9471 69.6633 84.6358 68.1746 85.3169 66.6836C85.6162 66.3773 85.9173 66.3877 86.2237 66.6697Z" fill="#050505"/>
<path d="M10.0607 66.6817C9.33148 68.276 8.61093 69.8685 7.86949 71.4593C7.7407 71.7361 7.62061 72.1311 7.20116 71.9571C6.72601 71.7552 6.95749 71.388 7.10021 71.0869C7.72852 69.7328 8.36727 68.3822 9.00254 67.0298C9.18006 66.3476 9.63781 66.5617 10.0607 66.6817Z" fill="#040404"/>
<path d="M83.3134 66.6888C82.5877 68.2917 81.8654 69.8964 81.1292 71.4959C81.0004 71.7761 80.8611 72.1503 80.433 71.9258C80.0048 71.7013 80.2311 71.3793 80.3599 71.0939C81.0195 69.6214 81.6879 68.1507 82.3527 66.6801C82.6799 66.3877 82.9984 66.3755 83.3134 66.6888Z" fill="#030303"/>
<path d="M15.4109 63.3648L15.4231 63.1733C15.564 63.5214 15.7033 63.8852 15.8425 64.2402C15.6941 64.1512 15.5745 64.0212 15.498 63.866C15.4214 63.7107 15.3912 63.5368 15.4109 63.3648Z" fill="#515151"/>
<path d="M84.8433 62.1515C84.9425 62.4004 85.0434 62.651 85.1444 62.8999C85.4121 63.8479 85.7615 64.7709 86.1887 65.6585C86.2948 66.038 86.3105 66.3269 85.7588 66.3112C85.0991 66.2921 84.4378 66.3338 83.7781 66.3512C82.4275 66.3373 81.0752 66.2729 79.7298 66.4678C79.1607 65.8656 80.0344 65.4845 79.9613 64.9589C81.0212 62.7885 81.9454 60.5607 82.8557 58.326C83.0175 58.0301 83.1794 57.6855 83.4178 58.272C83.5658 58.6323 83.6911 58.9995 83.8268 59.365L84.8433 62.1515Z" fill="#919191"/>
<path d="M13.5467 58.8464L13.5102 59.0431C13.2306 58.7628 13.0477 58.4007 12.988 58.0093C13.4841 58.0754 13.3466 58.5749 13.5467 58.8464Z" fill="#C6C6C6"/>
</g>
<defs>
<radialGradient id="paint0_radial_2003_137" cx="0" cy="0" r="1" gradientUnits="userSpaceOnUse" gradientTransform="translate(47.5 47.5) rotate(90) scale(47.5 47.5)">
<stop offset="0.4" stop-color="white"/>
<stop offset="1" stop-color="white" stop-opacity="0.5"/>
</radialGradient>
<clipPath id="clip0_2003_137">
<rect width="95" height="95" fill="white"/>
</clipPath>
</defs>
</svg>
