<svg width="95" height="95" viewBox="0 0 95 95" fill="none" xmlns="http://www.w3.org/2000/svg">
<g clip-path="url(#clip0_2003_662)">
<path d="M47.5 0.0185547C63.0859 0.0185547 78.6669 0.0123698 94.243 0C94.8757 0 95.0018 0.124316 95 0.758887C94.9814 31.9196 94.9814 63.0804 95 94.2411C95 94.8757 94.8757 95 94.243 95C63.0822 94.979 31.9209 94.979 0.758887 95C0.124316 95 0 94.8757 0 94.2411C0.0197917 63.0804 0.0197917 31.9196 0 0.758887C0 0.124316 0.120605 0 0.758887 0C16.3399 0.0222656 31.9202 0.0284505 47.5 0.0185547Z" fill="url(#paint0_radial_2003_662)"/>
<mask id="path-2-outside-1_2003_662" maskUnits="userSpaceOnUse" x="4" y="33" width="87" height="35" fill="black">
<rect fill="white" x="4" y="33" width="87" height="35"/>
<path d="M12.3452 34C12.5272 35.7108 12.576 37.4169 12.6185 39.1373C12.6317 39.651 12.6449 40.1646 12.6582 40.6783C12.6617 40.8156 12.6652 40.953 12.6689 41.0945C12.6776 41.4309 12.6863 41.7674 12.695 42.1039C12.7975 42.1014 12.9001 42.099 13.0057 42.0964C20.6521 41.9148 28.2942 41.8953 35.942 41.9283C37.5664 41.9353 39.1908 41.9409 40.8152 41.9464C43.7094 41.9563 46.6035 41.9672 49.4977 41.9788C52.3003 41.9901 55.1029 42.0008 57.9055 42.0109C58.0798 42.0115 58.2541 42.0121 58.4337 42.0128C59.3085 42.0159 60.1833 42.019 61.058 42.0222C68.2552 42.0479 75.4523 42.0754 82.6494 42.1039C82.6494 39.8117 82.6494 37.5194 82.6494 35.1577C84.3263 35.0421 85.9606 34.9366 87.6336 34.9527C87.8128 34.9536 87.9921 34.9544 88.1767 34.9553C88.6078 34.9576 89.0388 34.9607 89.4699 34.9647C89.6532 35.9939 89.6986 37.01 89.7384 38.055C89.7459 38.2421 89.7534 38.4292 89.7612 38.622C89.7769 39.0184 89.7923 39.4147 89.8074 39.8111C89.8302 40.4056 89.8544 41 89.8788 41.5944C89.9699 43.8883 90.0167 46.1752 89.9946 48.4712C88.4144 48.6278 86.8596 48.6819 85.2727 48.6642C85.2727 49.683 85.2727 50.7017 85.2727 51.7514C83.195 51.7514 81.1174 51.7514 78.9768 51.7514C78.9788 52.4137 78.9808 53.0761 78.9829 53.7585C78.9843 54.4042 78.9853 55.0498 78.9864 55.6954C78.9872 56.1421 78.9884 56.5888 78.99 57.0355C78.9921 57.6797 78.9931 58.324 78.9938 58.9682C78.9947 59.166 78.9956 59.3639 78.9966 59.5677C78.9966 59.8514 78.9966 59.8514 78.9966 60.1409C78.997 60.305 78.9974 60.4691 78.9978 60.6382C78.9692 61.409 78.8791 62.1757 78.8019 62.9425C80.9372 62.9425 83.0726 62.9425 85.2727 62.9425C85.3304 64.216 85.3881 65.4894 85.4475 66.8015C79.9665 66.9696 74.4913 67.0171 69.0083 66.9944C69.0083 65.721 69.0083 64.4475 69.0083 63.1354C71.0859 63.0718 73.1636 63.0081 75.3042 62.9425C75.3021 62.4095 75.3001 61.8765 75.298 61.3273C75.2966 60.7991 75.2956 60.2709 75.2945 59.7428C75.2937 59.3815 75.2925 59.0202 75.291 58.6589C75.2888 58.1334 75.2878 57.6079 75.2871 57.0824C75.2862 56.9263 75.2853 56.7702 75.2843 56.6093C75.2842 54.979 75.3917 53.3896 75.479 51.7514C73.1705 51.7514 70.8621 51.7514 68.4836 51.7514C68.4836 50.7326 68.4836 49.7138 68.4836 48.6642C65.0786 48.6642 61.6735 48.6642 58.1653 48.6642C58.1653 49.683 58.1653 50.7017 58.1653 51.7514C56.0877 51.7514 54.01 51.7514 51.8694 51.7514C51.8715 52.4461 51.8735 53.1408 51.8756 53.8565C51.8769 54.5315 51.878 55.2065 51.879 55.8815C51.8799 56.3496 51.8811 56.8176 51.8826 57.2857C51.8848 57.9596 51.8857 58.6334 51.8865 59.3073C51.8874 59.5156 51.8883 59.7239 51.8892 59.9385C51.8893 60.2339 51.8893 60.2339 51.8893 60.5352C51.8897 60.707 51.8901 60.8788 51.8905 61.0558C51.8657 61.6882 51.7757 62.3159 51.6945 62.9425C53.8299 62.9425 55.9653 62.9425 58.1653 62.9425C58.223 64.216 58.2808 65.4894 58.3402 66.8015C52.8592 66.9696 47.384 67.0171 41.9009 66.9944C41.9009 65.721 41.9009 64.4475 41.9009 63.1354C43.9786 63.0718 46.0562 63.0081 48.1968 62.9425C48.1948 62.4256 48.1928 61.9088 48.1907 61.3763C48.1893 60.8628 48.1883 60.3493 48.1872 59.8358C48.1864 59.4852 48.1852 59.1346 48.1836 58.784C48.1815 58.2733 48.1805 57.7627 48.1798 57.252C48.1788 57.1011 48.1779 56.9502 48.177 56.7947C48.1769 55.1042 48.2862 53.449 48.3717 51.7514C46.0632 51.7514 43.7547 51.7514 41.3763 51.7514C41.3763 50.7326 41.3763 49.7138 41.3763 48.6642C37.1056 48.6642 32.8348 48.6642 28.4347 48.6642C28.4924 49.683 28.5501 50.7017 28.6096 51.7514C26.532 51.7514 24.4543 51.7514 22.3137 51.7514C22.3173 52.5951 22.3209 53.4387 22.3246 54.308C22.3306 57.1917 22.2465 60.0607 22.1388 62.9425C24.2165 62.9425 26.2941 62.9425 28.4347 62.9425C28.6178 63.7504 28.6291 64.482 28.6205 65.3061C28.6197 65.4499 28.619 65.5937 28.6181 65.7418C28.6161 66.095 28.613 66.4483 28.6096 66.8015C23.1871 66.9756 17.7699 67.0168 12.3452 66.9944C12.3452 65.721 12.3452 64.4475 12.3452 63.1354C14.4229 63.0718 16.5005 63.0081 18.6411 62.9425C18.6411 59.2494 18.6411 55.5564 18.6411 51.7514C16.3903 51.7514 14.1395 51.7514 11.8206 51.7514C11.8206 50.7963 11.8206 49.8412 11.8206 48.8571C9.74291 48.8571 7.66526 48.8571 5.52466 48.8571C5.35152 44.0816 5.17838 39.3061 5 34.3859C6.08211 34.3222 7.16421 34.2586 8.27911 34.1929C8.61969 34.1728 8.96028 34.1527 9.31118 34.1319C9.58199 34.1161 9.8528 34.1002 10.1236 34.0844C10.3335 34.0719 10.3335 34.0719 10.5476 34.0592C11.1481 34.0243 11.7437 34 12.3452 34ZM6.2242 35.5436C6.33925 40.4342 6.33925 40.4342 6.48653 45.3237C6.49272 45.525 6.4989 45.7262 6.50527 45.9335C6.51171 46.115 6.51815 46.2966 6.52479 46.4837C6.53008 46.6406 6.53538 46.7974 6.54084 46.9591C6.54014 47.3168 6.54014 47.3168 6.74886 47.5065C7.01068 47.5254 7.27331 47.5307 7.53569 47.5308C7.79253 47.5315 7.79253 47.5315 8.05456 47.5323C8.24511 47.5319 8.43566 47.5314 8.63198 47.531C8.93337 47.5314 8.93337 47.5314 9.24085 47.5319C9.80222 47.5326 10.3636 47.5323 10.925 47.5317C11.5314 47.5313 12.1378 47.5319 12.7443 47.5325C13.941 47.5333 15.1377 47.5331 16.3344 47.5326C17.3183 47.5322 18.3022 47.5321 19.2862 47.5324C19.4973 47.5325 19.4973 47.5325 19.7128 47.5325C19.9993 47.5326 20.2858 47.5327 20.5723 47.5328C23.4465 47.5336 26.3207 47.5329 29.1949 47.5317C31.2271 47.5309 33.2594 47.5304 35.2916 47.5301C49.6094 47.5286 63.927 47.5228 78.2444 47.41C78.3897 47.4089 78.535 47.4077 78.6847 47.4066C82.1049 47.3795 85.5251 47.3492 88.9453 47.3135C88.8994 46.0298 88.8527 44.7462 88.8054 43.4626C88.7895 43.0265 88.7737 42.5905 88.7581 42.1545C88.7356 41.5251 88.7124 40.8957 88.6891 40.2664C88.679 39.9774 88.679 39.9774 88.6686 39.6826C88.6616 39.4974 88.6546 39.3121 88.6474 39.1212C88.6387 38.8808 88.6387 38.8808 88.6298 38.6356C88.5804 37.7961 88.4965 36.9595 88.4206 36.1224C86.0833 36.218 86.0833 36.218 83.6987 36.3154C83.6987 38.544 83.6987 40.7725 83.6987 43.0686C59.8635 43.0686 36.0283 43.0686 11.4708 43.0686C11.4708 41.5405 11.4708 40.0123 11.4708 38.4378C11.3971 36.8926 11.3971 36.8926 11.2959 35.3506C9.60033 35.3136 7.91558 35.4286 6.2242 35.5436ZM42.4256 48.6642C42.4256 49.3009 42.4256 49.9377 42.4256 50.5937C44.7341 50.5937 47.0426 50.5937 49.421 50.5937C49.3633 51.2941 49.3056 51.9945 49.2461 52.7161C49.233 53.1446 49.2255 53.5734 49.2263 54.0021C49.2263 54.2299 49.2263 54.4576 49.2263 54.6923C49.2272 54.9303 49.2281 55.1684 49.2291 55.4137C49.2293 55.6634 49.2296 55.913 49.2298 56.1703C49.2305 56.8266 49.2322 57.4828 49.2341 58.1391C49.2359 58.8118 49.2367 59.4845 49.2376 60.1572C49.2395 61.4715 49.2424 62.7858 49.2461 64.1002C49.0394 64.0991 48.8327 64.098 48.6198 64.0968C47.1863 64.0914 45.7584 64.0903 44.3275 64.1967C44.1236 64.2105 44.1236 64.2105 43.9155 64.2246C43.5937 64.2465 43.272 64.2696 42.9503 64.2931C42.9503 64.8025 42.9503 65.3119 42.9503 65.8367C44.3294 65.8413 45.7086 65.8447 47.0877 65.8467C47.7285 65.8477 48.3693 65.8491 49.0101 65.8513C51.7746 65.8606 54.5317 65.863 57.2909 65.6438C57.2043 64.8797 57.2043 64.8797 57.116 64.1002C55.0384 64.1002 52.9607 64.1002 50.8201 64.1002C50.8778 59.643 50.9355 55.1859 50.995 50.5937C53.0149 50.5937 55.0349 50.5937 57.116 50.5937C57.116 50.0206 57.116 49.4476 57.116 48.8571C49.7714 48.685 49.7714 48.685 42.4256 48.6642ZM69.5329 48.6642C69.5329 49.3009 69.5329 49.9377 69.5329 50.5937C71.8414 50.5937 74.1499 50.5937 76.5284 50.5937C76.4706 51.2304 76.4129 51.8672 76.3535 52.5232C76.3401 52.9503 76.3328 53.3777 76.3336 53.805C76.3336 54.0366 76.3336 54.2682 76.3336 54.5069C76.3346 54.7502 76.3355 54.9934 76.3364 55.2441C76.3368 55.6254 76.3368 55.6254 76.3371 56.0145C76.3378 56.6838 76.3395 57.3531 76.3415 58.0223C76.3433 58.7079 76.344 59.3935 76.3449 60.0791C76.3468 61.4195 76.3498 62.7598 76.3535 64.1002C76.1468 64.0991 75.9401 64.098 75.7271 64.0968C74.2936 64.0914 72.8658 64.0903 71.4348 64.1967C71.2309 64.2105 71.2309 64.2105 71.0229 64.2246C70.701 64.2465 70.3793 64.2696 70.0576 64.2931C70.0576 64.8025 70.0576 65.3119 70.0576 65.8367C71.4367 65.8413 72.8159 65.8447 74.195 65.8467C74.8358 65.8477 75.4766 65.8491 76.1174 65.8513C78.8819 65.8606 81.639 65.863 84.3982 65.6438C84.3117 64.8797 84.3117 64.8797 84.2233 64.1002C82.088 64.1002 79.9526 64.1002 77.7526 64.1002C77.8103 63.9728 77.868 63.8455 77.9274 63.7143C77.9486 63.2987 77.9585 62.8823 77.9633 62.4661C77.9651 62.338 77.9668 62.21 77.9686 62.0781C77.9741 61.6542 77.9785 61.2304 77.9828 60.8065C77.9864 60.5129 77.99 60.2192 77.9938 59.9256C78.0034 59.1523 78.0121 58.3789 78.0205 57.6056C78.0308 56.678 78.0424 55.7504 78.0538 54.8228C78.0709 53.4131 78.0865 52.0034 78.1023 50.5937C80.1223 50.5937 82.1422 50.5937 84.2233 50.5937C84.2233 50.0206 84.2233 49.4476 84.2233 48.8571C76.8787 48.685 76.8787 48.685 69.5329 48.6642ZM12.8699 48.8571C12.8699 49.4302 12.8699 50.0033 12.8699 50.5937C15.1207 50.5937 17.3714 50.5937 19.6904 50.5937C19.6327 55.0508 19.575 59.508 19.5155 64.1002C18.4767 64.1002 17.4379 64.1002 16.3676 64.1002C15.7751 64.1253 15.1877 64.1527 14.5969 64.1967C14.393 64.2105 14.393 64.2105 14.1849 64.2246C13.8631 64.2465 13.5414 64.2696 13.2196 64.2931C13.2196 64.8025 13.2196 65.3119 13.2196 65.8367C14.6246 65.8413 16.0296 65.8447 17.4346 65.8467C18.0873 65.8477 18.7401 65.8491 19.3928 65.8513C23.4796 65.8692 23.4796 65.8692 27.5603 65.6438C27.5603 65.1344 27.5603 64.625 27.5603 64.1002C25.4249 64.1002 23.2896 64.1002 21.0895 64.1002C21.1181 63.5343 21.1468 62.9685 21.1763 62.3855C21.2881 59.9461 21.284 57.5095 21.2753 55.0677C21.2744 54.6307 21.2736 54.1937 21.2729 53.7566C21.2712 52.7023 21.2678 51.648 21.2644 50.5937C23.342 50.5937 25.4197 50.5937 27.5603 50.5937C27.6515 49.3725 27.6515 49.3725 27.3854 48.8571C22.5953 48.8571 17.8051 48.8571 12.8699 48.8571Z"/>
</mask>
<path d="M12.3452 34C12.5272 35.7108 12.576 37.4169 12.6185 39.1373C12.6317 39.651 12.6449 40.1646 12.6582 40.6783C12.6617 40.8156 12.6652 40.953 12.6689 41.0945C12.6776 41.4309 12.6863 41.7674 12.695 42.1039C12.7975 42.1014 12.9001 42.099 13.0057 42.0964C20.6521 41.9148 28.2942 41.8953 35.942 41.9283C37.5664 41.9353 39.1908 41.9409 40.8152 41.9464C43.7094 41.9563 46.6035 41.9672 49.4977 41.9788C52.3003 41.9901 55.1029 42.0008 57.9055 42.0109C58.0798 42.0115 58.2541 42.0121 58.4337 42.0128C59.3085 42.0159 60.1833 42.019 61.058 42.0222C68.2552 42.0479 75.4523 42.0754 82.6494 42.1039C82.6494 39.8117 82.6494 37.5194 82.6494 35.1577C84.3263 35.0421 85.9606 34.9366 87.6336 34.9527C87.8128 34.9536 87.9921 34.9544 88.1767 34.9553C88.6078 34.9576 89.0388 34.9607 89.4699 34.9647C89.6532 35.9939 89.6986 37.01 89.7384 38.055C89.7459 38.2421 89.7534 38.4292 89.7612 38.622C89.7769 39.0184 89.7923 39.4147 89.8074 39.8111C89.8302 40.4056 89.8544 41 89.8788 41.5944C89.9699 43.8883 90.0167 46.1752 89.9946 48.4712C88.4144 48.6278 86.8596 48.6819 85.2727 48.6642C85.2727 49.683 85.2727 50.7017 85.2727 51.7514C83.195 51.7514 81.1174 51.7514 78.9768 51.7514C78.9788 52.4137 78.9808 53.0761 78.9829 53.7585C78.9843 54.4042 78.9853 55.0498 78.9864 55.6954C78.9872 56.1421 78.9884 56.5888 78.99 57.0355C78.9921 57.6797 78.9931 58.324 78.9938 58.9682C78.9947 59.166 78.9956 59.3639 78.9966 59.5677C78.9966 59.8514 78.9966 59.8514 78.9966 60.1409C78.997 60.305 78.9974 60.4691 78.9978 60.6382C78.9692 61.409 78.8791 62.1757 78.8019 62.9425C80.9372 62.9425 83.0726 62.9425 85.2727 62.9425C85.3304 64.216 85.3881 65.4894 85.4475 66.8015C79.9665 66.9696 74.4913 67.0171 69.0083 66.9944C69.0083 65.721 69.0083 64.4475 69.0083 63.1354C71.0859 63.0718 73.1636 63.0081 75.3042 62.9425C75.3021 62.4095 75.3001 61.8765 75.298 61.3273C75.2966 60.7991 75.2956 60.2709 75.2945 59.7428C75.2937 59.3815 75.2925 59.0202 75.291 58.6589C75.2888 58.1334 75.2878 57.6079 75.2871 57.0824C75.2862 56.9263 75.2853 56.7702 75.2843 56.6093C75.2842 54.979 75.3917 53.3896 75.479 51.7514C73.1705 51.7514 70.8621 51.7514 68.4836 51.7514C68.4836 50.7326 68.4836 49.7138 68.4836 48.6642C65.0786 48.6642 61.6735 48.6642 58.1653 48.6642C58.1653 49.683 58.1653 50.7017 58.1653 51.7514C56.0877 51.7514 54.01 51.7514 51.8694 51.7514C51.8715 52.4461 51.8735 53.1408 51.8756 53.8565C51.8769 54.5315 51.878 55.2065 51.879 55.8815C51.8799 56.3496 51.8811 56.8176 51.8826 57.2857C51.8848 57.9596 51.8857 58.6334 51.8865 59.3073C51.8874 59.5156 51.8883 59.7239 51.8892 59.9385C51.8893 60.2339 51.8893 60.2339 51.8893 60.5352C51.8897 60.707 51.8901 60.8788 51.8905 61.0558C51.8657 61.6882 51.7757 62.3159 51.6945 62.9425C53.8299 62.9425 55.9653 62.9425 58.1653 62.9425C58.223 64.216 58.2808 65.4894 58.3402 66.8015C52.8592 66.9696 47.384 67.0171 41.9009 66.9944C41.9009 65.721 41.9009 64.4475 41.9009 63.1354C43.9786 63.0718 46.0562 63.0081 48.1968 62.9425C48.1948 62.4256 48.1928 61.9088 48.1907 61.3763C48.1893 60.8628 48.1883 60.3493 48.1872 59.8358C48.1864 59.4852 48.1852 59.1346 48.1836 58.784C48.1815 58.2733 48.1805 57.7627 48.1798 57.252C48.1788 57.1011 48.1779 56.9502 48.177 56.7947C48.1769 55.1042 48.2862 53.449 48.3717 51.7514C46.0632 51.7514 43.7547 51.7514 41.3763 51.7514C41.3763 50.7326 41.3763 49.7138 41.3763 48.6642C37.1056 48.6642 32.8348 48.6642 28.4347 48.6642C28.4924 49.683 28.5501 50.7017 28.6096 51.7514C26.532 51.7514 24.4543 51.7514 22.3137 51.7514C22.3173 52.5951 22.3209 53.4387 22.3246 54.308C22.3306 57.1917 22.2465 60.0607 22.1388 62.9425C24.2165 62.9425 26.2941 62.9425 28.4347 62.9425C28.6178 63.7504 28.6291 64.482 28.6205 65.3061C28.6197 65.4499 28.619 65.5937 28.6181 65.7418C28.6161 66.095 28.613 66.4483 28.6096 66.8015C23.1871 66.9756 17.7699 67.0168 12.3452 66.9944C12.3452 65.721 12.3452 64.4475 12.3452 63.1354C14.4229 63.0718 16.5005 63.0081 18.6411 62.9425C18.6411 59.2494 18.6411 55.5564 18.6411 51.7514C16.3903 51.7514 14.1395 51.7514 11.8206 51.7514C11.8206 50.7963 11.8206 49.8412 11.8206 48.8571C9.74291 48.8571 7.66526 48.8571 5.52466 48.8571C5.35152 44.0816 5.17838 39.3061 5 34.3859C6.08211 34.3222 7.16421 34.2586 8.27911 34.1929C8.61969 34.1728 8.96028 34.1527 9.31118 34.1319C9.58199 34.1161 9.8528 34.1002 10.1236 34.0844C10.3335 34.0719 10.3335 34.0719 10.5476 34.0592C11.1481 34.0243 11.7437 34 12.3452 34ZM6.2242 35.5436C6.33925 40.4342 6.33925 40.4342 6.48653 45.3237C6.49272 45.525 6.4989 45.7262 6.50527 45.9335C6.51171 46.115 6.51815 46.2966 6.52479 46.4837C6.53008 46.6406 6.53538 46.7974 6.54084 46.9591C6.54014 47.3168 6.54014 47.3168 6.74886 47.5065C7.01068 47.5254 7.27331 47.5307 7.53569 47.5308C7.79253 47.5315 7.79253 47.5315 8.05456 47.5323C8.24511 47.5319 8.43566 47.5314 8.63198 47.531C8.93337 47.5314 8.93337 47.5314 9.24085 47.5319C9.80222 47.5326 10.3636 47.5323 10.925 47.5317C11.5314 47.5313 12.1378 47.5319 12.7443 47.5325C13.941 47.5333 15.1377 47.5331 16.3344 47.5326C17.3183 47.5322 18.3022 47.5321 19.2862 47.5324C19.4973 47.5325 19.4973 47.5325 19.7128 47.5325C19.9993 47.5326 20.2858 47.5327 20.5723 47.5328C23.4465 47.5336 26.3207 47.5329 29.1949 47.5317C31.2271 47.5309 33.2594 47.5304 35.2916 47.5301C49.6094 47.5286 63.927 47.5228 78.2444 47.41C78.3897 47.4089 78.535 47.4077 78.6847 47.4066C82.1049 47.3795 85.5251 47.3492 88.9453 47.3135C88.8994 46.0298 88.8527 44.7462 88.8054 43.4626C88.7895 43.0265 88.7737 42.5905 88.7581 42.1545C88.7356 41.5251 88.7124 40.8957 88.6891 40.2664C88.679 39.9774 88.679 39.9774 88.6686 39.6826C88.6616 39.4974 88.6546 39.3121 88.6474 39.1212C88.6387 38.8808 88.6387 38.8808 88.6298 38.6356C88.5804 37.7961 88.4965 36.9595 88.4206 36.1224C86.0833 36.218 86.0833 36.218 83.6987 36.3154C83.6987 38.544 83.6987 40.7725 83.6987 43.0686C59.8635 43.0686 36.0283 43.0686 11.4708 43.0686C11.4708 41.5405 11.4708 40.0123 11.4708 38.4378C11.3971 36.8926 11.3971 36.8926 11.2959 35.3506C9.60033 35.3136 7.91558 35.4286 6.2242 35.5436ZM42.4256 48.6642C42.4256 49.3009 42.4256 49.9377 42.4256 50.5937C44.7341 50.5937 47.0426 50.5937 49.421 50.5937C49.3633 51.2941 49.3056 51.9945 49.2461 52.7161C49.233 53.1446 49.2255 53.5734 49.2263 54.0021C49.2263 54.2299 49.2263 54.4576 49.2263 54.6923C49.2272 54.9303 49.2281 55.1684 49.2291 55.4137C49.2293 55.6634 49.2296 55.913 49.2298 56.1703C49.2305 56.8266 49.2322 57.4828 49.2341 58.1391C49.2359 58.8118 49.2367 59.4845 49.2376 60.1572C49.2395 61.4715 49.2424 62.7858 49.2461 64.1002C49.0394 64.0991 48.8327 64.098 48.6198 64.0968C47.1863 64.0914 45.7584 64.0903 44.3275 64.1967C44.1236 64.2105 44.1236 64.2105 43.9155 64.2246C43.5937 64.2465 43.272 64.2696 42.9503 64.2931C42.9503 64.8025 42.9503 65.3119 42.9503 65.8367C44.3294 65.8413 45.7086 65.8447 47.0877 65.8467C47.7285 65.8477 48.3693 65.8491 49.0101 65.8513C51.7746 65.8606 54.5317 65.863 57.2909 65.6438C57.2043 64.8797 57.2043 64.8797 57.116 64.1002C55.0384 64.1002 52.9607 64.1002 50.8201 64.1002C50.8778 59.643 50.9355 55.1859 50.995 50.5937C53.0149 50.5937 55.0349 50.5937 57.116 50.5937C57.116 50.0206 57.116 49.4476 57.116 48.8571C49.7714 48.685 49.7714 48.685 42.4256 48.6642ZM69.5329 48.6642C69.5329 49.3009 69.5329 49.9377 69.5329 50.5937C71.8414 50.5937 74.1499 50.5937 76.5284 50.5937C76.4706 51.2304 76.4129 51.8672 76.3535 52.5232C76.3401 52.9503 76.3328 53.3777 76.3336 53.805C76.3336 54.0366 76.3336 54.2682 76.3336 54.5069C76.3346 54.7502 76.3355 54.9934 76.3364 55.2441C76.3368 55.6254 76.3368 55.6254 76.3371 56.0145C76.3378 56.6838 76.3395 57.3531 76.3415 58.0223C76.3433 58.7079 76.344 59.3935 76.3449 60.0791C76.3468 61.4195 76.3498 62.7598 76.3535 64.1002C76.1468 64.0991 75.9401 64.098 75.7271 64.0968C74.2936 64.0914 72.8658 64.0903 71.4348 64.1967C71.2309 64.2105 71.2309 64.2105 71.0229 64.2246C70.701 64.2465 70.3793 64.2696 70.0576 64.2931C70.0576 64.8025 70.0576 65.3119 70.0576 65.8367C71.4367 65.8413 72.8159 65.8447 74.195 65.8467C74.8358 65.8477 75.4766 65.8491 76.1174 65.8513C78.8819 65.8606 81.639 65.863 84.3982 65.6438C84.3117 64.8797 84.3117 64.8797 84.2233 64.1002C82.088 64.1002 79.9526 64.1002 77.7526 64.1002C77.8103 63.9728 77.868 63.8455 77.9274 63.7143C77.9486 63.2987 77.9585 62.8823 77.9633 62.4661C77.9651 62.338 77.9668 62.21 77.9686 62.0781C77.9741 61.6542 77.9785 61.2304 77.9828 60.8065C77.9864 60.5129 77.99 60.2192 77.9938 59.9256C78.0034 59.1523 78.0121 58.3789 78.0205 57.6056C78.0308 56.678 78.0424 55.7504 78.0538 54.8228C78.0709 53.4131 78.0865 52.0034 78.1023 50.5937C80.1223 50.5937 82.1422 50.5937 84.2233 50.5937C84.2233 50.0206 84.2233 49.4476 84.2233 48.8571C76.8787 48.685 76.8787 48.685 69.5329 48.6642ZM12.8699 48.8571C12.8699 49.4302 12.8699 50.0033 12.8699 50.5937C15.1207 50.5937 17.3714 50.5937 19.6904 50.5937C19.6327 55.0508 19.575 59.508 19.5155 64.1002C18.4767 64.1002 17.4379 64.1002 16.3676 64.1002C15.7751 64.1253 15.1877 64.1527 14.5969 64.1967C14.393 64.2105 14.393 64.2105 14.1849 64.2246C13.8631 64.2465 13.5414 64.2696 13.2196 64.2931C13.2196 64.8025 13.2196 65.3119 13.2196 65.8367C14.6246 65.8413 16.0296 65.8447 17.4346 65.8467C18.0873 65.8477 18.7401 65.8491 19.3928 65.8513C23.4796 65.8692 23.4796 65.8692 27.5603 65.6438C27.5603 65.1344 27.5603 64.625 27.5603 64.1002C25.4249 64.1002 23.2896 64.1002 21.0895 64.1002C21.1181 63.5343 21.1468 62.9685 21.1763 62.3855C21.2881 59.9461 21.284 57.5095 21.2753 55.0677C21.2744 54.6307 21.2736 54.1937 21.2729 53.7566C21.2712 52.7023 21.2678 51.648 21.2644 50.5937C23.342 50.5937 25.4197 50.5937 27.5603 50.5937C27.6515 49.3725 27.6515 49.3725 27.3854 48.8571C22.5953 48.8571 17.8051 48.8571 12.8699 48.8571Z" fill="black"/>
<path d="M12.3452 34C12.5272 35.7108 12.576 37.4169 12.6185 39.1373C12.6317 39.651 12.6449 40.1646 12.6582 40.6783C12.6617 40.8156 12.6652 40.953 12.6689 41.0945C12.6776 41.4309 12.6863 41.7674 12.695 42.1039C12.7975 42.1014 12.9001 42.099 13.0057 42.0964C20.6521 41.9148 28.2942 41.8953 35.942 41.9283C37.5664 41.9353 39.1908 41.9409 40.8152 41.9464C43.7094 41.9563 46.6035 41.9672 49.4977 41.9788C52.3003 41.9901 55.1029 42.0008 57.9055 42.0109C58.0798 42.0115 58.2541 42.0121 58.4337 42.0128C59.3085 42.0159 60.1833 42.019 61.058 42.0222C68.2552 42.0479 75.4523 42.0754 82.6494 42.1039C82.6494 39.8117 82.6494 37.5194 82.6494 35.1577C84.3263 35.0421 85.9606 34.9366 87.6336 34.9527C87.8128 34.9536 87.9921 34.9544 88.1767 34.9553C88.6078 34.9576 89.0388 34.9607 89.4699 34.9647C89.6532 35.9939 89.6986 37.01 89.7384 38.055C89.7459 38.2421 89.7534 38.4292 89.7612 38.622C89.7769 39.0184 89.7923 39.4147 89.8074 39.8111C89.8302 40.4056 89.8544 41 89.8788 41.5944C89.9699 43.8883 90.0167 46.1752 89.9946 48.4712C88.4144 48.6278 86.8596 48.6819 85.2727 48.6642C85.2727 49.683 85.2727 50.7017 85.2727 51.7514C83.195 51.7514 81.1174 51.7514 78.9768 51.7514C78.9788 52.4137 78.9808 53.0761 78.9829 53.7585C78.9843 54.4042 78.9853 55.0498 78.9864 55.6954C78.9872 56.1421 78.9884 56.5888 78.99 57.0355C78.9921 57.6797 78.9931 58.324 78.9938 58.9682C78.9947 59.166 78.9956 59.3639 78.9966 59.5677C78.9966 59.8514 78.9966 59.8514 78.9966 60.1409C78.997 60.305 78.9974 60.4691 78.9978 60.6382C78.9692 61.409 78.8791 62.1757 78.8019 62.9425C80.9372 62.9425 83.0726 62.9425 85.2727 62.9425C85.3304 64.216 85.3881 65.4894 85.4475 66.8015C79.9665 66.9696 74.4913 67.0171 69.0083 66.9944C69.0083 65.721 69.0083 64.4475 69.0083 63.1354C71.0859 63.0718 73.1636 63.0081 75.3042 62.9425C75.3021 62.4095 75.3001 61.8765 75.298 61.3273C75.2966 60.7991 75.2956 60.2709 75.2945 59.7428C75.2937 59.3815 75.2925 59.0202 75.291 58.6589C75.2888 58.1334 75.2878 57.6079 75.2871 57.0824C75.2862 56.9263 75.2853 56.7702 75.2843 56.6093C75.2842 54.979 75.3917 53.3896 75.479 51.7514C73.1705 51.7514 70.8621 51.7514 68.4836 51.7514C68.4836 50.7326 68.4836 49.7138 68.4836 48.6642C65.0786 48.6642 61.6735 48.6642 58.1653 48.6642C58.1653 49.683 58.1653 50.7017 58.1653 51.7514C56.0877 51.7514 54.01 51.7514 51.8694 51.7514C51.8715 52.4461 51.8735 53.1408 51.8756 53.8565C51.8769 54.5315 51.878 55.2065 51.879 55.8815C51.8799 56.3496 51.8811 56.8176 51.8826 57.2857C51.8848 57.9596 51.8857 58.6334 51.8865 59.3073C51.8874 59.5156 51.8883 59.7239 51.8892 59.9385C51.8893 60.2339 51.8893 60.2339 51.8893 60.5352C51.8897 60.707 51.8901 60.8788 51.8905 61.0558C51.8657 61.6882 51.7757 62.3159 51.6945 62.9425C53.8299 62.9425 55.9653 62.9425 58.1653 62.9425C58.223 64.216 58.2808 65.4894 58.3402 66.8015C52.8592 66.9696 47.384 67.0171 41.9009 66.9944C41.9009 65.721 41.9009 64.4475 41.9009 63.1354C43.9786 63.0718 46.0562 63.0081 48.1968 62.9425C48.1948 62.4256 48.1928 61.9088 48.1907 61.3763C48.1893 60.8628 48.1883 60.3493 48.1872 59.8358C48.1864 59.4852 48.1852 59.1346 48.1836 58.784C48.1815 58.2733 48.1805 57.7627 48.1798 57.252C48.1788 57.1011 48.1779 56.9502 48.177 56.7947C48.1769 55.1042 48.2862 53.449 48.3717 51.7514C46.0632 51.7514 43.7547 51.7514 41.3763 51.7514C41.3763 50.7326 41.3763 49.7138 41.3763 48.6642C37.1056 48.6642 32.8348 48.6642 28.4347 48.6642C28.4924 49.683 28.5501 50.7017 28.6096 51.7514C26.532 51.7514 24.4543 51.7514 22.3137 51.7514C22.3173 52.5951 22.3209 53.4387 22.3246 54.308C22.3306 57.1917 22.2465 60.0607 22.1388 62.9425C24.2165 62.9425 26.2941 62.9425 28.4347 62.9425C28.6178 63.7504 28.6291 64.482 28.6205 65.3061C28.6197 65.4499 28.619 65.5937 28.6181 65.7418C28.6161 66.095 28.613 66.4483 28.6096 66.8015C23.1871 66.9756 17.7699 67.0168 12.3452 66.9944C12.3452 65.721 12.3452 64.4475 12.3452 63.1354C14.4229 63.0718 16.5005 63.0081 18.6411 62.9425C18.6411 59.2494 18.6411 55.5564 18.6411 51.7514C16.3903 51.7514 14.1395 51.7514 11.8206 51.7514C11.8206 50.7963 11.8206 49.8412 11.8206 48.8571C9.74291 48.8571 7.66526 48.8571 5.52466 48.8571C5.35152 44.0816 5.17838 39.3061 5 34.3859C6.08211 34.3222 7.16421 34.2586 8.27911 34.1929C8.61969 34.1728 8.96028 34.1527 9.31118 34.1319C9.58199 34.1161 9.8528 34.1002 10.1236 34.0844C10.3335 34.0719 10.3335 34.0719 10.5476 34.0592C11.1481 34.0243 11.7437 34 12.3452 34ZM6.2242 35.5436C6.33925 40.4342 6.33925 40.4342 6.48653 45.3237C6.49272 45.525 6.4989 45.7262 6.50527 45.9335C6.51171 46.115 6.51815 46.2966 6.52479 46.4837C6.53008 46.6406 6.53538 46.7974 6.54084 46.9591C6.54014 47.3168 6.54014 47.3168 6.74886 47.5065C7.01068 47.5254 7.27331 47.5307 7.53569 47.5308C7.79253 47.5315 7.79253 47.5315 8.05456 47.5323C8.24511 47.5319 8.43566 47.5314 8.63198 47.531C8.93337 47.5314 8.93337 47.5314 9.24085 47.5319C9.80222 47.5326 10.3636 47.5323 10.925 47.5317C11.5314 47.5313 12.1378 47.5319 12.7443 47.5325C13.941 47.5333 15.1377 47.5331 16.3344 47.5326C17.3183 47.5322 18.3022 47.5321 19.2862 47.5324C19.4973 47.5325 19.4973 47.5325 19.7128 47.5325C19.9993 47.5326 20.2858 47.5327 20.5723 47.5328C23.4465 47.5336 26.3207 47.5329 29.1949 47.5317C31.2271 47.5309 33.2594 47.5304 35.2916 47.5301C49.6094 47.5286 63.927 47.5228 78.2444 47.41C78.3897 47.4089 78.535 47.4077 78.6847 47.4066C82.1049 47.3795 85.5251 47.3492 88.9453 47.3135C88.8994 46.0298 88.8527 44.7462 88.8054 43.4626C88.7895 43.0265 88.7737 42.5905 88.7581 42.1545C88.7356 41.5251 88.7124 40.8957 88.6891 40.2664C88.679 39.9774 88.679 39.9774 88.6686 39.6826C88.6616 39.4974 88.6546 39.3121 88.6474 39.1212C88.6387 38.8808 88.6387 38.8808 88.6298 38.6356C88.5804 37.7961 88.4965 36.9595 88.4206 36.1224C86.0833 36.218 86.0833 36.218 83.6987 36.3154C83.6987 38.544 83.6987 40.7725 83.6987 43.0686C59.8635 43.0686 36.0283 43.0686 11.4708 43.0686C11.4708 41.5405 11.4708 40.0123 11.4708 38.4378C11.3971 36.8926 11.3971 36.8926 11.2959 35.3506C9.60033 35.3136 7.91558 35.4286 6.2242 35.5436ZM42.4256 48.6642C42.4256 49.3009 42.4256 49.9377 42.4256 50.5937C44.7341 50.5937 47.0426 50.5937 49.421 50.5937C49.3633 51.2941 49.3056 51.9945 49.2461 52.7161C49.233 53.1446 49.2255 53.5734 49.2263 54.0021C49.2263 54.2299 49.2263 54.4576 49.2263 54.6923C49.2272 54.9303 49.2281 55.1684 49.2291 55.4137C49.2293 55.6634 49.2296 55.913 49.2298 56.1703C49.2305 56.8266 49.2322 57.4828 49.2341 58.1391C49.2359 58.8118 49.2367 59.4845 49.2376 60.1572C49.2395 61.4715 49.2424 62.7858 49.2461 64.1002C49.0394 64.0991 48.8327 64.098 48.6198 64.0968C47.1863 64.0914 45.7584 64.0903 44.3275 64.1967C44.1236 64.2105 44.1236 64.2105 43.9155 64.2246C43.5937 64.2465 43.272 64.2696 42.9503 64.2931C42.9503 64.8025 42.9503 65.3119 42.9503 65.8367C44.3294 65.8413 45.7086 65.8447 47.0877 65.8467C47.7285 65.8477 48.3693 65.8491 49.0101 65.8513C51.7746 65.8606 54.5317 65.863 57.2909 65.6438C57.2043 64.8797 57.2043 64.8797 57.116 64.1002C55.0384 64.1002 52.9607 64.1002 50.8201 64.1002C50.8778 59.643 50.9355 55.1859 50.995 50.5937C53.0149 50.5937 55.0349 50.5937 57.116 50.5937C57.116 50.0206 57.116 49.4476 57.116 48.8571C49.7714 48.685 49.7714 48.685 42.4256 48.6642ZM69.5329 48.6642C69.5329 49.3009 69.5329 49.9377 69.5329 50.5937C71.8414 50.5937 74.1499 50.5937 76.5284 50.5937C76.4706 51.2304 76.4129 51.8672 76.3535 52.5232C76.3401 52.9503 76.3328 53.3777 76.3336 53.805C76.3336 54.0366 76.3336 54.2682 76.3336 54.5069C76.3346 54.7502 76.3355 54.9934 76.3364 55.2441C76.3368 55.6254 76.3368 55.6254 76.3371 56.0145C76.3378 56.6838 76.3395 57.3531 76.3415 58.0223C76.3433 58.7079 76.344 59.3935 76.3449 60.0791C76.3468 61.4195 76.3498 62.7598 76.3535 64.1002C76.1468 64.0991 75.9401 64.098 75.7271 64.0968C74.2936 64.0914 72.8658 64.0903 71.4348 64.1967C71.2309 64.2105 71.2309 64.2105 71.0229 64.2246C70.701 64.2465 70.3793 64.2696 70.0576 64.2931C70.0576 64.8025 70.0576 65.3119 70.0576 65.8367C71.4367 65.8413 72.8159 65.8447 74.195 65.8467C74.8358 65.8477 75.4766 65.8491 76.1174 65.8513C78.8819 65.8606 81.639 65.863 84.3982 65.6438C84.3117 64.8797 84.3117 64.8797 84.2233 64.1002C82.088 64.1002 79.9526 64.1002 77.7526 64.1002C77.8103 63.9728 77.868 63.8455 77.9274 63.7143C77.9486 63.2987 77.9585 62.8823 77.9633 62.4661C77.9651 62.338 77.9668 62.21 77.9686 62.0781C77.9741 61.6542 77.9785 61.2304 77.9828 60.8065C77.9864 60.5129 77.99 60.2192 77.9938 59.9256C78.0034 59.1523 78.0121 58.3789 78.0205 57.6056C78.0308 56.678 78.0424 55.7504 78.0538 54.8228C78.0709 53.4131 78.0865 52.0034 78.1023 50.5937C80.1223 50.5937 82.1422 50.5937 84.2233 50.5937C84.2233 50.0206 84.2233 49.4476 84.2233 48.8571C76.8787 48.685 76.8787 48.685 69.5329 48.6642ZM12.8699 48.8571C12.8699 49.4302 12.8699 50.0033 12.8699 50.5937C15.1207 50.5937 17.3714 50.5937 19.6904 50.5937C19.6327 55.0508 19.575 59.508 19.5155 64.1002C18.4767 64.1002 17.4379 64.1002 16.3676 64.1002C15.7751 64.1253 15.1877 64.1527 14.5969 64.1967C14.393 64.2105 14.393 64.2105 14.1849 64.2246C13.8631 64.2465 13.5414 64.2696 13.2196 64.2931C13.2196 64.8025 13.2196 65.3119 13.2196 65.8367C14.6246 65.8413 16.0296 65.8447 17.4346 65.8467C18.0873 65.8477 18.7401 65.8491 19.3928 65.8513C23.4796 65.8692 23.4796 65.8692 27.5603 65.6438C27.5603 65.1344 27.5603 64.625 27.5603 64.1002C25.4249 64.1002 23.2896 64.1002 21.0895 64.1002C21.1181 63.5343 21.1468 62.9685 21.1763 62.3855C21.2881 59.9461 21.284 57.5095 21.2753 55.0677C21.2744 54.6307 21.2736 54.1937 21.2729 53.7566C21.2712 52.7023 21.2678 51.648 21.2644 50.5937C23.342 50.5937 25.4197 50.5937 27.5603 50.5937C27.6515 49.3725 27.6515 49.3725 27.3854 48.8571C22.5953 48.8571 17.8051 48.8571 12.8699 48.8571Z" stroke="black" stroke-width="0.76" mask="url(#path-2-outside-1_2003_662)"/>
</g>
<defs>
<radialGradient id="paint0_radial_2003_662" cx="0" cy="0" r="1" gradientUnits="userSpaceOnUse" gradientTransform="translate(47.5 47.5) rotate(90) scale(47.5 47.5)">
<stop offset="0.4" stop-color="white"/>
<stop offset="1" stop-color="white" stop-opacity="0.5"/>
</radialGradient>
<clipPath id="clip0_2003_662">
<rect width="95" height="95" fill="white"/>
</clipPath>
</defs>
</svg>
