<svg width="95" height="95" viewBox="0 0 95 95" fill="none" xmlns="http://www.w3.org/2000/svg">
<g clip-path="url(#clip0_1966_80)">
<circle cx="47.5" cy="47.5" r="47.5" fill="url(#paint0_radial_1966_80)"/>
<mask id="path-2-outside-1_1966_80" maskUnits="userSpaceOnUse" x="4" y="30" width="87" height="35" fill="black">
<rect fill="white" x="4" y="30" width="87" height="35"/>
<path d="M12.3452 31C12.5272 32.7108 12.576 34.4169 12.6185 36.1373C12.6317 36.651 12.6449 37.1646 12.6582 37.6783C12.6617 37.8156 12.6652 37.953 12.6689 38.0945C12.6776 38.4309 12.6863 38.7674 12.695 39.1039C12.7975 39.1014 12.9001 39.099 13.0057 39.0964C20.6521 38.9148 28.2942 38.8953 35.942 38.9283C37.5664 38.9353 39.1908 38.9409 40.8152 38.9464C43.7094 38.9563 46.6035 38.9672 49.4977 38.9788C52.3003 38.9901 55.1029 39.0008 57.9055 39.0109C58.0798 39.0115 58.2541 39.0121 58.4337 39.0128C59.3085 39.0159 60.1833 39.019 61.058 39.0222C68.2552 39.0479 75.4523 39.0754 82.6494 39.1039C82.6494 36.8117 82.6494 34.5194 82.6494 32.1577C84.3263 32.0421 85.9606 31.9366 87.6336 31.9527C87.8128 31.9536 87.9921 31.9544 88.1767 31.9553C88.6078 31.9576 89.0388 31.9607 89.4699 31.9647C89.6532 32.9939 89.6986 34.01 89.7384 35.055C89.7459 35.2421 89.7534 35.4292 89.7612 35.622C89.7769 36.0184 89.7923 36.4147 89.8074 36.8111C89.8302 37.4056 89.8544 38 89.8788 38.5944C89.9699 40.8883 90.0167 43.1752 89.9946 45.4712C88.4144 45.6278 86.8596 45.6819 85.2727 45.6642C85.2727 46.683 85.2727 47.7017 85.2727 48.7514C83.195 48.7514 81.1174 48.7514 78.9768 48.7514C78.9788 49.4137 78.9808 50.0761 78.9829 50.7585C78.9843 51.4042 78.9853 52.0498 78.9864 52.6954C78.9872 53.1421 78.9884 53.5888 78.9899 54.0355C78.9921 54.6797 78.9931 55.324 78.9938 55.9682C78.9947 56.166 78.9956 56.3639 78.9966 56.5677C78.9966 56.8514 78.9966 56.8514 78.9966 57.1409C78.997 57.305 78.9974 57.4691 78.9978 57.6382C78.9692 58.409 78.8791 59.1757 78.8019 59.9425C80.9372 59.9425 83.0726 59.9425 85.2727 59.9425C85.3304 61.216 85.3881 62.4894 85.4475 63.8015C79.9665 63.9696 74.4913 64.0171 69.0083 63.9944C69.0083 62.721 69.0083 61.4475 69.0083 60.1354C71.0859 60.0718 73.1635 60.0081 75.3042 59.9425C75.3021 59.4095 75.3001 58.8765 75.298 58.3273C75.2966 57.7991 75.2956 57.2709 75.2945 56.7428C75.2937 56.3815 75.2925 56.0202 75.291 55.6589C75.2888 55.1334 75.2878 54.6079 75.2871 54.0824C75.2862 53.9263 75.2853 53.7702 75.2843 53.6093C75.2842 51.979 75.3917 50.3896 75.479 48.7514C73.1705 48.7514 70.8621 48.7514 68.4836 48.7514C68.4836 47.7326 68.4836 46.7138 68.4836 45.6642C65.0786 45.6642 61.6735 45.6642 58.1653 45.6642C58.1653 46.683 58.1653 47.7017 58.1653 48.7514C56.0877 48.7514 54.01 48.7514 51.8694 48.7514C51.8715 49.4461 51.8735 50.1408 51.8756 50.8565C51.8769 51.5315 51.878 52.2065 51.879 52.8815C51.8799 53.3495 51.8811 53.8176 51.8826 54.2857C51.8848 54.9596 51.8857 55.6334 51.8865 56.3073C51.8874 56.5156 51.8883 56.7239 51.8892 56.9385C51.8893 57.2339 51.8893 57.2339 51.8893 57.5352C51.8897 57.707 51.8901 57.8788 51.8905 58.0558C51.8656 58.6882 51.7757 59.3159 51.6945 59.9425C53.8299 59.9425 55.9653 59.9425 58.1653 59.9425C58.223 61.216 58.2808 62.4894 58.3402 63.8015C52.8592 63.9696 47.384 64.0171 41.9009 63.9944C41.9009 62.721 41.9009 61.4475 41.9009 60.1354C43.9786 60.0718 46.0562 60.0081 48.1968 59.9425C48.1948 59.4256 48.1928 58.9088 48.1907 58.3763C48.1893 57.8628 48.1883 57.3493 48.1872 56.8358C48.1864 56.4852 48.1852 56.1346 48.1836 55.784C48.1815 55.2733 48.1805 54.7627 48.1798 54.252C48.1788 54.1011 48.1779 53.9502 48.177 53.7947C48.1769 52.1042 48.2862 50.449 48.3717 48.7514C46.0632 48.7514 43.7547 48.7514 41.3763 48.7514C41.3763 47.7326 41.3763 46.7138 41.3763 45.6642C37.1056 45.6642 32.8348 45.6642 28.4347 45.6642C28.4924 46.683 28.5501 47.7017 28.6096 48.7514C26.532 48.7514 24.4543 48.7514 22.3137 48.7514C22.3173 49.5951 22.3209 50.4387 22.3246 51.308C22.3306 54.1917 22.2465 57.0607 22.1388 59.9425C24.2165 59.9425 26.2941 59.9425 28.4347 59.9425C28.6178 60.7504 28.6291 61.482 28.6205 62.3061C28.6197 62.4499 28.619 62.5937 28.6181 62.7418C28.6161 63.095 28.613 63.4483 28.6096 63.8015C23.1871 63.9756 17.7699 64.0168 12.3452 63.9944C12.3452 62.721 12.3452 61.4475 12.3452 60.1354C14.4229 60.0718 16.5005 60.0081 18.6411 59.9425C18.6411 56.2494 18.6411 52.5564 18.6411 48.7514C16.3903 48.7514 14.1395 48.7514 11.8206 48.7514C11.8206 47.7963 11.8206 46.8412 11.8206 45.8571C9.74291 45.8571 7.66526 45.8571 5.52466 45.8571C5.35152 41.0816 5.17838 36.3061 5 31.3859C6.08211 31.3222 7.16421 31.2586 8.27911 31.1929C8.61969 31.1728 8.96028 31.1527 9.31118 31.1319C9.58199 31.1161 9.8528 31.1002 10.1236 31.0844C10.3335 31.0719 10.3335 31.0719 10.5476 31.0592C11.1481 31.0243 11.7437 31 12.3452 31ZM6.2242 32.5436C6.33925 37.4342 6.33925 37.4342 6.48653 42.3237C6.49272 42.525 6.4989 42.7262 6.50527 42.9335C6.51171 43.115 6.51815 43.2966 6.52479 43.4837C6.53008 43.6406 6.53538 43.7974 6.54084 43.9591C6.54014 44.3168 6.54014 44.3168 6.74886 44.5065C7.01068 44.5254 7.27331 44.5307 7.53569 44.5308C7.79253 44.5315 7.79253 44.5315 8.05456 44.5323C8.24511 44.5319 8.43566 44.5314 8.63198 44.531C8.93337 44.5314 8.93337 44.5314 9.24085 44.5319C9.80222 44.5326 10.3636 44.5323 10.925 44.5317C11.5314 44.5313 12.1378 44.5319 12.7443 44.5325C13.941 44.5333 15.1377 44.5331 16.3344 44.5326C17.3183 44.5322 18.3022 44.5321 19.2862 44.5324C19.4973 44.5325 19.4973 44.5325 19.7128 44.5325C19.9993 44.5326 20.2858 44.5327 20.5723 44.5328C23.4465 44.5336 26.3207 44.5329 29.1949 44.5317C31.2271 44.5309 33.2594 44.5304 35.2916 44.5301C49.6094 44.5286 63.927 44.5228 78.2444 44.41C78.3897 44.4089 78.535 44.4077 78.6847 44.4066C82.1049 44.3795 85.5251 44.3492 88.9453 44.3135C88.8994 43.0298 88.8527 41.7462 88.8054 40.4626C88.7895 40.0265 88.7737 39.5905 88.7581 39.1545C88.7356 38.5251 88.7124 37.8957 88.6891 37.2664C88.679 36.9774 88.679 36.9774 88.6686 36.6826C88.6616 36.4974 88.6546 36.3121 88.6474 36.1212C88.6387 35.8808 88.6387 35.8808 88.6298 35.6356C88.5804 34.7961 88.4965 33.9595 88.4206 33.1224C86.0832 33.218 86.0832 33.218 83.6987 33.3154C83.6987 35.544 83.6987 37.7725 83.6987 40.0686C59.8635 40.0686 36.0283 40.0686 11.4708 40.0686C11.4708 38.5405 11.4708 37.0123 11.4708 35.4378C11.3971 33.8926 11.3971 33.8926 11.2959 32.3506C9.60033 32.3136 7.91558 32.4286 6.2242 32.5436ZM42.4256 45.6642C42.4256 46.3009 42.4256 46.9377 42.4256 47.5937C44.7341 47.5937 47.0426 47.5937 49.421 47.5937C49.3633 48.2941 49.3056 48.9945 49.2461 49.7161C49.233 50.1446 49.2255 50.5734 49.2263 51.0021C49.2263 51.2299 49.2263 51.4576 49.2263 51.6923C49.2272 51.9303 49.2281 52.1684 49.2291 52.4137C49.2293 52.6634 49.2296 52.913 49.2298 53.1703C49.2305 53.8266 49.2322 54.4828 49.2341 55.1391C49.2359 55.8118 49.2367 56.4845 49.2376 57.1572C49.2395 58.4715 49.2424 59.7858 49.2461 61.1002C49.0394 61.0991 48.8327 61.098 48.6198 61.0968C47.1863 61.0914 45.7584 61.0903 44.3275 61.1967C44.1236 61.2105 44.1236 61.2105 43.9155 61.2246C43.5937 61.2465 43.272 61.2696 42.9503 61.2931C42.9503 61.8025 42.9503 62.3119 42.9503 62.8367C44.3294 62.8413 45.7086 62.8447 47.0877 62.8467C47.7285 62.8477 48.3693 62.8491 49.0101 62.8513C51.7746 62.8606 54.5317 62.863 57.2909 62.6438C57.2043 61.8797 57.2043 61.8797 57.116 61.1002C55.0384 61.1002 52.9607 61.1002 50.8201 61.1002C50.8778 56.643 50.9355 52.1859 50.995 47.5937C53.0149 47.5937 55.0349 47.5937 57.116 47.5937C57.116 47.0206 57.116 46.4476 57.116 45.8571C49.7714 45.685 49.7714 45.685 42.4256 45.6642ZM69.5329 45.6642C69.5329 46.3009 69.5329 46.9377 69.5329 47.5937C71.8414 47.5937 74.1499 47.5937 76.5284 47.5937C76.4706 48.2304 76.4129 48.8672 76.3535 49.5232C76.3401 49.9503 76.3328 50.3777 76.3336 50.805C76.3336 51.0366 76.3336 51.2682 76.3337 51.5069C76.3346 51.7502 76.3355 51.9934 76.3364 52.2441C76.3368 52.6254 76.3368 52.6254 76.3371 53.0145C76.3378 53.6838 76.3395 54.3531 76.3415 55.0223C76.3433 55.7079 76.3441 56.3935 76.3449 57.0791C76.3468 58.4195 76.3498 59.7598 76.3535 61.1002C76.1468 61.0991 75.9401 61.098 75.7271 61.0968C74.2936 61.0914 72.8658 61.0903 71.4348 61.1967C71.2309 61.2105 71.2309 61.2105 71.0229 61.2246C70.701 61.2465 70.3793 61.2696 70.0576 61.2931C70.0576 61.8025 70.0576 62.3119 70.0576 62.8367C71.4367 62.8413 72.8159 62.8447 74.195 62.8467C74.8358 62.8477 75.4766 62.8491 76.1174 62.8513C78.8819 62.8606 81.639 62.863 84.3982 62.6438C84.3117 61.8797 84.3117 61.8797 84.2233 61.1002C82.088 61.1002 79.9526 61.1002 77.7526 61.1002C77.8103 60.9728 77.868 60.8455 77.9274 60.7143C77.9486 60.2987 77.9585 59.8823 77.9633 59.4661C77.9651 59.338 77.9668 59.21 77.9686 59.0781C77.9741 58.6542 77.9785 58.2304 77.9828 57.8065C77.9864 57.5129 77.99 57.2192 77.9938 56.9256C78.0034 56.1523 78.0121 55.3789 78.0205 54.6056C78.0308 53.678 78.0424 52.7504 78.0538 51.8228C78.0709 50.4131 78.0865 49.0034 78.1023 47.5937C80.1223 47.5937 82.1422 47.5937 84.2233 47.5937C84.2233 47.0206 84.2233 46.4476 84.2233 45.8571C76.8787 45.685 76.8787 45.685 69.5329 45.6642ZM12.8699 45.8571C12.8699 46.4302 12.8699 47.0033 12.8699 47.5937C15.1207 47.5937 17.3714 47.5937 19.6904 47.5937C19.6327 52.0508 19.575 56.508 19.5155 61.1002C18.4767 61.1002 17.4379 61.1002 16.3676 61.1002C15.7751 61.1253 15.1877 61.1527 14.5969 61.1967C14.393 61.2105 14.393 61.2105 14.1849 61.2246C13.8631 61.2465 13.5414 61.2696 13.2196 61.2931C13.2196 61.8025 13.2196 62.3119 13.2196 62.8367C14.6246 62.8413 16.0296 62.8447 17.4346 62.8467C18.0873 62.8477 18.7401 62.8491 19.3928 62.8513C23.4796 62.8692 23.4796 62.8692 27.5603 62.6438C27.5603 62.1344 27.5603 61.625 27.5603 61.1002C25.4249 61.1002 23.2896 61.1002 21.0895 61.1002C21.1181 60.5343 21.1468 59.9685 21.1763 59.3855C21.2881 56.9461 21.284 54.5095 21.2753 52.0677C21.2744 51.6307 21.2736 51.1937 21.2729 50.7566C21.2712 49.7023 21.2678 48.648 21.2644 47.5937C23.342 47.5937 25.4197 47.5937 27.5603 47.5937C27.6515 46.3725 27.6515 46.3725 27.3854 45.8571C22.5953 45.8571 17.8051 45.8571 12.8699 45.8571Z"/>
</mask>
<path d="M12.3452 31C12.5272 32.7108 12.576 34.4169 12.6185 36.1373C12.6317 36.651 12.6449 37.1646 12.6582 37.6783C12.6617 37.8156 12.6652 37.953 12.6689 38.0945C12.6776 38.4309 12.6863 38.7674 12.695 39.1039C12.7975 39.1014 12.9001 39.099 13.0057 39.0964C20.6521 38.9148 28.2942 38.8953 35.942 38.9283C37.5664 38.9353 39.1908 38.9409 40.8152 38.9464C43.7094 38.9563 46.6035 38.9672 49.4977 38.9788C52.3003 38.9901 55.1029 39.0008 57.9055 39.0109C58.0798 39.0115 58.2541 39.0121 58.4337 39.0128C59.3085 39.0159 60.1833 39.019 61.058 39.0222C68.2552 39.0479 75.4523 39.0754 82.6494 39.1039C82.6494 36.8117 82.6494 34.5194 82.6494 32.1577C84.3263 32.0421 85.9606 31.9366 87.6336 31.9527C87.8128 31.9536 87.9921 31.9544 88.1767 31.9553C88.6078 31.9576 89.0388 31.9607 89.4699 31.9647C89.6532 32.9939 89.6986 34.01 89.7384 35.055C89.7459 35.2421 89.7534 35.4292 89.7612 35.622C89.7769 36.0184 89.7923 36.4147 89.8074 36.8111C89.8302 37.4056 89.8544 38 89.8788 38.5944C89.9699 40.8883 90.0167 43.1752 89.9946 45.4712C88.4144 45.6278 86.8596 45.6819 85.2727 45.6642C85.2727 46.683 85.2727 47.7017 85.2727 48.7514C83.195 48.7514 81.1174 48.7514 78.9768 48.7514C78.9788 49.4137 78.9808 50.0761 78.9829 50.7585C78.9843 51.4042 78.9853 52.0498 78.9864 52.6954C78.9872 53.1421 78.9884 53.5888 78.9899 54.0355C78.9921 54.6797 78.9931 55.324 78.9938 55.9682C78.9947 56.166 78.9956 56.3639 78.9966 56.5677C78.9966 56.8514 78.9966 56.8514 78.9966 57.1409C78.997 57.305 78.9974 57.4691 78.9978 57.6382C78.9692 58.409 78.8791 59.1757 78.8019 59.9425C80.9372 59.9425 83.0726 59.9425 85.2727 59.9425C85.3304 61.216 85.3881 62.4894 85.4475 63.8015C79.9665 63.9696 74.4913 64.0171 69.0083 63.9944C69.0083 62.721 69.0083 61.4475 69.0083 60.1354C71.0859 60.0718 73.1635 60.0081 75.3042 59.9425C75.3021 59.4095 75.3001 58.8765 75.298 58.3273C75.2966 57.7991 75.2956 57.2709 75.2945 56.7428C75.2937 56.3815 75.2925 56.0202 75.291 55.6589C75.2888 55.1334 75.2878 54.6079 75.2871 54.0824C75.2862 53.9263 75.2853 53.7702 75.2843 53.6093C75.2842 51.979 75.3917 50.3896 75.479 48.7514C73.1705 48.7514 70.8621 48.7514 68.4836 48.7514C68.4836 47.7326 68.4836 46.7138 68.4836 45.6642C65.0786 45.6642 61.6735 45.6642 58.1653 45.6642C58.1653 46.683 58.1653 47.7017 58.1653 48.7514C56.0877 48.7514 54.01 48.7514 51.8694 48.7514C51.8715 49.4461 51.8735 50.1408 51.8756 50.8565C51.8769 51.5315 51.878 52.2065 51.879 52.8815C51.8799 53.3495 51.8811 53.8176 51.8826 54.2857C51.8848 54.9596 51.8857 55.6334 51.8865 56.3073C51.8874 56.5156 51.8883 56.7239 51.8892 56.9385C51.8893 57.2339 51.8893 57.2339 51.8893 57.5352C51.8897 57.707 51.8901 57.8788 51.8905 58.0558C51.8656 58.6882 51.7757 59.3159 51.6945 59.9425C53.8299 59.9425 55.9653 59.9425 58.1653 59.9425C58.223 61.216 58.2808 62.4894 58.3402 63.8015C52.8592 63.9696 47.384 64.0171 41.9009 63.9944C41.9009 62.721 41.9009 61.4475 41.9009 60.1354C43.9786 60.0718 46.0562 60.0081 48.1968 59.9425C48.1948 59.4256 48.1928 58.9088 48.1907 58.3763C48.1893 57.8628 48.1883 57.3493 48.1872 56.8358C48.1864 56.4852 48.1852 56.1346 48.1836 55.784C48.1815 55.2733 48.1805 54.7627 48.1798 54.252C48.1788 54.1011 48.1779 53.9502 48.177 53.7947C48.1769 52.1042 48.2862 50.449 48.3717 48.7514C46.0632 48.7514 43.7547 48.7514 41.3763 48.7514C41.3763 47.7326 41.3763 46.7138 41.3763 45.6642C37.1056 45.6642 32.8348 45.6642 28.4347 45.6642C28.4924 46.683 28.5501 47.7017 28.6096 48.7514C26.532 48.7514 24.4543 48.7514 22.3137 48.7514C22.3173 49.5951 22.3209 50.4387 22.3246 51.308C22.3306 54.1917 22.2465 57.0607 22.1388 59.9425C24.2165 59.9425 26.2941 59.9425 28.4347 59.9425C28.6178 60.7504 28.6291 61.482 28.6205 62.3061C28.6197 62.4499 28.619 62.5937 28.6181 62.7418C28.6161 63.095 28.613 63.4483 28.6096 63.8015C23.1871 63.9756 17.7699 64.0168 12.3452 63.9944C12.3452 62.721 12.3452 61.4475 12.3452 60.1354C14.4229 60.0718 16.5005 60.0081 18.6411 59.9425C18.6411 56.2494 18.6411 52.5564 18.6411 48.7514C16.3903 48.7514 14.1395 48.7514 11.8206 48.7514C11.8206 47.7963 11.8206 46.8412 11.8206 45.8571C9.74291 45.8571 7.66526 45.8571 5.52466 45.8571C5.35152 41.0816 5.17838 36.3061 5 31.3859C6.08211 31.3222 7.16421 31.2586 8.27911 31.1929C8.61969 31.1728 8.96028 31.1527 9.31118 31.1319C9.58199 31.1161 9.8528 31.1002 10.1236 31.0844C10.3335 31.0719 10.3335 31.0719 10.5476 31.0592C11.1481 31.0243 11.7437 31 12.3452 31ZM6.2242 32.5436C6.33925 37.4342 6.33925 37.4342 6.48653 42.3237C6.49272 42.525 6.4989 42.7262 6.50527 42.9335C6.51171 43.115 6.51815 43.2966 6.52479 43.4837C6.53008 43.6406 6.53538 43.7974 6.54084 43.9591C6.54014 44.3168 6.54014 44.3168 6.74886 44.5065C7.01068 44.5254 7.27331 44.5307 7.53569 44.5308C7.79253 44.5315 7.79253 44.5315 8.05456 44.5323C8.24511 44.5319 8.43566 44.5314 8.63198 44.531C8.93337 44.5314 8.93337 44.5314 9.24085 44.5319C9.80222 44.5326 10.3636 44.5323 10.925 44.5317C11.5314 44.5313 12.1378 44.5319 12.7443 44.5325C13.941 44.5333 15.1377 44.5331 16.3344 44.5326C17.3183 44.5322 18.3022 44.5321 19.2862 44.5324C19.4973 44.5325 19.4973 44.5325 19.7128 44.5325C19.9993 44.5326 20.2858 44.5327 20.5723 44.5328C23.4465 44.5336 26.3207 44.5329 29.1949 44.5317C31.2271 44.5309 33.2594 44.5304 35.2916 44.5301C49.6094 44.5286 63.927 44.5228 78.2444 44.41C78.3897 44.4089 78.535 44.4077 78.6847 44.4066C82.1049 44.3795 85.5251 44.3492 88.9453 44.3135C88.8994 43.0298 88.8527 41.7462 88.8054 40.4626C88.7895 40.0265 88.7737 39.5905 88.7581 39.1545C88.7356 38.5251 88.7124 37.8957 88.6891 37.2664C88.679 36.9774 88.679 36.9774 88.6686 36.6826C88.6616 36.4974 88.6546 36.3121 88.6474 36.1212C88.6387 35.8808 88.6387 35.8808 88.6298 35.6356C88.5804 34.7961 88.4965 33.9595 88.4206 33.1224C86.0832 33.218 86.0832 33.218 83.6987 33.3154C83.6987 35.544 83.6987 37.7725 83.6987 40.0686C59.8635 40.0686 36.0283 40.0686 11.4708 40.0686C11.4708 38.5405 11.4708 37.0123 11.4708 35.4378C11.3971 33.8926 11.3971 33.8926 11.2959 32.3506C9.60033 32.3136 7.91558 32.4286 6.2242 32.5436ZM42.4256 45.6642C42.4256 46.3009 42.4256 46.9377 42.4256 47.5937C44.7341 47.5937 47.0426 47.5937 49.421 47.5937C49.3633 48.2941 49.3056 48.9945 49.2461 49.7161C49.233 50.1446 49.2255 50.5734 49.2263 51.0021C49.2263 51.2299 49.2263 51.4576 49.2263 51.6923C49.2272 51.9303 49.2281 52.1684 49.2291 52.4137C49.2293 52.6634 49.2296 52.913 49.2298 53.1703C49.2305 53.8266 49.2322 54.4828 49.2341 55.1391C49.2359 55.8118 49.2367 56.4845 49.2376 57.1572C49.2395 58.4715 49.2424 59.7858 49.2461 61.1002C49.0394 61.0991 48.8327 61.098 48.6198 61.0968C47.1863 61.0914 45.7584 61.0903 44.3275 61.1967C44.1236 61.2105 44.1236 61.2105 43.9155 61.2246C43.5937 61.2465 43.272 61.2696 42.9503 61.2931C42.9503 61.8025 42.9503 62.3119 42.9503 62.8367C44.3294 62.8413 45.7086 62.8447 47.0877 62.8467C47.7285 62.8477 48.3693 62.8491 49.0101 62.8513C51.7746 62.8606 54.5317 62.863 57.2909 62.6438C57.2043 61.8797 57.2043 61.8797 57.116 61.1002C55.0384 61.1002 52.9607 61.1002 50.8201 61.1002C50.8778 56.643 50.9355 52.1859 50.995 47.5937C53.0149 47.5937 55.0349 47.5937 57.116 47.5937C57.116 47.0206 57.116 46.4476 57.116 45.8571C49.7714 45.685 49.7714 45.685 42.4256 45.6642ZM69.5329 45.6642C69.5329 46.3009 69.5329 46.9377 69.5329 47.5937C71.8414 47.5937 74.1499 47.5937 76.5284 47.5937C76.4706 48.2304 76.4129 48.8672 76.3535 49.5232C76.3401 49.9503 76.3328 50.3777 76.3336 50.805C76.3336 51.0366 76.3336 51.2682 76.3337 51.5069C76.3346 51.7502 76.3355 51.9934 76.3364 52.2441C76.3368 52.6254 76.3368 52.6254 76.3371 53.0145C76.3378 53.6838 76.3395 54.3531 76.3415 55.0223C76.3433 55.7079 76.3441 56.3935 76.3449 57.0791C76.3468 58.4195 76.3498 59.7598 76.3535 61.1002C76.1468 61.0991 75.9401 61.098 75.7271 61.0968C74.2936 61.0914 72.8658 61.0903 71.4348 61.1967C71.2309 61.2105 71.2309 61.2105 71.0229 61.2246C70.701 61.2465 70.3793 61.2696 70.0576 61.2931C70.0576 61.8025 70.0576 62.3119 70.0576 62.8367C71.4367 62.8413 72.8159 62.8447 74.195 62.8467C74.8358 62.8477 75.4766 62.8491 76.1174 62.8513C78.8819 62.8606 81.639 62.863 84.3982 62.6438C84.3117 61.8797 84.3117 61.8797 84.2233 61.1002C82.088 61.1002 79.9526 61.1002 77.7526 61.1002C77.8103 60.9728 77.868 60.8455 77.9274 60.7143C77.9486 60.2987 77.9585 59.8823 77.9633 59.4661C77.9651 59.338 77.9668 59.21 77.9686 59.0781C77.9741 58.6542 77.9785 58.2304 77.9828 57.8065C77.9864 57.5129 77.99 57.2192 77.9938 56.9256C78.0034 56.1523 78.0121 55.3789 78.0205 54.6056C78.0308 53.678 78.0424 52.7504 78.0538 51.8228C78.0709 50.4131 78.0865 49.0034 78.1023 47.5937C80.1223 47.5937 82.1422 47.5937 84.2233 47.5937C84.2233 47.0206 84.2233 46.4476 84.2233 45.8571C76.8787 45.685 76.8787 45.685 69.5329 45.6642ZM12.8699 45.8571C12.8699 46.4302 12.8699 47.0033 12.8699 47.5937C15.1207 47.5937 17.3714 47.5937 19.6904 47.5937C19.6327 52.0508 19.575 56.508 19.5155 61.1002C18.4767 61.1002 17.4379 61.1002 16.3676 61.1002C15.7751 61.1253 15.1877 61.1527 14.5969 61.1967C14.393 61.2105 14.393 61.2105 14.1849 61.2246C13.8631 61.2465 13.5414 61.2696 13.2196 61.2931C13.2196 61.8025 13.2196 62.3119 13.2196 62.8367C14.6246 62.8413 16.0296 62.8447 17.4346 62.8467C18.0873 62.8477 18.7401 62.8491 19.3928 62.8513C23.4796 62.8692 23.4796 62.8692 27.5603 62.6438C27.5603 62.1344 27.5603 61.625 27.5603 61.1002C25.4249 61.1002 23.2896 61.1002 21.0895 61.1002C21.1181 60.5343 21.1468 59.9685 21.1763 59.3855C21.2881 56.9461 21.284 54.5095 21.2753 52.0677C21.2744 51.6307 21.2736 51.1937 21.2729 50.7566C21.2712 49.7023 21.2678 48.648 21.2644 47.5937C23.342 47.5937 25.4197 47.5937 27.5603 47.5937C27.6515 46.3725 27.6515 46.3725 27.3854 45.8571C22.5953 45.8571 17.8051 45.8571 12.8699 45.8571Z" fill="black"/>
<path d="M12.3452 31C12.5272 32.7108 12.576 34.4169 12.6185 36.1373C12.6317 36.651 12.6449 37.1646 12.6582 37.6783C12.6617 37.8156 12.6652 37.953 12.6689 38.0945C12.6776 38.4309 12.6863 38.7674 12.695 39.1039C12.7975 39.1014 12.9001 39.099 13.0057 39.0964C20.6521 38.9148 28.2942 38.8953 35.942 38.9283C37.5664 38.9353 39.1908 38.9409 40.8152 38.9464C43.7094 38.9563 46.6035 38.9672 49.4977 38.9788C52.3003 38.9901 55.1029 39.0008 57.9055 39.0109C58.0798 39.0115 58.2541 39.0121 58.4337 39.0128C59.3085 39.0159 60.1833 39.019 61.058 39.0222C68.2552 39.0479 75.4523 39.0754 82.6494 39.1039C82.6494 36.8117 82.6494 34.5194 82.6494 32.1577C84.3263 32.0421 85.9606 31.9366 87.6336 31.9527C87.8128 31.9536 87.9921 31.9544 88.1767 31.9553C88.6078 31.9576 89.0388 31.9607 89.4699 31.9647C89.6532 32.9939 89.6986 34.01 89.7384 35.055C89.7459 35.2421 89.7534 35.4292 89.7612 35.622C89.7769 36.0184 89.7923 36.4147 89.8074 36.8111C89.8302 37.4056 89.8544 38 89.8788 38.5944C89.9699 40.8883 90.0167 43.1752 89.9946 45.4712C88.4144 45.6278 86.8596 45.6819 85.2727 45.6642C85.2727 46.683 85.2727 47.7017 85.2727 48.7514C83.195 48.7514 81.1174 48.7514 78.9768 48.7514C78.9788 49.4137 78.9808 50.0761 78.9829 50.7585C78.9843 51.4042 78.9853 52.0498 78.9864 52.6954C78.9872 53.1421 78.9884 53.5888 78.9899 54.0355C78.9921 54.6797 78.9931 55.324 78.9938 55.9682C78.9947 56.166 78.9956 56.3639 78.9966 56.5677C78.9966 56.8514 78.9966 56.8514 78.9966 57.1409C78.997 57.305 78.9974 57.4691 78.9978 57.6382C78.9692 58.409 78.8791 59.1757 78.8019 59.9425C80.9372 59.9425 83.0726 59.9425 85.2727 59.9425C85.3304 61.216 85.3881 62.4894 85.4475 63.8015C79.9665 63.9696 74.4913 64.0171 69.0083 63.9944C69.0083 62.721 69.0083 61.4475 69.0083 60.1354C71.0859 60.0718 73.1635 60.0081 75.3042 59.9425C75.3021 59.4095 75.3001 58.8765 75.298 58.3273C75.2966 57.7991 75.2956 57.2709 75.2945 56.7428C75.2937 56.3815 75.2925 56.0202 75.291 55.6589C75.2888 55.1334 75.2878 54.6079 75.2871 54.0824C75.2862 53.9263 75.2853 53.7702 75.2843 53.6093C75.2842 51.979 75.3917 50.3896 75.479 48.7514C73.1705 48.7514 70.8621 48.7514 68.4836 48.7514C68.4836 47.7326 68.4836 46.7138 68.4836 45.6642C65.0786 45.6642 61.6735 45.6642 58.1653 45.6642C58.1653 46.683 58.1653 47.7017 58.1653 48.7514C56.0877 48.7514 54.01 48.7514 51.8694 48.7514C51.8715 49.4461 51.8735 50.1408 51.8756 50.8565C51.8769 51.5315 51.878 52.2065 51.879 52.8815C51.8799 53.3495 51.8811 53.8176 51.8826 54.2857C51.8848 54.9596 51.8857 55.6334 51.8865 56.3073C51.8874 56.5156 51.8883 56.7239 51.8892 56.9385C51.8893 57.2339 51.8893 57.2339 51.8893 57.5352C51.8897 57.707 51.8901 57.8788 51.8905 58.0558C51.8656 58.6882 51.7757 59.3159 51.6945 59.9425C53.8299 59.9425 55.9653 59.9425 58.1653 59.9425C58.223 61.216 58.2808 62.4894 58.3402 63.8015C52.8592 63.9696 47.384 64.0171 41.9009 63.9944C41.9009 62.721 41.9009 61.4475 41.9009 60.1354C43.9786 60.0718 46.0562 60.0081 48.1968 59.9425C48.1948 59.4256 48.1928 58.9088 48.1907 58.3763C48.1893 57.8628 48.1883 57.3493 48.1872 56.8358C48.1864 56.4852 48.1852 56.1346 48.1836 55.784C48.1815 55.2733 48.1805 54.7627 48.1798 54.252C48.1788 54.1011 48.1779 53.9502 48.177 53.7947C48.1769 52.1042 48.2862 50.449 48.3717 48.7514C46.0632 48.7514 43.7547 48.7514 41.3763 48.7514C41.3763 47.7326 41.3763 46.7138 41.3763 45.6642C37.1056 45.6642 32.8348 45.6642 28.4347 45.6642C28.4924 46.683 28.5501 47.7017 28.6096 48.7514C26.532 48.7514 24.4543 48.7514 22.3137 48.7514C22.3173 49.5951 22.3209 50.4387 22.3246 51.308C22.3306 54.1917 22.2465 57.0607 22.1388 59.9425C24.2165 59.9425 26.2941 59.9425 28.4347 59.9425C28.6178 60.7504 28.6291 61.482 28.6205 62.3061C28.6197 62.4499 28.619 62.5937 28.6181 62.7418C28.6161 63.095 28.613 63.4483 28.6096 63.8015C23.1871 63.9756 17.7699 64.0168 12.3452 63.9944C12.3452 62.721 12.3452 61.4475 12.3452 60.1354C14.4229 60.0718 16.5005 60.0081 18.6411 59.9425C18.6411 56.2494 18.6411 52.5564 18.6411 48.7514C16.3903 48.7514 14.1395 48.7514 11.8206 48.7514C11.8206 47.7963 11.8206 46.8412 11.8206 45.8571C9.74291 45.8571 7.66526 45.8571 5.52466 45.8571C5.35152 41.0816 5.17838 36.3061 5 31.3859C6.08211 31.3222 7.16421 31.2586 8.27911 31.1929C8.61969 31.1728 8.96028 31.1527 9.31118 31.1319C9.58199 31.1161 9.8528 31.1002 10.1236 31.0844C10.3335 31.0719 10.3335 31.0719 10.5476 31.0592C11.1481 31.0243 11.7437 31 12.3452 31ZM6.2242 32.5436C6.33925 37.4342 6.33925 37.4342 6.48653 42.3237C6.49272 42.525 6.4989 42.7262 6.50527 42.9335C6.51171 43.115 6.51815 43.2966 6.52479 43.4837C6.53008 43.6406 6.53538 43.7974 6.54084 43.9591C6.54014 44.3168 6.54014 44.3168 6.74886 44.5065C7.01068 44.5254 7.27331 44.5307 7.53569 44.5308C7.79253 44.5315 7.79253 44.5315 8.05456 44.5323C8.24511 44.5319 8.43566 44.5314 8.63198 44.531C8.93337 44.5314 8.93337 44.5314 9.24085 44.5319C9.80222 44.5326 10.3636 44.5323 10.925 44.5317C11.5314 44.5313 12.1378 44.5319 12.7443 44.5325C13.941 44.5333 15.1377 44.5331 16.3344 44.5326C17.3183 44.5322 18.3022 44.5321 19.2862 44.5324C19.4973 44.5325 19.4973 44.5325 19.7128 44.5325C19.9993 44.5326 20.2858 44.5327 20.5723 44.5328C23.4465 44.5336 26.3207 44.5329 29.1949 44.5317C31.2271 44.5309 33.2594 44.5304 35.2916 44.5301C49.6094 44.5286 63.927 44.5228 78.2444 44.41C78.3897 44.4089 78.535 44.4077 78.6847 44.4066C82.1049 44.3795 85.5251 44.3492 88.9453 44.3135C88.8994 43.0298 88.8527 41.7462 88.8054 40.4626C88.7895 40.0265 88.7737 39.5905 88.7581 39.1545C88.7356 38.5251 88.7124 37.8957 88.6891 37.2664C88.679 36.9774 88.679 36.9774 88.6686 36.6826C88.6616 36.4974 88.6546 36.3121 88.6474 36.1212C88.6387 35.8808 88.6387 35.8808 88.6298 35.6356C88.5804 34.7961 88.4965 33.9595 88.4206 33.1224C86.0832 33.218 86.0832 33.218 83.6987 33.3154C83.6987 35.544 83.6987 37.7725 83.6987 40.0686C59.8635 40.0686 36.0283 40.0686 11.4708 40.0686C11.4708 38.5405 11.4708 37.0123 11.4708 35.4378C11.3971 33.8926 11.3971 33.8926 11.2959 32.3506C9.60033 32.3136 7.91558 32.4286 6.2242 32.5436ZM42.4256 45.6642C42.4256 46.3009 42.4256 46.9377 42.4256 47.5937C44.7341 47.5937 47.0426 47.5937 49.421 47.5937C49.3633 48.2941 49.3056 48.9945 49.2461 49.7161C49.233 50.1446 49.2255 50.5734 49.2263 51.0021C49.2263 51.2299 49.2263 51.4576 49.2263 51.6923C49.2272 51.9303 49.2281 52.1684 49.2291 52.4137C49.2293 52.6634 49.2296 52.913 49.2298 53.1703C49.2305 53.8266 49.2322 54.4828 49.2341 55.1391C49.2359 55.8118 49.2367 56.4845 49.2376 57.1572C49.2395 58.4715 49.2424 59.7858 49.2461 61.1002C49.0394 61.0991 48.8327 61.098 48.6198 61.0968C47.1863 61.0914 45.7584 61.0903 44.3275 61.1967C44.1236 61.2105 44.1236 61.2105 43.9155 61.2246C43.5937 61.2465 43.272 61.2696 42.9503 61.2931C42.9503 61.8025 42.9503 62.3119 42.9503 62.8367C44.3294 62.8413 45.7086 62.8447 47.0877 62.8467C47.7285 62.8477 48.3693 62.8491 49.0101 62.8513C51.7746 62.8606 54.5317 62.863 57.2909 62.6438C57.2043 61.8797 57.2043 61.8797 57.116 61.1002C55.0384 61.1002 52.9607 61.1002 50.8201 61.1002C50.8778 56.643 50.9355 52.1859 50.995 47.5937C53.0149 47.5937 55.0349 47.5937 57.116 47.5937C57.116 47.0206 57.116 46.4476 57.116 45.8571C49.7714 45.685 49.7714 45.685 42.4256 45.6642ZM69.5329 45.6642C69.5329 46.3009 69.5329 46.9377 69.5329 47.5937C71.8414 47.5937 74.1499 47.5937 76.5284 47.5937C76.4706 48.2304 76.4129 48.8672 76.3535 49.5232C76.3401 49.9503 76.3328 50.3777 76.3336 50.805C76.3336 51.0366 76.3336 51.2682 76.3337 51.5069C76.3346 51.7502 76.3355 51.9934 76.3364 52.2441C76.3368 52.6254 76.3368 52.6254 76.3371 53.0145C76.3378 53.6838 76.3395 54.3531 76.3415 55.0223C76.3433 55.7079 76.3441 56.3935 76.3449 57.0791C76.3468 58.4195 76.3498 59.7598 76.3535 61.1002C76.1468 61.0991 75.9401 61.098 75.7271 61.0968C74.2936 61.0914 72.8658 61.0903 71.4348 61.1967C71.2309 61.2105 71.2309 61.2105 71.0229 61.2246C70.701 61.2465 70.3793 61.2696 70.0576 61.2931C70.0576 61.8025 70.0576 62.3119 70.0576 62.8367C71.4367 62.8413 72.8159 62.8447 74.195 62.8467C74.8358 62.8477 75.4766 62.8491 76.1174 62.8513C78.8819 62.8606 81.639 62.863 84.3982 62.6438C84.3117 61.8797 84.3117 61.8797 84.2233 61.1002C82.088 61.1002 79.9526 61.1002 77.7526 61.1002C77.8103 60.9728 77.868 60.8455 77.9274 60.7143C77.9486 60.2987 77.9585 59.8823 77.9633 59.4661C77.9651 59.338 77.9668 59.21 77.9686 59.0781C77.9741 58.6542 77.9785 58.2304 77.9828 57.8065C77.9864 57.5129 77.99 57.2192 77.9938 56.9256C78.0034 56.1523 78.0121 55.3789 78.0205 54.6056C78.0308 53.678 78.0424 52.7504 78.0538 51.8228C78.0709 50.4131 78.0865 49.0034 78.1023 47.5937C80.1223 47.5937 82.1422 47.5937 84.2233 47.5937C84.2233 47.0206 84.2233 46.4476 84.2233 45.8571C76.8787 45.685 76.8787 45.685 69.5329 45.6642ZM12.8699 45.8571C12.8699 46.4302 12.8699 47.0033 12.8699 47.5937C15.1207 47.5937 17.3714 47.5937 19.6904 47.5937C19.6327 52.0508 19.575 56.508 19.5155 61.1002C18.4767 61.1002 17.4379 61.1002 16.3676 61.1002C15.7751 61.1253 15.1877 61.1527 14.5969 61.1967C14.393 61.2105 14.393 61.2105 14.1849 61.2246C13.8631 61.2465 13.5414 61.2696 13.2196 61.2931C13.2196 61.8025 13.2196 62.3119 13.2196 62.8367C14.6246 62.8413 16.0296 62.8447 17.4346 62.8467C18.0873 62.8477 18.7401 62.8491 19.3928 62.8513C23.4796 62.8692 23.4796 62.8692 27.5603 62.6438C27.5603 62.1344 27.5603 61.625 27.5603 61.1002C25.4249 61.1002 23.2896 61.1002 21.0895 61.1002C21.1181 60.5343 21.1468 59.9685 21.1763 59.3855C21.2881 56.9461 21.284 54.5095 21.2753 52.0677C21.2744 51.6307 21.2736 51.1937 21.2729 50.7566C21.2712 49.7023 21.2678 48.648 21.2644 47.5937C23.342 47.5937 25.4197 47.5937 27.5603 47.5937C27.6515 46.3725 27.6515 46.3725 27.3854 45.8571C22.5953 45.8571 17.8051 45.8571 12.8699 45.8571Z" stroke="black" stroke-width="0.76" mask="url(#path-2-outside-1_1966_80)"/>
</g>
<defs>
<radialGradient id="paint0_radial_1966_80" cx="0" cy="0" r="1" gradientUnits="userSpaceOnUse" gradientTransform="translate(47.5 47.5) rotate(90) scale(47.5)">
<stop offset="0.466346" stop-color="white"/>
<stop offset="1" stop-color="white" stop-opacity="0.5"/>
</radialGradient>
<clipPath id="clip0_1966_80">
<rect width="95" height="95" fill="white"/>
</clipPath>
</defs>
</svg>
