<svg width="25" height="25" viewBox="0 0 25 25" fill="none" xmlns="http://www.w3.org/2000/svg">
<mask id="path-1-outside-1_1957_1155" maskUnits="userSpaceOnUse" x="-0.609375" y="5.34766" width="25" height="10" fill="black">
<rect fill="white" x="-0.609375" y="5.34766" width="25" height="10"/>
<path d="M2.44141 6.34766C2.49221 6.78059 2.50583 7.21234 2.5177 7.6477C2.52138 7.7777 2.52507 7.90769 2.52878 8.03768C2.52977 8.07243 2.53076 8.10718 2.53178 8.14299C2.53421 8.22814 2.53663 8.31329 2.53906 8.39844C2.56769 8.39781 2.59632 8.39719 2.62582 8.39654C4.7607 8.35058 6.89435 8.34566 9.02964 8.354C9.48317 8.35576 9.9367 8.35718 10.3902 8.35858C11.1983 8.36109 12.0063 8.36385 12.8144 8.36679C13.5969 8.36963 14.3793 8.37234 15.1618 8.37489C15.2105 8.37505 15.2592 8.37521 15.3093 8.37537C15.5535 8.37617 15.7978 8.37696 16.042 8.37776C18.0515 8.38428 20.0609 8.39123 22.0703 8.39844C22.0703 7.81836 22.0703 7.23828 22.0703 6.64062C22.5385 6.61136 22.9948 6.58468 23.4619 6.58875C23.512 6.58897 23.562 6.58919 23.6135 6.58941C23.7339 6.58998 23.8543 6.59077 23.9746 6.5918C24.0258 6.85223 24.0385 7.10938 24.0496 7.37381C24.0517 7.42117 24.0538 7.46852 24.0559 7.51731C24.0603 7.61761 24.0646 7.71791 24.0688 7.81822C24.0752 7.96866 24.082 8.11908 24.0888 8.2695C24.1142 8.84999 24.1273 9.42873 24.1211 10.0098C23.6799 10.0494 23.2458 10.0631 22.8027 10.0586C22.8027 10.3164 22.8027 10.5742 22.8027 10.8398C22.2227 10.8398 21.6426 10.8398 21.0449 10.8398C21.0455 11.0075 21.0461 11.1751 21.0466 11.3478C21.047 11.5112 21.0473 11.6745 21.0476 11.8379C21.0478 11.951 21.0482 12.064 21.0486 12.177C21.0492 12.3401 21.0495 12.5031 21.0497 12.6661C21.0499 12.7162 21.0502 12.7663 21.0505 12.8178C21.0505 12.8896 21.0505 12.8896 21.0505 12.9629C21.0506 13.0044 21.0507 13.046 21.0508 13.0887C21.0428 13.2838 21.0177 13.4778 20.9961 13.6719C21.5923 13.6719 22.1885 13.6719 22.8027 13.6719C22.8188 13.9941 22.835 14.3164 22.8516 14.6484C21.3213 14.691 19.7926 14.703 18.2617 14.6973C18.2617 14.375 18.2617 14.0527 18.2617 13.7207C18.8418 13.7046 19.4219 13.6885 20.0195 13.6719C20.019 13.537 20.0184 13.4021 20.0178 13.2631C20.0174 13.1295 20.0171 12.9958 20.0168 12.8621C20.0166 12.7707 20.0163 12.6793 20.0158 12.5879C20.0152 12.4549 20.015 12.3219 20.0148 12.1889C20.0145 12.1494 20.0143 12.1099 20.014 12.0692C20.014 11.6566 20.044 11.2544 20.0684 10.8398C19.4238 10.8398 18.7793 10.8398 18.1152 10.8398C18.1152 10.582 18.1152 10.3242 18.1152 10.0586C17.1646 10.0586 16.2139 10.0586 15.2344 10.0586C15.2344 10.3164 15.2344 10.5742 15.2344 10.8398C14.6543 10.8398 14.0742 10.8398 13.4766 10.8398C13.4771 11.0156 13.4777 11.1914 13.4783 11.3726C13.4787 11.5434 13.479 11.7142 13.4792 11.885C13.4795 12.0035 13.4798 12.1219 13.4802 12.2403C13.4808 12.4109 13.4811 12.5814 13.4813 12.752C13.4816 12.8047 13.4818 12.8574 13.4821 12.9117C13.4821 12.9864 13.4821 12.9864 13.4821 13.0627C13.4822 13.1062 13.4823 13.1496 13.4824 13.1944C13.4755 13.3545 13.4504 13.5133 13.4277 13.6719C14.0239 13.6719 14.6201 13.6719 15.2344 13.6719C15.2505 13.9941 15.2666 14.3164 15.2832 14.6484C13.7529 14.691 12.2242 14.703 10.6934 14.6973C10.6934 14.375 10.6934 14.0527 10.6934 13.7207C11.2734 13.7046 11.8535 13.6885 12.4512 13.6719C12.4506 13.5411 12.45 13.4103 12.4495 13.2755C12.4491 13.1456 12.4488 13.0156 12.4485 12.8857C12.4482 12.797 12.4479 12.7082 12.4475 12.6195C12.4469 12.4903 12.4466 12.3611 12.4464 12.2318C12.4462 12.1936 12.4459 12.1555 12.4456 12.1161C12.4456 11.6883 12.4761 11.2694 12.5 10.8398C11.8555 10.8398 11.2109 10.8398 10.5469 10.8398C10.5469 10.582 10.5469 10.3242 10.5469 10.0586C9.35449 10.0586 8.16211 10.0586 6.93359 10.0586C6.94971 10.3164 6.96582 10.5742 6.98242 10.8398C6.40234 10.8398 5.82227 10.8398 5.22461 10.8398C5.22562 11.0533 5.22662 11.2668 5.22766 11.4868C5.22932 12.2166 5.20585 12.9426 5.17578 13.6719C5.75586 13.6719 6.33594 13.6719 6.93359 13.6719C6.98471 13.8763 6.98787 14.0615 6.98547 14.27C6.98525 14.3064 6.98503 14.3428 6.98481 14.3803C6.98423 14.4697 6.98336 14.559 6.98242 14.6484C5.46845 14.6925 3.95598 14.7029 2.44141 14.6973C2.44141 14.375 2.44141 14.0527 2.44141 13.7207C3.02148 13.7046 3.60156 13.6885 4.19922 13.6719C4.19922 12.7373 4.19922 11.8027 4.19922 10.8398C3.5708 10.8398 2.94238 10.8398 2.29492 10.8398C2.29492 10.5981 2.29492 10.3564 2.29492 10.1074C1.71484 10.1074 1.13477 10.1074 0.537109 10.1074C0.48877 8.89893 0.44043 7.69043 0.390625 6.44531C0.692749 6.4292 0.994873 6.41309 1.30615 6.39648C1.40124 6.39139 1.49633 6.38629 1.59431 6.38103C1.66992 6.37703 1.74553 6.37302 1.82114 6.36902C1.87973 6.36586 1.87973 6.36586 1.93951 6.36263C2.10717 6.3538 2.27346 6.34766 2.44141 6.34766ZM0.732422 6.73828C0.764543 7.97591 0.764543 7.97591 0.805664 9.21326C0.807391 9.26417 0.809118 9.31509 0.810897 9.36755C0.812695 9.4135 0.814493 9.45945 0.816345 9.5068C0.817824 9.54649 0.819304 9.58619 0.820827 9.62709C0.820631 9.71762 0.820631 9.71762 0.878906 9.76562C0.952007 9.7704 1.02533 9.77176 1.09859 9.77177C1.1703 9.77196 1.1703 9.77196 1.24346 9.77216C1.29666 9.77205 1.34986 9.77194 1.40467 9.77182C1.48882 9.77194 1.48882 9.77194 1.57467 9.77206C1.7314 9.77222 1.88814 9.77216 2.04487 9.77201C2.21419 9.7719 2.38351 9.77207 2.55283 9.7722C2.88695 9.77241 3.22107 9.77236 3.55518 9.77222C3.8299 9.77212 4.10461 9.77211 4.37932 9.77218C4.43827 9.7722 4.43827 9.7722 4.49842 9.77221C4.57841 9.77223 4.6584 9.77225 4.7384 9.77228C5.54088 9.77247 6.34336 9.7723 7.14584 9.772C7.71324 9.77179 8.28064 9.77166 8.84804 9.77161C12.8455 9.77122 16.843 9.76976 20.8405 9.74121C20.881 9.74092 20.9216 9.74063 20.9634 9.74033C21.9183 9.73348 22.8732 9.72583 23.8281 9.7168C23.8153 9.39194 23.8023 9.0671 23.7891 8.74226C23.7846 8.63192 23.7802 8.52158 23.7759 8.41124C23.7696 8.25196 23.7631 8.09269 23.7566 7.93343C23.7538 7.86031 23.7538 7.86031 23.7509 7.78571C23.7489 7.73882 23.747 7.69194 23.745 7.64363C23.7425 7.5828 23.7425 7.5828 23.74 7.52074C23.7263 7.3083 23.7028 7.09659 23.6816 6.88477C23.0291 6.90894 23.0291 6.90894 22.3633 6.93359C22.3633 7.49756 22.3633 8.06152 22.3633 8.64258C15.7085 8.64258 9.05371 8.64258 2.19727 8.64258C2.19727 8.25586 2.19727 7.86914 2.19727 7.4707C2.1767 7.07965 2.1767 7.07965 2.14844 6.68945C1.67504 6.68007 1.20465 6.70919 0.732422 6.73828ZM10.8398 10.0586C10.8398 10.2197 10.8398 10.3809 10.8398 10.5469C11.4844 10.5469 12.1289 10.5469 12.793 10.5469C12.7769 10.7241 12.7607 10.9014 12.7441 11.084C12.7405 11.1924 12.7384 11.3009 12.7386 11.4094C12.7386 11.467 12.7386 11.5247 12.7386 11.5841C12.7389 11.6443 12.7391 11.7046 12.7394 11.7666C12.7394 11.8298 12.7395 11.893 12.7396 11.9581C12.7398 12.1242 12.7402 12.2902 12.7408 12.4563C12.7413 12.6266 12.7415 12.7968 12.7418 12.967C12.7423 13.2996 12.7431 13.6322 12.7441 13.9648C12.6864 13.9646 12.6287 13.9643 12.5693 13.964C12.169 13.9626 11.7704 13.9623 11.3708 13.9893C11.3139 13.9928 11.3139 13.9928 11.2558 13.9963C11.166 14.0019 11.0762 14.0077 10.9863 14.0137C10.9863 14.1426 10.9863 14.2715 10.9863 14.4043C11.3714 14.4054 11.7564 14.4063 12.1415 14.4068C12.3204 14.4071 12.4993 14.4074 12.6782 14.408C13.4501 14.4103 14.2199 14.4109 14.9902 14.3555C14.9661 14.1621 14.9661 14.1621 14.9414 13.9648C14.3613 13.9648 13.7812 13.9648 13.1836 13.9648C13.1997 12.8369 13.2158 11.709 13.2324 10.5469C13.7964 10.5469 14.3604 10.5469 14.9414 10.5469C14.9414 10.4019 14.9414 10.2568 14.9414 10.1074C12.8908 10.0638 12.8908 10.0638 10.8398 10.0586ZM18.4082 10.0586C18.4082 10.2197 18.4082 10.3809 18.4082 10.5469C19.0527 10.5469 19.6973 10.5469 20.3613 10.5469C20.3452 10.708 20.3291 10.8691 20.3125 11.0352C20.3088 11.1432 20.3067 11.2514 20.307 11.3595C20.307 11.4181 20.307 11.4768 20.307 11.5372C20.3072 11.5987 20.3075 11.6603 20.3077 11.7237C20.3078 11.8202 20.3078 11.8202 20.3079 11.9187C20.3081 12.088 20.3086 12.2574 20.3091 12.4268C20.3097 12.6003 20.3099 12.7738 20.3101 12.9473C20.3106 13.2865 20.3115 13.6257 20.3125 13.9648C20.2548 13.9646 20.1971 13.9643 20.1376 13.964C19.7374 13.9626 19.3387 13.9623 18.9392 13.9893C18.8823 13.9928 18.8823 13.9928 18.8242 13.9963C18.7343 14.0019 18.6445 14.0077 18.5547 14.0137C18.5547 14.1426 18.5547 14.2715 18.5547 14.4043C18.9397 14.4054 19.3248 14.4063 19.7099 14.4068C19.8888 14.4071 20.0677 14.4074 20.2466 14.408C21.0184 14.4103 21.7882 14.4109 22.5586 14.3555C22.5344 14.1621 22.5344 14.1621 22.5098 13.9648C21.9136 13.9648 21.3174 13.9648 20.7031 13.9648C20.7192 13.9326 20.7354 13.9004 20.752 13.8672C20.7579 13.762 20.7606 13.6566 20.762 13.5513C20.7625 13.5189 20.7629 13.4865 20.7634 13.4531C20.765 13.3459 20.7662 13.2386 20.7674 13.1313C20.7684 13.057 20.7694 12.9827 20.7705 12.9084C20.7732 12.7127 20.7756 12.517 20.7779 12.3213C20.7808 12.0866 20.7841 11.8518 20.7872 11.6171C20.792 11.2604 20.7964 10.9036 20.8008 10.5469C21.3647 10.5469 21.9287 10.5469 22.5098 10.5469C22.5098 10.4019 22.5098 10.2568 22.5098 10.1074C20.4592 10.0638 20.4592 10.0638 18.4082 10.0586ZM2.58789 10.1074C2.58789 10.2524 2.58789 10.3975 2.58789 10.5469C3.21631 10.5469 3.84473 10.5469 4.49219 10.5469C4.47607 11.6748 4.45996 12.8027 4.44336 13.9648C4.15332 13.9648 3.86328 13.9648 3.56445 13.9648C3.39903 13.9712 3.23503 13.9781 3.07007 13.9893C3.01314 13.9928 3.01314 13.9928 2.95506 13.9963C2.8652 14.0019 2.77537 14.0077 2.68555 14.0137C2.68555 14.1426 2.68555 14.2715 2.68555 14.4043C3.07782 14.4054 3.47009 14.4063 3.86236 14.4068C4.0446 14.4071 4.22685 14.4074 4.4091 14.408C5.55013 14.4125 5.55013 14.4125 6.68945 14.3555C6.68945 14.2266 6.68945 14.0977 6.68945 13.9648C6.09326 13.9648 5.49707 13.9648 4.88281 13.9648C4.89081 13.8216 4.8988 13.6785 4.90704 13.5309C4.93827 12.9136 4.93712 12.297 4.93469 11.6791C4.93445 11.5685 4.93422 11.4579 4.93402 11.3473C4.93354 11.0805 4.93258 10.8137 4.93164 10.5469C5.51172 10.5469 6.0918 10.5469 6.68945 10.5469C6.71493 10.2378 6.71493 10.2378 6.64062 10.1074C5.30322 10.1074 3.96582 10.1074 2.58789 10.1074Z"/>
</mask>
<path d="M2.44141 6.34766C2.49221 6.78059 2.50583 7.21234 2.5177 7.6477C2.52138 7.7777 2.52507 7.90769 2.52878 8.03768C2.52977 8.07243 2.53076 8.10718 2.53178 8.14299C2.53421 8.22814 2.53663 8.31329 2.53906 8.39844C2.56769 8.39781 2.59632 8.39719 2.62582 8.39654C4.7607 8.35058 6.89435 8.34566 9.02964 8.354C9.48317 8.35576 9.9367 8.35718 10.3902 8.35858C11.1983 8.36109 12.0063 8.36385 12.8144 8.36679C13.5969 8.36963 14.3793 8.37234 15.1618 8.37489C15.2105 8.37505 15.2592 8.37521 15.3093 8.37537C15.5535 8.37617 15.7978 8.37696 16.042 8.37776C18.0515 8.38428 20.0609 8.39123 22.0703 8.39844C22.0703 7.81836 22.0703 7.23828 22.0703 6.64062C22.5385 6.61136 22.9948 6.58468 23.4619 6.58875C23.512 6.58897 23.562 6.58919 23.6135 6.58941C23.7339 6.58998 23.8543 6.59077 23.9746 6.5918C24.0258 6.85223 24.0385 7.10938 24.0496 7.37381C24.0517 7.42117 24.0538 7.46852 24.0559 7.51731C24.0603 7.61761 24.0646 7.71791 24.0688 7.81822C24.0752 7.96866 24.082 8.11908 24.0888 8.2695C24.1142 8.84999 24.1273 9.42873 24.1211 10.0098C23.6799 10.0494 23.2458 10.0631 22.8027 10.0586C22.8027 10.3164 22.8027 10.5742 22.8027 10.8398C22.2227 10.8398 21.6426 10.8398 21.0449 10.8398C21.0455 11.0075 21.0461 11.1751 21.0466 11.3478C21.047 11.5112 21.0473 11.6745 21.0476 11.8379C21.0478 11.951 21.0482 12.064 21.0486 12.177C21.0492 12.3401 21.0495 12.5031 21.0497 12.6661C21.0499 12.7162 21.0502 12.7663 21.0505 12.8178C21.0505 12.8896 21.0505 12.8896 21.0505 12.9629C21.0506 13.0044 21.0507 13.046 21.0508 13.0887C21.0428 13.2838 21.0177 13.4778 20.9961 13.6719C21.5923 13.6719 22.1885 13.6719 22.8027 13.6719C22.8188 13.9941 22.835 14.3164 22.8516 14.6484C21.3213 14.691 19.7926 14.703 18.2617 14.6973C18.2617 14.375 18.2617 14.0527 18.2617 13.7207C18.8418 13.7046 19.4219 13.6885 20.0195 13.6719C20.019 13.537 20.0184 13.4021 20.0178 13.2631C20.0174 13.1295 20.0171 12.9958 20.0168 12.8621C20.0166 12.7707 20.0163 12.6793 20.0158 12.5879C20.0152 12.4549 20.015 12.3219 20.0148 12.1889C20.0145 12.1494 20.0143 12.1099 20.014 12.0692C20.014 11.6566 20.044 11.2544 20.0684 10.8398C19.4238 10.8398 18.7793 10.8398 18.1152 10.8398C18.1152 10.582 18.1152 10.3242 18.1152 10.0586C17.1646 10.0586 16.2139 10.0586 15.2344 10.0586C15.2344 10.3164 15.2344 10.5742 15.2344 10.8398C14.6543 10.8398 14.0742 10.8398 13.4766 10.8398C13.4771 11.0156 13.4777 11.1914 13.4783 11.3726C13.4787 11.5434 13.479 11.7142 13.4792 11.885C13.4795 12.0035 13.4798 12.1219 13.4802 12.2403C13.4808 12.4109 13.4811 12.5814 13.4813 12.752C13.4816 12.8047 13.4818 12.8574 13.4821 12.9117C13.4821 12.9864 13.4821 12.9864 13.4821 13.0627C13.4822 13.1062 13.4823 13.1496 13.4824 13.1944C13.4755 13.3545 13.4504 13.5133 13.4277 13.6719C14.0239 13.6719 14.6201 13.6719 15.2344 13.6719C15.2505 13.9941 15.2666 14.3164 15.2832 14.6484C13.7529 14.691 12.2242 14.703 10.6934 14.6973C10.6934 14.375 10.6934 14.0527 10.6934 13.7207C11.2734 13.7046 11.8535 13.6885 12.4512 13.6719C12.4506 13.5411 12.45 13.4103 12.4495 13.2755C12.4491 13.1456 12.4488 13.0156 12.4485 12.8857C12.4482 12.797 12.4479 12.7082 12.4475 12.6195C12.4469 12.4903 12.4466 12.3611 12.4464 12.2318C12.4462 12.1936 12.4459 12.1555 12.4456 12.1161C12.4456 11.6883 12.4761 11.2694 12.5 10.8398C11.8555 10.8398 11.2109 10.8398 10.5469 10.8398C10.5469 10.582 10.5469 10.3242 10.5469 10.0586C9.35449 10.0586 8.16211 10.0586 6.93359 10.0586C6.94971 10.3164 6.96582 10.5742 6.98242 10.8398C6.40234 10.8398 5.82227 10.8398 5.22461 10.8398C5.22562 11.0533 5.22662 11.2668 5.22766 11.4868C5.22932 12.2166 5.20585 12.9426 5.17578 13.6719C5.75586 13.6719 6.33594 13.6719 6.93359 13.6719C6.98471 13.8763 6.98787 14.0615 6.98547 14.27C6.98525 14.3064 6.98503 14.3428 6.98481 14.3803C6.98423 14.4697 6.98336 14.559 6.98242 14.6484C5.46845 14.6925 3.95598 14.7029 2.44141 14.6973C2.44141 14.375 2.44141 14.0527 2.44141 13.7207C3.02148 13.7046 3.60156 13.6885 4.19922 13.6719C4.19922 12.7373 4.19922 11.8027 4.19922 10.8398C3.5708 10.8398 2.94238 10.8398 2.29492 10.8398C2.29492 10.5981 2.29492 10.3564 2.29492 10.1074C1.71484 10.1074 1.13477 10.1074 0.537109 10.1074C0.48877 8.89893 0.44043 7.69043 0.390625 6.44531C0.692749 6.4292 0.994873 6.41309 1.30615 6.39648C1.40124 6.39139 1.49633 6.38629 1.59431 6.38103C1.66992 6.37703 1.74553 6.37302 1.82114 6.36902C1.87973 6.36586 1.87973 6.36586 1.93951 6.36263C2.10717 6.3538 2.27346 6.34766 2.44141 6.34766ZM0.732422 6.73828C0.764543 7.97591 0.764543 7.97591 0.805664 9.21326C0.807391 9.26417 0.809118 9.31509 0.810897 9.36755C0.812695 9.4135 0.814493 9.45945 0.816345 9.5068C0.817824 9.54649 0.819304 9.58619 0.820827 9.62709C0.820631 9.71762 0.820631 9.71762 0.878906 9.76562C0.952007 9.7704 1.02533 9.77176 1.09859 9.77177C1.1703 9.77196 1.1703 9.77196 1.24346 9.77216C1.29666 9.77205 1.34986 9.77194 1.40467 9.77182C1.48882 9.77194 1.48882 9.77194 1.57467 9.77206C1.7314 9.77222 1.88814 9.77216 2.04487 9.77201C2.21419 9.7719 2.38351 9.77207 2.55283 9.7722C2.88695 9.77241 3.22107 9.77236 3.55518 9.77222C3.8299 9.77212 4.10461 9.77211 4.37932 9.77218C4.43827 9.7722 4.43827 9.7722 4.49842 9.77221C4.57841 9.77223 4.6584 9.77225 4.7384 9.77228C5.54088 9.77247 6.34336 9.7723 7.14584 9.772C7.71324 9.77179 8.28064 9.77166 8.84804 9.77161C12.8455 9.77122 16.843 9.76976 20.8405 9.74121C20.881 9.74092 20.9216 9.74063 20.9634 9.74033C21.9183 9.73348 22.8732 9.72583 23.8281 9.7168C23.8153 9.39194 23.8023 9.0671 23.7891 8.74226C23.7846 8.63192 23.7802 8.52158 23.7759 8.41124C23.7696 8.25196 23.7631 8.09269 23.7566 7.93343C23.7538 7.86031 23.7538 7.86031 23.7509 7.78571C23.7489 7.73882 23.747 7.69194 23.745 7.64363C23.7425 7.5828 23.7425 7.5828 23.74 7.52074C23.7263 7.3083 23.7028 7.09659 23.6816 6.88477C23.0291 6.90894 23.0291 6.90894 22.3633 6.93359C22.3633 7.49756 22.3633 8.06152 22.3633 8.64258C15.7085 8.64258 9.05371 8.64258 2.19727 8.64258C2.19727 8.25586 2.19727 7.86914 2.19727 7.4707C2.1767 7.07965 2.1767 7.07965 2.14844 6.68945C1.67504 6.68007 1.20465 6.70919 0.732422 6.73828ZM10.8398 10.0586C10.8398 10.2197 10.8398 10.3809 10.8398 10.5469C11.4844 10.5469 12.1289 10.5469 12.793 10.5469C12.7769 10.7241 12.7607 10.9014 12.7441 11.084C12.7405 11.1924 12.7384 11.3009 12.7386 11.4094C12.7386 11.467 12.7386 11.5247 12.7386 11.5841C12.7389 11.6443 12.7391 11.7046 12.7394 11.7666C12.7394 11.8298 12.7395 11.893 12.7396 11.9581C12.7398 12.1242 12.7402 12.2902 12.7408 12.4563C12.7413 12.6266 12.7415 12.7968 12.7418 12.967C12.7423 13.2996 12.7431 13.6322 12.7441 13.9648C12.6864 13.9646 12.6287 13.9643 12.5693 13.964C12.169 13.9626 11.7704 13.9623 11.3708 13.9893C11.3139 13.9928 11.3139 13.9928 11.2558 13.9963C11.166 14.0019 11.0762 14.0077 10.9863 14.0137C10.9863 14.1426 10.9863 14.2715 10.9863 14.4043C11.3714 14.4054 11.7564 14.4063 12.1415 14.4068C12.3204 14.4071 12.4993 14.4074 12.6782 14.408C13.4501 14.4103 14.2199 14.4109 14.9902 14.3555C14.9661 14.1621 14.9661 14.1621 14.9414 13.9648C14.3613 13.9648 13.7812 13.9648 13.1836 13.9648C13.1997 12.8369 13.2158 11.709 13.2324 10.5469C13.7964 10.5469 14.3604 10.5469 14.9414 10.5469C14.9414 10.4019 14.9414 10.2568 14.9414 10.1074C12.8908 10.0638 12.8908 10.0638 10.8398 10.0586ZM18.4082 10.0586C18.4082 10.2197 18.4082 10.3809 18.4082 10.5469C19.0527 10.5469 19.6973 10.5469 20.3613 10.5469C20.3452 10.708 20.3291 10.8691 20.3125 11.0352C20.3088 11.1432 20.3067 11.2514 20.307 11.3595C20.307 11.4181 20.307 11.4768 20.307 11.5372C20.3072 11.5987 20.3075 11.6603 20.3077 11.7237C20.3078 11.8202 20.3078 11.8202 20.3079 11.9187C20.3081 12.088 20.3086 12.2574 20.3091 12.4268C20.3097 12.6003 20.3099 12.7738 20.3101 12.9473C20.3106 13.2865 20.3115 13.6257 20.3125 13.9648C20.2548 13.9646 20.1971 13.9643 20.1376 13.964C19.7374 13.9626 19.3387 13.9623 18.9392 13.9893C18.8823 13.9928 18.8823 13.9928 18.8242 13.9963C18.7343 14.0019 18.6445 14.0077 18.5547 14.0137C18.5547 14.1426 18.5547 14.2715 18.5547 14.4043C18.9397 14.4054 19.3248 14.4063 19.7099 14.4068C19.8888 14.4071 20.0677 14.4074 20.2466 14.408C21.0184 14.4103 21.7882 14.4109 22.5586 14.3555C22.5344 14.1621 22.5344 14.1621 22.5098 13.9648C21.9136 13.9648 21.3174 13.9648 20.7031 13.9648C20.7192 13.9326 20.7354 13.9004 20.752 13.8672C20.7579 13.762 20.7606 13.6566 20.762 13.5513C20.7625 13.5189 20.7629 13.4865 20.7634 13.4531C20.765 13.3459 20.7662 13.2386 20.7674 13.1313C20.7684 13.057 20.7694 12.9827 20.7705 12.9084C20.7732 12.7127 20.7756 12.517 20.7779 12.3213C20.7808 12.0866 20.7841 11.8518 20.7872 11.6171C20.792 11.2604 20.7964 10.9036 20.8008 10.5469C21.3647 10.5469 21.9287 10.5469 22.5098 10.5469C22.5098 10.4019 22.5098 10.2568 22.5098 10.1074C20.4592 10.0638 20.4592 10.0638 18.4082 10.0586ZM2.58789 10.1074C2.58789 10.2524 2.58789 10.3975 2.58789 10.5469C3.21631 10.5469 3.84473 10.5469 4.49219 10.5469C4.47607 11.6748 4.45996 12.8027 4.44336 13.9648C4.15332 13.9648 3.86328 13.9648 3.56445 13.9648C3.39903 13.9712 3.23503 13.9781 3.07007 13.9893C3.01314 13.9928 3.01314 13.9928 2.95506 13.9963C2.8652 14.0019 2.77537 14.0077 2.68555 14.0137C2.68555 14.1426 2.68555 14.2715 2.68555 14.4043C3.07782 14.4054 3.47009 14.4063 3.86236 14.4068C4.0446 14.4071 4.22685 14.4074 4.4091 14.408C5.55013 14.4125 5.55013 14.4125 6.68945 14.3555C6.68945 14.2266 6.68945 14.0977 6.68945 13.9648C6.09326 13.9648 5.49707 13.9648 4.88281 13.9648C4.89081 13.8216 4.8988 13.6785 4.90704 13.5309C4.93827 12.9136 4.93712 12.297 4.93469 11.6791C4.93445 11.5685 4.93422 11.4579 4.93402 11.3473C4.93354 11.0805 4.93258 10.8137 4.93164 10.5469C5.51172 10.5469 6.0918 10.5469 6.68945 10.5469C6.71493 10.2378 6.71493 10.2378 6.64062 10.1074C5.30322 10.1074 3.96582 10.1074 2.58789 10.1074Z" fill="white"/>
<path d="M2.44141 6.34766C2.49221 6.78059 2.50583 7.21234 2.5177 7.6477C2.52138 7.7777 2.52507 7.90769 2.52878 8.03768C2.52977 8.07243 2.53076 8.10718 2.53178 8.14299C2.53421 8.22814 2.53663 8.31329 2.53906 8.39844C2.56769 8.39781 2.59632 8.39719 2.62582 8.39654C4.7607 8.35058 6.89435 8.34566 9.02964 8.354C9.48317 8.35576 9.9367 8.35718 10.3902 8.35858C11.1983 8.36109 12.0063 8.36385 12.8144 8.36679C13.5969 8.36963 14.3793 8.37234 15.1618 8.37489C15.2105 8.37505 15.2592 8.37521 15.3093 8.37537C15.5535 8.37617 15.7978 8.37696 16.042 8.37776C18.0515 8.38428 20.0609 8.39123 22.0703 8.39844C22.0703 7.81836 22.0703 7.23828 22.0703 6.64062C22.5385 6.61136 22.9948 6.58468 23.4619 6.58875C23.512 6.58897 23.562 6.58919 23.6135 6.58941C23.7339 6.58998 23.8543 6.59077 23.9746 6.5918C24.0258 6.85223 24.0385 7.10938 24.0496 7.37381C24.0517 7.42117 24.0538 7.46852 24.0559 7.51731C24.0603 7.61761 24.0646 7.71791 24.0688 7.81822C24.0752 7.96866 24.082 8.11908 24.0888 8.2695C24.1142 8.84999 24.1273 9.42873 24.1211 10.0098C23.6799 10.0494 23.2458 10.0631 22.8027 10.0586C22.8027 10.3164 22.8027 10.5742 22.8027 10.8398C22.2227 10.8398 21.6426 10.8398 21.0449 10.8398C21.0455 11.0075 21.0461 11.1751 21.0466 11.3478C21.047 11.5112 21.0473 11.6745 21.0476 11.8379C21.0478 11.951 21.0482 12.064 21.0486 12.177C21.0492 12.3401 21.0495 12.5031 21.0497 12.6661C21.0499 12.7162 21.0502 12.7663 21.0505 12.8178C21.0505 12.8896 21.0505 12.8896 21.0505 12.9629C21.0506 13.0044 21.0507 13.046 21.0508 13.0887C21.0428 13.2838 21.0177 13.4778 20.9961 13.6719C21.5923 13.6719 22.1885 13.6719 22.8027 13.6719C22.8188 13.9941 22.835 14.3164 22.8516 14.6484C21.3213 14.691 19.7926 14.703 18.2617 14.6973C18.2617 14.375 18.2617 14.0527 18.2617 13.7207C18.8418 13.7046 19.4219 13.6885 20.0195 13.6719C20.019 13.537 20.0184 13.4021 20.0178 13.2631C20.0174 13.1295 20.0171 12.9958 20.0168 12.8621C20.0166 12.7707 20.0163 12.6793 20.0158 12.5879C20.0152 12.4549 20.015 12.3219 20.0148 12.1889C20.0145 12.1494 20.0143 12.1099 20.014 12.0692C20.014 11.6566 20.044 11.2544 20.0684 10.8398C19.4238 10.8398 18.7793 10.8398 18.1152 10.8398C18.1152 10.582 18.1152 10.3242 18.1152 10.0586C17.1646 10.0586 16.2139 10.0586 15.2344 10.0586C15.2344 10.3164 15.2344 10.5742 15.2344 10.8398C14.6543 10.8398 14.0742 10.8398 13.4766 10.8398C13.4771 11.0156 13.4777 11.1914 13.4783 11.3726C13.4787 11.5434 13.479 11.7142 13.4792 11.885C13.4795 12.0035 13.4798 12.1219 13.4802 12.2403C13.4808 12.4109 13.4811 12.5814 13.4813 12.752C13.4816 12.8047 13.4818 12.8574 13.4821 12.9117C13.4821 12.9864 13.4821 12.9864 13.4821 13.0627C13.4822 13.1062 13.4823 13.1496 13.4824 13.1944C13.4755 13.3545 13.4504 13.5133 13.4277 13.6719C14.0239 13.6719 14.6201 13.6719 15.2344 13.6719C15.2505 13.9941 15.2666 14.3164 15.2832 14.6484C13.7529 14.691 12.2242 14.703 10.6934 14.6973C10.6934 14.375 10.6934 14.0527 10.6934 13.7207C11.2734 13.7046 11.8535 13.6885 12.4512 13.6719C12.4506 13.5411 12.45 13.4103 12.4495 13.2755C12.4491 13.1456 12.4488 13.0156 12.4485 12.8857C12.4482 12.797 12.4479 12.7082 12.4475 12.6195C12.4469 12.4903 12.4466 12.3611 12.4464 12.2318C12.4462 12.1936 12.4459 12.1555 12.4456 12.1161C12.4456 11.6883 12.4761 11.2694 12.5 10.8398C11.8555 10.8398 11.2109 10.8398 10.5469 10.8398C10.5469 10.582 10.5469 10.3242 10.5469 10.0586C9.35449 10.0586 8.16211 10.0586 6.93359 10.0586C6.94971 10.3164 6.96582 10.5742 6.98242 10.8398C6.40234 10.8398 5.82227 10.8398 5.22461 10.8398C5.22562 11.0533 5.22662 11.2668 5.22766 11.4868C5.22932 12.2166 5.20585 12.9426 5.17578 13.6719C5.75586 13.6719 6.33594 13.6719 6.93359 13.6719C6.98471 13.8763 6.98787 14.0615 6.98547 14.27C6.98525 14.3064 6.98503 14.3428 6.98481 14.3803C6.98423 14.4697 6.98336 14.559 6.98242 14.6484C5.46845 14.6925 3.95598 14.7029 2.44141 14.6973C2.44141 14.375 2.44141 14.0527 2.44141 13.7207C3.02148 13.7046 3.60156 13.6885 4.19922 13.6719C4.19922 12.7373 4.19922 11.8027 4.19922 10.8398C3.5708 10.8398 2.94238 10.8398 2.29492 10.8398C2.29492 10.5981 2.29492 10.3564 2.29492 10.1074C1.71484 10.1074 1.13477 10.1074 0.537109 10.1074C0.48877 8.89893 0.44043 7.69043 0.390625 6.44531C0.692749 6.4292 0.994873 6.41309 1.30615 6.39648C1.40124 6.39139 1.49633 6.38629 1.59431 6.38103C1.66992 6.37703 1.74553 6.37302 1.82114 6.36902C1.87973 6.36586 1.87973 6.36586 1.93951 6.36263C2.10717 6.3538 2.27346 6.34766 2.44141 6.34766ZM0.732422 6.73828C0.764543 7.97591 0.764543 7.97591 0.805664 9.21326C0.807391 9.26417 0.809118 9.31509 0.810897 9.36755C0.812695 9.4135 0.814493 9.45945 0.816345 9.5068C0.817824 9.54649 0.819304 9.58619 0.820827 9.62709C0.820631 9.71762 0.820631 9.71762 0.878906 9.76562C0.952007 9.7704 1.02533 9.77176 1.09859 9.77177C1.1703 9.77196 1.1703 9.77196 1.24346 9.77216C1.29666 9.77205 1.34986 9.77194 1.40467 9.77182C1.48882 9.77194 1.48882 9.77194 1.57467 9.77206C1.7314 9.77222 1.88814 9.77216 2.04487 9.77201C2.21419 9.7719 2.38351 9.77207 2.55283 9.7722C2.88695 9.77241 3.22107 9.77236 3.55518 9.77222C3.8299 9.77212 4.10461 9.77211 4.37932 9.77218C4.43827 9.7722 4.43827 9.7722 4.49842 9.77221C4.57841 9.77223 4.6584 9.77225 4.7384 9.77228C5.54088 9.77247 6.34336 9.7723 7.14584 9.772C7.71324 9.77179 8.28064 9.77166 8.84804 9.77161C12.8455 9.77122 16.843 9.76976 20.8405 9.74121C20.881 9.74092 20.9216 9.74063 20.9634 9.74033C21.9183 9.73348 22.8732 9.72583 23.8281 9.7168C23.8153 9.39194 23.8023 9.0671 23.7891 8.74226C23.7846 8.63192 23.7802 8.52158 23.7759 8.41124C23.7696 8.25196 23.7631 8.09269 23.7566 7.93343C23.7538 7.86031 23.7538 7.86031 23.7509 7.78571C23.7489 7.73882 23.747 7.69194 23.745 7.64363C23.7425 7.5828 23.7425 7.5828 23.74 7.52074C23.7263 7.3083 23.7028 7.09659 23.6816 6.88477C23.0291 6.90894 23.0291 6.90894 22.3633 6.93359C22.3633 7.49756 22.3633 8.06152 22.3633 8.64258C15.7085 8.64258 9.05371 8.64258 2.19727 8.64258C2.19727 8.25586 2.19727 7.86914 2.19727 7.4707C2.1767 7.07965 2.1767 7.07965 2.14844 6.68945C1.67504 6.68007 1.20465 6.70919 0.732422 6.73828ZM10.8398 10.0586C10.8398 10.2197 10.8398 10.3809 10.8398 10.5469C11.4844 10.5469 12.1289 10.5469 12.793 10.5469C12.7769 10.7241 12.7607 10.9014 12.7441 11.084C12.7405 11.1924 12.7384 11.3009 12.7386 11.4094C12.7386 11.467 12.7386 11.5247 12.7386 11.5841C12.7389 11.6443 12.7391 11.7046 12.7394 11.7666C12.7394 11.8298 12.7395 11.893 12.7396 11.9581C12.7398 12.1242 12.7402 12.2902 12.7408 12.4563C12.7413 12.6266 12.7415 12.7968 12.7418 12.967C12.7423 13.2996 12.7431 13.6322 12.7441 13.9648C12.6864 13.9646 12.6287 13.9643 12.5693 13.964C12.169 13.9626 11.7704 13.9623 11.3708 13.9893C11.3139 13.9928 11.3139 13.9928 11.2558 13.9963C11.166 14.0019 11.0762 14.0077 10.9863 14.0137C10.9863 14.1426 10.9863 14.2715 10.9863 14.4043C11.3714 14.4054 11.7564 14.4063 12.1415 14.4068C12.3204 14.4071 12.4993 14.4074 12.6782 14.408C13.4501 14.4103 14.2199 14.4109 14.9902 14.3555C14.9661 14.1621 14.9661 14.1621 14.9414 13.9648C14.3613 13.9648 13.7812 13.9648 13.1836 13.9648C13.1997 12.8369 13.2158 11.709 13.2324 10.5469C13.7964 10.5469 14.3604 10.5469 14.9414 10.5469C14.9414 10.4019 14.9414 10.2568 14.9414 10.1074C12.8908 10.0638 12.8908 10.0638 10.8398 10.0586ZM18.4082 10.0586C18.4082 10.2197 18.4082 10.3809 18.4082 10.5469C19.0527 10.5469 19.6973 10.5469 20.3613 10.5469C20.3452 10.708 20.3291 10.8691 20.3125 11.0352C20.3088 11.1432 20.3067 11.2514 20.307 11.3595C20.307 11.4181 20.307 11.4768 20.307 11.5372C20.3072 11.5987 20.3075 11.6603 20.3077 11.7237C20.3078 11.8202 20.3078 11.8202 20.3079 11.9187C20.3081 12.088 20.3086 12.2574 20.3091 12.4268C20.3097 12.6003 20.3099 12.7738 20.3101 12.9473C20.3106 13.2865 20.3115 13.6257 20.3125 13.9648C20.2548 13.9646 20.1971 13.9643 20.1376 13.964C19.7374 13.9626 19.3387 13.9623 18.9392 13.9893C18.8823 13.9928 18.8823 13.9928 18.8242 13.9963C18.7343 14.0019 18.6445 14.0077 18.5547 14.0137C18.5547 14.1426 18.5547 14.2715 18.5547 14.4043C18.9397 14.4054 19.3248 14.4063 19.7099 14.4068C19.8888 14.4071 20.0677 14.4074 20.2466 14.408C21.0184 14.4103 21.7882 14.4109 22.5586 14.3555C22.5344 14.1621 22.5344 14.1621 22.5098 13.9648C21.9136 13.9648 21.3174 13.9648 20.7031 13.9648C20.7192 13.9326 20.7354 13.9004 20.752 13.8672C20.7579 13.762 20.7606 13.6566 20.762 13.5513C20.7625 13.5189 20.7629 13.4865 20.7634 13.4531C20.765 13.3459 20.7662 13.2386 20.7674 13.1313C20.7684 13.057 20.7694 12.9827 20.7705 12.9084C20.7732 12.7127 20.7756 12.517 20.7779 12.3213C20.7808 12.0866 20.7841 11.8518 20.7872 11.6171C20.792 11.2604 20.7964 10.9036 20.8008 10.5469C21.3647 10.5469 21.9287 10.5469 22.5098 10.5469C22.5098 10.4019 22.5098 10.2568 22.5098 10.1074C20.4592 10.0638 20.4592 10.0638 18.4082 10.0586ZM2.58789 10.1074C2.58789 10.2524 2.58789 10.3975 2.58789 10.5469C3.21631 10.5469 3.84473 10.5469 4.49219 10.5469C4.47607 11.6748 4.45996 12.8027 4.44336 13.9648C4.15332 13.9648 3.86328 13.9648 3.56445 13.9648C3.39903 13.9712 3.23503 13.9781 3.07007 13.9893C3.01314 13.9928 3.01314 13.9928 2.95506 13.9963C2.8652 14.0019 2.77537 14.0077 2.68555 14.0137C2.68555 14.1426 2.68555 14.2715 2.68555 14.4043C3.07782 14.4054 3.47009 14.4063 3.86236 14.4068C4.0446 14.4071 4.22685 14.4074 4.4091 14.408C5.55013 14.4125 5.55013 14.4125 6.68945 14.3555C6.68945 14.2266 6.68945 14.0977 6.68945 13.9648C6.09326 13.9648 5.49707 13.9648 4.88281 13.9648C4.89081 13.8216 4.8988 13.6785 4.90704 13.5309C4.93827 12.9136 4.93712 12.297 4.93469 11.6791C4.93445 11.5685 4.93422 11.4579 4.93402 11.3473C4.93354 11.0805 4.93258 10.8137 4.93164 10.5469C5.51172 10.5469 6.0918 10.5469 6.68945 10.5469C6.71493 10.2378 6.71493 10.2378 6.64062 10.1074C5.30322 10.1074 3.96582 10.1074 2.58789 10.1074Z" stroke="white" stroke-width="0.2" mask="url(#path-1-outside-1_1957_1155)"/>
</svg>
