<svg width="95" height="95" viewBox="0 0 95 95" fill="none" xmlns="http://www.w3.org/2000/svg">
<g clip-path="url(#clip0_2003_614)">
<path d="M47.5 0.0185547C63.0859 0.0185547 78.6669 0.0123698 94.243 0C94.8757 0 95.0018 0.124316 95 0.758887C94.9814 31.9196 94.9814 63.0804 95 94.2411C95 94.8757 94.8757 95 94.243 95C63.0822 94.979 31.9209 94.979 0.758887 95C0.124316 95 0 94.8757 0 94.2411C0.0197917 63.0804 0.0197917 31.9196 0 0.758887C0 0.124316 0.120605 0 0.758887 0C16.3399 0.0222656 31.9202 0.0284505 47.5 0.0185547Z" fill="url(#paint0_radial_2003_614)"/>
<path d="M47.2402 12C47.9256 12 48.5895 12.2415 49.1143 12.6821L79.2312 38.0187C79.7458 38.3689 80.1346 38.8748 80.341 39.4619C80.5473 40.0494 80.5604 40.6875 80.3777 41.2826C80.195 41.8777 79.8263 42.3985 79.3258 42.7687C78.8257 43.1393 78.2197 43.3394 77.5969 43.3405H73.1479V77.1624C73.1475 79.015 72.4115 80.7916 71.1019 82.102C69.792 83.412 68.0161 84.1487 66.1634 84.1501H56.2648V64.3526C56.2641 63.7357 56.0188 63.1442 55.5824 62.7078C55.1459 62.2717 54.5545 62.0268 53.9371 62.0264H40.5476C39.9303 62.0264 39.3384 62.2714 38.9017 62.7074C38.4649 63.1438 38.2192 63.7353 38.2185 64.3526V84.1501H28.3232C26.4701 84.1494 24.6928 83.4134 23.3824 82.1031C22.0721 80.7927 21.3361 79.0154 21.3354 77.1624V43.3405H16.9107C16.3137 43.3402 15.7313 43.1564 15.2422 42.8139C14.7531 42.4717 14.3808 41.9872 14.1762 41.4263C13.9716 40.8654 13.9445 40.2547 14.0984 39.6778C14.2522 39.1008 14.5798 38.5854 15.0364 38.2007L45.366 12.6821C45.8909 12.2415 46.5548 12 47.2402 12Z" fill="#333333"/>
</g>
<defs>
<radialGradient id="paint0_radial_2003_614" cx="0" cy="0" r="1" gradientUnits="userSpaceOnUse" gradientTransform="translate(47.5 47.5) rotate(90) scale(47.5 47.5)">
<stop offset="0.4" stop-color="white"/>
<stop offset="1" stop-color="white" stop-opacity="0.5"/>
</radialGradient>
<clipPath id="clip0_2003_614">
<rect width="95" height="95" fill="white"/>
</clipPath>
</defs>
</svg>
