<svg width="95" height="95" viewBox="0 0 95 95" fill="none" xmlns="http://www.w3.org/2000/svg">
<g clip-path="url(#clip0_2003_113)">
<path d="M47.5 0.0185547C63.0859 0.0185547 78.6669 0.0123698 94.243 0C94.8757 0 95.0018 0.124316 95 0.758887C94.9814 31.9196 94.9814 63.0804 95 94.2411C95 94.8757 94.8757 95 94.243 95C63.0822 94.979 31.9209 94.979 0.758887 95C0.124316 95 0 94.8757 0 94.2411C0.0197917 63.0804 0.0197917 31.9196 0 0.758887C0 0.124316 0.120605 0 0.758887 0C16.3399 0.0222656 31.9202 0.0284505 47.5 0.0185547Z" fill="url(#paint0_radial_2003_113)"/>
<path d="M71.7716 63.9698C72.6307 64.4318 72.4971 64.8622 71.8848 65.5228C69.6582 67.9349 67.452 70.3767 65.3127 72.8686C64.6837 73.5996 64.2959 73.6497 63.8042 72.8445C61.2937 70.1596 59.275 67.0832 56.9835 64.2258C54.2003 60.7598 51.3354 57.3773 48.3333 54.1005C46.0424 51.5944 43.634 49.2089 41.1081 46.944C37.9427 44.0989 34.6715 41.3813 31.2945 38.7911C28.3703 36.5459 25.2791 34.5235 22.5738 31.9945C21.9003 31.6234 21.9986 31.2783 22.4755 30.7569C24.8257 28.1864 27.1494 25.5956 29.4465 22.9843C29.8269 22.5557 30.1145 22.3813 30.4559 22.9843C32.6397 25.2832 34.4303 27.8957 36.3785 30.3839C39.3633 34.1951 42.4904 37.8837 45.7598 41.4499C47.8861 43.7786 50.1479 45.955 52.4636 48.074C56.3972 51.6711 60.4903 55.0815 64.7431 58.305C67.1366 60.116 69.5524 61.9213 71.7716 63.9698Z" fill="black"/>
<path d="M22.5664 31.9944C24.7188 33.2672 26.6818 34.811 28.7062 36.262C42.4051 46.1052 53.755 58.2344 63.3756 72.0428C63.5463 72.2877 63.8061 72.4956 63.8042 72.8388C63.3941 72.7219 63.1437 72.3954 62.8635 72.1152C60.3512 69.6103 57.8413 67.1048 55.334 64.5987C47.2423 56.5571 39.1784 48.4895 31.0366 40.4999C28.4631 37.9746 25.9137 35.4233 23.3364 32.9017C23.0525 32.629 22.726 32.3803 22.5664 31.9944Z" fill="#C8C8C8"/>
<path d="M71.7715 63.9697C69.2796 62.4241 67.0011 60.5816 64.6595 58.8282C51.6439 49.1207 40.3001 37.3538 31.0755 23.9917C30.8491 23.6633 30.6506 23.3164 30.4409 22.9768C30.8361 23.1215 31.0792 23.4537 31.3687 23.7357C35.1056 27.4615 38.7905 31.2411 42.585 34.913C48.5948 40.7318 54.4043 46.7491 60.4104 52.5697C63.9804 56.0283 67.4612 59.5815 71.0052 63.0549C71.2891 63.3314 71.6156 63.58 71.7715 63.9697Z" fill="#C8C8C8"/>
<path d="M10.415 20.5722C9.38706 17.1952 8.39068 13.9649 7.42954 10.7252C7.26997 10.1871 6.76343 9.50616 7.13081 9.11466C7.43511 8.78995 8.15318 9.24454 8.68013 9.37628C11.7231 10.137 14.7654 10.9064 17.8072 11.6845C18.0892 11.7587 18.5197 11.6975 18.6217 11.9999C18.7368 12.332 18.3119 12.4749 18.117 12.6883C17.4806 13.3878 16.2616 13.9482 16.2746 14.7293C16.295 15.4028 17.4379 16.0523 18.0985 16.6961C20.2397 18.7854 22.3772 20.8783 24.5425 22.9416C24.9749 23.3535 25.0454 23.6151 24.5518 24.0196C23.9117 24.5429 23.3532 25.5281 22.6963 25.5782C22.0395 25.6283 21.481 24.5856 20.8891 24.0122C18.7015 21.8803 16.5084 19.7521 14.356 17.5923C13.9014 17.1358 13.6472 17.1136 13.213 17.6108C12.3447 18.6017 11.4077 19.5294 10.415 20.5722Z" fill="black"/>
<path d="M85.4518 76.264L88.8566 87.6918L76.8647 84.5932C77.6904 83.8065 78.3881 83.0884 79.1451 82.439C79.6349 82.016 79.6349 81.7581 79.1562 81.2979C76.5586 78.7986 74.0054 76.2455 71.4041 73.7443C70.879 73.2396 70.699 72.913 71.3707 72.4009C71.9774 71.9389 72.484 70.9945 73.0833 70.9592C73.7698 70.9184 74.2615 71.9074 74.8274 72.4566C76.9965 74.5681 79.1599 76.6722 81.264 78.8413C81.8838 79.4795 82.1918 79.3738 82.7484 78.7875C83.5778 77.8987 84.5259 77.1157 85.4518 76.264Z" fill="black"/>
</g>
<defs>
<radialGradient id="paint0_radial_2003_113" cx="0" cy="0" r="1" gradientUnits="userSpaceOnUse" gradientTransform="translate(47.5 47.5) rotate(90) scale(47.5 47.5)">
<stop offset="0.4" stop-color="white"/>
<stop offset="1" stop-color="white" stop-opacity="0.5"/>
</radialGradient>
<clipPath id="clip0_2003_113">
<rect width="95" height="95" fill="white"/>
</clipPath>
</defs>
</svg>
