<svg width="95" height="95" viewBox="0 0 95 95" fill="none" xmlns="http://www.w3.org/2000/svg">
<g clip-path="url(#clip0_1966_15)">
<circle cx="47.5" cy="47.5" r="47.5" fill="url(#paint0_radial_1966_15)"/>
<mask id="path-2-outside-1_1966_15" maskUnits="userSpaceOnUse" x="19.768" y="23.8211" width="54.9361" height="47.9213" fill="black">
<rect fill="white" x="19.768" y="23.8211" width="54.9361" height="47.9213"/>
<path d="M29.9674 25.5003C30.4045 25.6775 30.6949 25.9211 31.0344 26.2998C31.1347 26.4107 31.2351 26.5217 31.3385 26.636C31.4463 26.7568 31.5541 26.8775 31.6651 27.002C31.7797 27.129 31.8943 27.256 32.0091 27.3828C32.1887 27.5814 32.3682 27.78 32.5476 27.979C33.1323 28.6276 33.7228 29.2675 34.3143 29.9063C35.3762 31.0533 36.4339 32.2064 37.4896 33.3626C38.2209 34.163 38.9548 34.9596 39.6899 35.7544C40.6096 36.749 41.5262 37.7479 42.4362 38.7567C43.4156 39.8424 44.4019 40.9178 45.3925 41.9872C45.9247 42.5617 46.456 43.1371 46.9826 43.7197C47.0719 43.8179 47.1611 43.9161 47.253 44.0172C47.4117 44.192 47.5699 44.3675 47.7273 44.5441C49.275 46.2434 51.0317 47.6432 52.7363 49.0797C52.9486 49.2591 53.1609 49.4386 53.3732 49.6181C53.7901 49.9704 54.2071 50.3226 54.6241 50.6745C55.074 51.0541 55.5233 51.4345 55.9723 51.8156C57.552 53.156 59.1383 54.4844 60.7249 55.8122C60.7878 55.8649 60.8508 55.9176 60.9156 55.9719C61.1054 56.1306 61.2951 56.2894 61.4848 56.4482C63.1312 57.8263 64.7753 59.2086 66.4134 60.6019C66.4987 60.6745 66.584 60.747 66.6719 60.8217C66.9075 61.0221 67.1431 61.2227 67.3786 61.4234C67.4471 61.4817 67.5156 61.5401 67.5861 61.6002C67.8198 61.7996 68.0524 61.9984 68.277 62.2136C68.1167 62.7278 67.9406 63.1109 67.6566 63.5366C67.5805 63.6516 67.5045 63.7665 67.4262 63.885C67.3025 64.0696 67.3025 64.0696 67.1763 64.258C67.0001 64.524 66.824 64.7902 66.648 65.0564C66.5545 65.1975 66.461 65.3385 66.3647 65.4839C65.8372 66.2837 65.3168 67.0907 64.7958 67.8972C64.5983 68.2026 64.4008 68.5081 64.2032 68.8135C64.0587 69.0372 63.9141 69.2609 63.7696 69.4846C63.2129 69.3741 62.9368 69.0465 62.5321 68.6037C62.454 68.5197 62.3759 68.4358 62.2955 68.3492C61.4442 67.4305 60.6034 66.4962 59.7621 65.563C59.1291 64.8614 58.493 64.1645 57.856 63.4688C57.7488 63.3516 57.6415 63.2345 57.5311 63.1139C57.3135 62.8763 57.096 62.6387 56.8784 62.4012C56.3392 61.8124 55.8004 61.2231 55.2615 60.6338C55.0464 60.3986 54.8312 60.1634 54.6161 59.9281C50.7434 55.6939 50.7434 55.6939 50.4206 55.3409C50.2058 55.1062 49.9911 54.8715 49.7763 54.6369C49.2314 54.0418 48.6874 53.4452 48.1452 52.8462C47.5086 52.1438 46.8689 51.4461 46.2253 50.754C46.1394 50.6616 46.0535 50.5692 45.965 50.474C44.5097 48.9251 42.9256 47.6186 41.3329 46.3046C40.2503 45.4108 39.1741 44.5053 38.097 43.6013C34.0515 40.2071 30.0044 36.8149 25.9268 33.48C26.14 32.7012 26.4589 32.0767 26.8252 31.3943C26.8865 31.2788 26.9478 31.1633 27.0109 31.0443C27.2064 30.676 27.4028 30.3086 27.5993 29.9411C27.7289 29.6972 27.8585 29.4534 27.9881 29.2094C28.3494 28.5296 28.7118 27.8506 29.0745 27.1718C29.1716 26.99 29.2687 26.8081 29.3658 26.6262C29.5663 26.2508 29.7668 25.8755 29.9674 25.5003ZM30.2559 27.8683C29.9003 28.5125 29.5459 29.1577 29.1927 29.8041C29.0723 30.0238 28.9516 30.2433 28.8305 30.4625C28.6567 30.7773 28.4841 31.0932 28.3118 31.4093C28.2573 31.5073 28.2028 31.6053 28.1466 31.7063C27.8283 32.2715 27.8283 32.2715 27.8066 32.9285C28.0823 33.224 28.0823 33.224 28.4487 33.5156C28.518 33.5736 28.5873 33.6317 28.6587 33.6915C28.8945 33.8884 29.1314 34.0832 29.3683 34.278C29.539 34.4201 29.7096 34.5622 29.8801 34.7045C30.2564 35.018 30.6331 35.3306 31.0102 35.6426C31.6462 36.169 32.2809 36.6979 32.9153 37.2273C33.7295 37.9064 34.5438 38.5852 35.3584 39.2635C36.8728 40.5245 38.3861 41.7872 39.8981 43.0525C40.1396 43.2546 40.3812 43.4566 40.6228 43.6584C41.9157 44.7387 43.2041 45.827 44.4846 46.93C44.5988 47.0281 44.713 47.1262 44.8306 47.2273C46.1946 48.4064 47.4457 49.7229 48.6773 51.1097C49.2426 51.7452 49.8154 52.3699 50.388 52.9949C50.4979 53.1149 50.6078 53.2349 50.721 53.3586C50.9466 53.6049 51.1722 53.8512 51.3978 54.0975C51.9408 54.6902 52.4834 55.2836 53.0259 55.877C53.2411 56.1122 53.4562 56.3475 53.6714 56.5827C57.5441 60.8169 57.5441 60.8169 57.8671 61.1701C58.0813 61.4042 58.2954 61.6384 58.5096 61.8725C59.0048 62.4139 59.5 62.9553 59.995 63.4969C61.7214 65.386 61.7214 65.386 63.4544 67.2653C63.8453 66.8348 64.1617 66.3598 64.4883 65.8504C64.5694 65.7241 64.5694 65.7241 64.6522 65.5954C64.8238 65.3283 64.9949 65.0608 65.1659 64.7932C65.2826 64.6113 65.3994 64.4295 65.5161 64.2477C65.8013 63.8034 66.0861 63.3588 66.3706 62.9139C66.174 62.4697 65.9539 62.236 65.621 61.9601C65.5204 61.876 65.4197 61.7919 65.3161 61.7052C65.206 61.6147 65.096 61.5241 64.9826 61.4309C64.81 61.2871 64.81 61.2871 64.634 61.1405C64.3852 60.9334 64.1362 60.7266 63.8868 60.5205C63.4915 60.1936 63.097 59.8653 62.7026 59.5367C62.6035 59.4542 62.6035 59.4542 62.5024 59.37C62.3685 59.2584 62.2346 59.1468 62.1007 59.0352C61.8981 58.8665 61.6955 58.698 61.4929 58.5294C60.2867 57.5259 59.0865 56.5118 57.8885 55.4933C57.6968 55.3304 57.5051 55.1676 57.3134 55.0047C57.0268 54.7612 56.7403 54.5178 56.4538 54.2742C55.6427 53.5847 54.8305 52.8968 54.0183 52.2092C53.2197 51.533 52.4217 50.8558 51.6242 50.1778C51.1492 49.7741 50.6736 49.3715 50.1972 48.9704C48.0257 47.1411 46.0651 45.0688 44.1101 42.8943C43.4418 42.1522 42.7662 41.4211 42.09 40.6907C41.225 39.7561 40.3637 38.8165 39.5082 37.8679C38.6606 36.9284 37.8081 35.9962 36.9517 35.0694C36.8937 35.0066 36.8357 34.9438 36.7759 34.8792C36.3622 34.4314 35.9482 33.984 35.5342 33.5366C35.0615 33.0259 34.589 32.515 34.1166 32.0038C34.0027 31.8806 33.8887 31.7573 33.7713 31.6303C32.8698 30.6535 31.9751 29.6673 31.0849 28.6741C30.9923 28.5711 30.8997 28.4682 30.8043 28.3622C30.723 28.2714 30.6416 28.1806 30.5578 28.087C30.3969 27.8838 30.3969 27.8838 30.2559 27.8683Z"/>
</mask>
<path d="M29.9674 25.5003C30.4045 25.6775 30.6949 25.9211 31.0344 26.2998C31.1347 26.4107 31.2351 26.5217 31.3385 26.636C31.4463 26.7568 31.5541 26.8775 31.6651 27.002C31.7797 27.129 31.8943 27.256 32.0091 27.3828C32.1887 27.5814 32.3682 27.78 32.5476 27.979C33.1323 28.6276 33.7228 29.2675 34.3143 29.9063C35.3762 31.0533 36.4339 32.2064 37.4896 33.3626C38.2209 34.163 38.9548 34.9596 39.6899 35.7544C40.6096 36.749 41.5262 37.7479 42.4362 38.7567C43.4156 39.8424 44.4019 40.9178 45.3925 41.9872C45.9247 42.5617 46.456 43.1371 46.9826 43.7197C47.0719 43.8179 47.1611 43.9161 47.253 44.0172C47.4117 44.192 47.5699 44.3675 47.7273 44.5441C49.275 46.2434 51.0317 47.6432 52.7363 49.0797C52.9486 49.2591 53.1609 49.4386 53.3732 49.6181C53.7901 49.9704 54.2071 50.3226 54.6241 50.6745C55.074 51.0541 55.5233 51.4345 55.9723 51.8156C57.552 53.156 59.1383 54.4844 60.7249 55.8122C60.7878 55.8649 60.8508 55.9176 60.9156 55.9719C61.1054 56.1306 61.2951 56.2894 61.4848 56.4482C63.1312 57.8263 64.7753 59.2086 66.4134 60.6019C66.4987 60.6745 66.584 60.747 66.6719 60.8217C66.9075 61.0221 67.1431 61.2227 67.3786 61.4234C67.4471 61.4817 67.5156 61.5401 67.5861 61.6002C67.8198 61.7996 68.0524 61.9984 68.277 62.2136C68.1167 62.7278 67.9406 63.1109 67.6566 63.5366C67.5805 63.6516 67.5045 63.7665 67.4262 63.885C67.3025 64.0696 67.3025 64.0696 67.1763 64.258C67.0001 64.524 66.824 64.7902 66.648 65.0564C66.5545 65.1975 66.461 65.3385 66.3647 65.4839C65.8372 66.2837 65.3168 67.0907 64.7958 67.8972C64.5983 68.2026 64.4008 68.5081 64.2032 68.8135C64.0587 69.0372 63.9141 69.2609 63.7696 69.4846C63.2129 69.3741 62.9368 69.0465 62.5321 68.6037C62.454 68.5197 62.3759 68.4358 62.2955 68.3492C61.4442 67.4305 60.6034 66.4962 59.7621 65.563C59.1291 64.8614 58.493 64.1645 57.856 63.4688C57.7488 63.3516 57.6415 63.2345 57.5311 63.1139C57.3135 62.8763 57.096 62.6387 56.8784 62.4012C56.3392 61.8124 55.8004 61.2231 55.2615 60.6338C55.0464 60.3986 54.8312 60.1634 54.6161 59.9281C50.7434 55.6939 50.7434 55.6939 50.4206 55.3409C50.2058 55.1062 49.9911 54.8715 49.7763 54.6369C49.2314 54.0418 48.6874 53.4452 48.1452 52.8462C47.5086 52.1438 46.8689 51.4461 46.2253 50.754C46.1394 50.6616 46.0535 50.5692 45.965 50.474C44.5097 48.9251 42.9256 47.6186 41.3329 46.3046C40.2503 45.4108 39.1741 44.5053 38.097 43.6013C34.0515 40.2071 30.0044 36.8149 25.9268 33.48C26.14 32.7012 26.4589 32.0767 26.8252 31.3943C26.8865 31.2788 26.9478 31.1633 27.0109 31.0443C27.2064 30.676 27.4028 30.3086 27.5993 29.9411C27.7289 29.6972 27.8585 29.4534 27.9881 29.2094C28.3494 28.5296 28.7118 27.8506 29.0745 27.1718C29.1716 26.99 29.2687 26.8081 29.3658 26.6262C29.5663 26.2508 29.7668 25.8755 29.9674 25.5003ZM30.2559 27.8683C29.9003 28.5125 29.5459 29.1577 29.1927 29.8041C29.0723 30.0238 28.9516 30.2433 28.8305 30.4625C28.6567 30.7773 28.4841 31.0932 28.3118 31.4093C28.2573 31.5073 28.2028 31.6053 28.1466 31.7063C27.8283 32.2715 27.8283 32.2715 27.8066 32.9285C28.0823 33.224 28.0823 33.224 28.4487 33.5156C28.518 33.5736 28.5873 33.6317 28.6587 33.6915C28.8945 33.8884 29.1314 34.0832 29.3683 34.278C29.539 34.4201 29.7096 34.5622 29.8801 34.7045C30.2564 35.018 30.6331 35.3306 31.0102 35.6426C31.6462 36.169 32.2809 36.6979 32.9153 37.2273C33.7295 37.9064 34.5438 38.5852 35.3584 39.2635C36.8728 40.5245 38.3861 41.7872 39.8981 43.0525C40.1396 43.2546 40.3812 43.4566 40.6228 43.6584C41.9157 44.7387 43.2041 45.827 44.4846 46.93C44.5988 47.0281 44.713 47.1262 44.8306 47.2273C46.1946 48.4064 47.4457 49.7229 48.6773 51.1097C49.2426 51.7452 49.8154 52.3699 50.388 52.9949C50.4979 53.1149 50.6078 53.2349 50.721 53.3586C50.9466 53.6049 51.1722 53.8512 51.3978 54.0975C51.9408 54.6902 52.4834 55.2836 53.0259 55.877C53.2411 56.1122 53.4562 56.3475 53.6714 56.5827C57.5441 60.8169 57.5441 60.8169 57.8671 61.1701C58.0813 61.4042 58.2954 61.6384 58.5096 61.8725C59.0048 62.4139 59.5 62.9553 59.995 63.4969C61.7214 65.386 61.7214 65.386 63.4544 67.2653C63.8453 66.8348 64.1617 66.3598 64.4883 65.8504C64.5694 65.7241 64.5694 65.7241 64.6522 65.5954C64.8238 65.3283 64.9949 65.0608 65.1659 64.7932C65.2826 64.6113 65.3994 64.4295 65.5161 64.2477C65.8013 63.8034 66.0861 63.3588 66.3706 62.9139C66.174 62.4697 65.9539 62.236 65.621 61.9601C65.5204 61.876 65.4197 61.7919 65.3161 61.7052C65.206 61.6147 65.096 61.5241 64.9826 61.4309C64.81 61.2871 64.81 61.2871 64.634 61.1405C64.3852 60.9334 64.1362 60.7266 63.8868 60.5205C63.4915 60.1936 63.097 59.8653 62.7026 59.5367C62.6035 59.4542 62.6035 59.4542 62.5024 59.37C62.3685 59.2584 62.2346 59.1468 62.1007 59.0352C61.8981 58.8665 61.6955 58.698 61.4929 58.5294C60.2867 57.5259 59.0865 56.5118 57.8885 55.4933C57.6968 55.3304 57.5051 55.1676 57.3134 55.0047C57.0268 54.7612 56.7403 54.5178 56.4538 54.2742C55.6427 53.5847 54.8305 52.8968 54.0183 52.2092C53.2197 51.533 52.4217 50.8558 51.6242 50.1778C51.1492 49.7741 50.6736 49.3715 50.1972 48.9704C48.0257 47.1411 46.0651 45.0688 44.1101 42.8943C43.4418 42.1522 42.7662 41.4211 42.09 40.6907C41.225 39.7561 40.3637 38.8165 39.5082 37.8679C38.6606 36.9284 37.8081 35.9962 36.9517 35.0694C36.8937 35.0066 36.8357 34.9438 36.7759 34.8792C36.3622 34.4314 35.9482 33.984 35.5342 33.5366C35.0615 33.0259 34.589 32.515 34.1166 32.0038C34.0027 31.8806 33.8887 31.7573 33.7713 31.6303C32.8698 30.6535 31.9751 29.6673 31.0849 28.6741C30.9923 28.5711 30.8997 28.4682 30.8043 28.3622C30.723 28.2714 30.6416 28.1806 30.5578 28.087C30.3969 27.8838 30.3969 27.8838 30.2559 27.8683Z" fill="black"/>
<path d="M29.9674 25.5003C30.4045 25.6775 30.6949 25.9211 31.0344 26.2998C31.1347 26.4107 31.2351 26.5217 31.3385 26.636C31.4463 26.7568 31.5541 26.8775 31.6651 27.002C31.7797 27.129 31.8943 27.256 32.0091 27.3828C32.1887 27.5814 32.3682 27.78 32.5476 27.979C33.1323 28.6276 33.7228 29.2675 34.3143 29.9063C35.3762 31.0533 36.4339 32.2064 37.4896 33.3626C38.2209 34.163 38.9548 34.9596 39.6899 35.7544C40.6096 36.749 41.5262 37.7479 42.4362 38.7567C43.4156 39.8424 44.4019 40.9178 45.3925 41.9872C45.9247 42.5617 46.456 43.1371 46.9826 43.7197C47.0719 43.8179 47.1611 43.9161 47.253 44.0172C47.4117 44.192 47.5699 44.3675 47.7273 44.5441C49.275 46.2434 51.0317 47.6432 52.7363 49.0797C52.9486 49.2591 53.1609 49.4386 53.3732 49.6181C53.7901 49.9704 54.2071 50.3226 54.6241 50.6745C55.074 51.0541 55.5233 51.4345 55.9723 51.8156C57.552 53.156 59.1383 54.4844 60.7249 55.8122C60.7878 55.8649 60.8508 55.9176 60.9156 55.9719C61.1054 56.1306 61.2951 56.2894 61.4848 56.4482C63.1312 57.8263 64.7753 59.2086 66.4134 60.6019C66.4987 60.6745 66.584 60.747 66.6719 60.8217C66.9075 61.0221 67.1431 61.2227 67.3786 61.4234C67.4471 61.4817 67.5156 61.5401 67.5861 61.6002C67.8198 61.7996 68.0524 61.9984 68.277 62.2136C68.1167 62.7278 67.9406 63.1109 67.6566 63.5366C67.5805 63.6516 67.5045 63.7665 67.4262 63.885C67.3025 64.0696 67.3025 64.0696 67.1763 64.258C67.0001 64.524 66.824 64.7902 66.648 65.0564C66.5545 65.1975 66.461 65.3385 66.3647 65.4839C65.8372 66.2837 65.3168 67.0907 64.7958 67.8972C64.5983 68.2026 64.4008 68.5081 64.2032 68.8135C64.0587 69.0372 63.9141 69.2609 63.7696 69.4846C63.2129 69.3741 62.9368 69.0465 62.5321 68.6037C62.454 68.5197 62.3759 68.4358 62.2955 68.3492C61.4442 67.4305 60.6034 66.4962 59.7621 65.563C59.1291 64.8614 58.493 64.1645 57.856 63.4688C57.7488 63.3516 57.6415 63.2345 57.5311 63.1139C57.3135 62.8763 57.096 62.6387 56.8784 62.4012C56.3392 61.8124 55.8004 61.2231 55.2615 60.6338C55.0464 60.3986 54.8312 60.1634 54.6161 59.9281C50.7434 55.6939 50.7434 55.6939 50.4206 55.3409C50.2058 55.1062 49.9911 54.8715 49.7763 54.6369C49.2314 54.0418 48.6874 53.4452 48.1452 52.8462C47.5086 52.1438 46.8689 51.4461 46.2253 50.754C46.1394 50.6616 46.0535 50.5692 45.965 50.474C44.5097 48.9251 42.9256 47.6186 41.3329 46.3046C40.2503 45.4108 39.1741 44.5053 38.097 43.6013C34.0515 40.2071 30.0044 36.8149 25.9268 33.48C26.14 32.7012 26.4589 32.0767 26.8252 31.3943C26.8865 31.2788 26.9478 31.1633 27.0109 31.0443C27.2064 30.676 27.4028 30.3086 27.5993 29.9411C27.7289 29.6972 27.8585 29.4534 27.9881 29.2094C28.3494 28.5296 28.7118 27.8506 29.0745 27.1718C29.1716 26.99 29.2687 26.8081 29.3658 26.6262C29.5663 26.2508 29.7668 25.8755 29.9674 25.5003ZM30.2559 27.8683C29.9003 28.5125 29.5459 29.1577 29.1927 29.8041C29.0723 30.0238 28.9516 30.2433 28.8305 30.4625C28.6567 30.7773 28.4841 31.0932 28.3118 31.4093C28.2573 31.5073 28.2028 31.6053 28.1466 31.7063C27.8283 32.2715 27.8283 32.2715 27.8066 32.9285C28.0823 33.224 28.0823 33.224 28.4487 33.5156C28.518 33.5736 28.5873 33.6317 28.6587 33.6915C28.8945 33.8884 29.1314 34.0832 29.3683 34.278C29.539 34.4201 29.7096 34.5622 29.8801 34.7045C30.2564 35.018 30.6331 35.3306 31.0102 35.6426C31.6462 36.169 32.2809 36.6979 32.9153 37.2273C33.7295 37.9064 34.5438 38.5852 35.3584 39.2635C36.8728 40.5245 38.3861 41.7872 39.8981 43.0525C40.1396 43.2546 40.3812 43.4566 40.6228 43.6584C41.9157 44.7387 43.2041 45.827 44.4846 46.93C44.5988 47.0281 44.713 47.1262 44.8306 47.2273C46.1946 48.4064 47.4457 49.7229 48.6773 51.1097C49.2426 51.7452 49.8154 52.3699 50.388 52.9949C50.4979 53.1149 50.6078 53.2349 50.721 53.3586C50.9466 53.6049 51.1722 53.8512 51.3978 54.0975C51.9408 54.6902 52.4834 55.2836 53.0259 55.877C53.2411 56.1122 53.4562 56.3475 53.6714 56.5827C57.5441 60.8169 57.5441 60.8169 57.8671 61.1701C58.0813 61.4042 58.2954 61.6384 58.5096 61.8725C59.0048 62.4139 59.5 62.9553 59.995 63.4969C61.7214 65.386 61.7214 65.386 63.4544 67.2653C63.8453 66.8348 64.1617 66.3598 64.4883 65.8504C64.5694 65.7241 64.5694 65.7241 64.6522 65.5954C64.8238 65.3283 64.9949 65.0608 65.1659 64.7932C65.2826 64.6113 65.3994 64.4295 65.5161 64.2477C65.8013 63.8034 66.0861 63.3588 66.3706 62.9139C66.174 62.4697 65.9539 62.236 65.621 61.9601C65.5204 61.876 65.4197 61.7919 65.3161 61.7052C65.206 61.6147 65.096 61.5241 64.9826 61.4309C64.81 61.2871 64.81 61.2871 64.634 61.1405C64.3852 60.9334 64.1362 60.7266 63.8868 60.5205C63.4915 60.1936 63.097 59.8653 62.7026 59.5367C62.6035 59.4542 62.6035 59.4542 62.5024 59.37C62.3685 59.2584 62.2346 59.1468 62.1007 59.0352C61.8981 58.8665 61.6955 58.698 61.4929 58.5294C60.2867 57.5259 59.0865 56.5118 57.8885 55.4933C57.6968 55.3304 57.5051 55.1676 57.3134 55.0047C57.0268 54.7612 56.7403 54.5178 56.4538 54.2742C55.6427 53.5847 54.8305 52.8968 54.0183 52.2092C53.2197 51.533 52.4217 50.8558 51.6242 50.1778C51.1492 49.7741 50.6736 49.3715 50.1972 48.9704C48.0257 47.1411 46.0651 45.0688 44.1101 42.8943C43.4418 42.1522 42.7662 41.4211 42.09 40.6907C41.225 39.7561 40.3637 38.8165 39.5082 37.8679C38.6606 36.9284 37.8081 35.9962 36.9517 35.0694C36.8937 35.0066 36.8357 34.9438 36.7759 34.8792C36.3622 34.4314 35.9482 33.984 35.5342 33.5366C35.0615 33.0259 34.589 32.515 34.1166 32.0038C34.0027 31.8806 33.8887 31.7573 33.7713 31.6303C32.8698 30.6535 31.9751 29.6673 31.0849 28.6741C30.9923 28.5711 30.8997 28.4682 30.8043 28.3622C30.723 28.2714 30.6416 28.1806 30.5578 28.087C30.3969 27.8838 30.3969 27.8838 30.2559 27.8683Z" stroke="black" stroke-width="1.46154" mask="url(#path-2-outside-1_1966_15)"/>
<path d="M26.3528 17.4642L26.2358 17.4691C25.0503 17.5198 23.9496 17.2882 22.8633 17.0083L21.78 16.7212C21.5214 16.6545 21.2629 16.5875 20.9965 16.5188C20.5241 16.3968 20.052 16.2719 19.5802 16.1483L19.7892 16.4395C20.4443 17.3523 21.0926 18.2714 21.7393 19.1905L21.7384 19.1901C22.0679 19.6551 22.4001 20.1181 22.7336 20.5796C23.2765 21.3312 23.8125 22.0883 24.3472 22.8458L24.3463 22.8454L24.8799 23.5733L24.8819 23.5763C25.0415 23.8051 25.2017 24.0346 25.3661 24.2703L25.8057 24.8849L25.8199 24.9044L25.8277 24.9266C25.9415 25.228 26.017 25.4194 26.0156 25.6408C26.0143 25.8537 25.9417 26.0889 25.8231 26.4852L25.8179 26.5032L25.809 26.5196C25.6295 26.8515 25.5268 27.0434 25.4264 27.166C25.3119 27.3057 25.1966 27.3614 25.0389 27.44L24.9557 27.4809L24.8737 27.4389C23.7642 26.87 23.0921 26.2358 22.3844 25.1701L22.384 25.171C22.2087 24.9105 22.033 24.6499 21.8523 24.3816L21.8518 24.3803C21.6713 24.1062 21.4908 23.8317 21.3106 23.5574L20.2409 21.9581C20.0691 21.7005 19.8973 21.4428 19.7204 21.1774C19.1346 20.3133 18.5272 19.4685 17.9137 18.6276L17.9147 18.6302C17.9933 19.002 18.0719 19.374 18.1504 19.7459L18.2687 20.2975L18.2692 20.2988C18.6063 21.9012 18.7789 22.7205 18.827 23.263C18.8769 23.8275 18.7918 24.1076 18.6391 24.6169L18.6341 24.637L18.6236 24.6549C18.4831 24.9043 18.3984 25.0576 18.3044 25.1616C18.2004 25.2767 18.0856 25.331 17.9315 25.4078L17.8732 25.4368L17.8095 25.4223C17.5437 25.3617 17.3918 25.3274 17.2378 25.2644C17.0859 25.2022 16.9343 25.1124 16.6616 24.9526L16.6085 24.9225L16.5845 24.8652C16.457 24.5563 16.3888 24.391 16.3319 24.1984C16.2755 24.0077 16.2304 23.7907 16.1448 23.379L16.1452 23.3781C16.0452 22.9056 16.0448 22.9049 15.9425 22.4215L15.9418 22.4181C15.5457 20.3529 15.1781 18.2787 14.829 16.1996C14.7171 15.5572 14.7189 15.5647 14.4633 14.7595L14.4596 14.7453L14.4571 14.7306C14.3027 13.6701 14.6723 13.0567 15.0778 12.1357L15.1411 11.9938L15.2908 12.0329C16.7483 12.4126 18.2054 12.7952 19.6612 13.1806C20.156 13.3112 20.6515 13.441 21.1468 13.57L23.2837 14.1341L23.9528 14.3066L23.9546 14.3073C25.055 14.6027 26.0062 14.9147 26.9529 15.6417L27.0636 15.727L26.3528 17.4642Z" fill="black" stroke="black" stroke-width="0.365385"/>
<path d="M76.0227 68.2847C76.2728 68.3346 76.4228 68.364 76.5824 68.4355C76.6596 68.4701 76.7388 68.514 76.8342 68.5736L77.1848 68.8033L77.2254 68.8301L77.2475 68.8751C77.5886 69.5731 77.86 70.2228 78.1196 70.9639C78.194 71.1668 78.2692 71.3703 78.3459 71.5794L78.7616 72.7397C79.1723 73.9012 79.5686 75.0704 79.952 76.2455C80.12 76.7406 80.3036 77.2158 80.4997 77.6908L80.7004 78.1662L80.7037 78.1748L80.7068 78.1843C80.8819 78.7503 80.9502 79.1957 80.9292 79.6505C80.9083 80.1014 80.7997 80.5521 80.637 81.1237L80.6059 81.2331L80.4946 81.2534C79.8428 81.3737 79.3913 81.3854 78.7566 81.3179L78.7574 81.3191C78.5696 81.2996 78.3814 81.28 78.1879 81.2599L78.187 81.2597L77.5752 81.1934C77.3668 81.1714 77.1584 81.149 76.9436 81.1263L76.9427 81.1261C76.5013 81.0793 76.0597 81.0318 75.6185 80.984L73.5972 80.7691L72.3098 80.6321C72.1088 80.6108 71.9078 80.5893 71.7007 80.5673L71.6997 80.5671C69.5729 80.3355 69.5553 80.334 68.9503 80.157L68.8787 80.1362L68.8425 80.0716C68.6714 79.7691 68.5618 79.5815 68.524 79.3766C68.4862 79.1717 68.5218 78.9572 68.5738 78.6134L68.5743 78.6056L68.5768 78.5981C68.6521 78.2838 68.6522 78.2837 68.7291 77.9631L68.7563 77.848L68.8728 77.8267C70.446 77.5293 71.9068 77.6635 73.4352 77.8198L74.1899 77.8928C74.6433 77.9365 75.0964 77.9812 75.5495 78.0268C75.2035 77.6445 74.8569 77.2623 74.5105 76.8805L73.3415 75.5888C72.3982 74.5486 71.4508 73.5245 70.4674 72.5409L70.4666 72.5397C70.3021 72.3735 70.1376 72.207 69.9681 72.0358L69.9683 72.0348C69.6595 71.725 69.3471 71.4196 69.0322 71.1182L69.0289 71.1146C68.5271 70.6079 68.2447 70.3257 68.0897 70.0234C67.9306 69.7129 67.9088 69.3878 67.8666 68.8346L67.8647 68.8084L67.8695 68.7834C67.9435 68.4255 67.9861 68.2135 68.051 68.0695C68.1259 67.9032 68.2319 67.8214 68.3686 67.7121L68.425 67.6673L68.4964 67.6731C69.1053 67.719 69.5669 67.8499 69.9857 68.0937C70.4001 68.335 70.7614 68.6804 71.1772 69.1352L71.8365 69.8472L71.8382 69.8485L71.838 69.8495C72.0641 70.0996 72.2908 70.3497 72.5167 70.6L72.5158 70.5998C72.7381 70.8417 72.9608 71.0831 73.1836 71.3244C73.8362 72.0342 74.4852 72.7489 75.1329 73.4639L75.1339 73.4641L76.3779 74.8309L76.7455 75.235C76.2858 73.7356 76.1932 73.4896 75.4748 71.6093L75.4707 71.5996L75.4709 71.5986C75.2908 71.026 75.2138 70.5802 75.2303 70.124C75.2466 69.6706 75.355 69.2183 75.5302 68.6363L75.5467 68.5818L75.5913 68.5466C75.6009 68.5389 75.6168 68.5264 75.6265 68.5186C75.6325 68.5138 75.6242 68.5201 75.6301 68.5153L75.6349 68.5113L75.6429 68.5059L75.6431 68.5049C75.6473 68.5015 75.6436 68.5043 75.6478 68.5008L75.6524 68.4978C75.6581 68.4932 75.655 68.4951 75.6608 68.4904C75.6752 68.4789 75.6641 68.4883 75.6783 68.4769L75.6806 68.4753C75.6826 68.4738 75.6811 68.4744 75.6831 68.4728L75.6876 68.4697C75.6895 68.4683 75.6894 68.4679 75.6913 68.4665C75.6983 68.4608 75.689 68.4681 75.696 68.4624L75.7029 68.4578C75.7037 68.4571 75.7039 68.4563 75.7042 68.456L75.7065 68.4545L75.7067 68.4535L75.7181 68.4458C75.7198 68.4445 75.718 68.4444 75.7196 68.4431L75.7219 68.4415C75.7281 68.4366 75.7251 68.4393 75.7313 68.4344C75.7421 68.4257 75.7287 68.4366 75.7395 68.428C75.7418 68.4261 75.7464 68.4227 75.7488 68.4209C75.7523 68.4181 75.7476 68.4221 75.7511 68.4193C75.7543 68.4168 75.7494 68.4192 75.7526 68.4166L75.7572 68.4135C75.7589 68.4121 75.7648 68.4078 75.7665 68.4064C75.7716 68.4023 75.779 68.3969 75.784 68.3929C75.7845 68.3925 75.7871 68.3892 75.7878 68.3886C75.7903 68.3866 75.7902 68.3873 75.7924 68.3855C75.7943 68.384 75.7999 68.3799 75.8018 68.3784C75.8109 68.3711 75.8103 68.3712 75.8195 68.3639C75.8253 68.3592 75.8218 68.3614 75.8278 68.3566C75.8378 68.3486 75.8227 68.3612 75.8324 68.3535C75.8338 68.3524 75.8358 68.3505 75.8372 68.3494L75.844 68.3448L75.8442 68.3438L75.8452 68.344C75.8482 68.3416 75.8434 68.3455 75.8463 68.3432C75.8494 68.3408 75.8472 68.3413 75.8501 68.339C75.8549 68.3352 75.8504 68.3393 75.8547 68.3359C75.8593 68.3322 75.8595 68.3324 75.864 68.3287L75.8665 68.3262L75.8688 68.3247C75.8696 68.324 75.8715 68.3221 75.8724 68.3214L75.9395 68.2677L76.0227 68.2847Z" fill="black" stroke="black" stroke-width="0.365385"/>
</g>
<defs>
<radialGradient id="paint0_radial_1966_15" cx="0" cy="0" r="1" gradientUnits="userSpaceOnUse" gradientTransform="translate(47.5 47.5) rotate(90) scale(47.5)">
<stop offset="0.466346" stop-color="white"/>
<stop offset="1" stop-color="white" stop-opacity="0.5"/>
</radialGradient>
<clipPath id="clip0_1966_15">
<rect width="95" height="95" fill="white"/>
</clipPath>
</defs>
</svg>
