<svg width="26" height="26" viewBox="0 0 26 26" fill="none" xmlns="http://www.w3.org/2000/svg">
<mask id="path-1-outside-1_1961_1250" maskUnits="userSpaceOnUse" x="0.849688" y="2.71245" width="24.2722" height="20.4159" fill="black">
<rect fill="white" x="0.849688" y="2.71245" width="24.2722" height="20.4159"/>
<path d="M7.01001 4.36692C7.18133 4.46184 7.29004 4.56842 7.41332 4.72552C7.44981 4.77162 7.48629 4.81772 7.52389 4.86522C7.56301 4.91528 7.60213 4.96535 7.64243 5.01693C7.68407 5.06969 7.72573 5.12242 7.76744 5.17511C7.83273 5.25762 7.89801 5.34014 7.96317 5.42277C8.17566 5.6921 8.39085 5.95887 8.60649 6.22531C8.99364 6.70375 9.37881 7.18397 9.76304 7.66511C10.0292 7.99823 10.2966 8.33021 10.5646 8.66169C10.8999 9.07645 11.2336 9.49247 11.5643 9.91143C11.9203 10.3623 12.2795 10.8102 12.6406 11.2563C12.8346 11.4959 13.0283 11.7358 13.2197 11.9778C13.2522 12.0187 13.2846 12.0595 13.3181 12.1016C13.3758 12.1742 13.4333 12.2471 13.4904 12.3203C14.0535 13.0271 14.7142 13.6464 15.352 14.2744C15.4315 14.3528 15.5109 14.4312 15.5903 14.5096C15.7463 14.6635 15.9023 14.8174 16.0584 14.9712C16.2267 15.1371 16.3947 15.3033 16.5626 15.4696C17.1534 16.0547 17.7474 16.6362 18.3415 17.2175C18.365 17.2406 18.3886 17.2637 18.4129 17.2874C18.4839 17.3569 18.555 17.4265 18.626 17.496C19.2425 18.0993 19.8579 18.7039 20.4704 19.3118C20.5022 19.3434 20.5341 19.3751 20.567 19.4077C20.6551 19.4951 20.7432 19.5826 20.8312 19.6701C20.8568 19.6956 20.8824 19.721 20.9088 19.7473C20.9961 19.8342 21.0831 19.9208 21.166 20.0126C21.0797 20.1782 20.9922 20.2972 20.8589 20.4226C20.8232 20.4565 20.7875 20.4905 20.7507 20.5254C20.6927 20.5798 20.6927 20.5798 20.6335 20.6353C20.5507 20.7138 20.468 20.7923 20.3852 20.8709C20.3413 20.9125 20.2974 20.9542 20.2522 20.997C20.0043 21.2332 19.7589 21.4724 19.5134 21.7114C19.4203 21.8019 19.3272 21.8924 19.2341 21.9829C19.166 22.0492 19.0979 22.1155 19.0298 22.1817C18.8069 22.1008 18.7074 21.9662 18.5601 21.7819C18.5316 21.7468 18.5031 21.7118 18.4738 21.6757C18.1634 21.2924 17.8579 20.9045 17.5522 20.517C17.3222 20.2257 17.0907 19.9357 16.8587 19.646C16.8197 19.5973 16.7807 19.5485 16.7404 19.4983C16.6612 19.3994 16.582 19.3004 16.5028 19.2015C16.3065 18.9564 16.1104 18.7111 15.9142 18.4658C15.8359 18.3679 15.7576 18.27 15.6792 18.1721C14.2695 16.4096 14.2695 16.4096 14.1519 16.2626C14.0738 16.1649 13.9956 16.0672 13.9174 15.9696C13.719 15.7218 13.521 15.4736 13.3239 15.2247C13.0924 14.9328 12.8595 14.6422 12.6247 14.3533C12.5934 14.3148 12.562 14.2762 12.5298 14.2365C11.9983 13.5887 11.4043 13.015 10.8072 12.438C10.4013 12.0456 9.99851 11.6496 9.59531 11.2541C8.08081 9.76889 6.5656 8.28431 5.03559 6.81719C5.15427 6.56411 5.30992 6.37256 5.48723 6.16463C5.51695 6.12938 5.54667 6.09412 5.57728 6.0578C5.67209 5.94542 5.76724 5.83338 5.8624 5.72134C5.92527 5.64694 5.98812 5.57252 6.05094 5.49808C6.22613 5.29064 6.40173 5.08358 6.57743 4.87662C6.62448 4.82116 6.67153 4.7657 6.71857 4.71023C6.81569 4.59576 6.91283 4.48132 7.01001 4.36692ZM7.03168 5.20836C6.86024 5.4039 6.68929 5.59991 6.51879 5.79638C6.4607 5.86317 6.40248 5.92982 6.34412 5.99634C6.26033 6.09191 6.17703 6.18793 6.09381 6.28405C6.06756 6.31377 6.04132 6.34349 6.01427 6.37411C5.86129 6.54518 5.86129 6.54518 5.82575 6.77082C5.92638 6.89424 5.92638 6.89424 6.06417 7.02328C6.09012 7.04869 6.11607 7.0741 6.14281 7.10029C6.23111 7.18654 6.31995 7.27212 6.4088 7.35774C6.47275 7.41999 6.53666 7.48228 6.60054 7.54461C6.74147 7.682 6.88265 7.8191 7.024 7.95601C7.26241 8.187 7.50014 8.41877 7.73777 8.65066C8.04273 8.94818 8.34776 9.24562 8.65294 9.54289C9.22023 10.0955 9.78706 10.6487 10.3532 11.2026C10.4437 11.2911 10.5341 11.3795 10.6246 11.4679C11.1088 11.941 11.5908 12.4166 12.069 12.8966C12.1117 12.9393 12.1544 12.982 12.1983 13.026C12.7075 13.5388 13.1651 14.0904 13.6118 14.6648C13.8169 14.9281 14.0254 15.1882 14.2339 15.4485C14.2739 15.4985 14.3139 15.5484 14.3552 15.5999C14.4373 15.7025 14.5194 15.805 14.6016 15.9075C14.7993 16.1543 14.9968 16.4013 15.1943 16.6483C15.2726 16.7462 15.3509 16.8442 15.4293 16.9421C16.839 18.7046 16.839 18.7046 16.9566 18.8516C17.0346 18.9491 17.1126 19.0465 17.1905 19.144C17.3708 19.3694 17.5511 19.5947 17.7312 19.8201C18.3597 20.6064 18.3597 20.6064 18.9912 21.3897C19.1683 21.2708 19.3168 21.1308 19.4709 20.9796C19.5092 20.9422 19.5092 20.9422 19.5482 20.904C19.6291 20.8248 19.7099 20.7454 19.7906 20.666C19.8457 20.612 19.9007 20.5581 19.9558 20.5041C20.0903 20.3724 20.2247 20.2404 20.359 20.1084C20.2967 19.9396 20.2163 19.8418 20.0915 19.7208C20.0539 19.6839 20.0162 19.6471 19.9774 19.6091C19.9361 19.5694 19.8948 19.5296 19.8523 19.4886C19.7876 19.4256 19.7876 19.4256 19.7217 19.3614C19.6285 19.2706 19.5352 19.1799 19.4417 19.0894C19.2935 18.946 19.1457 18.8021 18.998 18.6581C18.9609 18.6219 18.9609 18.6219 18.923 18.585C18.8728 18.5361 18.8227 18.4872 18.7725 18.4383C18.6966 18.3644 18.6207 18.2905 18.5448 18.2166C18.0929 17.7768 17.6439 17.3337 17.1959 16.8892C17.1243 16.8182 17.0526 16.7471 16.9809 16.676C16.8737 16.5698 16.7666 16.4635 16.6595 16.3572C16.3562 16.0563 16.0524 15.7559 15.7486 15.4556C15.4499 15.1603 15.1514 14.8647 14.8532 14.5688C14.6756 14.3927 14.4977 14.2168 14.3194 14.0415C13.5068 13.2417 12.7902 12.3741 12.08 11.4715C11.8372 11.1635 11.5909 10.8586 11.3444 10.5539C11.029 10.1641 10.7154 9.77286 10.4045 9.37894C10.0965 8.98876 9.78618 8.60073 9.47404 8.21429C9.45289 8.18811 9.43175 8.16193 9.40996 8.13495C9.25914 7.94825 9.10823 7.76164 8.9573 7.57505C8.78499 7.36202 8.61274 7.14895 8.44056 6.93581C8.39903 6.88441 8.3575 6.83301 8.31471 6.78006C7.98618 6.37283 7.66079 5.96286 7.33752 5.55084C7.30389 5.50812 7.27025 5.46539 7.2356 5.42137C7.20607 5.38371 7.17653 5.34604 7.14609 5.30723C7.0886 5.22457 7.0886 5.22457 7.03168 5.20836Z"/>
</mask>
<path d="M7.01001 4.36692C7.18133 4.46184 7.29004 4.56842 7.41332 4.72552C7.44981 4.77162 7.48629 4.81772 7.52389 4.86522C7.56301 4.91528 7.60213 4.96535 7.64243 5.01693C7.68407 5.06969 7.72573 5.12242 7.76744 5.17511C7.83273 5.25762 7.89801 5.34014 7.96317 5.42277C8.17566 5.6921 8.39085 5.95887 8.60649 6.22531C8.99364 6.70375 9.37881 7.18397 9.76304 7.66511C10.0292 7.99823 10.2966 8.33021 10.5646 8.66169C10.8999 9.07645 11.2336 9.49247 11.5643 9.91143C11.9203 10.3623 12.2795 10.8102 12.6406 11.2563C12.8346 11.4959 13.0283 11.7358 13.2197 11.9778C13.2522 12.0187 13.2846 12.0595 13.3181 12.1016C13.3758 12.1742 13.4333 12.2471 13.4904 12.3203C14.0535 13.0271 14.7142 13.6464 15.352 14.2744C15.4315 14.3528 15.5109 14.4312 15.5903 14.5096C15.7463 14.6635 15.9023 14.8174 16.0584 14.9712C16.2267 15.1371 16.3947 15.3033 16.5626 15.4696C17.1534 16.0547 17.7474 16.6362 18.3415 17.2175C18.365 17.2406 18.3886 17.2637 18.4129 17.2874C18.4839 17.3569 18.555 17.4265 18.626 17.496C19.2425 18.0993 19.8579 18.7039 20.4704 19.3118C20.5022 19.3434 20.5341 19.3751 20.567 19.4077C20.6551 19.4951 20.7432 19.5826 20.8312 19.6701C20.8568 19.6956 20.8824 19.721 20.9088 19.7473C20.9961 19.8342 21.0831 19.9208 21.166 20.0126C21.0797 20.1782 20.9922 20.2972 20.8589 20.4226C20.8232 20.4565 20.7875 20.4905 20.7507 20.5254C20.6927 20.5798 20.6927 20.5798 20.6335 20.6353C20.5507 20.7138 20.468 20.7923 20.3852 20.8709C20.3413 20.9125 20.2974 20.9542 20.2522 20.997C20.0043 21.2332 19.7589 21.4724 19.5134 21.7114C19.4203 21.8019 19.3272 21.8924 19.2341 21.9829C19.166 22.0492 19.0979 22.1155 19.0298 22.1817C18.8069 22.1008 18.7074 21.9662 18.5601 21.7819C18.5316 21.7468 18.5031 21.7118 18.4738 21.6757C18.1634 21.2924 17.8579 20.9045 17.5522 20.517C17.3222 20.2257 17.0907 19.9357 16.8587 19.646C16.8197 19.5973 16.7807 19.5485 16.7404 19.4983C16.6612 19.3994 16.582 19.3004 16.5028 19.2015C16.3065 18.9564 16.1104 18.7111 15.9142 18.4658C15.8359 18.3679 15.7576 18.27 15.6792 18.1721C14.2695 16.4096 14.2695 16.4096 14.1519 16.2626C14.0738 16.1649 13.9956 16.0672 13.9174 15.9696C13.719 15.7218 13.521 15.4736 13.3239 15.2247C13.0924 14.9328 12.8595 14.6422 12.6247 14.3533C12.5934 14.3148 12.562 14.2762 12.5298 14.2365C11.9983 13.5887 11.4043 13.015 10.8072 12.438C10.4013 12.0456 9.99851 11.6496 9.59531 11.2541C8.08081 9.76889 6.5656 8.28431 5.03559 6.81719C5.15427 6.56411 5.30992 6.37256 5.48723 6.16463C5.51695 6.12938 5.54667 6.09412 5.57728 6.0578C5.67209 5.94542 5.76724 5.83338 5.8624 5.72134C5.92527 5.64694 5.98812 5.57252 6.05094 5.49808C6.22613 5.29064 6.40173 5.08358 6.57743 4.87662C6.62448 4.82116 6.67153 4.7657 6.71857 4.71023C6.81569 4.59576 6.91283 4.48132 7.01001 4.36692ZM7.03168 5.20836C6.86024 5.4039 6.68929 5.59991 6.51879 5.79638C6.4607 5.86317 6.40248 5.92982 6.34412 5.99634C6.26033 6.09191 6.17703 6.18793 6.09381 6.28405C6.06756 6.31377 6.04132 6.34349 6.01427 6.37411C5.86129 6.54518 5.86129 6.54518 5.82575 6.77082C5.92638 6.89424 5.92638 6.89424 6.06417 7.02328C6.09012 7.04869 6.11607 7.0741 6.14281 7.10029C6.23111 7.18654 6.31995 7.27212 6.4088 7.35774C6.47275 7.41999 6.53666 7.48228 6.60054 7.54461C6.74147 7.682 6.88265 7.8191 7.024 7.95601C7.26241 8.187 7.50014 8.41877 7.73777 8.65066C8.04273 8.94818 8.34776 9.24562 8.65294 9.54289C9.22023 10.0955 9.78706 10.6487 10.3532 11.2026C10.4437 11.2911 10.5341 11.3795 10.6246 11.4679C11.1088 11.941 11.5908 12.4166 12.069 12.8966C12.1117 12.9393 12.1544 12.982 12.1983 13.026C12.7075 13.5388 13.1651 14.0904 13.6118 14.6648C13.8169 14.9281 14.0254 15.1882 14.2339 15.4485C14.2739 15.4985 14.3139 15.5484 14.3552 15.5999C14.4373 15.7025 14.5194 15.805 14.6016 15.9075C14.7993 16.1543 14.9968 16.4013 15.1943 16.6483C15.2726 16.7462 15.3509 16.8442 15.4293 16.9421C16.839 18.7046 16.839 18.7046 16.9566 18.8516C17.0346 18.9491 17.1126 19.0465 17.1905 19.144C17.3708 19.3694 17.5511 19.5947 17.7312 19.8201C18.3597 20.6064 18.3597 20.6064 18.9912 21.3897C19.1683 21.2708 19.3168 21.1308 19.4709 20.9796C19.5092 20.9422 19.5092 20.9422 19.5482 20.904C19.6291 20.8248 19.7099 20.7454 19.7906 20.666C19.8457 20.612 19.9007 20.5581 19.9558 20.5041C20.0903 20.3724 20.2247 20.2404 20.359 20.1084C20.2967 19.9396 20.2163 19.8418 20.0915 19.7208C20.0539 19.6839 20.0162 19.6471 19.9774 19.6091C19.9361 19.5694 19.8948 19.5296 19.8523 19.4886C19.7876 19.4256 19.7876 19.4256 19.7217 19.3614C19.6285 19.2706 19.5352 19.1799 19.4417 19.0894C19.2935 18.946 19.1457 18.8021 18.998 18.6581C18.9609 18.6219 18.9609 18.6219 18.923 18.585C18.8728 18.5361 18.8227 18.4872 18.7725 18.4383C18.6966 18.3644 18.6207 18.2905 18.5448 18.2166C18.0929 17.7768 17.6439 17.3337 17.1959 16.8892C17.1243 16.8182 17.0526 16.7471 16.9809 16.676C16.8737 16.5698 16.7666 16.4635 16.6595 16.3572C16.3562 16.0563 16.0524 15.7559 15.7486 15.4556C15.4499 15.1603 15.1514 14.8647 14.8532 14.5688C14.6756 14.3927 14.4977 14.2168 14.3194 14.0415C13.5068 13.2417 12.7902 12.3741 12.08 11.4715C11.8372 11.1635 11.5909 10.8586 11.3444 10.5539C11.029 10.1641 10.7154 9.77286 10.4045 9.37894C10.0965 8.98876 9.78618 8.60073 9.47404 8.21429C9.45289 8.18811 9.43175 8.16193 9.40996 8.13495C9.25914 7.94825 9.10823 7.76164 8.9573 7.57505C8.78499 7.36202 8.61274 7.14895 8.44056 6.93581C8.39903 6.88441 8.3575 6.83301 8.31471 6.78006C7.98618 6.37283 7.66079 5.96286 7.33752 5.55084C7.30389 5.50812 7.27025 5.46539 7.2356 5.42137C7.20607 5.38371 7.17653 5.34604 7.14609 5.30723C7.0886 5.22457 7.0886 5.22457 7.03168 5.20836Z" fill="white"/>
<path d="M7.01001 4.36692C7.18133 4.46184 7.29004 4.56842 7.41332 4.72552C7.44981 4.77162 7.48629 4.81772 7.52389 4.86522C7.56301 4.91528 7.60213 4.96535 7.64243 5.01693C7.68407 5.06969 7.72573 5.12242 7.76744 5.17511C7.83273 5.25762 7.89801 5.34014 7.96317 5.42277C8.17566 5.6921 8.39085 5.95887 8.60649 6.22531C8.99364 6.70375 9.37881 7.18397 9.76304 7.66511C10.0292 7.99823 10.2966 8.33021 10.5646 8.66169C10.8999 9.07645 11.2336 9.49247 11.5643 9.91143C11.9203 10.3623 12.2795 10.8102 12.6406 11.2563C12.8346 11.4959 13.0283 11.7358 13.2197 11.9778C13.2522 12.0187 13.2846 12.0595 13.3181 12.1016C13.3758 12.1742 13.4333 12.2471 13.4904 12.3203C14.0535 13.0271 14.7142 13.6464 15.352 14.2744C15.4315 14.3528 15.5109 14.4312 15.5903 14.5096C15.7463 14.6635 15.9023 14.8174 16.0584 14.9712C16.2267 15.1371 16.3947 15.3033 16.5626 15.4696C17.1534 16.0547 17.7474 16.6362 18.3415 17.2175C18.365 17.2406 18.3886 17.2637 18.4129 17.2874C18.4839 17.3569 18.555 17.4265 18.626 17.496C19.2425 18.0993 19.8579 18.7039 20.4704 19.3118C20.5022 19.3434 20.5341 19.3751 20.567 19.4077C20.6551 19.4951 20.7432 19.5826 20.8312 19.6701C20.8568 19.6956 20.8824 19.721 20.9088 19.7473C20.9961 19.8342 21.0831 19.9208 21.166 20.0126C21.0797 20.1782 20.9922 20.2972 20.8589 20.4226C20.8232 20.4565 20.7875 20.4905 20.7507 20.5254C20.6927 20.5798 20.6927 20.5798 20.6335 20.6353C20.5507 20.7138 20.468 20.7923 20.3852 20.8709C20.3413 20.9125 20.2974 20.9542 20.2522 20.997C20.0043 21.2332 19.7589 21.4724 19.5134 21.7114C19.4203 21.8019 19.3272 21.8924 19.2341 21.9829C19.166 22.0492 19.0979 22.1155 19.0298 22.1817C18.8069 22.1008 18.7074 21.9662 18.5601 21.7819C18.5316 21.7468 18.5031 21.7118 18.4738 21.6757C18.1634 21.2924 17.8579 20.9045 17.5522 20.517C17.3222 20.2257 17.0907 19.9357 16.8587 19.646C16.8197 19.5973 16.7807 19.5485 16.7404 19.4983C16.6612 19.3994 16.582 19.3004 16.5028 19.2015C16.3065 18.9564 16.1104 18.7111 15.9142 18.4658C15.8359 18.3679 15.7576 18.27 15.6792 18.1721C14.2695 16.4096 14.2695 16.4096 14.1519 16.2626C14.0738 16.1649 13.9956 16.0672 13.9174 15.9696C13.719 15.7218 13.521 15.4736 13.3239 15.2247C13.0924 14.9328 12.8595 14.6422 12.6247 14.3533C12.5934 14.3148 12.562 14.2762 12.5298 14.2365C11.9983 13.5887 11.4043 13.015 10.8072 12.438C10.4013 12.0456 9.99851 11.6496 9.59531 11.2541C8.08081 9.76889 6.5656 8.28431 5.03559 6.81719C5.15427 6.56411 5.30992 6.37256 5.48723 6.16463C5.51695 6.12938 5.54667 6.09412 5.57728 6.0578C5.67209 5.94542 5.76724 5.83338 5.8624 5.72134C5.92527 5.64694 5.98812 5.57252 6.05094 5.49808C6.22613 5.29064 6.40173 5.08358 6.57743 4.87662C6.62448 4.82116 6.67153 4.7657 6.71857 4.71023C6.81569 4.59576 6.91283 4.48132 7.01001 4.36692ZM7.03168 5.20836C6.86024 5.4039 6.68929 5.59991 6.51879 5.79638C6.4607 5.86317 6.40248 5.92982 6.34412 5.99634C6.26033 6.09191 6.17703 6.18793 6.09381 6.28405C6.06756 6.31377 6.04132 6.34349 6.01427 6.37411C5.86129 6.54518 5.86129 6.54518 5.82575 6.77082C5.92638 6.89424 5.92638 6.89424 6.06417 7.02328C6.09012 7.04869 6.11607 7.0741 6.14281 7.10029C6.23111 7.18654 6.31995 7.27212 6.4088 7.35774C6.47275 7.41999 6.53666 7.48228 6.60054 7.54461C6.74147 7.682 6.88265 7.8191 7.024 7.95601C7.26241 8.187 7.50014 8.41877 7.73777 8.65066C8.04273 8.94818 8.34776 9.24562 8.65294 9.54289C9.22023 10.0955 9.78706 10.6487 10.3532 11.2026C10.4437 11.2911 10.5341 11.3795 10.6246 11.4679C11.1088 11.941 11.5908 12.4166 12.069 12.8966C12.1117 12.9393 12.1544 12.982 12.1983 13.026C12.7075 13.5388 13.1651 14.0904 13.6118 14.6648C13.8169 14.9281 14.0254 15.1882 14.2339 15.4485C14.2739 15.4985 14.3139 15.5484 14.3552 15.5999C14.4373 15.7025 14.5194 15.805 14.6016 15.9075C14.7993 16.1543 14.9968 16.4013 15.1943 16.6483C15.2726 16.7462 15.3509 16.8442 15.4293 16.9421C16.839 18.7046 16.839 18.7046 16.9566 18.8516C17.0346 18.9491 17.1126 19.0465 17.1905 19.144C17.3708 19.3694 17.5511 19.5947 17.7312 19.8201C18.3597 20.6064 18.3597 20.6064 18.9912 21.3897C19.1683 21.2708 19.3168 21.1308 19.4709 20.9796C19.5092 20.9422 19.5092 20.9422 19.5482 20.904C19.6291 20.8248 19.7099 20.7454 19.7906 20.666C19.8457 20.612 19.9007 20.5581 19.9558 20.5041C20.0903 20.3724 20.2247 20.2404 20.359 20.1084C20.2967 19.9396 20.2163 19.8418 20.0915 19.7208C20.0539 19.6839 20.0162 19.6471 19.9774 19.6091C19.9361 19.5694 19.8948 19.5296 19.8523 19.4886C19.7876 19.4256 19.7876 19.4256 19.7217 19.3614C19.6285 19.2706 19.5352 19.1799 19.4417 19.0894C19.2935 18.946 19.1457 18.8021 18.998 18.6581C18.9609 18.6219 18.9609 18.6219 18.923 18.585C18.8728 18.5361 18.8227 18.4872 18.7725 18.4383C18.6966 18.3644 18.6207 18.2905 18.5448 18.2166C18.0929 17.7768 17.6439 17.3337 17.1959 16.8892C17.1243 16.8182 17.0526 16.7471 16.9809 16.676C16.8737 16.5698 16.7666 16.4635 16.6595 16.3572C16.3562 16.0563 16.0524 15.7559 15.7486 15.4556C15.4499 15.1603 15.1514 14.8647 14.8532 14.5688C14.6756 14.3927 14.4977 14.2168 14.3194 14.0415C13.5068 13.2417 12.7902 12.3741 12.08 11.4715C11.8372 11.1635 11.5909 10.8586 11.3444 10.5539C11.029 10.1641 10.7154 9.77286 10.4045 9.37894C10.0965 8.98876 9.78618 8.60073 9.47404 8.21429C9.45289 8.18811 9.43175 8.16193 9.40996 8.13495C9.25914 7.94825 9.10823 7.76164 8.9573 7.57505C8.78499 7.36202 8.61274 7.14895 8.44056 6.93581C8.39903 6.88441 8.3575 6.83301 8.31471 6.78006C7.98618 6.37283 7.66079 5.96286 7.33752 5.55084C7.30389 5.50812 7.27025 5.46539 7.2356 5.42137C7.20607 5.38371 7.17653 5.34604 7.14609 5.30723C7.0886 5.22457 7.0886 5.22457 7.03168 5.20836Z" stroke="white" stroke-width="0.4" mask="url(#path-1-outside-1_1961_1250)"/>
<path d="M5.80707 2.01937L5.77424 2.01966C5.27753 2.02905 4.82477 1.88885 4.36482 1.76376C4.2829 1.7419 4.2011 1.71959 4.11671 1.69707C3.96189 1.6557 3.80685 1.61325 3.65218 1.57137C3.67717 1.60409 3.70204 1.63739 3.72756 1.6708C3.94076 1.95076 4.15211 2.23232 4.36273 2.51417C4.46993 2.65669 4.57805 2.79848 4.68653 2.93998C4.8629 3.17017 5.03673 3.40253 5.21061 3.63449C5.26793 3.70834 5.3257 3.78266 5.38476 3.85874L5.38566 3.85911L5.38529 3.86001C5.43739 3.93032 5.49043 4.00028 5.54411 4.07271L5.54321 4.07234L5.68662 4.2608L5.69398 4.2712L5.6927 4.27173C5.73071 4.36341 5.75547 4.42099 5.75666 4.48677C5.75771 4.55063 5.73612 4.62162 5.70135 4.74059L5.69819 4.7509L5.65341 4.72625L5.69728 4.75053C5.64289 4.84944 5.61241 4.90667 5.5817 4.94276C5.54699 4.98355 5.51109 4.99885 5.46194 5.02143L5.43992 5.03141L5.41896 5.02073C5.06642 4.8423 4.8506 4.64713 4.62036 4.32152L4.44708 4.07969C4.38822 3.99579 4.32922 3.91199 4.27043 3.82804C4.15419 3.66459 4.03761 3.50131 3.92119 3.33801C3.86512 3.25901 3.80893 3.17995 3.75116 3.09856L3.75153 3.09766C3.55433 2.82421 3.34988 2.55701 3.14364 2.29077C3.14571 2.29922 3.14789 2.30808 3.14997 2.31657C3.17734 2.42927 3.20465 2.54237 3.232 2.65507C3.24552 2.71016 3.25955 2.76512 3.27348 2.82188L3.27311 2.82278C3.39053 3.30817 3.45061 3.55613 3.46954 3.71982C3.48917 3.89002 3.46482 3.97416 3.42009 4.12692L3.41656 4.13814L3.37215 4.11258L3.41565 4.13777C3.37301 4.21205 3.34702 4.25738 3.31836 4.28789C3.28683 4.32133 3.25184 4.33707 3.20373 4.35916L3.18808 4.36648L3.1707 4.36253C3.08621 4.34237 3.03914 4.33084 2.9912 4.31125C2.94373 4.29183 2.89569 4.26444 2.80826 4.21424L2.79401 4.20524L2.78723 4.19086C2.74486 4.09688 2.72241 4.04683 2.70322 3.98872L2.63898 3.74086C2.60398 3.59696 2.6037 3.59694 2.568 3.45014L2.56746 3.44887C2.4281 2.82304 2.29813 2.19437 2.17351 1.56464C2.13373 1.36997 2.13399 1.37183 2.04765 1.12697L2.04535 1.11969L2.09457 1.11029L2.04572 1.11879C1.9899 0.798855 2.10267 0.616822 2.22448 0.341484L2.24165 0.302085L2.28236 0.313467C2.74535 0.438123 3.20824 0.564156 3.67071 0.690523C3.82792 0.733353 3.9855 0.775917 4.14284 0.818277C4.36933 0.879296 4.59553 0.941161 4.82163 1.00315L5.03391 1.0594L5.03481 1.05977C5.38402 1.1564 5.68499 1.25653 5.98721 1.4811L6.01786 1.50419L5.80707 2.01937Z" fill="white" stroke="white" stroke-width="0.1"/>
<path d="M23.2893 21.7549C23.3537 21.7817 23.3927 21.797 23.4317 21.8247L23.573 21.9564L23.5829 21.9658L23.5861 21.9787C23.6401 22.1844 23.6779 22.3737 23.7077 22.5866L23.7355 22.7636C23.8032 23.2076 23.8628 23.6544 23.9158 24.1025L23.9587 24.3817L24.0133 24.6584L24.0145 24.6631L24.0136 24.6627C24.0302 24.824 24.0244 24.9475 23.9943 25.0684C23.9645 25.1883 23.9112 25.3035 23.8368 25.4482L23.8232 25.4764L23.792 25.4752C23.6106 25.4725 23.4887 25.4512 23.322 25.399C23.2729 25.3837 23.2237 25.3686 23.1731 25.3528L23.1722 25.3525C23.0929 25.3274 23.0926 25.3272 23.0116 25.3015L23.0121 25.3028C22.9573 25.2857 22.9021 25.2682 22.8457 25.2505C22.7297 25.2142 22.6139 25.1776 22.498 25.141C22.3211 25.0852 22.1439 25.0296 21.9669 24.9743C21.8543 24.939 21.7416 24.9042 21.6291 24.8688C21.5764 24.8523 21.5237 24.8353 21.4694 24.8183C20.911 24.6417 20.906 24.6401 20.7531 24.56L20.7348 24.5504L20.7286 24.5321C20.699 24.4417 20.6795 24.3847 20.6804 24.3277C20.6813 24.2707 20.7023 24.2145 20.7347 24.1252L20.7362 24.1216C20.7733 24.0414 20.7742 24.0414 20.812 23.9595L20.8251 23.93L20.8576 23.9306C21.2957 23.9355 21.6804 24.0501 22.0821 24.1742C22.1477 24.194 22.2136 24.2141 22.2811 24.2345C22.4 24.2705 22.5188 24.3069 22.6375 24.3434C22.5654 24.2224 22.4933 24.1014 22.421 23.9805C22.3394 23.8441 22.2585 23.7071 22.1772 23.5705C21.98 23.2407 21.7805 22.9149 21.5695 22.5981C21.5343 22.5446 21.4994 22.4904 21.4631 22.4353L21.4627 22.4362C21.3965 22.3364 21.3295 22.2374 21.2612 22.1396L21.2607 22.1383C21.1533 21.9754 21.092 21.8845 21.0666 21.7951C21.0406 21.7032 21.053 21.6144 21.0714 21.4636L21.0729 21.4495L21.1205 21.47L21.0748 21.4502C21.1138 21.3582 21.1366 21.3036 21.1618 21.2685C21.1908 21.228 21.2234 21.2116 21.2658 21.1897L21.2834 21.18L21.3022 21.1856C21.4632 21.2307 21.5807 21.2912 21.6799 21.3792C21.778 21.4662 21.8566 21.5781 21.9436 21.7224L22.082 21.9489C22.1292 22.0282 22.1768 22.108 22.224 22.1874L22.364 22.4177C22.5009 22.6432 22.6368 22.8698 22.7721 23.0964C22.8588 23.2409 22.9458 23.3857 23.0326 23.5301C23.0574 23.5715 23.0824 23.6132 23.1072 23.6545C23.0648 23.2314 23.0551 23.1589 22.9638 22.6177L22.9631 22.6143C22.9455 22.4509 22.9484 22.327 22.9773 22.2055C23.0061 22.0848 23.0599 21.9694 23.1381 21.8228L23.1458 21.8091L23.1593 21.8019C23.1625 21.8003 23.1617 21.8005 23.1648 21.7989L23.1673 21.7978C23.1691 21.7969 23.1685 21.7968 23.1702 21.7959C23.1743 21.7937 23.1716 21.7949 23.1757 21.7928L23.1808 21.7907C23.1847 21.7887 23.1991 21.7819 23.2032 21.7798C23.2063 21.7782 23.203 21.7794 23.2061 21.7778C23.208 21.7768 23.2064 21.7779 23.2087 21.7767L23.2116 21.7748L23.2141 21.7737L23.225 21.7676C23.2302 21.765 23.2306 21.765 23.2356 21.7625C23.2401 21.7601 23.2371 21.7615 23.2411 21.7594L23.2474 21.7567L23.2677 21.746L23.2893 21.7549Z" fill="white" stroke="white" stroke-width="0.1"/>
</svg>
