<svg width="95" height="95" viewBox="0 0 95 95" fill="none" xmlns="http://www.w3.org/2000/svg">
<g clip-path="url(#clip0_2003_93)">
<path d="M47.5 0.0185547C63.0859 0.0185547 78.6669 0.0123698 94.243 0C94.8757 0 95.0018 0.124316 95 0.758887C94.9814 31.9196 94.9814 63.0804 95 94.2411C95 94.8757 94.8757 95 94.243 95C63.0822 94.979 31.9209 94.979 0.758887 95C0.124316 95 0 94.8757 0 94.2411C0.0197917 63.0804 0.0197917 31.9196 0 0.758887C0 0.124316 0.120605 0 0.758887 0C16.3399 0.0222656 31.9202 0.0284505 47.5 0.0185547Z" fill="url(#paint0_radial_2003_93)"/>
<path d="M47.3965 21.6453C48.2863 20.7729 48.2849 20.7754 49.1748 21.7117C61.5272 34.7026 73.878 47.6942 86.2266 60.6863C86.8068 61.2898 87.2844 61.9768 87.8125 62.6209C88.0948 62.969 88.0931 63.1738 87.5674 63.201C86.7007 63.2474 85.8354 63.3807 84.9688 63.3787C73.2741 63.3374 61.5807 63.2877 49.8887 63.2283C49.4108 63.2283 48.9207 63.1621 48.499 63.4871C48.3942 63.5663 48.2695 63.6154 48.1387 63.6277C48.0079 63.64 47.8765 63.6147 47.7588 63.5565C46.8612 63.009 45.8815 63.2283 44.9375 63.2244C32.9554 63.1599 20.972 63.1078 8.9873 63.0691C7.98305 63.0642 6.98154 62.9554 6 62.743C6.57049 61.9121 7.21059 61.1307 7.91309 60.408C21.0781 47.4932 34.2392 34.5718 47.3965 21.6453ZM66.9736 44.0516C66.4088 43.4539 66.2136 43.8461 65.8906 44.2039C62.0216 48.514 58.1522 52.8231 54.2832 57.1307C53.2599 58.27 52.2423 59.4151 51.0508 60.7498L82.6885 60.7479C82.7038 60.5352 82.5134 60.4331 82.3877 60.3016C77.2303 54.9043 72.0923 49.4875 66.9736 44.0516ZM29.4521 44.1619C28.9086 43.5758 28.6378 43.5466 28.0576 44.1268C22.7635 49.3435 17.4636 54.5558 12.1592 59.7635C11.958 59.9627 11.7665 60.1739 11.3545 60.6053H44.748C44.485 60.3054 44.2821 60.0611 44.0654 59.8309C39.1751 54.6271 34.3038 49.4043 29.4521 44.1619ZM47.002 25.6072C46.7389 25.8413 46.5471 26.0103 46.3672 26.1883C41.2409 31.214 36.1416 36.2551 30.9883 41.2498C30.3403 41.8785 30.4623 42.1764 31.002 42.7566C36.0613 48.1552 41.1163 53.5597 46.168 58.9686C46.3614 59.1774 46.5321 59.4092 46.7139 59.6316L47.002 59.5174V25.6072ZM49.9082 26.1453C49.7534 25.9828 49.6481 25.6778 49.2109 25.8055V59.5174C49.3906 59.3686 49.4783 59.3015 49.5479 59.2068C54.5272 53.642 59.524 48.0916 64.5381 42.5565C65.0274 42.0265 64.7767 41.7705 64.417 41.3953C59.5859 36.3089 54.7496 31.2253 49.9082 26.1453Z" fill="black"/>
</g>
<defs>
<radialGradient id="paint0_radial_2003_93" cx="0" cy="0" r="1" gradientUnits="userSpaceOnUse" gradientTransform="translate(47.5 47.5) rotate(90) scale(47.5 47.5)">
<stop offset="0.4" stop-color="white"/>
<stop offset="1" stop-color="white" stop-opacity="0.5"/>
</radialGradient>
<clipPath id="clip0_2003_93">
<rect width="95" height="95" fill="white"/>
</clipPath>
</defs>
</svg>
