<svg width="95" height="95" viewBox="0 0 95 95" fill="none" xmlns="http://www.w3.org/2000/svg">
<rect width="95" height="95" rx="20" fill="url(#paint0_radial_2013_108)"/>
<path d="M47.3965 22.6453C48.2863 21.7729 48.2849 21.7754 49.1748 22.7117C61.5272 35.7026 73.878 48.6942 86.2266 61.6863C86.8068 62.2898 87.2844 62.9768 87.8125 63.6209C88.0948 63.969 88.0931 64.1738 87.5674 64.201C86.7007 64.2474 85.8354 64.3807 84.9688 64.3787C73.2741 64.3375 61.5807 64.2877 49.8887 64.2283C49.4108 64.2283 48.9207 64.1621 48.499 64.4871C48.3942 64.5663 48.2695 64.6154 48.1387 64.6277C48.0079 64.64 47.8765 64.6147 47.7588 64.5565C46.8612 64.009 45.8815 64.2283 44.9375 64.2244C32.9554 64.1599 20.972 64.1078 8.9873 64.0691C7.98305 64.0642 6.98154 63.9554 6 63.743C6.57049 62.9121 7.21059 62.1307 7.91309 61.408C21.0781 48.4932 34.2392 35.5718 47.3965 22.6453ZM66.9736 45.0516C66.4088 44.4539 66.2136 44.8461 65.8906 45.2039C62.0216 49.514 58.1522 53.8231 54.2832 58.1307C53.2599 59.27 52.2423 60.4151 51.0508 61.7498L82.6885 61.7479C82.7038 61.5352 82.5134 61.4331 82.3877 61.3016C77.2303 55.9043 72.0923 50.4875 66.9736 45.0516ZM29.4521 45.1619C28.9086 44.5758 28.6378 44.5466 28.0576 45.1268C22.7635 50.3435 17.4636 55.5558 12.1592 60.7635C11.958 60.9627 11.7665 61.1739 11.3545 61.6053H44.748C44.485 61.3054 44.2821 61.0611 44.0654 60.8309C39.1751 55.6271 34.3038 50.4043 29.4521 45.1619ZM47.002 26.6072C46.7389 26.8413 46.5471 27.0103 46.3672 27.1883C41.2409 32.214 36.1416 37.2551 30.9883 42.2498C30.3403 42.8785 30.4623 43.1764 31.002 43.7566C36.0613 49.1552 41.1163 54.5597 46.168 59.9686C46.3614 60.1774 46.5321 60.4092 46.7139 60.6316L47.002 60.5174V26.6072ZM49.9082 27.1453C49.7534 26.9828 49.6481 26.6778 49.2109 26.8055V60.5174C49.3906 60.3686 49.4783 60.3015 49.5479 60.2068C54.5272 54.642 59.524 49.0916 64.5381 43.5565C65.0274 43.0265 64.7767 42.7705 64.417 42.3953C59.5859 37.3089 54.7496 32.2253 49.9082 27.1453Z" fill="black"/>
<defs>
<radialGradient id="paint0_radial_2013_108" cx="0" cy="0" r="1" gradientUnits="userSpaceOnUse" gradientTransform="translate(47.5 47.5) rotate(90) scale(47.5)">
<stop offset="0.4" stop-color="white"/>
<stop offset="1" stop-color="white" stop-opacity="0.5"/>
</radialGradient>
</defs>
</svg>
