<svg width="95" height="95" viewBox="0 0 95 95" fill="none" xmlns="http://www.w3.org/2000/svg">
<g clip-path="url(#clip0_1966_30)">
<circle cx="47.5" cy="47.5" r="47.5" fill="url(#paint0_radial_1966_30)"/>
<mask id="path-2-outside-1_1966_30" maskUnits="userSpaceOnUse" x="1" y="9" width="92" height="49" fill="black">
<rect fill="white" x="1" y="9" width="92" height="49"/>
<path d="M47.7505 11C48.5615 11.3803 49.0771 11.8654 49.707 12.5111C49.8098 12.6163 49.9126 12.7214 50.0185 12.8297C50.6966 13.5287 51.3365 14.2516 51.9647 14.9957C52.4989 15.5957 53.0648 16.1597 53.6332 16.7264C54.4523 17.5432 55.2316 18.3731 55.9779 19.2591C56.4705 19.8155 56.9939 20.3383 57.52 20.8622C58.1702 21.5098 58.8056 22.1608 59.3977 22.8638C60.0313 23.6144 60.7123 24.3054 61.4067 24.9979C62.2213 25.8102 62.9956 26.6354 63.7375 27.5165C64.3733 28.232 65.0565 28.8987 65.7338 29.5739C66.4387 30.2802 67.0998 31.0084 67.7433 31.7724C68.2359 32.3288 68.7593 32.8516 69.2853 33.3755C69.9356 34.023 70.571 34.6741 71.1631 35.3771C71.7967 36.1277 72.4776 36.8187 73.1721 37.5112C73.9867 38.3235 74.761 39.1486 75.5029 40.0298C76.1387 40.7453 76.8219 41.412 77.4991 42.0872C78.204 42.7935 78.8651 43.5217 79.5086 44.2856C80.0013 44.8421 80.5247 45.3649 81.0507 45.8887C81.7009 46.5363 82.3364 47.1874 82.9285 47.8903C83.6634 48.761 84.4662 49.5546 85.2717 50.3578C85.9856 51.0729 86.6576 51.8093 87.3076 52.5845C87.8741 53.2265 88.4952 53.8112 89.1156 54.3997C89.6622 55.0188 90.0001 55.6628 90.4 56.3872C84.9078 56.42 79.4156 56.4514 73.9233 56.4811C71.3724 56.495 68.8215 56.5092 66.2705 56.5247C64.0435 56.5381 61.8166 56.5507 59.5896 56.5622C58.4137 56.5683 57.2378 56.5748 56.0619 56.5824C51.6418 56.6108 47.2289 56.6238 42.8111 56.468C39.4501 56.3513 36.0888 56.3479 32.7262 56.3384C31.5375 56.3351 30.3488 56.33 29.1601 56.3247C25.7869 56.3098 22.4136 56.2968 19.0403 56.2861C17.1627 56.2801 15.285 56.2726 13.4074 56.2634C12.2258 56.2578 11.0443 56.254 9.86277 56.2516C9.13254 56.2496 8.40232 56.2459 7.6721 56.2418C7.33365 56.2402 6.99521 56.2393 6.65676 56.2392C6.19555 56.239 5.73443 56.2362 5.27324 56.2327C5.01526 56.2318 4.75728 56.2309 4.49148 56.23C3.87276 56.1778 3.52056 56.0792 3 55.7509C4.23061 54.3472 5.49424 52.9893 6.80881 51.6657C6.98402 51.4886 7.15923 51.3116 7.33974 51.1291C7.70688 50.7584 8.07428 50.3879 8.44193 50.0176C9.00094 49.4544 9.55882 48.8901 10.1166 48.3257C10.4759 47.9632 10.8352 47.6007 11.1946 47.2383C11.3592 47.0717 11.5238 46.9051 11.6934 46.7334C12.4056 46.0176 13.1202 45.3175 13.8843 44.6582C14.961 43.7212 15.9532 42.6984 16.9539 41.6806C17.314 41.3142 17.6749 40.9486 18.0359 40.5832C18.8022 39.8072 19.5676 39.0304 20.3329 38.2535C21.2209 37.3521 22.1092 36.4511 22.9984 35.5509C23.3512 35.1934 23.7033 34.8353 24.0554 34.4771C25.0548 33.4635 26.0621 32.4766 27.1394 31.5468C28.0534 30.7229 28.9069 29.8329 29.7698 28.9552C30.1299 28.5889 30.4908 28.2232 30.8518 27.8578C31.618 27.0818 32.3835 26.3051 33.1488 25.5281C34.0367 24.6267 34.9251 23.7257 35.8143 22.8255C36.167 22.468 36.5192 22.1099 36.8713 21.7517C37.886 20.7226 38.9082 19.7175 40.0023 18.7735C40.7585 18.1024 41.4607 17.3753 42.1698 16.6543C42.3306 16.4917 42.4915 16.329 42.6572 16.1614C43.1649 15.6477 43.6719 15.1333 44.1788 14.6188C44.5254 14.2679 44.872 13.917 45.2187 13.5662C46.0632 12.7114 46.9071 11.8559 47.7505 11ZM46.8337 14.4498C46.7135 14.5737 46.5933 14.6975 46.4694 14.8251C46.3355 14.9619 46.2015 15.0987 46.0636 15.2397C45.7845 15.5269 45.5054 15.8141 45.2265 16.1013C45.0906 16.2401 44.9548 16.3788 44.8149 16.5218C44.693 16.6473 44.5711 16.7728 44.4455 16.9021C44.0509 17.2834 43.6493 17.6402 43.2343 17.9981C42.1387 18.9604 41.1218 20.0007 40.0995 21.0407C39.7393 21.407 39.3785 21.7726 39.0175 22.138C38.2512 22.914 37.4857 23.6908 36.7204 24.4677C35.8325 25.3691 34.9442 26.2702 34.055 27.1703C33.7022 27.5278 33.35 27.8859 32.9979 28.2441C31.9625 29.2943 30.9222 30.3274 29.8024 31.2872C29.3546 31.6742 28.9396 32.0896 28.5267 32.5138C28.3154 32.73 28.3154 32.73 28.0999 32.9505C27.9472 33.1083 27.9472 33.1083 27.7913 33.2694C28.2594 34.1436 28.8179 34.7681 29.5246 35.4566C30.3444 36.2646 31.1214 37.0922 31.8652 37.9718C32.3218 38.4954 32.8136 38.9779 33.3064 39.4664C33.8224 39.9967 34.2966 40.5604 34.777 41.1234C35.2392 41.6483 35.7317 42.1363 36.2281 42.6279C36.6014 43.0112 36.9504 43.4059 37.2974 43.8134C38.068 44.708 38.8669 45.5721 39.6749 46.4322C39.9718 46.7495 40.2686 47.0668 40.5654 47.3841C40.7131 47.5421 40.8609 47.7 41.0131 47.8627C41.6679 48.5636 42.3197 49.2672 42.9708 49.9715C43.0895 50.0997 43.2082 50.228 43.3305 50.3601C43.9317 51.0107 44.5302 51.6637 45.1251 52.3202C45.2422 52.4492 45.3592 52.5782 45.4798 52.711C45.7021 52.9562 45.9238 53.2018 46.145 53.448C46.3959 53.7247 46.6524 53.9961 46.9101 54.2663C46.9794 54.2663 47.0488 54.2663 47.1202 54.2663C47.1568 50.8464 47.1917 47.4264 47.2252 44.0065C47.229 43.6245 47.229 43.6245 47.2328 43.2348C47.3035 35.976 47.3504 28.7178 47.3434 21.4587C47.3432 21.2701 47.3431 21.0816 47.3429 20.8873C47.3406 18.652 47.3365 16.4167 47.3303 14.1813C47.0807 14.1573 47.0807 14.1573 46.8337 14.4498ZM48.5909 14.1813C48.5526 16.5275 48.518 18.8738 48.4858 21.2201C48.4833 21.4018 48.4808 21.5835 48.4783 21.7708C48.3788 29.1031 48.3626 36.4349 48.3676 43.7679C48.3678 44.0298 48.368 44.2917 48.3682 44.5615C48.3706 47.7965 48.3748 51.0314 48.3808 54.2663C49.2299 53.4108 50.058 52.5408 50.8757 51.6549C51.0726 51.4418 51.0726 51.4418 51.2735 51.2243C52.0205 50.4135 52.756 49.5954 53.4715 48.7561C53.9712 48.1804 54.4851 47.6182 54.9988 47.0552C55.7644 46.2157 56.5197 45.3688 57.2606 44.5069C58.0021 43.6504 58.7609 42.8094 59.5159 41.9651C59.8311 41.6117 60.1462 41.2582 60.4613 40.9046C60.9386 40.3691 61.416 39.8338 61.8942 39.2991C62.6082 38.5001 63.3203 37.7001 64.0198 36.8882C64.952 35.8073 65.9117 34.7516 66.8692 33.6936C66.1861 32.5496 65.3345 31.6777 64.3875 30.7508C63.3937 29.7731 62.441 28.7832 61.5358 27.721C61.061 27.175 60.5561 26.6721 60.0411 26.1644C59.3904 25.5173 58.7554 24.8657 58.1634 24.1628C57.5297 23.4122 56.8488 22.7211 56.1543 22.0287C55.3397 21.2164 54.5655 20.3912 53.8236 19.5101C53.1889 18.7958 52.5071 18.1299 51.8305 17.4564C51.0968 16.7221 50.4048 15.9663 49.7464 15.1614C49.3941 14.7771 49.0083 14.4905 48.5909 14.1813ZM26.4079 34.6419C26.2641 34.7882 26.1204 34.9344 25.9722 35.0851C25.8094 35.2501 25.6466 35.4152 25.4789 35.5852C25.3014 35.7661 25.1239 35.9471 24.9411 36.1335C24.7588 36.3182 24.5766 36.503 24.3888 36.6934C23.606 37.4871 22.8244 38.282 22.0428 39.0769C21.473 39.6559 20.9026 40.2343 20.3321 40.8127C20.1576 40.9906 19.9831 41.1685 19.8034 41.3518C19.0604 42.1049 18.3165 42.8438 17.5172 43.5359C16.4008 44.5053 15.3714 45.5645 14.3321 46.6161C14.1131 46.837 13.8941 47.0579 13.6751 47.2787C13.2199 47.7379 12.7651 48.1975 12.3106 48.6573C11.7268 49.2478 11.1421 49.8374 10.5571 50.4267C10.1065 50.8808 9.6564 51.3354 9.20646 51.7902C8.99082 52.008 8.77503 52.2257 8.55908 52.4432C8.25938 52.7452 7.96042 53.0479 7.66151 53.3507C7.49116 53.5229 7.32081 53.695 7.1453 53.8723C6.75786 54.2024 6.75786 54.2024 6.78173 54.4784C25.9173 54.5834 25.9173 54.5834 45.4394 54.6905C44.3524 53.2244 44.3524 53.2244 43.1415 51.9333C42.3721 51.174 41.6519 50.3962 40.9527 49.5713C40.4993 49.0527 40.0126 48.5732 39.5237 48.089C39.1504 47.7058 38.8015 47.3111 38.4545 46.9036C37.6839 46.009 36.885 45.145 36.077 44.2848C35.7796 43.967 35.4822 43.6492 35.1849 43.3312C34.9632 43.0943 34.9632 43.0943 34.7369 42.8525C33.7301 41.7744 32.7309 40.6892 31.7303 39.6053C31.3467 39.1903 30.9622 38.7761 30.5776 38.3621C30.3185 38.0829 30.0594 37.8037 29.8004 37.5245C29.6772 37.3917 29.554 37.2589 29.4271 37.1221C28.6618 36.2942 27.9129 35.4552 27.1898 34.5892C27.111 34.5036 27.0322 34.418 26.951 34.3299C26.6908 34.3058 26.6908 34.3058 26.4079 34.6419ZM67.7096 34.542C66.7572 35.4809 65.8424 36.4361 64.9743 37.4549C64.4603 38.0485 63.9319 38.6283 63.4026 39.2079C62.637 40.0475 61.8817 40.8944 61.1408 41.7563C60.3993 42.6128 59.6406 43.4538 58.8856 44.2981C58.5704 44.6515 58.2552 45.005 57.9401 45.3585C57.3099 46.0655 56.6796 46.7725 56.0493 47.4794C55.8938 47.6538 55.7384 47.8283 55.5782 48.008C55.2578 48.3672 54.9372 48.7262 54.6164 49.085C53.7794 50.0215 52.9485 50.9623 52.1289 51.9142C51.4996 52.6357 50.856 53.344 50.2134 54.0534C49.8286 54.4118 49.8286 54.4118 49.8514 54.6905C61.9845 54.6905 74.1175 54.6905 86.6183 54.6905C85.7464 53.517 84.9298 52.5122 83.9001 51.5091C83.0046 50.622 82.1419 49.7313 81.3314 48.7636C80.7015 48.0519 80.0217 47.3909 79.3493 46.7204C78.6492 46.0189 77.9934 45.2956 77.3543 44.5367C76.7185 43.8212 76.0353 43.1545 75.3581 42.4792C74.6532 41.773 73.9921 41.0448 73.3486 40.2808C72.7615 39.6177 72.1304 38.9997 71.503 38.3759C70.9297 37.8027 70.3852 37.2174 69.8631 36.5966C69.2086 35.8207 68.4912 35.186 67.7096 34.542Z"/>
</mask>
<path d="M47.7505 11C48.5615 11.3803 49.0771 11.8654 49.707 12.5111C49.8098 12.6163 49.9126 12.7214 50.0185 12.8297C50.6966 13.5287 51.3365 14.2516 51.9647 14.9957C52.4989 15.5957 53.0648 16.1597 53.6332 16.7264C54.4523 17.5432 55.2316 18.3731 55.9779 19.2591C56.4705 19.8155 56.9939 20.3383 57.52 20.8622C58.1702 21.5098 58.8056 22.1608 59.3977 22.8638C60.0313 23.6144 60.7123 24.3054 61.4067 24.9979C62.2213 25.8102 62.9956 26.6354 63.7375 27.5165C64.3733 28.232 65.0565 28.8987 65.7338 29.5739C66.4387 30.2802 67.0998 31.0084 67.7433 31.7724C68.2359 32.3288 68.7593 32.8516 69.2853 33.3755C69.9356 34.023 70.571 34.6741 71.1631 35.3771C71.7967 36.1277 72.4776 36.8187 73.1721 37.5112C73.9867 38.3235 74.761 39.1486 75.5029 40.0298C76.1387 40.7453 76.8219 41.412 77.4991 42.0872C78.204 42.7935 78.8651 43.5217 79.5086 44.2856C80.0013 44.8421 80.5247 45.3649 81.0507 45.8887C81.7009 46.5363 82.3364 47.1874 82.9285 47.8903C83.6634 48.761 84.4662 49.5546 85.2717 50.3578C85.9856 51.0729 86.6576 51.8093 87.3076 52.5845C87.8741 53.2265 88.4952 53.8112 89.1156 54.3997C89.6622 55.0188 90.0001 55.6628 90.4 56.3872C84.9078 56.42 79.4156 56.4514 73.9233 56.4811C71.3724 56.495 68.8215 56.5092 66.2705 56.5247C64.0435 56.5381 61.8166 56.5507 59.5896 56.5622C58.4137 56.5683 57.2378 56.5748 56.0619 56.5824C51.6418 56.6108 47.2289 56.6238 42.8111 56.468C39.4501 56.3513 36.0888 56.3479 32.7262 56.3384C31.5375 56.3351 30.3488 56.33 29.1601 56.3247C25.7869 56.3098 22.4136 56.2968 19.0403 56.2861C17.1627 56.2801 15.285 56.2726 13.4074 56.2634C12.2258 56.2578 11.0443 56.254 9.86277 56.2516C9.13254 56.2496 8.40232 56.2459 7.6721 56.2418C7.33365 56.2402 6.99521 56.2393 6.65676 56.2392C6.19555 56.239 5.73443 56.2362 5.27324 56.2327C5.01526 56.2318 4.75728 56.2309 4.49148 56.23C3.87276 56.1778 3.52056 56.0792 3 55.7509C4.23061 54.3472 5.49424 52.9893 6.80881 51.6657C6.98402 51.4886 7.15923 51.3116 7.33974 51.1291C7.70688 50.7584 8.07428 50.3879 8.44193 50.0176C9.00094 49.4544 9.55882 48.8901 10.1166 48.3257C10.4759 47.9632 10.8352 47.6007 11.1946 47.2383C11.3592 47.0717 11.5238 46.9051 11.6934 46.7334C12.4056 46.0176 13.1202 45.3175 13.8843 44.6582C14.961 43.7212 15.9532 42.6984 16.9539 41.6806C17.314 41.3142 17.6749 40.9486 18.0359 40.5832C18.8022 39.8072 19.5676 39.0304 20.3329 38.2535C21.2209 37.3521 22.1092 36.4511 22.9984 35.5509C23.3512 35.1934 23.7033 34.8353 24.0554 34.4771C25.0548 33.4635 26.0621 32.4766 27.1394 31.5468C28.0534 30.7229 28.9069 29.8329 29.7698 28.9552C30.1299 28.5889 30.4908 28.2232 30.8518 27.8578C31.618 27.0818 32.3835 26.3051 33.1488 25.5281C34.0367 24.6267 34.9251 23.7257 35.8143 22.8255C36.167 22.468 36.5192 22.1099 36.8713 21.7517C37.886 20.7226 38.9082 19.7175 40.0023 18.7735C40.7585 18.1024 41.4607 17.3753 42.1698 16.6543C42.3306 16.4917 42.4915 16.329 42.6572 16.1614C43.1649 15.6477 43.6719 15.1333 44.1788 14.6188C44.5254 14.2679 44.872 13.917 45.2187 13.5662C46.0632 12.7114 46.9071 11.8559 47.7505 11ZM46.8337 14.4498C46.7135 14.5737 46.5933 14.6975 46.4694 14.8251C46.3355 14.9619 46.2015 15.0987 46.0636 15.2397C45.7845 15.5269 45.5054 15.8141 45.2265 16.1013C45.0906 16.2401 44.9548 16.3788 44.8149 16.5218C44.693 16.6473 44.5711 16.7728 44.4455 16.9021C44.0509 17.2834 43.6493 17.6402 43.2343 17.9981C42.1387 18.9604 41.1218 20.0007 40.0995 21.0407C39.7393 21.407 39.3785 21.7726 39.0175 22.138C38.2512 22.914 37.4857 23.6908 36.7204 24.4677C35.8325 25.3691 34.9442 26.2702 34.055 27.1703C33.7022 27.5278 33.35 27.8859 32.9979 28.2441C31.9625 29.2943 30.9222 30.3274 29.8024 31.2872C29.3546 31.6742 28.9396 32.0896 28.5267 32.5138C28.3154 32.73 28.3154 32.73 28.0999 32.9505C27.9472 33.1083 27.9472 33.1083 27.7913 33.2694C28.2594 34.1436 28.8179 34.7681 29.5246 35.4566C30.3444 36.2646 31.1214 37.0922 31.8652 37.9718C32.3218 38.4954 32.8136 38.9779 33.3064 39.4664C33.8224 39.9967 34.2966 40.5604 34.777 41.1234C35.2392 41.6483 35.7317 42.1363 36.2281 42.6279C36.6014 43.0112 36.9504 43.4059 37.2974 43.8134C38.068 44.708 38.8669 45.5721 39.6749 46.4322C39.9718 46.7495 40.2686 47.0668 40.5654 47.3841C40.7131 47.5421 40.8609 47.7 41.0131 47.8627C41.6679 48.5636 42.3197 49.2672 42.9708 49.9715C43.0895 50.0997 43.2082 50.228 43.3305 50.3601C43.9317 51.0107 44.5302 51.6637 45.1251 52.3202C45.2422 52.4492 45.3592 52.5782 45.4798 52.711C45.7021 52.9562 45.9238 53.2018 46.145 53.448C46.3959 53.7247 46.6524 53.9961 46.9101 54.2663C46.9794 54.2663 47.0488 54.2663 47.1202 54.2663C47.1568 50.8464 47.1917 47.4264 47.2252 44.0065C47.229 43.6245 47.229 43.6245 47.2328 43.2348C47.3035 35.976 47.3504 28.7178 47.3434 21.4587C47.3432 21.2701 47.3431 21.0816 47.3429 20.8873C47.3406 18.652 47.3365 16.4167 47.3303 14.1813C47.0807 14.1573 47.0807 14.1573 46.8337 14.4498ZM48.5909 14.1813C48.5526 16.5275 48.518 18.8738 48.4858 21.2201C48.4833 21.4018 48.4808 21.5835 48.4783 21.7708C48.3788 29.1031 48.3626 36.4349 48.3676 43.7679C48.3678 44.0298 48.368 44.2917 48.3682 44.5615C48.3706 47.7965 48.3748 51.0314 48.3808 54.2663C49.2299 53.4108 50.058 52.5408 50.8757 51.6549C51.0726 51.4418 51.0726 51.4418 51.2735 51.2243C52.0205 50.4135 52.756 49.5954 53.4715 48.7561C53.9712 48.1804 54.4851 47.6182 54.9988 47.0552C55.7644 46.2157 56.5197 45.3688 57.2606 44.5069C58.0021 43.6504 58.7609 42.8094 59.5159 41.9651C59.8311 41.6117 60.1462 41.2582 60.4613 40.9046C60.9386 40.3691 61.416 39.8338 61.8942 39.2991C62.6082 38.5001 63.3203 37.7001 64.0198 36.8882C64.952 35.8073 65.9117 34.7516 66.8692 33.6936C66.1861 32.5496 65.3345 31.6777 64.3875 30.7508C63.3937 29.7731 62.441 28.7832 61.5358 27.721C61.061 27.175 60.5561 26.6721 60.0411 26.1644C59.3904 25.5173 58.7554 24.8657 58.1634 24.1628C57.5297 23.4122 56.8488 22.7211 56.1543 22.0287C55.3397 21.2164 54.5655 20.3912 53.8236 19.5101C53.1889 18.7958 52.5071 18.1299 51.8305 17.4564C51.0968 16.7221 50.4048 15.9663 49.7464 15.1614C49.3941 14.7771 49.0083 14.4905 48.5909 14.1813ZM26.4079 34.6419C26.2641 34.7882 26.1204 34.9344 25.9722 35.0851C25.8094 35.2501 25.6466 35.4152 25.4789 35.5852C25.3014 35.7661 25.1239 35.9471 24.9411 36.1335C24.7588 36.3182 24.5766 36.503 24.3888 36.6934C23.606 37.4871 22.8244 38.282 22.0428 39.0769C21.473 39.6559 20.9026 40.2343 20.3321 40.8127C20.1576 40.9906 19.9831 41.1685 19.8034 41.3518C19.0604 42.1049 18.3165 42.8438 17.5172 43.5359C16.4008 44.5053 15.3714 45.5645 14.3321 46.6161C14.1131 46.837 13.8941 47.0579 13.6751 47.2787C13.2199 47.7379 12.7651 48.1975 12.3106 48.6573C11.7268 49.2478 11.1421 49.8374 10.5571 50.4267C10.1065 50.8808 9.6564 51.3354 9.20646 51.7902C8.99082 52.008 8.77503 52.2257 8.55908 52.4432C8.25938 52.7452 7.96042 53.0479 7.66151 53.3507C7.49116 53.5229 7.32081 53.695 7.1453 53.8723C6.75786 54.2024 6.75786 54.2024 6.78173 54.4784C25.9173 54.5834 25.9173 54.5834 45.4394 54.6905C44.3524 53.2244 44.3524 53.2244 43.1415 51.9333C42.3721 51.174 41.6519 50.3962 40.9527 49.5713C40.4993 49.0527 40.0126 48.5732 39.5237 48.089C39.1504 47.7058 38.8015 47.3111 38.4545 46.9036C37.6839 46.009 36.885 45.145 36.077 44.2848C35.7796 43.967 35.4822 43.6492 35.1849 43.3312C34.9632 43.0943 34.9632 43.0943 34.7369 42.8525C33.7301 41.7744 32.7309 40.6892 31.7303 39.6053C31.3467 39.1903 30.9622 38.7761 30.5776 38.3621C30.3185 38.0829 30.0594 37.8037 29.8004 37.5245C29.6772 37.3917 29.554 37.2589 29.4271 37.1221C28.6618 36.2942 27.9129 35.4552 27.1898 34.5892C27.111 34.5036 27.0322 34.418 26.951 34.3299C26.6908 34.3058 26.6908 34.3058 26.4079 34.6419ZM67.7096 34.542C66.7572 35.4809 65.8424 36.4361 64.9743 37.4549C64.4603 38.0485 63.9319 38.6283 63.4026 39.2079C62.637 40.0475 61.8817 40.8944 61.1408 41.7563C60.3993 42.6128 59.6406 43.4538 58.8856 44.2981C58.5704 44.6515 58.2552 45.005 57.9401 45.3585C57.3099 46.0655 56.6796 46.7725 56.0493 47.4794C55.8938 47.6538 55.7384 47.8283 55.5782 48.008C55.2578 48.3672 54.9372 48.7262 54.6164 49.085C53.7794 50.0215 52.9485 50.9623 52.1289 51.9142C51.4996 52.6357 50.856 53.344 50.2134 54.0534C49.8286 54.4118 49.8286 54.4118 49.8514 54.6905C61.9845 54.6905 74.1175 54.6905 86.6183 54.6905C85.7464 53.517 84.9298 52.5122 83.9001 51.5091C83.0046 50.622 82.1419 49.7313 81.3314 48.7636C80.7015 48.0519 80.0217 47.3909 79.3493 46.7204C78.6492 46.0189 77.9934 45.2956 77.3543 44.5367C76.7185 43.8212 76.0353 43.1545 75.3581 42.4792C74.6532 41.773 73.9921 41.0448 73.3486 40.2808C72.7615 39.6177 72.1304 38.9997 71.503 38.3759C70.9297 37.8027 70.3852 37.2174 69.8631 36.5966C69.2086 35.8207 68.4912 35.186 67.7096 34.542Z" fill="black"/>
<path d="M47.7505 11C48.5615 11.3803 49.0771 11.8654 49.707 12.5111C49.8098 12.6163 49.9126 12.7214 50.0185 12.8297C50.6966 13.5287 51.3365 14.2516 51.9647 14.9957C52.4989 15.5957 53.0648 16.1597 53.6332 16.7264C54.4523 17.5432 55.2316 18.3731 55.9779 19.2591C56.4705 19.8155 56.9939 20.3383 57.52 20.8622C58.1702 21.5098 58.8056 22.1608 59.3977 22.8638C60.0313 23.6144 60.7123 24.3054 61.4067 24.9979C62.2213 25.8102 62.9956 26.6354 63.7375 27.5165C64.3733 28.232 65.0565 28.8987 65.7338 29.5739C66.4387 30.2802 67.0998 31.0084 67.7433 31.7724C68.2359 32.3288 68.7593 32.8516 69.2853 33.3755C69.9356 34.023 70.571 34.6741 71.1631 35.3771C71.7967 36.1277 72.4776 36.8187 73.1721 37.5112C73.9867 38.3235 74.761 39.1486 75.5029 40.0298C76.1387 40.7453 76.8219 41.412 77.4991 42.0872C78.204 42.7935 78.8651 43.5217 79.5086 44.2856C80.0013 44.8421 80.5247 45.3649 81.0507 45.8887C81.7009 46.5363 82.3364 47.1874 82.9285 47.8903C83.6634 48.761 84.4662 49.5546 85.2717 50.3578C85.9856 51.0729 86.6576 51.8093 87.3076 52.5845C87.8741 53.2265 88.4952 53.8112 89.1156 54.3997C89.6622 55.0188 90.0001 55.6628 90.4 56.3872C84.9078 56.42 79.4156 56.4514 73.9233 56.4811C71.3724 56.495 68.8215 56.5092 66.2705 56.5247C64.0435 56.5381 61.8166 56.5507 59.5896 56.5622C58.4137 56.5683 57.2378 56.5748 56.0619 56.5824C51.6418 56.6108 47.2289 56.6238 42.8111 56.468C39.4501 56.3513 36.0888 56.3479 32.7262 56.3384C31.5375 56.3351 30.3488 56.33 29.1601 56.3247C25.7869 56.3098 22.4136 56.2968 19.0403 56.2861C17.1627 56.2801 15.285 56.2726 13.4074 56.2634C12.2258 56.2578 11.0443 56.254 9.86277 56.2516C9.13254 56.2496 8.40232 56.2459 7.6721 56.2418C7.33365 56.2402 6.99521 56.2393 6.65676 56.2392C6.19555 56.239 5.73443 56.2362 5.27324 56.2327C5.01526 56.2318 4.75728 56.2309 4.49148 56.23C3.87276 56.1778 3.52056 56.0792 3 55.7509C4.23061 54.3472 5.49424 52.9893 6.80881 51.6657C6.98402 51.4886 7.15923 51.3116 7.33974 51.1291C7.70688 50.7584 8.07428 50.3879 8.44193 50.0176C9.00094 49.4544 9.55882 48.8901 10.1166 48.3257C10.4759 47.9632 10.8352 47.6007 11.1946 47.2383C11.3592 47.0717 11.5238 46.9051 11.6934 46.7334C12.4056 46.0176 13.1202 45.3175 13.8843 44.6582C14.961 43.7212 15.9532 42.6984 16.9539 41.6806C17.314 41.3142 17.6749 40.9486 18.0359 40.5832C18.8022 39.8072 19.5676 39.0304 20.3329 38.2535C21.2209 37.3521 22.1092 36.4511 22.9984 35.5509C23.3512 35.1934 23.7033 34.8353 24.0554 34.4771C25.0548 33.4635 26.0621 32.4766 27.1394 31.5468C28.0534 30.7229 28.9069 29.8329 29.7698 28.9552C30.1299 28.5889 30.4908 28.2232 30.8518 27.8578C31.618 27.0818 32.3835 26.3051 33.1488 25.5281C34.0367 24.6267 34.9251 23.7257 35.8143 22.8255C36.167 22.468 36.5192 22.1099 36.8713 21.7517C37.886 20.7226 38.9082 19.7175 40.0023 18.7735C40.7585 18.1024 41.4607 17.3753 42.1698 16.6543C42.3306 16.4917 42.4915 16.329 42.6572 16.1614C43.1649 15.6477 43.6719 15.1333 44.1788 14.6188C44.5254 14.2679 44.872 13.917 45.2187 13.5662C46.0632 12.7114 46.9071 11.8559 47.7505 11ZM46.8337 14.4498C46.7135 14.5737 46.5933 14.6975 46.4694 14.8251C46.3355 14.9619 46.2015 15.0987 46.0636 15.2397C45.7845 15.5269 45.5054 15.8141 45.2265 16.1013C45.0906 16.2401 44.9548 16.3788 44.8149 16.5218C44.693 16.6473 44.5711 16.7728 44.4455 16.9021C44.0509 17.2834 43.6493 17.6402 43.2343 17.9981C42.1387 18.9604 41.1218 20.0007 40.0995 21.0407C39.7393 21.407 39.3785 21.7726 39.0175 22.138C38.2512 22.914 37.4857 23.6908 36.7204 24.4677C35.8325 25.3691 34.9442 26.2702 34.055 27.1703C33.7022 27.5278 33.35 27.8859 32.9979 28.2441C31.9625 29.2943 30.9222 30.3274 29.8024 31.2872C29.3546 31.6742 28.9396 32.0896 28.5267 32.5138C28.3154 32.73 28.3154 32.73 28.0999 32.9505C27.9472 33.1083 27.9472 33.1083 27.7913 33.2694C28.2594 34.1436 28.8179 34.7681 29.5246 35.4566C30.3444 36.2646 31.1214 37.0922 31.8652 37.9718C32.3218 38.4954 32.8136 38.9779 33.3064 39.4664C33.8224 39.9967 34.2966 40.5604 34.777 41.1234C35.2392 41.6483 35.7317 42.1363 36.2281 42.6279C36.6014 43.0112 36.9504 43.4059 37.2974 43.8134C38.068 44.708 38.8669 45.5721 39.6749 46.4322C39.9718 46.7495 40.2686 47.0668 40.5654 47.3841C40.7131 47.5421 40.8609 47.7 41.0131 47.8627C41.6679 48.5636 42.3197 49.2672 42.9708 49.9715C43.0895 50.0997 43.2082 50.228 43.3305 50.3601C43.9317 51.0107 44.5302 51.6637 45.1251 52.3202C45.2422 52.4492 45.3592 52.5782 45.4798 52.711C45.7021 52.9562 45.9238 53.2018 46.145 53.448C46.3959 53.7247 46.6524 53.9961 46.9101 54.2663C46.9794 54.2663 47.0488 54.2663 47.1202 54.2663C47.1568 50.8464 47.1917 47.4264 47.2252 44.0065C47.229 43.6245 47.229 43.6245 47.2328 43.2348C47.3035 35.976 47.3504 28.7178 47.3434 21.4587C47.3432 21.2701 47.3431 21.0816 47.3429 20.8873C47.3406 18.652 47.3365 16.4167 47.3303 14.1813C47.0807 14.1573 47.0807 14.1573 46.8337 14.4498ZM48.5909 14.1813C48.5526 16.5275 48.518 18.8738 48.4858 21.2201C48.4833 21.4018 48.4808 21.5835 48.4783 21.7708C48.3788 29.1031 48.3626 36.4349 48.3676 43.7679C48.3678 44.0298 48.368 44.2917 48.3682 44.5615C48.3706 47.7965 48.3748 51.0314 48.3808 54.2663C49.2299 53.4108 50.058 52.5408 50.8757 51.6549C51.0726 51.4418 51.0726 51.4418 51.2735 51.2243C52.0205 50.4135 52.756 49.5954 53.4715 48.7561C53.9712 48.1804 54.4851 47.6182 54.9988 47.0552C55.7644 46.2157 56.5197 45.3688 57.2606 44.5069C58.0021 43.6504 58.7609 42.8094 59.5159 41.9651C59.8311 41.6117 60.1462 41.2582 60.4613 40.9046C60.9386 40.3691 61.416 39.8338 61.8942 39.2991C62.6082 38.5001 63.3203 37.7001 64.0198 36.8882C64.952 35.8073 65.9117 34.7516 66.8692 33.6936C66.1861 32.5496 65.3345 31.6777 64.3875 30.7508C63.3937 29.7731 62.441 28.7832 61.5358 27.721C61.061 27.175 60.5561 26.6721 60.0411 26.1644C59.3904 25.5173 58.7554 24.8657 58.1634 24.1628C57.5297 23.4122 56.8488 22.7211 56.1543 22.0287C55.3397 21.2164 54.5655 20.3912 53.8236 19.5101C53.1889 18.7958 52.5071 18.1299 51.8305 17.4564C51.0968 16.7221 50.4048 15.9663 49.7464 15.1614C49.3941 14.7771 49.0083 14.4905 48.5909 14.1813ZM26.4079 34.6419C26.2641 34.7882 26.1204 34.9344 25.9722 35.0851C25.8094 35.2501 25.6466 35.4152 25.4789 35.5852C25.3014 35.7661 25.1239 35.9471 24.9411 36.1335C24.7588 36.3182 24.5766 36.503 24.3888 36.6934C23.606 37.4871 22.8244 38.282 22.0428 39.0769C21.473 39.6559 20.9026 40.2343 20.3321 40.8127C20.1576 40.9906 19.9831 41.1685 19.8034 41.3518C19.0604 42.1049 18.3165 42.8438 17.5172 43.5359C16.4008 44.5053 15.3714 45.5645 14.3321 46.6161C14.1131 46.837 13.8941 47.0579 13.6751 47.2787C13.2199 47.7379 12.7651 48.1975 12.3106 48.6573C11.7268 49.2478 11.1421 49.8374 10.5571 50.4267C10.1065 50.8808 9.6564 51.3354 9.20646 51.7902C8.99082 52.008 8.77503 52.2257 8.55908 52.4432C8.25938 52.7452 7.96042 53.0479 7.66151 53.3507C7.49116 53.5229 7.32081 53.695 7.1453 53.8723C6.75786 54.2024 6.75786 54.2024 6.78173 54.4784C25.9173 54.5834 25.9173 54.5834 45.4394 54.6905C44.3524 53.2244 44.3524 53.2244 43.1415 51.9333C42.3721 51.174 41.6519 50.3962 40.9527 49.5713C40.4993 49.0527 40.0126 48.5732 39.5237 48.089C39.1504 47.7058 38.8015 47.3111 38.4545 46.9036C37.6839 46.009 36.885 45.145 36.077 44.2848C35.7796 43.967 35.4822 43.6492 35.1849 43.3312C34.9632 43.0943 34.9632 43.0943 34.7369 42.8525C33.7301 41.7744 32.7309 40.6892 31.7303 39.6053C31.3467 39.1903 30.9622 38.7761 30.5776 38.3621C30.3185 38.0829 30.0594 37.8037 29.8004 37.5245C29.6772 37.3917 29.554 37.2589 29.4271 37.1221C28.6618 36.2942 27.9129 35.4552 27.1898 34.5892C27.111 34.5036 27.0322 34.418 26.951 34.3299C26.6908 34.3058 26.6908 34.3058 26.4079 34.6419ZM67.7096 34.542C66.7572 35.4809 65.8424 36.4361 64.9743 37.4549C64.4603 38.0485 63.9319 38.6283 63.4026 39.2079C62.637 40.0475 61.8817 40.8944 61.1408 41.7563C60.3993 42.6128 59.6406 43.4538 58.8856 44.2981C58.5704 44.6515 58.2552 45.005 57.9401 45.3585C57.3099 46.0655 56.6796 46.7725 56.0493 47.4794C55.8938 47.6538 55.7384 47.8283 55.5782 48.008C55.2578 48.3672 54.9372 48.7262 54.6164 49.085C53.7794 50.0215 52.9485 50.9623 52.1289 51.9142C51.4996 52.6357 50.856 53.344 50.2134 54.0534C49.8286 54.4118 49.8286 54.4118 49.8514 54.6905C61.9845 54.6905 74.1175 54.6905 86.6183 54.6905C85.7464 53.517 84.9298 52.5122 83.9001 51.5091C83.0046 50.622 82.1419 49.7313 81.3314 48.7636C80.7015 48.0519 80.0217 47.3909 79.3493 46.7204C78.6492 46.0189 77.9934 45.2956 77.3543 44.5367C76.7185 43.8212 76.0353 43.1545 75.3581 42.4792C74.6532 41.773 73.9921 41.0448 73.3486 40.2808C72.7615 39.6177 72.1304 38.9997 71.503 38.3759C70.9297 37.8027 70.3852 37.2174 69.8631 36.5966C69.2086 35.8207 68.4912 35.186 67.7096 34.542Z" stroke="black" stroke-width="2.28" mask="url(#path-2-outside-1_1966_30)"/>
</g>
<defs>
<radialGradient id="paint0_radial_1966_30" cx="0" cy="0" r="1" gradientUnits="userSpaceOnUse" gradientTransform="translate(47.5 47.5) rotate(90) scale(47.5)">
<stop offset="0.466346" stop-color="white"/>
<stop offset="1" stop-color="white" stop-opacity="0.5"/>
</radialGradient>
<clipPath id="clip0_1966_30">
<rect width="95" height="95" fill="white"/>
</clipPath>
</defs>
</svg>
