<svg width="607" height="310" viewBox="0 0 607 310" fill="none" xmlns="http://www.w3.org/2000/svg">
<path d="M606.03 296.404C544.037 291.598 413.692 258.794 388.254 166.025C362.816 73.2574 118.839 39.6351 0.029541 34.4199" stroke="url(#paint0_linear_2049_94)" stroke-opacity="0.99" stroke-width="1.35207"/>
<path d="M606.03 299.472C544.037 294.666 413.692 261.862 388.254 169.094C362.816 76.3257 118.839 42.7034 0.029541 37.4883" stroke="url(#paint1_linear_2049_94)" stroke-opacity="0.99" stroke-width="1.35207"/>
<path d="M606.03 302.54C544.037 297.734 413.692 264.929 388.254 172.161C362.816 79.3931 118.839 45.7708 0.029541 40.5557" stroke="url(#paint2_linear_2049_94)" stroke-opacity="0.99" stroke-width="1.35207"/>
<path d="M606.03 305.608C544.037 300.801 413.692 267.997 388.254 175.229C362.816 82.461 118.839 48.8387 0.029541 43.6235" stroke="url(#paint3_linear_2049_94)" stroke-opacity="0.99" stroke-width="1.35207"/>
<path d="M606.03 308.675C544.037 303.869 413.692 271.065 388.254 178.297C362.816 85.5288 118.839 51.9065 0.029541 46.6914" stroke="url(#paint4_linear_2049_94)" stroke-opacity="0.99" stroke-width="1.35207"/>
<path d="M606.03 293.337C544.037 288.53 413.692 255.726 388.254 162.958C362.816 70.19 118.839 36.5677 0.029541 31.3525" stroke="url(#paint5_linear_2049_94)" stroke-opacity="0.99" stroke-width="1.35207"/>
<path d="M606.03 290.269C544.037 285.463 413.692 252.659 388.254 159.891C362.816 67.1226 118.839 33.5003 0.029541 28.2852" stroke="url(#paint6_linear_2049_94)" stroke-opacity="0.99" stroke-width="1.35207"/>
<path d="M606.03 287.202C544.037 282.396 413.692 249.591 388.254 156.823C362.816 64.0552 118.839 30.4329 0.029541 25.2178" stroke="url(#paint7_linear_2049_94)" stroke-opacity="0.99" stroke-width="1.35207"/>
<path d="M606.03 284.133C544.037 279.327 413.692 246.523 388.254 153.755C362.816 60.9869 118.839 27.3646 0.029541 22.1494" stroke="url(#paint8_linear_2049_94)" stroke-opacity="0.99" stroke-width="1.35207"/>
<path d="M606.03 281.066C544.037 276.259 413.692 243.455 388.254 150.687C362.816 57.919 118.839 24.2967 0.029541 19.0815" stroke="url(#paint9_linear_2049_94)" stroke-opacity="0.99" stroke-width="1.35207"/>
<path d="M606.03 277.998C544.037 273.192 413.692 240.387 388.254 147.619C362.816 54.8511 118.839 21.2288 0.029541 16.0137" stroke="url(#paint10_linear_2049_94)" stroke-opacity="0.99" stroke-width="1.35207"/>
<path d="M606.03 274.93C544.037 270.124 413.692 237.319 388.254 144.551C362.816 51.7832 118.839 18.1609 0.029541 12.9458" stroke="url(#paint11_linear_2049_94)" stroke-opacity="0.99" stroke-width="1.35207"/>
<path d="M606.03 271.863C544.037 267.057 413.692 234.253 388.254 141.484C362.816 48.7163 118.839 15.094 0.029541 9.87891" stroke="url(#paint12_linear_2049_94)" stroke-opacity="0.99" stroke-width="1.35207"/>
<path d="M606.03 268.795C544.037 263.988 413.692 231.184 388.254 138.416C362.816 45.648 118.839 12.0257 0.029541 6.81055" stroke="url(#paint13_linear_2049_94)" stroke-opacity="0.99" stroke-width="1.35207"/>
<path d="M606.03 265.727C544.037 260.921 413.692 228.116 388.254 135.348C362.816 42.5801 118.839 8.95781 0.029541 3.74268" stroke="url(#paint14_linear_2049_94)" stroke-opacity="0.99" stroke-width="1.35207"/>
<path d="M606.03 262.659C544.037 257.853 413.692 225.049 388.254 132.281C362.816 39.5127 118.839 5.89043 0.029541 0.675293" stroke="url(#paint15_linear_2049_94)" stroke-opacity="0.99" stroke-width="1.35207"/>
<defs>
<linearGradient id="paint0_linear_2049_94" x1="303.03" y1="34.4199" x2="303.03" y2="296.404" gradientUnits="userSpaceOnUse">
<stop stop-color="#EFF6D4"/>
<stop offset="1" stop-color="#738820"/>
</linearGradient>
<linearGradient id="paint1_linear_2049_94" x1="303.03" y1="37.4883" x2="303.03" y2="299.472" gradientUnits="userSpaceOnUse">
<stop stop-color="#EFF6D4"/>
<stop offset="1" stop-color="#738820"/>
</linearGradient>
<linearGradient id="paint2_linear_2049_94" x1="303.03" y1="40.5557" x2="303.03" y2="302.54" gradientUnits="userSpaceOnUse">
<stop stop-color="#EFF6D4"/>
<stop offset="1" stop-color="#738820"/>
</linearGradient>
<linearGradient id="paint3_linear_2049_94" x1="303.03" y1="43.6235" x2="303.03" y2="305.608" gradientUnits="userSpaceOnUse">
<stop stop-color="#EFF6D4"/>
<stop offset="1" stop-color="#738820"/>
</linearGradient>
<linearGradient id="paint4_linear_2049_94" x1="303.03" y1="46.6914" x2="303.03" y2="308.675" gradientUnits="userSpaceOnUse">
<stop stop-color="#EFF6D4"/>
<stop offset="1" stop-color="#738820"/>
</linearGradient>
<linearGradient id="paint5_linear_2049_94" x1="303.03" y1="31.3525" x2="303.03" y2="293.337" gradientUnits="userSpaceOnUse">
<stop stop-color="#EFF6D4"/>
<stop offset="1" stop-color="#738820"/>
</linearGradient>
<linearGradient id="paint6_linear_2049_94" x1="303.03" y1="28.2852" x2="303.03" y2="290.269" gradientUnits="userSpaceOnUse">
<stop stop-color="#EFF6D4"/>
<stop offset="1" stop-color="#738820"/>
</linearGradient>
<linearGradient id="paint7_linear_2049_94" x1="303.03" y1="25.2178" x2="303.03" y2="287.202" gradientUnits="userSpaceOnUse">
<stop stop-color="#EFF6D4"/>
<stop offset="1" stop-color="#738820"/>
</linearGradient>
<linearGradient id="paint8_linear_2049_94" x1="303.03" y1="22.1494" x2="303.03" y2="284.133" gradientUnits="userSpaceOnUse">
<stop stop-color="#EFF6D4"/>
<stop offset="1" stop-color="#738820"/>
</linearGradient>
<linearGradient id="paint9_linear_2049_94" x1="303.03" y1="19.0815" x2="303.03" y2="281.066" gradientUnits="userSpaceOnUse">
<stop stop-color="#EFF6D4"/>
<stop offset="1" stop-color="#738820"/>
</linearGradient>
<linearGradient id="paint10_linear_2049_94" x1="303.03" y1="16.0137" x2="303.03" y2="277.998" gradientUnits="userSpaceOnUse">
<stop stop-color="#EFF6D4"/>
<stop offset="1" stop-color="#738820"/>
</linearGradient>
<linearGradient id="paint11_linear_2049_94" x1="303.03" y1="12.9458" x2="303.03" y2="274.93" gradientUnits="userSpaceOnUse">
<stop stop-color="#EFF6D4"/>
<stop offset="1" stop-color="#738820"/>
</linearGradient>
<linearGradient id="paint12_linear_2049_94" x1="303.03" y1="9.87891" x2="303.03" y2="271.863" gradientUnits="userSpaceOnUse">
<stop stop-color="#EFF6D4"/>
<stop offset="1" stop-color="#738820"/>
</linearGradient>
<linearGradient id="paint13_linear_2049_94" x1="303.03" y1="6.81055" x2="303.03" y2="268.795" gradientUnits="userSpaceOnUse">
<stop stop-color="#EFF6D4"/>
<stop offset="1" stop-color="#738820"/>
</linearGradient>
<linearGradient id="paint14_linear_2049_94" x1="303.03" y1="3.74268" x2="303.03" y2="265.727" gradientUnits="userSpaceOnUse">
<stop stop-color="#EFF6D4"/>
<stop offset="1" stop-color="#738820"/>
</linearGradient>
<linearGradient id="paint15_linear_2049_94" x1="303.03" y1="0.675293" x2="303.03" y2="262.659" gradientUnits="userSpaceOnUse">
<stop stop-color="#EFF6D4"/>
<stop offset="1" stop-color="#738820"/>
</linearGradient>
</defs>
</svg>
