<svg width="90" height="88" viewBox="0 0 90 88" fill="none" xmlns="http://www.w3.org/2000/svg">
<g opacity="0.9">
<path d="M41.4075 1.36933L40.545 1.45913L39.6825 4.5945L38.8125 7.73736L37.425 8.01423C35.88 8.32103 35.19 8.49314 33.9225 8.87477C33.4425 9.01695 33.015 9.12919 32.9625 9.11423C32.91 9.09926 31.95 8.06661 30.8325 6.80947C29.715 5.55232 28.755 4.49722 28.695 4.45981C28.6275 4.41491 28.455 4.44484 28.1925 4.55709C25.83 5.55981 23.1975 6.98906 20.6475 8.65028L19.5825 9.3462L20.1075 10.9027C20.3925 11.7557 20.8425 13.1251 21.105 13.9408L21.585 15.4224L20.64 16.2455C20.115 16.702 19.1475 17.5925 18.4875 18.221L17.28 19.3659L17.0625 19.2462C16.5075 18.9544 11.6625 16.687 11.5875 16.687C11.4975 16.6945 10.1625 18.2809 9.35995 19.351C8.20495 20.8775 6.93745 22.9054 6.14245 24.4768L5.77495 25.2101L8.02495 27.5074C9.26245 28.7646 10.275 29.8421 10.275 29.8945C10.275 29.9469 10.17 30.2312 10.0425 30.5306C9.65995 31.436 9.09745 33.0224 8.77495 34.0999C8.60995 34.6612 8.46745 35.1326 8.45245 35.1401C8.44495 35.155 6.98995 35.3421 5.22745 35.5666C3.46495 35.7911 2.00245 35.9931 1.97995 36.0156C1.91245 36.0829 1.66495 37.1904 1.46245 38.3129C1.11745 40.2884 1.02745 41.3659 1.01995 43.6557L1.01245 45.8183L4.10245 46.7238L7.19245 47.6217L7.23745 48.1156C7.34995 49.4401 7.52245 50.6823 7.77745 51.9843C7.92745 52.7775 8.03995 53.436 8.01745 53.451C8.00245 53.4659 6.82495 54.1918 5.39995 55.0598C3.97495 55.9278 2.74495 56.6836 2.66995 56.7435C2.52745 56.8482 2.52745 56.8707 2.80495 57.8135C3.48745 60.1108 4.50745 62.6625 5.63995 64.8925C6.16495 65.9401 6.33745 66.2244 6.45745 66.2244C6.53995 66.2244 7.91245 65.9925 9.50995 65.7006C11.1075 65.4163 12.51 65.1768 12.63 65.1618C12.8325 65.1394 12.8925 65.2142 13.5675 66.202C13.965 66.7857 14.8275 67.938 15.48 68.7686C16.6725 70.2652 16.6725 70.2652 16.83 70.1306C16.92 70.0482 18.765 68.5516 20.94 66.7931C23.115 65.0421 24.915 63.568 24.9375 63.5306C24.96 63.4857 24.7875 63.2088 24.5475 62.9095C20.88 58.4047 18.57 53.0244 17.955 47.5918C17.7375 45.6312 17.85 42.5482 18.2325 40.4081C20.19 29.2884 29.07 20.3911 40.2 18.3782C42.0075 18.0564 42.7425 17.9965 45.1125 17.9965C47.955 17.9965 49.4925 18.1836 51.9375 18.8197C59.7 20.8401 66.15 26.1605 69.6675 33.4489C70.905 36.0156 71.6925 38.6272 72.12 41.6054C72.285 42.7353 72.345 46.3795 72.2325 47.5843C71.835 51.5353 70.56 55.4863 68.6175 58.7863C67.9875 59.8564 66.9525 61.3455 66.3375 62.0714C66.0225 62.438 65.7 62.8346 65.6175 62.9469L65.475 63.1414L67.665 64.9673C69.51 66.4938 71.3025 67.938 73.4925 69.6367L73.8975 69.951L74.0625 69.7564C74.49 69.2401 75.855 67.3469 76.59 66.2469C77.2275 65.2965 77.445 65.0272 77.5725 65.0272C77.6625 65.0272 79.05 65.319 80.655 65.6707C83.46 66.2843 83.58 66.3067 83.685 66.172C83.8725 65.9251 85.4025 62.7673 85.8375 61.7346C86.31 60.6122 87.2625 57.8285 87.345 57.3496L87.39 57.0428L86.5725 56.3993C86.1225 56.0476 84.96 55.202 84 54.5135C82.8225 53.6829 82.2375 53.2265 82.245 53.1442C82.2525 53.0693 82.365 52.4258 82.485 51.7074C82.6125 50.9891 82.77 49.8891 82.8375 49.2755C82.905 48.6544 82.9725 48.0782 82.995 47.9959C83.0175 47.8612 83.4375 47.704 86.07 46.836L89.1225 45.8333L89.07 44.4863C88.98 41.9945 88.7775 39.9217 88.4625 38.051C88.215 36.5993 88.1325 36.2326 88.0275 36.1952C87.975 36.1802 86.6025 35.9857 84.975 35.7761C83.3475 35.5591 81.9675 35.3571 81.9075 35.3272C81.8475 35.2972 81.735 35.0428 81.66 34.751C81.42 33.868 81.075 32.8578 80.5725 31.5931C80.31 30.9197 80.1 30.321 80.115 30.2686C80.13 30.2088 81.0825 29.1911 82.245 28.0088C83.4 26.8265 84.375 25.8088 84.405 25.7564C84.5025 25.5918 83.055 23.0326 81.6975 20.9673C81.3075 20.3761 80.5875 19.3584 80.0925 18.6999C79.305 17.6598 79.17 17.5101 79.0275 17.555C78.9375 17.5775 77.64 18.0714 76.1475 18.6401C74.655 19.2163 73.395 19.6802 73.3575 19.6802C73.32 19.6802 72.6525 19.0442 71.8725 18.2734C71.1 17.4952 70.1475 16.6047 69.7725 16.2829C69.39 15.9612 69.075 15.6394 69.075 15.572C69.075 15.5047 69.45 14.1727 69.9 12.6163C70.3575 11.0598 70.725 9.72783 70.725 9.653C70.725 9.52579 70.5075 9.35368 69.15 8.45573C67.4925 7.34824 65.6175 6.31559 63.63 5.40266C63.0075 5.11831 62.4225 4.85641 62.325 4.82647C62.175 4.78158 61.875 5.05096 59.8575 7.05641L57.5625 9.33871L56.4 8.97205C55.185 8.59042 52.8675 7.9843 52.26 7.8945C52.065 7.86457 51.8775 7.8047 51.84 7.75232C51.8025 7.70743 51.4575 6.353 51.075 4.75164C50.2725 1.3394 50.325 1.57137 50.265 1.57137C50.235 1.57137 49.7925 1.51899 49.275 1.45164C48.0525 1.30198 42.66 1.24212 41.4075 1.36933ZM47.925 2.94076L49.005 3.03056L49.4325 4.78906C49.665 5.75436 50.0025 7.13872 50.175 7.86457L50.49 9.18906L51.555 9.3911C53.0475 9.66797 54.96 10.1693 56.5875 10.7081L57.9825 11.1646L60.225 8.9496C61.5675 7.63259 62.5275 6.73464 62.61 6.73464C62.7975 6.73464 65.7675 8.23124 66.75 8.82988C67.35 9.18906 68.7525 10.087 68.91 10.2142C68.9175 10.2217 68.535 11.5686 68.0625 13.1999C67.5825 14.8387 67.2 16.2081 67.215 16.238C67.23 16.268 67.6125 16.5972 68.0625 16.9639C69.69 18.2884 70.575 19.1414 72.51 21.2741L72.825 21.6258L75.5475 20.5857C77.04 20.0095 78.3525 19.5231 78.4575 19.4931C78.6375 19.4482 78.6975 19.5006 79.155 20.1292C80.19 21.5285 81.78 24.0278 82.3425 25.1278L82.5075 25.4421L80.385 27.6197C79.215 28.8095 78.255 29.8346 78.24 29.902C78.225 29.9618 78.5475 30.8598 78.9675 31.8999C79.62 33.5537 80.0775 34.9455 80.4225 36.3673L80.52 36.7789L83.37 37.1605C86.9025 37.6319 86.7675 37.602 86.8125 37.8115C86.91 38.2306 87.225 40.6925 87.3 41.6054C87.345 42.1591 87.39 43.087 87.3975 43.6557L87.4125 44.6959L84.4725 45.6761L81.525 46.6564L81.4875 46.8809C81.4725 47.0006 81.3825 47.7789 81.3 48.602C81.1125 50.338 80.8575 51.9768 80.5875 53.0993C80.4825 53.5333 80.4 53.8999 80.4 53.9149C80.4 53.9299 81.2025 54.5061 82.185 55.1945C83.16 55.8829 84.33 56.721 84.7725 57.0503C85.7175 57.7462 85.68 57.5367 85.125 59.1231C84.66 60.4476 84.1275 61.7047 83.3925 63.2238L82.8 64.451L82.485 64.4061C82.305 64.3836 80.9325 64.0993 79.4325 63.7625C77.9325 63.4333 76.68 63.1789 76.65 63.1938C76.62 63.2088 76.41 63.538 76.1775 63.9197C75.42 65.1918 73.71 67.6462 73.59 67.6462C73.515 67.6462 70.2675 65.0571 68.865 63.8823L67.725 62.9319L68.22 62.2734C70.875 58.7639 72.795 54.304 73.5375 49.8741C73.8375 48.1006 73.9125 47.1278 73.9125 45.085C73.9125 42.6979 73.74 41.0666 73.2375 38.7993C72.495 35.4095 70.8525 31.6829 68.7975 28.7421C66.6 25.5993 63.5475 22.7033 60.345 20.7129C53.6175 16.5374 45.6825 15.2952 37.995 17.2258C27.1575 19.9346 18.7125 28.9217 16.695 39.8843C16.335 41.8673 16.245 42.855 16.245 44.9727C16.245 46.9707 16.29 47.5993 16.5825 49.3802C17.2875 53.6605 19.335 58.5095 22.02 62.251C22.62 63.0816 22.725 63.2612 22.635 63.351C22.4175 63.568 16.9875 67.9455 16.935 67.9455C16.77 67.9455 14.955 65.4761 14.1975 64.2265C13.8225 63.6054 13.65 63.3809 13.5375 63.3809C13.455 63.3809 12.03 63.6203 10.38 63.9122C8.72245 64.2115 7.31245 64.4285 7.24495 64.4061C7.10245 64.3537 6.51745 63.1414 5.79745 61.4353C5.24245 60.1033 4.39495 57.6564 4.45495 57.5516C4.47745 57.5142 5.69995 56.751 7.16245 55.8605C8.62495 54.97 9.83995 54.2142 9.85495 54.1918C9.86995 54.1618 9.76495 53.6306 9.62995 53.0169C9.16495 50.9367 8.90995 49.2006 8.80495 47.3598L8.75245 46.4095L6.75745 45.8333C5.66245 45.5115 4.27495 45.1074 3.67495 44.9353L2.58745 44.6135L2.59495 43.2816C2.60245 42.5408 2.66245 41.4333 2.73745 40.8197C2.87995 39.5176 3.20245 37.5571 3.28495 37.4748C3.31495 37.4448 4.70245 37.2503 6.37495 37.0408C8.04745 36.8387 9.49495 36.6442 9.59245 36.6067C9.74995 36.5618 9.80245 36.4346 10.0275 35.5816C10.4025 34.1523 11.1075 32.1095 11.7 30.7326L12.225 29.5203L11.9025 29.1836C11.7225 28.9965 10.725 27.9714 9.68995 26.9088C8.64745 25.8387 7.79995 24.9183 7.79995 24.8584C7.79995 24.6789 8.71495 23.1224 9.56245 21.8503C10.23 20.855 10.74 20.1666 11.79 18.8571L11.985 18.6101L14.79 19.9272C16.3275 20.653 17.6175 21.2516 17.655 21.2516C17.685 21.2516 17.8725 21.0795 18.06 20.8625C18.8025 20.0469 21.4875 17.5925 23.2275 16.1557L23.46 15.9612L22.4925 13.0278C21.96 11.4115 21.525 10.0646 21.525 10.0346C21.525 9.96729 22.7925 9.16661 24.075 8.41083C25.3575 7.66253 27.99 6.353 28.1625 6.37545C28.2525 6.39042 29.1525 7.34076 30.345 8.68022C31.47 9.93736 32.4375 10.97 32.4975 10.985C32.5575 10.9999 32.955 10.8877 33.3825 10.738C35.04 10.1618 37.3425 9.6081 39.705 9.22647L40.0725 9.16661L40.9425 6.0462L41.8125 2.92579L42.225 2.89586C43.2225 2.836 46.935 2.86593 47.925 2.94076Z" fill="#004F9F"/>
<path d="M44.0099 12.272C44.0249 12.7209 44.0249 13.0951 44.0024 13.0951C43.9799 13.0951 43.7324 12.7434 43.4549 12.3094C42.9599 11.5311 42.9524 11.5237 42.6599 11.5237H42.3674L42.4124 12.474C42.4349 13.0053 42.4724 13.574 42.4949 13.7461C42.5324 14.0454 42.5474 14.0679 42.7649 14.0679H42.9899L42.9599 13.2447C42.9449 12.7883 42.9599 12.4216 42.9824 12.4216C43.0049 12.4216 43.2674 12.7883 43.5674 13.2298C44.0999 14.0379 44.0999 14.0379 44.3699 14.008L44.6474 13.9781L44.6024 13.4393C44.5724 13.1475 44.5349 12.5788 44.5049 12.1747L44.4524 11.4488H44.2124H43.9649L44.0099 12.272Z" fill="#004F9F"/>
<path d="M46.1775 12.1747C46.1475 12.5788 46.125 13.1699 46.125 13.4842V14.0679H46.3875H46.65V13.5964C46.65 13.342 46.6725 12.7509 46.7025 12.2869L46.7475 11.4488H46.485H46.2225L46.1775 12.1747Z" fill="#004F9F"/>
<path d="M47.3023 11.9654C47.2723 12.2123 47.2273 12.781 47.2048 13.2375L47.1523 14.0606L47.3548 14.113C47.4673 14.1355 47.5723 14.1429 47.5873 14.128C47.6098 14.1055 47.6548 13.7164 47.6923 13.2525C47.7298 12.7885 47.7748 12.3994 47.7898 12.377C47.8048 12.362 48.0148 12.7736 48.2623 13.2824L48.6973 14.2178H48.9748H49.2523L49.3048 13.447C49.3273 13.028 49.3723 12.4593 49.4023 12.1749L49.4473 11.6736H49.1848H48.9148L48.8623 12.5491L48.8023 13.4321L48.3448 12.4967C47.8948 11.5763 47.8798 11.5613 47.6173 11.5389L47.3473 11.5164L47.3023 11.9654Z" fill="#004F9F"/>
<path d="M40.575 11.7258C40.395 11.7558 40.3725 11.8231 40.08 13.0578C39.915 13.7762 39.7875 14.3748 39.795 14.3898C39.81 14.4048 39.9375 14.3973 40.08 14.3823C40.305 14.3599 40.3425 14.3224 40.3875 14.0905C40.44 13.8061 40.455 13.7986 41.01 13.7388C41.4075 13.7014 41.4075 13.7014 41.52 13.9558C41.595 14.1429 41.6775 14.2177 41.7975 14.2177C42.225 14.2102 42.21 14.1429 41.5875 12.8782C41.1825 12.0551 40.9575 11.6735 40.8825 11.6809C40.815 11.6884 40.68 11.7109 40.575 11.7258ZM40.995 12.8184C41.085 13.0279 41.145 13.2299 41.13 13.2599C41.0775 13.3422 40.575 13.3347 40.575 13.2599C40.575 13.0728 40.755 12.3469 40.7925 12.3843C40.815 12.4068 40.905 12.6014 40.995 12.8184Z" fill="#004F9F"/>
<path d="M50.2425 12.1149C50.07 12.2945 50.025 12.3993 50.025 12.6687C50.025 13.0653 50.1 13.1401 50.7975 13.4693C51.2025 13.6714 51.3 13.7462 51.3 13.8884C51.3 14.3149 50.4675 14.2775 50.3025 13.8435C50.25 13.6938 50.16 13.619 50.0175 13.604C49.77 13.5666 49.725 13.6414 49.815 13.9707C49.9125 14.3374 50.265 14.5469 50.85 14.5768C51.3 14.6068 51.3675 14.5918 51.585 14.4047C51.795 14.2326 51.825 14.1578 51.825 13.8435C51.825 13.4319 51.72 13.3197 51.0225 13.0204C50.5275 12.8108 50.4375 12.7061 50.55 12.504C50.7075 12.2047 51.315 12.3319 51.45 12.6911C51.5025 12.8258 51.5775 12.8707 51.7575 12.8707C51.9825 12.8707 51.99 12.8632 51.945 12.6312C51.855 12.1748 51.4275 11.8979 50.8125 11.8979C50.5275 11.8979 50.4225 11.9353 50.2425 12.1149Z" fill="#004F9F"/>
<path d="M38.6175 12.0325C38.5125 12.0774 38.52 12.2121 38.6925 13.2972C38.7975 13.9632 38.91 14.5244 38.9325 14.5543C38.9625 14.5768 39.0675 14.5768 39.18 14.5468C39.4275 14.487 39.4275 14.3223 39.2025 12.9829C39.0525 12.1298 39.015 12.0101 38.8875 11.9951C38.805 11.9876 38.685 12.0026 38.6175 12.0325Z" fill="#004F9F"/>
<path d="M52.4701 12.4663C52.4101 12.7058 52.4776 12.7657 52.8976 12.833C53.1151 12.8704 53.1751 12.9153 53.1451 13.0051C53.1226 13.08 53.0101 13.5439 52.8901 14.0527L52.6726 14.9657L52.9051 15.033C53.0326 15.0629 53.1526 15.0854 53.1676 15.0704C53.1826 15.0555 53.3026 14.599 53.4376 14.0527C53.5726 13.5065 53.7151 13.0575 53.7451 13.0575C53.7826 13.0575 53.9476 13.0874 54.1051 13.1174C54.3151 13.1623 54.4126 13.1548 54.4576 13.08C54.6301 12.8181 54.5326 12.7507 53.6476 12.5337C53.1601 12.4215 52.7101 12.3092 52.6426 12.2942C52.5601 12.2718 52.5001 12.3242 52.4701 12.4663Z" fill="#004F9F"/>
<path d="M36.4349 12.5115C36.0074 12.6238 35.8499 12.6986 35.8499 12.7884C35.8499 12.9231 36.4199 15.1081 36.4649 15.1605C36.4799 15.1755 36.7949 15.1081 37.1624 15.0109C37.7024 14.8687 37.8749 14.7864 38.0474 14.5918C38.2574 14.3598 38.2649 14.3224 38.2349 13.7387C38.2124 13.0353 38.0174 12.6612 37.5974 12.4592C37.3049 12.317 37.1549 12.3245 36.4349 12.5115ZM37.5524 13.1626C37.7399 13.4394 37.7924 14.0306 37.6499 14.2925C37.5824 14.4197 37.1624 14.5918 36.9299 14.5918C36.8474 14.5918 36.6074 13.8285 36.4799 13.1925C36.4424 12.9904 36.4574 12.953 36.6074 12.9231C36.7049 12.9007 36.9224 12.8932 37.0874 12.9007C37.3349 12.9081 37.4099 12.953 37.5524 13.1626Z" fill="#004F9F"/>
<path d="M34.7849 12.9979C34.7099 13.0128 34.6499 13.0428 34.6499 13.0503C34.6499 13.0577 34.7699 13.4169 34.9124 13.8434C35.0549 14.27 35.1599 14.6292 35.1449 14.6516C35.1224 14.6666 34.7849 14.3897 34.3949 14.038C33.9974 13.6863 33.6674 13.3945 33.6524 13.3945C33.5024 13.3945 33.1499 13.5815 33.1724 13.6489C33.1874 13.6938 33.3599 14.2475 33.5624 14.8761C33.9224 15.9986 33.9374 16.021 34.1249 15.9761C34.2299 15.9462 34.3349 15.9088 34.3649 15.8788C34.3874 15.8489 34.2974 15.4897 34.1549 15.0781C34.0199 14.6666 33.9149 14.2999 33.9224 14.2625C33.9374 14.2251 34.2749 14.487 34.6724 14.8462C35.3624 15.4673 35.4149 15.5047 35.6624 15.4598C35.8049 15.4298 35.9249 15.3849 35.9249 15.355C35.9249 15.3326 35.7449 14.7788 35.5349 14.1278C35.1374 12.923 35.1224 12.9081 34.7849 12.9979Z" fill="#004F9F"/>
<path d="M54.7949 13.2974C54.7349 13.4994 54.5774 14.0382 54.4499 14.5096C54.2549 15.1981 54.2324 15.3702 54.3149 15.4226C54.4799 15.5348 54.7349 15.4974 54.7799 15.3552C54.8549 15.0933 55.3349 13.3498 55.3724 13.1926C55.3949 13.0729 55.3649 13.0205 55.2449 12.9906C54.9599 12.9157 54.9149 12.9457 54.7949 13.2974Z" fill="#004F9F"/>
<path d="M55.7774 13.2974C55.7474 13.3199 55.7249 13.4171 55.7249 13.5144C55.7249 13.6416 55.7924 13.7015 56.0099 13.7688C56.1599 13.8212 56.3099 13.8811 56.3399 13.911C56.3774 13.9409 56.2499 14.4049 56.0699 14.9437L55.7399 15.9314L55.9724 16.0063C56.0999 16.0512 56.2274 16.0661 56.2574 16.0362C56.2799 15.9988 56.4449 15.5498 56.6174 15.026L56.9324 14.0831L57.2699 14.1954C57.6224 14.3151 57.7199 14.2852 57.7649 14.0382C57.7874 13.9035 57.3824 13.7389 55.9424 13.2824C55.8824 13.26 55.8074 13.2675 55.7774 13.2974Z" fill="#004F9F"/>
<path d="M32.2724 13.9182L32.0999 13.9855L32.3924 14.7937C32.9324 16.2753 32.9624 16.3502 33.1574 16.3277C33.4799 16.2903 33.4874 16.193 33.1874 15.3998C33.0374 14.9733 32.8424 14.4495 32.7599 14.2325C32.6099 13.8359 32.5649 13.8059 32.2724 13.9182Z" fill="#004F9F"/>
<path d="M28.3499 14.0157C28.2524 14.0681 28.1249 14.1878 28.0799 14.2851C27.9074 14.6218 28.2299 15.1157 28.6199 15.1157C28.8749 15.1157 28.8899 15.0259 28.6499 14.8837C28.3724 14.7116 28.3424 14.4123 28.5974 14.2851C28.8149 14.1654 28.8074 14.1803 28.7549 14.0382C28.7024 13.896 28.6049 13.8885 28.3499 14.0157Z" fill="#004F9F"/>
<path d="M57.9074 15.0634C57.4874 16.0062 57.4349 16.328 57.6824 16.6423C58.0274 17.0838 58.7999 17.2709 59.1674 17.009C59.3399 16.8892 60.1499 15.3103 60.1499 15.0933C60.1499 15.0035 59.7899 14.779 59.7299 14.8389C59.7149 14.8464 59.5199 15.2505 59.2949 15.7294C58.8599 16.6573 58.7399 16.777 58.3799 16.5974C57.9449 16.3879 57.9524 16.3131 58.5299 15.0035L58.7924 14.4049L58.6274 14.3151C58.5374 14.2627 58.4249 14.2253 58.3799 14.2178C58.3274 14.2178 58.1174 14.5994 57.9074 15.0634Z" fill="#004F9F"/>
<path d="M28.4625 15.3625C27.465 15.8788 25.71 17.0013 24.975 17.585C24.15 18.2509 23.115 19.0591 22.9125 19.2088L22.6875 19.3734L22.8375 19.5305L22.995 19.6802L23.25 19.4931C23.52 19.2986 23.625 19.321 23.7825 19.6278C23.8425 19.7326 23.8275 19.7999 23.73 19.9122C23.64 20.0169 23.625 20.0843 23.6775 20.1367C23.775 20.2339 24.7275 20.3986 24.8025 20.3312C24.8325 20.3013 24.795 20.1741 24.7275 20.0618C24.66 19.9421 24.6 19.8299 24.6 19.8074C24.6 19.785 24.735 19.6652 24.8925 19.538L25.185 19.3061L25.4925 19.7326L25.7925 20.1591L25.5675 20.4061C25.305 20.7054 25.2975 20.7727 25.515 20.8251C25.635 20.8625 25.74 20.8176 25.8825 20.6829C26.0925 20.4809 26.325 20.5033 26.325 20.7203C26.325 20.8625 26.01 21.1843 25.7475 21.319C25.6575 21.3639 25.4325 21.4013 25.245 21.4013C24.9075 21.4013 24.9 21.4088 24.9 21.6333V21.8652L25.2975 21.8129C26.085 21.7156 26.925 21.1319 26.925 20.6829C26.925 20.4584 26.55 20.0543 26.34 20.0543C26.2575 20.0543 26.175 19.9945 26.16 19.9197C26.1375 19.8523 25.8825 19.4482 25.59 19.0367C25.29 18.6176 25.05 18.2435 25.05 18.2061C25.05 18.0414 26.475 16.9863 26.6925 16.9863C26.7525 16.9863 27.225 17.6822 27.225 17.772C27.225 17.7945 27.0675 17.8095 26.8725 17.8095L26.5125 17.802L26.7225 17.6299C26.925 17.4727 26.925 17.4578 26.79 17.338C26.67 17.2258 26.64 17.2258 26.4375 17.3605C25.965 17.6748 25.8375 18.0489 26.0625 18.4829C26.3175 18.9768 26.925 18.9918 27.435 18.5278L27.6075 18.3707L27.75 18.5503C27.8775 18.7299 27.8925 18.7299 28.08 18.6101L28.2675 18.4829L27.6975 17.5775L27.12 16.6646L27.345 16.485C27.7125 16.1856 28.86 15.6319 28.9125 15.7217C28.98 15.819 28.995 15.804 28.515 16.0435C27.87 16.3727 27.81 16.889 28.4025 17.0537C28.8375 17.1809 28.98 17.1509 29.2875 16.9115C29.445 16.7843 29.6175 16.687 29.67 16.687C29.8275 16.687 29.7975 17.0911 29.6325 17.2931C29.5125 17.4428 29.415 17.4727 29.1 17.4727C28.7775 17.4727 28.6875 17.5026 28.5975 17.6373C28.5 17.787 28.5075 17.8095 28.665 17.9142C28.8075 18.004 28.8975 18.019 29.1075 17.9591C29.25 17.9142 29.5875 17.9067 29.88 17.9292C30.2775 17.9666 30.405 17.9591 30.4575 17.8768C30.6 17.6523 30.5325 17.585 30.1725 17.585C29.8875 17.5775 29.8425 17.5625 29.9475 17.5026C30.135 17.3904 30.3225 16.9938 30.27 16.8067C30.2025 16.5299 29.925 16.238 29.7375 16.238C29.64 16.238 29.4075 16.3652 29.22 16.5299C28.98 16.7394 28.8375 16.8142 28.725 16.7843C28.4775 16.7169 28.575 16.5224 28.95 16.3129C29.6475 15.9312 29.6025 15.9836 29.46 15.6918C29.3325 15.4299 29.3325 15.4224 29.52 15.3101C29.7225 15.168 29.7375 15.1231 29.61 14.9435C29.52 14.8312 29.415 14.8761 28.4625 15.3625ZM27.285 18.1986C27.2625 18.2509 27.165 18.3482 27.06 18.4081C26.9025 18.4904 26.8275 18.4979 26.67 18.4231C26.565 18.3782 26.475 18.2884 26.475 18.221C26.475 18.1312 26.5725 18.1088 26.895 18.1088C27.195 18.1088 27.3075 18.1312 27.285 18.1986ZM24.9 18.9319C24.9 18.9618 24.765 19.104 24.5925 19.2387L24.285 19.4782L24.105 19.2612C24.0075 19.1414 23.94 19.0217 23.9475 18.9918C23.955 18.9618 24.0975 18.8346 24.2625 18.7149L24.5625 18.4829L24.735 18.6775C24.825 18.7822 24.9 18.8945 24.9 18.9319Z" fill="#004F9F"/>
<path d="M60.6299 15.4674C60.4949 15.6769 60.5024 15.6769 60.9224 15.9089C61.0349 15.9688 61.1249 16.0511 61.1249 16.0885C61.1249 16.1334 60.9074 16.545 60.6374 17.0014C60.3674 17.4654 60.1499 17.8695 60.1499 17.8994C60.1499 17.9293 60.2474 18.0042 60.3599 18.064L60.5774 18.1763L61.0949 17.2858C61.3799 16.7919 61.6349 16.3878 61.6724 16.3878C61.7024 16.3878 61.8599 16.4701 62.0249 16.5749L62.3249 16.762L62.4299 16.5525L62.5349 16.3429L61.6499 15.8116L60.7574 15.2804L60.6299 15.4674Z" fill="#004F9F"/>
<path d="M62.1976 17.6974L61.5076 18.7749L62.3401 19.2987C63.1051 19.7851 63.1801 19.815 63.2701 19.6953C63.4426 19.4783 63.3901 19.411 62.8501 19.0817C62.5576 18.9096 62.3026 18.73 62.2801 18.7001C62.2126 18.5878 62.5501 18.1014 62.6476 18.1613C62.7001 18.1837 62.9326 18.3409 63.1726 18.5055C63.5926 18.7824 63.6151 18.7899 63.7126 18.6552C63.8851 18.4382 63.8476 18.3783 63.3376 18.0491C63.0676 17.8769 62.8501 17.7123 62.8501 17.6824C62.8501 17.6525 62.9101 17.5477 62.9851 17.4504L63.1126 17.2858L63.5251 17.5327C63.7501 17.6674 64.0126 17.832 64.1026 17.8844C64.2526 17.9817 64.2826 17.9742 64.3801 17.847C64.4476 17.7647 64.5001 17.6749 64.5001 17.645C64.5001 17.6001 62.9851 16.6123 62.9176 16.6123C62.9026 16.6123 62.5801 17.0987 62.1976 17.6974Z" fill="#004F9F"/>
<path d="M23.865 17.3454C23.715 17.4577 23.7075 17.4951 23.7975 17.6148C23.895 17.7495 23.91 17.7495 24.0975 17.6223C24.2625 17.5175 24.285 17.4652 24.2175 17.3529C24.1275 17.1808 24.0825 17.1808 23.865 17.3454Z" fill="#004F9F"/>
<path d="M65.565 19.2087C65.22 19.3809 64.8375 19.8523 64.725 20.2489C64.6425 20.5332 64.65 20.623 64.755 20.9149C64.905 21.304 65.325 21.6781 65.6775 21.7455C66.1275 21.8278 66.4575 21.7156 66.8325 21.3414C67.425 20.7428 67.5 20.0917 67.0275 19.553C66.6225 19.0965 66.0675 18.9618 65.565 19.2087ZM66.63 19.7999C66.96 20.1366 66.855 20.653 66.375 21.057C66.03 21.3414 65.625 21.3264 65.37 21.0196C65.1375 20.7428 65.13 20.5931 65.325 20.1965C65.6175 19.6278 66.255 19.4332 66.63 19.7999Z" fill="#004F9F"/>
<path d="M20.985 21.0419C20.0175 21.9922 17.85 24.5963 17.85 24.8133C17.85 24.8657 17.9175 24.948 17.9925 24.9929C18.1125 25.0527 18.1725 25.0303 18.33 24.8283L18.5175 24.5888L18.8775 24.8956C19.2 25.1725 19.2375 25.2323 19.2225 25.4868C19.2 25.7711 18.9525 26.3323 18.795 26.4296C18.75 26.4595 18.6525 26.4895 18.5775 26.4895C18.45 26.4895 18.45 26.4745 18.555 26.3249C18.84 25.9208 18.6 25.367 18.0825 25.2099C17.6025 25.0677 17.13 25.3745 16.995 25.9133C16.965 26.033 16.6725 26.5344 16.3425 27.0283C16.005 27.5221 15.705 28.0235 15.675 28.1357C15.645 28.248 15.54 28.465 15.4425 28.6296C15.3375 28.7868 15.0075 29.4228 14.7 30.0289C14.2425 30.9493 14.16 31.1514 14.25 31.2038C14.46 31.3385 14.5425 31.2786 14.82 30.7548C14.97 30.4629 15.135 30.231 15.18 30.231C15.3375 30.231 15.7575 30.5378 15.7275 30.6276C15.7125 30.6725 15.5775 30.7473 15.4275 30.7772C15.1425 30.8446 15.0825 30.9793 15.2175 31.1963C15.2775 31.2861 15.375 31.2861 15.8775 31.2112C17.145 31.0092 17.175 30.9942 17.175 30.7174V30.4704L16.7175 30.5752C16.4625 30.6351 16.245 30.6725 16.2375 30.665C16.2225 30.65 16.1925 30.5303 16.1625 30.3956C16.1325 30.2385 16.14 30.1561 16.2 30.1561C16.245 30.1561 16.35 30.0364 16.4325 29.8942L16.59 29.6323L17.07 29.9017C17.34 30.0514 17.565 30.1636 17.58 30.1487C17.595 30.1337 17.6475 30.0364 17.7 29.9391C17.805 29.7296 17.895 29.8119 16.785 29.1759C16.335 28.9289 15.975 28.697 15.975 28.667C15.975 28.4949 16.185 28.0459 16.44 27.6643L16.7325 27.2378L16.9575 27.365C17.43 27.6419 17.4225 27.8364 16.9425 27.8364C16.6425 27.8364 16.6125 27.8738 16.695 28.1732C16.7325 28.3228 16.7775 28.3303 17.685 28.3004C18.2775 28.2779 18.66 28.233 18.69 28.1806C18.72 28.1357 18.75 28.001 18.75 27.8888C18.75 27.7242 18.72 27.6868 18.6225 27.7167C18.5475 27.7317 18.3075 27.7766 18.0975 27.799L17.7 27.8514V27.6344C17.7 27.3725 18.075 27.0133 18.36 27.0133C18.465 27.0133 18.6975 26.9459 18.87 26.8636C19.11 26.7439 19.23 26.6167 19.38 26.3174C19.485 26.1004 19.59 25.831 19.6125 25.7187L19.6575 25.5092L19.8825 25.6963C20.16 25.9283 20.19 25.9357 20.37 25.7337C20.4975 25.599 20.4975 25.5691 20.4 25.4942C19.9725 25.1725 18.825 24.2221 18.825 24.1922C18.825 24.1772 18.93 24.0276 19.0575 23.8704L19.2975 23.5786L19.6425 23.8854C21.0375 25.1126 20.91 25.0303 21.075 24.8806C21.1575 24.8058 21.225 24.716 21.225 24.6861C21.225 24.6561 20.8725 24.3194 20.4375 23.9453C20.0025 23.5636 19.65 23.2344 19.65 23.2044C19.65 23.182 19.995 22.7779 20.415 22.314L21.1725 21.4684L21.3675 21.6555L21.555 21.8425L21.015 22.4038C20.715 22.7031 20.475 22.9949 20.475 23.0323C20.475 23.2419 20.73 23.3616 21.09 23.3317C21.585 23.2793 21.675 23.1745 21.45 22.9351L21.27 22.7405L21.5475 22.4636L21.825 22.1868L22.26 22.6208L22.695 23.0473L22.8525 22.8827L23.0175 22.7106L22.275 21.9249L21.54 21.1391L21.6975 20.967L21.855 20.8024L21.6975 20.6453L21.5475 20.4881L20.985 21.0419ZM18.06 25.7112C18.2925 25.8684 18.2775 26.4895 18.0375 26.4895C17.9925 26.4895 17.8875 26.6242 17.8125 26.7888C17.7375 26.9609 17.6475 27.1106 17.61 27.133C17.5425 27.1779 17.025 26.8861 17.025 26.8038C17.0325 26.6391 17.19 26.5269 17.385 26.5493C17.535 26.5643 17.6775 26.5119 17.8125 26.3922C18.075 26.1677 18.0075 26.033 17.6625 26.0929C17.4225 26.1303 17.4 26.1228 17.4 25.9432C17.4 25.6214 17.7525 25.4942 18.06 25.7112ZM16.0125 29.3031C16.23 29.4453 16.2375 29.4602 16.0875 29.8119L15.975 30.0813L15.675 29.9317C15.51 29.8493 15.375 29.767 15.375 29.7446C15.375 29.7296 15.435 29.5949 15.5025 29.4453C15.645 29.1534 15.7425 29.1235 16.0125 29.3031Z" fill="#004F9F"/>
<path d="M67.3126 21.633L66.4351 22.5459L66.6301 22.7405L66.8251 22.9276L67.2226 22.5385L67.6126 22.1493L68.0101 22.5385L68.4001 22.9351L68.5651 22.7629L68.7301 22.5983L68.3251 22.1868L67.9201 21.7752L68.1151 21.5732L68.3101 21.3786L68.7601 21.8051C69.0001 22.0371 69.2326 22.2242 69.2701 22.2242C69.3076 22.2242 69.3826 22.1493 69.4426 22.0595C69.5326 21.9099 69.5026 21.865 68.9176 21.3187C68.5726 20.997 68.2651 20.7351 68.2426 20.7276C68.2126 20.7276 67.8001 21.1391 67.3126 21.633Z" fill="#004F9F"/>
<path d="M70.0274 22.8755C69.9224 23.0027 69.9299 23.0327 70.1324 23.2721C70.2524 23.4143 70.3499 23.549 70.3499 23.5789C70.3499 23.6238 69.4124 24.4395 68.8349 24.9184C68.8049 24.9408 68.8574 25.0531 68.9474 25.1728L69.1199 25.3823L69.9374 24.6939L70.7624 24.0055L71.0024 24.2973C71.2049 24.5367 71.2649 24.5667 71.3774 24.4993C71.4524 24.4544 71.5124 24.3646 71.5124 24.2973C71.5124 24.1626 70.3499 22.7558 70.2299 22.7558C70.1849 22.7483 70.0949 22.8082 70.0274 22.8755Z" fill="#004F9F"/>
<path d="M70.98 25.4495C70.4475 25.8236 69.9825 26.1604 69.945 26.1903C69.87 26.2651 70.92 27.7617 71.055 27.7617C71.115 27.7617 71.1975 27.7093 71.25 27.6495C71.3325 27.5522 71.325 27.4923 71.205 27.3277C70.515 26.3848 70.5375 26.4223 70.695 26.3025C71.07 26.0032 71.0775 26.0107 71.445 26.5046C71.6325 26.7665 71.7975 26.9835 71.8125 26.9985C71.85 27.0434 72.15 26.8338 72.15 26.7665C72.15 26.7291 72 26.4896 71.8125 26.2352C71.4975 25.7937 71.4825 25.7563 71.61 25.6515C71.88 25.4195 71.91 25.4345 72.315 25.9957L72.72 26.5495L72.8925 26.4148L73.0725 26.2801L72.57 25.5692C72.3 25.1726 72.045 24.8359 72.0075 24.8134C71.97 24.791 71.505 25.0753 70.98 25.4495Z" fill="#004F9F"/>
<path d="M72.735 27.2378C72.165 27.4099 71.6625 27.8963 71.58 28.3303C71.4375 29.1085 72.1875 29.8643 72.9375 29.6772C73.125 29.6323 73.125 29.6249 73.0125 29.4079C72.9225 29.2283 72.8475 29.1834 72.645 29.1834C72.135 29.1834 71.895 28.5772 72.255 28.1881C72.5325 27.8888 73.02 27.6718 73.29 27.7242C73.5525 27.784 73.83 28.1732 73.755 28.3977C73.65 28.7419 73.6575 28.8541 73.7625 28.9963C73.875 29.1385 73.875 29.1385 74.0325 28.9813C74.4 28.6147 74.2425 27.7541 73.74 27.3949C73.485 27.2153 73.02 27.1405 72.735 27.2378Z" fill="#004F9F"/>
<path d="M14.6399 28.1734C14.5649 28.3305 14.5724 28.3679 14.6999 28.4353C14.8124 28.4951 14.8649 28.4802 14.9549 28.3455C15.0374 28.2258 15.0524 28.1584 14.9849 28.0836C14.8649 27.9339 14.7299 27.9639 14.6399 28.1734Z" fill="#004F9F"/>
<path d="M73.7625 29.8345C73.1475 30.1413 72.63 30.4106 72.615 30.4181C72.6 30.4331 72.645 30.5453 72.7125 30.6726L72.8325 30.9045L73.35 30.6426L73.875 30.3807L74.1 30.8222L74.325 31.2712L73.8075 31.5555L73.29 31.8324L73.395 32.0419C73.455 32.1542 73.5375 32.2515 73.575 32.2515C73.6425 32.2515 75.7425 31.2338 75.81 31.1664C75.825 31.1515 75.78 31.0392 75.72 30.912C75.5925 30.6651 75.5325 30.6651 75.1125 30.9195C74.9925 30.9943 74.8425 31.0542 74.7975 31.0542C74.7075 31.0542 74.325 30.3882 74.325 30.2311C74.325 30.1862 74.5125 30.0664 74.7375 29.9617L75.15 29.7746L75.03 29.5351C74.9625 29.4004 74.9025 29.2882 74.895 29.2882C74.895 29.2807 74.385 29.5277 73.7625 29.8345Z" fill="#004F9F"/>
<path d="M74.8649 32.3338C73.8149 32.7528 73.7249 32.8052 73.7699 32.9474C73.7924 33.0372 73.8449 33.1419 73.8749 33.1794C73.9124 33.2093 74.2874 33.1045 74.7074 32.9399C75.1349 32.7753 75.4949 32.6481 75.5099 32.663C75.5249 32.678 75.2624 33.0297 74.9324 33.4487C74.3099 34.2195 74.2499 34.3617 74.4224 34.6011C74.5199 34.7283 74.5874 34.7134 75.7049 34.2719C76.7849 33.8453 76.8749 33.793 76.8299 33.6508C76.7324 33.3215 76.7774 33.3215 75.5774 33.778L75.0599 33.9725L75.2174 33.7705C75.2999 33.6508 75.5849 33.2916 75.8474 32.9623C76.3124 32.3862 76.3274 32.3637 76.2374 32.1467C76.1849 32.0195 76.1099 31.9072 76.0724 31.8998C76.0424 31.8923 75.4949 32.0868 74.8649 32.3338Z" fill="#004F9F"/>
<path d="M13.5224 32.9175C13.4249 33.0821 13.3199 33.1345 12.9599 33.2019C11.9024 33.4039 11.3024 34.1747 11.6624 34.8631C11.7824 35.0951 11.9099 35.1699 12.2099 35.1699C12.4574 35.1699 12.5474 35.11 12.6674 34.893C12.7949 34.6461 12.7724 34.6236 12.4949 34.676C12.0524 34.7583 11.8649 34.3543 12.1724 33.9801C12.3599 33.7556 13.1999 33.4862 13.1999 33.6434C13.1999 33.6733 13.0799 34.0475 12.9374 34.489C12.7949 34.923 12.6299 35.4917 12.5624 35.7461C12.5024 36.008 12.3974 36.4121 12.3374 36.6441C12.2774 36.8835 12.2099 37.2053 12.1874 37.3624C12.1499 37.5944 12.0224 37.7665 11.5199 38.2604C11.1749 38.5971 10.7999 39.0386 10.6874 39.2407C10.2074 40.0638 10.5974 41.0515 11.3474 40.9019C11.5499 40.8645 11.5499 40.8645 11.5499 41.2985V41.7325L10.9349 42.1141C10.5899 42.3311 10.2674 42.5332 10.2149 42.5631C10.1249 42.623 10.1324 42.6753 10.2299 42.8699C10.2974 42.9971 10.3724 43.1019 10.3949 43.1019C10.4174 43.1019 10.6724 42.8774 10.9574 42.6005L11.4824 42.0992L11.4299 43.9699C11.3999 45.3767 11.4149 46.2223 11.5124 47.4046C11.7074 49.8964 11.6999 49.8665 11.9474 49.8964C12.1199 49.9189 12.1499 49.8964 12.1499 49.7393C12.1499 49.5747 12.1874 49.5522 12.5849 49.5148C13.0349 49.4699 13.2749 49.2903 13.2749 49.006C13.2749 48.774 13.3874 48.8413 13.6949 49.2379C13.8524 49.44 14.0024 49.6121 14.0324 49.6121C14.0624 49.6121 14.1299 49.5373 14.1974 49.44C14.3024 49.2828 14.2874 49.2529 13.8224 48.7291L13.3349 48.1903H13.7549C14.1674 48.1903 14.1749 48.1903 14.1749 47.9658V47.7488L13.0724 47.7264L11.9624 47.7039L11.9399 47.3971L11.9174 47.0903L12.4949 47.0454C12.8099 47.0155 13.3049 46.993 13.5899 46.993H14.0999V46.7685V46.5441H13.0199H11.9399L11.8724 46.2223C11.7749 45.7284 11.8349 44.823 11.9699 44.823C12.0599 44.823 12.0674 44.8978 12.0299 45.1896C11.9699 45.6611 12.0749 45.8706 12.3824 45.8706C12.5249 45.8706 12.6674 45.8032 12.7874 45.676C12.9374 45.5189 12.9824 45.5039 13.1099 45.5787C13.4399 45.7808 13.9499 45.3692 13.9499 44.8903C13.9499 44.7107 13.8224 44.2243 13.6874 43.9026C13.6424 43.7978 13.6724 43.7753 13.8674 43.7753C14.0774 43.7753 14.0999 43.7529 14.0999 43.5509C14.0999 43.4236 14.0924 43.3264 14.0849 43.3189C14.0699 43.3189 13.5899 43.274 13.0124 43.2291L11.9624 43.1393L11.9399 42.7427C11.9099 42.2862 11.8349 42.3087 12.9749 42.4658C14.0999 42.623 14.0999 42.623 14.0999 42.3611C14.0999 42.1066 14.1224 42.1141 12.9224 41.9719C12.5024 41.9196 12.1199 41.8597 12.0824 41.8298C11.9999 41.7849 11.9324 41.0441 11.9999 40.9842C12.0224 40.9617 12.5024 41.0366 13.0724 41.1413C13.9649 41.3134 14.1224 41.3209 14.1749 41.2311C14.3549 40.9543 14.2649 40.8794 13.5974 40.7522C13.2299 40.6849 12.7574 40.5876 12.5324 40.5502L12.1274 40.4679L12.1649 39.9141C12.1874 39.6073 12.2174 39.3454 12.2324 39.3304C12.2474 39.308 12.3824 39.323 12.5249 39.3529C12.7499 39.3978 12.7874 39.4352 12.8099 39.6447C12.8249 39.7794 12.8474 39.8842 12.8699 39.8842C12.9674 39.8842 13.4849 39.5774 13.6424 39.4277C13.7999 39.2781 13.8074 39.2556 13.6949 39.1733C13.6349 39.1209 13.3049 39.0236 12.9749 38.9563L12.3674 38.8216L12.4199 38.5522C12.4499 38.3951 12.4799 38.2604 12.4949 38.2454C12.5099 38.2304 12.9599 38.3277 13.4924 38.4624C14.0249 38.5896 14.4974 38.6794 14.5349 38.657C14.5724 38.6345 14.6249 38.5298 14.6399 38.4325C14.6774 38.2529 14.6474 38.2454 13.6574 37.9985C12.4499 37.6992 12.4949 37.759 12.7949 36.6815C13.0499 35.7611 13.0424 35.7685 13.2749 35.8583C13.4549 35.9332 13.4624 35.9332 13.3049 35.993C13.0274 36.1053 12.9674 36.7638 13.1999 37.0631C13.4099 37.325 13.7924 37.3924 14.0924 37.2202C14.3174 37.0856 14.5499 36.7189 14.5499 36.5019C14.5499 36.3298 14.6249 36.2998 14.8349 36.3747C14.9924 36.4345 15.0524 36.427 15.1274 36.3148C15.3074 36.0828 15.2024 35.9781 14.5574 35.7611C14.2049 35.6413 13.8899 35.5141 13.8524 35.4767C13.7474 35.3719 13.9649 34.9828 14.1449 34.9604C14.2949 34.9379 14.6399 35.2522 14.7149 35.4842C14.7599 35.6114 15.1499 35.4393 15.1499 35.2971C15.1499 35.0951 14.8049 34.6835 14.5274 34.5488C14.2949 34.4291 14.2124 34.4216 13.9874 34.4964C13.7174 34.5862 13.4999 34.8781 13.4999 35.1624C13.4999 35.342 13.4174 35.4094 13.2899 35.327C13.2149 35.2821 13.2149 35.1924 13.2674 34.9379C13.4099 34.3094 13.6274 33.7855 13.7324 33.808C13.7924 33.823 14.2199 33.9801 14.6849 34.1597C15.1424 34.3468 15.5774 34.4964 15.6299 34.4964C15.7649 34.4964 15.8699 34.2121 15.7724 34.1148C15.7349 34.0774 15.2999 33.8828 14.8124 33.6883L13.9124 33.3216L13.9349 33.0597C13.9499 32.8427 13.9274 32.7828 13.7924 32.7529C13.6799 32.723 13.6049 32.7604 13.5224 32.9175ZM14.0849 36.1651C14.2124 36.2699 14.1374 36.5917 13.9424 36.7563C13.6574 36.9958 13.4399 36.7338 13.5374 36.24C13.5824 36.0005 13.6049 35.9856 13.7849 36.0304C13.8974 36.0604 14.0324 36.1202 14.0849 36.1651ZM11.8199 39.2706C11.7524 39.5175 11.6999 39.8692 11.6999 40.0563C11.6999 40.393 11.6174 40.4753 11.2724 40.4828C11.0999 40.4828 10.8749 40.191 10.8749 39.974C10.8749 39.6747 11.1824 39.076 11.5574 38.657L11.8874 38.2828L11.9099 38.5522C11.9249 38.7019 11.8799 39.0236 11.8199 39.2706ZM12.7349 43.6706L13.1924 43.723L13.3499 44.0896C13.5374 44.5236 13.5224 44.9577 13.3274 45.0774C13.1474 45.1896 12.9749 44.9651 12.9749 44.6134C12.9749 44.4189 12.9449 44.3665 12.8474 44.389C12.7424 44.4039 12.7049 44.5012 12.6899 44.7481C12.6449 45.5937 12.4499 45.6835 12.4499 44.8604V44.2992H12.1949C11.8799 44.2992 11.8574 44.2692 11.9024 43.9026C11.9474 43.5883 11.9474 43.5883 12.7349 43.6706ZM12.8549 48.31C12.9974 48.4522 13.0124 48.8189 12.8849 48.9162C12.8324 48.9611 12.6299 49.0134 12.4349 49.0284L12.0749 49.0733V48.6318V48.1903H12.4049C12.6074 48.1903 12.7874 48.2352 12.8549 48.31Z" fill="#004F9F"/>
<path d="M76.0725 34.6538C74.91 34.8708 74.49 35.9334 75.2325 36.779C75.645 37.2504 76.395 37.2804 77.04 36.8538C77.4375 36.5919 77.5725 36.2926 77.535 35.7538C77.475 34.9232 76.9125 34.4967 76.0725 34.6538ZM76.935 35.3722C77.13 35.5817 77.1525 35.9559 76.9875 36.1878C76.7025 36.5994 75.8325 36.7341 75.5325 36.4123C75.21 36.0681 75.33 35.5443 75.7875 35.2974C76.23 35.0654 76.6725 35.0878 76.935 35.3722Z" fill="#004F9F"/>
<path d="M77.7 37.3998C77.415 37.4372 75.5175 37.9162 75.48 37.9611C75.4575 37.976 75.54 38.3726 75.6525 38.844C75.855 39.6672 75.87 39.6971 76.05 39.6747C76.155 39.6597 76.2525 39.6298 76.2675 39.6148C76.2825 39.5998 76.2375 39.3155 76.17 38.9787C76.095 38.6495 76.05 38.3651 76.065 38.3577C76.0725 38.3427 76.5375 38.223 77.0775 38.0883C78.075 37.8488 78.075 37.8488 78.03 37.6468C77.97 37.3923 77.925 37.3624 77.7 37.3998Z" fill="#004F9F"/>
<path d="M76.6498 39.9743C76.2223 40.1988 76.0273 40.5205 76.0273 41.0443C76.0273 41.7328 76.4248 42.1967 77.0773 42.2566C77.8573 42.3314 78.5398 41.9348 78.6823 41.3212C78.8098 40.76 78.5473 40.1688 78.0748 39.9219C77.7448 39.7498 77.0398 39.7797 76.6498 39.9743ZM78.0373 40.5205C78.1723 40.6477 78.2248 40.7824 78.2248 40.992C78.2248 41.3511 78.0298 41.5681 77.6098 41.6879C76.9723 41.8525 76.4998 41.5831 76.4998 41.0443C76.4998 40.5729 76.8223 40.3484 77.4973 40.3409C77.7823 40.3335 77.8948 40.3709 78.0373 40.5205Z" fill="#004F9F"/>
<path d="M77.2199 42.7352C76.5974 42.8849 76.2749 43.289 76.2749 43.9176C76.2749 44.2094 76.3199 44.3366 76.4699 44.5162C76.6349 44.7108 76.6424 44.7557 76.5449 44.7931C76.4774 44.8155 76.4249 44.9278 76.4249 45.025C76.4249 45.2121 76.4399 45.2121 76.7699 45.1672C76.9649 45.1448 77.2649 45.1223 77.4449 45.1223H77.7749V44.6808C77.7749 44.1196 77.7299 43.9999 77.5049 43.9999C77.3474 43.9999 77.3249 44.0298 77.3249 44.2992C77.3249 44.6584 77.1899 44.6958 76.9124 44.4114C76.7099 44.2169 76.6649 43.8727 76.7999 43.6182C76.9199 43.4012 77.2799 43.2516 77.6999 43.2516C78.0299 43.2516 78.1199 43.289 78.3074 43.4686C78.5924 43.7529 78.5999 44.0972 78.3299 44.3815C78.1724 44.5461 78.1424 44.6284 78.1874 44.8155C78.2324 45.0475 78.2399 45.0475 78.4574 44.9278C79.1849 44.5536 79.1324 43.2516 78.3749 42.8699C78.0374 42.6978 77.5874 42.6455 77.2199 42.7352Z" fill="#004F9F"/>
<path d="M78.0751 45.9831C77.3551 46.3572 77.2426 46.3872 76.7776 46.3946H76.2676L76.2901 46.6341L76.3126 46.881L76.8376 46.9184C77.3026 46.9559 77.4376 47.0082 78.0901 47.3899C78.4876 47.6218 78.8326 47.8164 78.8551 47.8164C78.8851 47.8164 78.9001 47.6892 78.9001 47.5321C78.9001 47.2552 78.8851 47.2402 78.3751 46.9933C78.0901 46.8511 77.8501 46.7164 77.8501 46.694C77.8501 46.664 78.0901 46.5368 78.3751 46.4096L78.9001 46.1776V45.8783C78.9001 45.7062 78.8926 45.5715 78.8851 45.5715C78.8701 45.5715 78.5101 45.7586 78.0751 45.9831Z" fill="#004F9F"/>
<path d="M10.7399 46.8958C10.1249 47.3298 10.0724 47.3972 10.1924 47.5843C10.2374 47.6591 10.2899 47.6591 10.3949 47.6067C10.6349 47.472 11.4224 46.6414 11.3849 46.5441C11.3699 46.4917 11.1074 46.6414 10.7399 46.8958Z" fill="#004F9F"/>
<path d="M10.89 47.5916C10.68 47.861 10.5 48.093 10.5 48.1229C10.5 48.1454 10.5675 48.2277 10.6425 48.295C10.785 48.4222 10.8 48.4148 11.0625 47.8909C11.4525 47.1202 11.3775 46.993 10.89 47.5916Z" fill="#004F9F"/>
<path d="M76.0949 49.148C76.0724 49.1854 76.0349 49.5671 76.0049 49.9936C75.9524 50.7569 75.9599 50.7793 76.1474 51.0038C76.4099 51.3106 76.7474 51.378 77.0699 51.1909C77.3099 51.0487 77.3174 51.0487 77.4449 51.1909C77.6249 51.3854 78.0149 51.378 78.2624 51.1609C78.4499 50.9963 78.5249 50.7419 78.6299 49.7841L78.6824 49.395L78.4349 49.3575C78.1874 49.3126 76.2749 49.0882 76.1849 49.0882C76.1549 49.0882 76.1174 49.1181 76.0949 49.148ZM77.1149 50.0909C77.0849 50.5623 76.9874 50.7344 76.7774 50.7344C76.5224 50.7344 76.4249 50.5922 76.4249 50.2405C76.4249 49.7392 76.4774 49.6793 76.8299 49.7018L77.1374 49.7242L77.1149 50.0909ZM77.9924 49.814C78.1574 49.8589 78.1649 49.8888 78.1274 50.2331C78.0749 50.6596 77.9624 50.8242 77.7449 50.7943C77.6099 50.7718 77.5874 50.712 77.5649 50.3677C77.5274 49.7616 77.5799 49.7018 77.9924 49.814Z" fill="#004F9F"/>
<path d="M12.1725 51.5428C12.075 51.6027 12.27 52.7027 12.645 54.1694L12.825 54.8728L12.5175 55.1721C12.105 55.5911 11.925 55.9653 11.925 56.4143C11.925 57.17 12.63 57.5966 13.095 57.1251C13.23 56.9904 13.275 56.8857 13.245 56.7734C13.2225 56.6836 13.2 56.5639 13.2 56.504C13.2 56.4292 13.1325 56.4592 12.99 56.5938C12.8775 56.7061 12.72 56.7959 12.6525 56.7959C12.45 56.7959 12.2775 56.4592 12.33 56.1748C12.375 55.9353 12.7725 55.3741 12.9075 55.3741C12.99 55.3741 13.1775 55.7932 13.3575 56.4143C13.4325 56.6762 13.545 56.968 13.6125 57.0728C13.68 57.17 13.845 57.5592 13.98 57.9408C14.31 58.8537 14.9025 60.1557 15.6525 61.6224C16.41 63.1115 16.425 63.1265 16.635 63.0143C16.77 62.9394 16.785 62.8945 16.725 62.7823C16.605 62.5578 16.635 62.4979 16.95 62.3333L17.25 62.1836L17.4 62.4231C17.5875 62.7299 17.5875 62.8347 17.4075 62.8945C17.325 62.917 17.175 63.0068 17.07 63.0891C16.8225 63.2836 16.815 63.5755 17.0475 63.9122C17.19 64.1217 17.265 64.1666 17.4675 64.1517C17.7825 64.1367 17.82 64.0993 17.715 63.8673C17.655 63.7401 17.565 63.6802 17.43 63.6802C17.1825 63.6802 17.2275 63.5381 17.5425 63.351C17.7825 63.2163 17.7825 63.2163 17.955 63.3734C18.045 63.4557 18.165 63.5306 18.21 63.5306C18.4275 63.5306 18.6075 62.7898 18.48 62.453C18.4425 62.3483 18.405 62.3483 18.195 62.4381C17.955 62.5353 17.94 62.5353 17.82 62.3333C17.7525 62.2136 17.7 62.0864 17.7 62.0415C17.7 61.9966 17.8875 61.8694 18.1125 61.7571C18.4575 61.585 18.5175 61.5251 18.48 61.3979C18.39 61.0986 18.3075 61.1061 17.4 61.57C16.905 61.8245 16.47 62.034 16.4325 62.034C16.365 62.034 15.945 61.368 15.99 61.3306C15.9975 61.3156 16.455 61.1136 17.0025 60.8741L17.9925 60.4476L17.8875 60.2306L17.775 60.0211L17.2275 60.253C16.935 60.3802 16.5075 60.5598 16.2825 60.6571C16.065 60.7544 15.855 60.8367 15.825 60.8367C15.7125 60.8367 15 59.4074 15 59.183C15 59.153 15.1275 59.0857 15.2775 59.0483C15.72 58.9211 15.8775 59.1755 15.6375 59.6319C15.54 59.834 15.54 59.8564 15.7125 60.0136C15.8175 60.1109 15.915 60.1782 15.93 60.1557C15.945 60.1408 16.2 59.6993 16.5 59.168C17.0325 58.2401 17.04 58.2102 16.9125 58.068C16.8375 57.9857 16.7475 57.9183 16.71 57.9183C16.68 57.9183 16.5375 58.1353 16.41 58.4047L16.17 58.8836L16.035 58.6666C15.8775 58.4047 15.6225 58.3748 15.1425 58.5694C14.835 58.6891 14.82 58.6891 14.7 58.5394C14.6325 58.4496 14.43 57.9707 14.25 57.4694C13.9875 56.7211 13.95 56.5415 14.0325 56.4891C14.2425 56.3544 14.3175 56.4367 14.5125 57.0204C14.73 57.6639 14.8875 57.8435 15.255 57.8435C15.405 57.8435 15.5475 57.7612 15.7125 57.5816C16.11 57.17 16.3275 56.4217 16.0575 56.4217C16.02 56.4217 15.8925 56.5938 15.7725 56.8109C15.525 57.2673 15.36 57.3945 15.1725 57.2748C15.0225 57.1775 14.7375 56.4741 14.7975 56.3319C14.8125 56.2796 15.075 56.1673 15.3675 56.085C15.81 55.9653 15.9 55.9129 15.9 55.7857C15.9 55.4564 15.825 55.4489 14.7825 55.7557C14.235 55.9129 13.755 56.0326 13.725 56.0102C13.6425 55.9578 13.4775 55.4489 13.5225 55.404C13.545 55.3816 13.995 55.2319 14.5275 55.0748C15.465 54.7979 15.4875 54.7904 15.4725 54.5884C15.465 54.4762 15.4425 54.3714 15.4275 54.3489C15.3975 54.3265 13.965 54.7156 13.44 54.8877C13.3275 54.9251 13.17 54.5884 13.05 54.0646C12.9525 53.6455 13.035 53.5034 13.365 53.5034C13.5525 53.5034 13.605 53.5483 13.7025 53.8027L13.8225 54.0945L14.0475 53.9673C14.3475 53.7952 14.625 53.3687 14.625 53.0918C14.6175 52.8972 14.5425 52.6279 14.37 52.2163C14.325 52.119 14.3625 52.0891 14.565 52.0666C14.79 52.0442 14.8125 52.0292 14.79 51.8197C14.775 51.6925 14.7525 51.5877 14.745 51.5802C14.7375 51.5728 14.265 51.6476 13.6875 51.7523C12.6 51.9469 12.5325 51.9394 12.525 51.6102C12.525 51.4755 12.3375 51.4381 12.1725 51.5428ZM13.9875 52.4183C14.1225 52.5455 14.175 52.6802 14.175 52.8898C14.175 53.0469 14.1525 53.1966 14.13 53.2265C14.1 53.2489 13.9575 53.1891 13.8075 53.0918C13.5 52.8748 13.2675 52.8598 13.02 53.017C12.8475 53.1292 12.84 53.1292 12.78 52.8523C12.75 52.6952 12.72 52.5381 12.72 52.4932C12.7125 52.4258 13.3425 52.2612 13.6725 52.2387C13.7475 52.2387 13.89 52.3136 13.9875 52.4183Z" fill="#004F9F"/>
<path d="M76.17 51.8572C75.69 52.0069 75.375 52.4933 75.375 53.0994C75.375 53.7804 75.8775 54.2293 76.725 54.3042C77.3925 54.364 77.835 54.0572 78.0075 53.4287C78.24 52.5681 77.745 51.9545 76.725 51.8273C76.5375 51.8048 76.29 51.8198 76.17 51.8572ZM77.1525 52.4933C77.4825 52.628 77.655 52.9123 77.595 53.2341C77.4975 53.728 76.9875 53.9225 76.3875 53.6906C75.9975 53.5484 75.825 53.3389 75.825 53.0171C75.825 52.4185 76.395 52.194 77.1525 52.4933Z" fill="#004F9F"/>
<path d="M74.9325 54.6256C74.8725 54.7977 74.88 54.865 74.9475 54.8875C75 54.9099 75.4275 55.0596 75.9 55.2167C76.3725 55.3814 76.71 55.5161 76.65 55.5161C76.5825 55.5235 76.125 55.4712 75.6375 55.4113C75.1425 55.3514 74.73 55.299 74.7225 55.299C74.7225 55.299 74.6775 55.4113 74.6325 55.5385C74.5275 55.8303 74.4975 55.7929 75.51 56.399C75.8925 56.631 76.1925 56.8256 76.1775 56.8405C76.1625 56.8555 75.7575 56.7358 75.27 56.5712L74.3925 56.2793L74.325 56.4664C74.28 56.5712 74.25 56.6834 74.25 56.7133C74.25 56.7657 76.4625 57.5439 76.62 57.5439C76.695 57.5439 76.875 57.08 76.875 56.8854C76.875 56.8405 76.5525 56.6086 76.1625 56.3766C75.765 56.1446 75.4275 55.9201 75.405 55.8827C75.375 55.8378 75.72 55.8229 76.3125 55.8378L77.265 55.8603L77.3625 55.5385L77.46 55.2167L77.205 55.112C76.9575 55.0072 75.1125 54.4011 75.045 54.4011C75.03 54.4011 74.9775 54.5059 74.9325 54.6256Z" fill="#004F9F"/>
<path d="M73.7549 57.8285C73.3874 58.5993 73.3424 59.0183 73.5974 59.3102C73.7549 59.4898 73.8449 59.5272 74.1524 59.5347C74.4449 59.5347 74.5574 59.5796 74.7149 59.7367C74.9324 59.9537 75.2624 60.0061 75.5324 59.8639C75.6824 59.7816 76.3724 58.4796 76.3349 58.3598C76.3124 58.3 74.7149 57.5217 74.1974 57.3122C74.0399 57.2523 74.0024 57.2972 73.7549 57.8285ZM74.6099 58.053L74.8499 58.1877L74.6474 58.5918C74.4824 58.9211 74.3999 59.0108 74.2349 59.0258C74.0774 59.0483 74.0099 59.0108 73.9424 58.8687C73.8749 58.7265 73.8899 58.6143 74.0249 58.3C74.1149 58.0904 74.2349 57.9183 74.2799 57.9183C74.3249 57.9258 74.4749 57.9857 74.6099 58.053ZM75.7049 58.5843C75.7274 58.6143 75.6599 58.8163 75.5624 59.0333C75.4124 59.3476 75.3449 59.4224 75.2174 59.4C74.9324 59.3625 74.8949 59.183 75.0749 58.7639C75.2324 58.3898 75.2399 58.3823 75.4574 58.4571C75.5774 58.4945 75.6899 58.5544 75.7049 58.5843Z" fill="#004F9F"/>
<path d="M72.8849 59.5796C72.7649 59.8415 72.7649 59.849 72.9599 60.0361L73.1549 60.2381L72.9524 60.6572C72.7424 61.0762 72.7424 61.0762 72.4574 61.0388C72.1874 61.0089 72.1574 61.0239 72.0524 61.2558L71.9324 61.5028L72.1724 61.5477C72.6899 61.63 74.2199 61.8096 74.4374 61.8096C74.6174 61.8096 74.6999 61.7647 74.7599 61.6225C74.8124 61.5177 74.8499 61.383 74.8499 61.3307C74.8499 61.2783 74.4374 60.7994 73.9274 60.2756L73.0124 59.3177L72.8849 59.5796ZM73.8749 60.9565L74.2124 61.3007L73.8374 61.2558C73.1849 61.166 73.1849 61.166 73.3274 60.8667C73.3949 60.732 73.4699 60.6123 73.4999 60.6123C73.5224 60.6123 73.6949 60.7694 73.8749 60.9565Z" fill="#004F9F"/>
<path d="M71.3548 62.2209C71.2123 62.4379 71.2048 62.4304 71.6773 62.7372C71.9623 62.9243 72.1123 63.1113 72.4498 63.695C72.6748 64.0916 72.8848 64.4433 72.9073 64.4658C72.9373 64.4882 73.0273 64.4134 73.1173 64.2862L73.2748 64.0617L72.9748 63.5977C72.8098 63.3433 72.6748 63.1113 72.6748 63.0814C72.6748 63.059 72.8698 63.059 73.1098 63.0889C73.8298 63.1787 73.8448 63.1787 74.0173 62.8943L74.1673 62.6324L74.0023 62.625C73.9123 62.625 73.4923 62.595 73.0798 62.5651C72.4048 62.5202 72.2773 62.4828 71.9473 62.2733C71.7448 62.1386 71.5498 62.0338 71.5273 62.0338C71.4973 62.0338 71.4223 62.1161 71.3548 62.2209Z" fill="#004F9F"/>
<path d="M44.8424 21.9401C44.4524 22.4265 43.8449 23.3618 43.4624 24.0503C43.1999 24.5217 43.1699 24.5516 43.0724 24.4244C42.3674 23.4442 41.0174 22.7482 39.5999 22.6285C38.9174 22.5686 38.9249 22.5537 39.0824 23.2646C39.1649 23.6462 39.1274 24.1101 38.9099 25.6217L38.8274 26.2129L38.6324 25.9884C38.2424 25.5319 37.4249 25.0605 36.7199 24.8734C36.2849 24.7537 35.0399 24.7387 34.8749 24.8435C34.7774 24.9033 34.7999 25.0081 35.0099 25.6067C35.2649 26.3401 35.4749 27.2979 35.4749 27.7394V28.0013L35.1974 27.7469C34.5374 27.1557 33.7649 26.8639 32.8649 26.8639C32.2574 26.8639 31.6574 27.0135 31.4924 27.2081C31.4249 27.2979 31.4699 27.3952 31.7774 27.7469C31.9799 27.9789 32.2199 28.2782 32.3099 28.4129C32.5049 28.6897 32.9474 29.7149 32.8949 29.7673C32.8724 29.7823 32.7524 29.7673 32.6249 29.7224C31.8899 29.4605 30.7799 29.5652 30.1874 29.9394C29.9099 30.119 29.3999 30.7401 29.3999 30.9047C29.3999 30.9272 29.6249 31.0918 29.8949 31.2714C30.4949 31.668 30.9449 32.2442 31.4099 33.2244C32.3999 35.3272 32.7074 35.9033 33.0299 36.27C33.4574 36.7414 34.1399 37.2054 34.6649 37.385C34.8824 37.4523 35.0774 37.5197 35.0924 37.5346C35.1074 37.5496 34.9124 37.7816 34.6649 38.051C34.2074 38.5374 33.7349 39.1809 33.4949 39.6523C33.2849 40.0489 32.7749 40.5578 32.3849 40.7523C32.0849 40.902 32.0249 40.9693 32.0249 41.1414C32.0249 41.5156 32.7599 42.4659 33.4724 42.9972C33.9824 43.3789 34.7249 43.7755 35.4749 44.0523C36.5324 44.4564 38.0924 44.3591 39.7799 43.7755C40.2674 43.6108 40.7174 43.4911 40.7849 43.5135C40.8599 43.536 41.0774 43.7156 41.2799 43.9251C41.6999 44.3516 42.5399 44.8081 43.3349 45.0476C43.6349 45.1374 43.8749 45.2571 43.8749 45.3095C43.8749 45.3618 43.8224 45.5265 43.7624 45.6761C43.6949 45.8258 43.5599 46.3122 43.4474 46.7537C43.2749 47.4421 43.2449 47.719 43.2449 48.7516C43.2374 49.4101 43.2674 50.1809 43.2974 50.4578L43.3649 50.9666L42.9599 50.9067C42.1649 50.787 40.8149 50.8544 39.8999 51.0564C38.5499 51.3557 37.7324 51.438 36.1349 51.438L34.6499 51.4306L31.9724 54.7979C30.4949 56.6537 29.2799 58.1952 29.2649 58.2251C29.2499 58.255 29.4074 58.5319 29.6099 58.8312C30.4499 60.0734 30.5624 60.5823 30.1499 61.2333C30.0299 61.4278 29.9549 61.585 29.9849 61.5925C30.0149 61.5925 32.7974 61.5925 36.1724 61.585L42.2999 61.5775L42.7574 61.8768C44.0324 62.7299 45.7874 62.6775 46.9949 61.7646L47.2274 61.585H53.5574H59.8799L59.5349 61.2258C59.0774 60.7544 58.9949 60.5823 59.0024 60.0435C59.0024 59.7067 59.0774 59.4224 59.2874 58.8986C59.5124 58.3374 59.5499 58.1652 59.4899 58.038C59.4449 57.9557 58.5674 56.4816 57.5474 54.7755L55.6799 51.67L54.7499 51.6925C53.6249 51.7224 53.1524 51.6401 51.4874 51.1088C50.0174 50.6448 49.2524 50.5401 48.1199 50.6598C47.6849 50.7047 47.0399 50.8244 46.6874 50.9217C46.3349 51.0265 46.0349 51.1088 46.0124 51.1088C45.7874 51.1088 45.6749 48.5721 45.8549 47.5469C45.9824 46.8061 46.3874 45.5115 46.5224 45.3768C46.5749 45.3319 46.8674 45.2421 47.1749 45.1673C47.9474 44.9952 48.7199 44.5687 49.0424 44.1346L49.2974 43.7904L49.5449 44.0374C49.9499 44.4489 51.2399 44.8306 52.5374 44.9428C53.6624 45.0326 54.9824 44.7482 55.8974 44.2095C56.8349 43.6632 57.7874 42.7204 58.1699 41.9646C58.3274 41.6652 58.4024 41.3809 58.3274 41.3809C57.9899 41.3809 56.9849 41.1863 56.7824 41.0816C56.3774 40.8795 55.9349 40.3782 55.3274 39.4727C54.8324 38.7244 54.4424 38.3129 53.8574 37.9387C53.6849 37.819 53.6849 37.819 54.2099 37.6095C55.4624 37.1231 56.3399 36.2625 57.3299 34.5639C58.5674 32.4387 59.2424 31.6006 60.0224 31.219C60.2174 31.1217 60.3749 31.002 60.3749 30.9496C60.3749 30.785 60.0524 30.4931 59.6624 30.3061C59.3399 30.1489 59.1599 30.119 58.3874 30.0965C57.5774 30.0666 57.4199 30.0891 56.9249 30.2537C56.6174 30.3584 56.3549 30.4333 56.3399 30.4183C56.3324 30.4108 56.4224 30.134 56.5499 29.8197C56.7824 29.236 57.0974 28.7197 57.5399 28.1959C57.7724 27.919 57.7724 27.9115 57.6374 27.7618C57.4574 27.5598 56.8499 27.3877 56.3324 27.3877C55.8899 27.3877 54.8624 27.6047 54.4049 27.7993C54.2474 27.8591 54.1124 27.904 54.0974 27.8816C54.0449 27.8367 54.3599 26.4074 54.5249 25.936C54.7199 25.3598 54.7199 25.3224 54.4424 25.2251C53.7374 24.9782 52.3349 25.3074 51.4124 25.936L51.1274 26.1231L51.1724 25.502C51.2024 25.1578 51.3074 24.5442 51.4199 24.1326C51.7199 23.0101 51.7499 23.0925 50.9999 23.0625C49.8149 23.0176 48.9224 23.3544 47.8799 24.2374L47.2724 24.7537L47.0399 24.2748C46.5899 23.3693 45.3749 21.551 45.2099 21.551C45.1799 21.551 45.0149 21.7306 44.8424 21.9401ZM45.8699 23.9231C46.4849 24.7686 47.1299 26.4224 47.4899 28.0537C47.6249 28.6523 47.6549 29.0265 47.6549 30.3061C47.6624 32.0047 47.5799 32.6108 47.1599 33.8455C46.7399 35.1176 46.3349 35.6938 45.6374 36.038C45.2249 36.2326 45.2174 36.2326 44.8799 36.1054C44.3249 35.8959 43.7099 35.2673 43.3649 34.5489C42.4124 32.6033 42.2624 30.1639 42.9374 27.5972C43.3124 26.138 44.1149 24.4095 44.7899 23.5714L45.1649 23.1149L45.3524 23.287C45.4574 23.3843 45.6899 23.6686 45.8699 23.9231ZM40.7699 23.7884C41.3999 24.0877 42.0599 24.7462 42.3674 25.3823L42.6074 25.8836L42.2999 26.8639C41.3099 30.0891 41.4374 32.9625 42.6599 34.9755C42.8024 35.2224 43.0274 35.5292 43.1474 35.6714C43.4099 35.9707 43.3274 35.9931 42.6224 35.7761C41.2724 35.3646 40.1699 34.1074 39.5549 32.2816C39.1349 31.0394 39.1574 29.887 39.6449 26.9163C39.7874 26.0482 39.9449 24.9333 39.9899 24.4469C40.0949 23.4367 40.0724 23.4591 40.7699 23.7884ZM50.4374 24.0727C50.1374 24.851 50.0774 26.3326 50.2049 29.7074C50.2574 31.1816 50.2499 31.5857 50.1449 32.1768C49.8224 34.1149 49.0424 35.3721 47.6924 36.0979C47.3474 36.2925 47.3174 36.2925 47.1074 36.1802L46.8749 36.068L47.1524 35.7088C47.6924 35.0054 48.2474 33.5687 48.4649 32.2965C48.5174 32.0047 48.5549 31.1741 48.5549 30.4557C48.5474 28.9741 48.4349 28.1659 48.0299 26.7666C47.8874 26.2802 47.7749 25.8387 47.7749 25.7863C47.7749 25.6292 48.2774 25.0979 48.7724 24.7238C49.5749 24.1176 50.5724 23.7285 50.4374 24.0727ZM37.0724 25.8836C37.4999 26.0931 38.0099 26.5421 38.3624 27.0135L38.6399 27.3877L38.5124 28.3081C38.3624 29.3707 38.3399 31.0169 38.4674 31.7503C38.6024 32.551 38.8949 33.3666 39.2699 34.0101C39.7199 34.7734 40.6499 35.7088 41.3999 36.1503L41.9624 36.4795L41.6399 36.502C41.1749 36.5394 40.0949 36.2476 39.4949 35.9333C38.3999 35.3646 37.3199 33.9727 36.8324 32.4986C36.5249 31.5782 36.3749 30.4707 36.2924 28.4727C36.2549 27.5224 36.1949 26.602 36.1574 26.4149C36.1124 26.2278 36.0824 25.9809 36.0749 25.8612C36.0749 25.6516 36.0824 25.6516 36.4049 25.6816C36.5849 25.704 36.8849 25.7938 37.0724 25.8836ZM53.3774 26.6544C53.3024 27.6272 52.8749 30.8374 52.7174 31.6081C52.2374 33.9652 51.2624 35.4918 49.7774 36.2101C49.3049 36.4421 48.6749 36.5918 48.6749 36.4721C48.6824 36.4346 48.8324 36.285 49.0199 36.1428C49.6799 35.634 50.4149 34.4741 50.7749 33.3741C51.1049 32.3564 51.1874 31.6455 51.1724 29.8346C51.1724 28.8918 51.1424 27.9789 51.1199 27.7993C51.0749 27.5074 51.0899 27.4476 51.2924 27.2156C51.6149 26.8564 52.2374 26.4448 52.7249 26.2652C53.4149 26.0183 53.4299 26.0258 53.3774 26.6544ZM34.1099 27.9265C34.6199 28.1659 35.3474 28.8244 35.4749 29.1462C35.5124 29.251 35.5499 29.5503 35.5499 29.7972C35.5499 30.4632 35.7599 31.7353 35.9774 32.4312C36.3749 33.6959 37.2674 35.1326 38.1224 35.8809C38.3399 36.068 38.7599 36.3823 39.0674 36.5768L39.6224 36.9285L39.3299 36.951C38.9399 36.9884 38.1899 36.7863 37.4999 36.4571C37.0424 36.2476 36.8024 36.0605 36.2249 35.4768C35.1674 34.4142 34.8899 33.8306 33.9674 30.6952C33.5324 29.1986 33.3824 28.8169 32.9624 28.0986C32.8499 27.919 32.7824 27.7319 32.8124 27.687C32.8949 27.5523 33.5999 27.687 34.1099 27.9265ZM56.3999 28.2557C56.3999 28.2782 56.2349 28.6374 56.0249 29.0564C55.7774 29.5578 55.5074 30.3061 55.2449 31.2414C55.0199 32.0197 54.7424 32.8802 54.6374 33.1496C54.1649 34.3095 52.7924 35.9931 51.9899 36.3972C51.5999 36.5918 50.7149 36.8612 50.6549 36.7938C50.6324 36.7789 50.8124 36.6142 51.0524 36.4346C51.9749 35.7238 52.9424 34.0625 53.3174 32.551C53.4299 32.0795 53.6249 31.0993 53.7374 30.3809C53.8574 29.6625 53.9849 29.0265 54.0299 28.9741C54.1349 28.8319 54.7799 28.5101 55.2749 28.353C55.6649 28.2258 56.3999 28.1584 56.3999 28.2557ZM32.5649 30.6727C33.1274 30.9421 33.3899 31.2564 33.5549 31.8476C34.1249 33.9054 34.5824 34.8557 35.3999 35.7163C35.7299 36.0605 36.1874 36.4795 36.4199 36.6367L36.8474 36.9285L36.4199 36.951C35.1674 37.0183 33.9599 36.4047 33.2549 35.3421C33.0974 35.1027 32.7074 34.3244 32.3849 33.6135C31.6874 32.0496 31.5374 31.7802 31.0049 31.1891C30.7799 30.9421 30.5999 30.7101 30.5999 30.6802C30.5999 30.4108 32.0099 30.4108 32.5649 30.6727ZM58.5749 30.9571C58.5749 31.0244 58.4549 31.204 58.0049 31.8476C57.8324 32.0945 57.3974 32.8428 57.0374 33.5238C55.9199 35.634 55.4174 36.2101 54.1799 36.8238C53.4374 37.1904 53.3549 37.2129 52.6874 37.2503C52.2974 37.2652 51.9749 37.2652 51.9749 37.2503C51.9749 37.2278 52.1999 37.0782 52.4699 36.921C52.9799 36.6217 53.7749 35.851 54.3974 35.0428C54.8399 34.4591 55.2749 33.6584 55.5449 32.8877C55.7174 32.4163 55.8449 32.2067 56.1374 31.9074C56.5724 31.4659 57.0824 31.1516 57.5849 31.0169C57.9749 30.9047 58.5749 30.8748 58.5749 30.9571ZM46.1999 37.1231C47.1824 37.3476 48.3374 38.2605 48.7799 39.1734C49.2224 40.0714 49.1174 41.0292 48.5099 41.568C48.0074 42.0244 47.6174 42.1666 46.8299 42.1666C46.2149 42.1666 46.1099 42.1442 45.6674 41.9197L45.1874 41.6727L44.6999 41.8823C44.2724 42.0618 44.1149 42.0918 43.4249 42.0918C42.7049 42.0918 42.6074 42.0768 42.2924 41.8897C41.2349 41.2687 40.8899 40.1537 41.4449 39.121C41.7524 38.5598 42.5849 37.7067 43.0724 37.4673C43.2899 37.355 43.6874 37.2129 43.9574 37.1605C44.5274 37.0333 45.7274 37.0108 46.1999 37.1231ZM41.3999 37.7666C41.3999 37.7965 41.3174 37.9013 41.2199 38.0061C41.1224 38.1183 40.8449 38.5673 40.6049 39.0163C40.1099 39.9217 39.8924 40.1387 38.9999 40.6176C37.9499 41.1789 36.6824 41.4557 35.1299 41.4557C34.3949 41.4557 33.5174 41.3584 33.3524 41.2537C33.3224 41.2387 33.3899 41.0965 33.5099 40.9469C33.6299 40.7972 33.9974 40.2584 34.3424 39.7571C35.2949 38.3428 35.7674 38.0135 37.1024 37.8265C37.8674 37.7217 41.3999 37.6768 41.3999 37.7666ZM49.9949 37.9387C50.3174 37.9836 51.0749 38.0435 51.6749 38.0809C52.3274 38.1258 52.9049 38.2006 53.1224 38.2755C53.6024 38.4476 54.0449 38.8891 54.8624 40.034C55.6049 41.0666 56.0249 41.5006 56.5199 41.7625C56.6999 41.8598 56.8499 41.9646 56.8499 41.9945C56.8499 42.0993 56.0399 42.436 55.5374 42.5408C54.1949 42.8251 52.4624 42.5707 50.9174 41.8523C50.2499 41.5455 50.1974 41.4632 50.0999 40.6176C50.0024 39.802 49.9124 39.5101 49.4924 38.6721C49.2899 38.268 49.1249 37.9238 49.1249 37.9013C49.1249 37.8489 49.3274 37.8564 49.9949 37.9387ZM40.3124 41.6952C40.3649 42.2265 40.3574 42.2414 40.1474 42.421L39.9374 42.6006L39.9149 41.9721C39.8999 41.4482 39.9149 41.3285 40.0199 41.2537C40.0949 41.2013 40.1774 41.1564 40.2074 41.1564C40.2299 41.1564 40.2824 41.4033 40.3124 41.6952ZM39.3749 42.1965C39.3749 42.8101 39.3599 42.8775 39.2099 42.9823C38.8874 43.2142 38.8499 43.1544 38.8499 42.3911C38.8499 41.7176 38.8574 41.6727 39.0224 41.6054C39.3599 41.4707 39.3749 41.4931 39.3749 42.1965ZM38.3849 42.5408C38.3624 43.2816 38.3099 43.3938 38.0099 43.4013C37.8899 43.4013 37.8749 43.319 37.8749 42.6605C37.8749 41.8823 37.8899 41.8448 38.2349 41.8374C38.4149 41.8299 38.4149 41.8374 38.3849 42.5408ZM37.3499 42.7204C37.3499 43.4612 37.3499 43.4612 37.1549 43.5061C37.0424 43.536 36.9224 43.5285 36.8849 43.4911C36.8474 43.4537 36.8249 43.1244 36.8399 42.7652C36.8624 42.0618 36.8774 42.0394 37.2974 41.987C37.3274 41.9795 37.3499 42.3163 37.3499 42.7204ZM34.2599 42.234C34.2749 42.2489 34.2749 42.3687 34.2599 42.4959L34.2374 42.7278L33.8999 42.421L33.5624 42.1217L33.8999 42.1666C34.0799 42.1891 34.2449 42.2265 34.2599 42.234ZM36.3599 42.8251L36.3824 43.4761H36.1124H35.8499V42.8476C35.8499 42.3088 35.8724 42.2115 35.9849 42.1816C36.3074 42.0918 36.3374 42.1442 36.3599 42.8251ZM35.3249 42.7278C35.3249 43.0122 35.3099 43.2516 35.2874 43.2516C35.2574 43.2516 35.1449 43.1993 35.0249 43.1394C34.8149 43.0346 34.7999 42.9897 34.7999 42.6156V42.204H35.0624H35.3249V42.7278ZM48.8174 43.4088C48.7799 43.4761 48.6674 43.5884 48.5624 43.6557L48.3749 43.7755V43.1843C48.3749 42.6006 48.3824 42.5857 48.5849 42.5183C48.7874 42.451 48.7874 42.451 48.8324 42.87C48.8549 43.102 48.8474 43.3414 48.8174 43.4088ZM41.7824 42.5782C41.8949 42.6455 41.9249 42.7428 41.9249 43.0421V43.4312L41.6999 43.2142C41.5349 43.0571 41.4749 42.9299 41.4749 42.7503C41.4749 42.4884 41.5424 42.451 41.7824 42.5782ZM50.4374 42.6306C50.6999 42.7578 50.6999 42.7578 50.6999 43.2292C50.6999 43.4911 50.6774 43.7006 50.6549 43.7006C50.6249 43.7006 50.4899 43.6333 50.3549 43.5435C50.1149 43.3938 50.0999 43.3714 50.0999 42.9448C50.0999 42.7054 50.1149 42.5033 50.1374 42.5033C50.1524 42.5033 50.2874 42.5632 50.4374 42.6306ZM45.3899 42.855C45.5024 42.9598 45.5249 43.0945 45.5249 43.8278V44.6734H45.3074C44.8574 44.6734 44.8499 44.651 44.8499 43.7904C44.8499 43.1618 44.8724 42.9748 44.9774 42.8625C45.1274 42.6979 45.2099 42.6904 45.3899 42.855ZM47.7749 43.4687V44.2095L47.5424 44.2918C47.4074 44.3367 47.2874 44.3741 47.2799 44.3741C47.2649 44.3741 47.2499 44.0224 47.2499 43.5959C47.2499 42.7652 47.2499 42.7652 47.6474 42.7353C47.7599 42.7278 47.7749 42.8101 47.7749 43.4687ZM43.0349 43.4986L43.0574 44.1496L42.7874 44.0224L42.5249 43.8952V43.3489V42.7952L42.7724 42.8176L43.0124 42.8401L43.0349 43.4986ZM46.7249 43.6931C46.7249 44.4714 46.7174 44.5088 46.5599 44.5537C46.4624 44.5761 46.3124 44.5986 46.2224 44.5986C46.0574 44.5986 46.0499 44.5761 46.0499 43.8802C46.0499 43.0197 46.1099 42.8775 46.4624 42.8775H46.7249V43.6931ZM44.2649 43.738C44.2499 44.1496 44.2274 44.4938 44.2124 44.5088C44.2049 44.5238 44.0774 44.5013 43.9424 44.4639L43.6874 44.404L43.6499 43.6707L43.6124 42.9448L43.9499 42.9673L44.2874 42.9897L44.2649 43.738ZM51.5924 43.1095C51.8174 43.1918 51.8249 43.2067 51.8249 43.6408C51.8249 44.0523 51.8099 44.0823 51.6749 44.0448C51.5924 44.0224 51.4574 43.9775 51.3749 43.955C51.2474 43.9176 51.2249 43.8503 51.2249 43.4687C51.2249 42.9897 51.2324 42.9823 51.5924 43.1095ZM55.9499 43.2516C55.8074 43.3714 55.5974 43.521 55.4849 43.5884C55.2749 43.7081 55.2749 43.7081 55.2749 43.4911C55.2749 43.2891 55.3124 43.2666 55.6724 43.1618C56.2274 42.9972 56.2424 43.0047 55.9499 43.2516ZM52.8599 43.7904C52.8824 44.1795 52.8674 44.2244 52.7324 44.2244C52.4099 44.2244 52.3499 44.1496 52.3499 43.7231V43.319L52.5974 43.3414C52.8374 43.3639 52.8374 43.3714 52.8599 43.7904ZM54.7499 43.6557C54.7499 43.9476 54.7274 43.985 54.5624 44.0149C54.3824 44.0523 54.3749 44.0374 54.3749 43.7306C54.3749 43.4238 54.4124 43.3789 54.6974 43.334C54.7274 43.334 54.7499 43.4761 54.7499 43.6557ZM53.8349 43.8278C53.8124 44.1571 53.7974 44.187 53.6099 44.2095C53.4074 44.2319 53.3999 44.2244 53.3999 43.8578C53.3999 43.4836 53.4074 43.4761 53.6324 43.4761C53.8574 43.4761 53.8574 43.4836 53.8349 43.8278ZM45.5249 45.4816C45.5249 45.5115 45.4349 45.7959 45.3374 46.1176C44.8799 47.5319 44.7749 49.4625 45.0599 50.8693C45.2249 51.6925 45.1874 51.7523 44.6549 51.4979C44.2874 51.3183 44.2349 51.1911 44.0999 50.136C43.9124 48.6244 44.0849 47.2176 44.6324 45.7584L44.7749 45.3843L45.1499 45.4067C45.3524 45.4217 45.5249 45.4591 45.5249 45.4816ZM50.9624 51.5952C53.1524 52.2836 52.9874 52.2537 54.2099 52.2911L55.3499 52.321L55.9799 53.3836C56.3249 53.9598 57.0674 55.2095 57.6299 56.1523L58.6499 57.8584L57.5474 57.8285C56.6774 57.7986 55.9574 57.7088 54.2249 57.4095C53.0099 57.1999 51.6299 56.9904 51.1574 56.938C49.9649 56.8183 48.2849 56.8857 47.4749 57.0952C46.8074 57.2673 45.8999 57.6489 45.5324 57.9108C45.4124 58.0006 45.2774 58.068 45.2324 58.068C45.1199 58.068 45.1274 57.2823 45.2624 54.8129C45.3224 53.6979 45.3749 52.6503 45.3749 52.4782C45.3749 52.1639 45.3824 52.1564 45.8099 51.9394C46.8449 51.4156 47.6399 51.2584 49.0124 51.2884C49.9874 51.3108 50.1299 51.3333 50.9624 51.5952ZM42.7274 51.5204C43.2899 51.5727 43.9274 51.7823 44.3774 52.0591L44.7074 52.2687L44.6699 52.8299C44.6474 53.1367 44.5949 54.1843 44.5499 55.1496C44.4524 57.3346 44.3999 58.0081 44.3399 57.9782C42.3974 56.9755 42.1424 56.9156 39.7874 56.9156C37.9649 56.9156 37.8599 56.9231 36.2249 57.1925C33.2024 57.7013 32.0999 57.8435 31.2149 57.8435H30.3674L30.8174 57.2598C31.0724 56.9455 32.1074 55.636 33.1274 54.3639L34.9874 52.0442L36.0374 52.0666C37.3274 52.0965 38.4749 51.9918 39.8999 51.7074C41.3774 51.4081 41.4899 51.4006 42.7274 51.5204ZM42.0374 57.6115C43.0124 57.851 44.1149 58.3823 43.9574 58.5394C43.9049 58.5918 43.7024 58.5319 43.2974 58.3448C42.1874 57.8285 41.7224 57.7462 39.8999 57.7387C38.3549 57.7387 38.1899 57.7537 35.9249 58.0829C33.0974 58.5095 32.2874 58.5918 31.1249 58.5918C30.4124 58.5918 30.2249 58.5693 30.1424 58.4721C30.0599 58.3673 30.0974 58.3598 30.5699 58.4047C31.2074 58.4721 32.5874 58.3523 34.1324 58.0979C38.3924 57.4095 38.5424 57.3945 40.1624 57.4319C41.1074 57.4544 41.5949 57.4993 42.0374 57.6115ZM50.7974 57.4693C51.3224 57.5142 52.8524 57.7312 54.2024 57.9632C56.0099 58.2625 56.9474 58.3897 57.7274 58.4197C58.4024 58.4496 58.7774 58.4945 58.7474 58.5394C58.7174 58.5843 58.2824 58.5993 57.5699 58.5693C56.6924 58.5394 55.9274 58.4421 54.1499 58.1353C51.8924 57.7462 51.8399 57.7462 50.2874 57.7387C48.8849 57.7387 48.6449 57.7612 48.1124 57.9033C47.4824 58.0755 46.5674 58.4795 46.1924 58.7489L45.9749 58.9061L45.8249 58.7265C45.7424 58.6367 45.6824 58.5319 45.6749 58.5095C45.6749 58.4047 46.8824 57.8435 47.4449 57.6863C48.4349 57.417 49.3724 57.3571 50.7974 57.4693ZM41.0249 58.1428C42.0224 58.27 43.0349 58.5843 43.4624 58.9135C43.7249 59.1156 43.5374 59.1231 43.1024 58.9285C41.5199 58.2326 39.6524 58.1652 36.2249 58.6666C33.4499 59.0782 32.9774 59.1306 31.7849 59.138C30.9299 59.153 30.5849 59.1306 30.5174 59.0557C30.4424 58.9809 30.6299 58.9659 31.4624 58.9659C32.6474 58.9659 33.7574 58.8537 36.2624 58.4721C39.0149 58.0605 39.8474 58.0006 41.0249 58.1428ZM51.2624 58.1428C51.7199 58.1877 52.9799 58.3673 54.0749 58.5544C55.1699 58.734 56.5199 58.936 57.0749 58.9959L58.0874 59.1081L57.1499 59.0707C56.6324 59.0557 55.6724 58.9584 55.0124 58.8537C52.7249 58.487 52.3799 58.4421 51.4424 58.3673C49.8149 58.2326 48.3074 58.4795 47.0324 59.0782C46.5074 59.3326 46.3049 59.3925 46.2674 59.3251C46.1699 59.168 46.9274 58.734 47.8124 58.4421C48.8474 58.0979 49.8524 58.0156 51.2624 58.1428ZM45.8174 60.0135C46.2149 60.7768 46.2824 61.151 46.0499 61.3979C45.8174 61.6448 45.4649 61.7346 44.7524 61.7346C44.1449 61.7346 43.7624 61.6299 43.5749 61.4054C43.2674 61.0238 43.7249 59.8789 44.5724 58.9135L44.8124 58.6442L45.1649 59.0408C45.3599 59.2578 45.6524 59.6993 45.8174 60.0135ZM41.0624 58.8163C41.9474 58.9435 43.2749 59.3401 43.2749 59.4823C43.2749 59.5122 43.2299 59.5945 43.1774 59.6693C43.0874 59.7891 43.0349 59.7816 42.2849 59.5721C40.3274 59.0258 38.6999 58.9734 36.5249 59.3999C34.8149 59.7367 33.9074 59.819 32.5124 59.7591C31.0124 59.6918 30.4349 59.587 31.5374 59.5721C32.6249 59.5571 33.7799 59.4448 35.7749 59.1455C36.7424 59.0033 37.8074 58.8612 38.1374 58.8238C38.9999 58.734 40.4474 58.734 41.0624 58.8163ZM54.0374 59.1231C55.4474 59.3476 56.3249 59.4448 57.2024 59.4823C58.2599 59.5197 58.4099 59.5421 58.3499 59.6394C58.2299 59.834 56.8724 59.7741 55.2374 59.5047C53.1299 59.1605 52.2299 59.0931 50.5574 59.138C48.9524 59.1829 48.3974 59.2802 47.2499 59.7217C46.9124 59.8489 46.6199 59.9387 46.5974 59.9163C46.3799 59.6918 48.0674 59.0183 49.3199 58.8163C50.2199 58.6741 51.9524 58.7863 54.0374 59.1231ZM41.0849 59.7067C42.2849 59.9612 42.8999 60.1632 42.8999 60.3204C42.8999 60.4925 42.8999 60.4925 42.1349 60.3129C40.8224 60.0061 39.8699 59.9163 38.4374 59.9612C37.6874 59.9836 36.6374 60.0734 36.0749 60.1557C34.6874 60.3652 33.0974 60.4326 31.9874 60.3204C31.4924 60.268 31.0574 60.2006 31.0274 60.1632C30.9899 60.1333 31.7024 60.1258 32.6024 60.1482C34.3499 60.1857 34.8599 60.1408 36.5999 59.819C37.1549 59.7067 37.8299 59.5945 38.0999 59.5646C38.8124 59.4673 40.2824 59.5421 41.0849 59.7067ZM52.8599 59.602C53.4674 59.6693 54.5024 59.8115 55.1624 59.9163C56.0249 60.0659 56.6399 60.1183 57.3524 60.1258C58.3949 60.1258 58.6499 60.2231 57.8924 60.3353C57.3824 60.4027 56.3399 60.3503 54.7874 60.1632C52.7999 59.9238 51.2324 59.8489 50.1674 59.9312C49.2074 60.0135 47.9474 60.2231 47.2949 60.4251C46.8374 60.5598 46.7999 60.5673 46.7999 60.4326C46.7999 60.3204 47.4524 60.051 48.2249 59.8265C49.4249 59.4897 51.0224 59.4149 52.8599 59.602ZM40.8899 60.4925C41.9549 60.6646 42.7499 60.8666 42.7499 60.9639C42.7499 61.0238 42.6974 61.0387 42.5849 60.9938C42.4949 60.9639 39.8624 60.9489 36.7349 60.9714L31.0499 61.0088V60.8067C31.0499 60.6496 31.0799 60.6122 31.1849 60.6421C31.2524 60.6646 31.7774 60.717 32.3399 60.7618C33.5024 60.8442 34.7549 60.7768 36.4124 60.5448C36.9899 60.4625 37.6349 60.3802 37.8374 60.3578C38.4599 60.3129 40.2299 60.3877 40.8899 60.4925ZM52.9199 60.3877C53.4524 60.4326 54.4349 60.5374 55.1024 60.6197C55.9724 60.7319 56.6324 60.7693 57.3749 60.7469C57.9524 60.7319 58.4249 60.7319 58.4249 60.7394C58.4249 60.7469 58.4474 60.7993 58.4699 60.8666C58.5149 60.9789 57.9824 60.9863 52.7924 60.9863C49.6424 60.9863 47.0999 60.9564 47.1449 60.9265C47.2874 60.7993 48.9299 60.4625 49.8749 60.3652C50.4524 60.3054 52.0049 60.3204 52.9199 60.3877Z" fill="#004F9F"/>
<path d="M47.7749 52.2987C47.7749 52.5232 47.8799 52.6055 48.1874 52.6055C48.5024 52.6055 48.6674 52.4708 48.5549 52.2987C48.5024 52.2089 47.7749 52.2089 47.7749 52.2987Z" fill="#004F9F"/>
<path d="M46.9125 52.4109C46.7475 52.4632 46.5375 52.5456 46.44 52.5979C46.275 52.6877 46.2675 52.7027 46.3875 52.8299C46.5 52.9571 46.5225 52.9571 46.8975 52.8C47.295 52.6428 47.325 52.6129 47.325 52.4183C47.325 52.2837 47.31 52.2837 46.9125 52.4109Z" fill="#004F9F"/>
<path d="M49.065 52.4706C49.08 52.6053 49.1625 52.6502 49.5225 52.7176C49.9125 52.7924 49.965 52.7924 50.0325 52.6727C50.1375 52.4781 50.13 52.4781 49.725 52.3883C49.1475 52.2611 49.035 52.2761 49.065 52.4706Z" fill="#004F9F"/>
<path d="M50.4525 52.7549C50.4075 52.9345 50.4375 52.9569 50.8125 52.9868C51.0675 53.0168 51.1125 52.9943 51.135 52.8596C51.15 52.7324 51.105 52.6875 50.9175 52.6501C50.5575 52.5828 50.4975 52.5902 50.4525 52.7549Z" fill="#004F9F"/>
<path d="M51.675 52.9721C51.675 53.1143 51.93 53.2041 52.3575 53.2041C52.5225 53.2041 52.575 53.1667 52.575 53.0619C52.575 52.9048 52.38 52.83 51.96 52.83C51.7275 52.83 51.675 52.8599 51.675 52.9721Z" fill="#004F9F"/>
<path d="M53.2275 53.0317C53.1975 53.0542 53.175 53.144 53.175 53.2188C53.175 53.3311 53.235 53.3535 53.5125 53.3535C53.82 53.3535 53.85 53.3385 53.85 53.1664C53.85 53.0018 53.82 52.9794 53.565 52.9794C53.4075 52.9794 53.25 53.0018 53.2275 53.0317Z" fill="#004F9F"/>
<path d="M47.2875 53.3088C46.545 53.5034 46.38 53.6156 46.5975 53.7877C46.665 53.8476 46.8225 53.8326 47.1675 53.7279C47.4225 53.6456 47.7375 53.5782 47.8575 53.5782C48.0375 53.5782 48.075 53.5483 48.075 53.3911C48.075 53.234 48.0375 53.2041 47.8725 53.2115C47.7525 53.2115 47.4975 53.2564 47.2875 53.3088Z" fill="#004F9F"/>
<path d="M48.675 53.346C48.675 53.5256 48.7125 53.5481 49.2225 53.6154C49.5375 53.6603 49.575 53.6454 49.575 53.5107C49.575 53.3236 49.5375 53.3011 49.065 53.2338C48.6975 53.1889 48.675 53.1964 48.675 53.346Z" fill="#004F9F"/>
<path d="M50.0699 53.5484C50.0099 53.713 50.1074 53.7729 50.5274 53.8402C50.8724 53.8926 50.9999 53.8552 50.9999 53.6906C50.9999 53.5484 50.9474 53.526 50.5049 53.4661C50.1824 53.4287 50.1149 53.4362 50.0699 53.5484Z" fill="#004F9F"/>
<path d="M51.5025 53.7954C51.45 54.0049 51.495 54.0273 52.0275 54.0273C52.44 54.0273 52.5 54.0124 52.5 53.8852C52.5 53.7804 52.425 53.7355 52.155 53.6981C51.6225 53.6307 51.5475 53.6382 51.5025 53.7954Z" fill="#004F9F"/>
<path d="M53.1375 53.9374C53.0625 54.132 53.1 54.1544 53.4975 54.2068C53.7075 54.2367 54.03 54.2741 54.21 54.2966C54.495 54.3415 54.525 54.3265 54.525 54.1918C54.525 53.9823 54.4725 53.9598 53.7825 53.8925C53.3025 53.8476 53.175 53.8551 53.1375 53.9374Z" fill="#004F9F"/>
<path d="M48.2324 54.1695C48.1799 54.2069 48.1499 54.2967 48.1799 54.3715C48.2174 54.4912 48.2999 54.5137 48.6899 54.5137C49.0949 54.5137 49.1699 54.4912 49.2074 54.364C49.2299 54.2817 49.2149 54.1919 49.1699 54.162C49.0574 54.0797 48.3599 54.0871 48.2324 54.1695Z" fill="#004F9F"/>
<path d="M49.755 54.349C49.7325 54.4313 49.7475 54.5211 49.8 54.551C49.935 54.6333 50.4675 54.7082 50.5575 54.6633C50.655 54.5959 50.64 54.3265 50.535 54.3265C50.4825 54.3191 50.295 54.2891 50.1225 54.2592C49.8375 54.2068 49.8 54.2143 49.755 54.349Z" fill="#004F9F"/>
<path d="M47.1 54.4015C46.47 54.6484 46.665 54.9552 47.3175 54.7382C47.6775 54.6185 47.685 54.611 47.61 54.4314C47.5125 54.2219 47.5425 54.2294 47.1 54.4015Z" fill="#004F9F"/>
<path d="M51.0525 54.6181C51 54.8201 51.0375 54.8351 51.555 54.8949C51.975 54.9473 51.975 54.9473 51.975 54.7453C51.975 54.5956 51.9375 54.5507 51.81 54.5507C51.7125 54.5507 51.5175 54.5283 51.3675 54.5058C51.135 54.4684 51.09 54.4834 51.0525 54.6181Z" fill="#004F9F"/>
<path d="M52.575 54.8654C52.575 55.0301 52.6125 55.06 52.92 55.1049C53.505 55.1797 53.625 55.1648 53.625 55.0076C53.625 54.8131 53.5875 54.7981 53.04 54.7307C52.5825 54.6784 52.575 54.6859 52.575 54.8654Z" fill="#004F9F"/>
<path d="M54.195 54.9623C54.135 55.1718 54.285 55.2317 54.8025 55.2018C55.3275 55.1793 55.395 55.1419 55.29 54.9548C55.2375 54.8575 55.11 54.8276 54.7275 54.8201C54.2925 54.8126 54.225 54.8276 54.195 54.9623Z" fill="#004F9F"/>
<path d="M48.4799 55.1943C48.5024 55.2617 48.5249 55.344 48.5249 55.3814C48.5249 55.4188 48.7049 55.4487 48.9299 55.4487C49.2974 55.4487 49.3349 55.4338 49.3649 55.2617C49.4024 55.0746 49.3949 55.0746 48.9224 55.0746C48.5099 55.0746 48.4424 55.0895 48.4799 55.1943Z" fill="#004F9F"/>
<path d="M49.9349 55.1947C49.7924 55.3294 49.8824 55.5165 50.0999 55.5539C50.2274 55.5763 50.4224 55.6138 50.5424 55.6437C50.7224 55.6736 50.7599 55.6512 50.7974 55.509C50.8274 55.4192 50.8199 55.3144 50.7899 55.2845C50.7074 55.2097 49.9949 55.1274 49.9349 55.1947Z" fill="#004F9F"/>
<path d="M47.1599 55.3815C46.8449 55.5386 46.8149 55.606 46.9874 55.7481C47.0849 55.8305 47.1824 55.823 47.5124 55.7032C47.8499 55.591 47.9249 55.5386 47.9249 55.3964C47.9249 55.2543 47.8874 55.2243 47.6849 55.2243C47.5499 55.2318 47.3099 55.2992 47.1599 55.3815Z" fill="#004F9F"/>
<path d="M51.2999 55.4787C51.2999 55.5386 51.2849 55.6359 51.2624 55.6883C51.2324 55.7706 51.3524 55.8155 51.7649 55.8828C52.0574 55.9277 52.3349 55.9502 52.3649 55.9277C52.3949 55.9053 52.4249 55.808 52.4249 55.7182C52.4249 55.561 52.3799 55.5386 51.9974 55.4937C51.7574 55.4638 51.5024 55.4264 51.4349 55.4039C51.3449 55.3815 51.2999 55.4039 51.2999 55.4787Z" fill="#004F9F"/>
<path d="M52.9199 55.7933C52.8899 55.8981 52.8824 56.0028 52.8974 56.0178C52.9124 56.0328 53.1824 56.0702 53.4974 56.0926L54.0749 56.145V55.9579C54.0749 55.7784 54.0449 55.7634 53.6474 55.7185C53.4074 55.6886 53.1599 55.6511 53.0924 55.6287C53.0024 55.6062 52.9499 55.6586 52.9199 55.7933Z" fill="#004F9F"/>
<path d="M54.5775 56.01C54.5325 56.2569 54.57 56.2719 55.2 56.3242L55.725 56.3691V56.1746C55.725 55.9651 55.7325 55.9725 54.93 55.8678C54.645 55.8304 54.615 55.8378 54.5775 56.01Z" fill="#004F9F"/>
<path d="M41.4148 52.4705C41.4373 52.6201 41.4823 52.6426 41.7748 52.6426C42.0673 52.6426 42.1123 52.6201 42.1348 52.4705C42.1573 52.3208 42.1348 52.3058 41.7748 52.3058C41.4148 52.3058 41.3923 52.3208 41.4148 52.4705Z" fill="#004F9F"/>
<path d="M40.29 52.4783C39.9375 52.5457 39.9 52.5681 39.945 52.7103C39.975 52.8001 39.9975 52.8749 40.005 52.8824C40.0125 52.8974 40.215 52.8599 40.4475 52.815C40.815 52.7327 40.875 52.7028 40.875 52.5531C40.875 52.3661 40.875 52.3661 40.29 52.4783Z" fill="#004F9F"/>
<path d="M42.5999 52.598C42.5999 52.8001 43.3724 53.1144 43.5374 52.9797C43.7099 52.8375 43.6799 52.7851 43.2824 52.613C42.8099 52.411 42.5999 52.411 42.5999 52.598Z" fill="#004F9F"/>
<path d="M38.9474 52.7324C38.8349 52.7549 38.7749 52.8222 38.7749 52.912C38.7749 53.0243 38.8274 53.0542 39.0599 53.0542C39.4049 53.0542 39.5474 52.9719 39.4799 52.8073C39.4349 52.6875 39.2924 52.6651 38.9474 52.7324Z" fill="#004F9F"/>
<path d="M36.075 53.017C36.075 53.1817 36.105 53.2041 36.375 53.2041C36.6225 53.2041 36.675 53.1742 36.675 53.0619C36.675 52.9048 36.5325 52.83 36.255 52.83C36.1125 52.83 36.075 52.8674 36.075 53.017Z" fill="#004F9F"/>
<path d="M37.5224 52.8823C37.4099 52.9048 37.3499 52.9721 37.3499 53.0619C37.3499 53.1891 37.4024 53.2041 37.7999 53.2041C38.2274 53.2041 38.2499 53.1966 38.2499 53.017C38.2499 52.8524 38.2199 52.83 37.9724 52.8374C37.8149 52.8449 37.6124 52.8674 37.5224 52.8823Z" fill="#004F9F"/>
<path d="M40.6724 53.3314C40.4174 53.3538 40.3499 53.3912 40.3499 53.5035C40.3499 53.7055 40.4249 53.728 40.8674 53.6756C41.2049 53.6382 41.2499 53.6157 41.2499 53.4586C41.2499 53.3314 41.2124 53.2865 41.1224 53.2939C41.0474 53.3014 40.8449 53.3164 40.6724 53.3314Z" fill="#004F9F"/>
<path d="M41.7749 53.4885C41.7749 53.5932 41.8799 53.6381 42.2699 53.713C42.5399 53.7653 42.8699 53.8626 42.9974 53.9225C43.2074 54.0347 43.2299 54.0347 43.3274 53.9075C43.3799 53.8327 43.4249 53.7504 43.4249 53.7204C43.4249 53.6306 42.4499 53.3538 42.1124 53.3538C41.8424 53.3538 41.7749 53.3762 41.7749 53.4885Z" fill="#004F9F"/>
<path d="M39.1648 53.5556C38.9623 53.5855 38.9173 53.6155 38.9398 53.7502C38.9623 53.8923 39.0073 53.9148 39.2623 53.8998C39.7723 53.8699 39.8923 53.8175 39.8473 53.6529C39.8098 53.5032 39.7273 53.4883 39.1648 53.5556Z" fill="#004F9F"/>
<path d="M37.8975 53.7129C37.4475 53.7354 37.425 53.7429 37.425 53.9299C37.425 54.1245 37.4325 54.1245 37.8825 54.0796C38.3925 54.0347 38.4225 54.0197 38.385 53.8252C38.3625 53.7054 38.3025 53.6905 37.8975 53.7129Z" fill="#004F9F"/>
<path d="M35.325 53.9897V54.1768H36.075H36.825V53.9897V53.8026H36.075H35.325V53.9897Z" fill="#004F9F"/>
<path d="M40.6499 54.4386C40.6499 54.6331 40.6574 54.6331 41.1599 54.6107C41.6174 54.5882 41.6624 54.5732 41.6849 54.4161C41.7074 54.259 41.6849 54.2515 41.1824 54.2515C40.6649 54.2515 40.6499 54.259 40.6499 54.4386Z" fill="#004F9F"/>
<path d="M39.435 54.3789C39.225 54.4088 39.18 54.5061 39.285 54.6782C39.33 54.7456 39.465 54.7605 39.735 54.7231C40.0875 54.6857 40.1325 54.6633 40.11 54.5211C40.0875 54.3565 39.8625 54.3116 39.435 54.3789Z" fill="#004F9F"/>
<path d="M42.2699 54.4539C42.1424 54.5886 42.2549 54.7532 42.5624 54.8804C42.8924 55.0151 42.9149 55.0151 43.0574 54.8804C43.2074 54.7457 43.2074 54.7457 42.9599 54.6185C42.6524 54.4689 42.3374 54.3865 42.2699 54.4539Z" fill="#004F9F"/>
<path d="M38.1225 54.6035C37.9125 54.6334 37.875 54.6634 37.875 54.828C37.875 55.0151 37.8825 55.0151 38.31 54.9627C38.8275 54.8953 38.8425 54.8879 38.7975 54.7008C38.76 54.5511 38.6775 54.5362 38.1225 54.6035Z" fill="#004F9F"/>
<path d="M36.6524 54.7528C36.2249 54.7828 36.2174 54.7903 36.2399 54.9848C36.2624 55.1719 36.2849 55.1869 36.5624 55.1644C37.1549 55.1195 37.2749 55.0746 37.2749 54.8801C37.2749 54.7753 37.2374 54.7079 37.1849 54.7154C37.1324 54.7229 36.8924 54.7379 36.6524 54.7528Z" fill="#004F9F"/>
<path d="M34.575 54.9625C34.575 55.1271 34.605 55.1496 34.8675 55.1496C35.025 55.1496 35.265 55.172 35.3925 55.1945C35.61 55.2394 35.625 55.2319 35.625 55.0074V54.7754H35.1C34.59 54.7754 34.575 54.7829 34.575 54.9625Z" fill="#004F9F"/>
<path d="M40.425 55.329C40.425 55.4936 40.4625 55.5086 40.8375 55.5385C41.0625 55.546 41.25 55.546 41.25 55.5235C41.25 55.5011 41.2725 55.4113 41.295 55.314C41.34 55.1569 41.325 55.1494 40.8825 55.1494C40.4475 55.1494 40.425 55.1569 40.425 55.329Z" fill="#004F9F"/>
<path d="M39.1725 55.2766C39.0525 55.299 39 55.3589 39 55.4861C39 55.7181 39.0375 55.7331 39.51 55.6507C39.855 55.5984 39.9 55.5684 39.9 55.4038C39.9 55.2467 39.87 55.2242 39.6225 55.2317C39.465 55.2392 39.2625 55.2616 39.1725 55.2766Z" fill="#004F9F"/>
<path d="M41.9024 55.3515C41.7449 55.5011 41.8724 55.6583 42.2774 55.8079C42.7049 55.9651 42.7124 55.9651 42.8549 55.8229C42.9974 55.6807 42.9974 55.6807 42.5924 55.4862C42.1799 55.2991 41.9924 55.2617 41.9024 55.3515Z" fill="#004F9F"/>
<path d="M38.0249 55.4863C37.9649 55.5012 37.7849 55.5312 37.6349 55.5611C37.3949 55.5985 37.3499 55.6359 37.3499 55.7856C37.3499 55.9427 37.3874 55.9727 37.5749 55.9727C37.6949 55.9727 37.9574 55.9352 38.1599 55.8903C38.4974 55.823 38.5274 55.8005 38.4899 55.6284C38.4599 55.4563 38.3549 55.4189 38.0249 55.4863Z" fill="#004F9F"/>
<path d="M35.9475 55.726C35.745 55.7484 35.7 55.7933 35.7 55.943C35.7 56.1076 35.73 56.1226 36.0225 56.1226C36.195 56.1226 36.465 56.1001 36.6225 56.0702C36.855 56.0328 36.9075 56.0028 36.885 55.8681C36.8625 55.7334 36.81 55.711 36.525 55.7035C36.3375 55.696 36.075 55.711 35.9475 55.726Z" fill="#004F9F"/>
<path d="M33.825 55.9728V56.1973H34.545C35.175 56.1973 35.2575 56.1823 35.22 56.0775C35.1975 56.0102 35.175 55.9129 35.175 55.853C35.175 55.7707 35.0325 55.7483 34.5 55.7483H33.825V55.9728Z" fill="#004F9F"/>
<path d="M41.475 67.0924C36.0525 67.3543 30.0975 68.4543 24.7875 70.168C22.815 70.804 18.9825 72.2931 18.1275 72.7496L17.94 72.8469L18.5325 74.0816C18.855 74.7625 19.1175 75.3537 19.125 75.3986C19.125 75.4435 18.4725 75.8026 17.6775 76.1918C16.335 76.8652 14.325 78.0026 14.325 78.0924C14.325 78.2122 19.0275 86.8775 19.0875 86.8775C19.1325 86.8775 19.6725 86.6455 20.2875 86.3611C22.8 85.2163 25.8 84.1237 28.425 83.3979C29.415 83.1285 29.8875 82.9639 29.88 82.8965C29.8725 82.8441 29.6625 81.9312 29.4 80.8686C29.145 79.7986 28.965 78.9081 28.995 78.8707C29.0775 78.7958 31.53 78.272 33 78.0176C36.8175 77.3516 39.7725 77.0822 43.8075 77.0224C48.4125 76.955 52.26 77.2768 56.625 78.0924C57.78 78.3094 60.5325 78.9305 60.525 78.968C60.525 78.9754 60.2925 79.8958 60.0075 81.0108L59.4975 83.0462L60.5925 83.3231C62.9475 83.9217 66.375 85.1489 69.0675 86.3686C69.7875 86.6904 70.38 86.9448 70.395 86.9373C70.455 86.87 75.0225 78.3169 75.0525 78.2122C75.075 78.1149 74.8575 77.9503 74.175 77.5312C73.2375 76.97 70.5375 75.5782 70.3725 75.5782C70.32 75.5782 70.275 75.5482 70.275 75.5108C70.275 75.4659 70.53 74.8822 70.8375 74.2088C71.145 73.5353 71.4 72.9516 71.4 72.9067C71.4 72.7496 67.56 71.2081 65.175 70.4149C60.06 68.7088 55.365 67.7435 49.6125 67.2271C48.3975 67.1149 42.87 67.0251 41.475 67.0924ZM46.7775 68.619C53.205 68.8584 59.34 70.0033 65.325 72.0836C66.7575 72.5775 69.2175 73.5278 69.3225 73.6326C69.405 73.7074 66.8325 79.2448 66.72 79.2448C66.6675 79.2448 66.195 79.0877 65.6625 78.9006C62.9475 77.9503 59.6925 77.0972 56.55 76.521C53.265 75.9149 50.43 75.6231 46.875 75.5033C39.225 75.2564 31.5225 76.2965 24.2625 78.5489C23.52 78.7809 22.83 78.9754 22.7325 78.9754C22.575 78.9829 22.44 78.7435 21.2925 76.3265C20.595 74.8673 20.025 73.6475 20.025 73.6251C20.025 73.5128 23.115 72.3305 25.0875 71.687C27.495 70.9088 29.2425 70.4448 32.325 69.7788C33.1275 69.6067 35.43 69.2326 36.675 69.0754C40.1625 68.6265 43.305 68.4843 46.7775 68.619ZM20.52 78.272C21.99 81.3999 22.95 83.5401 22.89 83.5999C22.86 83.6299 22.725 83.6748 22.5975 83.7047L22.3575 83.7496L20.745 80.5244C19.8525 78.7509 19.125 77.2693 19.125 77.2319C19.125 77.1795 19.8075 76.8503 19.8525 76.8802C19.86 76.8877 20.16 77.5163 20.52 78.272ZM70.005 77.0748L70.35 77.2319L68.7 80.5169C67.7925 82.3278 67.035 83.8094 67.02 83.8094C66.9075 83.8094 66.525 83.6299 66.525 83.5775C66.525 83.5326 67.05 82.3652 67.695 80.9809C69.33 77.4639 69.585 76.9251 69.6225 76.9251C69.6375 76.9251 69.81 76.9924 70.005 77.0748ZM20.04 80.8462L21.6675 84.0938L21.36 84.221C21.1125 84.3183 21.0375 84.3258 20.985 84.2435C20.865 84.0489 17.7 77.9952 17.7 77.9503C17.7 77.8904 18.225 77.606 18.3375 77.5986C18.3825 77.5986 19.1475 79.0577 20.04 80.8462ZM71.4375 77.7632C71.625 77.853 71.775 77.9503 71.775 77.9727C71.775 78.0251 68.49 84.2659 68.43 84.3258C68.3775 84.3856 67.8 84.1761 67.8 84.0938C67.8 84.019 71.04 77.606 71.0775 77.5986C71.085 77.5986 71.25 77.6734 71.4375 77.7632ZM18.615 81.4972C19.515 83.2033 20.235 84.6326 20.22 84.6775C20.205 84.7224 20.085 84.7972 19.9575 84.8421C19.7325 84.9169 19.7175 84.9094 19.545 84.6101C19.4025 84.3632 16.8225 79.5516 16.4325 78.8183C16.3575 78.6611 16.3725 78.6312 16.59 78.4965C16.725 78.4142 16.8675 78.3543 16.905 78.3693C16.9425 78.3843 17.715 79.7911 18.615 81.4972ZM72.81 78.4965C72.99 78.6088 73.05 78.6911 73.0125 78.7809C72.945 78.9754 69.8175 84.8122 69.7425 84.887C69.6675 84.9693 69.12 84.7373 69.165 84.6475C69.27 84.3856 72.495 78.3469 72.525 78.3469C72.5475 78.3469 72.675 78.4142 72.81 78.4965ZM23.445 81.2054C23.5575 81.3176 24.225 82.8741 24.225 83.0237C24.225 83.136 23.775 83.3156 23.6925 83.2333C23.6175 83.1509 22.725 81.1829 22.725 81.0931C22.725 80.9884 23.325 81.0782 23.445 81.2054ZM66.3 82.1407C65.79 83.2333 65.775 83.2482 65.5425 83.2333C65.415 83.2333 65.2725 83.1884 65.235 83.1509C65.19 83.106 65.3025 82.7394 65.55 82.1407C65.925 81.2353 65.9475 81.1979 66.2175 81.1305C66.87 80.9584 66.8625 80.9285 66.3 82.1407ZM25.1775 81.587C25.2225 81.6394 25.35 81.8863 25.455 82.1482L25.6425 82.6197L25.44 82.6945C25.3275 82.7319 25.1925 82.7843 25.14 82.7992C25.0425 82.8367 24.93 82.6197 24.6 81.7965L24.4425 81.3924L24.765 81.4448C24.945 81.4748 25.125 81.5346 25.1775 81.587ZM64.95 81.4897C64.95 81.587 64.4925 82.702 64.4175 82.7918C64.3725 82.8441 63.825 82.7169 63.825 82.6496C63.825 82.5448 64.1625 81.7292 64.2375 81.6469C64.29 81.5945 64.4475 81.5197 64.5825 81.4897C64.9425 81.4074 64.95 81.4074 64.95 81.4897ZM26.775 81.8639C27.615 82.0509 27.6075 82.036 26.895 82.238L26.3925 82.3802L26.28 82.1258C26.22 81.9836 26.175 81.8489 26.175 81.8265C26.175 81.7666 26.3925 81.7816 26.775 81.8639ZM63.1875 82.0659C63.12 82.2156 63.06 82.3577 63.045 82.3727C63 82.4101 62.025 82.1333 62.025 82.0809C62.025 82.036 62.925 81.819 63.21 81.7965C63.2775 81.789 63.2775 81.8564 63.1875 82.0659Z" fill="#004F9F"/>
<path d="M53.655 69.8312C53.6775 69.9285 53.7 70.0482 53.7 70.0931C53.7 70.1455 53.7525 70.1904 53.8125 70.1904C54.0675 70.1904 54.375 70.4298 54.63 70.8414C54.78 71.0809 54.9 71.3053 54.9 71.3502C54.9 71.4026 54.5475 71.3727 53.8425 71.2604C53.2575 71.1632 52.77 71.0958 52.755 71.1108C52.74 71.1258 52.77 71.238 52.815 71.3652C52.89 71.5523 52.95 71.6047 53.19 71.6346C53.5425 71.6795 53.7 71.7992 53.7 72.0237C53.7 72.1734 53.6475 72.2033 53.3175 72.2482L52.9425 72.3006L52.9875 72.5849C53.0325 72.8543 53.025 72.8693 52.725 72.989C52.3725 73.1237 52.1025 73.1387 51.8925 73.0339C51.525 72.8319 51.8775 72.54 52.395 72.6224C52.7475 72.6747 52.77 72.6448 52.65 72.3305C52.5975 72.1809 52.53 72.136 52.35 72.136C52.23 72.136 52.125 72.0985 52.125 72.0611C52.125 72.0162 52.185 71.9863 52.26 71.9863C52.4775 71.9863 52.725 71.7693 52.725 71.5747C52.725 71.3727 52.335 71.0135 52.1175 71.0135C52.035 71.0135 51.87 71.0659 51.7575 71.1258C51.4125 71.2979 51.3525 71.6196 51.6075 71.9414L51.765 72.1434L51.57 72.323C51.345 72.5326 51.3225 72.7196 51.4875 73.0414C51.795 73.6326 52.935 73.7598 53.07 73.221L53.115 73.0264L53.295 73.2809C53.5125 73.6026 53.835 73.7373 54.2175 73.6775L54.5175 73.6326L54.4725 73.887C54.4425 74.104 54.465 74.1564 54.66 74.2985L54.885 74.4557L54.93 74.2536C54.9525 74.1339 55.0425 73.5877 55.125 73.0339C55.215 72.4802 55.2975 72.0162 55.3125 72.0013C55.3275 71.9863 55.5675 72.0087 55.8525 72.0536C56.1825 72.106 56.3925 72.1809 56.46 72.2632C56.6325 72.5026 56.535 72.6149 56.115 72.6897C55.725 72.7645 55.7175 72.7645 55.77 72.989C55.8675 73.4305 56.04 73.7822 56.2725 73.9768C56.46 74.1339 56.565 74.1639 56.865 74.1414L57.225 74.119V74.3883C57.225 74.5754 57.2775 74.7026 57.405 74.8224C57.6225 75.0244 57.5925 75.1142 57.87 73.67C57.9825 73.0938 58.095 72.5999 58.125 72.5625C58.1475 72.5326 58.35 72.54 58.56 72.5924C58.9875 72.6822 58.995 72.6822 58.8525 73.2958C58.7925 73.5428 58.71 73.6924 58.5975 73.7448L58.44 73.8271L58.635 74.1938C58.83 74.5604 59.1 74.7326 59.1 74.5006C59.1 74.3285 59.2125 74.2985 59.6025 74.3809L59.97 74.4632L59.895 74.8373C59.8275 75.189 59.8275 75.219 60.015 75.406L60.21 75.6006L60.2925 75.3087C60.33 75.1516 60.435 74.7326 60.525 74.3809C60.855 73.0489 60.8025 73.1611 61.095 73.2135C61.365 73.2659 61.3725 73.2509 61.305 72.9815C61.2675 72.8468 61.1325 72.772 60.645 72.6298C59.61 72.3156 55.89 71.5373 55.4175 71.5373C55.2225 71.5373 55.1775 71.4775 54.8775 70.8414C54.48 70.0033 54.1875 69.6666 53.85 69.6666C53.6325 69.6666 53.61 69.689 53.655 69.8312ZM52.3875 71.5373C52.3875 71.687 52.3425 71.7319 52.1775 71.7468C52.0425 71.7618 51.96 71.7319 51.93 71.657C51.8475 71.4475 51.96 71.2979 52.1775 71.3278C52.3425 71.3428 52.3875 71.3877 52.3875 71.5373ZM54.72 72.2781C54.645 72.9292 54.6075 73.004 54.345 73.0938C54.06 73.1985 53.6325 73.206 53.49 73.1162C53.2875 72.989 53.43 72.787 53.775 72.7047C54.105 72.6224 54.1125 72.6149 54.105 72.338C54.0975 72.1883 54.0375 71.9938 53.97 71.919C53.9025 71.8516 53.85 71.7693 53.85 71.7543C53.85 71.7319 54.06 71.7543 54.3075 71.7917L54.765 71.8666L54.72 72.2781ZM57.225 72.3006C57.555 72.3754 57.6075 72.4128 57.57 72.54C57.555 72.6298 57.51 72.8618 57.4875 73.0564C57.4425 73.3482 57.39 73.4305 57.2175 73.5203C56.76 73.7598 55.9425 73.5802 56.1825 73.2883C56.2275 73.2285 56.3475 73.1836 56.4525 73.1836C56.9025 73.1836 57.015 72.9516 56.82 72.4727C56.6925 72.1809 56.6925 72.1809 57.225 72.3006ZM60.0975 72.9516C60.33 73.0414 60.33 73.0639 60.1875 73.655C60.09 74.0741 60 74.2836 60 74.0965C60 74.0441 59.955 74.0067 59.91 74.0067C59.8575 74.0067 59.685 73.9693 59.535 73.9319C59.2275 73.8421 59.2275 73.8271 59.415 73.0788C59.475 72.8169 59.505 72.7945 59.685 72.8319C59.7975 72.8543 59.9775 72.9067 60.0975 72.9516Z" fill="#004F9F"/>
<path d="M41.925 70.5723C41.2425 70.5947 40.3425 70.6471 39.9225 70.677L39.1575 70.7369L39.27 70.9464C39.345 71.0961 39.435 71.1634 39.555 71.1634C39.72 71.1634 39.735 71.2008 39.78 71.7621C39.825 72.241 39.87 72.4056 40.02 72.5777C40.2225 72.8246 40.6425 72.9893 40.9125 72.9444C41.0625 72.9144 41.1 72.9444 41.115 73.094C41.13 73.2212 41.2275 73.341 41.385 73.4308L41.6325 73.5729L41.58 72.2934L41.5275 71.0138H42.1725H42.825V71.4178V71.8219L42.585 71.807C42.3675 71.7995 42.3375 71.8219 42.315 72.009C42.2925 72.1886 42.39 72.3233 42.9675 72.907C43.5075 73.4607 43.665 73.5729 43.74 73.4981C43.815 73.4233 43.755 73.326 43.44 73.0117C43.0725 72.6376 43.0575 72.6076 43.1775 72.4879C43.275 72.3906 43.305 72.2185 43.305 71.6723L43.3125 70.9764L43.8975 70.9539L44.475 70.9315V71.1784C44.475 71.3131 44.4975 71.5525 44.5275 71.7097C44.565 71.9566 44.55 72.0015 44.4075 72.0389C44.1825 72.0988 44.2125 72.2036 44.5425 72.5702C44.8725 72.9294 45 72.9668 45 72.6974C45 72.5178 45.0225 72.5104 45.4125 72.5104H45.825V72.877C45.825 73.1838 45.855 73.2587 46.02 73.3709C46.125 73.4383 46.2375 73.4757 46.26 73.4457C46.29 73.4158 46.3275 72.8621 46.3425 72.2036L46.365 71.0138H46.8C47.0475 71.0138 47.265 71.0512 47.2875 71.0886C47.3775 71.2308 47.2425 72.1362 47.13 72.1362C46.935 72.1362 46.9575 72.2784 47.22 72.6151C47.505 72.9893 47.6775 73.0491 47.715 72.7872C47.73 72.6974 47.7825 72.6226 47.835 72.6301C47.88 72.6376 48.0675 72.6451 48.2325 72.6451L48.5475 72.66L48.51 72.9968C48.4725 73.2961 48.495 73.3559 48.66 73.4832C48.7575 73.5655 48.87 73.6328 48.9 73.6328C48.96 73.6328 49.0125 73.1838 49.095 71.8893L49.14 71.1634H49.4325H49.7325L49.62 70.9464C49.5075 70.7294 49.4925 70.7294 48.6975 70.677C48.2475 70.6546 47.4525 70.6022 46.92 70.5648C45.87 70.4825 43.8975 70.49 41.925 70.5723ZM45.825 71.5451V72.0689L45.435 72.0464L45.0375 72.024L45.015 71.5151L44.9925 71.0138H45.4125H45.825V71.5451ZM41.025 71.6798C41.025 72.226 41.01 72.2784 40.8375 72.3906C40.5075 72.6076 40.3725 72.5478 40.32 72.1661C40.2975 71.9716 40.275 71.6498 40.275 71.4553V71.0886H40.65H41.025V71.6798ZM48.6 71.6498V72.211H48.1875H47.775V71.8144C47.775 71.1485 47.8125 71.0886 48.2325 71.0886H48.6V71.6498Z" fill="#004F9F"/>
<path d="M35.9999 71.1706C34.3349 71.4325 31.8224 71.9339 29.9249 72.3754C28.8749 72.6223 28.0049 72.8318 27.9899 72.8468C27.9824 72.8543 28.0424 72.9441 28.1249 73.0488L28.2674 73.2359L29.1824 73.0189C29.6774 72.8992 30.0974 72.8094 30.1124 72.8243C30.1274 72.8393 30.1499 72.9291 30.1649 73.0339C30.1874 73.206 30.1499 73.2284 29.4749 73.408C28.3949 73.6998 28.3574 73.7597 29.0249 73.9992C29.5274 74.1862 29.7824 74.4556 29.6474 74.6726C29.5649 74.7924 29.4149 74.8073 29.1224 74.7175C28.9874 74.6726 28.9349 74.7026 28.8749 74.8597C28.7699 75.1441 28.8449 75.2563 29.2424 75.391C29.4374 75.4509 29.6999 75.608 29.8124 75.7277C30.0149 75.9373 30.2999 76.0345 30.2999 75.8924C30.2999 75.8624 30.1724 75.7053 30.0074 75.5481L29.7224 75.2713L29.9324 75.0543C30.2774 74.71 30.2024 74.2686 29.7674 74.0366C29.4749 73.8869 29.5574 73.7971 30.0224 73.7373C30.3074 73.6924 30.3749 73.7073 30.3749 73.7971C30.3749 73.8645 30.4274 74.1488 30.4949 74.4407C30.5999 74.9196 30.6374 74.9794 30.8399 75.0468C30.9674 75.0917 31.0874 75.1291 31.0949 75.1291C31.1624 75.1291 31.1099 74.8073 30.8999 73.9318C30.6149 72.7495 30.6149 72.6747 30.8849 72.6148C30.9974 72.5924 31.1399 72.5549 31.2074 72.54C31.3049 72.51 31.3574 72.6522 31.4924 73.3107C31.7774 74.6577 31.7849 74.6801 32.0474 74.7924C32.1824 74.8447 32.2949 74.8822 32.3099 74.8672C32.3249 74.8597 32.2274 74.3509 32.1074 73.7373C31.9799 73.1311 31.8749 72.5774 31.8749 72.5026C31.8749 72.4053 31.9574 72.3604 32.1974 72.323C32.3699 72.3005 32.7749 72.2257 33.1049 72.1658C33.4274 72.0985 33.7199 72.076 33.7499 72.1134C33.7799 72.1434 33.8249 72.3305 33.8474 72.5175L33.8924 72.8617L33.4124 72.9515C32.4599 73.1237 32.3549 73.2434 32.8424 73.625C33.2174 73.9243 33.3749 73.9243 33.3749 73.6325C33.3749 73.4454 33.4049 73.408 33.6374 73.3631C33.7874 73.3407 33.9224 73.3332 33.9449 73.3556C33.9749 73.3781 34.0274 73.5876 34.0799 73.8196C34.1549 74.1937 34.1924 74.2611 34.4099 74.3434C34.7099 74.4706 34.7099 74.508 34.4624 73.0937C34.3574 72.51 34.2749 72.0087 34.2749 71.9788C34.2749 71.9114 35.0549 71.7617 35.1149 71.8216C35.1374 71.8515 35.1899 72.0835 35.2349 72.3454C35.2949 72.7794 35.2874 72.8243 35.1449 72.8992C35.0024 72.974 35.0099 72.9964 35.3174 73.2658C35.6999 73.6026 35.9249 73.6475 35.9249 73.3781C35.9249 73.2209 35.9699 73.191 36.2699 73.1461C36.4574 73.1237 36.6299 73.1162 36.6524 73.1311C36.6674 73.1536 36.7049 73.3032 36.7274 73.4754C36.7574 73.7148 36.8099 73.7971 37.0049 73.8869C37.2074 73.9842 37.2374 73.9842 37.2599 73.8944C37.2749 73.8345 37.2149 73.2883 37.1324 72.6822C37.0424 72.0686 36.9749 71.5447 36.9749 71.5148C36.9749 71.4849 37.0724 71.4624 37.1849 71.4624C37.4699 71.4624 37.5149 71.4026 37.3724 71.193C37.2374 70.9835 37.1849 70.9835 35.9999 71.1706ZM36.4799 71.7393C36.5024 71.859 36.5399 72.106 36.5699 72.293C36.6149 72.6373 36.6149 72.6373 36.3749 72.6896C35.8199 72.7944 35.7974 72.7794 35.7149 72.2257C35.6774 71.9488 35.6474 71.7169 35.6624 71.7019C35.6774 71.6869 36.1424 71.5822 36.3899 71.5447C36.4124 71.5373 36.4574 71.6271 36.4799 71.7393Z" fill="#004F9F"/>
<path d="M48.3 73.8345C48.3075 74.0515 48.4875 74.2311 48.705 74.2311C48.975 74.2311 49.26 74.3882 49.5675 74.71C49.845 74.9943 49.95 75.0392 49.95 74.8821C49.95 74.7399 49.2225 73.9467 48.9675 73.8195C48.6675 73.6624 48.3 73.6699 48.3 73.8345Z" fill="#004F9F"/>
<path d="M36.675 74.1715C36.6825 74.396 36.8775 74.5083 37.2975 74.5457C37.6275 74.5756 37.815 74.6355 38.07 74.8151C38.415 75.062 38.55 75.1069 38.55 74.9872C38.55 74.9049 38.0175 74.4634 37.65 74.2389C37.35 74.0593 36.675 74.0144 36.675 74.1715Z" fill="#004F9F"/>
<path d="M59.5199 75.7053C59.5874 75.9972 59.5949 76.0046 59.8424 76.0495C60.0674 76.0944 60.4424 76.4237 60.7199 76.8128C60.9599 77.1495 61.0124 76.9924 60.7949 76.5659C60.4574 75.9074 60.0149 75.5033 59.6249 75.5033C59.4974 75.5033 59.4824 75.5332 59.5199 75.7053Z" fill="#004F9F"/>
</g>
</svg>
