<svg width="36" height="921" viewBox="0 0 36 921" fill="none" xmlns="http://www.w3.org/2000/svg">
<rect width="36" height="922" transform="translate(0 -1)" fill="#333333"/>
<path d="M36 -1H0V918H36V-1Z" fill="#333333"/>
<path d="M23 544.987L21.2591 544.989L21.2565 543.014L14.9627 543.022L14.9654 544.997L13.2245 545L13.2166 539.006L14.9574 539.003L14.9601 540.979L21.2538 540.97L21.2512 538.995L22.9921 538.992L23 544.987ZM22.9464 504.395L13.1709 504.408L13.1677 502.024L20.7303 499.439C20.4 499.466 20.0206 499.499 19.5922 499.536C19.1548 499.572 18.7219 499.605 18.2934 499.633C17.856 499.651 17.4855 499.661 17.1819 499.661L13.1646 499.667L13.1623 497.868L22.9378 497.855L22.9409 500.239L15.3783 502.797C15.6639 502.77 16.0031 502.742 16.3959 502.714C16.7887 502.686 17.1859 502.663 17.5876 502.644C17.9893 502.617 18.3464 502.602 18.6589 502.602L22.944 502.596L22.9464 504.395ZM22.8923 463.448L13.1168 463.461L13.1123 460.069C13.1114 459.37 13.2401 458.761 13.4983 458.243C13.7564 457.716 14.1175 457.312 14.5813 457.029C15.0452 456.738 15.5896 456.592 16.2145 456.591C16.8305 456.59 17.3752 456.735 17.8488 457.025C18.3134 457.315 18.6755 457.718 18.935 458.236C19.1946 458.753 19.3249 459.361 19.3258 460.061L19.3276 461.409L22.8896 461.404L22.8923 463.448ZM17.5198 461.412L17.518 460.063C17.5174 459.627 17.4009 459.282 17.1685 459.028C16.9271 458.765 16.61 458.634 16.2172 458.635C15.8244 458.635 15.5121 458.767 15.2803 459.031C15.0396 459.285 14.9196 459.631 14.9201 460.067L14.9219 461.416L17.5198 461.412ZM22.968 419.396C22.9694 420.404 22.7026 421.203 22.1678 421.794C21.6329 422.376 20.9012 422.668 19.9727 422.669L13.063 422.679L13.0603 420.635L19.9567 420.626C20.3673 420.625 20.6841 420.52 20.907 420.311C21.121 420.093 21.2277 419.788 21.2272 419.398C21.2267 419.016 21.1192 418.717 20.9046 418.499C20.6812 418.282 20.3641 418.173 19.9534 418.173L13.057 418.183L13.0543 416.139L19.9641 416.13C20.8836 416.129 21.6161 416.423 22.1614 417.012C22.6978 417.593 22.9667 418.387 22.968 419.396ZM22.7815 379.553L14.8808 379.564L14.8841 382.084L13.0094 382.087L13 375.002L14.8748 375L14.8781 377.52L22.7788 377.509L22.7815 379.553Z" fill="white"/>
</svg>
