<svg width="36" height="919" viewBox="0 0 36 919" fill="none" xmlns="http://www.w3.org/2000/svg">
<path d="M36 0H0V919H36V0Z" fill="#333333"/>
<path d="M13 378.091C13 377.465 13.12 376.919 13.36 376.456C13.6089 375.992 13.9511 375.631 14.3867 375.374C14.8311 375.125 15.3467 375 15.9333 375H20.0666C20.6533 375 21.1644 375.125 21.6 375.374C22.0444 375.631 22.3866 375.992 22.6266 376.456C22.8756 376.919 23 377.465 23 378.091C23 378.727 22.8756 379.272 22.6266 379.727C22.3866 380.191 22.0444 380.547 21.6 380.796C21.1644 381.054 20.6533 381.183 20.0666 381.183H15.9333C15.3467 381.183 14.8311 381.054 14.3867 380.796C13.9511 380.547 13.6089 380.191 13.36 379.727C13.12 379.272 13 378.727 13 378.091ZM14.7333 378.091C14.7333 378.478 14.8356 378.766 15.04 378.955C15.2533 379.152 15.5511 379.251 15.9333 379.251H20.0666C20.4578 379.251 20.7556 379.156 20.96 378.967C21.1644 378.778 21.2666 378.487 21.2666 378.091C21.2666 377.696 21.1644 377.405 20.96 377.216C20.7556 377.027 20.4578 376.932 20.0666 376.932H15.9333C15.5511 376.932 15.2533 377.027 15.04 377.216C14.8356 377.413 14.7333 377.705 14.7333 378.091ZM13 410.803C13 409.85 13.2667 409.095 13.8 408.537C14.3333 407.987 15.0622 407.712 15.9866 407.712H22.8666V409.644H16C15.5911 409.644 15.2756 409.743 15.0533 409.94C14.84 410.146 14.7333 410.434 14.7333 410.803C14.7333 411.164 14.84 411.448 15.0533 411.653C15.2756 411.86 15.5911 411.963 16 411.963H22.8666V413.895H15.9866C15.0711 413.895 14.3422 413.616 13.8 413.058C13.2667 412.508 13 411.757 13 410.803ZM13.1333 442.549H21V440.166H22.8666V446.864H21V444.481H13.1333V442.549ZM13.1333 473.213H22.8666V476.421C22.8666 477.082 22.7378 477.657 22.48 478.147C22.2222 478.645 21.8622 479.027 21.4 479.293C20.9378 479.568 20.3956 479.705 19.7733 479.705C19.16 479.705 18.6178 479.568 18.1466 479.293C17.6844 479.018 17.3244 478.636 17.0666 478.147C16.8089 477.657 16.68 477.082 16.68 476.421V475.145H13.1333V473.213ZM18.48 475.145V476.421C18.48 476.833 18.5956 477.159 18.8266 477.399C19.0666 477.649 19.3822 477.773 19.7733 477.773C20.1644 477.773 20.4756 477.649 20.7066 477.399C20.9466 477.159 21.0666 476.833 21.0666 476.421V475.145H18.48ZM13 508.939C13 507.986 13.2667 507.231 13.8 506.672C14.3333 506.123 15.0622 505.848 15.9866 505.848H22.8666V507.78H16C15.5911 507.78 15.2756 507.879 15.0533 508.076C14.84 508.282 14.7333 508.57 14.7333 508.939C14.7333 509.3 14.84 509.583 15.0533 509.789C15.2756 509.995 15.5911 510.099 16 510.099H22.8666V512.031H15.9866C15.0711 512.031 14.3422 511.752 13.8 511.193C13.2667 510.644 13 509.892 13 508.939ZM13.1333 540.685H21V538.302H22.8666V545H21V542.617H13.1333V540.685Z" fill="white"/>
</svg>
