<svg width="167" height="38" viewBox="0 0 167 38" fill="none" xmlns="http://www.w3.org/2000/svg">
<path d="M155.663 27.3118C155.119 27.3118 154.647 27.1358 154.247 26.7838C153.847 26.4158 153.647 25.9198 153.647 25.2958C153.647 24.6718 153.847 24.1838 154.247 23.8318C154.647 23.4638 155.119 23.2798 155.663 23.2798C156.207 23.2798 156.679 23.4638 157.079 23.8318C157.495 24.1838 157.703 24.6718 157.703 25.2958C157.703 25.9198 157.495 26.4158 157.079 26.7838C156.679 27.1358 156.207 27.3118 155.663 27.3118ZM155.663 18.4558C155.119 18.4558 154.647 18.2798 154.247 17.9278C153.847 17.5598 153.647 17.0638 153.647 16.4398C153.647 15.8158 153.847 15.3278 154.247 14.9758C154.647 14.6078 155.119 14.4238 155.663 14.4238C156.207 14.4238 156.679 14.6078 157.079 14.9758C157.495 15.3278 157.703 15.8158 157.703 16.4398C157.703 17.0638 157.495 17.5598 157.079 17.9278C156.679 18.2798 156.207 18.4558 155.663 18.4558Z" fill="black"/>
<path d="M142.272 31.4638C141.744 31.4638 141.256 31.4078 140.808 31.2958C140.376 31.1998 140.032 31.0958 139.776 30.9838L140.328 28.4638C140.632 28.5758 140.928 28.6558 141.216 28.7038C141.52 28.7678 141.824 28.7998 142.128 28.7998C142.608 28.7998 143.008 28.7198 143.328 28.5598C143.648 28.4158 143.92 28.1758 144.144 27.8398C144.384 27.5198 144.592 27.1198 144.768 26.6398C144.192 25.5198 143.624 24.3278 143.064 23.0638C142.504 21.7838 141.96 20.4238 141.432 18.9838C140.904 17.5278 140.416 16.0078 139.968 14.4238H143.304C143.464 15.0798 143.656 15.7918 143.88 16.5598C144.104 17.3118 144.344 18.0878 144.6 18.8878C144.872 19.6718 145.152 20.4478 145.44 21.2158C145.728 21.9838 146.008 22.6958 146.28 23.3518C146.616 22.4558 146.936 21.5038 147.24 20.4958C147.544 19.4878 147.832 18.4638 148.104 17.4238C148.392 16.3838 148.656 15.3838 148.896 14.4238H152.112C151.664 16.0238 151.2 17.5678 150.72 19.0558C150.24 20.5438 149.728 21.9758 149.184 23.3518C148.656 24.7278 148.096 26.0798 147.504 27.4078C147.056 28.3518 146.6 29.1198 146.136 29.7118C145.688 30.3198 145.16 30.7598 144.552 31.0318C143.944 31.3198 143.184 31.4638 142.272 31.4638Z" fill="black"/>
<path d="M132.362 27.312C131.754 27.312 131.138 27.272 130.514 27.192C129.89 27.128 129.306 27.048 128.762 26.952C128.218 26.84 127.746 26.72 127.346 26.592V8.87998L130.466 8.37598V14.808C130.834 14.632 131.25 14.48 131.714 14.352C132.194 14.224 132.714 14.16 133.274 14.16C134.474 14.16 135.482 14.432 136.298 14.976C137.13 15.52 137.754 16.288 138.17 17.28C138.602 18.256 138.818 19.4 138.818 20.712C138.818 22.056 138.562 23.224 138.05 24.216C137.538 25.192 136.794 25.952 135.818 26.496C134.858 27.04 133.706 27.312 132.362 27.312ZM132.338 24.624C133.042 24.624 133.634 24.464 134.114 24.144C134.61 23.808 134.986 23.344 135.242 22.752C135.498 22.16 135.626 21.456 135.626 20.64C135.626 20.032 135.57 19.496 135.458 19.032C135.346 18.552 135.17 18.152 134.93 17.832C134.69 17.496 134.386 17.248 134.018 17.088C133.666 16.912 133.234 16.824 132.722 16.824C132.274 16.824 131.842 16.888 131.426 17.016C131.026 17.144 130.706 17.296 130.466 17.472V24.456C130.658 24.488 130.914 24.528 131.234 24.576C131.554 24.608 131.922 24.624 132.338 24.624Z" fill="black"/>
<path d="M113.116 27.312C111.772 27.312 110.612 27.048 109.636 26.52C108.676 25.992 107.932 25.24 107.404 24.264C106.892 23.272 106.636 22.104 106.636 20.76C106.636 19.416 106.86 18.248 107.308 17.256C107.756 16.264 108.396 15.504 109.228 14.976C110.076 14.432 111.092 14.16 112.276 14.16C112.836 14.16 113.332 14.224 113.764 14.352C114.212 14.48 114.628 14.632 115.012 14.808V8.87998L118.132 8.37598V26.592C117.748 26.72 117.276 26.84 116.716 26.952C116.156 27.048 115.564 27.128 114.94 27.192C114.332 27.272 113.724 27.312 113.116 27.312ZM113.14 24.624C113.556 24.624 113.924 24.608 114.244 24.576C114.564 24.528 114.82 24.488 115.012 24.456V17.472C114.772 17.296 114.444 17.144 114.028 17.016C113.628 16.888 113.196 16.824 112.732 16.824C112.236 16.824 111.804 16.912 111.436 17.088C111.084 17.248 110.788 17.496 110.548 17.832C110.308 18.152 110.132 18.552 110.02 19.032C109.908 19.496 109.852 20.032 109.852 20.64C109.852 21.456 109.98 22.16 110.236 22.752C110.492 23.344 110.868 23.808 111.364 24.144C111.86 24.464 112.452 24.624 113.14 24.624Z" fill="black"/>
<path d="M99.3596 27.3119C97.8556 27.3119 96.6236 27.0319 95.6636 26.4719C94.7036 25.8959 93.9836 25.1119 93.5036 24.1199C93.0396 23.1279 92.8076 22.0159 92.8076 20.7839C92.8076 19.2959 93.0956 18.0639 93.6716 17.0879C94.2476 16.0959 94.9836 15.3519 95.8796 14.8559C96.7756 14.3439 97.7276 14.0879 98.7356 14.0879C99.8876 14.0879 100.88 14.3279 101.712 14.8079C102.56 15.2879 103.208 15.9999 103.656 16.9439C104.12 17.8879 104.352 19.0719 104.352 20.4959C104.352 20.6719 104.344 20.8719 104.328 21.0959C104.312 21.3199 104.296 21.5199 104.28 21.6959H96.0476C96.1116 22.6079 96.4556 23.3199 97.0796 23.8319C97.7196 24.3439 98.6076 24.5999 99.7436 24.5999C100.448 24.5999 101.096 24.5359 101.688 24.4079C102.296 24.2799 102.776 24.1359 103.128 23.9759L103.584 26.5439C103.232 26.7199 102.656 26.8879 101.856 27.0479C101.072 27.2239 100.24 27.3119 99.3596 27.3119ZM96.0476 19.4879H101.304C101.288 18.9919 101.184 18.5359 100.992 18.1199C100.816 17.6879 100.544 17.3439 100.176 17.0879C99.8236 16.8319 99.3516 16.7039 98.7596 16.7039C98.1836 16.7039 97.7036 16.8399 97.3196 17.1119C96.9516 17.3679 96.6636 17.7119 96.4556 18.1439C96.2476 18.5599 96.1116 19.0079 96.0476 19.4879Z" fill="black"/>
<path d="M88.1508 27.2878C86.9188 27.2878 85.9508 27.0718 85.2468 26.6398C84.5588 26.1918 84.0708 25.5758 83.7828 24.7918C83.5108 23.9918 83.3748 23.0478 83.3748 21.9598V11.1598L86.4948 10.6558V14.4238H90.9348V17.0398H86.4948V21.9598C86.4948 22.5518 86.5588 23.0478 86.6868 23.4478C86.8308 23.8318 87.0548 24.1198 87.3588 24.3118C87.6788 24.5038 88.1028 24.5998 88.6308 24.5998C89.0628 24.5998 89.4788 24.5598 89.8788 24.4798C90.2948 24.3838 90.6628 24.2718 90.9828 24.1438L91.4388 26.6158C91.0548 26.7758 90.5988 26.9278 90.0708 27.0718C89.5428 27.2158 88.9028 27.2878 88.1508 27.2878Z" fill="black"/>
<path d="M73.6274 27.0002V15.0722C74.2034 14.8642 74.9074 14.6642 75.7394 14.4722C76.5874 14.2642 77.5394 14.1602 78.5954 14.1602C78.8674 14.1602 79.1874 14.1842 79.5554 14.2322C79.9234 14.2642 80.2754 14.3122 80.6114 14.3762C80.9634 14.4402 81.2514 14.5202 81.4754 14.6162L80.9474 17.2082C80.6594 17.1282 80.2994 17.0482 79.8674 16.9682C79.4514 16.8882 78.9794 16.8482 78.4514 16.8482C78.1314 16.8482 77.8034 16.8722 77.4674 16.9202C77.1474 16.9682 76.9074 17.0242 76.7474 17.0882V27.0002H73.6274Z" fill="black"/>
<path d="M64.638 27.3119C63.438 27.3119 62.374 27.0399 61.446 26.4959C60.534 25.9359 59.822 25.1599 59.31 24.1679C58.798 23.1759 58.542 22.0159 58.542 20.6879C58.542 19.3599 58.806 18.2079 59.334 17.2319C59.862 16.2559 60.582 15.4879 61.494 14.9279C62.422 14.3679 63.47 14.0879 64.638 14.0879C65.822 14.0879 66.87 14.3679 67.782 14.9279C68.71 15.4719 69.43 16.2399 69.942 17.2319C70.454 18.2079 70.71 19.3599 70.71 20.6879C70.71 22.0159 70.454 23.1759 69.942 24.1679C69.446 25.1599 68.742 25.9359 67.83 26.4959C66.934 27.0399 65.87 27.3119 64.638 27.3119ZM64.638 24.6239C65.246 24.6239 65.758 24.4639 66.174 24.1439C66.606 23.8239 66.934 23.3679 67.158 22.7759C67.398 22.1839 67.518 21.4879 67.518 20.6879C67.518 19.8879 67.398 19.1999 67.158 18.6239C66.934 18.0479 66.606 17.5999 66.174 17.2799C65.758 16.9599 65.246 16.7999 64.638 16.7999C64.03 16.7999 63.51 16.9599 63.078 17.2799C62.646 17.5999 62.318 18.0479 62.094 18.6239C61.87 19.1999 61.758 19.8879 61.758 20.6879C61.758 21.4879 61.87 22.1839 62.094 22.7759C62.318 23.3519 62.646 23.8079 63.078 24.1439C63.51 24.4639 64.03 24.6239 64.638 24.6239Z" fill="black"/>
<path d="M44.8228 31.4402V14.8562C45.2228 14.7282 45.6948 14.6162 46.2388 14.5202C46.7828 14.4082 47.3668 14.3202 47.9908 14.2562C48.6148 14.1762 49.2308 14.1362 49.8388 14.1362C51.1828 14.1362 52.3348 14.4082 53.2948 14.9522C54.2708 15.4802 55.0148 16.2402 55.5268 17.2322C56.0388 18.2082 56.2948 19.3682 56.2948 20.7122C56.2948 22.0082 56.0788 23.1442 55.6468 24.1202C55.2308 25.0962 54.6068 25.8642 53.7748 26.4242C52.9588 26.9682 51.9508 27.2402 50.7508 27.2402C50.1908 27.2402 49.6708 27.1762 49.1908 27.0482C48.7268 26.9362 48.3108 26.7842 47.9428 26.5922V31.4402H44.8228ZM50.1988 24.5762C50.7108 24.5762 51.1428 24.4962 51.4948 24.3362C51.8628 24.1602 52.1668 23.9122 52.4068 23.5922C52.6468 23.2562 52.8228 22.8562 52.9348 22.3922C53.0468 21.9282 53.1028 21.3922 53.1028 20.7842C53.1028 19.9842 52.9748 19.2882 52.7188 18.6962C52.4628 18.1042 52.0868 17.6482 51.5908 17.3282C51.1108 16.9922 50.5188 16.8242 49.8148 16.8242C49.3988 16.8242 49.0308 16.8482 48.7108 16.8962C48.3908 16.9282 48.1348 16.9602 47.9428 16.9922V23.9522C48.1828 24.1122 48.5028 24.2562 48.9028 24.3842C49.3188 24.5122 49.7508 24.5762 50.1988 24.5762Z" fill="black"/>
<path d="M30.4556 31.4402V14.8562C30.8556 14.7282 31.3276 14.6162 31.8716 14.5202C32.4156 14.4082 32.9996 14.3202 33.6236 14.2562C34.2476 14.1762 34.8636 14.1362 35.4716 14.1362C36.8156 14.1362 37.9676 14.4082 38.9276 14.9522C39.9036 15.4802 40.6476 16.2402 41.1596 17.2322C41.6716 18.2082 41.9276 19.3682 41.9276 20.7122C41.9276 22.0082 41.7116 23.1442 41.2796 24.1202C40.8636 25.0962 40.2396 25.8642 39.4076 26.4242C38.5916 26.9682 37.5836 27.2402 36.3836 27.2402C35.8236 27.2402 35.3036 27.1762 34.8236 27.0482C34.3596 26.9362 33.9436 26.7842 33.5756 26.5922V31.4402H30.4556ZM35.8316 24.5762C36.3436 24.5762 36.7756 24.4962 37.1276 24.3362C37.4956 24.1602 37.7996 23.9122 38.0396 23.5922C38.2796 23.2562 38.4556 22.8562 38.5676 22.3922C38.6796 21.9282 38.7356 21.3922 38.7356 20.7842C38.7356 19.9842 38.6076 19.2882 38.3516 18.6962C38.0956 18.1042 37.7196 17.6482 37.2236 17.3282C36.7436 16.9922 36.1516 16.8242 35.4476 16.8242C35.0316 16.8242 34.6636 16.8482 34.3436 16.8962C34.0236 16.9282 33.7676 16.9602 33.5756 16.9922V23.9522C33.8156 24.1122 34.1356 24.2562 34.5356 24.3842C34.9516 24.5122 35.3836 24.5762 35.8316 24.5762Z" fill="black"/>
<path d="M21.6727 27.2638C20.2967 27.2638 19.2087 27.0158 18.4087 26.5198C17.6247 26.0238 17.0727 25.3438 16.7527 24.4798C16.4327 23.5998 16.2727 22.5838 16.2727 21.4318V14.4238H19.4167V20.9998C19.4167 21.8478 19.4887 22.5358 19.6327 23.0638C19.7927 23.5918 20.0567 23.9758 20.4247 24.2158C20.7927 24.4558 21.2807 24.5758 21.8887 24.5758C22.2567 24.5758 22.6087 24.5598 22.9447 24.5278C23.2967 24.4958 23.5767 24.4638 23.7847 24.4318V14.4238H26.9047V26.5678C26.3287 26.7278 25.5767 26.8798 24.6487 27.0238C23.7367 27.1838 22.7447 27.2638 21.6727 27.2638Z" fill="black"/>
<path d="M7.28801 27.3359C5.86401 27.3359 4.70401 27.1919 3.80801 26.9039C2.92801 26.5999 2.28001 26.3279 1.86401 26.0879L2.82401 23.4719C3.27201 23.7279 3.86401 23.9679 4.60001 24.1919C5.33601 24.4159 6.23201 24.5279 7.28801 24.5279C8.40801 24.5279 9.19201 24.3519 9.64001 23.9999C10.088 23.6319 10.312 23.1439 10.312 22.5359C10.312 22.0559 10.176 21.6639 9.90401 21.3599C9.64801 21.0399 9.25601 20.7519 8.72801 20.4959C8.20001 20.2399 7.53601 19.9759 6.73601 19.7039C5.96801 19.4159 5.23201 19.0879 4.52801 18.7199C3.84001 18.3359 3.28001 17.8399 2.84801 17.2319C2.41601 16.6239 2.20001 15.8239 2.20001 14.8319C2.20001 13.8239 2.44001 12.9599 2.92001 12.2399C3.41601 11.5199 4.10401 10.9679 4.98401 10.5839C5.88001 10.1839 6.93601 9.98389 8.15201 9.98389C9.22401 9.98389 10.16 10.1039 10.96 10.3439C11.776 10.5839 12.44 10.8479 12.952 11.1359L11.968 13.7279C11.504 13.4719 10.976 13.2559 10.384 13.0799C9.79201 12.8879 9.10401 12.7919 8.32001 12.7919C7.39201 12.7919 6.69601 12.9359 6.23201 13.2239C5.78401 13.5119 5.56001 13.9679 5.56001 14.5919C5.56001 15.0399 5.69601 15.4079 5.96801 15.6959C6.24001 15.9839 6.60801 16.2399 7.07201 16.4639C7.53601 16.6719 8.05601 16.8799 8.63201 17.0879C9.73601 17.4879 10.656 17.9039 11.392 18.3359C12.144 18.7679 12.712 19.3119 13.096 19.9679C13.496 20.6079 13.696 21.4639 13.696 22.5359C13.696 23.5439 13.456 24.4079 12.976 25.1279C12.496 25.8479 11.776 26.3999 10.816 26.7839C9.87201 27.1519 8.69601 27.3359 7.28801 27.3359Z" fill="black"/>
</svg>
