<svg width="76" height="10" viewBox="0 0 76 10" fill="none" xmlns="http://www.w3.org/2000/svg">
<path d="M75.2778 4.693C75.2778 6.20967 74.9875 7.37533 74.4068 8.19C73.8348 8.996 73.0418 9.399 72.0278 9.399C71.0138 9.399 70.2165 8.996 69.6358 8.19C69.0638 7.37533 68.7778 6.20967 68.7778 4.693C68.7778 3.939 68.8515 3.27167 68.9988 2.691C69.1548 2.11033 69.3758 1.62067 69.6618 1.222C69.9478 0.823334 70.2902 0.52 70.6888 0.312C71.0875 0.104 71.5338 0 72.0278 0C73.0418 0 73.8348 0.407334 74.4068 1.222C74.9875 2.028 75.2778 3.185 75.2778 4.693ZM73.3018 4.693C73.3018 4.24233 73.2802 3.835 73.2368 3.471C73.1935 3.09833 73.1242 2.77767 73.0288 2.509C72.9335 2.24033 72.8035 2.03233 72.6388 1.885C72.4742 1.73767 72.2705 1.664 72.0278 1.664C71.7852 1.664 71.5815 1.73767 71.4168 1.885C71.2608 2.03233 71.1308 2.24033 71.0268 2.509C70.9315 2.77767 70.8622 3.09833 70.8188 3.471C70.7755 3.835 70.7538 4.24233 70.7538 4.693C70.7538 5.14367 70.7755 5.55533 70.8188 5.928C70.8622 6.30067 70.9315 6.62133 71.0268 6.89C71.1308 7.15867 71.2608 7.36667 71.4168 7.514C71.5815 7.66133 71.7852 7.735 72.0278 7.735C72.2705 7.735 72.4742 7.66133 72.6388 7.514C72.8035 7.36667 72.9335 7.15867 73.0288 6.89C73.1242 6.62133 73.1935 6.30067 73.2368 5.928C73.2802 5.55533 73.3018 5.14367 73.3018 4.693Z" fill="black"/>
<path d="M67.9449 8.18965C67.9449 8.57965 67.8192 8.87865 67.5679 9.08665C67.3252 9.28599 67.0479 9.38565 66.7359 9.38565C66.4239 9.38565 66.1422 9.28599 65.8909 9.08665C65.6482 8.87865 65.5269 8.57965 65.5269 8.18965C65.5269 7.79965 65.6482 7.50498 65.8909 7.30565C66.1422 7.09765 66.4239 6.99365 66.7359 6.99365C67.0479 6.99365 67.3252 7.09765 67.5679 7.30565C67.8192 7.50498 67.9449 7.79965 67.9449 8.18965Z" fill="black"/>
<path d="M64.6899 4.693C64.6899 6.20967 64.3996 7.37533 63.8189 8.19C63.2469 8.996 62.4539 9.399 61.4399 9.399C60.4259 9.399 59.6286 8.996 59.0479 8.19C58.4759 7.37533 58.1899 6.20967 58.1899 4.693C58.1899 3.939 58.2636 3.27167 58.4109 2.691C58.5669 2.11033 58.7879 1.62067 59.0739 1.222C59.3599 0.823334 59.7023 0.52 60.1009 0.312C60.4996 0.104 60.9459 0 61.4399 0C62.4539 0 63.2469 0.407334 63.8189 1.222C64.3996 2.028 64.6899 3.185 64.6899 4.693ZM62.7139 4.693C62.7139 4.24233 62.6923 3.835 62.6489 3.471C62.6056 3.09833 62.5363 2.77767 62.4409 2.509C62.3456 2.24033 62.2156 2.03233 62.0509 1.885C61.8863 1.73767 61.6826 1.664 61.4399 1.664C61.1973 1.664 60.9936 1.73767 60.8289 1.885C60.6729 2.03233 60.5429 2.24033 60.4389 2.509C60.3436 2.77767 60.2743 3.09833 60.2309 3.471C60.1876 3.835 60.1659 4.24233 60.1659 4.693C60.1659 5.14367 60.1876 5.55533 60.2309 5.928C60.2743 6.30067 60.3436 6.62133 60.4389 6.89C60.5429 7.15867 60.6729 7.36667 60.8289 7.514C60.9936 7.66133 61.1973 7.735 61.4399 7.735C61.6826 7.735 61.8863 7.66133 62.0509 7.514C62.2156 7.36667 62.3456 7.15867 62.4409 6.89C62.5363 6.62133 62.6056 6.30067 62.6489 5.928C62.6923 5.55533 62.7139 5.14367 62.7139 4.693Z" fill="black"/>
<path d="M57.357 8.18965C57.357 8.57965 57.2313 8.87865 56.98 9.08665C56.7373 9.28599 56.46 9.38565 56.148 9.38565C55.836 9.38565 55.5543 9.28599 55.303 9.08665C55.0603 8.87865 54.939 8.57965 54.939 8.18965C54.939 7.79965 55.0603 7.50498 55.303 7.30565C55.5543 7.09765 55.836 6.99365 56.148 6.99365C56.46 6.99365 56.7373 7.09765 56.98 7.30565C57.2313 7.50498 57.357 7.79965 57.357 8.18965Z" fill="black"/>
<path d="M53.6082 2.574C53.6082 2.90333 53.5432 3.21967 53.4132 3.523C53.2832 3.82633 53.1142 4.121 52.9062 4.407C52.6982 4.68433 52.4642 4.953 52.2042 5.213C51.9442 5.473 51.6886 5.72 51.4372 5.954C51.3072 6.07533 51.1642 6.214 51.0082 6.37C50.8609 6.51733 50.7179 6.669 50.5792 6.825C50.4406 6.981 50.3149 7.12833 50.2022 7.267C50.0982 7.397 50.0332 7.50533 50.0072 7.592H53.8812V9.217H47.8752C47.8579 9.12167 47.8492 9.00033 47.8492 8.853C47.8492 8.70567 47.8492 8.60167 47.8492 8.541C47.8492 8.125 47.9142 7.74367 48.0442 7.397C48.1829 7.05033 48.3606 6.72967 48.5772 6.435C48.7939 6.13167 49.0366 5.85 49.3052 5.59C49.5826 5.33 49.8556 5.07 50.1242 4.81C50.3322 4.61067 50.5272 4.42433 50.7092 4.251C50.8912 4.069 51.0516 3.89567 51.1902 3.731C51.3289 3.55767 51.4372 3.38867 51.5152 3.224C51.5932 3.05067 51.6322 2.87733 51.6322 2.704C51.6322 2.32267 51.5239 2.054 51.3072 1.898C51.0906 1.742 50.8219 1.664 50.5012 1.664C50.2672 1.664 50.0462 1.703 49.8382 1.781C49.6389 1.85033 49.4526 1.937 49.2792 2.041C49.1146 2.13633 48.9716 2.236 48.8502 2.34C48.7289 2.43533 48.6379 2.51333 48.5772 2.574L47.6152 1.222C47.9966 0.866667 48.4386 0.576334 48.9412 0.351C49.4526 0.117 49.9986 0 50.5792 0C51.1079 0 51.5629 0.0606666 51.9442 0.182C52.3256 0.303333 52.6376 0.476667 52.8802 0.702C53.1316 0.918667 53.3136 1.18733 53.4262 1.508C53.5476 1.82 53.6082 2.17533 53.6082 2.574Z" fill="black"/>
<path d="M46.7134 4.693C46.7134 6.20967 46.423 7.37533 45.8424 8.19C45.2704 8.996 44.4774 9.399 43.4634 9.399C42.4494 9.399 41.652 8.996 41.0714 8.19C40.4994 7.37533 40.2134 6.20967 40.2134 4.693C40.2134 3.939 40.287 3.27167 40.4344 2.691C40.5904 2.11033 40.8114 1.62067 41.0974 1.222C41.3834 0.823334 41.7257 0.52 42.1244 0.312C42.523 0.104 42.9694 0 43.4634 0C44.4774 0 45.2704 0.407334 45.8424 1.222C46.423 2.028 46.7134 3.185 46.7134 4.693ZM44.7374 4.693C44.7374 4.24233 44.7157 3.835 44.6724 3.471C44.629 3.09833 44.5597 2.77767 44.4644 2.509C44.369 2.24033 44.239 2.03233 44.0744 1.885C43.9097 1.73767 43.706 1.664 43.4634 1.664C43.2207 1.664 43.017 1.73767 42.8524 1.885C42.6964 2.03233 42.5664 2.24033 42.4624 2.509C42.367 2.77767 42.2977 3.09833 42.2544 3.471C42.211 3.835 42.1894 4.24233 42.1894 4.693C42.1894 5.14367 42.211 5.55533 42.2544 5.928C42.2977 6.30067 42.367 6.62133 42.4624 6.89C42.5664 7.15867 42.6964 7.36667 42.8524 7.514C43.017 7.66133 43.2207 7.735 43.4634 7.735C43.706 7.735 43.9097 7.66133 44.0744 7.514C44.239 7.36667 44.369 7.15867 44.4644 6.89C44.5597 6.62133 44.629 6.30067 44.6724 5.928C44.7157 5.55533 44.7374 5.14367 44.7374 4.693Z" fill="black"/>
<path d="M39.3804 8.18965C39.3804 8.57965 39.2547 8.87865 39.0034 9.08665C38.7607 9.28599 38.4834 9.38565 38.1714 9.38565C37.8594 9.38565 37.5777 9.28599 37.3264 9.08665C37.0837 8.87865 36.9624 8.57965 36.9624 8.18965C36.9624 7.79965 37.0837 7.50498 37.3264 7.30565C37.5777 7.09765 37.8594 6.99365 38.1714 6.99365C38.4834 6.99365 38.7607 7.09765 39.0034 7.30565C39.2547 7.50498 39.3804 7.79965 39.3804 8.18965Z" fill="black"/>
<path d="M32.7456 4.97858C32.5549 4.97858 32.3512 4.99591 32.1346 5.03058C31.9179 5.06524 31.7489 5.11291 31.6276 5.17358C31.6276 5.20824 31.6232 5.26025 31.6145 5.32958C31.6145 5.39891 31.6145 5.45958 31.6145 5.51158C31.6145 5.82358 31.6362 6.11825 31.6796 6.39558C31.7229 6.67291 31.7965 6.91558 31.9005 7.12358C32.0045 7.33158 32.1432 7.49625 32.3165 7.61758C32.4899 7.73025 32.7066 7.78658 32.9666 7.78658C33.1832 7.78658 33.3652 7.74324 33.5125 7.65658C33.6685 7.56124 33.7942 7.44424 33.8896 7.30558C33.9936 7.16691 34.0672 7.01525 34.1106 6.85058C34.1626 6.67725 34.1886 6.51258 34.1886 6.35658C34.1886 5.91458 34.0759 5.57658 33.8505 5.34258C33.6339 5.09991 33.2656 4.97858 32.7456 4.97858ZM32.9926 3.47058C33.5559 3.47058 34.0326 3.54858 34.4226 3.70458C34.8212 3.85191 35.1462 4.05558 35.3976 4.31558C35.6489 4.57558 35.8309 4.87891 35.9436 5.22558C36.0562 5.57224 36.1126 5.94058 36.1126 6.33058C36.1126 6.67724 36.0476 7.03258 35.9176 7.39658C35.7962 7.76058 35.6055 8.08991 35.3455 8.38458C35.0942 8.67925 34.7692 8.92191 34.3706 9.11258C33.9806 9.30325 33.5169 9.39858 32.9796 9.39858C31.8962 9.39858 31.0729 9.05624 30.5096 8.37158C29.9462 7.68691 29.6646 6.74225 29.6646 5.53758C29.6646 4.67091 29.7989 3.90391 30.0676 3.23658C30.3362 2.56924 30.7175 2.01024 31.2115 1.55958C31.7142 1.10024 32.3165 0.753578 33.0185 0.519578C33.7292 0.276911 34.5266 0.151245 35.4106 0.142578C35.4279 0.411244 35.4452 0.675578 35.4625 0.935578C35.4799 1.18691 35.4972 1.45124 35.5146 1.72858C35.0726 1.73724 34.6565 1.78058 34.2666 1.85858C33.8852 1.92791 33.5342 2.04058 33.2135 2.19658C32.9015 2.35258 32.6285 2.55624 32.3945 2.80758C32.1605 3.05024 31.9786 3.34924 31.8486 3.70458C32.0392 3.61791 32.2342 3.55724 32.4335 3.52258C32.6329 3.48791 32.8192 3.47058 32.9926 3.47058Z" fill="black"/>
<path d="M28.243 2.574C28.243 2.90333 28.178 3.21967 28.048 3.523C27.918 3.82633 27.749 4.121 27.541 4.407C27.333 4.68433 27.099 4.953 26.839 5.213C26.579 5.473 26.3233 5.72 26.072 5.954C25.942 6.07533 25.799 6.214 25.643 6.37C25.4957 6.51733 25.3527 6.669 25.214 6.825C25.0753 6.981 24.9497 7.12833 24.837 7.267C24.733 7.397 24.668 7.50533 24.642 7.592H28.516V9.217H22.51C22.4927 9.12167 22.484 9.00033 22.484 8.853C22.484 8.70567 22.484 8.60167 22.484 8.541C22.484 8.125 22.549 7.74367 22.679 7.397C22.8177 7.05033 22.9953 6.72967 23.212 6.435C23.4287 6.13167 23.6713 5.85 23.94 5.59C24.2173 5.33 24.4903 5.07 24.759 4.81C24.967 4.61067 25.162 4.42433 25.344 4.251C25.526 4.069 25.6863 3.89567 25.825 3.731C25.9637 3.55767 26.072 3.38867 26.15 3.224C26.228 3.05067 26.267 2.87733 26.267 2.704C26.267 2.32267 26.1587 2.054 25.942 1.898C25.7253 1.742 25.4567 1.664 25.136 1.664C24.902 1.664 24.681 1.703 24.473 1.781C24.2737 1.85033 24.0873 1.937 23.914 2.041C23.7493 2.13633 23.6063 2.236 23.485 2.34C23.3637 2.43533 23.2727 2.51333 23.212 2.574L22.25 1.222C22.6313 0.866667 23.0733 0.576334 23.576 0.351C24.0873 0.117 24.6333 0 25.214 0C25.7427 0 26.1977 0.0606666 26.579 0.182C26.9603 0.303333 27.2723 0.476667 27.515 0.702C27.7663 0.918667 27.9483 1.18733 28.061 1.508C28.1823 1.82 28.243 2.17533 28.243 2.574Z" fill="black"/>
<path d="M21.3481 4.693C21.3481 6.20967 21.0578 7.37533 20.4771 8.19C19.9051 8.996 19.1121 9.399 18.0981 9.399C17.0841 9.399 16.2868 8.996 15.7061 8.19C15.1341 7.37533 14.8481 6.20967 14.8481 4.693C14.8481 3.939 14.9218 3.27167 15.0691 2.691C15.2251 2.11033 15.4461 1.62067 15.7321 1.222C16.0181 0.823334 16.3605 0.52 16.7591 0.312C17.1578 0.104 17.6041 0 18.0981 0C19.1121 0 19.9051 0.407334 20.4771 1.222C21.0578 2.028 21.3481 3.185 21.3481 4.693ZM19.3721 4.693C19.3721 4.24233 19.3505 3.835 19.3071 3.471C19.2638 3.09833 19.1945 2.77767 19.0991 2.509C19.0038 2.24033 18.8738 2.03233 18.7091 1.885C18.5445 1.73767 18.3408 1.664 18.0981 1.664C17.8555 1.664 17.6518 1.73767 17.4871 1.885C17.3311 2.03233 17.2011 2.24033 17.0971 2.509C17.0018 2.77767 16.9325 3.09833 16.8891 3.471C16.8458 3.835 16.8241 4.24233 16.8241 4.693C16.8241 5.14367 16.8458 5.55533 16.8891 5.928C16.9325 6.30067 17.0018 6.62133 17.0971 6.89C17.2011 7.15867 17.3311 7.36667 17.4871 7.514C17.6518 7.66133 17.8555 7.735 18.0981 7.735C18.3408 7.735 18.5445 7.66133 18.7091 7.514C18.8738 7.36667 19.0038 7.15867 19.0991 6.89C19.1945 6.62133 19.2638 6.30067 19.3071 5.928C19.3505 5.55533 19.3721 5.14367 19.3721 4.693Z" fill="black"/>
<path d="M13.4657 2.574C13.4657 2.90333 13.4007 3.21967 13.2707 3.523C13.1407 3.82633 12.9717 4.121 12.7637 4.407C12.5557 4.68433 12.3217 4.953 12.0617 5.213C11.8017 5.473 11.546 5.72 11.2947 5.954C11.1647 6.07533 11.0217 6.214 10.8657 6.37C10.7183 6.51733 10.5753 6.669 10.4367 6.825C10.298 6.981 10.1723 7.12833 10.0597 7.267C9.95566 7.397 9.89066 7.50533 9.86466 7.592H13.7387V9.217H7.73266C7.71532 9.12167 7.70666 9.00033 7.70666 8.853C7.70666 8.70567 7.70666 8.60167 7.70666 8.541C7.70666 8.125 7.77166 7.74367 7.90166 7.397C8.04032 7.05033 8.21799 6.72967 8.43466 6.435C8.65132 6.13167 8.89399 5.85 9.16266 5.59C9.43999 5.33 9.71299 5.07 9.98166 4.81C10.1897 4.61067 10.3847 4.42433 10.5667 4.251C10.7487 4.069 10.909 3.89567 11.0477 3.731C11.1863 3.55767 11.2947 3.38867 11.3727 3.224C11.4507 3.05067 11.4897 2.87733 11.4897 2.704C11.4897 2.32267 11.3813 2.054 11.1647 1.898C10.948 1.742 10.6793 1.664 10.3587 1.664C10.1247 1.664 9.90366 1.703 9.69566 1.781C9.49632 1.85033 9.30999 1.937 9.13666 2.041C8.97199 2.13633 8.82899 2.236 8.70766 2.34C8.58632 2.43533 8.49532 2.51333 8.43466 2.574L7.47266 1.222C7.85399 0.866667 8.29599 0.576334 8.79866 0.351C9.30999 0.117 9.85599 0 10.4367 0C10.9653 0 11.4203 0.0606666 11.8017 0.182C12.183 0.303333 12.495 0.476667 12.7377 0.702C12.989 0.918667 13.171 1.18733 13.2837 1.508C13.405 1.82 13.4657 2.17533 13.4657 2.574Z" fill="black"/>
<path d="M2.639 9.21691C2.197 8.35024 1.74633 7.33624 1.287 6.17491C0.836333 5.01357 0.407333 3.74824 0 2.37891H2.054C2.14067 2.71691 2.24033 3.08524 2.353 3.48391C2.47433 3.87391 2.59567 4.27257 2.717 4.67991C2.847 5.07857 2.97267 5.46857 3.094 5.84991C3.224 6.23124 3.34967 6.57791 3.471 6.88991C3.58367 6.57791 3.705 6.23124 3.835 5.84991C3.965 5.46857 4.09067 5.07857 4.212 4.67991C4.342 4.27257 4.46333 3.87391 4.576 3.48391C4.69733 3.08524 4.80133 2.71691 4.888 2.37891H6.89C6.48267 3.74824 6.04933 5.01357 5.59 6.17491C5.13933 7.33624 4.693 8.35024 4.251 9.21691H2.639Z" fill="black"/>
</svg>
