<svg width="90" height="25" viewBox="0 0 90 25" fill="none" xmlns="http://www.w3.org/2000/svg">
<path d="M2.45167 17.2756C2.24736 16.8308 2.03489 16.3512 1.81424 15.8366C1.60175 15.322 1.39337 14.7768 1.18906 14.2012C0.98476 13.6168 0.780448 13.0107 0.576148 12.3827C0.38001 11.746 0.187964 11.0919 0 10.4203H1.70391C1.81832 10.9087 1.95316 11.4451 2.10844 12.0295C2.27188 12.6138 2.4435 13.1895 2.62329 13.7564C2.81124 14.3146 2.98695 14.8117 3.15039 15.2479C3.27298 14.9251 3.39965 14.5631 3.5304 14.162C3.66928 13.7521 3.80415 13.3334 3.93496 12.906C4.06565 12.4699 4.18832 12.0382 4.30273 11.6108C4.42528 11.1835 4.52736 10.7866 4.6091 10.4203H6.25178C6.07191 11.0919 5.87995 11.746 5.67566 12.3827C5.47951 13.0107 5.27522 13.6168 5.06267 14.2012C4.85839 14.7768 4.65003 15.322 4.43748 15.8366C4.23319 16.3512 4.02484 16.8308 3.81229 17.2756H2.45167ZM7.13625 17.2756C7.12811 17.1971 7.12404 17.0968 7.12404 16.9747C7.12404 16.8439 7.12404 16.7437 7.12404 16.6738C7.12404 16.1156 7.23439 15.6185 7.45495 15.1824C7.67563 14.7463 7.94945 14.3451 8.27629 13.9788C8.61139 13.6125 8.94636 13.2549 9.28145 12.906C9.55121 12.6356 9.79223 12.3827 10.0047 12.1472C10.2253 11.903 10.401 11.6632 10.5318 11.4277C10.6625 11.1922 10.728 10.9392 10.728 10.6689C10.728 10.2328 10.6136 9.92753 10.3848 9.75309C10.1559 9.56993 9.87397 9.47836 9.53888 9.47836C9.23658 9.47836 8.95869 9.53504 8.70533 9.64842C8.46011 9.76182 8.25175 9.89263 8.08014 10.0409C7.90852 10.1892 7.78597 10.3026 7.71237 10.3811L6.91556 9.19053C7.11997 8.98121 7.35693 8.78933 7.62656 8.61489C7.90445 8.43174 8.20688 8.28346 8.53371 8.17008C8.86881 8.0567 9.22018 8 9.58795 8C10.5523 8 11.255 8.23113 11.6964 8.69339C12.1458 9.14692 12.3706 9.77053 12.3706 10.5642C12.3706 11.0003 12.2685 11.4189 12.0641 11.8202C11.8598 12.2126 11.5983 12.5877 11.2796 12.9453C10.969 13.2941 10.6503 13.6343 10.3235 13.9658C10.1436 14.1489 9.94745 14.3581 9.73503 14.5937C9.5226 14.8292 9.33459 15.0602 9.17111 15.2871C9.01589 15.5051 8.92602 15.6883 8.90148 15.8366H12.628V17.2756H7.13625ZM16.7891 17.4588C16.1681 17.4588 15.6327 17.2756 15.1832 16.9093C14.742 16.543 14.3988 16.011 14.1535 15.3133C13.9166 14.6068 13.7981 13.7433 13.7981 12.7229C13.7981 11.7111 13.9206 10.8564 14.1659 10.1587C14.411 9.45218 14.7542 8.91579 15.1956 8.54947C15.6449 8.18316 16.1762 8 16.7891 8C17.7289 8 18.4603 8.40993 18.9833 9.22978C19.5146 10.0409 19.7801 11.2053 19.7801 12.7229C19.7801 14.2492 19.5146 15.4222 18.9833 16.2421C18.4603 17.0533 17.7289 17.4588 16.7891 17.4588ZM16.7891 15.9805C17.1406 15.9805 17.4102 15.8409 17.5982 15.5618C17.7943 15.2828 17.9332 14.8989 18.0149 14.4105C18.0966 13.9134 18.1376 13.3508 18.1376 12.7229C18.1376 12.1036 18.0966 11.5498 18.0149 11.0614C17.9332 10.5729 17.7943 10.1892 17.5982 9.91008C17.4102 9.62226 17.1406 9.47836 16.7891 9.47836C16.4541 9.47836 16.1843 9.62226 15.98 9.91008C15.7839 10.1892 15.6449 10.5729 15.5633 11.0614C15.4816 11.5498 15.4407 12.1036 15.4407 12.7229C15.4407 13.3508 15.4816 13.9134 15.5633 14.4105C15.6449 14.8989 15.7839 15.2828 15.98 15.5618C16.1843 15.8409 16.4541 15.9805 16.7891 15.9805ZM20.9748 17.2756C20.9665 17.1971 20.9625 17.0968 20.9625 16.9747C20.9625 16.8439 20.9625 16.7437 20.9625 16.6738C20.9625 16.1156 21.0728 15.6185 21.2935 15.1824C21.5142 14.7463 21.7879 14.3451 22.1148 13.9788C22.4498 13.6125 22.7849 13.2549 23.12 12.906C23.3896 12.6356 23.6308 12.3827 23.8432 12.1472C24.0639 11.903 24.2396 11.6632 24.3703 11.4277C24.5011 11.1922 24.5664 10.9392 24.5664 10.6689C24.5664 10.2328 24.452 9.92753 24.2232 9.75309C23.9944 9.56993 23.7124 9.47836 23.3774 9.47836C23.075 9.47836 22.7971 9.53504 22.5439 9.64842C22.2987 9.76182 22.0903 9.89263 21.9187 10.0409C21.7471 10.1892 21.6244 10.3026 21.5509 10.3811L20.7541 9.19053C20.9584 8.98121 21.1954 8.78933 21.4651 8.61489C21.743 8.43174 22.0453 8.28346 22.3723 8.17008C22.7072 8.0567 23.0587 8 23.4264 8C24.3907 8 25.0936 8.23113 25.5348 8.69339C25.9843 9.14692 26.2091 9.77053 26.2091 10.5642C26.2091 11.0003 26.1069 11.4189 25.9026 11.8202C25.6983 12.2126 25.4368 12.5877 25.1181 12.9453C24.8076 13.2941 24.4889 13.6343 24.1619 13.9658C23.9822 14.1489 23.786 14.3581 23.5736 14.5937C23.361 14.8292 23.1731 15.0602 23.0097 15.2871C22.8543 15.5051 22.7644 15.6883 22.7399 15.8366H26.4665V17.2756H20.9748ZM30.0515 17.4718C29.7491 17.4718 29.4385 17.4413 29.1198 17.3802C28.8011 17.328 28.5151 17.267 28.2617 17.1971C28.0166 17.1187 27.8327 17.0533 27.7101 17.0009L28.0166 15.5749C28.1964 15.6621 28.4538 15.758 28.7889 15.8627C29.1239 15.9587 29.5243 16.0066 29.9902 16.0066C30.4069 16.0066 30.7379 15.9455 30.983 15.8234C31.2364 15.6926 31.4203 15.5226 31.5348 15.3133C31.6492 15.1039 31.7064 14.8816 31.7064 14.646C31.7064 14.271 31.6042 13.957 31.3999 13.7041C31.2037 13.4512 30.8564 13.2593 30.358 13.1284C29.8594 12.9889 29.1567 12.9191 28.2495 12.9191C28.2986 12.5005 28.3394 12.0905 28.3721 11.6893C28.413 11.2794 28.4457 10.8782 28.4702 10.4857C28.5029 10.0932 28.5274 9.70512 28.5437 9.32136C28.5601 8.93761 28.5763 8.56692 28.5927 8.20933H33.018V9.64842H29.9411C29.933 9.80542 29.9247 9.97113 29.9166 10.1456C29.9085 10.32 29.8961 10.4944 29.8799 10.6689C29.8635 10.8433 29.8472 11.009 29.8308 11.166C29.8227 11.323 29.8103 11.4626 29.7941 11.5847C31.0035 11.6544 31.8943 11.9466 32.4663 12.4612C33.0384 12.9758 33.3244 13.6822 33.3244 14.5806C33.3244 15.1301 33.2059 15.6229 32.969 16.0589C32.732 16.495 32.3683 16.8396 31.878 17.0925C31.3958 17.3454 30.787 17.4718 30.0515 17.4718ZM35.5978 17.4458C35.3199 17.4458 35.0788 17.3497 34.8745 17.1579C34.6702 16.9574 34.5681 16.687 34.5681 16.3468C34.5681 16.0066 34.6702 15.7406 34.8745 15.5487C35.0788 15.3481 35.3199 15.2479 35.5978 15.2479C35.8756 15.2479 36.1167 15.3481 36.321 15.5487C36.5335 15.7406 36.6397 16.0066 36.6397 16.3468C36.6397 16.687 36.5335 16.9574 36.321 17.1579C36.1167 17.3497 35.8756 17.4458 35.5978 17.4458ZM40.5636 17.4588C39.9425 17.4588 39.4072 17.2756 38.9577 16.9093C38.5164 16.543 38.1732 16.011 37.928 15.3133C37.691 14.6068 37.5725 13.7433 37.5725 12.7229C37.5725 11.7111 37.6951 10.8564 37.9403 10.1587C38.1854 9.45218 38.5286 8.91579 38.97 8.54947C39.4195 8.18316 39.9506 8 40.5636 8C41.5033 8 42.2348 8.40993 42.7578 9.22978C43.289 10.0409 43.5546 11.2053 43.5546 12.7229C43.5546 14.2492 43.289 15.4222 42.7578 16.2421C42.2348 17.0533 41.5033 17.4588 40.5636 17.4588ZM40.5636 15.9805C40.915 15.9805 41.1846 15.8409 41.3726 15.5618C41.5688 15.2828 41.7077 14.8989 41.7893 14.4105C41.8711 13.9134 41.912 13.3508 41.912 12.7229C41.912 12.1036 41.8711 11.5498 41.7893 11.0614C41.7077 10.5729 41.5688 10.1892 41.3726 9.91008C41.1846 9.62226 40.915 9.47836 40.5636 9.47836C40.2285 9.47836 39.9588 9.62226 39.7545 9.91008C39.5583 10.1892 39.4195 10.5729 39.3378 11.0614C39.256 11.5498 39.2151 12.1036 39.2151 12.7229C39.2151 13.3508 39.256 13.9134 39.3378 14.4105C39.4195 14.8989 39.5583 15.2828 39.7545 15.5618C39.9588 15.8409 40.2285 15.9805 40.5636 15.9805ZM47.2131 17.2756V10.4726C47.066 10.586 46.8904 10.7038 46.686 10.8259C46.4899 10.9393 46.2855 11.0483 46.0731 11.1529C45.8688 11.2489 45.6604 11.3317 45.4479 11.4015L44.9698 10.0802C45.452 9.87955 45.9382 9.62226 46.4285 9.30828C46.919 8.99429 47.3397 8.62797 47.6912 8.20933H48.819V17.2756H47.2131ZM52.453 17.4458C52.1751 17.4458 51.9341 17.3497 51.7298 17.1579C51.5254 16.9574 51.4233 16.687 51.4233 16.3468C51.4233 16.0066 51.5254 15.7406 51.7298 15.5487C51.9341 15.3481 52.1751 15.2479 52.453 15.2479C52.7309 15.2479 52.9719 15.3481 53.1762 15.5487C53.3887 15.7406 53.4949 16.0066 53.4949 16.3468C53.4949 16.687 53.3887 16.9574 53.1762 17.1579C52.9719 17.3497 52.7309 17.4458 52.453 17.4458ZM56.8127 17.4196C56.2816 17.4196 55.8157 17.3497 55.4152 17.2102C55.0148 17.062 54.7001 16.8264 54.4713 16.5038C54.2508 16.1724 54.1404 15.7318 54.1404 15.1824C54.1404 14.6591 54.263 14.2405 54.5082 13.9264C54.7615 13.6125 55.0965 13.3901 55.5134 13.2593C55.9301 13.1197 56.3755 13.0499 56.8495 13.0499C57.0865 13.0499 57.303 13.063 57.4991 13.0892C57.7034 13.1153 57.8547 13.1459 57.9527 13.1808V12.9453C57.9527 12.7011 57.9119 12.483 57.8302 12.2911C57.7566 12.0992 57.6218 11.951 57.4257 11.8463C57.2376 11.7329 56.9762 11.6762 56.6411 11.6762C56.2897 11.6762 55.971 11.7024 55.685 11.7547C55.3989 11.8071 55.162 11.8725 54.974 11.951L54.7656 10.5642C54.9618 10.4944 55.2436 10.4247 55.6114 10.3549C55.9873 10.2764 56.3877 10.2371 56.8127 10.2371C57.491 10.2371 58.0263 10.3505 58.4185 10.5773C58.8108 10.8041 59.0887 11.1224 59.2522 11.5323C59.4155 11.9423 59.4973 12.4263 59.4973 12.9845V17.0925C59.2603 17.1449 58.9089 17.2102 58.443 17.2887C57.9854 17.3759 57.4419 17.4196 56.8127 17.4196ZM56.9354 16.0851C57.1478 16.0851 57.3439 16.0808 57.5237 16.0721C57.7034 16.0546 57.8464 16.0327 57.9527 16.0066V14.3321C57.8792 14.3059 57.7606 14.2841 57.5973 14.2666C57.4419 14.2405 57.2786 14.2274 57.107 14.2274C56.8699 14.2274 56.6451 14.2535 56.4327 14.3059C56.2284 14.3495 56.0609 14.4367 55.9301 14.5675C55.7994 14.6984 55.734 14.8903 55.734 15.1431C55.734 15.4921 55.8402 15.7363 56.0527 15.8758C56.2733 16.0154 56.5676 16.0851 56.9354 16.0851ZM61.8383 17.4458C61.5604 17.4458 61.3193 17.3497 61.115 17.1579C60.9106 16.9574 60.8086 16.687 60.8086 16.3468C60.8086 16.0066 60.9106 15.7406 61.115 15.5487C61.3193 15.3481 61.5604 15.2479 61.8383 15.2479C62.1161 15.2479 62.3572 15.3481 62.5615 15.5487C62.774 15.7406 62.8802 16.0066 62.8802 16.3468C62.8802 16.687 62.774 16.9574 62.5615 17.1579C62.3572 17.3497 62.1161 17.4458 61.8383 17.4458ZM64.0704 17.2756C64.0622 17.1971 64.0582 17.0968 64.0582 16.9747C64.0582 16.8439 64.0582 16.7437 64.0582 16.6738C64.0582 16.1156 64.1685 15.6185 64.3891 15.1824C64.6098 14.7463 64.8836 14.3451 65.2104 13.9788C65.5455 13.6125 65.8806 13.2549 66.2156 12.906C66.4853 12.6356 66.7264 12.3827 66.9389 12.1472C67.1595 11.903 67.3352 11.6632 67.466 11.4277C67.5968 11.1922 67.6621 10.9392 67.6621 10.6689C67.6621 10.2328 67.5477 9.92753 67.3189 9.75309C67.0901 9.56993 66.8081 9.47836 66.473 9.47836C66.1707 9.47836 65.8928 9.53504 65.6395 9.64842C65.3944 9.76182 65.1859 9.89263 65.0143 10.0409C64.8427 10.1892 64.7201 10.3026 64.6465 10.3811L63.8498 9.19053C64.0541 8.98121 64.2911 8.78933 64.5607 8.61489C64.8386 8.43174 65.141 8.28346 65.4678 8.17008C65.8029 8.0567 66.1543 8 66.5221 8C67.4864 8 68.1892 8.23113 68.6305 8.69339C69.0799 9.14692 69.3047 9.77053 69.3047 10.5642C69.3047 11.0003 69.2026 11.4189 68.9983 11.8202C68.7939 12.2126 68.5324 12.5877 68.2137 12.9453C67.9031 13.2941 67.5844 13.6343 67.2576 13.9658C67.0777 14.1489 66.8817 14.3581 66.6692 14.5937C66.4567 14.8292 66.2687 15.0602 66.1052 15.2871C65.95 15.5051 65.8601 15.6883 65.8356 15.8366H69.5621V17.2756H64.0704Z" fill="black"/>
</svg>
