<svg width="73" height="10" viewBox="0 0 73 10" fill="none" xmlns="http://www.w3.org/2000/svg">
<path d="M70.5599 9.21701V2.45701C70.4039 2.56967 70.2176 2.68667 70.0009 2.80801C69.7929 2.92067 69.5762 3.02901 69.3509 3.13301C69.1342 3.22834 68.9132 3.31067 68.6879 3.38001L68.1809 2.06701C68.6922 1.86767 69.2079 1.61201 69.7279 1.30001C70.2479 0.988008 70.6942 0.624008 71.0669 0.208008H72.2629V9.21701H70.5599Z" fill="black"/>
<path d="M65.5798 9.38566C65.2851 9.38566 65.0295 9.29033 64.8128 9.09966C64.5961 8.90033 64.4878 8.63166 64.4878 8.29366C64.4878 7.95566 64.5961 7.69133 64.8128 7.50066C65.0295 7.30133 65.2851 7.20166 65.5798 7.20166C65.8745 7.20166 66.1301 7.30133 66.3468 7.50066C66.5721 7.69133 66.6848 7.95566 66.6848 8.29366C66.6848 8.63166 66.5721 8.90033 66.3468 9.09966C66.1301 9.29033 65.8745 9.38566 65.5798 9.38566Z" fill="black"/>
<path d="M60.25 9.35966C59.6867 9.35966 59.1927 9.29032 58.768 9.15166C58.3434 9.00432 58.0097 8.77032 57.767 8.44966C57.533 8.12032 57.416 7.68266 57.416 7.13666C57.416 6.61666 57.546 6.20066 57.806 5.88866C58.0747 5.57666 58.43 5.35566 58.872 5.22566C59.314 5.08699 59.7864 5.01766 60.289 5.01766C60.5404 5.01766 60.77 5.03066 60.978 5.05666C61.1947 5.08266 61.355 5.11299 61.459 5.14766V4.91366C61.459 4.67099 61.4157 4.45432 61.329 4.26366C61.251 4.07299 61.108 3.92566 60.9 3.82166C60.7007 3.70899 60.4233 3.65266 60.068 3.65266C59.6953 3.65266 59.3573 3.67866 59.054 3.73066C58.7507 3.78266 58.4993 3.84766 58.3 3.92566L58.079 2.54766C58.287 2.47832 58.586 2.40899 58.976 2.33966C59.3747 2.26166 59.7993 2.22266 60.25 2.22266C60.9693 2.22266 61.537 2.33532 61.953 2.56066C62.369 2.78599 62.6637 3.10232 62.837 3.50966C63.0104 3.91699 63.097 4.39799 63.097 4.95266V9.03466C62.8457 9.08666 62.473 9.15166 61.979 9.22966C61.4937 9.31632 60.9173 9.35966 60.25 9.35966ZM60.38 8.03366C60.6053 8.03366 60.8134 8.02932 61.004 8.02066C61.1947 8.00332 61.3463 7.98166 61.459 7.95566V6.29166C61.381 6.26566 61.2553 6.24399 61.082 6.22666C60.9173 6.20066 60.744 6.18766 60.562 6.18766C60.3107 6.18766 60.0723 6.21366 59.847 6.26566C59.6303 6.30899 59.4527 6.39566 59.314 6.52566C59.1753 6.65566 59.106 6.84632 59.106 7.09766C59.106 7.44432 59.2187 7.68699 59.444 7.82566C59.678 7.96432 59.99 8.03366 60.38 8.03366Z" fill="black"/>
<path d="M55.6267 9.38566C55.332 9.38566 55.0763 9.29033 54.8597 9.09966C54.643 8.90033 54.5347 8.63166 54.5347 8.29366C54.5347 7.95566 54.643 7.69133 54.8597 7.50066C55.0763 7.30133 55.332 7.20166 55.6267 7.20166C55.9213 7.20166 56.177 7.30133 56.3937 7.50066C56.619 7.69133 56.7317 7.95566 56.7317 8.29366C56.7317 8.63166 56.619 8.90033 56.3937 9.09966C56.177 9.29033 55.9213 9.38566 55.6267 9.38566Z" fill="black"/>
<path d="M50.0697 9.21701V2.45701C49.9137 2.56967 49.7273 2.68667 49.5107 2.80801C49.3027 2.92067 49.086 3.02901 48.8607 3.13301C48.644 3.22834 48.423 3.31067 48.1977 3.38001L47.6907 2.06701C48.202 1.86767 48.7177 1.61201 49.2377 1.30001C49.7577 0.988008 50.204 0.624008 50.5767 0.208008H51.7727V9.21701H50.0697Z" fill="black"/>
<path d="M43.0177 9.399C42.359 9.399 41.7914 9.217 41.3147 8.853C40.8467 8.489 40.4827 7.96033 40.2227 7.267C39.9714 6.565 39.8457 5.707 39.8457 4.693C39.8457 3.68767 39.9757 2.83833 40.2357 2.145C40.4957 1.443 40.8597 0.910001 41.3277 0.546C41.8044 0.182 42.3677 0 43.0177 0C44.0144 0 44.79 0.407334 45.3447 1.222C45.908 2.028 46.1897 3.185 46.1897 4.693C46.1897 6.20967 45.908 7.37533 45.3447 8.19C44.79 8.996 44.0144 9.399 43.0177 9.399ZM43.0177 7.93C43.3904 7.93 43.6764 7.79133 43.8757 7.514C44.0837 7.23667 44.231 6.85533 44.3177 6.37C44.4044 5.876 44.4477 5.317 44.4477 4.693C44.4477 4.07767 44.4044 3.52733 44.3177 3.042C44.231 2.55667 44.0837 2.17533 43.8757 1.898C43.6764 1.612 43.3904 1.469 43.0177 1.469C42.6624 1.469 42.3764 1.612 42.1597 1.898C41.9517 2.17533 41.8044 2.55667 41.7177 3.042C41.631 3.52733 41.5877 4.07767 41.5877 4.693C41.5877 5.317 41.631 5.876 41.7177 6.37C41.8044 6.85533 41.9517 7.23667 42.1597 7.514C42.3764 7.79133 42.6624 7.93 43.0177 7.93Z" fill="black"/>
<path d="M37.7517 9.38566C37.457 9.38566 37.2013 9.29033 36.9847 9.09966C36.768 8.90033 36.6597 8.63166 36.6597 8.29366C36.6597 7.95566 36.768 7.69133 36.9847 7.50066C37.2013 7.30133 37.457 7.20166 37.7517 7.20166C38.0463 7.20166 38.302 7.30133 38.5187 7.50066C38.744 7.69133 38.8567 7.95566 38.8567 8.29366C38.8567 8.63166 38.744 8.90033 38.5187 9.09966C38.302 9.29033 38.0463 9.38566 37.7517 9.38566Z" fill="black"/>
<path d="M32.6107 9.39858C31.9174 9.39858 31.3281 9.24691 30.8427 8.94358C30.3661 8.63158 30.0021 8.18958 29.7507 7.61758C29.5081 7.03691 29.3867 6.35225 29.3867 5.56358C29.3867 4.68825 29.5167 3.91691 29.7767 3.24958C30.0367 2.58224 30.4051 2.02324 30.8817 1.57258C31.3671 1.11324 31.9521 0.766578 32.6367 0.532578C33.3214 0.289911 34.0971 0.159911 34.9637 0.142578L35.0547 1.53358C34.4481 1.55091 33.8891 1.63758 33.3777 1.79358C32.8751 1.94958 32.4461 2.19224 32.0907 2.52158C31.7354 2.84224 31.4754 3.27558 31.3107 3.82158C31.5101 3.73491 31.7224 3.66991 31.9477 3.62658C32.1817 3.57458 32.4071 3.54858 32.6237 3.54858C33.3517 3.54858 33.9367 3.67858 34.3787 3.93858C34.8207 4.18991 35.1414 4.53224 35.3407 4.96558C35.5401 5.39891 35.6397 5.87124 35.6397 6.38258C35.6397 6.72058 35.5791 7.06724 35.4577 7.42258C35.3364 7.77791 35.1501 8.10725 34.8987 8.41058C34.6561 8.70525 34.3441 8.94358 33.9627 9.12558C33.5814 9.30758 33.1307 9.39858 32.6107 9.39858ZM32.5977 7.98158C32.9184 7.98158 33.1784 7.90358 33.3777 7.74758C33.5771 7.58291 33.7201 7.37925 33.8067 7.13658C33.8934 6.89391 33.9367 6.65125 33.9367 6.40858C33.9367 5.90591 33.8154 5.52891 33.5727 5.27758C33.3387 5.01758 32.9531 4.88758 32.4157 4.88758C32.1817 4.88758 31.9477 4.90925 31.7137 4.95258C31.4797 4.99591 31.2847 5.05658 31.1287 5.13458C31.1287 5.19525 31.1244 5.26458 31.1157 5.34258C31.1157 5.41191 31.1157 5.47691 31.1157 5.53758C31.1157 5.98825 31.1591 6.39991 31.2457 6.77258C31.3324 7.13658 31.4841 7.43124 31.7007 7.65658C31.9174 7.87324 32.2164 7.98158 32.5977 7.98158Z" fill="black"/>
<path d="M22.2438 9.217C22.2351 9.139 22.2308 9.03933 22.2308 8.918C22.2308 8.788 22.2308 8.68833 22.2308 8.619C22.2308 8.06433 22.3478 7.57033 22.5818 7.137C22.8158 6.70367 23.1061 6.305 23.4528 5.941C23.8081 5.577 24.1634 5.22167 24.5188 4.875C24.8048 4.60633 25.0604 4.355 25.2858 4.121C25.5198 3.87833 25.7061 3.64 25.8448 3.406C25.9834 3.172 26.0528 2.92067 26.0528 2.652C26.0528 2.21867 25.9314 1.91533 25.6888 1.742C25.4461 1.56 25.1471 1.469 24.7918 1.469C24.4711 1.469 24.1764 1.52533 23.9078 1.638C23.6478 1.75067 23.4268 1.88067 23.2448 2.028C23.0628 2.17533 22.9328 2.288 22.8548 2.366L22.0098 1.183C22.2264 0.975 22.4778 0.784334 22.7638 0.611C23.0584 0.429 23.3791 0.281667 23.7258 0.169C24.0811 0.0563334 24.4538 0 24.8438 0C25.8664 0 26.6118 0.229667 27.0798 0.689C27.5564 1.13967 27.7948 1.75933 27.7948 2.548C27.7948 2.98133 27.6864 3.39733 27.4698 3.796C27.2531 4.186 26.9758 4.55867 26.6378 4.914C26.3084 5.26067 25.9704 5.59867 25.6238 5.928C25.4331 6.11 25.2251 6.318 24.9998 6.552C24.7744 6.786 24.5751 7.01567 24.4018 7.241C24.2371 7.45767 24.1418 7.63967 24.1158 7.787H28.0678V9.217H22.2438Z" fill="black"/>
<path d="M17.8048 9.399C17.1461 9.399 16.5785 9.217 16.1018 8.853C15.6338 8.489 15.2698 7.96033 15.0098 7.267C14.7585 6.565 14.6328 5.707 14.6328 4.693C14.6328 3.68767 14.7628 2.83833 15.0228 2.145C15.2828 1.443 15.6468 0.910001 16.1148 0.546C16.5915 0.182 17.1548 0 17.8048 0C18.8015 0 19.5771 0.407334 20.1318 1.222C20.6951 2.028 20.9768 3.185 20.9768 4.693C20.9768 6.20967 20.6951 7.37533 20.1318 8.19C19.5771 8.996 18.8015 9.399 17.8048 9.399ZM17.8048 7.93C18.1775 7.93 18.4635 7.79133 18.6628 7.514C18.8708 7.23667 19.0181 6.85533 19.1048 6.37C19.1915 5.876 19.2348 5.317 19.2348 4.693C19.2348 4.07767 19.1915 3.52733 19.1048 3.042C19.0181 2.55667 18.8708 2.17533 18.6628 1.898C18.4635 1.612 18.1775 1.469 17.8048 1.469C17.4495 1.469 17.1635 1.612 16.9468 1.898C16.7388 2.17533 16.5915 2.55667 16.5048 3.042C16.4181 3.52733 16.3748 4.07767 16.3748 4.693C16.3748 5.317 16.4181 5.876 16.5048 6.37C16.5915 6.85533 16.7388 7.23667 16.9468 7.514C17.1635 7.79133 17.4495 7.93 17.8048 7.93Z" fill="black"/>
<path d="M7.56798 9.217C7.55932 9.139 7.55498 9.03933 7.55498 8.918C7.55498 8.788 7.55498 8.68833 7.55498 8.619C7.55498 8.06433 7.67198 7.57033 7.90598 7.137C8.13998 6.70367 8.43032 6.305 8.77698 5.941C9.13232 5.577 9.48765 5.22167 9.84298 4.875C10.129 4.60633 10.3847 4.355 10.61 4.121C10.844 3.87833 11.0303 3.64 11.169 3.406C11.3077 3.172 11.377 2.92067 11.377 2.652C11.377 2.21867 11.2557 1.91533 11.013 1.742C10.7703 1.56 10.4713 1.469 10.116 1.469C9.79532 1.469 9.50065 1.52533 9.23198 1.638C8.97198 1.75067 8.75098 1.88067 8.56898 2.028C8.38698 2.17533 8.25698 2.288 8.17898 2.366L7.33398 1.183C7.55065 0.975 7.80198 0.784334 8.08798 0.611C8.38265 0.429 8.70332 0.281667 9.04998 0.169C9.40532 0.0563334 9.77798 0 10.168 0C11.1907 0 11.936 0.229667 12.404 0.689C12.8807 1.13967 13.119 1.75933 13.119 2.548C13.119 2.98133 13.0107 3.39733 12.794 3.796C12.5773 4.186 12.3 4.55867 11.962 4.914C11.6327 5.26067 11.2947 5.59867 10.948 5.928C10.7573 6.11 10.5493 6.318 10.324 6.552C10.0987 6.786 9.89932 7.01567 9.72598 7.241C9.56132 7.45767 9.46598 7.63967 9.43998 7.787H13.392V9.217H7.56798Z" fill="black"/>
<path d="M2.6 9.21679C2.38333 8.77479 2.158 8.29812 1.924 7.78679C1.69867 7.27545 1.47767 6.73379 1.261 6.16179C1.04433 5.58112 0.827667 4.97879 0.611 4.35479C0.403 3.72212 0.199333 3.07212 0 2.40479H1.807C1.92833 2.89012 2.07133 3.42312 2.236 4.00379C2.40933 4.58445 2.59133 5.15645 2.782 5.71979C2.98133 6.27445 3.16767 6.76845 3.341 7.20179C3.471 6.88112 3.60533 6.52145 3.744 6.12279C3.89133 5.71545 4.03433 5.29945 4.173 4.87479C4.31167 4.44145 4.44167 4.01245 4.563 3.58779C4.693 3.16312 4.80133 2.76879 4.888 2.40479H6.63C6.43933 3.07212 6.23567 3.72212 6.019 4.35479C5.811 4.97879 5.59433 5.58112 5.369 6.16179C5.15233 6.73379 4.93133 7.27545 4.706 7.78679C4.48933 8.29812 4.26833 8.77479 4.043 9.21679H2.6Z" fill="black"/>
</svg>
