<svg width="75" height="10" viewBox="0 0 75 10" fill="none" xmlns="http://www.w3.org/2000/svg">
<path d="M71.4298 9.399C70.7711 9.399 70.2035 9.217 69.7268 8.853C69.2588 8.489 68.8948 7.96033 68.6348 7.267C68.3835 6.565 68.2578 5.707 68.2578 4.693C68.2578 3.68767 68.3878 2.83833 68.6478 2.145C68.9078 1.443 69.2718 0.91 69.7398 0.546C70.2165 0.182 70.7798 0 71.4298 0C72.4265 0 73.2021 0.407334 73.7568 1.222C74.3201 2.028 74.6018 3.185 74.6018 4.693C74.6018 6.20967 74.3201 7.37533 73.7568 8.19C73.2021 8.996 72.4265 9.399 71.4298 9.399ZM71.4298 7.93C71.8025 7.93 72.0885 7.79133 72.2878 7.514C72.4958 7.23667 72.6431 6.85533 72.7298 6.37C72.8165 5.876 72.8598 5.317 72.8598 4.693C72.8598 4.07767 72.8165 3.52733 72.7298 3.042C72.6431 2.55667 72.4958 2.17533 72.2878 1.898C72.0885 1.612 71.8025 1.469 71.4298 1.469C71.0745 1.469 70.7885 1.612 70.5718 1.898C70.3638 2.17533 70.2165 2.55667 70.1298 3.042C70.0431 3.52733 69.9998 4.07767 69.9998 4.693C69.9998 5.317 70.0431 5.876 70.1298 6.37C70.2165 6.85533 70.3638 7.23667 70.5718 7.514C70.7885 7.79133 71.0745 7.93 71.4298 7.93Z" fill="black"/>
<path d="M66.1638 9.38566C65.8691 9.38566 65.6134 9.29033 65.3968 9.09966C65.1801 8.90033 65.0718 8.63166 65.0718 8.29366C65.0718 7.95566 65.1801 7.69133 65.3968 7.50066C65.6134 7.30133 65.8691 7.20166 66.1638 7.20166C66.4584 7.20166 66.7141 7.30133 66.9308 7.50066C67.1561 7.69133 67.2688 7.95566 67.2688 8.29366C67.2688 8.63166 67.1561 8.90033 66.9308 9.09966C66.7141 9.29033 66.4584 9.38566 66.1638 9.38566Z" fill="black"/>
<path d="M60.8927 9.399C60.234 9.399 59.6664 9.217 59.1897 8.853C58.7217 8.489 58.3577 7.96033 58.0977 7.267C57.8464 6.565 57.7207 5.707 57.7207 4.693C57.7207 3.68767 57.8507 2.83833 58.1107 2.145C58.3707 1.443 58.7347 0.91 59.2027 0.546C59.6794 0.182 60.2427 0 60.8927 0C61.8894 0 62.665 0.407334 63.2197 1.222C63.783 2.028 64.0647 3.185 64.0647 4.693C64.0647 6.20967 63.783 7.37533 63.2197 8.19C62.665 8.996 61.8894 9.399 60.8927 9.399ZM60.8927 7.93C61.2654 7.93 61.5514 7.79133 61.7507 7.514C61.9587 7.23667 62.106 6.85533 62.1927 6.37C62.2794 5.876 62.3227 5.317 62.3227 4.693C62.3227 4.07767 62.2794 3.52733 62.1927 3.042C62.106 2.55667 61.9587 2.17533 61.7507 1.898C61.5514 1.612 61.2654 1.469 60.8927 1.469C60.5374 1.469 60.2514 1.612 60.0347 1.898C59.8267 2.17533 59.6794 2.55667 59.5927 3.042C59.506 3.52733 59.4627 4.07767 59.4627 4.693C59.4627 5.317 59.506 5.876 59.5927 6.37C59.6794 6.85533 59.8267 7.23667 60.0347 7.514C60.2514 7.79133 60.5374 7.93 60.8927 7.93Z" fill="black"/>
<path d="M55.6267 9.38566C55.332 9.38566 55.0763 9.29033 54.8597 9.09966C54.643 8.90033 54.5347 8.63166 54.5347 8.29366C54.5347 7.95566 54.643 7.69133 54.8597 7.50066C55.0763 7.30133 55.332 7.20166 55.6267 7.20166C55.9213 7.20166 56.177 7.30133 56.3937 7.50066C56.619 7.69133 56.7317 7.95566 56.7317 8.29366C56.7317 8.63166 56.619 8.90033 56.3937 9.09966C56.177 9.29033 55.9213 9.38566 55.6267 9.38566Z" fill="black"/>
<path d="M50.9536 9.21701V7.11101H47.0146V5.88901C47.1966 5.49901 47.4306 5.06134 47.7166 4.57601C48.0026 4.09067 48.3233 3.58801 48.6786 3.06801C49.034 2.54801 49.4066 2.04101 49.7966 1.54701C50.1953 1.05301 50.594 0.606675 50.9926 0.208008H52.6046V5.72001H53.6056V7.11101H52.6046V9.21701H50.9536ZM48.6526 5.72001H50.9536V2.26201C50.7543 2.49601 50.5463 2.75167 50.3296 3.02901C50.1216 3.30634 49.9136 3.59667 49.7056 3.90001C49.4976 4.20334 49.3026 4.50667 49.1206 4.81001C48.9473 5.11334 48.7913 5.41667 48.6526 5.72001Z" fill="black"/>
<path d="M43.0177 9.399C42.359 9.399 41.7914 9.217 41.3147 8.853C40.8467 8.489 40.4827 7.96033 40.2227 7.267C39.9714 6.565 39.8457 5.707 39.8457 4.693C39.8457 3.68767 39.9757 2.83833 40.2357 2.145C40.4957 1.443 40.8597 0.91 41.3277 0.546C41.8044 0.182 42.3677 0 43.0177 0C44.0144 0 44.79 0.407334 45.3447 1.222C45.908 2.028 46.1897 3.185 46.1897 4.693C46.1897 6.20967 45.908 7.37533 45.3447 8.19C44.79 8.996 44.0144 9.399 43.0177 9.399ZM43.0177 7.93C43.3904 7.93 43.6764 7.79133 43.8757 7.514C44.0837 7.23667 44.231 6.85533 44.3177 6.37C44.4044 5.876 44.4477 5.317 44.4477 4.693C44.4477 4.07767 44.4044 3.52733 44.3177 3.042C44.231 2.55667 44.0837 2.17533 43.8757 1.898C43.6764 1.612 43.3904 1.469 43.0177 1.469C42.6624 1.469 42.3764 1.612 42.1597 1.898C41.9517 2.17533 41.8044 2.55667 41.7177 3.042C41.631 3.52733 41.5877 4.07767 41.5877 4.693C41.5877 5.317 41.631 5.876 41.7177 6.37C41.8044 6.85533 41.9517 7.23667 42.1597 7.514C42.3764 7.79133 42.6624 7.93 43.0177 7.93Z" fill="black"/>
<path d="M37.7517 9.38566C37.457 9.38566 37.2013 9.29033 36.9847 9.09966C36.768 8.90033 36.6597 8.63166 36.6597 8.29366C36.6597 7.95566 36.768 7.69133 36.9847 7.50066C37.2013 7.30133 37.457 7.20166 37.7517 7.20166C38.0463 7.20166 38.302 7.30133 38.5187 7.50066C38.744 7.69133 38.8567 7.95566 38.8567 8.29366C38.8567 8.63166 38.744 8.90033 38.5187 9.09966C38.302 9.29033 38.0463 9.38566 37.7517 9.38566Z" fill="black"/>
<path d="M32.6107 9.39858C31.9174 9.39858 31.3281 9.24691 30.8427 8.94358C30.3661 8.63158 30.0021 8.18958 29.7507 7.61758C29.5081 7.03691 29.3867 6.35225 29.3867 5.56358C29.3867 4.68825 29.5167 3.91691 29.7767 3.24958C30.0367 2.58224 30.4051 2.02324 30.8817 1.57258C31.3671 1.11324 31.9521 0.766578 32.6367 0.532578C33.3214 0.289911 34.0971 0.159911 34.9637 0.142578L35.0547 1.53358C34.4481 1.55091 33.8891 1.63758 33.3777 1.79358C32.8751 1.94958 32.4461 2.19224 32.0907 2.52158C31.7354 2.84224 31.4754 3.27558 31.3107 3.82158C31.5101 3.73491 31.7224 3.66991 31.9477 3.62658C32.1817 3.57458 32.4071 3.54858 32.6237 3.54858C33.3517 3.54858 33.9367 3.67858 34.3787 3.93858C34.8207 4.18991 35.1414 4.53224 35.3407 4.96558C35.5401 5.39891 35.6397 5.87124 35.6397 6.38258C35.6397 6.72058 35.5791 7.06724 35.4577 7.42258C35.3364 7.77791 35.1501 8.10725 34.8987 8.41058C34.6561 8.70525 34.3441 8.94358 33.9627 9.12558C33.5814 9.30758 33.1307 9.39858 32.6107 9.39858ZM32.5977 7.98158C32.9184 7.98158 33.1784 7.90358 33.3777 7.74758C33.5771 7.58291 33.7201 7.37925 33.8067 7.13658C33.8934 6.89391 33.9367 6.65125 33.9367 6.40858C33.9367 5.90591 33.8154 5.52891 33.5727 5.27758C33.3387 5.01758 32.9531 4.88758 32.4157 4.88758C32.1817 4.88758 31.9477 4.90925 31.7137 4.95258C31.4797 4.99591 31.2847 5.05658 31.1287 5.13458C31.1287 5.19524 31.1244 5.26458 31.1157 5.34258C31.1157 5.41191 31.1157 5.47691 31.1157 5.53758C31.1157 5.98825 31.1591 6.39991 31.2457 6.77258C31.3324 7.13658 31.4841 7.43124 31.7007 7.65658C31.9174 7.87324 32.2164 7.98158 32.5977 7.98158Z" fill="black"/>
<path d="M22.2438 9.217C22.2351 9.139 22.2308 9.03933 22.2308 8.918C22.2308 8.788 22.2308 8.68833 22.2308 8.619C22.2308 8.06433 22.3478 7.57033 22.5818 7.137C22.8158 6.70367 23.1061 6.305 23.4528 5.941C23.8081 5.577 24.1634 5.22167 24.5188 4.875C24.8048 4.60633 25.0604 4.355 25.2858 4.121C25.5198 3.87833 25.7061 3.64 25.8448 3.406C25.9834 3.172 26.0528 2.92067 26.0528 2.652C26.0528 2.21867 25.9314 1.91533 25.6888 1.742C25.4461 1.56 25.1471 1.469 24.7918 1.469C24.4711 1.469 24.1764 1.52533 23.9078 1.638C23.6478 1.75067 23.4268 1.88067 23.2448 2.028C23.0628 2.17533 22.9328 2.288 22.8548 2.366L22.0098 1.183C22.2264 0.975 22.4778 0.784334 22.7638 0.611C23.0584 0.429 23.3791 0.281667 23.7258 0.169C24.0811 0.0563334 24.4538 0 24.8438 0C25.8664 0 26.6118 0.229667 27.0798 0.689C27.5564 1.13967 27.7948 1.75933 27.7948 2.548C27.7948 2.98133 27.6864 3.39733 27.4698 3.796C27.2531 4.186 26.9758 4.55867 26.6378 4.914C26.3084 5.26067 25.9704 5.59867 25.6238 5.928C25.4331 6.11 25.2251 6.318 24.9998 6.552C24.7744 6.786 24.5751 7.01567 24.4018 7.241C24.2371 7.45767 24.1418 7.63967 24.1158 7.787H28.0678V9.217H22.2438Z" fill="black"/>
<path d="M17.8048 9.399C17.1461 9.399 16.5785 9.217 16.1018 8.853C15.6338 8.489 15.2698 7.96033 15.0098 7.267C14.7585 6.565 14.6328 5.707 14.6328 4.693C14.6328 3.68767 14.7628 2.83833 15.0228 2.145C15.2828 1.443 15.6468 0.91 16.1148 0.546C16.5915 0.182 17.1548 0 17.8048 0C18.8015 0 19.5771 0.407334 20.1318 1.222C20.6951 2.028 20.9768 3.185 20.9768 4.693C20.9768 6.20967 20.6951 7.37533 20.1318 8.19C19.5771 8.996 18.8015 9.399 17.8048 9.399ZM17.8048 7.93C18.1775 7.93 18.4635 7.79133 18.6628 7.514C18.8708 7.23667 19.0181 6.85533 19.1048 6.37C19.1915 5.876 19.2348 5.317 19.2348 4.693C19.2348 4.07767 19.1915 3.52733 19.1048 3.042C19.0181 2.55667 18.8708 2.17533 18.6628 1.898C18.4635 1.612 18.1775 1.469 17.8048 1.469C17.4495 1.469 17.1635 1.612 16.9468 1.898C16.7388 2.17533 16.5915 2.55667 16.5048 3.042C16.4181 3.52733 16.3748 4.07767 16.3748 4.693C16.3748 5.317 16.4181 5.876 16.5048 6.37C16.5915 6.85533 16.7388 7.23667 16.9468 7.514C17.1635 7.79133 17.4495 7.93 17.8048 7.93Z" fill="black"/>
<path d="M7.56798 9.217C7.55932 9.139 7.55498 9.03933 7.55498 8.918C7.55498 8.788 7.55498 8.68833 7.55498 8.619C7.55498 8.06433 7.67198 7.57033 7.90598 7.137C8.13998 6.70367 8.43032 6.305 8.77698 5.941C9.13232 5.577 9.48765 5.22167 9.84298 4.875C10.129 4.60633 10.3847 4.355 10.61 4.121C10.844 3.87833 11.0303 3.64 11.169 3.406C11.3077 3.172 11.377 2.92067 11.377 2.652C11.377 2.21867 11.2557 1.91533 11.013 1.742C10.7703 1.56 10.4713 1.469 10.116 1.469C9.79532 1.469 9.50065 1.52533 9.23198 1.638C8.97198 1.75067 8.75098 1.88067 8.56898 2.028C8.38698 2.17533 8.25698 2.288 8.17898 2.366L7.33398 1.183C7.55065 0.975 7.80198 0.784334 8.08798 0.611C8.38265 0.429 8.70332 0.281667 9.04998 0.169C9.40532 0.0563334 9.77798 0 10.168 0C11.1907 0 11.936 0.229667 12.404 0.689C12.8807 1.13967 13.119 1.75933 13.119 2.548C13.119 2.98133 13.0107 3.39733 12.794 3.796C12.5773 4.186 12.3 4.55867 11.962 4.914C11.6327 5.26067 11.2947 5.59867 10.948 5.928C10.7573 6.11 10.5493 6.318 10.324 6.552C10.0987 6.786 9.89932 7.01567 9.72598 7.241C9.56132 7.45767 9.46598 7.63967 9.43998 7.787H13.392V9.217H7.56798Z" fill="black"/>
<path d="M2.6 9.21679C2.38333 8.77479 2.158 8.29812 1.924 7.78679C1.69867 7.27545 1.47767 6.73379 1.261 6.16179C1.04433 5.58112 0.827667 4.97879 0.611 4.35479C0.403 3.72212 0.199333 3.07212 0 2.40479H1.807C1.92833 2.89012 2.07133 3.42312 2.236 4.00379C2.40933 4.58445 2.59133 5.15645 2.782 5.71979C2.98133 6.27445 3.16767 6.76845 3.341 7.20179C3.471 6.88112 3.60533 6.52145 3.744 6.12279C3.89133 5.71545 4.03433 5.29945 4.173 4.87479C4.31167 4.44145 4.44167 4.01245 4.563 3.58779C4.693 3.16312 4.80133 2.76879 4.888 2.40479H6.63C6.43933 3.07212 6.23567 3.72212 6.019 4.35479C5.811 4.97879 5.59433 5.58112 5.369 6.16179C5.15233 6.73379 4.93133 7.27545 4.706 7.78679C4.48933 8.29812 4.26833 8.77479 4.043 9.21679H2.6Z" fill="black"/>
</svg>
