<svg width="95" height="95" viewBox="0 0 95 95" fill="none" xmlns="http://www.w3.org/2000/svg">
<g clip-path="url(#clip0_1966_39)">
<circle cx="47.5" cy="47.5" r="47.5" fill="url(#paint0_radial_1966_39)"/>
<line y1="-0.379998" x2="5.20442" y2="-0.379998" transform="matrix(-0.672505 0.740093 -0.672505 -0.740093 10.5001 65.5176)" stroke="black" stroke-width="0.759996"/>
<line y1="-0.379998" x2="5.20442" y2="-0.379998" transform="matrix(-0.672505 0.740093 -0.672505 -0.740093 73.4999 65.5176)" stroke="black" stroke-width="0.759996"/>
<line y1="-0.379998" x2="5.20442" y2="-0.379998" transform="matrix(-0.672505 0.740093 -0.672505 -0.740093 14 65.5176)" stroke="black" stroke-width="0.759996"/>
<line y1="-0.379998" x2="5.20442" y2="-0.379998" transform="matrix(-0.672505 0.740093 -0.672505 -0.740093 77 65.5176)" stroke="black" stroke-width="0.759996"/>
<line y1="-0.379998" x2="5.20442" y2="-0.379998" transform="matrix(-0.672505 0.740093 -0.672505 -0.740093 17.5001 65.5176)" stroke="black" stroke-width="0.759996"/>
<line y1="-0.379998" x2="5.20442" y2="-0.379998" transform="matrix(-0.672505 0.740093 -0.672505 -0.740093 80.5 65.5176)" stroke="black" stroke-width="0.759996"/>
<line y1="-0.379998" x2="5.20442" y2="-0.379998" transform="matrix(-0.672505 0.740093 -0.672505 -0.740093 21 65.5176)" stroke="black" stroke-width="0.759996"/>
<line y1="-0.379998" x2="5.20442" y2="-0.379998" transform="matrix(-0.672505 0.740093 -0.672505 -0.740093 84 65.5176)" stroke="black" stroke-width="0.759996"/>
<line y1="-1.51999" x2="32.5539" y2="-1.51999" transform="matrix(0.322542 -0.946555 0.924377 0.38148 17.5001 65.5176)" stroke="#8A8A8A" stroke-width="3.03998"/>
<line y1="-1.51999" x2="32.5539" y2="-1.51999" transform="matrix(0.322542 -0.946555 0.924377 0.38148 80.5 65.5176)" stroke="#8A8A8A" stroke-width="3.03998"/>
<line x1="25.1998" y1="33.1836" x2="90.9998" y2="33.1836" stroke="#8A8A8A" stroke-width="3.03998"/>
<line x1="10.5001" y1="63.9976" x2="21.0001" y2="63.9976" stroke="black" stroke-width="3.03998"/>
<line x1="73.4999" y1="63.9976" x2="83.9999" y2="63.9976" stroke="black" stroke-width="3.03998"/>
<line x1="15.9801" y1="65.5176" x2="15.9801" y2="27" stroke="black" stroke-width="3.03998"/>
<line x1="78.98" y1="65.5176" x2="78.98" y2="27" stroke="black" stroke-width="3.03998"/>
<line x1="14.6998" y1="25.48" x2="80.4998" y2="25.48" stroke="black" stroke-width="3.03998"/>
</g>
<defs>
<radialGradient id="paint0_radial_1966_39" cx="0" cy="0" r="1" gradientUnits="userSpaceOnUse" gradientTransform="translate(47.5 47.5) rotate(90) scale(47.5)">
<stop offset="0.466346" stop-color="white"/>
<stop offset="1" stop-color="white" stop-opacity="0.5"/>
</radialGradient>
<clipPath id="clip0_1966_39">
<rect width="95" height="95" fill="white"/>
</clipPath>
</defs>
</svg>
