<svg width="25" height="25" viewBox="0 0 25 25" fill="none" xmlns="http://www.w3.org/2000/svg">
<path d="M14.082 5.12175C14.547 5.10151 14.9362 5.1675 15.3799 5.30502C15.4454 5.32449 15.5108 5.34386 15.5763 5.36315C15.7172 5.40487 15.8579 5.44719 15.9985 5.49002C16.2249 5.55896 16.4516 5.62651 16.6784 5.69387C16.9666 5.77958 17.2548 5.86563 17.5428 5.95206C18.4102 6.21229 19.2794 6.46641 20.1484 6.72095C20.4876 6.82029 20.8267 6.91988 21.1657 7.0196C21.3033 7.06004 21.4409 7.10048 21.5785 7.14092C21.6672 7.16701 21.756 7.19313 21.8447 7.21925C22.2737 7.34553 22.7028 7.47104 23.1336 7.59105C23.1662 7.60018 23.1988 7.6093 23.2324 7.61871C23.3803 7.66009 23.5283 7.70108 23.6766 7.74125C23.7267 7.75518 23.7768 7.76911 23.8284 7.78347C23.8712 7.79512 23.914 7.80678 23.9581 7.81878C24.0904 7.86823 24.1673 7.90727 24.2676 8.00793C24.2874 8.1584 24.2874 8.1584 24.2811 8.34597C24.2803 8.38035 24.2795 8.41474 24.2786 8.45016C24.2767 8.52462 24.2743 8.59906 24.2716 8.67349C24.2676 8.78803 24.2651 8.90249 24.2631 9.01707C24.2585 9.27038 24.2523 9.52364 24.246 9.77692C24.2436 9.87358 24.2413 9.97024 24.239 10.0669C24.2327 10.3271 24.2263 10.5872 24.2199 10.8474C24.2145 11.0655 24.2092 11.2835 24.2039 11.5016C24.1913 12.0162 24.1787 12.5308 24.166 13.0455C24.1529 13.5748 24.14 14.1041 24.1272 14.6334C24.1161 15.0896 24.105 15.5459 24.0937 16.0021C24.087 16.2738 24.0804 16.5455 24.0738 16.8172C24.0677 17.0727 24.0614 17.3281 24.0549 17.5836C24.0526 17.6768 24.0504 17.7701 24.0482 17.8634C24.0424 18.1069 24.0356 18.3503 24.0269 18.5937C24.0246 18.6647 24.0228 18.7357 24.0214 18.8068C24.0195 18.9028 24.0161 18.9989 24.0125 19.0949C24.0111 19.1478 24.0097 19.2008 24.0082 19.2553C23.9746 19.3849 23.9746 19.3849 23.857 19.4754C23.6724 19.5571 23.5398 19.5415 23.3399 19.5314C23.3312 17.5013 23.3498 15.4718 23.3731 13.4418C23.3775 13.0463 23.3811 12.6508 23.3843 12.2552C23.3869 11.957 23.3911 11.6588 23.3963 11.3606C23.3995 11.1653 23.4017 10.9699 23.4037 10.7745C23.4049 10.6827 23.4065 10.5909 23.4085 10.4991C23.4113 10.3729 23.4125 10.2468 23.4134 10.1206C23.4146 10.0838 23.4157 10.047 23.417 10.0091C23.4165 9.72762 23.3348 9.61538 23.1445 9.42394C22.9124 9.51881 22.7446 9.69679 22.5691 9.87022C22.3763 10.0596 22.1793 10.2373 21.9684 10.4059C21.3961 10.8684 20.8127 11.3494 20.7169 12.1162C20.6814 12.5291 20.6977 12.9431 20.7163 13.3565C20.7251 13.589 20.7257 13.8215 20.7269 14.0541C20.7289 14.3537 20.7317 14.6532 20.7377 14.9528C20.7537 15.7472 20.7473 16.5399 20.7308 17.3343C20.7289 17.4238 20.7289 17.4238 20.7271 17.5151C20.722 17.7555 20.7169 17.996 20.7116 18.2364C20.7002 18.7498 20.6911 19.2631 20.6825 19.7765C20.6789 19.9898 20.6751 20.2031 20.671 20.4164C20.662 20.8797 20.6537 21.343 20.6504 21.8064C20.6488 22.0041 20.6464 22.2017 20.6438 22.3994C20.6428 22.4918 20.6422 22.5841 20.6421 22.6765C20.642 22.8025 20.6404 22.9284 20.6384 23.0544C20.6387 23.0914 20.6391 23.1284 20.6394 23.1665C20.6354 23.333 20.6272 23.4164 20.5058 23.5348C20.3721 23.5804 20.2948 23.5895 20.157 23.5872C20.0955 23.5862 20.0341 23.5851 19.9707 23.5841C19.971 23.5311 19.9712 23.4781 19.9715 23.4234C19.9773 22.1319 19.98 20.8404 19.9794 19.5489C19.9793 18.9243 19.9801 18.2997 19.9833 17.6751C19.986 17.1306 19.9869 16.586 19.9856 16.0415C19.9849 15.7533 19.9852 15.4651 19.9877 15.1769C19.9901 14.9053 19.9899 14.6338 19.9878 14.3621C19.9875 14.2628 19.9881 14.1634 19.9897 14.0641C19.997 13.5772 19.9987 13.1943 19.6614 12.8174C19.5715 12.7251 19.4786 12.6374 19.3848 12.5489C19.1895 12.3234 19.1895 12.3234 19.1895 12.2071C19.1563 12.2078 19.1232 12.2086 19.0891 12.2093C18.775 12.2131 18.4755 12.1927 18.1651 12.1464C18.096 12.1366 18.096 12.1366 18.0255 12.1266C17.872 12.1047 17.7187 12.0823 17.5654 12.0599C17.4539 12.0439 17.3425 12.028 17.231 12.012C16.9901 11.9776 16.7493 11.9429 16.5085 11.9081C16.1247 11.8525 15.7408 11.7975 15.3568 11.7426C15.3241 11.7379 15.2914 11.7333 15.2577 11.7285C15.0892 11.7044 14.9208 11.6803 14.7523 11.6563C14.6137 11.6365 14.475 11.6166 14.3364 11.5968C12.6081 11.3496 10.8787 11.1095 9.14925 10.8699C8.91045 10.8368 8.67165 10.8037 8.43285 10.7706C7.54249 10.6471 6.65212 10.5237 5.76173 10.4005C5.77784 10.4327 5.79396 10.465 5.81056 10.4982C5.81789 10.5682 5.8225 10.6385 5.8257 10.7088C5.82782 10.753 5.82994 10.7973 5.83213 10.8429C5.83423 10.8916 5.83634 10.9403 5.83851 10.9905C5.8409 11.0417 5.84329 11.093 5.84575 11.1458C5.85363 11.3162 5.86119 11.4867 5.86873 11.6573C5.87412 11.7762 5.87953 11.8951 5.88494 12.014C5.89629 12.2643 5.90747 12.5146 5.91855 12.7648C5.93263 13.0829 5.94712 13.4009 5.96173 13.7189C5.973 13.9652 5.98405 14.2115 5.99503 14.4578C6.00028 14.5748 6.00559 14.6919 6.01098 14.8089C6.02563 15.1288 6.03897 15.4486 6.04964 15.7687C6.05303 15.8688 6.05675 15.9689 6.06078 16.069C6.06622 16.2112 6.06996 16.3534 6.07319 16.4957C6.07504 16.5376 6.07689 16.5795 6.0788 16.6228C6.08163 16.8368 6.07744 16.9155 5.93757 17.0874C5.89566 17.1205 5.85374 17.1536 5.81056 17.1876C5.77833 17.2198 5.7461 17.2521 5.7129 17.2853C5.54172 17.2676 5.40748 17.1951 5.27345 17.09C5.24506 16.9646 5.23492 16.8691 5.23339 16.7426C5.23197 16.7055 5.23054 16.6683 5.22907 16.63C5.22443 16.5016 5.2215 16.3731 5.21852 16.2446C5.21549 16.1516 5.21234 16.0587 5.2091 15.9657C5.20158 15.7448 5.19481 15.5239 5.18838 15.3029C5.17528 14.8584 5.159 14.4139 5.1428 13.9694C5.11535 13.2155 5.08824 12.4617 5.06239 11.7077C5.05944 11.622 5.05647 11.5364 5.05347 11.4507C5.0493 11.3318 5.04524 11.2129 5.0412 11.094C5.03999 11.0597 5.03877 11.0255 5.03752 10.9902C5.02934 10.7447 5.02837 10.4997 5.02931 10.254C4.99278 10.2523 4.95625 10.2505 4.91861 10.2487C4.30512 10.2125 3.70011 10.1193 3.09237 10.031C2.94905 10.0103 2.80568 9.99004 2.66229 9.96982C2.61845 9.96332 2.5746 9.95681 2.52943 9.95011C2.48864 9.94439 2.44785 9.93868 2.40582 9.9328C2.37015 9.92763 2.33448 9.92247 2.29773 9.91714C2.15181 9.90999 2.04168 9.92564 1.93126 10.0241C1.91009 10.0501 1.88892 10.0761 1.86711 10.103C1.84373 10.1312 1.82035 10.1595 1.79626 10.1886C1.77249 10.2182 1.74873 10.2479 1.72425 10.2784C1.67625 10.3369 1.62825 10.3954 1.58025 10.4539C1.54217 10.5007 1.50409 10.5476 1.46485 10.5958C1.44874 10.6119 1.43263 10.628 1.41603 10.6446C1.41007 10.797 1.40788 10.9479 1.4083 11.1003C1.4084 11.1498 1.4085 11.1993 1.4086 11.2504C1.41357 11.9639 1.45119 12.6765 1.48504 13.3891C1.49484 13.5967 1.5043 13.8043 1.51378 14.0119C1.53582 14.4929 1.55823 14.974 1.58069 15.4551C1.60931 16.068 1.63781 16.681 1.66587 17.294C1.67528 17.4995 1.68479 17.705 1.69452 17.9104C1.71777 18.4019 1.73946 18.8933 1.75782 19.3849C1.75989 19.4375 1.76196 19.4902 1.76409 19.5444C1.76883 19.6769 1.77217 19.8093 1.7747 19.9418C1.77606 19.9776 1.77741 20.0133 1.77881 20.0502C1.78005 20.2199 1.76347 20.3044 1.66598 20.4458C1.57041 20.5342 1.48359 20.597 1.3672 20.6544C1.0315 20.5201 1.0315 20.5201 0.976573 20.4103C0.91553 19.8686 0.909775 19.3186 0.890825 18.7741C0.887461 18.6801 0.884086 18.586 0.880701 18.4919C0.871608 18.2381 0.862672 17.9844 0.853775 17.7306C0.846297 17.5177 0.838745 17.3048 0.831195 17.0919C0.813359 16.5888 0.795654 16.0857 0.778029 15.5827C0.759941 15.0664 0.741622 14.5501 0.723192 14.0338C0.707296 13.5883 0.691549 13.1428 0.675916 12.6973C0.666614 12.4322 0.657257 12.1671 0.647755 11.9021C0.638807 11.6523 0.630047 11.4025 0.621421 11.1528C0.618258 11.062 0.615034 10.9713 0.611737 10.8806C0.602767 10.6332 0.595508 10.3859 0.589791 10.1384C0.585616 9.99879 0.57871 9.8594 0.57189 9.71986C0.568638 9.62317 0.565461 9.52647 0.562362 9.42977C0.558176 9.36268 0.558177 9.36268 0.553907 9.29424C0.546953 8.98686 0.546953 8.98686 0.660564 8.83768C0.813501 8.69643 0.976901 8.5819 1.16278 8.48753C1.43697 8.34116 1.69069 8.17012 1.94818 7.99648C2.04083 7.93547 2.13359 7.87463 2.22646 7.81395C2.27285 7.7836 2.31925 7.75326 2.36705 7.72199C2.41375 7.69147 2.46044 7.66095 2.50855 7.62951C3.2619 7.14015 3.2619 7.14015 3.99428 6.62042C4.0972 6.54623 4.20168 6.47991 4.31081 6.41529C4.34168 6.39672 4.37256 6.37815 4.40436 6.35902C4.46606 6.32238 4.52841 6.2868 4.59128 6.25221C4.73687 6.16241 4.81965 6.1027 4.87009 5.93424C4.8774 5.89056 4.88472 5.84687 4.89225 5.80186C4.90381 5.73579 4.90381 5.73579 4.91559 5.66838C4.92354 5.61796 4.92354 5.61796 4.93165 5.56652C6.83997 5.46369 8.74856 5.3685 10.6575 5.279C10.9378 5.26585 11.2181 5.2525 11.4983 5.23912C11.7748 5.22593 12.0512 5.21288 12.3277 5.19993C12.4901 5.19231 12.6526 5.18463 12.815 5.17684C13.1527 5.16069 13.4904 5.14536 13.8282 5.13237C13.9128 5.12909 13.9974 5.12559 14.082 5.12175ZM14.063 5.23922C14.0292 5.24078 13.9954 5.24234 13.9606 5.24395C13.8477 5.24918 13.7348 5.25449 13.6219 5.25981C13.5408 5.26358 13.4597 5.26735 13.3786 5.27111C13.1582 5.28136 12.9378 5.29167 12.7174 5.30199C12.4859 5.31283 12.2544 5.3236 12.0229 5.33438C11.6333 5.35253 11.2436 5.37071 10.854 5.38893C10.3079 5.41447 9.76176 5.43994 9.21563 5.46539C7.09801 5.56381 7.09801 5.56381 4.98048 5.66417C4.98048 5.76085 4.98048 5.85753 4.98048 5.95714C5.0117 5.94002 5.04292 5.9229 5.07508 5.90526C5.28043 5.8424 5.45483 5.87458 5.66407 5.90832C5.68019 6.02111 5.6963 6.1339 5.7129 6.25011C5.66456 6.26623 5.61622 6.28234 5.56642 6.29894C5.70521 6.37573 5.70521 6.37573 5.85938 6.3966C5.80674 6.45886 5.75378 6.52086 5.70069 6.58275C5.67124 6.61731 5.64178 6.65187 5.61143 6.68747C5.52131 6.78326 5.42972 6.85835 5.32228 6.93371C5.32228 6.78869 5.32228 6.64367 5.32228 6.49425C5.2256 6.54259 5.12892 6.59093 5.02931 6.64074C5.02143 7.29308 5.04566 7.94237 5.07813 8.59386C5.1587 8.59386 5.23927 8.59386 5.32228 8.59386C5.32228 8.12658 5.32228 7.65929 5.32228 7.17785C5.3545 7.17785 5.38673 7.17785 5.41993 7.17785C5.41968 7.20513 5.41942 7.23241 5.41916 7.26052C5.41813 7.38657 5.4175 7.51261 5.41688 7.63866C5.41647 7.68156 5.41606 7.72445 5.41564 7.76865C5.41461 8.04786 5.43298 8.31691 5.46876 8.59386C5.50099 8.59386 5.53321 8.59386 5.56642 8.59386C5.56527 8.54031 5.56527 8.54031 5.56409 8.48568C5.56104 8.32338 5.55914 8.16109 5.55726 7.99877C5.55542 7.91451 5.55542 7.91451 5.55354 7.82854C5.55307 7.77425 5.5526 7.71996 5.55211 7.66403C5.55096 7.58924 5.55096 7.58924 5.54979 7.51293C5.57657 7.28781 5.69826 7.13613 5.8447 6.96976C5.86846 6.94234 5.89222 6.91493 5.9167 6.88669C5.96651 6.82994 6.01635 6.77323 6.06624 6.71655C6.20413 6.57687 6.20413 6.57687 6.25001 6.3966C6.30301 6.40761 6.35601 6.41863 6.41061 6.42998C6.78904 6.51479 6.78904 6.51479 7.14837 6.42807C7.24995 6.30791 7.32423 6.21542 7.32423 6.0548C7.54333 6.24345 7.75766 6.43312 7.95899 6.64074C8.00733 6.62462 8.05567 6.60851 8.10548 6.59191C8.08137 6.56541 8.05726 6.53891 8.03243 6.51161C8.00114 6.47668 7.96986 6.44174 7.93763 6.40575C7.90648 6.3712 7.87532 6.33664 7.84322 6.30104C7.76368 6.20128 7.76368 6.20128 7.71485 6.0548C8.08546 6.0548 8.45606 6.0548 8.8379 6.0548C8.54493 6.3966 8.54493 6.3966 8.42896 6.50951C8.33833 6.58457 8.33833 6.58457 8.34962 6.68957C8.41407 6.68957 8.47853 6.68957 8.54493 6.68957C8.54493 6.65734 8.54493 6.62511 8.54493 6.59191C8.57187 6.58045 8.59881 6.569 8.62657 6.5572C8.76921 6.47821 8.87676 6.3788 8.99659 6.26842C9.06193 6.20856 9.06193 6.20856 9.12858 6.1475C9.16156 6.11691 9.19454 6.08632 9.22853 6.0548C9.39609 6.14761 9.51792 6.2374 9.64051 6.38439C9.6701 6.41844 9.69968 6.45249 9.73016 6.48758C9.81446 6.59191 9.81446 6.59191 9.87741 6.69166C9.99171 6.86172 10.0662 6.92336 10.2692 6.97433C10.4532 6.99485 10.6077 7.01084 10.791 6.98253C10.92 6.88135 10.92 6.88135 11.0352 6.73839C11.0891 6.68249 11.1435 6.627 11.1982 6.57188C11.2413 6.52812 11.2413 6.52812 11.2853 6.48348C11.3146 6.4538 11.3438 6.42412 11.3739 6.39355C11.403 6.36368 11.432 6.33381 11.4619 6.30304C11.6341 6.12895 11.8028 5.98742 12.0117 5.85949C12.1513 5.99762 12.2906 6.13605 12.4298 6.27453C12.4884 6.3325 12.4884 6.3325 12.5482 6.39164C13.2509 7.09146 13.2509 7.09146 13.3301 7.37316C13.4268 7.37316 13.5234 7.37316 13.6231 7.37316C13.4378 7.10647 13.2321 6.87867 12.9999 6.65199C12.8405 6.49307 12.6942 6.32419 12.5488 6.15246C12.5115 6.10903 12.5115 6.10903 12.4735 6.06472C12.3047 5.86613 12.3047 5.86613 12.3047 5.81066C13.2957 5.76232 13.2957 5.76232 14.3067 5.713C14.3067 6.29308 14.3067 6.87316 14.3067 7.47082C14.3872 7.48693 14.4678 7.50304 14.5508 7.51964C14.5347 6.92345 14.5186 6.32726 14.502 5.713C15.4929 6.05138 15.4929 6.05138 16.5039 6.3966C16.4514 6.55404 16.4221 6.58374 16.2994 6.68651C16.2648 6.71591 16.2302 6.7453 16.1945 6.77559C16.1516 6.81165 16.1087 6.84772 16.0645 6.88488C15.9761 6.96011 15.8879 7.03553 15.7998 7.11101C15.7389 7.16307 15.678 7.21504 15.6171 7.26691C15.5887 7.29114 15.5602 7.31538 15.531 7.34035C15.5056 7.36196 15.4802 7.38356 15.4541 7.40582C15.3778 7.47357 15.3058 7.54449 15.2344 7.6173C15.3794 7.64147 15.3794 7.64147 15.5274 7.66613C15.5465 7.63006 15.5656 7.594 15.5853 7.55684C15.6821 7.4094 15.7789 7.32525 15.918 7.21752C16.07 7.09795 16.2181 6.97837 16.3571 6.84387C16.3807 6.82119 16.4043 6.79851 16.4286 6.77515C16.4947 6.71087 16.5602 6.64587 16.6256 6.58085C16.7481 6.49425 16.7481 6.49425 16.8736 6.49101C17.0271 6.55842 17.0872 6.63773 17.1875 6.77196C17.3956 7.03999 17.6193 7.2862 17.8544 7.53074C18.0963 7.78567 18.0963 7.78567 18.1641 7.9591C18.0835 7.9591 18.0029 7.9591 17.9199 7.9591C17.9199 7.97521 17.9199 7.99132 17.9199 8.00793C18.0287 8.02442 18.1376 8.04064 18.2465 8.05675C18.3071 8.06582 18.3677 8.07488 18.4301 8.08422C18.6389 8.11192 18.6389 8.11192 18.8477 8.10558C18.9226 8.04587 18.9226 8.04587 18.9789 7.9591C19.1615 7.72661 19.3826 7.53639 19.6289 7.37316C19.7754 7.37316 19.7754 7.37316 19.8525 7.44488C19.8794 7.47761 19.9063 7.51034 19.9341 7.54406C19.9637 7.57943 19.9933 7.61481 20.0237 7.65125C20.0546 7.68839 20.0854 7.72552 20.1172 7.76378C20.1801 7.83514 20.2432 7.90636 20.3064 7.97741C20.3876 8.06885 20.4531 8.14271 20.5078 8.25207C20.3467 8.25207 20.1856 8.25207 20.0195 8.25207C20.0195 8.26818 20.0195 8.28429 20.0195 8.30089C20.0494 8.30496 20.0792 8.30902 20.1099 8.31321C20.4213 8.3557 20.7326 8.39853 21.0438 8.44156C21.1599 8.45756 21.276 8.47347 21.3921 8.48929C21.5593 8.51209 21.7264 8.53521 21.8935 8.55839C21.9452 8.56536 21.9968 8.57233 22.05 8.57951C22.3089 8.61574 22.5538 8.66027 22.8027 8.74035C22.8446 8.69622 22.8865 8.6521 22.9296 8.60664C22.986 8.54844 23.0423 8.49027 23.0988 8.43212C23.1399 8.38855 23.1399 8.38855 23.1818 8.3441C23.3683 8.15335 23.5273 8.04801 23.7793 7.9591C23.605 7.86223 23.4213 7.80793 23.2309 7.75241C23.1953 7.74187 23.1597 7.73134 23.1231 7.72048C23.004 7.68527 22.8849 7.65033 22.7657 7.61539C22.6806 7.59027 22.5954 7.56513 22.5102 7.53998C22.2795 7.47189 22.0487 7.40403 21.8178 7.33621C21.6254 7.27964 21.433 7.22293 21.2406 7.16622C19.7178 6.71736 18.1942 6.27096 16.6702 5.82611C16.5081 5.77879 16.346 5.73144 16.1839 5.68409C16.0746 5.65216 15.9652 5.62028 15.8558 5.58841C15.7888 5.56882 15.7217 5.54923 15.6546 5.52964C15.6229 5.52041 15.5912 5.51118 15.5586 5.50167C15.2987 5.42561 15.0408 5.34363 14.7835 5.25933C14.5467 5.19863 14.3057 5.2279 14.063 5.23922ZM13.1226 5.83507C13.0602 5.83857 13.0602 5.83857 12.9965 5.84213C12.8961 5.84777 12.7957 5.85361 12.6953 5.85949C12.8997 6.10054 13.1088 6.33566 13.3243 6.56688C13.4862 6.74144 13.6364 6.92166 13.7779 7.113C13.8949 7.21133 13.8949 7.21133 14.209 7.17785C14.209 6.72668 14.209 6.2755 14.209 5.81066C13.8442 5.81066 13.4858 5.81357 13.1226 5.83507ZM14.5996 5.85949C14.5996 6.19787 14.5996 6.53625 14.5996 6.88488C14.6157 6.88488 14.6318 6.88488 14.6484 6.88488C14.6484 6.5465 14.6484 6.20812 14.6484 5.85949C14.6323 5.85949 14.6162 5.85949 14.5996 5.85949ZM5.13307 5.97851C4.98472 6.1574 5.01033 6.26658 5.02931 6.49425C5.25739 6.41823 5.42418 6.29482 5.61524 6.15246C5.59913 6.088 5.58302 6.02355 5.56642 5.95714C5.38609 5.90682 5.30324 5.89342 5.13307 5.97851ZM12.5 5.90832C12.5322 5.94054 12.5645 5.97277 12.5977 6.00597C12.5977 5.97375 12.5977 5.94152 12.5977 5.90832C12.5654 5.90832 12.5332 5.90832 12.5 5.90832ZM14.7949 5.90832C14.7949 6.35949 14.7949 6.81066 14.7949 7.2755C15.1726 7.36808 15.1726 7.36808 15.5265 7.2632C15.6256 7.17788 15.7171 7.08859 15.8081 6.99474C15.8397 6.96377 15.8712 6.93281 15.9037 6.9009C15.9908 6.81506 16.0766 6.72814 16.1621 6.64074C16.2272 6.57563 16.2923 6.51053 16.3574 6.44543C16.0106 6.30054 15.6603 6.17863 15.3015 6.06701C15.1343 6.01464 14.9672 5.96227 14.7949 5.90832ZM11.9629 5.95714C11.924 5.99661 11.8851 6.03607 11.845 6.07673C11.7928 6.12945 11.7405 6.18215 11.6882 6.23485C11.6628 6.26075 11.6373 6.28666 11.611 6.31334C11.4823 6.4428 11.3524 6.56584 11.211 6.68136C11.1691 6.7163 11.1272 6.75123 11.084 6.78722C11.084 6.80334 11.084 6.81945 11.084 6.83605C12.0508 6.9569 12.0508 6.9569 13.0371 7.08019C12.8515 6.86366 12.6739 6.66253 12.4725 6.46374C12.4282 6.4198 12.3838 6.37587 12.3381 6.3306C12.2948 6.28793 12.2516 6.24525 12.207 6.20128C12.1255 6.12003 12.0442 6.0386 11.9629 5.95714ZM7.86134 6.15246C7.90775 6.21784 7.95463 6.28288 8.00172 6.34777C8.02778 6.38402 8.05384 6.42028 8.08068 6.45763C8.10498 6.48583 8.12927 6.51403 8.15431 6.54308C8.18653 6.54308 8.21876 6.54308 8.25196 6.54308C8.22283 6.37995 8.17234 6.27243 8.05665 6.15246C7.9922 6.15246 7.92774 6.15246 7.86134 6.15246ZM8.20313 6.15246C8.25147 6.23302 8.29981 6.31359 8.34962 6.3966C8.43019 6.31603 8.51075 6.23546 8.59376 6.15246C8.46485 6.15246 8.33595 6.15246 8.20313 6.15246ZM9.15414 6.22379C9.09412 6.28584 9.0341 6.34789 8.97409 6.40995C8.88673 6.49425 8.88673 6.49425 8.74024 6.59191C8.74024 6.62414 8.74024 6.65636 8.74024 6.68957C8.85516 6.70613 8.97011 6.72235 9.08509 6.73839C9.1332 6.74538 9.1332 6.74538 9.18227 6.75251C9.39461 6.7818 9.60027 6.79168 9.81446 6.78722C9.68695 6.5322 9.48681 6.34172 9.27735 6.15246C9.21722 6.14682 9.21722 6.14682 9.15414 6.22379ZM4.62953 6.35235C4.12696 6.72116 3.59893 7.05387 3.07737 7.39493C2.38617 7.84517 2.38617 7.84517 1.71383 8.32276C1.52643 8.46134 1.33013 8.58579 1.13469 8.71269C1.08059 8.75055 1.08059 8.75055 1.0254 8.78918C1.0254 8.80529 1.0254 8.8214 1.0254 8.838C1.63844 8.87588 1.96094 8.69689 2.43498 8.33084C2.61337 8.19584 2.79931 8.0721 2.98463 7.94689C3.06235 7.89378 3.14004 7.84063 3.21771 7.78744C3.39585 7.66568 3.57415 7.54416 3.75253 7.42275C3.80048 7.3901 3.84844 7.35745 3.89784 7.32381C3.9906 7.26067 4.08337 7.19757 4.17617 7.1345C4.26001 7.07744 4.34367 7.02013 4.42714 6.96254C4.49975 6.91303 4.5731 6.86459 4.64737 6.81761C4.82699 6.70498 4.82699 6.70498 4.9162 6.52077C4.91224 6.48281 4.90827 6.44486 4.90418 6.40575C4.9011 6.36717 4.89802 6.32858 4.89484 6.28883C4.89087 6.25994 4.88691 6.23105 4.88282 6.20128C4.78741 6.20128 4.70148 6.29807 4.62953 6.35235ZM7.29676 6.26842C7.21579 6.3423 7.21579 6.3423 7.22657 6.44543C7.35548 6.46154 7.48438 6.47765 7.6172 6.49425C7.55352 6.39566 7.48838 6.298 7.42188 6.20128C7.36223 6.19591 7.36223 6.19591 7.29676 6.26842ZM12.793 6.20128C12.8605 6.35804 12.9358 6.44784 13.0676 6.55529C13.0985 6.58072 13.1293 6.60615 13.1611 6.63235C13.1846 6.65123 13.2082 6.67011 13.2324 6.68957C13.165 6.53281 13.0896 6.44301 12.9578 6.33556C12.9269 6.31013 12.8961 6.2847 12.8643 6.2585C12.8408 6.23962 12.8172 6.22074 12.793 6.20128ZM5.41993 6.3966C5.41993 6.50939 5.41993 6.62218 5.41993 6.73839C5.43605 6.73839 5.45216 6.73839 5.46876 6.73839C5.46876 6.6256 5.46876 6.51281 5.46876 6.3966C5.45265 6.3966 5.43653 6.3966 5.41993 6.3966ZM6.34767 6.49425C6.25946 6.59383 6.17343 6.69425 6.08827 6.79638C6.06451 6.82461 6.04075 6.85284 6.01626 6.88192C5.96919 6.93799 5.92252 6.99441 5.87628 7.05118C5.81056 7.12902 5.81056 7.12902 5.69497 7.24289C5.57442 7.43986 5.60396 7.61269 5.6244 7.83703C5.6272 7.87813 5.63 7.91923 5.63289 7.96158C5.64743 8.1602 5.67294 8.34984 5.7129 8.54503C6.14866 8.55671 6.57846 8.52455 7.01231 8.48929C7.13905 8.47901 7.26581 8.46905 7.39258 8.45917C7.75263 8.43108 8.11265 8.40257 8.47263 8.37355C8.69389 8.35574 8.91518 8.33839 9.1365 8.32131C9.22011 8.31477 9.30372 8.30806 9.3873 8.30116C10.0405 8.24731 10.6218 8.23814 11.2511 8.45081C11.3214 8.4737 11.3214 8.4737 11.3932 8.49705C11.494 8.5299 11.5947 8.56305 11.6954 8.59645C11.9129 8.66867 12.1309 8.73944 12.3489 8.81033C12.4619 8.84711 12.5749 8.88396 12.6879 8.92088C13.225 9.09635 13.764 9.26542 14.3036 9.4331C14.4954 9.49283 14.6872 9.55261 14.879 9.61239C14.929 9.62793 14.9789 9.64348 15.0303 9.65949C15.4728 9.79738 15.915 9.93599 16.3572 10.0747C16.4301 10.0976 16.5029 10.1204 16.5757 10.1432C16.8635 10.2335 17.1512 10.3238 17.439 10.4142C17.4729 10.4248 17.5067 10.4354 17.5416 10.4464C17.6091 10.4676 17.6766 10.4888 17.7441 10.51C17.9078 10.5613 18.0715 10.6126 18.2354 10.6636C18.2989 10.6834 18.3624 10.7032 18.4259 10.723C18.4569 10.7327 18.4879 10.7423 18.5198 10.7523C18.7377 10.8204 18.955 10.8904 19.1722 10.9609C19.2601 10.9891 19.2601 10.9891 19.3499 11.0178C19.46 11.0531 19.57 11.0889 19.6797 11.1253C19.7282 11.1407 19.7767 11.1561 19.8267 11.1719C19.8689 11.1857 19.9111 11.1994 19.9546 11.2136C20.0944 11.2345 20.1471 11.21 20.2637 11.1329C20.3514 11.0508 20.4366 10.966 20.52 10.8796C20.6749 10.721 20.8302 10.5657 20.9992 10.4219C21.1973 10.2529 21.3778 10.0684 21.5607 9.88323C21.6917 9.75392 21.8285 9.63449 21.9685 9.51511C22.1386 9.36284 22.2966 9.19857 22.456 9.03522C22.5586 8.93566 22.5586 8.93566 22.6563 8.88683C22.6563 8.83849 22.6563 8.79015 22.6563 8.74035C21.283 8.54895 19.9097 8.35772 18.5364 8.16662C18.4852 8.15949 18.4339 8.15236 18.3812 8.14502C15.4244 7.73359 12.4674 7.324 9.5097 6.91912C9.39279 6.90312 9.27589 6.88711 9.15899 6.8711C8.68563 6.80626 8.21226 6.74149 7.73888 6.6768C7.64057 6.66336 7.54226 6.64991 7.44395 6.63646C7.26648 6.61219 7.08902 6.58796 6.91155 6.56375C6.85939 6.55661 6.80723 6.54947 6.75349 6.54212C6.70665 6.53574 6.65982 6.52936 6.61156 6.52278C6.55056 6.51446 6.55056 6.51446 6.48833 6.50596C6.40385 6.49322 6.40385 6.49322 6.34767 6.49425ZM16.568 6.79333C16.3708 6.97453 16.1711 7.15114 15.9668 7.32433C16.098 7.45553 16.1905 7.4496 16.3735 7.47425C16.4668 7.48699 16.4668 7.48699 16.5621 7.5C16.5946 7.50422 16.6272 7.50845 16.6607 7.5128C16.7593 7.52562 16.8577 7.53907 16.9561 7.55264C17.2308 7.58942 17.496 7.62273 17.7734 7.6173C17.7558 7.59684 17.7382 7.57638 17.7201 7.5553C17.5882 7.40179 17.457 7.24781 17.3271 7.09259C17.2896 7.04798 17.2896 7.04798 17.2512 7.00247C17.1996 6.94123 17.1483 6.8798 17.0971 6.81822C17.0317 6.74094 16.9633 6.66617 16.8945 6.59191C16.7409 6.59191 16.6783 6.69092 16.568 6.79333ZM4.49525 7.0161C4.42374 7.0659 4.35221 7.11568 4.28067 7.16545C4.24318 7.19163 4.20569 7.2178 4.16707 7.24477C3.9812 7.37412 3.79417 7.50178 3.60719 7.62951C3.56936 7.65541 3.53154 7.68132 3.49257 7.70801C3.27296 7.85835 3.0529 8.008 2.83242 8.15708C2.78359 8.19017 2.73475 8.22326 2.68444 8.25736C2.58921 8.32187 2.49389 8.38624 2.39848 8.45048C2.35524 8.47979 2.31201 8.50911 2.26747 8.53931C2.22913 8.56519 2.1908 8.59107 2.15131 8.61773C2.05919 8.68535 1.98386 8.75647 1.90431 8.838C2.53838 8.80888 3.17146 8.77204 3.8045 8.72559C3.93975 8.71572 4.07502 8.70619 4.21029 8.69667C4.29676 8.6904 4.38323 8.6841 4.46969 8.67779C4.50991 8.67499 4.55014 8.67219 4.59158 8.6693C4.79249 8.65812 4.79249 8.65812 4.98048 8.59386C4.99108 7.99091 4.95933 7.38937 4.93165 6.78722C4.76087 6.78722 4.63109 6.92034 4.49525 7.0161ZM13.3301 6.78722C13.4074 6.99593 13.5501 7.09315 13.7207 7.22668C13.6434 7.01797 13.5007 6.92075 13.3301 6.78722ZM14.6484 7.32433C14.6484 7.35656 14.6484 7.38878 14.6484 7.42199C14.7129 7.40587 14.7774 7.38976 14.8438 7.37316C14.7793 7.35705 14.7149 7.34093 14.6484 7.32433ZM14.8438 7.42199C14.8438 7.4381 14.8438 7.45421 14.8438 7.47082C14.9727 7.47082 15.1016 7.47082 15.2344 7.47082C15.2344 7.4547 15.2344 7.43859 15.2344 7.42199C15.1055 7.42199 14.9766 7.42199 14.8438 7.42199ZM15.7715 7.47082C15.7715 7.51916 15.7715 7.5675 15.7715 7.6173C16.0608 7.65338 16.3502 7.68903 16.6396 7.72429C16.7381 7.73635 16.8366 7.74852 16.935 7.76082C17.0764 7.77845 17.2179 7.79567 17.3594 7.8128C17.4035 7.8184 17.4476 7.82399 17.493 7.82975C17.5341 7.83464 17.5751 7.83953 17.6174 7.84457C17.6535 7.84902 17.6896 7.85346 17.7268 7.85804C17.8329 7.86739 17.8329 7.86739 17.9688 7.81261C17.7556 7.71315 17.5417 7.68157 17.3107 7.65201C17.2713 7.64673 17.2319 7.64145 17.1913 7.63601C17.1083 7.62495 17.0254 7.61405 16.9424 7.60328C16.8152 7.58679 16.6882 7.56985 16.5611 7.55283C16.4804 7.54212 16.3997 7.53144 16.3189 7.52079C16.2809 7.51575 16.2429 7.51072 16.2038 7.50553C16.0585 7.48676 15.9181 7.47082 15.7715 7.47082ZM19.6289 7.47082C19.5637 7.5266 19.4986 7.58258 19.4336 7.63866C19.3973 7.66982 19.3611 7.70098 19.3237 7.73308C19.2955 7.75932 19.2673 7.78557 19.2383 7.81261C19.2383 7.82873 19.2383 7.84484 19.2383 7.86144C19.339 7.87795 19.4397 7.89417 19.5404 7.91027C19.5965 7.91933 19.6526 7.9284 19.7104 7.93773C19.8488 7.95592 19.9779 7.96329 20.1172 7.9591C20.0729 7.89567 20.0281 7.83268 19.9829 7.76989C19.958 7.73477 19.9331 7.69964 19.9074 7.66346C19.8206 7.56429 19.7497 7.52069 19.6289 7.47082ZM19.0918 7.9591C19.1803 8.06863 19.1803 8.06863 19.3058 8.06629C19.35 8.06516 19.3942 8.06402 19.4397 8.06286C19.4841 8.06198 19.5286 8.06109 19.5744 8.06019C19.6085 8.05905 19.6426 8.05792 19.6777 8.05675C19.6777 8.04064 19.6777 8.02453 19.6777 8.00793C19.4844 7.99181 19.291 7.9757 19.0918 7.9591ZM23.9746 8.00793C23.9867 8.10376 23.9867 8.10376 23.999 8.20152C23.999 8.41339 23.9477 8.5074 23.8037 8.66119C23.7316 8.73044 23.6583 8.79852 23.584 8.86547C23.5281 8.91839 23.5281 8.91839 23.4711 8.97238C23.3794 9.05888 23.2867 9.14398 23.1934 9.22863C23.2142 9.24915 23.235 9.26967 23.2564 9.29081C23.5325 9.60147 23.5254 9.87916 23.5167 10.2811C23.5163 10.3497 23.516 10.4182 23.5158 10.4868C23.515 10.6764 23.5123 10.8659 23.5094 11.0555C23.5065 11.2589 23.5054 11.4624 23.5041 11.6659C23.5014 12.0367 23.4977 12.4074 23.4934 12.7782C23.4856 13.4521 23.4807 14.126 23.4758 14.7999C23.4733 15.1417 23.4708 15.4836 23.4682 15.8254C23.468 15.8592 23.4677 15.8931 23.4675 15.9279C23.4588 17.0802 23.4482 18.2326 23.4375 19.3849C23.6714 19.3963 23.6714 19.3963 23.877 19.2872C23.9015 19.1733 23.9015 19.1733 23.9009 19.0378C23.9025 18.9847 23.9041 18.9315 23.9058 18.8768C23.9069 18.818 23.9079 18.7592 23.909 18.6986C23.9107 18.6365 23.9123 18.5744 23.9141 18.5104C23.9187 18.3377 23.9225 18.165 23.9261 17.9923C23.9301 17.8068 23.935 17.6213 23.9397 17.4358C23.9479 17.1149 23.9556 16.7939 23.9629 16.4729C23.9735 16.0073 23.9852 15.5416 23.9971 15.076C24.0218 14.1117 24.0454 13.1473 24.0686 12.183C24.0797 11.7258 24.0908 11.2686 24.1019 10.8115C24.1247 9.87695 24.1474 8.94244 24.1699 8.00793C24.1055 8.00793 24.041 8.00793 23.9746 8.00793ZM19.7266 8.05675C19.7266 8.07287 19.7266 8.08898 19.7266 8.10558C19.8394 8.10558 19.9522 8.10558 20.0684 8.10558C20.0684 8.08947 20.0684 8.07335 20.0684 8.05675C19.9556 8.05675 19.8428 8.05675 19.7266 8.05675ZM23.2544 8.41686C23.2263 8.44632 23.1981 8.47578 23.1691 8.50612C23.1171 8.56075 23.0653 8.61568 23.0139 8.67099C22.961 8.72776 22.9065 8.7831 22.8516 8.838C22.9724 8.98302 22.9724 8.98302 23.0957 9.13097C23.3055 8.95769 23.508 8.77741 23.7061 8.59081C23.7489 8.55097 23.7917 8.51113 23.8358 8.47008C23.9415 8.35634 23.9415 8.35634 23.9151 8.21258C23.8962 8.15962 23.8962 8.15962 23.877 8.10558C23.5644 8.05728 23.451 8.20265 23.2544 8.41686ZM19.6777 8.20324C19.6777 8.21935 19.6777 8.23546 19.6777 8.25207C19.7905 8.25207 19.9033 8.25207 20.0195 8.25207C20.0195 8.23595 20.0195 8.21984 20.0195 8.20324C19.9067 8.20324 19.794 8.20324 19.6777 8.20324ZM10.2033 8.30767C10.1646 8.31041 10.1258 8.31315 10.0859 8.31597C10.0438 8.31926 10.0018 8.32256 9.95844 8.32595C9.9138 8.3292 9.86917 8.33245 9.82317 8.33579C9.67567 8.34661 9.5282 8.35788 9.38073 8.36918C9.27834 8.37681 9.17595 8.38443 9.07355 8.39203C8.85903 8.40801 8.64453 8.4242 8.43004 8.44056C8.15465 8.46155 7.87922 8.48208 7.60378 8.50246C7.39241 8.51813 7.18105 8.53401 6.96969 8.54996C6.86811 8.55761 6.76652 8.5652 6.66493 8.57274C6.52323 8.58329 6.38155 8.5941 6.23988 8.605C6.17649 8.60964 6.17649 8.60964 6.11182 8.61438C5.90579 8.62609 5.90579 8.62609 5.7129 8.69152C5.7129 8.7882 5.7129 8.88488 5.7129 8.98449C5.93185 8.9857 6.15079 8.98658 6.36974 8.98717C6.44419 8.98742 6.51864 8.98775 6.59309 8.98817C6.70024 8.98877 6.80738 8.98904 6.91453 8.98926C6.97897 8.98951 7.0434 8.98977 7.10979 8.99003C7.24168 8.98562 7.3462 8.97564 7.47071 8.93566C7.34745 9.17229 7.17629 9.34229 6.98854 9.5277C6.95864 9.55798 6.92874 9.58825 6.89794 9.61944C6.50582 10.0099 6.50582 10.0099 6.20118 10.0099C6.09838 9.89239 6.09838 9.89239 5.99671 9.74132C5.93543 9.65128 5.87358 9.56161 5.81056 9.47277C5.79444 9.47277 5.77833 9.47277 5.76173 9.47277C5.74477 9.67629 5.77899 9.75715 5.90821 9.91222C5.92433 9.96056 5.94044 10.0089 5.95704 10.0587C5.89259 10.0426 5.82813 10.0265 5.76173 10.0099C5.76173 10.0904 5.76173 10.171 5.76173 10.254C6.35519 10.3633 6.94974 10.4547 7.54746 10.5372C7.64024 10.5501 7.73301 10.5631 7.82578 10.576C8.07577 10.6109 8.32578 10.6455 8.57579 10.6802C8.84084 10.7169 9.10587 10.7538 9.3709 10.7907C9.81753 10.8529 10.2642 10.9149 10.7108 10.9769C11.3314 11.063 11.952 11.1493 12.5726 11.2356C13.0635 11.3039 13.5544 11.3722 14.0453 11.4404C14.0961 11.4475 14.1469 11.4545 14.1993 11.4618C14.4964 11.5031 14.7935 11.5443 15.0906 11.5855C15.2345 11.6055 15.3784 11.6256 15.5224 11.6456C15.9872 11.7103 16.4521 11.7741 16.9173 11.8358C17.1466 11.8662 17.3758 11.897 17.605 11.9277C17.7147 11.9423 17.8245 11.9568 17.9343 11.9711C18.0869 11.991 18.2394 12.0114 18.3918 12.0319C18.4365 12.0376 18.4812 12.0433 18.5273 12.0491C19.2149 12.1432 19.2149 12.1432 19.4664 12.3775C19.5166 12.4457 19.5166 12.4457 19.5679 12.5154C19.6039 12.563 19.6399 12.6107 19.677 12.6598C19.7095 12.7038 19.7419 12.7478 19.7754 12.7931C19.8237 12.8505 19.8724 12.9076 19.9219 12.964C20.0925 13.1772 20.0752 13.3787 20.0742 13.6394C20.0743 13.7024 20.0743 13.7024 20.0744 13.7667C20.0744 13.9079 20.0742 14.0492 20.0739 14.1904C20.0739 14.2915 20.0739 14.3925 20.0739 14.4936C20.0739 14.7684 20.0737 15.0432 20.0733 15.318C20.073 15.6049 20.073 15.8919 20.0729 16.1789C20.0728 16.7226 20.0724 17.2663 20.0719 17.81C20.0713 18.4289 20.0711 19.0477 20.0708 19.6666C20.0703 20.9399 20.0695 22.2132 20.0684 23.4864C20.27 23.4587 20.27 23.4587 20.459 23.3888C20.5251 23.1699 20.5176 22.9413 20.5211 22.7146C20.5219 22.6713 20.5228 22.6279 20.5237 22.5833C20.5264 22.4381 20.5289 22.2929 20.5313 22.1477C20.5332 22.0436 20.5351 21.9395 20.5371 21.8353C20.5423 21.5523 20.5473 21.2693 20.5522 20.9863C20.5574 20.6897 20.5628 20.3931 20.5682 20.0965C20.5773 19.5978 20.5862 19.0991 20.595 18.6004C20.6062 17.9621 20.6177 17.3238 20.6293 16.6855C20.6393 16.1353 20.6491 15.5851 20.659 15.0348C20.6621 14.8588 20.6653 14.6828 20.6685 14.5068C20.6735 14.2289 20.6784 13.9509 20.6832 13.673C20.685 13.5715 20.6868 13.47 20.6887 13.3685C20.6989 12.8023 20.7057 12.2364 20.7031 11.67C20.6709 11.67 20.6387 11.67 20.6055 11.67C20.6216 11.6217 20.6377 11.5734 20.6543 11.5236C19.7241 11.2097 18.7913 10.9069 17.8535 10.6162C17.5836 10.5325 17.3139 10.4484 17.0441 10.3643C16.9732 10.3422 16.9024 10.3202 16.8316 10.2981C16.266 10.122 15.7009 9.94455 15.136 9.76631C15.0781 9.74804 15.0781 9.74804 15.019 9.7294C14.8249 9.66816 14.6308 9.6069 14.4367 9.54563C12.8882 9.05672 12.8882 9.05672 11.3373 8.57555C11.2793 8.5577 11.2793 8.5577 11.2201 8.53948C10.7213 8.36007 10.7213 8.36007 10.2033 8.30767ZM5.07813 8.74035C5.08116 8.80178 5.08418 8.86321 5.08729 8.9265C5.08899 8.96106 5.09069 8.99562 5.09244 9.03122C5.1274 9.16676 5.1274 9.16676 5.3711 9.27746C5.3711 9.0841 5.3711 8.89074 5.3711 8.69152C5.18671 8.67696 5.18671 8.67696 5.07813 8.74035ZM5.46876 8.69152C5.46876 8.80431 5.46876 8.9171 5.46876 9.03332C5.5171 9.0172 5.56544 9.00109 5.61524 8.98449C5.61524 8.90392 5.61524 8.82335 5.61524 8.74035C5.5669 8.72423 5.51856 8.70812 5.46876 8.69152ZM3.72296 8.79204C3.64918 8.79741 3.57539 8.80276 3.5016 8.80811C3.34774 8.81929 3.19389 8.83058 3.04005 8.84197C2.84394 8.85649 2.64782 8.87077 2.4517 8.88498C2.29958 8.89601 2.14748 8.90714 1.99537 8.91829C1.9231 8.92358 1.85082 8.92886 1.77855 8.93411C1.67718 8.9415 1.57583 8.949 1.47447 8.95653C1.38837 8.96288 1.38837 8.96288 1.30052 8.96935C1.0944 8.98693 0.889086 9.00953 0.683604 9.03332C0.713847 10.2645 0.751289 11.4952 0.794933 12.726C0.802915 12.9515 0.810809 13.177 0.818716 13.4026C0.831955 13.7798 0.845258 14.1571 0.858603 14.5344C0.873908 14.9671 0.889121 15.3998 0.904284 15.8325C0.919073 16.2545 0.933917 16.6765 0.948788 17.0985C0.955032 17.2757 0.96126 17.4529 0.967474 17.6301C0.999432 18.5407 1.03213 19.4512 1.07423 20.3614C1.17091 20.4098 1.26759 20.4581 1.3672 20.5079C1.42739 20.3273 1.41551 20.1672 1.40707 19.98C1.40551 19.9407 1.40396 19.9014 1.40236 19.861C1.39707 19.7289 1.39139 19.5969 1.38571 19.4649C1.38185 19.3704 1.378 19.276 1.37419 19.1815C1.36373 18.9245 1.35294 18.6676 1.3421 18.4106C1.33082 18.1421 1.31986 17.8735 1.30886 17.6049C1.28798 17.0958 1.26682 16.5868 1.24556 16.0777C1.21437 15.3305 1.1836 14.5832 1.15281 13.8359C1.14827 13.7258 1.14373 13.6157 1.13919 13.5055C1.13697 13.4517 1.13476 13.398 1.13248 13.3426C1.11928 13.0225 1.106 12.7023 1.09266 12.3822C1.08438 12.1832 1.07611 11.9842 1.06786 11.7852C1.06401 11.6928 1.06015 11.6003 1.05628 11.5079C1.051 11.3819 1.04578 11.256 1.04056 11.13C1.039 11.0932 1.03745 11.0565 1.03585 11.0186C1.02937 10.8611 1.0254 10.7046 1.0254 10.547C1.05763 10.547 1.08985 10.547 1.12306 10.547C1.12221 10.603 1.12136 10.659 1.12049 10.7167C1.11179 11.5948 1.15254 12.4706 1.19047 13.3476C1.20005 13.57 1.20938 13.7925 1.21875 14.0149C1.23448 14.3877 1.25038 14.7604 1.26641 15.1331C1.28486 15.5625 1.30308 15.9919 1.32115 16.4214C1.33866 16.8372 1.35631 17.253 1.37403 17.6689C1.38152 17.8447 1.38897 18.0206 1.39639 18.1965C1.40514 18.4035 1.414 18.6106 1.42296 18.8176C1.42621 18.8931 1.42942 18.9686 1.43259 19.0441C1.45038 19.4679 1.47416 19.8902 1.51368 20.3126C1.56202 20.2965 1.61036 20.2804 1.66017 20.2638C1.63113 19.148 1.58913 18.0333 1.53737 16.9183C1.52781 16.7117 1.51842 16.5051 1.50902 16.2985C1.48931 15.866 1.46945 15.4336 1.44954 15.0012C1.41939 14.3461 1.38938 13.6911 1.35951 13.036C1.34836 12.7916 1.33712 12.5472 1.32582 12.3028C1.31884 12.1515 1.31192 12.0002 1.30502 11.8488C1.30181 11.779 1.29859 11.7091 1.29533 11.6393C1.29088 11.5437 1.28653 11.4481 1.28219 11.3525C1.27973 11.2992 1.27727 11.2458 1.27474 11.1909C1.25727 10.6681 1.25727 10.6681 1.46485 10.4005C1.50186 10.3488 1.53887 10.297 1.57701 10.2437C1.61677 10.1921 1.6567 10.1406 1.69679 10.0892C1.71592 10.0626 1.73506 10.036 1.75477 10.0085C1.81504 9.93244 1.81504 9.93244 1.95314 9.81457C2.27966 9.79116 2.59695 9.84278 2.91978 9.88933C2.97404 9.89692 3.02829 9.90451 3.0842 9.91232C3.25653 9.93645 3.42881 9.96093 3.60108 9.98546C3.77406 10.0099 3.94705 10.0344 4.12006 10.0586C4.22747 10.0737 4.33485 10.0889 4.44221 10.1043C4.51508 10.1145 4.51508 10.1145 4.58942 10.125C4.63205 10.1311 4.67468 10.1371 4.7186 10.1434C4.84699 10.16 4.84699 10.16 5.02931 10.1564C5.02931 10.0758 5.02931 9.99523 5.02931 9.91222C4.83595 9.89611 4.64259 9.88 4.44337 9.86339C4.44337 9.79894 4.44337 9.73449 4.44337 9.66808C4.47182 9.65442 4.50027 9.64076 4.52958 9.62669C4.7085 9.53442 4.86227 9.44385 4.98048 9.27746C5.00936 9.09485 5.00102 8.92357 4.98048 8.74035C4.5596 8.73076 4.14233 8.76083 3.72296 8.79204ZM22.5704 9.0625C22.5154 9.11869 22.4606 9.1751 22.406 9.23168C22.2023 9.4394 21.9972 9.63903 21.7753 9.82735C21.6129 9.97154 21.4632 10.1284 21.3106 10.2828C21.1785 10.4133 21.0404 10.5339 20.8994 10.6546C20.7117 10.8216 20.5373 11.0025 20.3613 11.1818C20.3291 11.214 20.2969 11.2462 20.2637 11.2794C20.3244 11.3055 20.3855 11.3308 20.4468 11.3557C20.4808 11.3699 20.5148 11.384 20.5498 11.3986C20.6778 11.432 20.7259 11.4241 20.8496 11.3771C20.9694 11.2768 20.9694 11.2768 21.0899 11.1493C21.1126 11.1264 21.1352 11.1034 21.1586 11.0797C21.2309 11.0063 21.3027 10.9323 21.3745 10.8583C21.4687 10.7618 21.5631 10.6656 21.6576 10.5695C21.6806 10.5461 21.7036 10.5226 21.7273 10.4985C21.8864 10.3376 22.0516 10.1873 22.2237 10.0405C22.3835 9.90059 22.5316 9.74904 22.6807 9.59789C22.7115 9.56683 22.7424 9.53577 22.7741 9.50376C22.8489 9.42844 22.9235 9.35297 22.9981 9.27746C22.9393 9.1557 22.8782 9.04887 22.8027 8.93566C22.6861 8.9245 22.6861 8.9245 22.5704 9.0625ZM5.46876 9.08214C5.45655 9.24896 5.45655 9.24896 5.46876 9.42394C5.54127 9.47228 5.54127 9.47228 5.61524 9.5216C5.63514 9.31372 5.63514 9.31372 5.542 9.13708C5.51783 9.11895 5.49366 9.10082 5.46876 9.08214ZM5.7129 9.08214C5.76173 9.1798 5.76173 9.1798 5.76173 9.1798L5.7129 9.08214ZM5.90821 9.08214C6.10184 9.34031 6.26585 9.54831 6.49415 9.76574C6.69202 9.68706 6.82434 9.546 6.97022 9.39648C6.99496 9.37171 7.0197 9.34694 7.04518 9.32142C7.17063 9.21898 7.17063 9.21898 7.22657 9.08214C6.79151 9.08214 6.35646 9.08214 5.90821 9.08214ZM5.76173 9.1798C5.84092 9.35486 5.94691 9.50157 6.0608 9.65587C6.09617 9.70396 6.13155 9.75205 6.16799 9.8016C6.19506 9.8381 6.22212 9.87461 6.25001 9.91222C6.29835 9.89611 6.34669 9.88 6.39649 9.86339C6.21142 9.59629 6.01806 9.38001 5.76173 9.1798ZM5.12696 9.27746C5.12696 9.4547 5.12696 9.63195 5.12696 9.81457C5.24781 9.83874 5.24781 9.83874 5.3711 9.86339C5.38802 9.6666 5.38802 9.6666 5.3711 9.47277C5.25693 9.34873 5.25693 9.34873 5.12696 9.27746ZM4.78211 9.54296C4.7463 9.57412 4.71049 9.60527 4.67359 9.63737C4.64595 9.66362 4.61832 9.68987 4.58985 9.71691C4.58985 9.73302 4.58985 9.74914 4.58985 9.76574C4.73487 9.78185 4.87989 9.79796 5.02931 9.81457C5.02931 9.66955 5.02931 9.52453 5.02931 9.37511C4.93168 9.37511 4.85111 9.48249 4.78211 9.54296ZM5.51759 9.66808C5.51759 9.73253 5.51759 9.79699 5.51759 9.86339C5.56593 9.87951 5.61427 9.89562 5.66407 9.91222C5.63185 9.83166 5.59962 9.75109 5.56642 9.66808C5.5503 9.66808 5.53419 9.66808 5.51759 9.66808ZM5.12696 9.96105C5.14308 10.0416 5.15919 10.1222 5.17579 10.2052C5.25636 10.2052 5.33692 10.2052 5.41993 10.2052C5.41993 10.1246 5.41993 10.0441 5.41993 9.96105C5.32325 9.96105 5.22657 9.96105 5.12696 9.96105ZM5.51759 10.0099C5.51759 10.0904 5.51759 10.171 5.51759 10.254C5.56593 10.254 5.61427 10.254 5.66407 10.254C5.66407 10.1735 5.66407 10.0929 5.66407 10.0099C5.61573 10.0099 5.56739 10.0099 5.51759 10.0099ZM5.17579 10.3028C5.17084 11.1759 5.18242 12.0471 5.21165 12.9197C5.21356 12.9776 5.21547 13.0355 5.21744 13.0951C5.22752 13.3992 5.2379 13.7033 5.24851 14.0074C5.25938 14.3208 5.26913 14.6342 5.27867 14.9477C5.28625 15.1902 5.29467 15.4327 5.30332 15.6752C5.3073 15.791 5.31095 15.9067 5.31428 16.0224C5.31897 16.1828 5.32484 16.3432 5.331 16.5035C5.33213 16.5512 5.33325 16.5988 5.33441 16.6479C5.33728 16.7131 5.33728 16.7131 5.3402 16.7796C5.34146 16.8174 5.34272 16.8552 5.34402 16.8941C5.36468 17.0008 5.36468 17.0008 5.46154 17.0819C5.49615 17.1007 5.53076 17.1194 5.56642 17.1388C5.61476 17.1227 5.6631 17.1066 5.7129 17.09C5.67773 15.9233 5.62945 14.7573 5.57962 13.5912C5.56851 13.3311 5.55756 13.071 5.54664 12.8108C5.53808 12.6074 5.52942 12.404 5.52075 12.2006C5.51667 12.1046 5.51262 12.0087 5.5086 11.9128C5.48674 11.3917 5.46142 10.8717 5.41993 10.3517C5.33937 10.3356 5.2588 10.3194 5.17579 10.3028ZM5.51759 10.3517C5.56908 11.7794 5.62514 13.207 5.68673 14.6343C5.69151 14.7456 5.69626 14.857 5.701 14.9683C5.70856 15.1458 5.71623 15.3232 5.724 15.5007C5.72818 15.5969 5.73227 15.6931 5.73636 15.7892C5.75342 16.1747 5.77848 16.5589 5.81056 16.9435C5.8589 16.9274 5.90724 16.9112 5.95704 16.8946C5.92773 15.6792 5.87994 14.4649 5.82377 13.2504C5.81258 13.0086 5.80165 12.7669 5.79078 12.5251C5.78224 12.3356 5.77358 12.1462 5.76489 11.9568C5.7608 11.8676 5.75675 11.7783 5.75274 11.6891C5.73258 11.2423 5.71172 10.7966 5.66407 10.3517C5.61573 10.3517 5.56739 10.3517 5.51759 10.3517Z" fill="white"/>
<path d="M20.0195 8.25207C20.1856 8.25207 20.3467 8.25207 20.5078 8.25207C20.4531 8.14271 20.3876 8.06885 20.3064 7.97741C20.2432 7.90636 20.1801 7.83514 20.1172 7.76378C20.0854 7.72552 20.0546 7.68839 20.0237 7.65125C19.9933 7.61481 19.9637 7.57943 19.9341 7.54406C19.9063 7.51034 19.8794 7.47761 19.8525 7.44488C19.7754 7.37316 19.7754 7.37316 19.6289 7.37316C19.3826 7.53639 19.1615 7.72661 18.9789 7.9591C18.9226 8.04587 18.9226 8.04587 18.8477 8.10558C18.6389 8.11192 18.6389 8.11192 18.4301 8.08422C18.3677 8.07488 18.3071 8.06582 18.2465 8.05675C18.1376 8.04064 18.0287 8.02442 17.9199 8.00793C17.9199 7.99132 17.9199 7.97521 17.9199 7.9591C18.0029 7.9591 18.0835 7.9591 18.1641 7.9591C18.0963 7.78567 18.0963 7.78567 17.8544 7.53074C17.6193 7.2862 17.3956 7.03999 17.1875 6.77196C17.0872 6.63773 17.0271 6.55842 16.8736 6.49101C16.7481 6.49425 16.7481 6.49425 16.6256 6.58085C16.5602 6.64587 16.4947 6.71087 16.4286 6.77515C16.4043 6.79851 16.3807 6.82119 16.3571 6.84387C16.2181 6.97837 16.07 7.09795 15.918 7.21752C15.7789 7.32525 15.6821 7.4094 15.5853 7.55684C15.5656 7.594 15.5465 7.63006 15.5274 7.66613C15.3794 7.64147 15.3794 7.64147 15.2344 7.6173C15.3058 7.54449 15.3778 7.47357 15.4541 7.40582C15.4802 7.38356 15.5056 7.36196 15.531 7.34035C15.5602 7.31538 15.5887 7.29114 15.6171 7.26691C15.678 7.21504 15.7389 7.16307 15.7998 7.11101C15.8879 7.03553 15.9761 6.96011 16.0645 6.88488C16.1087 6.84772 16.1516 6.81165 16.1945 6.77559C16.2302 6.7453 16.2648 6.71591 16.2994 6.68651C16.4221 6.58374 16.4514 6.55404 16.5039 6.3966C15.4929 6.05138 15.4929 6.05138 14.502 5.713C14.5186 6.32726 14.5347 6.92345 14.5508 7.51964C14.4678 7.50304 14.3872 7.48693 14.3067 7.47082C14.3067 6.87316 14.3067 6.29308 14.3067 5.713C13.2957 5.76232 13.2957 5.76232 12.3047 5.81066C12.3047 5.86613 12.3047 5.86613 12.4735 6.06472C12.5115 6.10903 12.5115 6.10903 12.5488 6.15246C12.6942 6.32419 12.8405 6.49307 12.9999 6.65199C13.2321 6.87867 13.4378 7.10647 13.6231 7.37316C13.5234 7.37316 13.4268 7.37316 13.3301 7.37316C13.2509 7.09146 13.2509 7.09146 12.5482 6.39164C12.4884 6.3325 12.4884 6.3325 12.4298 6.27453C12.2906 6.13605 12.1513 5.99762 12.0117 5.85949C11.8028 5.98742 11.6341 6.12895 11.4619 6.30304C11.432 6.33381 11.403 6.36368 11.3739 6.39355C11.3438 6.42412 11.3146 6.4538 11.2853 6.48348C11.2413 6.52812 11.2413 6.52812 11.1982 6.57188C11.1435 6.627 11.0891 6.68249 11.0352 6.73839C10.92 6.88135 10.92 6.88135 10.791 6.98253C10.6077 7.01084 10.4532 6.99485 10.2692 6.97433C10.0662 6.92336 9.99171 6.86172 9.87741 6.69166C9.81446 6.59191 9.81446 6.59191 9.73016 6.48758C9.69968 6.45249 9.6701 6.41844 9.64051 6.38439C9.51792 6.2374 9.39609 6.14761 9.22853 6.0548C9.19454 6.08632 9.16156 6.11691 9.12858 6.1475C9.06193 6.20856 9.06193 6.20856 8.99659 6.26842C8.87676 6.3788 8.76921 6.47821 8.62657 6.5572C8.59881 6.569 8.57187 6.58045 8.54493 6.59191C8.54493 6.62511 8.54493 6.65734 8.54493 6.68957C8.47853 6.68957 8.41407 6.68957 8.34962 6.68957C8.33833 6.58457 8.33833 6.58457 8.42896 6.50951C8.54493 6.3966 8.54493 6.3966 8.8379 6.0548C8.45606 6.0548 8.08546 6.0548 7.71485 6.0548C7.76368 6.20128 7.76368 6.20128 7.84322 6.30104C7.87532 6.33664 7.90648 6.3712 7.93763 6.40575C7.96986 6.44174 8.00114 6.47668 8.03243 6.51161C8.05726 6.53891 8.08137 6.56541 8.10548 6.59191C8.05567 6.60851 8.00733 6.62462 7.95899 6.64074C7.75766 6.43312 7.54333 6.24345 7.32423 6.0548C7.32423 6.21542 7.24995 6.30791 7.14837 6.42807C6.78904 6.51479 6.78904 6.51479 6.41061 6.42998C6.35601 6.41863 6.30301 6.40761 6.25001 6.3966C6.20413 6.57687 6.20413 6.57687 6.06624 6.71655C6.01635 6.77323 5.96651 6.82994 5.9167 6.88669C5.89222 6.91493 5.86846 6.94234 5.8447 6.96976C5.69826 7.13613 5.57657 7.28781 5.54979 7.51293C5.55096 7.58924 5.55096 7.58924 5.55211 7.66403C5.5526 7.71996 5.55307 7.77425 5.55354 7.82854C5.55542 7.91451 5.55542 7.91451 5.55726 7.99877C5.55914 8.16109 5.56104 8.32338 5.56409 8.48568C5.56527 8.54031 5.56527 8.54031 5.56642 8.59386C5.53321 8.59386 5.50099 8.59386 5.46876 8.59386C5.43298 8.31691 5.41461 8.04786 5.41564 7.76865C5.41606 7.72445 5.41647 7.68156 5.41688 7.63866C5.4175 7.51261 5.41813 7.38657 5.41916 7.26052C5.41942 7.23241 5.41968 7.20513 5.41993 7.17785C5.38673 7.17785 5.3545 7.17785 5.32228 7.17785C5.32228 7.65929 5.32228 8.12658 5.32228 8.59386C5.23927 8.59386 5.1587 8.59386 5.07813 8.59386C5.04566 7.94237 5.02143 7.29308 5.02931 6.64074C5.12892 6.59093 5.2256 6.54259 5.32228 6.49425C5.32228 6.64367 5.32228 6.78869 5.32228 6.93371C5.42972 6.85835 5.52131 6.78326 5.61143 6.68747C5.64178 6.65187 5.67124 6.61731 5.70069 6.58275C5.75378 6.52086 5.80674 6.45886 5.85938 6.3966C5.70521 6.37573 5.70521 6.37573 5.56642 6.29894C5.61622 6.28234 5.66456 6.26623 5.7129 6.25011C5.6963 6.1339 5.68019 6.02111 5.66407 5.90832C5.45483 5.87458 5.28043 5.8424 5.07508 5.90526C5.04292 5.9229 5.0117 5.94002 4.98048 5.95714C4.98048 5.85753 4.98048 5.76085 4.98048 5.66417C7.09801 5.56381 7.09801 5.56381 9.21563 5.46539C9.76176 5.43994 10.3079 5.41447 10.854 5.38893C11.2436 5.37071 11.6333 5.35253 12.0229 5.33438C12.2544 5.3236 12.4859 5.31283 12.7174 5.30199C12.9378 5.29167 13.1582 5.28136 13.3786 5.27111C13.4597 5.26735 13.5408 5.26358 13.6219 5.25981C13.7348 5.25449 13.8477 5.24918 13.9606 5.24395C13.9954 5.24234 14.0292 5.24078 14.063 5.23922C14.3057 5.2279 14.5467 5.19863 14.7835 5.25933C15.0408 5.34363 15.2987 5.42561 15.5586 5.50167C15.5912 5.51118 15.6229 5.52041 15.6546 5.52964C15.7217 5.54923 15.7888 5.56882 15.8558 5.58841C15.9652 5.62028 16.0746 5.65216 16.1839 5.68409C16.346 5.73144 16.5081 5.77879 16.6702 5.82611C18.1942 6.27096 19.7178 6.71736 21.2406 7.16622C21.433 7.22293 21.6254 7.27964 21.8178 7.33621C22.0487 7.40403 22.2795 7.47189 22.5102 7.53998C22.5954 7.56513 22.6806 7.59027 22.7657 7.61539C22.8849 7.65033 23.004 7.68527 23.1231 7.72048C23.1597 7.73134 23.1953 7.74187 23.2309 7.75241C23.4213 7.80793 23.605 7.86223 23.7793 7.9591C23.5273 8.04801 23.3683 8.15335 23.1818 8.3441C23.1399 8.38855 23.1399 8.38855 23.0988 8.43212C23.0423 8.49027 22.986 8.54844 22.9296 8.60664C22.8865 8.6521 22.8446 8.69622 22.8027 8.74035C22.5538 8.66027 22.3089 8.61574 22.05 8.57951C21.9968 8.57233 21.9452 8.56536 21.8935 8.55839C21.7264 8.53521 21.5593 8.51209 21.3921 8.48929C21.276 8.47347 21.1599 8.45756 21.0438 8.44156C20.7326 8.39853 20.4213 8.3557 20.1099 8.31321C20.0792 8.30902 20.0494 8.30496 20.0195 8.30089C20.0195 8.28429 20.0195 8.26818 20.0195 8.25207ZM20.0195 8.25207C19.9033 8.25207 19.7905 8.25207 19.6777 8.25207C19.6777 8.23546 19.6777 8.21935 19.6777 8.20324C19.794 8.20324 19.9067 8.20324 20.0195 8.20324C20.0195 8.21984 20.0195 8.23595 20.0195 8.25207ZM5.76173 9.1798C5.76173 9.1798 5.76173 9.1798 5.7129 9.08214L5.76173 9.1798ZM5.76173 9.1798C5.84092 9.35486 5.94691 9.50157 6.0608 9.65587C6.09617 9.70396 6.13155 9.75205 6.16799 9.8016C6.19506 9.8381 6.22212 9.87461 6.25001 9.91222C6.29835 9.89611 6.34669 9.88 6.39649 9.86339C6.21142 9.59629 6.01806 9.38001 5.76173 9.1798ZM14.082 5.12175C14.547 5.10151 14.9362 5.1675 15.3799 5.30502C15.4454 5.32449 15.5108 5.34386 15.5763 5.36315C15.7172 5.40487 15.8579 5.44719 15.9985 5.49002C16.2249 5.55896 16.4516 5.62651 16.6784 5.69387C16.9666 5.77958 17.2548 5.86563 17.5428 5.95206C18.4102 6.21229 19.2794 6.46641 20.1484 6.72095C20.4876 6.82029 20.8267 6.91988 21.1657 7.0196C21.3033 7.06004 21.4409 7.10048 21.5785 7.14092C21.6672 7.16701 21.756 7.19313 21.8447 7.21925C22.2737 7.34553 22.7028 7.47104 23.1336 7.59105C23.1662 7.60018 23.1988 7.6093 23.2324 7.61871C23.3803 7.66009 23.5283 7.70108 23.6766 7.74125C23.7267 7.75518 23.7768 7.76911 23.8284 7.78347C23.8712 7.79512 23.914 7.80678 23.9581 7.81878C24.0904 7.86823 24.1673 7.90727 24.2676 8.00793C24.2874 8.1584 24.2874 8.1584 24.2811 8.34597C24.2803 8.38035 24.2795 8.41474 24.2786 8.45016C24.2767 8.52462 24.2743 8.59906 24.2716 8.67349C24.2676 8.78803 24.2651 8.90249 24.2631 9.01707C24.2585 9.27038 24.2523 9.52364 24.246 9.77692C24.2436 9.87358 24.2413 9.97024 24.239 10.0669C24.2327 10.3271 24.2263 10.5872 24.2199 10.8474C24.2145 11.0655 24.2092 11.2835 24.2039 11.5016C24.1913 12.0162 24.1787 12.5308 24.166 13.0455C24.1529 13.5748 24.14 14.1041 24.1272 14.6334C24.1161 15.0896 24.105 15.5459 24.0937 16.0021C24.087 16.2738 24.0804 16.5455 24.0738 16.8172C24.0677 17.0727 24.0614 17.3281 24.0549 17.5836C24.0526 17.6768 24.0504 17.7701 24.0482 17.8634C24.0424 18.1069 24.0356 18.3503 24.0269 18.5937C24.0246 18.6647 24.0228 18.7357 24.0214 18.8068C24.0195 18.9028 24.0161 18.9989 24.0125 19.0949C24.0111 19.1478 24.0097 19.2008 24.0082 19.2553C23.9746 19.3849 23.9746 19.3849 23.857 19.4754C23.6724 19.5571 23.5398 19.5415 23.3399 19.5314C23.3312 17.5013 23.3498 15.4718 23.3731 13.4418C23.3775 13.0463 23.3811 12.6508 23.3843 12.2552C23.3869 11.957 23.3911 11.6588 23.3963 11.3606C23.3995 11.1653 23.4017 10.9699 23.4037 10.7745C23.4049 10.6827 23.4065 10.5909 23.4085 10.4991C23.4113 10.3729 23.4125 10.2468 23.4134 10.1206C23.4146 10.0838 23.4157 10.047 23.417 10.0091C23.4165 9.72762 23.3348 9.61538 23.1445 9.42394C22.9124 9.51881 22.7446 9.69679 22.5691 9.87022C22.3763 10.0596 22.1793 10.2373 21.9684 10.4059C21.3961 10.8684 20.8127 11.3494 20.7169 12.1162C20.6814 12.5291 20.6977 12.9431 20.7163 13.3565C20.7251 13.589 20.7257 13.8215 20.7269 14.0541C20.7289 14.3537 20.7317 14.6532 20.7377 14.9528C20.7537 15.7472 20.7473 16.5399 20.7308 17.3343C20.7289 17.4238 20.7289 17.4238 20.7271 17.5151C20.722 17.7555 20.7169 17.996 20.7116 18.2364C20.7002 18.7498 20.6911 19.2631 20.6825 19.7765C20.6789 19.9898 20.6751 20.2031 20.671 20.4164C20.662 20.8797 20.6537 21.343 20.6504 21.8064C20.6488 22.0041 20.6464 22.2017 20.6438 22.3994C20.6428 22.4918 20.6422 22.5841 20.6421 22.6765C20.642 22.8025 20.6404 22.9284 20.6384 23.0544C20.6387 23.0914 20.6391 23.1284 20.6394 23.1665C20.6354 23.333 20.6272 23.4164 20.5058 23.5348C20.3721 23.5804 20.2948 23.5895 20.157 23.5872C20.0955 23.5862 20.0341 23.5851 19.9707 23.5841C19.971 23.5311 19.9712 23.4781 19.9715 23.4234C19.9773 22.1319 19.98 20.8404 19.9794 19.5489C19.9793 18.9243 19.9801 18.2997 19.9833 17.6751C19.986 17.1306 19.9869 16.586 19.9856 16.0415C19.9849 15.7533 19.9852 15.4651 19.9877 15.1769C19.9901 14.9053 19.9899 14.6338 19.9878 14.3621C19.9875 14.2628 19.9881 14.1634 19.9897 14.0641C19.997 13.5772 19.9987 13.1943 19.6614 12.8174C19.5715 12.7251 19.4786 12.6374 19.3848 12.5489C19.1895 12.3234 19.1895 12.3234 19.1895 12.2071C19.1563 12.2078 19.1232 12.2086 19.0891 12.2093C18.775 12.2131 18.4755 12.1927 18.1651 12.1464C18.096 12.1366 18.096 12.1366 18.0255 12.1266C17.872 12.1047 17.7187 12.0823 17.5654 12.0599C17.4539 12.0439 17.3425 12.028 17.231 12.012C16.9901 11.9776 16.7493 11.9429 16.5085 11.9081C16.1247 11.8525 15.7408 11.7975 15.3568 11.7426C15.3241 11.7379 15.2914 11.7333 15.2577 11.7285C15.0892 11.7044 14.9208 11.6803 14.7523 11.6563C14.6137 11.6365 14.475 11.6166 14.3364 11.5968C12.6081 11.3496 10.8787 11.1095 9.14925 10.8699C8.91045 10.8368 8.67165 10.8037 8.43285 10.7706C7.54249 10.6471 6.65212 10.5237 5.76173 10.4005C5.77784 10.4327 5.79396 10.465 5.81056 10.4982C5.81789 10.5682 5.8225 10.6385 5.8257 10.7088C5.82782 10.753 5.82994 10.7973 5.83213 10.8429C5.83423 10.8916 5.83634 10.9403 5.83851 10.9905C5.8409 11.0417 5.84329 11.093 5.84575 11.1458C5.85363 11.3162 5.86119 11.4867 5.86873 11.6573C5.87412 11.7762 5.87953 11.8951 5.88494 12.014C5.89629 12.2643 5.90747 12.5146 5.91855 12.7648C5.93263 13.0829 5.94712 13.4009 5.96173 13.7189C5.973 13.9652 5.98405 14.2115 5.99503 14.4578C6.00028 14.5748 6.00559 14.6919 6.01098 14.8089C6.02563 15.1288 6.03897 15.4486 6.04964 15.7687C6.05303 15.8688 6.05675 15.9689 6.06078 16.069C6.06622 16.2112 6.06996 16.3534 6.07319 16.4957C6.07504 16.5376 6.07689 16.5795 6.0788 16.6228C6.08163 16.8368 6.07744 16.9155 5.93757 17.0874C5.89566 17.1205 5.85374 17.1536 5.81056 17.1876C5.77833 17.2198 5.7461 17.2521 5.7129 17.2853C5.54172 17.2676 5.40748 17.1951 5.27345 17.09C5.24506 16.9646 5.23492 16.8691 5.23339 16.7426C5.23197 16.7055 5.23054 16.6683 5.22907 16.63C5.22443 16.5016 5.2215 16.3731 5.21852 16.2446C5.21549 16.1516 5.21234 16.0587 5.2091 15.9657C5.20158 15.7448 5.19481 15.5239 5.18838 15.3029C5.17528 14.8584 5.159 14.4139 5.1428 13.9694C5.11535 13.2155 5.08824 12.4617 5.06239 11.7077C5.05944 11.622 5.05647 11.5364 5.05347 11.4507C5.0493 11.3318 5.04524 11.2129 5.0412 11.094C5.03999 11.0597 5.03877 11.0255 5.03752 10.9902C5.02934 10.7447 5.02837 10.4997 5.02931 10.254C4.99278 10.2523 4.95625 10.2505 4.91861 10.2487C4.30512 10.2125 3.70011 10.1193 3.09237 10.031C2.94905 10.0103 2.80568 9.99004 2.66229 9.96982C2.61845 9.96332 2.5746 9.95681 2.52943 9.95011C2.48864 9.94439 2.44785 9.93868 2.40582 9.9328C2.37015 9.92763 2.33448 9.92247 2.29773 9.91714C2.15181 9.90999 2.04168 9.92564 1.93126 10.0241C1.91009 10.0501 1.88892 10.0761 1.86711 10.103C1.84373 10.1312 1.82035 10.1595 1.79626 10.1886C1.77249 10.2182 1.74873 10.2479 1.72425 10.2784C1.67625 10.3369 1.62825 10.3954 1.58025 10.4539C1.54217 10.5007 1.50409 10.5476 1.46485 10.5958C1.44874 10.6119 1.43263 10.628 1.41603 10.6446C1.41007 10.797 1.40788 10.9479 1.4083 11.1003C1.4084 11.1498 1.4085 11.1993 1.4086 11.2504C1.41357 11.9639 1.45119 12.6765 1.48504 13.3891C1.49484 13.5967 1.5043 13.8043 1.51378 14.0119C1.53582 14.4929 1.55823 14.974 1.58069 15.4551C1.60931 16.068 1.63781 16.681 1.66587 17.294C1.67528 17.4995 1.68479 17.705 1.69452 17.9104C1.71777 18.4019 1.73946 18.8933 1.75782 19.3849C1.75989 19.4375 1.76196 19.4902 1.76409 19.5444C1.76883 19.6769 1.77217 19.8093 1.7747 19.9418C1.77606 19.9776 1.77741 20.0133 1.77881 20.0502C1.78005 20.2199 1.76347 20.3044 1.66598 20.4458C1.57041 20.5342 1.48359 20.597 1.3672 20.6544C1.0315 20.5201 1.0315 20.5201 0.976573 20.4103C0.91553 19.8686 0.909775 19.3186 0.890825 18.7741C0.887461 18.6801 0.884086 18.586 0.880701 18.4919C0.871608 18.2381 0.862672 17.9844 0.853775 17.7306C0.846297 17.5177 0.838745 17.3048 0.831195 17.0919C0.813359 16.5888 0.795654 16.0857 0.778029 15.5827C0.759941 15.0664 0.741622 14.5501 0.723192 14.0338C0.707296 13.5883 0.691549 13.1428 0.675916 12.6973C0.666614 12.4322 0.657257 12.1671 0.647755 11.9021C0.638807 11.6523 0.630047 11.4025 0.621421 11.1528C0.618258 11.062 0.615034 10.9713 0.611737 10.8806C0.602767 10.6332 0.595508 10.3859 0.589791 10.1384C0.585616 9.99879 0.57871 9.8594 0.57189 9.71986C0.568638 9.62317 0.565461 9.52647 0.562362 9.42977C0.558176 9.36268 0.558177 9.36268 0.553907 9.29424C0.546953 8.98686 0.546953 8.98686 0.660564 8.83768C0.813501 8.69643 0.976901 8.5819 1.16278 8.48753C1.43697 8.34116 1.69069 8.17012 1.94818 7.99648C2.04083 7.93547 2.13359 7.87463 2.22646 7.81395C2.27285 7.7836 2.31925 7.75326 2.36705 7.72199C2.41375 7.69147 2.46044 7.66095 2.50855 7.62951C3.2619 7.14015 3.2619 7.14015 3.99428 6.62042C4.0972 6.54623 4.20168 6.47991 4.31081 6.41529C4.34168 6.39672 4.37256 6.37815 4.40436 6.35902C4.46606 6.32238 4.52841 6.2868 4.59128 6.25221C4.73687 6.16241 4.81965 6.1027 4.87009 5.93424C4.8774 5.89056 4.88472 5.84687 4.89225 5.80186C4.90381 5.73579 4.90381 5.73579 4.91559 5.66838C4.92354 5.61796 4.92354 5.61796 4.93165 5.56652C6.83997 5.46369 8.74856 5.3685 10.6575 5.279C10.9378 5.26585 11.2181 5.2525 11.4983 5.23912C11.7748 5.22593 12.0512 5.21288 12.3277 5.19993C12.4901 5.19231 12.6526 5.18463 12.815 5.17684C13.1527 5.16069 13.4904 5.14536 13.8282 5.13237C13.9128 5.12909 13.9974 5.12559 14.082 5.12175ZM13.1226 5.83507C13.0602 5.83857 13.0602 5.83857 12.9965 5.84213C12.8961 5.84777 12.7957 5.85361 12.6953 5.85949C12.8997 6.10054 13.1088 6.33566 13.3243 6.56688C13.4862 6.74144 13.6364 6.92166 13.7779 7.113C13.8949 7.21133 13.8949 7.21133 14.209 7.17785C14.209 6.72668 14.209 6.2755 14.209 5.81066C13.8442 5.81066 13.4858 5.81357 13.1226 5.83507ZM14.5996 5.85949C14.5996 6.19787 14.5996 6.53625 14.5996 6.88488C14.6157 6.88488 14.6318 6.88488 14.6484 6.88488C14.6484 6.5465 14.6484 6.20812 14.6484 5.85949C14.6323 5.85949 14.6162 5.85949 14.5996 5.85949ZM5.13307 5.97851C4.98472 6.1574 5.01033 6.26658 5.02931 6.49425C5.25739 6.41823 5.42418 6.29482 5.61524 6.15246C5.59913 6.088 5.58302 6.02355 5.56642 5.95714C5.38609 5.90682 5.30324 5.89342 5.13307 5.97851ZM12.5 5.90832C12.5322 5.94054 12.5645 5.97277 12.5977 6.00597C12.5977 5.97375 12.5977 5.94152 12.5977 5.90832C12.5654 5.90832 12.5332 5.90832 12.5 5.90832ZM14.7949 5.90832C14.7949 6.35949 14.7949 6.81066 14.7949 7.2755C15.1726 7.36808 15.1726 7.36808 15.5265 7.2632C15.6256 7.17788 15.7171 7.08859 15.8081 6.99474C15.8397 6.96377 15.8712 6.93281 15.9037 6.9009C15.9908 6.81506 16.0766 6.72814 16.1621 6.64074C16.2272 6.57563 16.2923 6.51053 16.3574 6.44543C16.0106 6.30054 15.6603 6.17863 15.3015 6.06701C15.1343 6.01464 14.9672 5.96227 14.7949 5.90832ZM11.9629 5.95714C11.924 5.99661 11.8851 6.03607 11.845 6.07673C11.7928 6.12945 11.7405 6.18215 11.6882 6.23485C11.6628 6.26075 11.6373 6.28666 11.611 6.31334C11.4823 6.4428 11.3524 6.56584 11.211 6.68136C11.1691 6.7163 11.1272 6.75123 11.084 6.78722C11.084 6.80334 11.084 6.81945 11.084 6.83605C12.0508 6.9569 12.0508 6.9569 13.0371 7.08019C12.8515 6.86366 12.6739 6.66253 12.4725 6.46374C12.4282 6.4198 12.3838 6.37587 12.3381 6.3306C12.2948 6.28793 12.2516 6.24525 12.207 6.20128C12.1255 6.12003 12.0442 6.0386 11.9629 5.95714ZM7.86134 6.15246C7.90775 6.21784 7.95463 6.28288 8.00172 6.34777C8.02778 6.38402 8.05384 6.42028 8.08068 6.45763C8.10498 6.48583 8.12927 6.51403 8.15431 6.54308C8.18653 6.54308 8.21876 6.54308 8.25196 6.54308C8.22283 6.37995 8.17234 6.27243 8.05665 6.15246C7.9922 6.15246 7.92774 6.15246 7.86134 6.15246ZM8.20313 6.15246C8.25147 6.23302 8.29981 6.31359 8.34962 6.3966C8.43019 6.31603 8.51075 6.23546 8.59376 6.15246C8.46485 6.15246 8.33595 6.15246 8.20313 6.15246ZM9.15414 6.22379C9.09412 6.28584 9.0341 6.34789 8.97409 6.40995C8.88673 6.49425 8.88673 6.49425 8.74024 6.59191C8.74024 6.62414 8.74024 6.65636 8.74024 6.68957C8.85516 6.70613 8.97011 6.72235 9.08509 6.73839C9.1332 6.74538 9.1332 6.74538 9.18227 6.75251C9.39461 6.7818 9.60027 6.79168 9.81446 6.78722C9.68695 6.5322 9.48681 6.34172 9.27735 6.15246C9.21722 6.14682 9.21722 6.14682 9.15414 6.22379ZM4.62953 6.35235C4.12696 6.72116 3.59893 7.05387 3.07737 7.39493C2.38617 7.84517 2.38617 7.84517 1.71383 8.32276C1.52643 8.46134 1.33013 8.58579 1.13469 8.71269C1.08059 8.75055 1.08059 8.75055 1.0254 8.78918C1.0254 8.80529 1.0254 8.8214 1.0254 8.838C1.63844 8.87588 1.96094 8.69689 2.43498 8.33084C2.61337 8.19584 2.79931 8.0721 2.98463 7.94689C3.06235 7.89378 3.14004 7.84063 3.21771 7.78744C3.39585 7.66568 3.57415 7.54416 3.75253 7.42275C3.80048 7.3901 3.84844 7.35745 3.89784 7.32381C3.9906 7.26067 4.08337 7.19757 4.17617 7.1345C4.26001 7.07744 4.34367 7.02013 4.42714 6.96254C4.49975 6.91303 4.5731 6.86459 4.64737 6.81761C4.82699 6.70498 4.82699 6.70498 4.9162 6.52077C4.91224 6.48281 4.90827 6.44486 4.90418 6.40575C4.9011 6.36717 4.89802 6.32858 4.89484 6.28883C4.89087 6.25994 4.88691 6.23105 4.88282 6.20128C4.78741 6.20128 4.70148 6.29807 4.62953 6.35235ZM7.29676 6.26842C7.21579 6.3423 7.21579 6.3423 7.22657 6.44543C7.35548 6.46154 7.48438 6.47765 7.6172 6.49425C7.55352 6.39566 7.48838 6.298 7.42188 6.20128C7.36223 6.19591 7.36223 6.19591 7.29676 6.26842ZM12.793 6.20128C12.8605 6.35804 12.9358 6.44784 13.0676 6.55529C13.0985 6.58072 13.1293 6.60615 13.1611 6.63235C13.1846 6.65123 13.2082 6.67011 13.2324 6.68957C13.165 6.53281 13.0896 6.44301 12.9578 6.33556C12.9269 6.31013 12.8961 6.2847 12.8643 6.2585C12.8408 6.23962 12.8172 6.22074 12.793 6.20128ZM5.41993 6.3966C5.41993 6.50939 5.41993 6.62218 5.41993 6.73839C5.43605 6.73839 5.45216 6.73839 5.46876 6.73839C5.46876 6.6256 5.46876 6.51281 5.46876 6.3966C5.45265 6.3966 5.43653 6.3966 5.41993 6.3966ZM6.34767 6.49425C6.25946 6.59383 6.17343 6.69425 6.08827 6.79638C6.06451 6.82461 6.04075 6.85284 6.01626 6.88192C5.96919 6.93799 5.92252 6.99441 5.87628 7.05118C5.81056 7.12902 5.81056 7.12902 5.69497 7.24289C5.57442 7.43986 5.60396 7.61269 5.6244 7.83703C5.6272 7.87813 5.63 7.91923 5.63289 7.96158C5.64743 8.1602 5.67294 8.34984 5.7129 8.54503C6.14866 8.55671 6.57846 8.52455 7.01231 8.48929C7.13905 8.47901 7.26581 8.46905 7.39258 8.45917C7.75263 8.43108 8.11265 8.40257 8.47263 8.37355C8.69389 8.35574 8.91518 8.33839 9.1365 8.32131C9.22011 8.31477 9.30372 8.30806 9.3873 8.30116C10.0405 8.24731 10.6218 8.23814 11.2511 8.45081C11.3214 8.4737 11.3214 8.4737 11.3932 8.49705C11.494 8.5299 11.5947 8.56305 11.6954 8.59645C11.9129 8.66867 12.1309 8.73944 12.3489 8.81033C12.4619 8.84711 12.5749 8.88396 12.6879 8.92088C13.225 9.09635 13.764 9.26542 14.3036 9.4331C14.4954 9.49283 14.6872 9.55261 14.879 9.61239C14.929 9.62793 14.9789 9.64348 15.0303 9.65949C15.4728 9.79738 15.915 9.93599 16.3572 10.0747C16.4301 10.0976 16.5029 10.1204 16.5757 10.1432C16.8635 10.2335 17.1512 10.3238 17.439 10.4142C17.4729 10.4248 17.5067 10.4354 17.5416 10.4464C17.6091 10.4676 17.6766 10.4888 17.7441 10.51C17.9078 10.5613 18.0715 10.6126 18.2354 10.6636C18.2989 10.6834 18.3624 10.7032 18.4259 10.723C18.4569 10.7327 18.4879 10.7423 18.5198 10.7523C18.7377 10.8204 18.955 10.8904 19.1722 10.9609C19.2601 10.9891 19.2601 10.9891 19.3499 11.0178C19.46 11.0531 19.57 11.0889 19.6797 11.1253C19.7282 11.1407 19.7767 11.1561 19.8267 11.1719C19.8689 11.1857 19.9111 11.1994 19.9546 11.2136C20.0944 11.2345 20.1471 11.21 20.2637 11.1329C20.3514 11.0508 20.4366 10.966 20.52 10.8796C20.6749 10.721 20.8302 10.5657 20.9992 10.4219C21.1973 10.2529 21.3778 10.0684 21.5607 9.88323C21.6917 9.75392 21.8285 9.63449 21.9685 9.51511C22.1386 9.36284 22.2966 9.19857 22.456 9.03522C22.5586 8.93566 22.5586 8.93566 22.6563 8.88683C22.6563 8.83849 22.6563 8.79015 22.6563 8.74035C21.283 8.54895 19.9097 8.35772 18.5364 8.16662C18.4852 8.15949 18.4339 8.15236 18.3812 8.14502C15.4244 7.73359 12.4674 7.324 9.5097 6.91912C9.39279 6.90312 9.27589 6.88711 9.15899 6.8711C8.68563 6.80626 8.21226 6.74149 7.73888 6.6768C7.64057 6.66336 7.54226 6.64991 7.44395 6.63646C7.26648 6.61219 7.08902 6.58796 6.91155 6.56375C6.85939 6.55661 6.80723 6.54947 6.75349 6.54212C6.70665 6.53574 6.65982 6.52936 6.61156 6.52278C6.55056 6.51446 6.55056 6.51446 6.48833 6.50596C6.40385 6.49322 6.40385 6.49322 6.34767 6.49425ZM16.568 6.79333C16.3708 6.97453 16.1711 7.15114 15.9668 7.32433C16.098 7.45553 16.1905 7.4496 16.3735 7.47425C16.4668 7.48699 16.4668 7.48699 16.5621 7.5C16.5946 7.50422 16.6272 7.50845 16.6607 7.5128C16.7593 7.52562 16.8577 7.53907 16.9561 7.55264C17.2308 7.58942 17.496 7.62273 17.7734 7.6173C17.7558 7.59684 17.7382 7.57638 17.7201 7.5553C17.5882 7.40179 17.457 7.24781 17.3271 7.09259C17.2896 7.04798 17.2896 7.04798 17.2512 7.00247C17.1996 6.94123 17.1483 6.8798 17.0971 6.81822C17.0317 6.74094 16.9633 6.66617 16.8945 6.59191C16.7409 6.59191 16.6783 6.69092 16.568 6.79333ZM4.49525 7.0161C4.42374 7.0659 4.35221 7.11568 4.28067 7.16545C4.24318 7.19163 4.20569 7.2178 4.16707 7.24477C3.9812 7.37412 3.79417 7.50178 3.60719 7.62951C3.56936 7.65541 3.53154 7.68132 3.49257 7.70801C3.27296 7.85835 3.0529 8.008 2.83242 8.15708C2.78359 8.19017 2.73475 8.22326 2.68444 8.25736C2.58921 8.32187 2.49389 8.38624 2.39848 8.45048C2.35524 8.47979 2.31201 8.50911 2.26747 8.53931C2.22913 8.56519 2.1908 8.59107 2.15131 8.61773C2.05919 8.68535 1.98386 8.75647 1.90431 8.838C2.53838 8.80888 3.17146 8.77204 3.8045 8.72559C3.93975 8.71572 4.07502 8.70619 4.21029 8.69667C4.29676 8.6904 4.38323 8.6841 4.46969 8.67779C4.50991 8.67499 4.55014 8.67219 4.59158 8.6693C4.79249 8.65812 4.79249 8.65812 4.98048 8.59386C4.99108 7.99091 4.95933 7.38937 4.93165 6.78722C4.76087 6.78722 4.63109 6.92034 4.49525 7.0161ZM13.3301 6.78722C13.4074 6.99593 13.5501 7.09315 13.7207 7.22668C13.6434 7.01797 13.5007 6.92075 13.3301 6.78722ZM14.6484 7.32433C14.6484 7.35656 14.6484 7.38878 14.6484 7.42199C14.7129 7.40587 14.7774 7.38976 14.8438 7.37316C14.7793 7.35705 14.7149 7.34093 14.6484 7.32433ZM14.8438 7.42199C14.8438 7.4381 14.8438 7.45421 14.8438 7.47082C14.9727 7.47082 15.1016 7.47082 15.2344 7.47082C15.2344 7.4547 15.2344 7.43859 15.2344 7.42199C15.1055 7.42199 14.9766 7.42199 14.8438 7.42199ZM15.7715 7.47082C15.7715 7.51916 15.7715 7.5675 15.7715 7.6173C16.0608 7.65338 16.3502 7.68903 16.6396 7.72429C16.7381 7.73635 16.8366 7.74852 16.935 7.76082C17.0764 7.77845 17.2179 7.79567 17.3594 7.8128C17.4035 7.8184 17.4476 7.82399 17.493 7.82975C17.5341 7.83464 17.5751 7.83953 17.6174 7.84457C17.6535 7.84902 17.6896 7.85346 17.7268 7.85804C17.8329 7.86739 17.8329 7.86739 17.9688 7.81261C17.7556 7.71315 17.5417 7.68157 17.3107 7.65201C17.2713 7.64673 17.2319 7.64145 17.1913 7.63601C17.1083 7.62495 17.0254 7.61405 16.9424 7.60328C16.8152 7.58679 16.6882 7.56985 16.5611 7.55283C16.4804 7.54212 16.3997 7.53144 16.3189 7.52079C16.2809 7.51575 16.2429 7.51072 16.2038 7.50553C16.0585 7.48676 15.9181 7.47082 15.7715 7.47082ZM19.6289 7.47082C19.5637 7.5266 19.4986 7.58258 19.4336 7.63866C19.3973 7.66982 19.3611 7.70098 19.3237 7.73308C19.2955 7.75932 19.2673 7.78557 19.2383 7.81261C19.2383 7.82873 19.2383 7.84484 19.2383 7.86144C19.339 7.87795 19.4397 7.89417 19.5404 7.91027C19.5965 7.91933 19.6526 7.9284 19.7104 7.93773C19.8488 7.95592 19.9779 7.96329 20.1172 7.9591C20.0729 7.89567 20.0281 7.83268 19.9829 7.76989C19.958 7.73477 19.9331 7.69964 19.9074 7.66346C19.8206 7.56429 19.7497 7.52069 19.6289 7.47082ZM19.0918 7.9591C19.1803 8.06863 19.1803 8.06863 19.3058 8.06629C19.35 8.06516 19.3942 8.06402 19.4397 8.06286C19.4841 8.06198 19.5286 8.06109 19.5744 8.06019C19.6085 8.05905 19.6426 8.05792 19.6777 8.05675C19.6777 8.04064 19.6777 8.02453 19.6777 8.00793C19.4844 7.99181 19.291 7.9757 19.0918 7.9591ZM23.9746 8.00793C23.9867 8.10376 23.9867 8.10376 23.999 8.20152C23.999 8.41339 23.9477 8.5074 23.8037 8.66119C23.7316 8.73044 23.6583 8.79852 23.584 8.86547C23.5281 8.91839 23.5281 8.91839 23.4711 8.97238C23.3794 9.05888 23.2867 9.14398 23.1934 9.22863C23.2142 9.24915 23.235 9.26967 23.2564 9.29081C23.5325 9.60147 23.5254 9.87916 23.5167 10.2811C23.5163 10.3497 23.516 10.4182 23.5158 10.4868C23.515 10.6764 23.5123 10.8659 23.5094 11.0555C23.5065 11.2589 23.5054 11.4624 23.5041 11.6659C23.5014 12.0367 23.4977 12.4074 23.4934 12.7782C23.4856 13.4521 23.4807 14.126 23.4758 14.7999C23.4733 15.1417 23.4708 15.4836 23.4682 15.8254C23.468 15.8592 23.4677 15.8931 23.4675 15.9279C23.4588 17.0802 23.4482 18.2326 23.4375 19.3849C23.6714 19.3963 23.6714 19.3963 23.877 19.2872C23.9015 19.1733 23.9015 19.1733 23.9009 19.0378C23.9025 18.9847 23.9041 18.9315 23.9058 18.8768C23.9069 18.818 23.9079 18.7592 23.909 18.6986C23.9107 18.6365 23.9123 18.5744 23.9141 18.5104C23.9187 18.3377 23.9225 18.165 23.9261 17.9923C23.9301 17.8068 23.935 17.6213 23.9397 17.4358C23.9479 17.1149 23.9556 16.7939 23.9629 16.4729C23.9735 16.0073 23.9852 15.5416 23.9971 15.076C24.0218 14.1117 24.0454 13.1473 24.0686 12.183C24.0797 11.7258 24.0908 11.2686 24.1019 10.8115C24.1247 9.87695 24.1474 8.94244 24.1699 8.00793C24.1055 8.00793 24.041 8.00793 23.9746 8.00793ZM19.7266 8.05675C19.7266 8.07287 19.7266 8.08898 19.7266 8.10558C19.8394 8.10558 19.9522 8.10558 20.0684 8.10558C20.0684 8.08947 20.0684 8.07335 20.0684 8.05675C19.9556 8.05675 19.8428 8.05675 19.7266 8.05675ZM23.2544 8.41686C23.2263 8.44632 23.1981 8.47578 23.1691 8.50612C23.1171 8.56075 23.0653 8.61568 23.0139 8.67099C22.961 8.72776 22.9065 8.7831 22.8516 8.838C22.9724 8.98302 22.9724 8.98302 23.0957 9.13097C23.3055 8.95769 23.508 8.77741 23.7061 8.59081C23.7489 8.55097 23.7917 8.51113 23.8358 8.47008C23.9415 8.35634 23.9415 8.35634 23.9151 8.21258C23.8962 8.15962 23.8962 8.15962 23.877 8.10558C23.5644 8.05728 23.451 8.20265 23.2544 8.41686ZM10.2033 8.30767C10.1646 8.31041 10.1258 8.31315 10.0859 8.31597C10.0438 8.31926 10.0018 8.32256 9.95844 8.32595C9.9138 8.3292 9.86917 8.33245 9.82317 8.33579C9.67567 8.34661 9.5282 8.35788 9.38073 8.36918C9.27834 8.37681 9.17595 8.38443 9.07355 8.39203C8.85903 8.40801 8.64453 8.4242 8.43004 8.44056C8.15465 8.46155 7.87922 8.48208 7.60378 8.50246C7.39241 8.51813 7.18105 8.53401 6.96969 8.54996C6.86811 8.55761 6.76652 8.5652 6.66493 8.57274C6.52323 8.58329 6.38155 8.5941 6.23988 8.605C6.17649 8.60964 6.17649 8.60964 6.11182 8.61438C5.90579 8.62609 5.90579 8.62609 5.7129 8.69152C5.7129 8.7882 5.7129 8.88488 5.7129 8.98449C5.93185 8.9857 6.15079 8.98658 6.36974 8.98717C6.44419 8.98742 6.51864 8.98775 6.59309 8.98817C6.70024 8.98877 6.80738 8.98904 6.91453 8.98926C6.97897 8.98951 7.0434 8.98977 7.10979 8.99003C7.24168 8.98562 7.3462 8.97564 7.47071 8.93566C7.34745 9.17229 7.17629 9.34229 6.98854 9.5277C6.95864 9.55798 6.92874 9.58825 6.89794 9.61944C6.50582 10.0099 6.50582 10.0099 6.20118 10.0099C6.09838 9.89239 6.09838 9.89239 5.99671 9.74132C5.93543 9.65128 5.87358 9.56161 5.81056 9.47277C5.79444 9.47277 5.77833 9.47277 5.76173 9.47277C5.74477 9.67629 5.77899 9.75715 5.90821 9.91222C5.92433 9.96056 5.94044 10.0089 5.95704 10.0587C5.89259 10.0426 5.82813 10.0265 5.76173 10.0099C5.76173 10.0904 5.76173 10.171 5.76173 10.254C6.35519 10.3633 6.94974 10.4547 7.54746 10.5372C7.64024 10.5501 7.73301 10.5631 7.82578 10.576C8.07577 10.6109 8.32578 10.6455 8.57579 10.6802C8.84084 10.7169 9.10587 10.7538 9.3709 10.7907C9.81753 10.8529 10.2642 10.9149 10.7108 10.9769C11.3314 11.063 11.952 11.1493 12.5726 11.2356C13.0635 11.3039 13.5544 11.3722 14.0453 11.4404C14.0961 11.4475 14.1469 11.4545 14.1993 11.4618C14.4964 11.5031 14.7935 11.5443 15.0906 11.5855C15.2345 11.6055 15.3784 11.6256 15.5224 11.6456C15.9872 11.7103 16.4521 11.7741 16.9173 11.8358C17.1466 11.8662 17.3758 11.897 17.605 11.9277C17.7147 11.9423 17.8245 11.9568 17.9343 11.9711C18.0869 11.991 18.2394 12.0114 18.3918 12.0319C18.4365 12.0376 18.4812 12.0433 18.5273 12.0491C19.2149 12.1432 19.2149 12.1432 19.4664 12.3775C19.5166 12.4457 19.5166 12.4457 19.5679 12.5154C19.6039 12.563 19.6399 12.6107 19.677 12.6598C19.7095 12.7038 19.7419 12.7478 19.7754 12.7931C19.8237 12.8505 19.8724 12.9076 19.9219 12.964C20.0925 13.1772 20.0752 13.3787 20.0742 13.6394C20.0743 13.7024 20.0743 13.7024 20.0744 13.7667C20.0744 13.9079 20.0742 14.0492 20.0739 14.1904C20.0739 14.2915 20.0739 14.3925 20.0739 14.4936C20.0739 14.7684 20.0737 15.0432 20.0733 15.318C20.073 15.6049 20.073 15.8919 20.0729 16.1789C20.0728 16.7226 20.0724 17.2663 20.0719 17.81C20.0713 18.4289 20.0711 19.0477 20.0708 19.6666C20.0703 20.9399 20.0695 22.2132 20.0684 23.4864C20.27 23.4587 20.27 23.4587 20.459 23.3888C20.5251 23.1699 20.5176 22.9413 20.5211 22.7146C20.5219 22.6713 20.5228 22.6279 20.5237 22.5833C20.5264 22.4381 20.5289 22.2929 20.5313 22.1477C20.5332 22.0436 20.5351 21.9395 20.5371 21.8353C20.5423 21.5523 20.5473 21.2693 20.5522 20.9863C20.5574 20.6897 20.5628 20.3931 20.5682 20.0965C20.5773 19.5978 20.5862 19.0991 20.595 18.6004C20.6062 17.9621 20.6177 17.3238 20.6293 16.6855C20.6393 16.1353 20.6491 15.5851 20.659 15.0348C20.6621 14.8588 20.6653 14.6828 20.6685 14.5068C20.6735 14.2289 20.6784 13.9509 20.6832 13.673C20.685 13.5715 20.6868 13.47 20.6887 13.3685C20.6989 12.8023 20.7057 12.2364 20.7031 11.67C20.6709 11.67 20.6387 11.67 20.6055 11.67C20.6216 11.6217 20.6377 11.5734 20.6543 11.5236C19.7241 11.2097 18.7913 10.9069 17.8535 10.6162C17.5836 10.5325 17.3139 10.4484 17.0441 10.3643C16.9732 10.3422 16.9024 10.3202 16.8316 10.2981C16.266 10.122 15.7009 9.94455 15.136 9.76631C15.0781 9.74804 15.0781 9.74804 15.019 9.7294C14.8249 9.66816 14.6308 9.6069 14.4367 9.54563C12.8882 9.05672 12.8882 9.05672 11.3373 8.57555C11.2793 8.5577 11.2793 8.5577 11.2201 8.53948C10.7213 8.36007 10.7213 8.36007 10.2033 8.30767ZM5.07813 8.74035C5.08116 8.80178 5.08418 8.86321 5.08729 8.9265C5.08899 8.96106 5.09069 8.99562 5.09244 9.03122C5.1274 9.16676 5.1274 9.16676 5.3711 9.27746C5.3711 9.0841 5.3711 8.89074 5.3711 8.69152C5.18671 8.67696 5.18671 8.67696 5.07813 8.74035ZM5.46876 8.69152C5.46876 8.80431 5.46876 8.9171 5.46876 9.03332C5.5171 9.0172 5.56544 9.00109 5.61524 8.98449C5.61524 8.90392 5.61524 8.82335 5.61524 8.74035C5.5669 8.72423 5.51856 8.70812 5.46876 8.69152ZM3.72296 8.79204C3.64918 8.79741 3.57539 8.80276 3.5016 8.80811C3.34774 8.81929 3.19389 8.83058 3.04005 8.84197C2.84394 8.85649 2.64782 8.87077 2.4517 8.88498C2.29958 8.89601 2.14748 8.90714 1.99537 8.91829C1.9231 8.92358 1.85082 8.92886 1.77855 8.93411C1.67718 8.9415 1.57583 8.949 1.47447 8.95653C1.38837 8.96288 1.38837 8.96288 1.30052 8.96935C1.0944 8.98693 0.889086 9.00953 0.683604 9.03332C0.713847 10.2645 0.751289 11.4952 0.794933 12.726C0.802915 12.9515 0.810809 13.177 0.818716 13.4026C0.831955 13.7798 0.845258 14.1571 0.858603 14.5344C0.873908 14.9671 0.889121 15.3998 0.904284 15.8325C0.919073 16.2545 0.933917 16.6765 0.948788 17.0985C0.955032 17.2757 0.96126 17.4529 0.967474 17.6301C0.999432 18.5407 1.03213 19.4512 1.07423 20.3614C1.17091 20.4098 1.26759 20.4581 1.3672 20.5079C1.42739 20.3273 1.41551 20.1672 1.40707 19.98C1.40551 19.9407 1.40396 19.9014 1.40236 19.861C1.39707 19.7289 1.39139 19.5969 1.38571 19.4649C1.38185 19.3704 1.378 19.276 1.37419 19.1815C1.36373 18.9245 1.35294 18.6676 1.3421 18.4106C1.33082 18.1421 1.31986 17.8735 1.30886 17.6049C1.28798 17.0958 1.26682 16.5868 1.24556 16.0777C1.21437 15.3305 1.1836 14.5832 1.15281 13.8359C1.14827 13.7258 1.14373 13.6157 1.13919 13.5055C1.13697 13.4517 1.13476 13.398 1.13248 13.3426C1.11928 13.0225 1.106 12.7023 1.09266 12.3822C1.08438 12.1832 1.07611 11.9842 1.06786 11.7852C1.06401 11.6928 1.06015 11.6003 1.05628 11.5079C1.051 11.3819 1.04578 11.256 1.04056 11.13C1.039 11.0932 1.03745 11.0565 1.03585 11.0186C1.02937 10.8611 1.0254 10.7046 1.0254 10.547C1.05763 10.547 1.08985 10.547 1.12306 10.547C1.12221 10.603 1.12136 10.659 1.12049 10.7167C1.11179 11.5948 1.15254 12.4706 1.19047 13.3476C1.20005 13.57 1.20938 13.7925 1.21875 14.0149C1.23448 14.3877 1.25038 14.7604 1.26641 15.1331C1.28486 15.5625 1.30308 15.9919 1.32115 16.4214C1.33866 16.8372 1.35631 17.253 1.37403 17.6689C1.38152 17.8447 1.38897 18.0206 1.39639 18.1965C1.40514 18.4035 1.414 18.6106 1.42296 18.8176C1.42621 18.8931 1.42942 18.9686 1.43259 19.0441C1.45038 19.4679 1.47416 19.8902 1.51368 20.3126C1.56202 20.2965 1.61036 20.2804 1.66017 20.2638C1.63113 19.148 1.58913 18.0333 1.53737 16.9183C1.52781 16.7117 1.51842 16.5051 1.50902 16.2985C1.48931 15.866 1.46945 15.4336 1.44954 15.0012C1.41939 14.3461 1.38938 13.6911 1.35951 13.036C1.34836 12.7916 1.33712 12.5472 1.32582 12.3028C1.31884 12.1515 1.31192 12.0002 1.30502 11.8488C1.30181 11.779 1.29859 11.7091 1.29533 11.6393C1.29088 11.5437 1.28653 11.4481 1.28219 11.3525C1.27973 11.2992 1.27727 11.2458 1.27474 11.1909C1.25727 10.6681 1.25727 10.6681 1.46485 10.4005C1.50186 10.3488 1.53887 10.297 1.57701 10.2437C1.61677 10.1921 1.6567 10.1406 1.69679 10.0892C1.71592 10.0626 1.73506 10.036 1.75477 10.0085C1.81504 9.93244 1.81504 9.93244 1.95314 9.81457C2.27966 9.79116 2.59695 9.84278 2.91978 9.88933C2.97404 9.89692 3.02829 9.90451 3.0842 9.91232C3.25653 9.93645 3.42881 9.96093 3.60108 9.98546C3.77406 10.0099 3.94705 10.0344 4.12006 10.0586C4.22747 10.0737 4.33485 10.0889 4.44221 10.1043C4.51508 10.1145 4.51508 10.1145 4.58942 10.125C4.63205 10.1311 4.67468 10.1371 4.7186 10.1434C4.84699 10.16 4.84699 10.16 5.02931 10.1564C5.02931 10.0758 5.02931 9.99523 5.02931 9.91222C4.83595 9.89611 4.64259 9.88 4.44337 9.86339C4.44337 9.79894 4.44337 9.73449 4.44337 9.66808C4.47182 9.65442 4.50027 9.64076 4.52958 9.62669C4.7085 9.53442 4.86227 9.44385 4.98048 9.27746C5.00936 9.09485 5.00102 8.92357 4.98048 8.74035C4.5596 8.73076 4.14233 8.76083 3.72296 8.79204ZM22.5704 9.0625C22.5154 9.11869 22.4606 9.1751 22.406 9.23168C22.2023 9.4394 21.9972 9.63903 21.7753 9.82735C21.6129 9.97154 21.4632 10.1284 21.3106 10.2828C21.1785 10.4133 21.0404 10.5339 20.8994 10.6546C20.7117 10.8216 20.5373 11.0025 20.3613 11.1818C20.3291 11.214 20.2969 11.2462 20.2637 11.2794C20.3244 11.3055 20.3855 11.3308 20.4468 11.3557C20.4808 11.3699 20.5148 11.384 20.5498 11.3986C20.6778 11.432 20.7259 11.4241 20.8496 11.3771C20.9694 11.2768 20.9694 11.2768 21.0899 11.1493C21.1126 11.1264 21.1352 11.1034 21.1586 11.0797C21.2309 11.0063 21.3027 10.9323 21.3745 10.8583C21.4687 10.7618 21.5631 10.6656 21.6576 10.5695C21.6806 10.5461 21.7036 10.5226 21.7273 10.4985C21.8864 10.3376 22.0516 10.1873 22.2237 10.0405C22.3835 9.90059 22.5316 9.74904 22.6807 9.59789C22.7115 9.56683 22.7424 9.53577 22.7741 9.50376C22.8489 9.42844 22.9235 9.35297 22.9981 9.27746C22.9393 9.1557 22.8782 9.04887 22.8027 8.93566C22.6861 8.9245 22.6861 8.9245 22.5704 9.0625ZM5.46876 9.08214C5.45655 9.24896 5.45655 9.24896 5.46876 9.42394C5.54127 9.47228 5.54127 9.47228 5.61524 9.5216C5.63514 9.31372 5.63514 9.31372 5.542 9.13708C5.51783 9.11895 5.49366 9.10082 5.46876 9.08214ZM5.90821 9.08214C6.10184 9.34031 6.26585 9.54831 6.49415 9.76574C6.69202 9.68706 6.82434 9.546 6.97022 9.39648C6.99496 9.37171 7.0197 9.34694 7.04518 9.32142C7.17063 9.21898 7.17063 9.21898 7.22657 9.08214C6.79151 9.08214 6.35646 9.08214 5.90821 9.08214ZM5.12696 9.27746C5.12696 9.4547 5.12696 9.63195 5.12696 9.81457C5.24781 9.83874 5.24781 9.83874 5.3711 9.86339C5.38802 9.6666 5.38802 9.6666 5.3711 9.47277C5.25693 9.34873 5.25693 9.34873 5.12696 9.27746ZM4.78211 9.54296C4.7463 9.57412 4.71049 9.60527 4.67359 9.63737C4.64595 9.66362 4.61832 9.68987 4.58985 9.71691C4.58985 9.73302 4.58985 9.74914 4.58985 9.76574C4.73487 9.78185 4.87989 9.79796 5.02931 9.81457C5.02931 9.66955 5.02931 9.52453 5.02931 9.37511C4.93168 9.37511 4.85111 9.48249 4.78211 9.54296ZM5.51759 9.66808C5.51759 9.73253 5.51759 9.79699 5.51759 9.86339C5.56593 9.87951 5.61427 9.89562 5.66407 9.91222C5.63185 9.83166 5.59962 9.75109 5.56642 9.66808C5.5503 9.66808 5.53419 9.66808 5.51759 9.66808ZM5.12696 9.96105C5.14308 10.0416 5.15919 10.1222 5.17579 10.2052C5.25636 10.2052 5.33692 10.2052 5.41993 10.2052C5.41993 10.1246 5.41993 10.0441 5.41993 9.96105C5.32325 9.96105 5.22657 9.96105 5.12696 9.96105ZM5.51759 10.0099C5.51759 10.0904 5.51759 10.171 5.51759 10.254C5.56593 10.254 5.61427 10.254 5.66407 10.254C5.66407 10.1735 5.66407 10.0929 5.66407 10.0099C5.61573 10.0099 5.56739 10.0099 5.51759 10.0099ZM5.17579 10.3028C5.17084 11.1759 5.18242 12.0471 5.21165 12.9197C5.21356 12.9776 5.21547 13.0355 5.21744 13.0951C5.22752 13.3992 5.2379 13.7033 5.24851 14.0074C5.25938 14.3208 5.26913 14.6342 5.27867 14.9477C5.28625 15.1902 5.29467 15.4327 5.30332 15.6752C5.3073 15.791 5.31095 15.9067 5.31428 16.0224C5.31897 16.1828 5.32484 16.3432 5.331 16.5035C5.33213 16.5512 5.33325 16.5988 5.33441 16.6479C5.33728 16.7131 5.33728 16.7131 5.3402 16.7796C5.34146 16.8174 5.34272 16.8552 5.34402 16.8941C5.36468 17.0008 5.36468 17.0008 5.46154 17.0819C5.49615 17.1007 5.53076 17.1194 5.56642 17.1388C5.61476 17.1227 5.6631 17.1066 5.7129 17.09C5.67773 15.9233 5.62945 14.7573 5.57962 13.5912C5.56851 13.3311 5.55756 13.071 5.54664 12.8108C5.53808 12.6074 5.52942 12.404 5.52075 12.2006C5.51667 12.1046 5.51262 12.0087 5.5086 11.9128C5.48674 11.3917 5.46142 10.8717 5.41993 10.3517C5.33937 10.3356 5.2588 10.3194 5.17579 10.3028ZM5.51759 10.3517C5.56908 11.7794 5.62514 13.207 5.68673 14.6343C5.69151 14.7456 5.69626 14.857 5.701 14.9683C5.70856 15.1458 5.71623 15.3232 5.724 15.5007C5.72818 15.5969 5.73227 15.6931 5.73636 15.7892C5.75342 16.1747 5.77848 16.5589 5.81056 16.9435C5.8589 16.9274 5.90724 16.9112 5.95704 16.8946C5.92773 15.6792 5.87994 14.4649 5.82377 13.2504C5.81258 13.0086 5.80165 12.7669 5.79078 12.5251C5.78224 12.3356 5.77358 12.1462 5.76489 11.9568C5.7608 11.8676 5.75675 11.7783 5.75274 11.6891C5.73258 11.2423 5.71172 10.7966 5.66407 10.3517C5.61573 10.3517 5.56739 10.3517 5.51759 10.3517Z" stroke="white" stroke-width="0.1"/>
<path d="M12.7424 9.53166C12.8554 9.57555 12.9068 9.62128 12.9877 9.71084C13.014 9.73956 13.0403 9.76827 13.0674 9.79786C13.0947 9.8285 13.1219 9.85914 13.15 9.8907C13.1781 9.92165 13.2061 9.95261 13.235 9.9845C13.2906 10.046 13.346 10.1076 13.4012 10.1695C13.465 10.2409 13.5295 10.3118 13.5941 10.3826C13.8184 10.6313 13.8184 10.6313 13.8184 10.7421C13.8506 10.7421 13.8828 10.7421 13.916 10.7421C14.0281 10.8672 14.0625 10.912 14.0625 11.0839C13.181 11.0077 12.3037 10.9002 11.4258 10.791C11.4097 10.7426 11.3936 10.6943 11.377 10.6445C11.4414 10.6123 11.5059 10.58 11.5723 10.5468C11.5723 10.5146 11.5723 10.4824 11.5723 10.4492C11.6481 10.3811 11.7271 10.3167 11.8073 10.2539C11.9628 10.1304 12.1142 10.0077 12.2578 9.87048C12.2934 9.83659 12.2934 9.83659 12.3297 9.80201C12.3965 9.73777 12.4627 9.67291 12.5288 9.60803C12.6465 9.52144 12.6465 9.52144 12.7424 9.53166ZM12.442 9.89681C12.2907 10.0364 12.1393 10.1744 11.9781 10.3027C11.9409 10.3349 11.9036 10.3671 11.8652 10.4003C11.8652 10.4326 11.8652 10.4648 11.8652 10.498C12.0606 10.5261 12.256 10.5539 12.4514 10.5814C12.5178 10.5908 12.5841 10.6003 12.6505 10.6099C12.7463 10.6237 12.8422 10.6371 12.9381 10.6506C12.9957 10.6588 13.0532 10.667 13.1125 10.6754C13.284 10.6936 13.4507 10.6964 13.623 10.6933C13.439 10.4325 13.2379 10.1953 13.0219 9.96089C12.9955 9.93218 12.9691 9.90347 12.942 9.87388C12.8771 9.80418 12.8108 9.73591 12.7441 9.66792C12.6366 9.66792 12.5132 9.83104 12.442 9.89681ZM11.6211 10.5957C11.605 10.6279 11.5889 10.6601 11.5723 10.6933C11.8607 10.7282 12.1492 10.763 12.4377 10.7976C12.5359 10.8094 12.634 10.8213 12.7321 10.8331C12.8732 10.8502 13.0143 10.8672 13.1554 10.884C13.1992 10.8894 13.2431 10.8947 13.2882 10.9002C13.3293 10.9051 13.3703 10.91 13.4126 10.915C13.4486 10.9194 13.4846 10.9237 13.5217 10.9282C13.6202 10.9372 13.7194 10.9375 13.8184 10.9375C13.8184 10.9052 13.8184 10.873 13.8184 10.8398C13.5761 10.8046 13.3338 10.7699 13.0915 10.7355C13.0092 10.7238 12.927 10.7119 12.8447 10.7C12.7258 10.6827 12.6069 10.6659 12.488 10.6491C12.4337 10.6411 12.4337 10.6411 12.3783 10.6329C12.1239 10.5975 11.878 10.5912 11.6211 10.5957Z" fill="white"/>
<path d="M10.2051 8.78902C10.2132 9.0315 10.2211 9.27399 10.2286 9.51649C10.2312 9.59905 10.2339 9.68161 10.2367 9.76416C10.2407 9.88257 10.2444 10.001 10.248 10.1194C10.2493 10.1565 10.2506 10.1937 10.252 10.2319C10.2545 10.3206 10.2545 10.4093 10.2539 10.498C10.2051 10.5468 10.2051 10.5468 10.0281 10.556C9.7935 10.5506 9.57518 10.5445 9.39426 10.3763C9.33783 10.3117 9.28281 10.2458 9.2289 10.1791C9.1142 10.0381 8.99191 9.90495 8.86841 9.77169C8.82242 9.7216 8.77645 9.6715 8.73051 9.62139C8.6411 9.52401 8.55141 9.42692 8.46157 9.32994C8.40162 9.26461 8.40162 9.26461 8.34045 9.19796C8.30451 9.15906 8.26857 9.12016 8.23154 9.08008C8.1543 8.98433 8.1543 8.98433 8.1543 8.88668C8.28844 8.84196 8.38161 8.8288 8.52089 8.8224C8.56514 8.82035 8.60939 8.81831 8.65498 8.8162C8.70124 8.81428 8.7475 8.81236 8.79517 8.81038C8.86059 8.80722 8.86059 8.80722 8.92735 8.80399C9.35324 8.78528 9.77888 8.78703 10.2051 8.78902ZM9.49726 8.89736C9.4499 8.89956 9.40253 8.90176 9.35373 8.90403C9.30536 8.90636 9.25699 8.90869 9.20715 8.91109C9.13261 8.91458 9.13261 8.91458 9.05657 8.91815C8.93484 8.92386 8.81312 8.92965 8.69141 8.9355C8.69141 9.1127 8.72275 9.13411 8.83942 9.26071C8.88634 9.31227 8.88634 9.31227 8.93421 9.36487C8.98321 9.4182 8.98321 9.4182 9.0332 9.47261C9.0938 9.54167 9.15432 9.61077 9.21478 9.67994C9.27626 9.74823 9.3378 9.81644 9.39941 9.8846C9.42994 9.91969 9.46047 9.95478 9.49192 9.99094C9.52232 10.0243 9.55272 10.0576 9.58405 10.0919C9.61076 10.1219 9.63748 10.1519 9.66501 10.1828C9.79231 10.2842 9.79231 10.2842 10.1074 10.3027C10.1074 9.83541 10.1074 9.36812 10.1074 8.88668C9.9023 8.88668 9.70151 8.88769 9.49726 8.89736ZM8.39844 8.98433C8.46591 9.14109 8.54122 9.23088 8.6731 9.33834C8.70394 9.36377 8.73478 9.38919 8.76656 9.41539C8.7901 9.43428 8.81364 9.45316 8.83789 9.47261C8.77042 9.31585 8.69511 9.22606 8.56323 9.11861C8.53239 9.09318 8.50155 9.06775 8.46977 9.04155C8.44623 9.02267 8.42269 9.00379 8.39844 8.98433ZM8.93555 9.57027C9.00302 9.72703 9.07833 9.81682 9.21021 9.92427C9.24105 9.9497 9.27189 9.97513 9.30367 10.0013C9.32721 10.0202 9.35075 10.0391 9.375 10.0586C9.30753 9.90179 9.23222 9.812 9.10034 9.70455C9.0695 9.67912 9.03866 9.65369 9.00688 9.62749C8.98334 9.60861 8.9598 9.58972 8.93555 9.57027ZM9.47266 10.1562C9.50488 10.2207 9.53711 10.2851 9.57031 10.3515C9.60254 10.3354 9.63477 10.3193 9.66797 10.3027C9.60352 10.2544 9.53906 10.206 9.47266 10.1562Z" fill="white"/>
<path d="M7.86133 8.88672C8.12308 9.09493 8.34529 9.32805 8.56935 9.5751C8.74251 9.76573 8.92135 9.94744 9.11007 10.1229C9.18798 10.2149 9.20918 10.2826 9.22852 10.4004C8.67336 10.3837 8.12509 10.3229 7.57446 10.2539C7.52155 10.2473 7.52155 10.2473 7.46757 10.2406C7.36597 10.228 7.26441 10.2151 7.16286 10.202C7.10345 10.1944 7.04404 10.1868 6.98283 10.1789C6.83594 10.1562 6.83594 10.1562 6.68945 10.1074C6.71396 9.90635 6.81377 9.8294 6.96411 9.70154C7.11775 9.56825 7.26759 9.43513 7.40967 9.28955C7.55244 9.14407 7.70257 9.0145 7.86133 8.88672ZM7.68337 9.20162C7.63156 9.25408 7.58001 9.3068 7.52869 9.35974C7.50323 9.38564 7.47777 9.41154 7.45153 9.43823C7.40308 9.48753 7.35473 9.53693 7.30652 9.58647C7.19926 9.6958 7.09082 9.80392 6.98242 9.91211C7.23002 9.94821 7.47767 9.98386 7.72539 10.0191C7.80967 10.0312 7.89393 10.0433 7.97817 10.0556C8.0992 10.0733 8.2203 10.0905 8.34141 10.1076C8.3791 10.1132 8.4168 10.1188 8.45563 10.1246C8.6197 10.1474 8.72733 10.1605 8.88672 10.1074C8.76063 9.9731 8.63447 9.83884 8.5083 9.70459C8.47268 9.66664 8.43705 9.62868 8.40034 9.58958C8.34842 9.53434 8.34842 9.53434 8.29544 9.478C8.24788 9.42737 8.24788 9.42737 8.19936 9.37572C8.16837 9.34325 8.13739 9.31079 8.10547 9.27734C8.07134 9.24098 8.03721 9.20461 8.00204 9.16715C7.85416 9.03016 7.83097 9.06493 7.68337 9.20162Z" fill="white"/>
<path d="M10.4004 8.83789C10.6766 8.865 10.9199 8.91841 11.1816 9.00898C11.2169 9.02083 11.2521 9.03269 11.2884 9.0449C11.3994 9.08236 11.5102 9.12033 11.6211 9.15833C11.6969 9.18401 11.7728 9.20967 11.8486 9.23529C12.0333 9.29775 12.2179 9.36066 12.4024 9.42383C12.4024 9.61914 12.4024 9.61914 12.3093 9.72233C12.2675 9.75776 12.2257 9.7932 12.1826 9.82971C12.138 9.86811 12.0934 9.9065 12.0474 9.94606C11.9814 10.0018 11.9814 10.0018 11.9141 10.0586C11.8458 10.1185 11.7776 10.1785 11.7096 10.2386C11.6778 10.2655 11.646 10.2924 11.6133 10.3201C11.5221 10.3981 11.5221 10.3981 11.4473 10.4883C11.3054 10.6422 11.2258 10.6906 11.0117 10.704C10.5301 10.6765 10.5301 10.6765 10.4004 10.5469C10.3918 10.4173 10.3891 10.293 10.3909 10.1635C10.391 10.1257 10.3911 10.0879 10.3913 10.049C10.3918 9.92806 10.3931 9.80718 10.3943 9.68628C10.3948 9.60439 10.3952 9.5225 10.3956 9.44061C10.3967 9.2397 10.3984 9.0388 10.4004 8.83789ZM10.4981 8.93555C10.4981 9.45117 10.4981 9.9668 10.4981 10.498C10.5303 10.498 10.5625 10.498 10.5957 10.498C10.5796 9.98242 10.5635 9.4668 10.5469 8.93555C10.5308 8.93555 10.5147 8.93555 10.4981 8.93555ZM10.6445 8.98438C10.6445 9.43555 10.6445 9.88672 10.6445 10.3516C10.8862 10.4321 11.0778 10.468 11.3281 10.4004C11.5547 10.2495 11.7435 10.0486 11.9298 9.85161C12.0365 9.73964 12.1465 9.63086 12.2559 9.52148C11.7241 9.34424 11.1924 9.16699 10.6445 8.98438ZM10.6445 10.498C10.6445 10.5142 10.6445 10.5303 10.6445 10.5469C10.7896 10.563 10.9346 10.5791 11.084 10.5957C11.084 10.5635 11.084 10.5313 11.084 10.498C10.939 10.498 10.794 10.498 10.6445 10.498Z" fill="white"/>
<path d="M13.1836 9.7168C13.4591 9.74502 13.7109 9.79675 13.9755 9.8772C14.0118 9.88797 14.0481 9.89874 14.0855 9.90984C14.2 9.94388 14.3144 9.97834 14.4287 10.0128C14.5069 10.0361 14.5851 10.0594 14.6633 10.0827C14.8538 10.1395 15.0441 10.1966 15.2344 10.2539C15.2344 10.4004 15.2344 10.4004 15.1396 10.5022C14.9021 10.7097 14.6659 10.9077 14.4043 11.084C14.0587 10.8091 13.7708 10.4838 13.4766 10.1562C13.4426 10.1187 13.4087 10.0812 13.3738 10.0426C13.1836 9.82757 13.1836 9.82757 13.1836 9.7168ZM13.4766 9.91211C13.901 10.4142 13.901 10.4142 14.3555 10.8887C14.3877 10.8726 14.4199 10.8564 14.4531 10.8398C14.3617 10.7401 14.2701 10.6404 14.1785 10.5408C14.153 10.513 14.1275 10.4851 14.1012 10.4565C13.9299 10.2703 13.7583 10.0857 13.5742 9.91211C13.542 9.91211 13.5098 9.91211 13.4766 9.91211ZM13.8672 10.0098C14.07 10.2987 14.2955 10.5474 14.5508 10.791C14.6141 10.7455 14.6771 10.6997 14.74 10.6537C14.7751 10.6282 14.8102 10.6027 14.8464 10.5764C14.9527 10.4964 14.9527 10.4964 15.0391 10.3516C14.6601 10.1937 14.2654 10.105 13.8672 10.0098Z" fill="white"/>
<path d="M17.334 6.5918C17.7413 6.7042 18.1482 6.81817 18.5547 6.93359C18.5988 6.94606 18.6429 6.95853 18.6884 6.97138C18.7987 7.00284 18.9086 7.03514 19.0186 7.06787C19.0795 7.08575 19.1404 7.10362 19.2032 7.12204C19.247 7.14042 19.2908 7.1588 19.3359 7.17773C19.3601 7.25024 19.3601 7.25024 19.3848 7.32422C19.3366 7.36186 19.2883 7.3995 19.2387 7.43828C19.1755 7.48774 19.1123 7.5372 19.0491 7.58667C19.0173 7.61147 18.9855 7.63627 18.9528 7.66182C18.9222 7.68574 18.8917 7.70966 18.8602 7.7343C18.8181 7.76728 18.8181 7.76728 18.775 7.80094C18.6946 7.86466 18.6946 7.86466 18.6035 7.95898C18.4496 7.95164 18.3771 7.92601 18.2617 7.82261C18.2295 7.78403 18.1973 7.74544 18.1641 7.70569C18.1269 7.66232 18.0897 7.61895 18.0513 7.57427C18.0308 7.55022 18.0103 7.52617 17.9892 7.50139C17.855 7.3473 17.7146 7.19885 17.5751 7.04956C17.5196 6.98993 17.4641 6.93029 17.4086 6.87065C17.3678 6.82697 17.3271 6.78329 17.2852 6.73828C17.3013 6.68994 17.3174 6.6416 17.334 6.5918ZM17.627 6.83594C17.7359 7.05384 17.8905 7.20239 18.0632 7.36961C18.1579 7.46454 18.2436 7.56256 18.3289 7.66602C18.3712 7.71436 18.4135 7.7627 18.457 7.8125C18.4893 7.8125 18.5215 7.8125 18.5547 7.8125C18.4855 7.65371 18.4021 7.55305 18.277 7.43408C18.1047 7.26709 17.948 7.09251 17.7952 6.90765C17.7719 6.88399 17.7486 6.86032 17.7246 6.83594C17.6924 6.83594 17.6602 6.83594 17.627 6.83594ZM17.9688 6.93359C18.1931 7.19721 18.4217 7.45671 18.6523 7.71484C18.7158 7.67059 18.7788 7.62571 18.8416 7.58057C18.8767 7.55564 18.9118 7.53072 18.948 7.50504C19.0481 7.41735 19.0854 7.34568 19.1406 7.22656C18.9729 7.17742 18.805 7.12871 18.6371 7.08008C18.5656 7.05912 18.5656 7.05912 18.4926 7.03773C18.4468 7.02452 18.401 7.0113 18.3538 6.99768C18.3117 6.98541 18.2695 6.97313 18.226 6.96049C18.1105 6.92783 18.1105 6.92783 17.9688 6.93359Z" fill="white"/>
<path d="M11.5723 5.85939C11.5623 5.9475 11.5623 5.9475 11.5234 6.05471C11.4232 6.13282 11.4232 6.13282 11.2923 6.20748C11.2451 6.23483 11.1979 6.26218 11.1492 6.29036C11.0995 6.31834 11.0498 6.34632 10.9985 6.37514C10.9496 6.40331 10.9006 6.43147 10.8501 6.46049C10.7585 6.51317 10.6667 6.5656 10.5748 6.61767C10.4505 6.68875 10.3276 6.76187 10.2051 6.83596C10.1069 6.70923 10.0094 6.58192 9.91211 6.45449C9.88416 6.41845 9.85622 6.38242 9.82742 6.34529C9.80099 6.31052 9.77455 6.27574 9.74731 6.23991C9.72277 6.20795 9.69822 6.17598 9.67293 6.14305C9.61914 6.05471 9.61914 6.05471 9.61914 5.90822C10.9254 5.84993 10.9254 5.84993 11.5723 5.85939ZM9.81445 6.00588C9.88724 6.16617 9.9798 6.29547 10.0891 6.43312C10.12 6.47215 10.1508 6.51117 10.1826 6.55138C10.2061 6.58084 10.2297 6.61029 10.2539 6.64064C10.2861 6.60842 10.3184 6.57619 10.3516 6.54299C10.2714 6.45332 10.191 6.36383 10.1105 6.27443C10.0762 6.23601 10.0762 6.23601 10.0411 6.1968C9.98286 6.13224 9.92318 6.06895 9.86328 6.00588C9.84717 6.00588 9.83105 6.00588 9.81445 6.00588ZM10.0098 6.00588C10.2233 6.25573 10.2233 6.25573 10.4492 6.49416C10.6457 6.42163 10.8209 6.3282 11.0016 6.22255C11.0538 6.19228 11.1059 6.162 11.1597 6.13081C11.1992 6.1057 11.2386 6.08058 11.2793 6.05471C11.2793 6.03859 11.2793 6.02248 11.2793 6.00588C10.8604 6.00588 10.4414 6.00588 10.0098 6.00588Z" fill="white"/>
<path d="M15.5273 10.4004C15.6794 10.4675 15.7781 10.5432 15.8913 10.6644C15.9215 10.6967 15.9517 10.7289 15.9828 10.7622C16.0138 10.7959 16.0448 10.8296 16.0767 10.8643C16.1084 10.8979 16.1401 10.9316 16.1728 10.9663C16.4062 11.2179 16.4062 11.2179 16.4062 11.3281C15.848 11.3468 15.3005 11.2896 14.7461 11.2305C14.787 11.0082 14.9176 10.9043 15.0818 10.7605C15.1083 10.7366 15.1348 10.7127 15.1621 10.688C15.2798 10.5827 15.3958 10.4881 15.5273 10.4004ZM15.5273 10.5469C15.334 10.7161 15.334 10.7161 15.1367 10.8887C15.4018 11.0654 15.7072 11.0406 16.0156 11.0352C15.9711 10.981 15.9263 10.9272 15.8813 10.8734C15.8564 10.8434 15.8315 10.8134 15.8058 10.7824C15.7111 10.6758 15.7111 10.6758 15.5273 10.5469ZM14.9902 11.0352C14.9741 11.0674 14.958 11.0996 14.9414 11.1328C15.1187 11.1328 15.2959 11.1328 15.4785 11.1328C15.4785 11.1167 15.4785 11.1006 15.4785 11.084C15.3174 11.0679 15.1563 11.0518 14.9902 11.0352ZM15.4785 11.1328C15.4785 11.1489 15.4785 11.165 15.4785 11.1816C15.6074 11.1816 15.7363 11.1816 15.8691 11.1816C15.8691 11.1655 15.8691 11.1494 15.8691 11.1328C15.7402 11.1328 15.6113 11.1328 15.4785 11.1328ZM15.9668 11.1816C16.1621 11.2305 16.1621 11.2305 16.1621 11.2305L15.9668 11.1816Z" fill="white"/>
<path d="M2.88086 9.17969C2.85189 9.37524 2.79063 9.49387 2.63672 9.61914C2.43794 9.63662 2.24707 9.60113 2.05078 9.57031C1.97093 9.55859 1.89108 9.54689 1.81122 9.53522C1.64724 9.51062 1.48337 9.48547 1.31969 9.45892C1.28532 9.45335 1.25095 9.44778 1.21554 9.44204C1.12305 9.42383 1.12305 9.42383 0.976562 9.375C0.976562 9.34277 0.976562 9.31055 0.976562 9.27734C1.32985 9.22505 1.6819 9.21271 2.03857 9.20105C2.09805 9.19894 2.15754 9.19683 2.21882 9.19466C2.43966 9.18699 2.65987 9.17969 2.88086 9.17969ZM2.34375 9.32617C2.34375 9.34229 2.34375 9.3584 2.34375 9.375C2.45654 9.375 2.56934 9.375 2.68555 9.375C2.68555 9.35889 2.68555 9.34277 2.68555 9.32617C2.57275 9.32617 2.45996 9.32617 2.34375 9.32617Z" fill="white"/>
<path d="M19.5801 11.8164C19.8701 11.8164 20.1602 11.8164 20.459 11.8164C20.459 12.1709 20.459 12.5254 20.459 12.8906C20.3945 12.8906 20.3301 12.8906 20.2637 12.8906C20.1653 12.7837 20.0806 12.6806 19.9951 12.5641C19.9488 12.5029 19.9025 12.4416 19.8563 12.3804C19.8235 12.336 19.8235 12.336 19.7901 12.2907C19.7328 12.2153 19.6712 12.1433 19.6091 12.0718C19.5705 12.0179 19.5705 12.0179 19.5312 11.9629C19.5474 11.9146 19.5635 11.8662 19.5801 11.8164ZM19.7266 11.9629C19.8939 12.1924 20.0569 12.403 20.2637 12.5977C20.2637 12.4043 20.2637 12.2109 20.2637 12.0117C20.0864 11.9956 19.9092 11.9795 19.7266 11.9629Z" fill="white"/>
<path d="M16.0645 10.5469C16.1592 10.5634 16.2533 10.584 16.3469 10.6062C16.4041 10.6196 16.4612 10.6329 16.52 10.6467C16.5802 10.6611 16.6403 10.6755 16.7023 10.6903C16.7928 10.7116 16.7928 10.7116 16.8851 10.7333C17.0348 10.7686 17.1844 10.8041 17.334 10.8398C17.257 11.0015 17.1723 11.1166 17.0471 11.2457C17.014 11.2808 16.9809 11.3158 16.9468 11.352C16.8457 11.4258 16.8457 11.4258 16.7526 11.4304C16.5964 11.3488 16.4907 11.2234 16.3757 11.0931C16.3518 11.067 16.3279 11.041 16.3033 11.0141C16.1849 10.8827 16.0833 10.7601 16.0156 10.5957C16.0317 10.5796 16.0479 10.5635 16.0645 10.5469ZM16.6016 10.8398C16.6821 10.9365 16.7627 11.0332 16.8457 11.1328C16.9981 11.0689 16.9981 11.0689 17.0898 10.9375C16.9131 10.8732 16.7922 10.8398 16.6016 10.8398ZM16.4551 10.8887C16.4712 10.937 16.4873 10.9854 16.5039 11.0352C16.5039 10.9868 16.5039 10.9385 16.5039 10.8887C16.4878 10.8887 16.4717 10.8887 16.4551 10.8887Z" fill="white"/>
<path d="M20.166 7.4707C20.5948 7.55229 21.0164 7.64079 21.4355 7.76367C21.3678 7.91643 21.2885 8.02158 21.17 8.13904C21.1409 8.16843 21.1118 8.19783 21.0817 8.22811C20.9961 8.30078 20.9961 8.30078 20.8496 8.34961C20.763 8.26431 20.6766 8.17884 20.5902 8.09326C20.5658 8.06928 20.5414 8.0453 20.5163 8.02059C20.2578 7.76382 20.2578 7.76382 20.166 7.61719C20.166 7.56885 20.166 7.52051 20.166 7.4707ZM20.4102 7.66602C20.4424 7.69824 20.4746 7.73047 20.5078 7.76367C20.5078 7.73145 20.5078 7.69922 20.5078 7.66602C20.4756 7.66602 20.4434 7.66602 20.4102 7.66602ZM20.7031 7.71484C20.824 7.88403 20.824 7.88403 20.9473 8.05664C21.0449 8.01801 21.0449 8.01801 21.1426 7.95898C21.1587 7.91064 21.1748 7.8623 21.1914 7.8125C21.0303 7.78027 20.8691 7.74805 20.7031 7.71484Z" fill="white"/>
<path d="M4.73633 9.08215C4.73633 9.22864 4.73633 9.22864 4.62399 9.35872C4.57535 9.40729 4.52631 9.45547 4.47693 9.50329C4.45254 9.52784 4.42815 9.55239 4.40302 9.57768C4.28736 9.69165 4.20875 9.76257 4.05273 9.81457C3.8916 9.63733 3.73047 9.46008 3.56445 9.27746C3.58057 9.22912 3.59668 9.18078 3.61328 9.13098C3.75467 9.12276 3.89607 9.11463 4.03748 9.10657C4.09729 9.10307 4.09729 9.10307 4.15831 9.09951C4.35125 9.08857 4.54298 9.079 4.73633 9.08215ZM3.80859 9.22864C3.86585 9.39159 3.91546 9.51059 4.05273 9.61926C4.08496 9.61926 4.11719 9.61926 4.15039 9.61926C4.09314 9.45631 4.04352 9.33731 3.90625 9.22864C3.87402 9.22864 3.8418 9.22864 3.80859 9.22864ZM4.10156 9.22864C4.13379 9.29309 4.16602 9.35754 4.19922 9.42395C4.35181 9.44042 4.35181 9.44042 4.45251 9.32629C4.48172 9.29407 4.51093 9.26184 4.54102 9.22864C4.396 9.22864 4.25098 9.22864 4.10156 9.22864Z" fill="white"/>
<path d="M7.17773 6.00574C7.01679 6.3336 7.01679 6.3336 6.88133 6.38855C6.67455 6.39985 6.48995 6.35309 6.28967 6.30481C6.24967 6.29569 6.20967 6.28656 6.16846 6.27716C5.87567 6.2092 5.87567 6.2092 5.76172 6.15223C5.76172 6.12 5.76172 6.08777 5.76172 6.05457C6.02503 6.01309 6.28606 5.99014 6.55212 5.97522C6.59087 5.97271 6.62961 5.97019 6.66952 5.9676C6.707 5.96546 6.74449 5.96332 6.7831 5.96111C6.81673 5.95912 6.85035 5.95713 6.88499 5.95508C6.9893 5.95704 7.0778 5.9768 7.17773 6.00574ZM6.68945 6.1034C6.68945 6.11951 6.68945 6.13562 6.68945 6.15223C6.78613 6.15223 6.88281 6.15223 6.98242 6.15223C6.98242 6.13611 6.98242 6.12 6.98242 6.1034C6.88574 6.1034 6.78906 6.1034 6.68945 6.1034Z" fill="white"/>
<path d="M17.5798 10.9905C17.6956 11.0444 17.7669 11.1085 17.8558 11.2C17.8852 11.2296 17.9146 11.2591 17.9449 11.2896C18.0176 11.377 18.0176 11.377 18.0664 11.5235C17.8604 11.5846 17.6777 11.5563 17.4683 11.5265C17.4319 11.5216 17.3955 11.5168 17.358 11.5117C17.2686 11.4997 17.1792 11.4872 17.0898 11.4746C17.0898 11.3281 17.0898 11.3281 17.1684 11.2374C17.2029 11.2069 17.2374 11.1764 17.2729 11.145C17.3069 11.1141 17.3409 11.0831 17.3759 11.0512C17.4805 10.9863 17.4805 10.9863 17.5798 10.9905ZM17.5293 11.1328C17.4971 11.1651 17.4648 11.1973 17.4316 11.2305C17.4961 11.2144 17.5605 11.1983 17.627 11.1817C17.5947 11.1655 17.5625 11.1494 17.5293 11.1328ZM17.5781 11.377C17.5781 11.3931 17.5781 11.4092 17.5781 11.4258C17.6587 11.4258 17.7393 11.4258 17.8223 11.4258C17.8223 11.4097 17.8223 11.3936 17.8223 11.377C17.7417 11.377 17.6611 11.377 17.5781 11.377Z" fill="white"/>
<path d="M21.7039 7.91424C21.8513 7.96805 21.9126 8.03104 22.0123 8.15114C22.0418 8.18582 22.0714 8.2205 22.1018 8.25623C22.168 8.3495 22.168 8.3495 22.168 8.44716C21.8376 8.45271 21.5191 8.44131 21.1914 8.39833C21.2193 8.23015 21.2713 8.15307 21.3989 8.04127C21.4274 8.01528 21.4558 7.98928 21.4851 7.9625C21.582 7.91005 21.582 7.91005 21.7039 7.91424ZM21.582 8.05653C21.5659 8.08876 21.5498 8.12099 21.5332 8.15419C21.6138 8.15419 21.6943 8.15419 21.7773 8.15419C21.7612 8.12196 21.7451 8.08974 21.7285 8.05653C21.6802 8.05653 21.6318 8.05653 21.582 8.05653ZM21.3867 8.25184C21.3867 8.26796 21.3867 8.28407 21.3867 8.30067C21.4834 8.30067 21.5801 8.30067 21.6797 8.30067C21.6797 8.28456 21.6797 8.26845 21.6797 8.25184C21.583 8.25184 21.4863 8.25184 21.3867 8.25184Z" fill="white"/>
<path d="M3.31688 9.1857C3.44646 9.24071 3.51198 9.3119 3.60413 9.41783C3.63465 9.45194 3.66518 9.48606 3.69663 9.5212C3.71747 9.55356 3.7383 9.58591 3.75977 9.61924C3.74365 9.66758 3.72754 9.71592 3.71094 9.76573C3.45312 9.71739 3.19531 9.66905 2.92969 9.61924C2.97838 9.42446 3.07621 9.1706 3.31688 9.1857ZM3.22266 9.32627C3.19043 9.39073 3.1582 9.45518 3.125 9.52159C3.25727 9.58772 3.3696 9.57359 3.51562 9.57041C3.45309 9.48704 3.38781 9.40568 3.32031 9.32627C3.28809 9.32627 3.25586 9.32627 3.22266 9.32627Z" fill="white"/>
<path d="M1.02539 9.66797C1.07373 9.68408 1.12207 9.7002 1.17188 9.7168C1.23996 9.72005 1.30819 9.72097 1.37634 9.71985C1.43777 9.71884 1.49921 9.71783 1.5625 9.7168C1.53565 9.90601 1.45139 9.99003 1.31531 10.1196C1.27949 10.1541 1.24368 10.1886 1.20678 10.2242C1.17915 10.2501 1.15152 10.276 1.12305 10.3027C1.09082 10.2866 1.05859 10.2705 1.02539 10.2539C1.02539 10.0605 1.02539 9.86719 1.02539 9.66797ZM1.26953 9.81445C1.28564 9.84668 1.30176 9.87891 1.31836 9.91211C1.33447 9.87988 1.35059 9.84766 1.36719 9.81445C1.33496 9.81445 1.30273 9.81445 1.26953 9.81445Z" fill="white"/>
</svg>
