<svg width="95" height="95" viewBox="0 0 95 95" fill="none" xmlns="http://www.w3.org/2000/svg">
<g clip-path="url(#clip0_1966_20)">
<circle cx="47.5" cy="47.5" r="47.5" fill="url(#paint0_radial_1966_20)"/>
<path d="M38.608 1.6843C39.0044 1.87202 39.0044 1.87202 39.4082 2.11337C39.7786 2.30018 40.1497 2.48585 40.5214 2.67002C40.5078 2.86362 40.4942 3.05722 40.4802 3.25669C40.4329 3.98152 40.4033 4.70622 40.3787 5.43215C40.3658 5.74496 40.3481 6.0576 40.3255 6.36985C40.1518 8.10869 40.1518 8.10869 40.7728 9.6655C41.4988 10.3132 42.5106 11.0423 43.5156 11.0049C43.9775 10.7767 44.3744 10.4982 44.7905 10.1941C44.9739 10.0674 45.1574 9.94079 45.3464 9.81031C45.7267 9.54591 46.1028 9.27543 46.4742 8.99854C47.7695 8.12532 48.5431 7.97138 50.064 8.20104C50.2175 8.2213 50.3711 8.24155 50.5293 8.26242C50.9047 8.3124 51.2795 8.36674 51.6542 8.42197C51.6586 11.917 51.6619 15.4121 51.6639 18.9072C51.6648 20.53 51.6661 22.1527 51.6682 23.7755C51.6701 25.1898 51.6713 26.604 51.6717 28.0183C51.6719 28.7673 51.6725 29.5162 51.6739 30.2652C51.6751 30.97 51.6755 31.6748 51.6752 32.3797C51.6753 32.6385 51.6757 32.8973 51.6764 33.1561C51.6773 33.5092 51.677 33.8624 51.6766 34.2156C51.6768 34.5122 51.6768 34.5122 51.6771 34.8148C51.657 35.2645 51.5986 35.6395 51.4687 36.0685C51.5696 36.1172 51.6706 36.166 51.7746 36.2163C52.2797 36.4747 52.7676 36.7512 53.2546 37.0426C53.433 37.1469 53.6114 37.2511 53.7953 37.3586C54.2519 37.7384 54.2519 37.7384 54.4418 38.3153C54.5016 38.4923 54.5614 38.6693 54.623 38.8517C55.056 39.0522 55.056 39.0522 55.5507 39.2227C55.8232 39.37 56.0923 39.5234 56.3582 39.6823C56.5134 39.7745 56.6687 39.8668 56.8287 39.9619C56.9963 40.0624 57.1639 40.1629 57.3366 40.2664C57.7055 40.4861 58.0745 40.7057 58.4434 40.9253C58.6376 41.0412 58.8317 41.1571 59.0318 41.2765C60.0464 41.8815 61.0632 42.4827 62.0797 43.0844C62.5056 43.3369 62.9316 43.5893 63.3575 43.8419C64.6207 44.5907 65.884 45.3394 67.1474 46.088C67.5649 46.3354 67.9824 46.5828 68.3999 46.8302C68.6065 46.9526 68.8132 47.0751 69.0261 47.2013C70.9047 48.3145 70.9047 48.3145 71.5312 48.6858C71.9479 48.9327 72.3646 49.1797 72.7814 49.4266C73.7293 49.9883 74.6773 50.5501 75.6251 51.112C78.3334 52.7175 81.0428 54.3212 83.7539 55.922C83.4731 56.668 83.0365 56.9518 82.3789 57.3795C82.18 57.5102 81.9812 57.6409 81.7763 57.7756C81.5657 57.9116 81.3552 58.0475 81.1446 58.1833C80.9332 58.3212 80.7219 58.4593 80.5108 58.5975C80.1256 58.8496 79.7399 59.1009 79.3536 59.3511C78.9532 59.5971 78.9532 59.5971 78.7441 59.8185C78.7148 60.2228 78.6988 60.6282 78.6877 61.0335C78.6841 61.1605 78.6805 61.2876 78.6768 61.4185C78.6454 62.5966 78.6275 63.775 78.6135 64.9535C78.604 65.7447 78.5902 66.5354 78.5659 67.3263C78.5425 68.0917 78.5303 68.8566 78.5256 69.6224C78.522 69.9129 78.5145 70.2033 78.503 70.4936C78.4232 72.264 78.4232 72.264 79.2151 73.7926C79.7571 74.3264 80.3542 74.7734 80.9707 75.2188C81.1751 75.3805 81.3785 75.5435 81.5808 75.7079C81.92 75.9831 82.262 76.2551 82.6072 76.5227C83.0072 76.8848 83.1614 77.1501 83.3828 77.631C82.8925 77.9138 82.4022 78.1967 81.9119 78.4795C81.4817 78.7277 81.0514 78.976 80.6212 79.2242C79.5916 79.8182 78.5621 80.4122 77.5322 81.0057C77.2012 81.1965 76.8702 81.3873 76.5392 81.5781C76.1218 81.8187 75.7044 82.0593 75.2869 82.2998C75.0967 82.4094 74.9066 82.519 74.7106 82.632C74.5441 82.728 74.3775 82.824 74.2059 82.9228C73.7277 83.1914 73.7277 83.1914 73.279 83.5226C72.6583 83.8266 72.3509 83.7557 71.6933 83.5685C71.2376 83.3531 71.2376 83.3531 70.7866 83.0799C70.6152 82.9777 70.4437 82.8755 70.2671 82.7702C69.9915 82.6028 69.9915 82.6028 69.7103 82.432C69.3088 82.1928 68.907 81.9541 68.5049 81.7159C68.2967 81.5923 68.0884 81.4688 67.8737 81.3415C66.8528 80.7441 65.8177 80.1731 64.7817 79.6024C63.0495 78.646 61.3259 77.6762 59.6096 76.6916C57.7006 75.5965 55.7854 74.5139 53.863 73.4427C53.6835 73.3426 53.504 73.2425 53.3191 73.1394C53.1627 73.0524 53.0063 72.9654 52.8451 72.8757C52.3816 72.6128 51.9246 72.3405 51.4687 72.0645C51.482 72.2813 51.4952 72.4981 51.5089 72.7214C51.6521 75.2101 51.6765 77.6899 51.6658 80.1822C51.6649 80.5676 51.6641 80.9529 51.6633 81.3383C51.6613 82.2672 51.6581 83.1961 51.6542 84.1251C51.4777 84.2133 51.3012 84.3015 51.1194 84.3923C49.9074 84.998 48.6956 85.6041 47.4848 86.2122C41.9047 89.0145 41.9047 89.0145 39.1075 90.3385C37.926 90.8978 36.7572 91.4782 35.595 92.0768C35.1406 92.2892 35.1406 92.2892 34.7695 92.2892C34.7571 90.2459 34.7922 88.2081 34.8623 86.1661C34.8712 85.8936 34.8802 85.6211 34.8891 85.3485C34.9106 84.6933 34.9326 84.0381 34.955 83.3829C34.8125 83.3284 34.67 83.2739 34.5231 83.2178C33.7713 82.9055 33.1399 82.4277 32.4726 81.9659C32.023 81.6718 32.023 81.6718 31.6272 81.7658C31.2342 81.902 30.9183 82.066 30.565 82.2848C30.4346 82.365 30.3043 82.4452 30.1699 82.5278C30.0307 82.6148 29.8915 82.7018 29.7481 82.7915C29.6034 82.8808 29.4587 82.9701 29.3096 83.062C28.5071 83.5588 27.7093 84.0627 26.9135 84.5701C26.7533 84.6721 26.5932 84.774 26.4283 84.879C26.1169 85.0777 25.806 85.2773 25.4957 85.4778C25.3549 85.5679 25.214 85.658 25.0689 85.7508C24.9444 85.8311 24.8199 85.9114 24.6916 85.9941C24.3789 86.1661 24.3789 86.1661 24.0078 86.1661C24.0063 85.9374 24.0048 85.7087 24.0033 85.473C23.9859 82.8045 23.967 80.136 23.9474 77.4676C23.9417 76.6942 23.9361 75.9209 23.9306 75.1476C23.8834 68.518 23.8119 61.8897 23.6962 55.261C23.6405 52.0698 23.5886 48.8788 23.5532 45.6874C23.5508 45.4705 23.5508 45.4705 23.5484 45.2492C23.5323 43.7868 23.5173 42.3244 23.5035 40.8619C23.4966 40.1296 23.4894 39.3973 23.4821 38.665C23.4806 38.5197 23.4792 38.3745 23.4777 38.2248C23.453 35.8184 23.4068 33.4128 23.3541 31.0069C23.2993 28.4832 23.2672 25.96 23.256 23.4357C23.2492 22.0386 23.2324 20.6432 23.1888 19.2467C22.9286 10.6846 22.9286 10.6846 24.3934 8.93197C25.6915 7.66196 27.3127 7.02019 29.0112 6.46665C30.1967 6.06589 31.2063 5.3733 32.253 4.69943C32.6252 4.47606 32.9981 4.25383 33.3721 4.03335C34.0315 3.63874 34.6791 3.23197 35.3203 2.80845C37.5148 1.3819 37.5148 1.3819 38.608 1.6843ZM36.7141 4.61536C36.5549 4.71247 36.3958 4.80957 36.2318 4.90962C36.0668 5.01247 35.9019 5.11532 35.732 5.22128C35.4062 5.42144 35.0802 5.62148 34.7543 5.82141C34.5994 5.91697 34.4445 6.01252 34.2849 6.11097C33.7108 6.46074 33.1289 6.79378 32.5429 7.12314C32.5429 7.2456 32.5429 7.36806 32.5429 7.49423C33.245 7.86996 33.9482 8.24323 34.6527 8.61426C34.8923 8.74086 35.1315 8.86811 35.3703 8.99605C35.7134 9.17972 36.0578 9.36096 36.4024 9.54177C36.7129 9.70647 36.7129 9.70647 37.0296 9.8745C37.5534 10.1593 37.5534 10.1593 38.1093 9.90634C38.1706 8.0082 38.2318 6.11005 38.2949 4.15439C37.5202 4.15439 37.3439 4.22619 36.7141 4.61536ZM26.5044 10.3889C24.7537 12.4846 25.5199 16.8418 25.5912 19.3599C25.6186 20.5035 25.6203 21.6471 25.6249 22.7909C25.6363 24.7436 25.6634 26.6956 25.7022 28.6479C25.7424 30.6707 25.7733 32.6933 25.7917 34.7164C25.7928 34.8416 25.7939 34.9668 25.7951 35.0958C25.8008 35.7284 25.8063 36.3609 25.8117 36.9935C25.8226 38.2577 25.8347 39.5218 25.8473 40.786C25.8485 40.9108 25.8498 41.0356 25.8511 41.1643C25.88 44.0395 25.9238 46.9144 25.9682 49.7894C26.0424 54.6093 26.0862 59.4287 26.1075 64.2491C26.109 64.5757 26.1105 64.9022 26.112 65.2288C26.1178 66.4601 26.1234 67.6914 26.1288 68.9227C26.142 71.8813 26.1665 74.8398 26.1937 77.7984C26.1958 78.0252 26.1979 78.252 26.2 78.4856C26.2111 79.6851 26.2225 80.8846 26.2343 82.0841C26.8739 81.8349 27.4378 81.5651 28.0173 81.1962C28.2502 81.0486 28.2502 81.0486 28.4877 80.898C28.727 80.7446 28.727 80.7446 28.9711 80.5881C29.1335 80.4851 29.296 80.3822 29.4633 80.2761C30.2058 79.8375 30.2058 79.8374 30.873 79.3009C30.8911 78.8893 30.8958 78.4771 30.8955 78.0651C30.8957 77.9331 30.8959 77.8012 30.8961 77.6653C30.8964 77.2151 30.8954 76.7649 30.8944 76.3148C30.8943 75.988 30.8943 75.6612 30.8944 75.3344C30.8943 74.4222 30.8929 73.51 30.8913 72.5977C30.8901 71.8079 30.8895 71.0181 30.8889 70.2283C30.8797 58.9702 30.8326 47.7122 30.7904 36.4543C30.7823 34.3117 30.7745 32.1691 30.7667 30.0264C30.7662 29.8732 30.7656 29.72 30.765 29.5621C30.7623 28.7926 30.7595 28.0231 30.7567 27.2536C30.734 20.9764 30.7109 14.6992 30.6875 8.42197C29.2299 8.42197 27.5147 9.40152 26.5044 10.3889ZM32.914 10.2774C32.9083 16.6595 32.9045 23.0415 32.9024 29.4236C32.9023 29.6599 32.9023 29.8962 32.9022 30.1397C32.8979 42.9128 32.9104 55.6852 33.0068 68.458C33.0079 68.6054 33.009 68.7529 33.0101 68.9048C33.0372 72.4939 33.0667 76.0829 33.0996 79.672C33.6506 79.9781 34.2017 80.2843 34.7695 80.5997C34.9089 75.3611 34.9728 70.1268 34.9342 64.8866C34.9333 64.7544 34.9323 64.6222 34.9313 64.4859C34.9221 63.2431 34.9124 62.0003 34.9023 60.7575C34.8859 58.6885 34.8754 56.6195 34.8683 54.5504C34.8675 54.3227 34.8675 54.3227 34.8667 54.0903C34.8618 52.6901 34.8574 51.2899 34.8533 49.8897C34.8506 48.9429 34.8476 47.9961 34.8445 47.0493C34.8439 46.8922 34.8434 46.7352 34.8429 46.5734C34.8339 44.0078 34.8124 41.4425 34.7867 38.8771C34.7604 36.2217 34.7483 33.5665 34.749 30.911C34.7491 29.2829 34.7382 27.6557 34.7127 26.0279C34.6964 24.9169 34.6938 23.8065 34.7019 22.6955C34.7061 22.0561 34.7045 21.4182 34.6864 20.7791C34.5974 17.0378 34.5974 17.0378 35.5166 15.9593C36.4082 15.2016 37.3854 14.6591 38.4546 14.1916C38.8576 13.9853 39.1091 13.7681 39.4082 13.4317C38.5434 12.9816 37.6782 12.5324 36.8125 12.0841C36.5179 11.9314 36.2235 11.7784 35.9292 11.6251C35.5067 11.4052 35.0838 11.1862 34.6608 10.9674C34.5287 10.8984 34.3967 10.8294 34.2607 10.7584C33.6208 10.4005 33.6208 10.4005 32.914 10.2774ZM47.86 10.958C47.6237 11.115 47.6237 11.115 47.3827 11.2751C47.1378 11.4414 47.1378 11.4414 46.888 11.6111C44.0714 13.5036 44.0714 13.5036 42.8918 13.9639C40.7576 14.8343 37.8962 16.1563 36.8789 18.353C36.4475 20.0604 36.5028 21.8002 36.5602 23.5491C36.5802 24.3363 36.5697 25.1232 36.5631 25.9105C36.5559 27.2709 36.5674 28.63 36.5923 29.9902C36.6281 31.9566 36.6351 33.9223 36.6354 35.8891C36.6366 39.0807 36.661 42.2718 36.7002 45.4632C36.7381 48.5607 36.7646 51.6579 36.7759 54.7556C36.7766 54.9469 36.7773 55.1382 36.7781 55.3352C36.7816 56.295 36.7848 57.2548 36.788 58.2146C36.808 64.0582 36.8425 69.9017 36.9047 75.745C36.9095 76.2059 36.914 76.6667 36.9184 77.1276C36.9251 77.8357 36.9328 78.5437 36.9413 79.2518C36.9443 79.509 36.947 79.7663 36.9493 80.0235C36.9525 80.3709 36.957 80.7182 36.9616 81.0656C36.9638 81.2592 36.966 81.4528 36.9682 81.6523C36.9479 82.0767 36.9479 82.0767 37.1816 82.2696C37.198 82.7374 37.203 83.2 37.1997 83.6677C37.1994 83.8075 37.1992 83.9473 37.1989 84.0913C37.1979 84.5394 37.1955 84.9874 37.1932 85.4355C37.1923 85.7386 37.1914 86.0417 37.1907 86.3448C37.1886 87.0893 37.1854 87.8337 37.1816 88.5782C38.0176 88.3208 38.7727 87.9887 39.5524 87.5932C39.7305 87.5034 39.7305 87.5034 39.9123 87.4117C40.1661 87.2837 40.4197 87.1553 40.6732 87.0267C41.3379 86.6894 42.0038 86.3544 42.6697 86.0197C42.8026 85.9529 42.9354 85.8861 43.0722 85.8173C44.4392 85.1316 45.818 84.4717 47.2022 83.8214C47.3614 83.7463 47.5205 83.6712 47.6846 83.5938C47.8207 83.5301 47.9568 83.4664 48.0971 83.4008C48.23 83.3337 48.363 83.2665 48.5 83.1974C48.7518 83.0842 48.7518 83.0842 49.0087 82.9687C49.4816 82.6717 49.4816 82.6717 49.5359 82.1067C49.5304 81.7812 49.5304 81.7812 49.5248 81.4492C49.5236 81.2697 49.5236 81.2696 49.5224 81.0865C49.5185 80.6921 49.508 80.2982 49.4973 79.9039C49.4932 79.6309 49.4894 79.3579 49.486 79.0849C49.4736 78.229 49.4513 77.3734 49.4277 76.5177C49.4202 76.2336 49.4128 75.9496 49.4054 75.6656C49.3616 74.0319 49.3067 72.3988 49.2421 70.7657C47.8836 71.5324 46.5332 72.3102 45.1992 73.1191C45.0199 73.2277 45.0199 73.2277 44.837 73.3385C44.3475 73.6352 43.8582 73.9323 43.3696 74.2305C43.0059 74.4524 42.6414 74.673 42.2769 74.8934C42.1122 74.9946 42.1122 74.9946 41.9442 75.0978C41.4172 75.4153 40.947 75.6739 40.3359 75.7755C40.1522 75.4081 39.9685 75.0407 39.7792 74.6622C39.5343 74.7234 39.2894 74.7847 39.0371 74.8477C39.0983 71.2964 39.1595 67.745 39.2226 64.086C39.4063 64.0248 39.59 63.9636 39.7792 63.9005C40.093 63.5959 40.4015 63.2857 40.707 62.9727C41.1094 62.6122 41.5223 62.2647 41.9362 61.9174C42.0424 61.8274 42.1486 61.7373 42.258 61.6446C42.7185 61.2564 43.1741 60.8951 43.6757 60.5606C43.7378 60.0897 43.7632 59.6628 43.7654 59.1906C43.7682 59.0494 43.771 58.9081 43.7738 58.7626C43.7819 58.2941 43.7857 57.8256 43.7888 57.3571C43.792 57.0316 43.7952 56.7062 43.7984 56.3807C43.8043 55.6975 43.8075 55.0144 43.8095 54.3311C43.8125 53.4566 43.8259 52.5826 43.8417 51.7082C43.8521 51.0355 43.855 50.3629 43.8558 49.6901C43.8575 49.3679 43.862 49.0456 43.8693 48.7234C43.9721 46.9898 43.9721 46.9898 43.3185 45.4667C42.8884 45.1746 42.4884 44.9789 42.0058 44.7892C40.8887 44.1713 39.8276 43.537 39.2226 42.377C38.9777 41.2496 39.0405 40.0683 39.0487 38.9212C39.0466 38.5946 39.044 38.268 39.0408 37.9414C39.0357 37.2996 39.0341 36.658 39.036 36.0163C39.038 35.2738 39.03 34.532 39.0168 33.7897C39.0117 33.4283 39.0068 33.0668 39.0023 32.7054C38.9998 32.5467 38.9973 32.388 38.9947 32.2244C38.994 31.435 39.0398 30.8321 39.4082 30.131C39.7909 29.8503 39.7909 29.8503 40.2678 29.6168C40.5353 29.4832 40.5353 29.4832 40.8081 29.3469C41.001 29.2543 41.1939 29.1617 41.3926 29.0662C41.6884 28.9199 41.6884 28.9199 41.9901 28.7707C42.6202 28.4598 43.2523 28.1531 43.8845 27.8464C44.312 27.6364 44.7394 27.4261 45.1666 27.2155C46.2144 26.6998 47.2637 26.1875 48.3144 25.6778C48.2226 26.0452 48.2226 26.0452 48.1289 26.42C48.7718 26.3282 48.7718 26.3282 49.4277 26.2345C49.4277 21.0299 49.4277 15.8253 49.4277 10.463C48.6361 10.463 48.4859 10.5355 47.86 10.958ZM51.7405 41.4421C51.5309 41.5828 51.5309 41.5828 51.317 41.7264C51.0209 41.9255 50.725 42.1249 50.4293 42.3245C49.9748 42.6307 49.5192 42.9352 49.0635 43.2395C48.7767 43.4327 48.4901 43.626 48.2035 43.8194C48.0661 43.9108 47.9287 44.0022 47.7871 44.0965C47.4614 44.3178 47.1446 44.5522 46.83 44.7892C46.83 44.9116 46.83 45.0341 46.83 45.1602C47.1833 45.4185 47.1833 45.4185 47.6476 45.6734C47.8255 45.776 48.0033 45.8785 48.1866 45.9842C48.3819 46.095 48.5771 46.2058 48.7783 46.3199C49.1912 46.5574 49.6041 46.7949 50.0169 47.0324C50.2288 47.1536 50.4406 47.2749 50.6588 47.3998C51.5927 47.9355 52.5222 48.4786 53.4517 49.0219C53.6327 49.1275 53.8136 49.233 54 49.3418C55.5923 50.2705 57.1823 51.2028 58.7723 52.1354C60.4718 53.1323 62.1729 54.1265 63.8753 55.1184C64.9168 55.7256 65.9575 56.3341 66.9974 56.9439C67.1796 57.0508 67.1796 57.0508 67.3655 57.1598C68.0712 57.5737 68.7768 57.9878 69.4822 58.4021C69.7927 58.5841 70.1038 58.7651 70.4149 58.946C70.7336 59.1337 71.0502 59.325 71.362 59.524C71.982 59.922 71.982 59.922 72.6976 59.9483C73.4774 59.7374 74.1935 59.4072 74.9288 59.0763C75.0922 59.003 75.2556 58.9297 75.424 58.8542C76.8692 58.1889 78.1851 57.3899 79.4863 56.4786C79.2632 55.8093 79.1273 55.7698 78.5281 55.4393C78.3673 55.3493 78.2066 55.2593 78.041 55.1666C77.8673 55.0714 77.6937 54.9763 77.5148 54.8783C77.1533 54.676 76.7919 54.4736 76.4306 54.2709C76.2533 54.1719 76.0761 54.073 75.8935 53.971C75.2827 53.6269 74.682 53.2698 74.0822 52.9068C72.8111 52.1377 71.5338 51.3792 70.2553 50.6223C70.038 50.4936 69.8206 50.3649 69.6033 50.2362C69.16 49.9737 68.7167 49.7112 68.2734 49.4488C67.0094 48.7004 65.7459 47.9515 64.4823 47.2024C63.5363 46.6416 62.5902 46.0811 61.6432 45.5219C59.2858 44.1297 56.9344 42.7293 54.6029 41.2941C54.4368 41.1923 54.2708 41.0904 54.0997 40.9854C53.9538 40.8955 53.8078 40.8056 53.6575 40.7129C52.93 40.2953 52.3543 41.0291 51.7405 41.4421ZM45.9023 47.2013C45.9023 51.5486 45.9023 55.896 45.9023 60.3751C47.1881 61.018 47.1881 61.018 48.5 61.6739C49.2047 62.0736 49.9034 62.4768 50.5989 62.8916C52.1462 63.8044 53.7023 64.6976 55.2724 65.5704C56.9849 66.5233 58.6813 67.5005 60.3713 68.4928C61.6933 69.267 63.0256 70.0207 64.3642 70.7657C65.8972 71.619 67.4199 72.4874 68.9333 73.375C70.4618 74.2712 71.9955 75.1572 73.5372 76.0306C73.722 76.1356 73.9068 76.2406 74.0972 76.3488C74.2661 76.4443 74.4351 76.5397 74.6091 76.638C74.7586 76.7225 74.9081 76.807 75.0621 76.8941C75.3672 77.0887 75.3672 77.0887 75.5898 77.0743C75.5898 71.8697 75.5898 66.6651 75.5898 61.3028C74.6459 61.4916 73.9582 61.8106 73.1074 62.2378C72.554 62.4407 72.422 62.4132 71.8789 62.2306C71.5869 62.0856 71.2997 61.9308 71.0164 61.7696C70.8473 61.6738 70.6782 61.578 70.504 61.4794C70.3224 61.3752 70.1409 61.271 69.9538 61.1637C69.6691 61.0015 69.6691 61.0015 69.3786 60.836C67.7638 59.913 66.1619 58.9687 64.5628 58.0188C63.5064 57.3916 62.4456 56.7721 61.3839 56.1539C59.7162 55.1826 58.0503 54.2081 56.3857 53.2315C54.5198 52.1369 52.6524 51.0448 50.783 49.9561C49.9445 49.4676 49.1068 48.9776 48.2716 48.4834C48.1232 48.3956 47.9747 48.3078 47.8217 48.2174C47.5472 48.0548 47.2728 47.8919 46.9987 47.7286C46.4829 47.3636 46.4829 47.3636 45.9023 47.2013ZM43.7569 63.2511C43.5856 63.3971 43.5856 63.3971 43.4108 63.5461C43.1277 63.7875 42.845 64.0295 42.5625 64.2716C43.0949 64.6881 43.6381 65.0314 44.2288 65.3595C44.5033 65.5126 44.5033 65.5126 44.7834 65.6687C44.9804 65.7779 45.1774 65.887 45.3804 65.9995C45.8016 66.2341 46.2227 66.4687 46.6438 66.7033C46.8616 66.8244 47.0795 66.9455 47.2974 67.0667C50.369 68.775 53.4296 70.5016 56.4785 72.2501C57.3287 72.7375 58.1791 73.2246 59.0297 73.7113C59.1398 73.7743 59.2498 73.8372 59.3632 73.9021C61.1049 74.8985 62.8542 75.8806 64.6072 76.8571C66.18 77.7359 67.737 78.6405 69.2879 79.5575C70.8754 80.6636 70.8754 80.6636 72.6274 81.1003C73.1773 80.905 73.6517 80.6087 74.1518 80.3098C74.3518 80.1909 74.5517 80.072 74.7577 79.9496C74.9099 79.858 75.062 79.7663 75.2187 79.672C74.7803 79.1864 74.3217 78.8976 73.7495 78.5841C73.565 78.482 73.3805 78.38 73.1904 78.2749C72.8913 78.1112 72.8913 78.1111 72.5863 77.9441C72.1621 77.7093 71.7381 77.4742 71.3142 77.2388C71.2062 77.1788 71.0981 77.1189 70.9868 77.057C69.9142 76.46 68.8549 75.8412 67.7968 75.2188C66.2913 74.3347 64.7765 73.4702 63.2509 72.6212C61.5385 71.6682 59.842 70.6911 58.152 69.6988C56.83 68.9246 55.4978 68.1709 54.1591 67.4259C52.2303 66.3521 50.3193 65.2501 48.4151 64.1331C48.2492 64.0358 48.0833 63.9385 47.9124 63.8382C47.531 63.6142 47.1498 63.3896 46.7689 63.1647C46.4651 62.9861 46.4651 62.9861 46.1552 62.8039C45.9695 62.6943 45.7837 62.5848 45.5923 62.4719C44.7584 62.0063 44.3955 62.7033 43.7569 63.2511ZM77.8164 75.5899C77.8164 76.3859 77.8164 77.1819 77.8164 78.002C78.8727 77.7042 78.8727 77.7042 79.4863 77.2599C79.2008 76.4033 78.5365 76.07 77.8164 75.5899Z" fill="black"/>
<path d="M47.6856 26.5332C47.7642 27.6814 47.821 28.828 47.8588 29.9782C47.8746 30.3683 47.8961 30.7581 47.9235 31.1475C48.1393 34.2873 48.1393 34.2873 47.3916 35.2687C46.6481 35.9566 45.8025 36.4432 44.9075 36.9083C44.4419 37.1571 44.0336 37.4549 43.6195 37.7813C43.5016 37.8704 43.3837 37.9594 43.2622 38.0512C43.1529 38.1346 43.0436 38.218 42.9309 38.3038C42.4758 38.6492 42.0199 38.9936 41.5625 39.3359C41.4435 39.4252 41.3244 39.5144 41.2018 39.6064C40.3074 40.2637 40.3074 40.2637 39.8926 40.2637C39.8391 39.1946 39.7862 38.1256 39.7341 37.0565C39.7163 36.6937 39.6983 36.3309 39.6801 35.9682C39.4864 32.1027 39.4864 32.1027 39.5215 30.2441C42.7901 28.4203 42.7901 28.4203 44.5313 28.0176C44.5313 27.8951 44.5313 27.7727 44.5313 27.6465C44.917 27.4592 45.3037 27.2741 45.6909 27.0898C45.9062 26.9865 46.1215 26.8832 46.3433 26.7767C46.9434 26.5332 46.9434 26.5332 47.6856 26.5332Z" fill="#AFAFAF"/>
<path d="M48.0531 35.4856C48.4276 35.6253 48.743 35.786 49.0829 35.9957C49.2028 36.0688 49.3226 36.1419 49.4461 36.2172C49.5692 36.2936 49.6924 36.37 49.8193 36.4487C50.8634 37.0986 50.8634 37.0986 51.9531 37.6664C51.9531 37.8501 51.9531 38.0338 51.9531 38.223C51.7391 38.325 51.5251 38.427 51.3046 38.5321C50.4792 38.9453 49.7286 39.4345 48.9699 39.9582C48.8337 40.051 48.6975 40.1438 48.5573 40.2394C48.1269 40.5328 47.6974 40.8274 47.2681 41.1222C46.8359 41.4181 46.4036 41.7138 45.9709 42.009C45.7029 42.1919 45.4353 42.3752 45.168 42.5591C45.0466 42.6421 44.9251 42.7252 44.8 42.8107C44.694 42.8834 44.5881 42.9562 44.4789 43.0311C44.1317 43.2508 43.7973 43.445 43.418 43.6039C43.0101 43.4475 43.0101 43.4475 42.5743 43.1661C42.4176 43.0661 42.261 42.9662 42.0996 42.8631C41.9376 42.7555 41.7757 42.6479 41.6089 42.537C41.4441 42.4322 41.2793 42.3275 41.1095 42.2195C40.2236 41.6453 40.2236 41.6453 39.8926 41.3773C39.8926 41.2549 39.8926 41.1324 39.8926 41.0062C40.3421 40.662 40.7936 40.3391 41.261 40.0205C41.5501 39.8202 41.839 39.6196 42.1278 39.4189C42.2786 39.3145 42.4294 39.21 42.5848 39.1024C43.3405 38.5746 44.0866 38.0336 44.8328 37.4924C45.6266 36.9173 45.6266 36.9173 46.0202 36.6351C46.2654 36.4561 46.5074 36.2726 46.746 36.0848C47.5963 35.4287 47.5963 35.4287 48.0531 35.4856Z" fill="#ACACAC"/>
<path d="M39.5215 64.0137C40.1549 64.172 40.508 64.3169 41.0522 64.6399C41.8214 65.0799 42.5812 65.3945 43.418 65.6836C43.418 65.8061 43.418 65.9285 43.418 66.0547C43.5672 66.1006 43.7165 66.1465 43.8702 66.1938C44.7973 66.5191 45.6935 66.9141 46.5723 67.3535C46.5723 67.476 46.5723 67.5984 46.5723 67.7246C46.9396 67.8471 47.307 67.9695 47.6855 68.0957C47.6855 68.2794 47.6855 68.4631 47.6855 68.6523C47.3638 68.9216 47.3638 68.9216 46.91 69.2032C46.7428 69.3082 46.5755 69.4133 46.4032 69.5216C46.2217 69.6327 46.0402 69.7439 45.8533 69.8584C45.67 69.9729 45.4868 70.0874 45.2979 70.2054C44.4011 70.7642 43.4991 71.3143 42.5953 71.8617C42.4421 71.9546 42.2889 72.0476 42.131 72.1433C41.8416 72.3181 41.5515 72.4919 41.2607 72.6644C40.5555 73.0478 40.5555 73.0478 40.0781 73.6621C39.8944 73.6621 39.7107 73.6621 39.5215 73.6621C39.5215 70.4781 39.5215 67.2941 39.5215 64.0137Z" fill="#ADADAD"/>
<path d="M39.336 30.2441C39.3972 30.2441 39.4585 30.2441 39.5216 30.2441C39.8063 33.5909 39.9475 36.9049 39.8927 40.2637C40.3453 39.9472 40.7976 39.6302 41.2495 39.3127C41.4587 39.1659 41.4587 39.1659 41.6721 39.0161C42.4634 38.458 43.2468 37.8914 44.0218 37.3109C44.1804 37.1923 44.339 37.0737 44.5025 36.9515C44.8124 36.7189 45.1214 36.4852 45.4296 36.2504C45.5708 36.1445 45.7121 36.0386 45.8577 35.9294C45.9824 35.8348 46.1071 35.7401 46.2356 35.6426C46.5723 35.4395 46.5723 35.4395 47.129 35.4395C46.457 36.4906 45.7741 37.12 44.7401 37.8052C44.4604 37.9963 44.1808 38.1876 43.9015 38.3792C43.6896 38.5234 43.6896 38.5234 43.4734 38.6706C42.7914 39.1412 42.1246 39.6322 41.4582 40.1245C41.2776 40.2575 41.2776 40.2575 41.0934 40.3932C40.8166 40.5972 40.5402 40.8015 40.2637 41.0059C40.2025 40.8834 40.1413 40.7609 40.0782 40.6348C39.9557 40.6348 39.8333 40.6348 39.7071 40.6348C39.6535 39.5427 39.6007 38.4506 39.5486 37.3585C39.5308 36.988 39.5128 36.6175 39.4946 36.247C39.3963 34.2449 39.3018 32.2493 39.336 30.2441Z" fill="#3B3B3B"/>
<path d="M46.7578 35.2539C46.8803 35.3151 47.0027 35.3764 47.1289 35.4395C46.5803 36.2702 46.1903 36.8496 45.2734 37.2949C45.2734 37.1725 45.2734 37.05 45.2734 36.9238C44.9673 37.0463 44.6611 37.1687 44.3457 37.2949C45.0823 36.5123 45.8873 35.8825 46.7578 35.2539Z" fill="#252525"/>
<path d="M41.1914 39.3359C41.3139 39.3972 41.4363 39.4584 41.5625 39.5215C41.1782 40.27 40.8266 40.6215 40.0781 41.0059C40.0781 40.8834 40.0781 40.7609 40.0781 40.6348C39.9557 40.5735 39.8332 40.5123 39.707 40.4492C39.8907 40.4492 40.0744 40.4492 40.2637 40.4492C40.3249 40.2655 40.3861 40.0818 40.4492 39.8926C40.8319 39.5795 40.8319 39.5795 41.1914 39.3359Z" fill="#262626"/>
<path d="M41.748 38.9648C41.993 38.9648 42.2379 38.9648 42.4902 38.9648C42.2792 39.5979 42.1111 39.729 41.5625 40.0781C41.44 40.0781 41.3176 40.0781 41.1914 40.0781C41.5393 39.1736 41.5393 39.1736 41.748 38.9648Z" fill="#191919"/>
</g>
<defs>
<radialGradient id="paint0_radial_1966_20" cx="0" cy="0" r="1" gradientUnits="userSpaceOnUse" gradientTransform="translate(47.5 47.5) rotate(90) scale(47.5)">
<stop offset="0.466346" stop-color="white"/>
<stop offset="1" stop-color="white" stop-opacity="0.5"/>
</radialGradient>
<clipPath id="clip0_1966_20">
<rect width="95" height="95" fill="white"/>
</clipPath>
</defs>
</svg>
