<svg width="25" height="25" viewBox="0 0 25 25" fill="none" xmlns="http://www.w3.org/2000/svg">
<g clip-path="url(#clip0_1961_1267)">
<path d="M12.0308 12.5L10 9.5L10.4739 8.8L11.6923 10.6V6H12.3693V10.6L13.5878 8.8L14.0616 9.5L12.0308 12.5Z" fill="white"/>
<path d="M24.7607 12.9561H24.8057L24.8105 13.001C24.8184 13.0851 24.8262 13.1698 24.834 13.2539C24.8362 13.2772 24.8386 13.3007 24.8408 13.3242C24.843 13.3478 24.8444 13.3723 24.8467 13.3965L24.8867 14.0195C24.9139 14.6423 24.9082 15.2659 24.9082 15.8867V15.9365H0.00585938L0.00390625 15.8887C-0.0522494 14.4848 -0.0531236 14.4836 -0.0488281 13.833C-0.0485814 13.7657 -0.0480499 13.6982 -0.0478516 13.6309C-0.0472919 13.4714 -0.0459554 13.3119 -0.0449219 13.1523V13.1025H0.142578C1.65486 13.0972 3.1674 13.0904 4.67969 13.084C4.76788 13.0836 4.76842 13.0844 4.8584 13.084C8.38269 13.0691 11.9066 13.0432 15.4307 13.002C16.177 12.9932 16.9236 12.9849 17.6699 12.9766C17.7357 12.9758 17.7359 12.9754 17.8027 12.9746C20.122 12.9488 22.4415 12.9444 24.7607 12.9561ZM24.2744 13.4951C22.324 13.4883 20.3733 13.498 18.4229 13.5156C18.2565 13.5171 18.0901 13.5181 17.9238 13.5195C17.597 13.5224 17.2702 13.5262 16.9434 13.5293C16.8871 13.5298 16.8304 13.5297 16.7725 13.5303C16.0999 13.5368 15.4273 13.5451 14.7549 13.5547C11.9493 13.5945 9.14349 13.6075 6.33789 13.6182C5.69318 13.6206 5.04804 13.6233 4.40332 13.626C3.10003 13.6314 1.79645 13.6356 0.493164 13.6406C0.484883 14.2267 0.516954 14.8078 0.541016 15.3975H24.3682C24.3518 14.4607 24.3495 14.4307 24.2744 13.4951Z" fill="white" stroke="white" stroke-width="0.1"/>
<path d="M3.97363 14.1523C3.04539 14.1519 2.12166 14.1567 1.19531 14.1895V14.8096C1.74713 14.8347 2.29446 14.8482 2.84766 14.8477H21.8203C21.9315 14.8478 22.0431 14.8468 22.1543 14.8467C22.2466 14.8467 22.2468 14.8467 22.3408 14.8467C22.5301 14.844 22.5378 14.843 22.8047 14.8125V14.1895C22.3001 14.1633 21.8004 14.1518 21.2939 14.1523H3.97363ZM23.0498 15.0107H23.001C20.8899 15.0374 18.7793 15.0504 16.668 15.0498H7.8252C5.54959 15.0504 3.27426 15.035 0.999023 15.0107H0.950195V13.9893H1C5.14747 13.9608 9.2948 13.9506 13.4424 13.9502C13.8886 13.9502 14.3351 13.9504 14.7812 13.9502C17.5213 13.9493 20.261 13.9526 23.001 13.9893H23.0498V15.0107Z" fill="white" stroke="white" stroke-width="0.1"/>
<path d="M0 14C3.59848 16.5657 13.6364 20.1577 25 14" stroke="#8A8A8A"/>
<path d="M1.70898 16C1.84294 16.1162 1.89603 16.2248 1.95726 16.3902C1.98511 16.4645 1.98511 16.4645 2.01351 16.5403C2.04282 16.6204 2.04282 16.6204 2.07272 16.7021C2.0931 16.7569 2.11349 16.8118 2.13449 16.8683C2.17748 16.9841 2.22027 17.1001 2.26289 17.2161C2.32835 17.3943 2.39441 17.5722 2.46058 17.7501C2.50222 17.8626 2.54384 17.9751 2.58541 18.0876C2.60524 18.1411 2.62508 18.1946 2.64551 18.2497C2.66361 18.2991 2.68171 18.3485 2.70036 18.3994C2.7164 18.4429 2.73244 18.4865 2.74897 18.5314C2.7832 18.6367 2.7832 18.6367 2.7832 18.7344C2.68652 18.7344 2.58984 18.7344 2.49023 18.7344C2.47656 18.7769 2.46289 18.8194 2.44881 18.8632C2.35908 19.1252 2.24577 19.3757 2.13318 19.6285C2.11005 19.6827 2.08692 19.7369 2.06308 19.7927C2.04008 19.8441 2.01707 19.8955 1.99337 19.9484C1.97277 19.9954 1.95217 20.0424 1.93094 20.0908C1.85547 20.1992 1.85547 20.1992 1.72478 20.2393C1.68734 20.2422 1.6499 20.2451 1.61133 20.248C1.54199 20.0253 1.58691 19.9095 1.68591 19.7024C1.7125 19.6459 1.73909 19.5894 1.76649 19.5312C1.79512 19.4721 1.82376 19.413 1.85242 19.3539C1.88093 19.2939 1.90938 19.2338 1.93777 19.1737C2.0074 19.027 2.07764 18.8806 2.14844 18.7344C1.9873 18.7344 1.82617 18.7344 1.66016 18.7344C1.6409 18.7958 1.62164 18.8572 1.60179 18.9205C1.51086 19.1926 1.39664 19.4511 1.27563 19.7109C1.25505 19.7575 1.23447 19.804 1.21326 19.8519C1.19268 19.896 1.1721 19.9401 1.15089 19.9856C1.13265 20.0255 1.1144 20.0654 1.0956 20.1065C1.02539 20.1992 1.02539 20.1992 0.895476 20.237C0.838934 20.2425 0.838934 20.2425 0.78125 20.248C0.725732 20.1113 0.731322 20.0559 0.780666 19.914C0.805469 19.8619 0.830272 19.8097 0.855827 19.756C0.882421 19.6993 0.909014 19.6427 0.936413 19.5843C0.965043 19.5248 0.993685 19.4653 1.02234 19.4058C1.05084 19.3455 1.07929 19.2852 1.10769 19.2249C1.17741 19.0774 1.24765 18.9302 1.31836 18.7832C1.17334 18.7832 1.02832 18.7832 0.878906 18.7832C0.859961 18.8446 0.841015 18.9059 0.821495 18.9692C0.72963 19.2448 0.606325 19.5021 0.479126 19.7628C0.456498 19.8097 0.43387 19.8567 0.410557 19.905C0.355319 20.0195 0.299844 20.1338 0.244141 20.248C0.163574 20.248 0.0830078 20.248 0 20.248C0.0195442 19.9003 0.13563 19.6463 0.292969 19.3386C0.338076 19.2497 0.382846 19.1605 0.427246 19.0712C0.447136 19.0323 0.467026 18.9933 0.487518 18.9532C0.542652 18.8314 0.542652 18.8314 0.560379 18.6902C0.589174 18.5199 0.644404 18.3839 0.714111 18.2261C0.733379 18.182 0.733379 18.182 0.753036 18.1371C0.794688 18.0421 0.836792 17.9472 0.878906 17.8524C0.907726 17.7869 0.936511 17.7214 0.965261 17.6558C1.00866 17.5569 1.05208 17.458 1.09564 17.3591C1.24417 17.0219 1.38843 16.6829 1.53179 16.3434C1.65488 16.0541 1.65488 16.0541 1.70898 16ZM1.70898 16.293C1.59228 16.5578 1.47586 16.8227 1.3597 17.0878C1.32019 17.1779 1.28059 17.2679 1.24092 17.3579C1.18375 17.4876 1.12686 17.6174 1.07002 17.7473C1.04354 17.8072 1.04354 17.8072 1.01653 17.8682C0.920127 18.0893 0.841599 18.3054 0.78125 18.5391C0.939876 18.6448 0.985645 18.6489 1.16882 18.6459C1.23142 18.6454 1.23142 18.6454 1.29528 18.6449C1.41536 18.6404 1.41536 18.6404 1.52607 18.6087C1.5542 18.6018 1.58234 18.595 1.61133 18.5879C1.6355 18.6121 1.6355 18.6121 1.66016 18.6367C1.97169 18.6577 2.27918 18.6277 2.58789 18.5879C2.45375 18.1022 2.27022 17.6359 2.09045 17.1658C2.05817 17.081 2.02591 16.9962 1.99366 16.9113C1.91522 16.7051 1.83657 16.499 1.75781 16.293C1.7417 16.293 1.72559 16.293 1.70898 16.293Z" fill="white"/>
<path d="M23.6113 16C23.7453 16.1162 23.7984 16.2248 23.8596 16.3902C23.8874 16.4645 23.8874 16.4645 23.9159 16.5403C23.9452 16.6204 23.9452 16.6204 23.9751 16.7021C23.9954 16.7569 24.0158 16.8118 24.0368 16.8683C24.0798 16.9841 24.1226 17.1001 24.1652 17.2161C24.2307 17.3943 24.2968 17.5722 24.3629 17.7501C24.4046 17.8626 24.4462 17.9751 24.4878 18.0876C24.5076 18.1411 24.5274 18.1946 24.5479 18.2497C24.566 18.2991 24.5841 18.3485 24.6027 18.3994C24.6187 18.4429 24.6348 18.4865 24.6513 18.5314C24.6855 18.6367 24.6855 18.6367 24.6855 18.7344C24.6372 18.7505 24.5889 18.7666 24.5391 18.7832C24.4778 18.8912 24.4256 18.9955 24.3752 19.1084C24.3603 19.1409 24.3453 19.1733 24.3299 19.2067C24.2821 19.3105 24.2351 19.4146 24.1881 19.5187C24.1559 19.589 24.1236 19.6594 24.0913 19.7297C24.0122 19.9023 23.9337 20.0751 23.8555 20.248C23.7749 20.248 23.6943 20.248 23.6113 20.248C23.5984 20.0213 23.632 19.8747 23.7288 19.6701C23.7531 19.6182 23.7773 19.5663 23.8023 19.5128C23.8407 19.4326 23.8407 19.4326 23.8799 19.3508C23.9055 19.2963 23.9311 19.2417 23.9575 19.1855C24.0207 19.0511 24.0843 18.9171 24.1484 18.7832C24.0034 18.7671 23.8584 18.751 23.709 18.7344C23.6953 18.7769 23.6816 18.8194 23.6676 18.8632C23.5778 19.1252 23.4645 19.3757 23.3519 19.6285C23.3288 19.6827 23.3057 19.7369 23.2818 19.7927C23.2588 19.8441 23.2358 19.8955 23.2121 19.9484C23.1915 19.9954 23.1709 20.0424 23.1497 20.0908C23.0742 20.1992 23.0742 20.1992 22.9435 20.2393C22.9061 20.2422 22.8687 20.2451 22.8301 20.248C22.7607 20.0253 22.8057 19.9095 22.9047 19.7024C22.9445 19.6176 22.9445 19.6176 22.9852 19.5312C23.0139 19.4721 23.0425 19.413 23.0712 19.3539C23.0997 19.2939 23.1281 19.2338 23.1565 19.1737C23.2262 19.027 23.2964 18.8806 23.3672 18.7344C23.202 18.7327 23.0751 18.7554 22.9277 18.832C22.7875 19.0272 22.703 19.2417 22.6134 19.4637C22.5637 19.5802 22.5139 19.6966 22.4641 19.813C22.4322 19.8907 22.4322 19.8907 22.3997 19.9699C22.3418 20.1016 22.3418 20.1016 22.2441 20.248C22.1636 20.2319 22.083 20.2158 22 20.1992C22.0307 20.0079 22.0895 19.8503 22.1711 19.6749C22.1952 19.6228 22.2192 19.5707 22.244 19.5171C22.2693 19.4632 22.2945 19.4094 22.3204 19.3539C22.3585 19.2717 22.3585 19.2717 22.3974 19.1878C22.46 19.0529 22.5229 18.918 22.5859 18.7832C22.5376 18.7832 22.4893 18.7832 22.4395 18.7832C22.4724 18.5636 22.5531 18.3709 22.6413 18.1688C22.6566 18.1331 22.672 18.0974 22.6878 18.0606C22.7371 17.9463 22.7866 17.8322 22.8362 17.7181C22.8684 17.6435 22.9005 17.5689 22.9327 17.4943C23.0123 17.3097 23.0924 17.1252 23.1726 16.9408C23.2216 16.828 23.2705 16.715 23.3193 16.6021C23.3504 16.5304 23.3815 16.4587 23.4126 16.387C23.427 16.3536 23.4414 16.3202 23.4562 16.2857C23.5569 16.0544 23.5569 16.0544 23.6113 16ZM23.6113 16.293C23.4877 16.5717 23.3643 16.8505 23.2412 17.1295C23.1993 17.2243 23.1573 17.3191 23.1153 17.4138C23.0547 17.5503 22.9944 17.687 22.9342 17.8236C22.9155 17.8656 22.8968 17.9077 22.8775 17.951C22.7782 18.1771 22.696 18.3974 22.6348 18.6367C22.674 18.6277 22.7133 18.6186 22.7538 18.6093C22.7951 18.6022 22.8364 18.5952 22.8789 18.5879C22.895 18.604 22.9111 18.6201 22.9277 18.6367C23.0151 18.6416 23.1027 18.6431 23.1902 18.6428C23.2379 18.6429 23.2856 18.6431 23.3348 18.6432C23.47 18.6423 23.47 18.6423 23.6113 18.5879C23.6436 18.604 23.6758 18.6201 23.709 18.6367C23.842 18.6324 23.9732 18.6253 24.1057 18.6154C24.1425 18.6128 24.1794 18.6103 24.2173 18.6076C24.3083 18.6013 24.3993 18.5946 24.4902 18.5879C24.3561 18.1022 24.1726 17.6359 23.9928 17.1658C23.9605 17.081 23.9283 16.9962 23.896 16.9113C23.8176 16.7051 23.7389 16.499 23.6602 16.293C23.644 16.293 23.6279 16.293 23.6113 16.293Z" fill="white"/>
<path d="M0 16C3.59848 18.2639 13.6364 21.4333 25 16" stroke="#8A8A8A"/>
</g>
<defs>
<clipPath id="clip0_1961_1267">
<rect width="25" height="25" fill="white"/>
</clipPath>
</defs>
</svg>
