<svg width="25" height="25" viewBox="0 0 25 25" fill="none" xmlns="http://www.w3.org/2000/svg">
<mask id="path-1-outside-1_1957_1177" maskUnits="userSpaceOnUse" x="0" y="6" width="25" height="14" fill="black">
<rect fill="white" y="6" width="25" height="14"/>
<path d="M12.7764 7C12.9899 7.10008 13.1256 7.22773 13.2913 7.39767C13.3184 7.42534 13.3454 7.453 13.3733 7.48151C13.5517 7.66545 13.7201 7.85568 13.8855 8.05151C14.026 8.2094 14.1749 8.3578 14.3245 8.50695C14.5401 8.7219 14.7452 8.9403 14.9415 9.17344C15.0712 9.31987 15.2089 9.45744 15.3474 9.59531C15.5185 9.76573 15.6857 9.93706 15.8415 10.122C16.0082 10.3196 16.1874 10.5014 16.3702 10.6837C16.5846 10.8974 16.7883 11.1146 16.9835 11.3464C17.1509 11.5347 17.3307 11.7102 17.5089 11.8879C17.6944 12.0737 17.8684 12.2654 18.0377 12.4664C18.1673 12.6128 18.3051 12.7504 18.4435 12.8883C18.6146 13.0587 18.7818 13.23 18.9376 13.415C19.1044 13.6126 19.2836 13.7944 19.4663 13.9766C19.6807 14.1904 19.8845 14.4075 20.0797 14.6394C20.247 14.8277 20.4268 15.0031 20.605 15.1809C20.7905 15.3667 20.9645 15.5583 21.1339 15.7594C21.2635 15.9058 21.4012 16.0434 21.5397 16.1813C21.7108 16.3517 21.878 16.523 22.0338 16.708C22.2272 16.9371 22.4385 17.1459 22.6505 17.3573C22.8383 17.5455 23.0152 17.7393 23.1862 17.9433C23.3353 18.1122 23.4987 18.2661 23.662 18.421C23.8059 18.5839 23.8948 18.7534 24 18.944C22.5547 18.9526 21.1094 18.9609 19.664 18.9687C18.9927 18.9724 18.3214 18.9761 17.6501 18.9802C17.0641 18.9837 16.478 18.987 15.892 18.99C15.5825 18.9917 15.2731 18.9934 14.9637 18.9954C13.8005 19.0028 12.6392 19.0063 11.4766 18.9653C10.5921 18.9346 9.70759 18.9337 8.82268 18.9312C8.50987 18.9303 8.19706 18.929 7.88424 18.9275C6.99654 18.9236 6.10885 18.9202 5.22114 18.9174C4.72702 18.9158 4.2329 18.9138 3.73878 18.9114C3.42785 18.9099 3.11693 18.9089 2.80599 18.9083C2.61383 18.9078 2.42166 18.9068 2.2295 18.9057C2.14044 18.9053 2.05137 18.9051 1.96231 18.9051C1.84094 18.905 1.71959 18.9043 1.59822 18.9034C1.53033 18.9031 1.46244 18.9029 1.39249 18.9026C1.22967 18.8889 1.13699 18.8629 1 18.7766C1.32384 18.4072 1.65638 18.0498 2.00232 17.7015C2.04843 17.6549 2.09453 17.6083 2.14204 17.5603C2.23865 17.4627 2.33534 17.3652 2.43209 17.2678C2.5792 17.1196 2.72601 16.9711 2.87279 16.8226C2.96733 16.7272 3.06189 16.6318 3.15647 16.5364C3.19979 16.4926 3.24311 16.4487 3.28774 16.4035C3.47515 16.2152 3.66322 16.0309 3.8643 15.8574C4.14763 15.6108 4.40875 15.3417 4.67208 15.0738C4.76686 14.9774 4.86181 14.8812 4.95682 14.785C5.15847 14.5808 5.3599 14.3764 5.5613 14.172C5.79497 13.9348 6.02873 13.6976 6.26273 13.4608C6.35557 13.3667 6.44824 13.2724 6.54091 13.1782C6.80389 12.9114 7.06898 12.6517 7.35248 12.4071C7.59299 12.1902 7.8176 11.956 8.04467 11.725C8.13945 11.6286 8.23441 11.5324 8.32941 11.4363C8.53106 11.2321 8.7325 11.0276 8.93389 10.8232C9.16757 10.586 9.40133 10.3489 9.63533 10.112C9.72817 10.0179 9.82084 9.92366 9.9135 9.8294C10.1805 9.55857 10.4495 9.29407 10.7375 9.04566C10.9364 8.86905 11.1212 8.67771 11.3078 8.48799C11.3502 8.44518 11.3925 8.40237 11.4361 8.35827C11.5697 8.22308 11.7031 8.0877 11.8365 7.95231C11.9277 7.85997 12.0189 7.76763 12.1102 7.67532C12.3324 7.45036 12.5545 7.22524 12.7764 7ZM12.5352 7.90785C12.5035 7.94044 12.4719 7.97302 12.4393 8.0066C12.4041 8.04261 12.3688 8.07862 12.3325 8.11572C12.2591 8.19128 12.1856 8.26686 12.1122 8.34246C12.0765 8.37897 12.0407 8.41548 12.0039 8.4531C11.9718 8.48613 11.9398 8.51916 11.9067 8.55319C11.8029 8.65352 11.6972 8.74742 11.588 8.8416C11.2996 9.09484 11.0321 9.36861 10.763 9.64228C10.6682 9.73868 10.5733 9.83489 10.4783 9.93107C10.2766 10.1353 10.0752 10.3397 9.8738 10.5441C9.64013 10.7813 9.40636 11.0185 9.17236 11.2553C9.07952 11.3494 8.98685 11.4437 8.89419 11.5379C8.6217 11.8143 8.34794 12.0861 8.05326 12.3387C7.93543 12.4406 7.82621 12.5499 7.71755 12.6615C7.66196 12.7184 7.66196 12.7184 7.60524 12.7764C7.56505 12.818 7.56505 12.818 7.52404 12.8604C7.64722 13.0904 7.79419 13.2548 7.98017 13.4359C8.1959 13.6486 8.40036 13.8664 8.59612 14.0979C8.71626 14.2356 8.84569 14.3626 8.97536 14.4912C9.11117 14.6307 9.23594 14.779 9.36238 14.9272C9.48401 15.0653 9.6136 15.1938 9.74423 15.3231C9.84247 15.424 9.9343 15.5279 10.0256 15.6351C10.2284 15.8705 10.4387 16.0979 10.6513 16.3243C10.7294 16.4078 10.8075 16.4913 10.8856 16.5748C10.9245 16.6163 10.9634 16.6579 11.0035 16.7007C11.1758 16.8852 11.3473 17.0703 11.5186 17.2557C11.5499 17.2894 11.5811 17.3232 11.6133 17.3579C11.7715 17.5291 11.929 17.701 12.0856 17.8737C12.1164 17.9077 12.1472 17.9416 12.1789 17.9766C12.2374 18.0411 12.2957 18.1057 12.3539 18.1705C12.42 18.2433 12.4875 18.3148 12.5553 18.3859C12.5735 18.3859 12.5918 18.3859 12.6106 18.3859C12.6202 17.4859 12.6294 16.5859 12.6382 15.6859C12.6392 15.5854 12.6392 15.5854 12.6402 15.4828C12.6588 13.5726 12.6712 11.6626 12.6693 9.75228C12.6693 9.70267 12.6692 9.65305 12.6692 9.60193C12.6686 9.01369 12.6675 8.42544 12.6659 7.8372C12.6002 7.83087 12.6002 7.83087 12.5352 7.90785ZM12.9976 7.8372C12.9875 8.45462 12.9784 9.07205 12.97 9.68949C12.9693 9.73732 12.9686 9.78514 12.968 9.83442C12.9418 11.764 12.9375 13.6934 12.9389 15.6231C12.9389 15.692 12.9389 15.761 12.939 15.832C12.9396 16.6833 12.9407 17.5346 12.9423 18.3859C13.1658 18.1607 13.3837 17.9318 13.5989 17.6987C13.6507 17.6426 13.6507 17.6426 13.7036 17.5853C13.9001 17.372 14.0937 17.1567 14.282 16.9358C14.4135 16.7843 14.5487 16.6364 14.6839 16.4882C14.8854 16.2673 15.0841 16.0444 15.2791 15.8176C15.4742 15.5922 15.6739 15.3709 15.8726 15.1487C15.9555 15.0557 16.0385 14.9627 16.1214 14.8696C16.247 14.7287 16.3726 14.5878 16.4985 14.4471C16.6864 14.2369 16.8738 14.0264 17.0578 13.8127C17.3032 13.5282 17.5557 13.2504 17.8077 12.972C17.6279 12.6709 17.4038 12.4415 17.1546 12.1976C16.8931 11.9403 16.6424 11.6798 16.4042 11.4003C16.2792 11.2566 16.1463 11.1242 16.0108 10.9906C15.8396 10.8203 15.6725 10.6489 15.5167 10.4639C15.3499 10.2664 15.1707 10.0845 14.988 9.90228C14.7736 9.68852 14.5699 9.47137 14.3746 9.2395C14.2076 9.05154 14.0282 8.8763 13.8501 8.69904C13.657 8.50581 13.4749 8.30691 13.3017 8.09511C13.209 7.99398 13.1074 7.91856 12.9976 7.8372ZM7.15997 13.2216C7.12213 13.26 7.0843 13.2985 7.04533 13.3382C7.00248 13.3816 6.95964 13.425 6.91549 13.4698C6.86879 13.5174 6.82209 13.565 6.77397 13.6141C6.72601 13.6627 6.67805 13.7113 6.62864 13.7614C6.42264 13.9703 6.21696 14.1795 6.01126 14.3887C5.86132 14.541 5.7112 14.6932 5.56108 14.8454C5.51516 14.8923 5.46925 14.9391 5.42194 14.9873C5.22642 15.1855 5.03066 15.3799 4.82032 15.5621C4.52652 15.8172 4.25564 16.0959 3.98212 16.3727C3.9245 16.4308 3.86687 16.4889 3.80924 16.547C3.68945 16.6679 3.56977 16.7888 3.45016 16.9098C3.29653 17.0652 3.14265 17.2204 2.9887 17.3755C2.87013 17.495 2.75168 17.6146 2.63328 17.7343C2.57653 17.7916 2.51974 17.8489 2.46292 17.9061C2.38405 17.9856 2.30537 18.0652 2.22671 18.1449C2.18188 18.1902 2.13705 18.2355 2.09087 18.2822C1.98891 18.3691 1.98891 18.3691 1.99519 18.4417C7.03087 18.4693 7.03087 18.4693 12.1683 18.4975C11.8822 18.1117 11.8822 18.1117 11.5636 17.7719C11.3611 17.5721 11.1716 17.3674 10.9876 17.1503C10.8682 17.0139 10.7402 16.8877 10.6115 16.7603C10.5133 16.6594 10.4215 16.5555 10.3301 16.4483C10.1273 16.2129 9.91711 15.9855 9.70448 15.7592C9.62621 15.6755 9.54796 15.5919 9.46972 15.5082C9.41136 15.4459 9.41136 15.4459 9.35182 15.3822C9.08688 15.0985 8.82392 14.813 8.56062 14.5277C8.45965 14.4185 8.35848 14.3095 8.25726 14.2005C8.18907 14.1271 8.1209 14.0536 8.05273 13.9801C8.02032 13.9452 7.9879 13.9102 7.95451 13.8742C7.75309 13.6564 7.55603 13.4356 7.36573 13.2077C7.34499 13.1852 7.32425 13.1626 7.30288 13.1394C7.23442 13.1331 7.23442 13.1331 7.15997 13.2216ZM18.0288 13.1953C17.7782 13.4423 17.5375 13.6937 17.309 13.9618C17.1738 14.118 17.0347 14.2706 16.8954 14.4231C16.6939 14.6441 16.4952 14.867 16.3002 15.0938C16.1051 15.3191 15.9054 15.5405 15.7067 15.7627C15.6238 15.8557 15.5408 15.9487 15.4579 16.0417C15.2921 16.2278 15.1262 16.4138 14.9603 16.5998C14.9194 16.6457 14.8785 16.6917 14.8364 16.7389C14.7521 16.8335 14.6677 16.928 14.5833 17.0224C14.363 17.2688 14.1443 17.5164 13.9286 17.7669C13.7631 17.9568 13.5937 18.1432 13.4246 18.3298C13.3233 18.4242 13.3233 18.4242 13.3293 18.4975C16.5222 18.4975 19.7151 18.4975 23.0048 18.4975C22.7754 18.1887 22.5605 17.9243 22.2895 17.6603C22.0538 17.4268 21.8268 17.1925 21.6135 16.9378C21.4478 16.7505 21.2689 16.5765 21.0919 16.4001C20.9077 16.2155 20.7351 16.0252 20.5669 15.8254C20.3996 15.6372 20.2198 15.4617 20.0416 15.284C19.8561 15.0982 19.6821 14.9065 19.5128 14.7055C19.3583 14.531 19.1922 14.3684 19.0271 14.2042C18.8762 14.0534 18.7329 13.8993 18.5956 13.7359C18.4233 13.5318 18.2345 13.3647 18.0288 13.1953Z"/>
</mask>
<path d="M12.7764 7C12.9899 7.10008 13.1256 7.22773 13.2913 7.39767C13.3184 7.42534 13.3454 7.453 13.3733 7.48151C13.5517 7.66545 13.7201 7.85568 13.8855 8.05151C14.026 8.2094 14.1749 8.3578 14.3245 8.50695C14.5401 8.7219 14.7452 8.9403 14.9415 9.17344C15.0712 9.31987 15.2089 9.45744 15.3474 9.59531C15.5185 9.76573 15.6857 9.93706 15.8415 10.122C16.0082 10.3196 16.1874 10.5014 16.3702 10.6837C16.5846 10.8974 16.7883 11.1146 16.9835 11.3464C17.1509 11.5347 17.3307 11.7102 17.5089 11.8879C17.6944 12.0737 17.8684 12.2654 18.0377 12.4664C18.1673 12.6128 18.3051 12.7504 18.4435 12.8883C18.6146 13.0587 18.7818 13.23 18.9376 13.415C19.1044 13.6126 19.2836 13.7944 19.4663 13.9766C19.6807 14.1904 19.8845 14.4075 20.0797 14.6394C20.247 14.8277 20.4268 15.0031 20.605 15.1809C20.7905 15.3667 20.9645 15.5583 21.1339 15.7594C21.2635 15.9058 21.4012 16.0434 21.5397 16.1813C21.7108 16.3517 21.878 16.523 22.0338 16.708C22.2272 16.9371 22.4385 17.1459 22.6505 17.3573C22.8383 17.5455 23.0152 17.7393 23.1862 17.9433C23.3353 18.1122 23.4987 18.2661 23.662 18.421C23.8059 18.5839 23.8948 18.7534 24 18.944C22.5547 18.9526 21.1094 18.9609 19.664 18.9687C18.9927 18.9724 18.3214 18.9761 17.6501 18.9802C17.0641 18.9837 16.478 18.987 15.892 18.99C15.5825 18.9917 15.2731 18.9934 14.9637 18.9954C13.8005 19.0028 12.6392 19.0063 11.4766 18.9653C10.5921 18.9346 9.70759 18.9337 8.82268 18.9312C8.50987 18.9303 8.19706 18.929 7.88424 18.9275C6.99654 18.9236 6.10885 18.9202 5.22114 18.9174C4.72702 18.9158 4.2329 18.9138 3.73878 18.9114C3.42785 18.9099 3.11693 18.9089 2.80599 18.9083C2.61383 18.9078 2.42166 18.9068 2.2295 18.9057C2.14044 18.9053 2.05137 18.9051 1.96231 18.9051C1.84094 18.905 1.71959 18.9043 1.59822 18.9034C1.53033 18.9031 1.46244 18.9029 1.39249 18.9026C1.22967 18.8889 1.13699 18.8629 1 18.7766C1.32384 18.4072 1.65638 18.0498 2.00232 17.7015C2.04843 17.6549 2.09453 17.6083 2.14204 17.5603C2.23865 17.4627 2.33534 17.3652 2.43209 17.2678C2.5792 17.1196 2.72601 16.9711 2.87279 16.8226C2.96733 16.7272 3.06189 16.6318 3.15647 16.5364C3.19979 16.4926 3.24311 16.4487 3.28774 16.4035C3.47515 16.2152 3.66322 16.0309 3.8643 15.8574C4.14763 15.6108 4.40875 15.3417 4.67208 15.0738C4.76686 14.9774 4.86181 14.8812 4.95682 14.785C5.15847 14.5808 5.3599 14.3764 5.5613 14.172C5.79497 13.9348 6.02873 13.6976 6.26273 13.4608C6.35557 13.3667 6.44824 13.2724 6.54091 13.1782C6.80389 12.9114 7.06898 12.6517 7.35248 12.4071C7.59299 12.1902 7.8176 11.956 8.04467 11.725C8.13945 11.6286 8.23441 11.5324 8.32941 11.4363C8.53106 11.2321 8.7325 11.0276 8.93389 10.8232C9.16757 10.586 9.40133 10.3489 9.63533 10.112C9.72817 10.0179 9.82084 9.92366 9.9135 9.8294C10.1805 9.55857 10.4495 9.29407 10.7375 9.04566C10.9364 8.86905 11.1212 8.67771 11.3078 8.48799C11.3502 8.44518 11.3925 8.40237 11.4361 8.35827C11.5697 8.22308 11.7031 8.0877 11.8365 7.95231C11.9277 7.85997 12.0189 7.76763 12.1102 7.67532C12.3324 7.45036 12.5545 7.22524 12.7764 7ZM12.5352 7.90785C12.5035 7.94044 12.4719 7.97302 12.4393 8.0066C12.4041 8.04261 12.3688 8.07862 12.3325 8.11572C12.2591 8.19128 12.1856 8.26686 12.1122 8.34246C12.0765 8.37897 12.0407 8.41548 12.0039 8.4531C11.9718 8.48613 11.9398 8.51916 11.9067 8.55319C11.8029 8.65352 11.6972 8.74742 11.588 8.8416C11.2996 9.09484 11.0321 9.36861 10.763 9.64228C10.6682 9.73868 10.5733 9.83489 10.4783 9.93107C10.2766 10.1353 10.0752 10.3397 9.8738 10.5441C9.64013 10.7813 9.40636 11.0185 9.17236 11.2553C9.07952 11.3494 8.98685 11.4437 8.89419 11.5379C8.6217 11.8143 8.34794 12.0861 8.05326 12.3387C7.93543 12.4406 7.82621 12.5499 7.71755 12.6615C7.66196 12.7184 7.66196 12.7184 7.60524 12.7764C7.56505 12.818 7.56505 12.818 7.52404 12.8604C7.64722 13.0904 7.79419 13.2548 7.98017 13.4359C8.1959 13.6486 8.40036 13.8664 8.59612 14.0979C8.71626 14.2356 8.84569 14.3626 8.97536 14.4912C9.11117 14.6307 9.23594 14.779 9.36238 14.9272C9.48401 15.0653 9.6136 15.1938 9.74423 15.3231C9.84247 15.424 9.9343 15.5279 10.0256 15.6351C10.2284 15.8705 10.4387 16.0979 10.6513 16.3243C10.7294 16.4078 10.8075 16.4913 10.8856 16.5748C10.9245 16.6163 10.9634 16.6579 11.0035 16.7007C11.1758 16.8852 11.3473 17.0703 11.5186 17.2557C11.5499 17.2894 11.5811 17.3232 11.6133 17.3579C11.7715 17.5291 11.929 17.701 12.0856 17.8737C12.1164 17.9077 12.1472 17.9416 12.1789 17.9766C12.2374 18.0411 12.2957 18.1057 12.3539 18.1705C12.42 18.2433 12.4875 18.3148 12.5553 18.3859C12.5735 18.3859 12.5918 18.3859 12.6106 18.3859C12.6202 17.4859 12.6294 16.5859 12.6382 15.6859C12.6392 15.5854 12.6392 15.5854 12.6402 15.4828C12.6588 13.5726 12.6712 11.6626 12.6693 9.75228C12.6693 9.70267 12.6692 9.65305 12.6692 9.60193C12.6686 9.01369 12.6675 8.42544 12.6659 7.8372C12.6002 7.83087 12.6002 7.83087 12.5352 7.90785ZM12.9976 7.8372C12.9875 8.45462 12.9784 9.07205 12.97 9.68949C12.9693 9.73732 12.9686 9.78514 12.968 9.83442C12.9418 11.764 12.9375 13.6934 12.9389 15.6231C12.9389 15.692 12.9389 15.761 12.939 15.832C12.9396 16.6833 12.9407 17.5346 12.9423 18.3859C13.1658 18.1607 13.3837 17.9318 13.5989 17.6987C13.6507 17.6426 13.6507 17.6426 13.7036 17.5853C13.9001 17.372 14.0937 17.1567 14.282 16.9358C14.4135 16.7843 14.5487 16.6364 14.6839 16.4882C14.8854 16.2673 15.0841 16.0444 15.2791 15.8176C15.4742 15.5922 15.6739 15.3709 15.8726 15.1487C15.9555 15.0557 16.0385 14.9627 16.1214 14.8696C16.247 14.7287 16.3726 14.5878 16.4985 14.4471C16.6864 14.2369 16.8738 14.0264 17.0578 13.8127C17.3032 13.5282 17.5557 13.2504 17.8077 12.972C17.6279 12.6709 17.4038 12.4415 17.1546 12.1976C16.8931 11.9403 16.6424 11.6798 16.4042 11.4003C16.2792 11.2566 16.1463 11.1242 16.0108 10.9906C15.8396 10.8203 15.6725 10.6489 15.5167 10.4639C15.3499 10.2664 15.1707 10.0845 14.988 9.90228C14.7736 9.68852 14.5699 9.47137 14.3746 9.2395C14.2076 9.05154 14.0282 8.8763 13.8501 8.69904C13.657 8.50581 13.4749 8.30691 13.3017 8.09511C13.209 7.99398 13.1074 7.91856 12.9976 7.8372ZM7.15997 13.2216C7.12213 13.26 7.0843 13.2985 7.04533 13.3382C7.00248 13.3816 6.95964 13.425 6.91549 13.4698C6.86879 13.5174 6.82209 13.565 6.77397 13.6141C6.72601 13.6627 6.67805 13.7113 6.62864 13.7614C6.42264 13.9703 6.21696 14.1795 6.01126 14.3887C5.86132 14.541 5.7112 14.6932 5.56108 14.8454C5.51516 14.8923 5.46925 14.9391 5.42194 14.9873C5.22642 15.1855 5.03066 15.3799 4.82032 15.5621C4.52652 15.8172 4.25564 16.0959 3.98212 16.3727C3.9245 16.4308 3.86687 16.4889 3.80924 16.547C3.68945 16.6679 3.56977 16.7888 3.45016 16.9098C3.29653 17.0652 3.14265 17.2204 2.9887 17.3755C2.87013 17.495 2.75168 17.6146 2.63328 17.7343C2.57653 17.7916 2.51974 17.8489 2.46292 17.9061C2.38405 17.9856 2.30537 18.0652 2.22671 18.1449C2.18188 18.1902 2.13705 18.2355 2.09087 18.2822C1.98891 18.3691 1.98891 18.3691 1.99519 18.4417C7.03087 18.4693 7.03087 18.4693 12.1683 18.4975C11.8822 18.1117 11.8822 18.1117 11.5636 17.7719C11.3611 17.5721 11.1716 17.3674 10.9876 17.1503C10.8682 17.0139 10.7402 16.8877 10.6115 16.7603C10.5133 16.6594 10.4215 16.5555 10.3301 16.4483C10.1273 16.2129 9.91711 15.9855 9.70448 15.7592C9.62621 15.6755 9.54796 15.5919 9.46972 15.5082C9.41136 15.4459 9.41136 15.4459 9.35182 15.3822C9.08688 15.0985 8.82392 14.813 8.56062 14.5277C8.45965 14.4185 8.35848 14.3095 8.25726 14.2005C8.18907 14.1271 8.1209 14.0536 8.05273 13.9801C8.02032 13.9452 7.9879 13.9102 7.95451 13.8742C7.75309 13.6564 7.55603 13.4356 7.36573 13.2077C7.34499 13.1852 7.32425 13.1626 7.30288 13.1394C7.23442 13.1331 7.23442 13.1331 7.15997 13.2216ZM18.0288 13.1953C17.7782 13.4423 17.5375 13.6937 17.309 13.9618C17.1738 14.118 17.0347 14.2706 16.8954 14.4231C16.6939 14.6441 16.4952 14.867 16.3002 15.0938C16.1051 15.3191 15.9054 15.5405 15.7067 15.7627C15.6238 15.8557 15.5408 15.9487 15.4579 16.0417C15.2921 16.2278 15.1262 16.4138 14.9603 16.5998C14.9194 16.6457 14.8785 16.6917 14.8364 16.7389C14.7521 16.8335 14.6677 16.928 14.5833 17.0224C14.363 17.2688 14.1443 17.5164 13.9286 17.7669C13.7631 17.9568 13.5937 18.1432 13.4246 18.3298C13.3233 18.4242 13.3233 18.4242 13.3293 18.4975C16.5222 18.4975 19.7151 18.4975 23.0048 18.4975C22.7754 18.1887 22.5605 17.9243 22.2895 17.6603C22.0538 17.4268 21.8268 17.1925 21.6135 16.9378C21.4478 16.7505 21.2689 16.5765 21.0919 16.4001C20.9077 16.2155 20.7351 16.0252 20.5669 15.8254C20.3996 15.6372 20.2198 15.4617 20.0416 15.284C19.8561 15.0982 19.6821 14.9065 19.5128 14.7055C19.3583 14.531 19.1922 14.3684 19.0271 14.2042C18.8762 14.0534 18.7329 13.8993 18.5956 13.7359C18.4233 13.5318 18.2345 13.3647 18.0288 13.1953Z" fill="white"/>
<path d="M12.7764 7C12.9899 7.10008 13.1256 7.22773 13.2913 7.39767C13.3184 7.42534 13.3454 7.453 13.3733 7.48151C13.5517 7.66545 13.7201 7.85568 13.8855 8.05151C14.026 8.2094 14.1749 8.3578 14.3245 8.50695C14.5401 8.7219 14.7452 8.9403 14.9415 9.17344C15.0712 9.31987 15.2089 9.45744 15.3474 9.59531C15.5185 9.76573 15.6857 9.93706 15.8415 10.122C16.0082 10.3196 16.1874 10.5014 16.3702 10.6837C16.5846 10.8974 16.7883 11.1146 16.9835 11.3464C17.1509 11.5347 17.3307 11.7102 17.5089 11.8879C17.6944 12.0737 17.8684 12.2654 18.0377 12.4664C18.1673 12.6128 18.3051 12.7504 18.4435 12.8883C18.6146 13.0587 18.7818 13.23 18.9376 13.415C19.1044 13.6126 19.2836 13.7944 19.4663 13.9766C19.6807 14.1904 19.8845 14.4075 20.0797 14.6394C20.247 14.8277 20.4268 15.0031 20.605 15.1809C20.7905 15.3667 20.9645 15.5583 21.1339 15.7594C21.2635 15.9058 21.4012 16.0434 21.5397 16.1813C21.7108 16.3517 21.878 16.523 22.0338 16.708C22.2272 16.9371 22.4385 17.1459 22.6505 17.3573C22.8383 17.5455 23.0152 17.7393 23.1862 17.9433C23.3353 18.1122 23.4987 18.2661 23.662 18.421C23.8059 18.5839 23.8948 18.7534 24 18.944C22.5547 18.9526 21.1094 18.9609 19.664 18.9687C18.9927 18.9724 18.3214 18.9761 17.6501 18.9802C17.0641 18.9837 16.478 18.987 15.892 18.99C15.5825 18.9917 15.2731 18.9934 14.9637 18.9954C13.8005 19.0028 12.6392 19.0063 11.4766 18.9653C10.5921 18.9346 9.70759 18.9337 8.82268 18.9312C8.50987 18.9303 8.19706 18.929 7.88424 18.9275C6.99654 18.9236 6.10885 18.9202 5.22114 18.9174C4.72702 18.9158 4.2329 18.9138 3.73878 18.9114C3.42785 18.9099 3.11693 18.9089 2.80599 18.9083C2.61383 18.9078 2.42166 18.9068 2.2295 18.9057C2.14044 18.9053 2.05137 18.9051 1.96231 18.9051C1.84094 18.905 1.71959 18.9043 1.59822 18.9034C1.53033 18.9031 1.46244 18.9029 1.39249 18.9026C1.22967 18.8889 1.13699 18.8629 1 18.7766C1.32384 18.4072 1.65638 18.0498 2.00232 17.7015C2.04843 17.6549 2.09453 17.6083 2.14204 17.5603C2.23865 17.4627 2.33534 17.3652 2.43209 17.2678C2.5792 17.1196 2.72601 16.9711 2.87279 16.8226C2.96733 16.7272 3.06189 16.6318 3.15647 16.5364C3.19979 16.4926 3.24311 16.4487 3.28774 16.4035C3.47515 16.2152 3.66322 16.0309 3.8643 15.8574C4.14763 15.6108 4.40875 15.3417 4.67208 15.0738C4.76686 14.9774 4.86181 14.8812 4.95682 14.785C5.15847 14.5808 5.3599 14.3764 5.5613 14.172C5.79497 13.9348 6.02873 13.6976 6.26273 13.4608C6.35557 13.3667 6.44824 13.2724 6.54091 13.1782C6.80389 12.9114 7.06898 12.6517 7.35248 12.4071C7.59299 12.1902 7.8176 11.956 8.04467 11.725C8.13945 11.6286 8.23441 11.5324 8.32941 11.4363C8.53106 11.2321 8.7325 11.0276 8.93389 10.8232C9.16757 10.586 9.40133 10.3489 9.63533 10.112C9.72817 10.0179 9.82084 9.92366 9.9135 9.8294C10.1805 9.55857 10.4495 9.29407 10.7375 9.04566C10.9364 8.86905 11.1212 8.67771 11.3078 8.48799C11.3502 8.44518 11.3925 8.40237 11.4361 8.35827C11.5697 8.22308 11.7031 8.0877 11.8365 7.95231C11.9277 7.85997 12.0189 7.76763 12.1102 7.67532C12.3324 7.45036 12.5545 7.22524 12.7764 7ZM12.5352 7.90785C12.5035 7.94044 12.4719 7.97302 12.4393 8.0066C12.4041 8.04261 12.3688 8.07862 12.3325 8.11572C12.2591 8.19128 12.1856 8.26686 12.1122 8.34246C12.0765 8.37897 12.0407 8.41548 12.0039 8.4531C11.9718 8.48613 11.9398 8.51916 11.9067 8.55319C11.8029 8.65352 11.6972 8.74742 11.588 8.8416C11.2996 9.09484 11.0321 9.36861 10.763 9.64228C10.6682 9.73868 10.5733 9.83489 10.4783 9.93107C10.2766 10.1353 10.0752 10.3397 9.8738 10.5441C9.64013 10.7813 9.40636 11.0185 9.17236 11.2553C9.07952 11.3494 8.98685 11.4437 8.89419 11.5379C8.6217 11.8143 8.34794 12.0861 8.05326 12.3387C7.93543 12.4406 7.82621 12.5499 7.71755 12.6615C7.66196 12.7184 7.66196 12.7184 7.60524 12.7764C7.56505 12.818 7.56505 12.818 7.52404 12.8604C7.64722 13.0904 7.79419 13.2548 7.98017 13.4359C8.1959 13.6486 8.40036 13.8664 8.59612 14.0979C8.71626 14.2356 8.84569 14.3626 8.97536 14.4912C9.11117 14.6307 9.23594 14.779 9.36238 14.9272C9.48401 15.0653 9.6136 15.1938 9.74423 15.3231C9.84247 15.424 9.9343 15.5279 10.0256 15.6351C10.2284 15.8705 10.4387 16.0979 10.6513 16.3243C10.7294 16.4078 10.8075 16.4913 10.8856 16.5748C10.9245 16.6163 10.9634 16.6579 11.0035 16.7007C11.1758 16.8852 11.3473 17.0703 11.5186 17.2557C11.5499 17.2894 11.5811 17.3232 11.6133 17.3579C11.7715 17.5291 11.929 17.701 12.0856 17.8737C12.1164 17.9077 12.1472 17.9416 12.1789 17.9766C12.2374 18.0411 12.2957 18.1057 12.3539 18.1705C12.42 18.2433 12.4875 18.3148 12.5553 18.3859C12.5735 18.3859 12.5918 18.3859 12.6106 18.3859C12.6202 17.4859 12.6294 16.5859 12.6382 15.6859C12.6392 15.5854 12.6392 15.5854 12.6402 15.4828C12.6588 13.5726 12.6712 11.6626 12.6693 9.75228C12.6693 9.70267 12.6692 9.65305 12.6692 9.60193C12.6686 9.01369 12.6675 8.42544 12.6659 7.8372C12.6002 7.83087 12.6002 7.83087 12.5352 7.90785ZM12.9976 7.8372C12.9875 8.45462 12.9784 9.07205 12.97 9.68949C12.9693 9.73732 12.9686 9.78514 12.968 9.83442C12.9418 11.764 12.9375 13.6934 12.9389 15.6231C12.9389 15.692 12.9389 15.761 12.939 15.832C12.9396 16.6833 12.9407 17.5346 12.9423 18.3859C13.1658 18.1607 13.3837 17.9318 13.5989 17.6987C13.6507 17.6426 13.6507 17.6426 13.7036 17.5853C13.9001 17.372 14.0937 17.1567 14.282 16.9358C14.4135 16.7843 14.5487 16.6364 14.6839 16.4882C14.8854 16.2673 15.0841 16.0444 15.2791 15.8176C15.4742 15.5922 15.6739 15.3709 15.8726 15.1487C15.9555 15.0557 16.0385 14.9627 16.1214 14.8696C16.247 14.7287 16.3726 14.5878 16.4985 14.4471C16.6864 14.2369 16.8738 14.0264 17.0578 13.8127C17.3032 13.5282 17.5557 13.2504 17.8077 12.972C17.6279 12.6709 17.4038 12.4415 17.1546 12.1976C16.8931 11.9403 16.6424 11.6798 16.4042 11.4003C16.2792 11.2566 16.1463 11.1242 16.0108 10.9906C15.8396 10.8203 15.6725 10.6489 15.5167 10.4639C15.3499 10.2664 15.1707 10.0845 14.988 9.90228C14.7736 9.68852 14.5699 9.47137 14.3746 9.2395C14.2076 9.05154 14.0282 8.8763 13.8501 8.69904C13.657 8.50581 13.4749 8.30691 13.3017 8.09511C13.209 7.99398 13.1074 7.91856 12.9976 7.8372ZM7.15997 13.2216C7.12213 13.26 7.0843 13.2985 7.04533 13.3382C7.00248 13.3816 6.95964 13.425 6.91549 13.4698C6.86879 13.5174 6.82209 13.565 6.77397 13.6141C6.72601 13.6627 6.67805 13.7113 6.62864 13.7614C6.42264 13.9703 6.21696 14.1795 6.01126 14.3887C5.86132 14.541 5.7112 14.6932 5.56108 14.8454C5.51516 14.8923 5.46925 14.9391 5.42194 14.9873C5.22642 15.1855 5.03066 15.3799 4.82032 15.5621C4.52652 15.8172 4.25564 16.0959 3.98212 16.3727C3.9245 16.4308 3.86687 16.4889 3.80924 16.547C3.68945 16.6679 3.56977 16.7888 3.45016 16.9098C3.29653 17.0652 3.14265 17.2204 2.9887 17.3755C2.87013 17.495 2.75168 17.6146 2.63328 17.7343C2.57653 17.7916 2.51974 17.8489 2.46292 17.9061C2.38405 17.9856 2.30537 18.0652 2.22671 18.1449C2.18188 18.1902 2.13705 18.2355 2.09087 18.2822C1.98891 18.3691 1.98891 18.3691 1.99519 18.4417C7.03087 18.4693 7.03087 18.4693 12.1683 18.4975C11.8822 18.1117 11.8822 18.1117 11.5636 17.7719C11.3611 17.5721 11.1716 17.3674 10.9876 17.1503C10.8682 17.0139 10.7402 16.8877 10.6115 16.7603C10.5133 16.6594 10.4215 16.5555 10.3301 16.4483C10.1273 16.2129 9.91711 15.9855 9.70448 15.7592C9.62621 15.6755 9.54796 15.5919 9.46972 15.5082C9.41136 15.4459 9.41136 15.4459 9.35182 15.3822C9.08688 15.0985 8.82392 14.813 8.56062 14.5277C8.45965 14.4185 8.35848 14.3095 8.25726 14.2005C8.18907 14.1271 8.1209 14.0536 8.05273 13.9801C8.02032 13.9452 7.9879 13.9102 7.95451 13.8742C7.75309 13.6564 7.55603 13.4356 7.36573 13.2077C7.34499 13.1852 7.32425 13.1626 7.30288 13.1394C7.23442 13.1331 7.23442 13.1331 7.15997 13.2216ZM18.0288 13.1953C17.7782 13.4423 17.5375 13.6937 17.309 13.9618C17.1738 14.118 17.0347 14.2706 16.8954 14.4231C16.6939 14.6441 16.4952 14.867 16.3002 15.0938C16.1051 15.3191 15.9054 15.5405 15.7067 15.7627C15.6238 15.8557 15.5408 15.9487 15.4579 16.0417C15.2921 16.2278 15.1262 16.4138 14.9603 16.5998C14.9194 16.6457 14.8785 16.6917 14.8364 16.7389C14.7521 16.8335 14.6677 16.928 14.5833 17.0224C14.363 17.2688 14.1443 17.5164 13.9286 17.7669C13.7631 17.9568 13.5937 18.1432 13.4246 18.3298C13.3233 18.4242 13.3233 18.4242 13.3293 18.4975C16.5222 18.4975 19.7151 18.4975 23.0048 18.4975C22.7754 18.1887 22.5605 17.9243 22.2895 17.6603C22.0538 17.4268 21.8268 17.1925 21.6135 16.9378C21.4478 16.7505 21.2689 16.5765 21.0919 16.4001C20.9077 16.2155 20.7351 16.0252 20.5669 15.8254C20.3996 15.6372 20.2198 15.4617 20.0416 15.284C19.8561 15.0982 19.6821 14.9065 19.5128 14.7055C19.3583 14.531 19.1922 14.3684 19.0271 14.2042C18.8762 14.0534 18.7329 13.8993 18.5956 13.7359C18.4233 13.5318 18.2345 13.3647 18.0288 13.1953Z" stroke="white" stroke-width="0.6" mask="url(#path-1-outside-1_1957_1177)"/>
</svg>
